<svg xmlns="http://www.w3.org/2000/svg" viewBox="0 0 272.74 66"><defs><style>.a{fill:#fff;}</style></defs><title>F1_dotted_box</title><path class="a" d="M5.59,36.67H0V31.08H5.59ZM1.08,35.6H4.52V32.16H1.08Z"/><path class="a" d="M5.59,6.15H0V.56H5.59ZM1.08,5.08H4.52V1.64H1.08Z"/><path class="a" d="M5.59,65.48H0V59.89H5.59ZM1.08,64.41H4.52V61H1.08Z"/><path class="a" d="M272.74,35.71h-5.47V30.24h5.47Zm-4.39-1.08h3.31V31.32h-3.31Z"/><path class="a" d="M272.74,6.15h-5.6V.56h5.6Zm-4.52-1.07h3.44V1.64h-3.44Z"/><path class="a" d="M138.56,5.59H133V0h5.59ZM134,4.52h3.45V1.08H134Z"/><path class="a" d="M139.16,66h-5.59V60.41h5.59Zm-4.51-1.08h3.44V61.48h-3.44Z"/><path class="a" d="M272.18,64.92h-5.6V59.33h5.6Zm-4.52-1.07h3.44V60.41h-3.44Z"/><rect class="a" x="7.65" y="1.61" width="3.25" height="1.12"/><rect class="a" x="13.05" y="1.61" width="3.25" height="1.12"/><rect class="a" x="18.46" y="1.61" width="3.25" height="1.12"/><rect class="a" x="23.86" y="1.61" width="3.25" height="1.12"/><rect class="a" x="29.27" y="1.61" width="3.25" height="1.12"/><rect class="a" x="34.67" y="1.61" width="3.25" height="1.12"/><rect class="a" x="40.08" y="1.61" width="3.25" height="1.12"/><rect class="a" x="45.48" y="1.61" width="3.25" height="1.12"/><rect class="a" x="50.9" y="1.61" width="3.25" height="1.12"/><rect class="a" x="56.3" y="1.61" width="3.25" height="1.12"/><rect class="a" x="61.71" y="1.61" width="3.25" height="1.12"/><rect class="a" x="67.11" y="1.61" width="3.25" height="1.12"/><rect class="a" x="72.52" y="1.61" width="3.25" height="1.12"/><rect class="a" x="77.92" y="1.61" width="3.25" height="1.12"/><rect class="a" x="83.33" y="1.61" width="3.25" height="1.12"/><rect class="a" x="88.73" y="1.61" width="3.25" height="1.12"/><rect class="a" x="94.14" y="1.61" width="3.25" height="1.12"/><rect class="a" x="99.54" y="1.61" width="3.25" height="1.12"/><rect class="a" x="104.95" y="1.61" width="3.25" height="1.12"/><rect class="a" x="110.36" y="1.61" width="3.25" height="1.12"/><rect class="a" x="115.77" y="1.61" width="3.25" height="1.12"/><rect class="a" x="121.17" y="1.61" width="3.25" height="1.12"/><rect class="a" x="126.58" y="1.61" width="3.25" height="1.12"/><rect class="a" x="141.71" y="1.61" width="3.25" height="1.12"/><rect class="a" x="147.13" y="1.61" width="3.25" height="1.12"/><rect class="a" x="152.53" y="1.61" width="3.25" height="1.12"/><rect class="a" x="157.94" y="1.61" width="3.25" height="1.12"/><rect class="a" x="163.34" y="1.61" width="3.25" height="1.12"/><rect class="a" x="168.75" y="1.61" width="3.25" height="1.12"/><rect class="a" x="174.15" y="1.61" width="3.25" height="1.12"/><rect class="a" x="179.56" y="1.61" width="3.25" height="1.12"/><rect class="a" x="184.96" y="1.61" width="3.25" height="1.12"/><rect class="a" x="190.37" y="1.61" width="3.25" height="1.12"/><rect class="a" x="195.77" y="1.61" width="3.25" height="1.12"/><rect class="a" x="201.18" y="1.61" width="3.25" height="1.12"/><rect class="a" x="206.58" y="1.61" width="3.25" height="1.12"/><rect class="a" x="212" y="1.61" width="3.25" height="1.12"/><rect class="a" x="217.4" y="1.61" width="3.25" height="1.12"/><rect class="a" x="222.81" y="1.61" width="3.25" height="1.12"/><rect class="a" x="228.21" y="1.61" width="3.25" height="1.12"/><rect class="a" x="233.62" y="1.61" width="3.25" height="1.12"/><rect class="a" x="239.02" y="1.61" width="3.25" height="1.12"/><rect class="a" x="244.43" y="1.61" width="3.25" height="1.12"/><rect class="a" x="249.83" y="1.61" width="3.25" height="1.12"/><rect class="a" x="255.24" y="1.61" width="3.25" height="1.12"/><rect class="a" x="260.64" y="1.61" width="3.25" height="1.12"/><rect class="a" x="270.2" y="8.48" width="1.09" height="3.35"/><rect class="a" x="270.2" y="14.05" width="1.09" height="3.35"/><rect class="a" x="270.2" y="19.62" width="1.09" height="3.35"/><rect class="a" x="270.2" y="25.2" width="1.09" height="3.35"/><rect class="a" x="261.03" y="62.54" width="3.25" height="1.12"/><rect class="a" x="255.63" y="62.54" width="3.25" height="1.12"/><rect class="a" x="250.22" y="62.54" width="3.25" height="1.12"/><rect class="a" x="244.82" y="62.54" width="3.25" height="1.12"/><rect class="a" x="239.41" y="62.54" width="3.25" height="1.12"/><rect class="a" x="234.01" y="62.54" width="3.25" height="1.12"/><rect class="a" x="228.6" y="62.54" width="3.25" height="1.12"/><rect class="a" x="223.2" y="62.54" width="3.25" height="1.12"/><rect class="a" x="217.78" y="62.54" width="3.25" height="1.12"/><rect class="a" x="212.38" y="62.54" width="3.25" height="1.12"/><rect class="a" x="206.97" y="62.54" width="3.25" height="1.12"/><rect class="a" x="201.57" y="62.54" width="3.25" height="1.12"/><rect class="a" x="196.16" y="62.54" width="3.25" height="1.12"/><rect class="a" x="190.76" y="62.54" width="3.25" height="1.12"/><rect class="a" x="185.35" y="62.54" width="3.25" height="1.12"/><rect class="a" x="179.95" y="62.54" width="3.25" height="1.12"/><rect class="a" x="174.54" y="62.54" width="3.25" height="1.12"/><rect class="a" x="169.14" y="62.54" width="3.25" height="1.12"/><rect class="a" x="163.73" y="62.54" width="3.25" height="1.12"/><rect class="a" x="158.32" y="62.54" width="3.25" height="1.12"/><rect class="a" x="152.91" y="62.54" width="3.25" height="1.12"/><rect class="a" x="147.51" y="62.54" width="3.25" height="1.12"/><rect class="a" x="142.1" y="62.54" width="3.25" height="1.12"/><rect class="a" x="126.97" y="62.54" width="3.25" height="1.12"/><rect class="a" x="121.55" y="62.54" width="3.25" height="1.12"/><rect class="a" x="116.15" y="62.54" width="3.25" height="1.12"/><rect class="a" x="110.74" y="62.54" width="3.25" height="1.12"/><rect class="a" x="105.34" y="62.54" width="3.25" height="1.12"/><rect class="a" x="99.93" y="62.54" width="3.25" height="1.12"/><rect class="a" x="94.53" y="62.54" width="3.25" height="1.12"/><rect class="a" x="89.12" y="62.54" width="3.25" height="1.12"/><rect class="a" x="83.72" y="62.54" width="3.25" height="1.12"/><rect class="a" x="78.31" y="62.54" width="3.25" height="1.12"/><rect class="a" x="72.91" y="62.54" width="3.25" height="1.12"/><rect class="a" x="67.5" y="62.54" width="3.25" height="1.12"/><rect class="a" x="62.09" y="62.54" width="3.25" height="1.12"/><rect class="a" x="56.68" y="62.54" width="3.25" height="1.12"/><rect class="a" x="51.28" y="62.54" width="3.25" height="1.12"/><rect class="a" x="45.87" y="62.54" width="3.25" height="1.12"/><rect class="a" x="40.47" y="62.54" width="3.25" height="1.12"/><rect class="a" x="35.06" y="62.54" width="3.25" height="1.12"/><rect class="a" x="29.66" y="62.54" width="3.25" height="1.12"/><rect class="a" x="24.25" y="62.54" width="3.25" height="1.12"/><rect class="a" x="18.85" y="62.54" width="3.25" height="1.12"/><rect class="a" x="13.44" y="62.54" width="3.25" height="1.12"/><rect class="a" x="8.04" y="62.54" width="3.25" height="1.12"/><rect class="a" x="2.24" y="25.04" width="1.09" height="3.35"/><rect class="a" x="2.24" y="19.47" width="1.09" height="3.35"/><rect class="a" x="2.24" y="13.91" width="1.09" height="3.35"/><rect class="a" x="2.24" y="8.34" width="1.09" height="3.35"/><rect class="a" x="270.2" y="38.6" width="1.09" height="3.35"/><rect class="a" x="270.2" y="44.17" width="1.09" height="3.35"/><rect class="a" x="270.2" y="49.74" width="1.09" height="3.35"/><rect class="a" x="270.2" y="55.32" width="1.09" height="3.35"/><rect class="a" x="2.24" y="55.17" width="1.09" height="3.35"/><rect class="a" x="2.24" y="49.59" width="1.09" height="3.35"/><rect class="a" x="2.24" y="44.03" width="1.09" height="3.35"/><rect class="a" x="2.24" y="38.46" width="1.09" height="3.35"/></svg>