<svg id="Layer_1" data-name="Layer 1" xmlns="http://www.w3.org/2000/svg" viewBox="0 0 422.11 162.27"><defs><style>.cls-1{fill:#fff;}.cls-2{fill:none;}.cls-3{isolation:isolate;}</style></defs><path class="cls-1" d="M7023-7256H7043v47.76Z" transform="translate(-6988.94 7281.14)"/><path class="cls-1" d="M7009-7256h-20v47.76Z" transform="translate(-6988.94 7281.14)"/><path class="cls-1" d="M7016-7238.42l12.71,30.16h-8.33l-3.81-9.6h-9.3Z" transform="translate(-6988.94 7281.14)"/><path class="cls-1" d="M6995.93-7189.11c-.38-1.94-1.07-4.87-1.33-6.76h0c-.27,1.84-.76,4.41-1.22,6.76Zm-3.17,2.85-.87,4.15c0,.16-.08.18-.22.18h-2.53c-.16,0-.21,0-.19-.26l3.49-15.05a5.5,5.5,0,0,0,.11-1.46.14.14,0,0,1,.12-.16h3.61c.14,0,.19,0,.22.18l4.07,16.53c0,.16,0,.21-.16.21h-2.82a.19.19,0,0,1-.21-.15h0l-.94-4.16Z" transform="translate(-6988.94 7281.14)"/><path class="cls-1" d="M7007.34-7192.39a1.46,1.46,0,0,0-.58-.08c-1.48,0-2.58,1.34-2.58,4s1.1,3.95,2.55,3.95a3.19,3.19,0,0,0,.61-.08Zm-6.29,4c0-3.84,2.26-6.81,5.87-6.81h.42v-4.52a.13.13,0,0,1,.12-.15h2.86c.1,0,.13.06.13.14v15.14a11.58,11.58,0,0,0,.08,1.76.17.17,0,0,1-.1.18,8.74,8.74,0,0,1-3.82.92C7003.29-7181.72,7001.05-7183.88,7001.05-7188.39Z" transform="translate(-6988.94 7281.14)"/><path class="cls-1" d="M7015.2-7188.5c0,2.45.53,4.05,1.71,4.05s1.68-1.37,1.68-4c0-2.47-.42-4-1.65-4S7015.2-7191.23,7015.2-7188.5Zm6.49,0c0,4.16-1.74,6.79-4.79,6.79-3.43,0-4.79-3-4.79-6.81s1.74-6.68,4.84-6.68S7021.69-7192.73,7021.69-7188.5Z" transform="translate(-6988.94 7281.14)"/><path class="cls-1" d="M7027.45-7192.41a2.8,2.8,0,0,0-.95.13v7.75a3.31,3.31,0,0,0,.55.06c1.18,0,2.58-1.21,2.6-4.47C7029.64-7191.5,7028.61-7192.41,7027.45-7192.41Zm-1.08-7.44c.1,0,.13.05.13.16v4.65a5.63,5.63,0,0,1,1.42-.16c2.73,0,4.81,2.1,4.81,6.18,0,4.76-2.71,7.31-6.1,7.31a10.24,10.24,0,0,1-3.06-.48.23.23,0,0,1-.15-.21v-17.3a.14.14,0,0,1,.11-.16h2.84Z" transform="translate(-6988.94 7281.14)"/><path class="cls-1" d="M7039.17-7190.21a5.21,5.21,0,0,0,.79,0,1.4,1.4,0,0,0,0-.29c0-1-.32-2.05-1.4-2.05s-1.47,1.08-1.6,2.36Zm-2.23,2.48c0,2,.76,3.26,2.89,3.26a5.52,5.52,0,0,0,2-.39c.13-.05.21-.05.21.14v2.17c0,.19-.05.29-.18.35a6,6,0,0,1-2.6.47c-3.86,0-5.36-2.84-5.36-6.55,0-3.94,1.73-6.94,4.81-6.94s4.18,2.87,4.18,5.21a15.06,15.06,0,0,1-.14,2c0,.13-.1.18-.23.21a24.92,24.92,0,0,1-2.5.08Z" transform="translate(-6988.94 7281.14)"/><rect class="cls-2" y="34.42" width="54" height="25"/><rect class="cls-2" x="29" y="34.42" width="25" height="65"/><path class="cls-1" d="M7128.76-7260.53c0,.21-.06.37-.24.42a13.36,13.36,0,0,1-4.17.54c-5.82,0-10.35-3.44-10.35-10,0-6.09,4.2-10.23,10.83-10.23a10,10,0,0,1,3.9.51.33.33,0,0,1,.21.35v3.27c0,.27-.15.27-.27.21a9.63,9.63,0,0,0-3.9-.66c-4,0-6.48,2.5-6.48,6.39,0,4.69,3.42,6.44,6.57,6.44a11.1,11.1,0,0,0,3.66-.47c.15-.07.24,0,.24.14Z" transform="translate(-6988.94 7281.14)"/><path class="cls-1" d="M7145.23-7267.39c0,4.7-3.06,7.82-7.38,7.82-5.13,0-7.41-3.87-7.41-7.73,0-4.26,2.85-7.77,7.47-7.77C7142.74-7275.07,7145.23-7271.44,7145.23-7267.39Zm-10.56,0c0,2.65,1.23,4.33,3.24,4.33,1.74,0,3.06-1.5,3.06-4.26,0-2.34-1-4.29-3.24-4.29-1.74,0-3.06,1.57-3.06,4.24Z" transform="translate(-6988.94 7281.14)"/><path class="cls-1" d="M7148.2-7259.83c-.21,0-.27-.08-.27-.26v-11.41c0-1.1-.09-2.39-.12-3,0-.18.06-.27.24-.27h3.18a.4.4,0,0,1,.36.18,4.16,4.16,0,0,1,.18,1.11,6.47,6.47,0,0,1,4.32-1.59,4.25,4.25,0,0,1,3.84,1.92,7.3,7.3,0,0,1,4.86-1.92c2.61,0,5.13,1.41,5.13,5.94v9c0,.18-.09.26-.27.26h-3.6c-.21,0-.3-.08-.3-.26v-8.58c0-1.56-.54-2.76-2.28-2.76a3.94,3.94,0,0,0-2.55,1,13.31,13.31,0,0,1,.09,1.68v8.7c0,.14-.06.26-.24.26h-3.63c-.18,0-.3-.05-.3-.26v-8.7c0-1.8-.84-2.61-2.28-2.61a4,4,0,0,0-2.46.84v10.49c0,.16-.06.24-.27.24Z" transform="translate(-6988.94 7281.14)"/><path class="cls-1" d="M7173.7-7259.83c-.21,0-.27-.08-.27-.26v-11.41c0-1.1-.09-2.39-.12-3,0-.18.06-.27.24-.27h3.18a.4.4,0,0,1,.36.18,4.16,4.16,0,0,1,.18,1.11,6.47,6.47,0,0,1,4.32-1.59,4.25,4.25,0,0,1,3.84,1.92,7.3,7.3,0,0,1,4.86-1.92c2.61,0,5.13,1.41,5.13,5.94v9c0,.18-.09.26-.27.26h-3.6c-.21,0-.3-.08-.3-.26v-8.58c0-1.56-.54-2.76-2.28-2.76a3.94,3.94,0,0,0-2.55,1,13.31,13.31,0,0,1,.09,1.68v8.7c0,.14-.06.26-.24.26h-3.63c-.18,0-.3-.05-.3-.26v-8.7c0-1.8-.84-2.61-2.28-2.61a4,4,0,0,0-2.46.84v10.49c0,.16-.06.24-.27.24Z" transform="translate(-6988.94 7281.14)"/><path class="cls-1" d="M7202.38-7266.22c.15,1.71,1.35,3.11,4.29,3.11a9.51,9.51,0,0,0,3.69-.68c.09-.07.18,0,.18.14v2.86c0,.21-.06.29-.21.35a10.19,10.19,0,0,1-4.59.87c-5.64,0-7.62-3.87-7.62-7.59,0-4.13,2.55-7.91,7.26-7.91,4.53,0,6.33,3.51,6.33,6.48a9.58,9.58,0,0,1-.15,2,.27.27,0,0,1-.24.24q-1.55.14-3.09.12Zm3.9-2.91a8.38,8.38,0,0,0,1.5-.07v-.21a2.45,2.45,0,0,0-2.52-2.37h0a2.83,2.83,0,0,0-2.88,2.64Z" transform="translate(-6988.94 7281.14)"/><path class="cls-1" d="M7214.38-7271.29c0-1-.06-2.58-.12-3.24,0-.15,0-.24.21-.24h3.15a.34.34,0,0,1,.39.24,3.75,3.75,0,0,1,.24,1,6.5,6.5,0,0,1,4.26-1.53c2.31,0,5,1.2,5,6v8.91c0,.18-.06.26-.27.26h-3.6c-.21,0-.3-.08-.3-.26v-8.55c0-1.8-.78-2.76-2.34-2.76a3.57,3.57,0,0,0-2.49.93v10.4q0,.24-.27.24h-3.63c-.21,0-.27-.08-.27-.26Z" transform="translate(-6988.94 7281.14)"/><path class="cls-1" d="M7238.5-7260.37c0,.17,0,.33-.21.38a7.58,7.58,0,0,1-2.67.42c-2.61,0-4.14-1.29-4.14-4.29v-7.43h-1.8c-.18,0-.24-.09-.24-.27v-2.94c0-.21.06-.27.27-.27h1.8a31.35,31.35,0,0,1,.3-3.63.32.32,0,0,1,.27-.27l3.51-.45c.15,0,.24,0,.24.18-.09.93-.15,2.7-.15,4.17h2.77c.18,0,.24.06.24.24v3c0,.15-.06.17-.21.21h-2.82v6.42c0,1.32.39,1.92,1.62,1.92a6.67,6.67,0,0,0,1-.13c.12,0,.21,0,.21.21Z" transform="translate(-6988.94 7281.14)"/><path class="cls-1" d="M7241.08-7262.08a2.38,2.38,0,0,1,2.27-2.5.81.81,0,0,1,.22,0,2.37,2.37,0,0,1,2.49,2.26v.24a2.31,2.31,0,0,1-2.12,2.5,2.29,2.29,0,0,1-.37,0,2.38,2.38,0,0,1-2.49-2.25A1.13,1.13,0,0,1,7241.08-7262.08Z" transform="translate(-6988.94 7281.14)"/><path class="cls-1" d="M7268.68-7260.13c0,.23-.09.26-.3.26h-12.21c-.18,0-.24-.08-.24-.26v-19.11c0-.18.06-.27.24-.27H7268c.24,0,.3,0,.33.24l.33,3.24c0,.15,0,.27-.21.27h-8.37v4h7.65c.15,0,.24.07.24.25v3.29c0,.18-.12.21-.24.21h-7.65v4.38H7269c.24,0,.27.09.24.28Z" transform="translate(-6988.94 7281.14)"/><path class="cls-1" d="M7270.54-7267.18c0-4.29,3.21-7.89,8.7-7.89a7,7,0,0,1,1,.06v-5.91a.19.19,0,0,1,.17-.21s0,0,0,0h3.78c.15,0,.18.06.18.18v17.73a16,16,0,0,0,.12,2.18c0,.16,0,.21-.21.27a15.19,15.19,0,0,1-5.91,1.2C7274-7259.57,7270.54-7262.08,7270.54-7267.18Zm9.69-4.26a3,3,0,0,0-1.11-.15,4,4,0,0,0-4.29,3.69,4.34,4.34,0,0,0,0,.51c0,3,1.71,4.26,4,4.26a4.21,4.21,0,0,0,1.41-.19Z" transform="translate(-6988.94 7281.14)"/><path class="cls-1" d="M7287.67-7278.7a2.25,2.25,0,0,1,2.19-2.32h.15a2.17,2.17,0,0,1,2.31,2v.29a2.2,2.2,0,0,1-2,2.34H7290a2.18,2.18,0,0,1-2.31-2A1.5,1.5,0,0,1,7287.67-7278.7Zm.21,4.17c0-.15.06-.24.24-.24h3.69c.18,0,.24.06.24.24v14.4c0,.18,0,.25-.27.25h-3.6c-.21,0-.3-.08-.3-.25Z" transform="translate(-6988.94 7281.14)"/><path class="cls-1" d="M7303.33-7260.37c0,.17,0,.33-.21.38a7.58,7.58,0,0,1-2.67.42c-2.61,0-4.14-1.29-4.14-4.29v-7.43h-1.8c-.18,0-.24-.09-.24-.27v-2.94c0-.21.06-.27.27-.27h1.8a31.35,31.35,0,0,1,.3-3.63.32.32,0,0,1,.27-.27l3.51-.45c.15,0,.24,0,.24.18-.09.93-.15,2.7-.15,4.17h2.76c.18,0,.24.06.24.24v3c0,.15-.06.17-.21.21h-2.85v6.42c0,1.32.39,1.92,1.62,1.92a6.85,6.85,0,0,0,1-.13c.12,0,.21,0,.21.21Z" transform="translate(-6988.94 7281.14)"/><path class="cls-1" d="M7305.91-7262.08a2.37,2.37,0,0,1,2.25-2.5,1,1,0,0,1,.24,0,2.36,2.36,0,0,1,2.48,2.25v.25a2.31,2.31,0,0,1-2.1,2.5,2.38,2.38,0,0,1-.38,0,2.36,2.36,0,0,1-2.49-2.23A1.31,1.31,0,0,1,7305.91-7262.08Z" transform="translate(-6988.94 7281.14)"/><path class="cls-1" d="M7333.5-7260.13c0,.23-.09.26-.3.26H7321c-.17,0-.24-.08-.24-.26v-19.11c0-.18.07-.27.24-.27h11.85c.24,0,.3,0,.33.24l.33,3.24c0,.15,0,.27-.21.27h-8.37v4h7.65c.15,0,.24.07.24.25v3.29c0,.18-.12.21-.24.21h-7.65v4.38h8.85c.24,0,.27.09.24.28Z" transform="translate(-6988.94 7281.14)"/><path class="cls-1" d="M7336-7265.83c-.15,0-.21-.09-.21-.24v-3.16a.19.19,0,0,1,.17-.21s0,0,0,0h7.23c.12,0,.18,0,.18.21v3.19c0,.18-.06.21-.15.21Z" transform="translate(-6988.94 7281.14)"/><path class="cls-1" d="M7351.45-7271.75c-1.41,0-1.86.52-1.86,1s.39.89,2.13,1.56c3.63,1.32,4.77,2.73,4.77,4.86,0,2.85-2.22,4.73-6.18,4.73a9.69,9.69,0,0,1-4.35-.84.33.33,0,0,1-.21-.33V-7264c0-.19.12-.28.24-.19a8.65,8.65,0,0,0,4.41,1.21c1.41,0,2-.39,2-1s-.51-1-2.28-1.65c-3.39-1.26-4.5-2.71-4.5-4.86,0-2.34,1.89-4.59,5.85-4.59a9.78,9.78,0,0,1,3.9.6.38.38,0,0,1,.21.39v3c0,.18-.12.29-.3.21A9.09,9.09,0,0,0,7351.45-7271.75Z" transform="translate(-6988.94 7281.14)"/><path class="cls-1" d="M7358.79-7278.7A2.25,2.25,0,0,1,7361-7281h.15a2.17,2.17,0,0,1,2.31,2v.29a2.2,2.2,0,0,1-2,2.34h-.29a2.18,2.18,0,0,1-2.31-2A1.5,1.5,0,0,1,7358.79-7278.7Zm.21,4.17c0-.15.06-.24.24-.24h3.69c.18,0,.24.06.24.24v14.4c0,.18,0,.25-.27.25h-3.6c-.21,0-.3-.08-.3-.25Z" transform="translate(-6988.94 7281.14)"/><path class="cls-1" d="M7374.39-7263.34c4.29.21,5.88,1.94,5.88,4.31,0,3.12-3.06,5.64-7.89,5.64-5,0-7.2-2.48-7.2-4.65,0-1,.78-2.16,2.76-3.8a3.77,3.77,0,0,1-.63-2.25,4.13,4.13,0,0,1,.54-2,4.3,4.3,0,0,1-2.07-3.87c0-2.87,2.25-5.12,6.15-5.12a17,17,0,0,1,2.85.24,4.28,4.28,0,0,0,.72.06h4.11c.15,0,.21.06.21.21v2.79c0,.15-.06.21-.21.21-.45,0-1.44-.09-2.07-.15a3.89,3.89,0,0,1,.45,1.95c0,3.18-2.61,4.76-5.94,4.76a6.57,6.57,0,0,1-1-.05,1.36,1.36,0,0,0-.06.8,1.67,1.67,0,0,0,.33.79Zm-4.26,3.35a2.92,2.92,0,0,0-1.14,1.59c0,.94,1.32,1.95,3.66,1.95,2.67,0,3.81-.92,3.81-1.92s-1.32-1.41-3-1.5Zm-.3-10a2,2,0,0,0,2,2h.14a1.84,1.84,0,0,0,2.06-1.57,2.44,2.44,0,0,0,0-.38,1.93,1.93,0,0,0-1.64-2.17,1.77,1.77,0,0,0-.46,0,1.91,1.91,0,0,0-2.1,1.72,1.27,1.27,0,0,0,0,.39Z" transform="translate(-6988.94 7281.14)"/><path class="cls-1" d="M7382.13-7271.29c0-1-.06-2.58-.12-3.24,0-.15,0-.24.21-.24h3.15a.34.34,0,0,1,.39.24,3.75,3.75,0,0,1,.24,1,6.5,6.5,0,0,1,4.26-1.53c2.31,0,5,1.2,5,6v8.91c0,.18-.06.26-.27.26h-3.54c-.21,0-.3-.08-.3-.26v-8.55c0-1.8-.78-2.76-2.34-2.76a3.57,3.57,0,0,0-2.49.93v10.4q0,.24-.27.24h-3.6c-.21,0-.27-.08-.27-.26Z" transform="translate(-6988.94 7281.14)"/><path class="cls-1" d="M7398.12-7262.08a2.38,2.38,0,0,1,2.27-2.5.81.81,0,0,1,.22,0,2.37,2.37,0,0,1,2.49,2.26v.24a2.31,2.31,0,0,1-2.12,2.5,2.29,2.29,0,0,1-.37,0,2.38,2.38,0,0,1-2.49-2.25A1.13,1.13,0,0,1,7398.12-7262.08Z" transform="translate(-6988.94 7281.14)"/><path class="cls-1" d="M7115.35-7229.83c-.18,0-.24-.05-.24-.26v-19.05c0-.15,0-.3.21-.3,2.7-.06,3.84-.09,6.27-.09,5,0,7.77,2.13,7.77,6a5.67,5.67,0,0,1-3.75,5.28c1,1.34,4.38,6.45,5.31,8.06.09.19.12.36-.09.36h-4.38c-.27,0-.36-.05-.42-.17-.87-1.33-2.76-4.54-4-6.58-.21-.35-.36-.5-.69-.5h-2.19v7a.23.23,0,0,1-.2.24h-3.6Zm6.15-10.79c2.25,0,3.69-.9,3.69-2.67s-1.5-2.61-3.72-2.61a22.55,22.55,0,0,0-2.28.06v5.22Z" transform="translate(-6988.94 7281.14)"/><path class="cls-1" d="M7135.6-7236.22c.15,1.71,1.35,3.11,4.29,3.11a9.51,9.51,0,0,0,3.69-.68c.09-.07.18,0,.18.14v2.86c0,.21-.06.29-.21.35a10.19,10.19,0,0,1-4.59.87c-5.64,0-7.62-3.87-7.62-7.59,0-4.13,2.55-7.91,7.26-7.91,4.53,0,6.33,3.51,6.33,6.48a9.58,9.58,0,0,1-.15,2,.27.27,0,0,1-.24.24q-1.54.14-3.09.12Zm3.9-2.91a8.38,8.38,0,0,0,1.5-.07v-.21a2.45,2.45,0,0,0-2.52-2.37h0a2.83,2.83,0,0,0-2.88,2.64Z" transform="translate(-6988.94 7281.14)"/><path class="cls-1" d="M7147.6-7241.29c0-1-.06-2.58-.12-3.24,0-.15,0-.24.21-.24h3.15a.34.34,0,0,1,.39.24,3.75,3.75,0,0,1,.24,1,6.5,6.5,0,0,1,4.26-1.53c2.31,0,5,1.2,5,6v8.91c0,.18-.06.26-.27.26h-3.6c-.21,0-.3-.08-.3-.26v-8.55c0-1.8-.78-2.76-2.34-2.76a3.57,3.57,0,0,0-2.49.93v10.4q0,.24-.27.24h-3.63c-.21,0-.27-.08-.27-.26Z" transform="translate(-6988.94 7281.14)"/><path class="cls-1" d="M7167.73-7236.22c.15,1.71,1.35,3.11,4.29,3.11a9.51,9.51,0,0,0,3.69-.68c.09-.07.18,0,.18.14v2.86c0,.21-.06.29-.21.35a10.19,10.19,0,0,1-4.59.87c-5.64,0-7.62-3.87-7.62-7.59,0-4.13,2.55-7.91,7.26-7.91,4.53,0,6.33,3.51,6.33,6.48a9.58,9.58,0,0,1-.15,2,.27.27,0,0,1-.24.24q-1.55.14-3.09.12Zm3.9-2.91a8.38,8.38,0,0,0,1.5-.07v-.21a2.45,2.45,0,0,0-2.52-2.37h0a2.83,2.83,0,0,0-2.88,2.64Z" transform="translate(-6988.94 7281.14)"/><path class="cls-1" d="M7192.21-7229.83a.32.32,0,0,1-.36-.26h0c-1.5-6.12-2-8.88-2.28-10.35h0c-.75,3.3-1.35,5.78-2.61,10.35-.06.21-.15.26-.33.26h-3.75c-.3,0-.36-.05-.42-.26l-3.9-14.37c-.06-.15,0-.27.24-.27h3.81c.18,0,.24.06.27.21,1.59,6.48,2,9.35,2.22,10.61h.06c.24-1.08.72-3.89,2.46-10.55,0-.18.06-.27.27-.27h4c.15,0,.21.06.24.21,1.59,6.63,2,9.53,2.22,10.73h.06c.42-1.95.87-5.18,2.31-10.73a.23.23,0,0,1,.27-.21h3.46c.12,0,.24.09.18.24l-4.29,14.4c-.06.21-.09.26-.36.26Z" transform="translate(-6988.94 7281.14)"/><path class="cls-1" d="M7213.18-7234.54l-1.44,4.43a.33.33,0,0,1-.33.24h-3.48c-.21,0-.27-.12-.24-.29l6-17.31a5.71,5.71,0,0,0,.3-1.83.19.19,0,0,1,.18-.21h4.8c.15,0,.21,0,.24.18l6.81,19.2c.06.14,0,.26-.15.26H7222a.3.3,0,0,1-.33-.21l-1.53-4.46Zm5.82-3.75c-.6-2-1.8-5.61-2.37-7.74h0c-.48,2-1.56,5.31-2.34,7.74Z" transform="translate(-6988.94 7281.14)"/><path class="cls-1" d="M7238.35-7230.29c0,.16,0,.21-.15.25a9.83,9.83,0,0,1-3.36.47c-4.86,0-7.92-3.26-7.92-7.68s3.39-7.82,8.49-7.82a8.08,8.08,0,0,1,2.76.33c.15.06.18.15.18.33v3.08c0,.21-.12.25-.24.21a7.46,7.46,0,0,0-2.52-.35c-2.52,0-4.35,1.38-4.35,4.08,0,3.11,2.31,4.14,4.41,4.14a9.52,9.52,0,0,0,2.49-.28c.18-.05.24,0,.24.12Z" transform="translate(-6988.94 7281.14)"/><path class="cls-1" d="M7244.2-7244.77a.33.33,0,0,1,.36.27,6,6,0,0,1,.33,1.68,6.2,6.2,0,0,1,4.77-2.25c.18,0,.24.06.24.24v3.69c0,.14-.06.21-.27.21-2.16-.09-3.9.56-4.53,1.29v9.53c0,.19-.06.24-.27.24h-3.6c-.24,0-.3-.08-.3-.26v-10.35a35.23,35.23,0,0,0-.15-4.08c0-.15,0-.21.18-.21Z" transform="translate(-6988.94 7281.14)"/><path class="cls-1" d="M7266-7237.39c0,4.7-3.06,7.82-7.38,7.82-5.13,0-7.41-3.87-7.41-7.73,0-4.26,2.85-7.77,7.47-7.77C7263.52-7245.07,7266-7241.44,7266-7237.39Zm-10.56,0c0,2.65,1.23,4.33,3.24,4.33,1.74,0,3.06-1.5,3.06-4.26,0-2.34-1-4.29-3.24-4.29-1.74,0-3.06,1.57-3.06,4.24Z" transform="translate(-6988.94 7281.14)"/><path class="cls-1" d="M7272.58-7251.13c.24,0,.3,0,.3.24v6.15a9.33,9.33,0,0,1,2.52-.33,6.87,6.87,0,0,1,7.2,6.52c0,.21,0,.41,0,.62,0,5.6-4.44,8.36-9,8.36a16,16,0,0,1-4.71-.68.38.38,0,0,1-.18-.31v-20.36c0-.15.06-.21.21-.21Zm2.07,9.59a5.57,5.57,0,0,0-1.77.25v8.13a5.1,5.1,0,0,0,1.11.12,4.14,4.14,0,0,0,4.36-3.89,4.14,4.14,0,0,0,0-.61c0-2.73-1.59-4-3.69-4Z" transform="translate(-6988.94 7281.14)"/><path class="cls-1" d="M7297-7233.2c0,.71,0,1.42.07,2.13,0,.07,0,.12-.07.16a16.88,16.88,0,0,1-6.53,1.34c-3.33,0-6.06-1.52-6.06-5,0-3.17,2.79-4.85,6.78-4.85a10.48,10.48,0,0,1,1.77.06v-.21c0-.58-.36-1.89-2.88-1.89a9.49,9.49,0,0,0-4,.81.18.18,0,0,1-.25-.07.24.24,0,0,1,0-.08v-3a.25.25,0,0,1,.21-.3,11,11,0,0,1,4.71-.93c4.31,0,6.23,2.67,6.23,6.09Zm-4-3.09a10.77,10.77,0,0,0-1.5-.08c-2.13,0-3,.69-3,1.76s.75,1.81,2.64,1.81a6.5,6.5,0,0,0,1.86-.28Z" transform="translate(-6988.94 7281.14)"/><path class="cls-1" d="M7307.79-7230.37c0,.17,0,.33-.21.38a7.58,7.58,0,0,1-2.67.42c-2.6,0-4.13-1.29-4.13-4.29v-7.43H7299c-.18,0-.24-.09-.24-.27v-2.94c0-.21.06-.27.27-.27h1.8a31.35,31.35,0,0,1,.3-3.63.32.32,0,0,1,.27-.27l3.51-.45c.14,0,.23,0,.23.18-.09.93-.14,2.7-.14,4.17h2.76c.17,0,.24.06.24.24v3c0,.15-.07.17-.21.21H7305v6.42c0,1.32.38,1.92,1.62,1.92a5.71,5.71,0,0,0,1-.13c.12,0,.21,0,.21.21Z" transform="translate(-6988.94 7281.14)"/><path class="cls-1" d="M7317.39-7249.24c0-.18,0-.24.18-.24,1.23,0,3.6-.09,5.88-.09,6.06,0,8.16,3.36,8.16,6.63,0,4.86-3.75,6.93-8.37,6.93h-1.71v5.9c0,.16-.06.24-.24.24h-3.69c-.15,0-.21-.08-.21-.24Zm4.14,9.53h1.68c2.37,0,4.26-.73,4.26-3.19,0-1.89-1.29-3.08-3.9-3.08a14.75,14.75,0,0,0-2,.06Z" transform="translate(-6988.94 7281.14)"/><path class="cls-1" d="M7337.45-7244.77a.32.32,0,0,1,.35.27,6,6,0,0,1,.33,1.68,6.2,6.2,0,0,1,4.77-2.25c.18,0,.24.06.24.24v3.69c0,.14-.06.21-.27.21-2.16-.09-3.9.56-4.53,1.29v9.53c0,.19-.06.24-.27.24h-3.62c-.25,0-.31-.08-.31-.26v-10.35a35.23,35.23,0,0,0-.15-4.08c0-.15,0-.21.18-.21Z" transform="translate(-6988.94 7281.14)"/><path class="cls-1" d="M7359.21-7237.39c0,4.7-3.06,7.82-7.38,7.82-5.13,0-7.41-3.87-7.41-7.73,0-4.26,2.85-7.77,7.47-7.77C7356.72-7245.07,7359.21-7241.44,7359.21-7237.39Zm-10.56,0c0,2.65,1.23,4.33,3.24,4.33,1.74,0,3.06-1.5,3.06-4.26,0-2.34-1-4.29-3.24-4.29-1.74,0-3.06,1.57-3.06,4.24Z" transform="translate(-6988.94 7281.14)"/><path class="cls-1" d="M7369.08-7249.24c0-.15,0-.21.21-.24.9,0,3.18-.09,5.85-.09,7.17,0,10.68,4,10.68,9.57,0,7.17-5.52,10.19-10.62,10.19-2,0-5,0-5.94-.07-.12,0-.18-.08-.18-.29Zm4.17,15.78c.6,0,1.08,0,1.77,0,3.93,0,6.51-2.37,6.51-6.54,0-4-2.58-6-6.42-6h-1.86Z" transform="translate(-6988.94 7281.14)"/><path class="cls-1" d="M7403-7230.53c0,.21-.06.37-.24.42a13.36,13.36,0,0,1-4.17.54c-5.82,0-10.35-3.44-10.35-10,0-6.09,4.2-10.23,10.83-10.23a10,10,0,0,1,3.9.51.33.33,0,0,1,.21.35v3.27c0,.27-.15.27-.27.21a9.63,9.63,0,0,0-3.9-.66c-4,0-6.48,2.5-6.48,6.39,0,4.69,3.42,6.44,6.57,6.44a11.1,11.1,0,0,0,3.66-.47c.15-.07.24,0,.24.14Z" transform="translate(-6988.94 7281.14)"/><path class="cls-1" d="M7406.07-7232.08a2.38,2.38,0,0,1,2.27-2.5.81.81,0,0,1,.22,0,2.37,2.37,0,0,1,2.49,2.26v.24a2.31,2.31,0,0,1-2.12,2.5,2.29,2.29,0,0,1-.37,0,2.38,2.38,0,0,1-2.49-2.25A1.13,1.13,0,0,1,7406.07-7232.08Z" transform="translate(-6988.94 7281.14)"/><path class="cls-1" d="M7130-7192.86a16,16,0,0,0-16,16,16,16,0,0,0,4.68,11.31,15.92,15.92,0,0,0,11.32,4.69h58a16,16,0,0,0,16-16,16,16,0,0,0-4.69-11.32,15.85,15.85,0,0,0-11.31-4.68h-58m0-2h58a18,18,0,0,1,18,18,18,18,0,0,1-18,18h-58a18,18,0,0,1-18-18A18,18,0,0,1,7130-7194.86Z" transform="translate(-6988.94 7281.14)"/><g class="cls-3"><g class="cls-3"><path class="cls-1" d="M7125.41-7172.51c-.08,0-.11,0-.11-.11v-8.95c0-.07,0-.13.1-.13,1.1,0,1.69,0,2.77,0,2.24,0,3.56,1,3.56,2.76a2.6,2.6,0,0,1-1.81,2.46c.46.65,2.14,3.15,2.55,3.85,0,.09.06.16,0,.16h-1.75a.23.23,0,0,1-.19-.07c-.41-.63-1.39-2.24-2-3.22-.09-.17-.17-.24-.32-.24H7127v3.42c0,.08-.05.11-.12.11Zm2.77-5c1.14,0,1.87-.51,1.87-1.4s-.74-1.39-1.94-1.39c-.47,0-.92,0-1.14,0v2.76Z" transform="translate(-6988.94 7281.14)"/><path class="cls-1" d="M7134.47-7175.58c0,1,.69,1.77,2.11,1.77a4.46,4.46,0,0,0,1.74-.34s.09,0,.09.06v1.16a.14.14,0,0,1-.09.15,4.67,4.67,0,0,1-2.1.41,3.24,3.24,0,0,1-3.46-3.52c0-1.94,1.18-3.67,3.29-3.67a2.78,2.78,0,0,1,2.87,3,4.59,4.59,0,0,1-.05.87.14.14,0,0,1-.11.1,11.57,11.57,0,0,1-1.45.05Zm2.09-1.2a4.87,4.87,0,0,0,.77,0v-.11a1.29,1.29,0,0,0-1.35-1.3,1.53,1.53,0,0,0-1.51,1.43Z" transform="translate(-6988.94 7281.14)"/><path class="cls-1" d="M7140.22-7177.81c0-.47,0-1.23-.05-1.51,0-.07,0-.1.1-.1h1.27c.1,0,.14,0,.17.1a3.61,3.61,0,0,1,.1.53,3.1,3.1,0,0,1,2-.77c1.05,0,2.34.53,2.34,2.78v4.14c0,.1-.05.13-.12.13h-1.45c-.09,0-.13,0-.13-.13v-4c0-.92-.39-1.46-1.2-1.46a1.77,1.77,0,0,0-1.36.58v4.89a.1.1,0,0,1-.11.11h-1.48a.1.1,0,0,1-.11-.11Z" transform="translate(-6988.94 7281.14)"/><path class="cls-1" d="M7149.21-7175.58c0,1,.69,1.77,2.12,1.77a4.45,4.45,0,0,0,1.73-.34s.09,0,.09.06v1.16a.14.14,0,0,1-.09.15,4.64,4.64,0,0,1-2.1.41,3.24,3.24,0,0,1-3.46-3.52c0-1.94,1.18-3.67,3.29-3.67a2.79,2.79,0,0,1,2.88,3,4.39,4.39,0,0,1-.06.87s0,.08-.11.1a11.47,11.47,0,0,1-1.44.05Zm2.09-1.2a4.87,4.87,0,0,0,.77,0v-.11a1.29,1.29,0,0,0-1.35-1.3,1.53,1.53,0,0,0-1.51,1.43Z" transform="translate(-6988.94 7281.14)"/><path class="cls-1" d="M7160.79-7172.51c-.1,0-.12,0-.15-.13-.81-3.12-1.05-4.37-1.19-5h0c-.32,1.4-.67,2.74-1.33,5.07a.14.14,0,0,1-.15.11h-1.53c-.14,0-.15,0-.18-.11l-1.82-6.68c0-.08,0-.12.1-.12h1.54c.07,0,.1,0,.11.09.84,3.29,1.05,4.62,1.15,5.18h0c.11-.49.35-1.77,1.27-5.15,0-.09,0-.12.13-.12h1.61a.1.1,0,0,1,.11.09c.87,3.41,1.06,4.66,1.18,5.22h0c.17-.84.38-2.24,1.2-5.22a.1.1,0,0,1,.12-.09h1.42c.05,0,.11,0,.08.1l-2,6.7c-.05.08-.06.11-.16.11Z" transform="translate(-6988.94 7281.14)"/><path class="cls-1" d="M7168.71-7177.81c0-.47,0-1.23-.05-1.51,0-.07,0-.1.09-.1H7170c.1,0,.14,0,.17.1a3.61,3.61,0,0,1,.1.53,3.1,3.1,0,0,1,2-.77c1.05,0,2.34.53,2.34,2.78v4.14c0,.1-.05.13-.12.13h-1.45c-.09,0-.13,0-.13-.13v-4c0-.92-.39-1.46-1.2-1.46a1.77,1.77,0,0,0-1.36.58v4.89a.1.1,0,0,1-.11.11h-1.48a.1.1,0,0,1-.11-.11Z" transform="translate(-6988.94 7281.14)"/><path class="cls-1" d="M7182.73-7176a3.34,3.34,0,0,1-3.36,3.63A3.32,3.32,0,0,1,7176-7176a3.37,3.37,0,0,1,3.41-3.6A3.29,3.29,0,0,1,7182.73-7176Zm-5,0c0,1.28.63,2.18,1.7,2.18.86,0,1.61-.71,1.61-2.16,0-1.16-.51-2.18-1.7-2.18C7178.37-7178.14,7177.7-7177.32,7177.7-7176Z" transform="translate(-6988.94 7281.14)"/><path class="cls-1" d="M7189.8-7172.51c-.1,0-.13,0-.15-.13-.82-3.12-1.06-4.37-1.2-5h0c-.32,1.4-.67,2.74-1.33,5.07a.14.14,0,0,1-.15.11h-1.53c-.14,0-.16,0-.18-.11l-1.82-6.68c0-.08,0-.12.09-.12h1.54a.1.1,0,0,1,.12.09c.84,3.29,1,4.62,1.15,5.18h0c.12-.49.35-1.77,1.28-5.15,0-.09,0-.12.12-.12h1.62c.07,0,.09,0,.11.09.87,3.41,1.06,4.66,1.17,5.22h0c.17-.84.38-2.24,1.19-5.22a.12.12,0,0,1,.13-.09h1.41c.06,0,.12,0,.09.1l-2,6.7c0,.08-.05.11-.15.11Z" transform="translate(-6988.94 7281.14)"/></g></g><rect class="cls-2" x="123" y="62.27" width="124" height="24"/><rect class="cls-2" x="123" y="122.27" width="124" height="40"/><rect class="cls-2" x="217" y="62.27" width="30" height="100"/></svg>