<svg id="Layer_1" data-name="Layer 1" xmlns="http://www.w3.org/2000/svg" viewBox="0 0 422.1 162.27"><defs><style>.cls-1{fill:#fff;}.cls-2{fill:none;}.cls-3{isolation:isolate;}</style></defs><path class="cls-1" d="M7022.55-7254.19h19.95v47.76Z" transform="translate(-6988.5 7279.3)"/><path class="cls-1" d="M7008.5-7254.19h-20v47.76Z" transform="translate(-6988.5 7279.3)"/><path class="cls-1" d="M7015.53-7236.59l12.71,30.16h-8.33l-3.81-9.6h-9.3Z" transform="translate(-6988.5 7279.3)"/><path class="cls-1" d="M6995.48-7187.28c-.38-1.94-1.07-4.87-1.33-6.76h0c-.27,1.84-.76,4.41-1.22,6.76Zm-3.17,2.85-.87,4.15c0,.16-.08.18-.22.18h-2.53c-.16,0-.21,0-.19-.26l3.49-15.05a5.5,5.5,0,0,0,.11-1.46.14.14,0,0,1,.12-.16s0,0,0,0h3.61c.14,0,.19.05.22.18l4.07,16.53c0,.16,0,.21-.16.21h-2.82a.18.18,0,0,1-.21-.16v0l-.94-4.16Z" transform="translate(-6988.5 7279.3)"/><path class="cls-1" d="M7006.89-7190.56a1.66,1.66,0,0,0-.58-.08c-1.48,0-2.58,1.34-2.58,4,0,2.79,1.1,3.95,2.55,3.95a2.55,2.55,0,0,0,.61-.08Zm-6.29,4c0-3.84,2.26-6.81,5.87-6.81h.42v-4.52a.13.13,0,0,1,.15-.14h2.83c.1,0,.13.06.13.14v15.14a11.47,11.47,0,0,0,.08,1.76.16.16,0,0,1-.1.18,8.6,8.6,0,0,1-3.82.92c-3.32,0-5.56-2.16-5.56-6.67Z" transform="translate(-6988.5 7279.3)"/><path class="cls-1" d="M7014.75-7186.67c0,2.45.53,4.05,1.71,4.05s1.68-1.37,1.68-4c0-2.47-.42-4-1.65-4S7014.75-7189.4,7014.75-7186.67Zm6.49,0c0,4.16-1.74,6.79-4.79,6.79-3.43,0-4.79-3-4.79-6.81s1.74-6.68,4.84-6.68,4.74,2.47,4.74,6.7Z" transform="translate(-6988.5 7279.3)"/><path class="cls-1" d="M7027-7190.58a3.07,3.07,0,0,0-.95.13v7.75a2.57,2.57,0,0,0,.55.06c1.18,0,2.58-1.21,2.6-4.47C7029.19-7189.67,7028.16-7190.58,7027-7190.58Zm-1.08-7.44c.1,0,.13.05.13.16v4.65a6.18,6.18,0,0,1,1.42-.16c2.73,0,4.81,2.1,4.81,6.18,0,4.76-2.71,7.31-6.1,7.31a9.93,9.93,0,0,1-3.06-.48.22.22,0,0,1-.15-.21v-17.3a.14.14,0,0,1,.12-.16h2.83Z" transform="translate(-6988.5 7279.3)"/><path class="cls-1" d="M7038.72-7188.38a4.15,4.15,0,0,0,.79,0,1.5,1.5,0,0,0,0-.29c0-1-.32-2.05-1.4-2.05s-1.47,1.08-1.6,2.36Zm-2.23,2.48c0,2,.76,3.26,2.89,3.26a5.28,5.28,0,0,0,2-.39c.13-.05.21-.05.21.14v2.17c0,.19-.05.29-.18.35a5.81,5.81,0,0,1-2.6.47c-3.86,0-5.36-2.84-5.36-6.55,0-3.94,1.73-6.94,4.81-6.94s4.18,2.87,4.18,5.21a14.39,14.39,0,0,1-.14,2c0,.13-.1.18-.23.21s-1.08.08-2.5.08Z" transform="translate(-6988.5 7279.3)"/><rect class="cls-2" y="34.42" width="54" height="25"/><rect class="cls-2" x="29" y="34.42" width="25" height="65"/><g class="cls-3"><g class="cls-3"><path class="cls-1" d="M7128.31-7258.7c0,.21-.06.37-.24.42a13.14,13.14,0,0,1-4.17.54c-5.82,0-10.35-3.44-10.35-10,0-6.09,4.2-10.23,10.83-10.23a10,10,0,0,1,3.9.51.34.34,0,0,1,.21.36v3.27c0,.27-.15.27-.27.21a9.39,9.39,0,0,0-3.9-.66c-4,0-6.48,2.49-6.48,6.39,0,4.68,3.42,6.44,6.57,6.44a11.46,11.46,0,0,0,3.66-.47c.15-.07.24,0,.24.14Z" transform="translate(-6988.5 7279.3)"/><path class="cls-1" d="M7144.78-7265.56c0,4.7-3.06,7.82-7.38,7.82-5.13,0-7.41-3.87-7.41-7.73,0-4.26,2.85-7.77,7.47-7.77C7142.29-7273.24,7144.78-7269.61,7144.78-7265.56Zm-10.56,0c0,2.65,1.23,4.33,3.24,4.33,1.74,0,3.06-1.5,3.06-4.26,0-2.34-1-4.29-3.24-4.29C7135.54-7269.76,7134.22-7268.21,7134.22-7265.54Z" transform="translate(-6988.5 7279.3)"/><path class="cls-1" d="M7147.75-7258c-.21,0-.27-.08-.27-.26v-11.41c0-1.1-.09-2.39-.12-3,0-.18.06-.27.24-.27h3.18a.43.43,0,0,1,.36.18,4.24,4.24,0,0,1,.18,1.11,6.5,6.5,0,0,1,4.32-1.59,4.26,4.26,0,0,1,3.84,1.92,7.31,7.31,0,0,1,4.86-1.92c2.61,0,5.13,1.41,5.13,5.94v9c0,.18-.09.26-.27.26h-3.6c-.21,0-.3-.08-.3-.26v-8.58c0-1.56-.54-2.76-2.28-2.76a4,4,0,0,0-2.55,1,12.73,12.73,0,0,1,.09,1.68v8.7c0,.14-.06.26-.24.26h-3.63c-.18,0-.3-.05-.3-.26v-8.7c0-1.8-.84-2.61-2.28-2.61a4.07,4.07,0,0,0-2.46.84v10.49c0,.16-.06.24-.27.24Z" transform="translate(-6988.5 7279.3)"/><path class="cls-1" d="M7173.25-7258c-.21,0-.27-.08-.27-.26v-11.41c0-1.1-.09-2.39-.12-3,0-.18.06-.27.24-.27h3.18a.43.43,0,0,1,.36.18,4.24,4.24,0,0,1,.18,1.11,6.5,6.5,0,0,1,4.32-1.59,4.26,4.26,0,0,1,3.84,1.92,7.31,7.31,0,0,1,4.86-1.92c2.61,0,5.13,1.41,5.13,5.94v9c0,.18-.09.26-.27.26h-3.6c-.21,0-.3-.08-.3-.26v-8.58c0-1.56-.54-2.76-2.28-2.76a4,4,0,0,0-2.55,1,12.73,12.73,0,0,1,.09,1.68v8.7c0,.14-.06.26-.24.26h-3.63c-.18,0-.3-.05-.3-.26v-8.7c0-1.8-.84-2.61-2.28-2.61a4.07,4.07,0,0,0-2.46.84v10.49c0,.16-.06.24-.27.24Z" transform="translate(-6988.5 7279.3)"/><path class="cls-1" d="M7201.93-7264.39c.15,1.71,1.35,3.11,4.29,3.11a9.47,9.47,0,0,0,3.69-.68c.09-.07.18,0,.18.14v2.86c0,.21-.06.29-.21.35a10.07,10.07,0,0,1-4.59.87c-5.64,0-7.62-3.87-7.62-7.59,0-4.13,2.55-7.91,7.26-7.91,4.53,0,6.33,3.51,6.33,6.48a9.62,9.62,0,0,1-.15,2,.26.26,0,0,1-.24.24,30.77,30.77,0,0,1-3.09.12Zm3.9-2.91a7.86,7.86,0,0,0,1.5-.07v-.21a2.44,2.44,0,0,0-2.55-2.36,2.83,2.83,0,0,0-2.88,2.64Z" transform="translate(-6988.5 7279.3)"/><path class="cls-1" d="M7213.93-7269.46c0-1-.06-2.58-.12-3.24,0-.15,0-.24.21-.24h3.15a.35.35,0,0,1,.39.24,3.68,3.68,0,0,1,.24,1,6.57,6.57,0,0,1,4.26-1.53c2.31,0,5,1.2,5,6v8.91c0,.18-.06.26-.27.26h-3.6c-.21,0-.3-.08-.3-.26v-8.55c0-1.8-.78-2.76-2.34-2.76a3.63,3.63,0,0,0-2.49.93v10.4q0,.24-.27.24h-3.63c-.21,0-.27-.08-.27-.26Z" transform="translate(-6988.5 7279.3)"/><path class="cls-1" d="M7238.05-7258.54c0,.17,0,.33-.21.38a7.45,7.45,0,0,1-2.67.42c-2.61,0-4.14-1.29-4.14-4.29v-7.43h-1.8c-.18,0-.24-.09-.24-.27v-2.94c0-.21.06-.27.27-.27h1.8a32.88,32.88,0,0,1,.3-3.63.32.32,0,0,1,.27-.27l3.51-.45c.15,0,.24,0,.24.18-.09.93-.15,2.7-.15,4.17H7238c.18,0,.24.06.24.24v3c0,.15-.06.17-.21.21h-2.82v6.42c0,1.32.39,1.92,1.62,1.92a5.09,5.09,0,0,0,1-.13c.12,0,.21,0,.21.21Z" transform="translate(-6988.5 7279.3)"/><path class="cls-1" d="M7240.63-7260.25a2.39,2.39,0,0,1,2.49-2.5,2.38,2.38,0,0,1,2.49,2.5,2.32,2.32,0,0,1-2.49,2.51A2.37,2.37,0,0,1,7240.63-7260.25Z" transform="translate(-6988.5 7279.3)"/><path class="cls-1" d="M7268.23-7258.3c0,.23-.09.26-.3.26h-12.21c-.18,0-.24-.08-.24-.26v-19.11c0-.18.06-.27.24-.27h11.85c.24,0,.3,0,.33.24l.33,3.24c0,.15,0,.27-.21.27h-8.37v4h7.65c.15,0,.24.07.24.25v3.29c0,.18-.12.21-.24.21h-7.65v4.38h8.85c.24,0,.27.09.24.28Z" transform="translate(-6988.5 7279.3)"/><path class="cls-1" d="M7270.09-7265.35c0-4.29,3.21-7.89,8.7-7.89.24,0,.54,0,1,.06v-5.91a.19.19,0,0,1,.21-.21h3.78c.15,0,.18.06.18.18v17.73a16.76,16.76,0,0,0,.12,2.18c0,.16,0,.21-.21.27a15.07,15.07,0,0,1-5.91,1.2C7273.51-7257.74,7270.09-7260.25,7270.09-7265.35Zm9.69-4.26a3.11,3.11,0,0,0-1.11-.15,4,4,0,0,0-4.29,4.2c0,3,1.71,4.26,4,4.26a4,4,0,0,0,1.41-.19Z" transform="translate(-6988.5 7279.3)"/><path class="cls-1" d="M7287.22-7276.87a2.25,2.25,0,0,1,2.34-2.31,2.17,2.17,0,0,1,2.31,2.31,2.2,2.2,0,0,1-2.34,2.34A2.18,2.18,0,0,1,7287.22-7276.87Zm.21,4.17c0-.15.06-.24.24-.24h3.69c.18,0,.24.06.24.24v14.4c0,.18,0,.26-.27.26h-3.6c-.21,0-.3-.08-.3-.26Z" transform="translate(-6988.5 7279.3)"/><path class="cls-1" d="M7302.88-7258.54c0,.17,0,.33-.21.38a7.45,7.45,0,0,1-2.67.42c-2.61,0-4.14-1.29-4.14-4.29v-7.43h-1.8c-.18,0-.24-.09-.24-.27v-2.94c0-.21.06-.27.27-.27h1.8a32.88,32.88,0,0,1,.3-3.63.32.32,0,0,1,.27-.27l3.51-.45c.15,0,.24,0,.24.18-.09.93-.15,2.7-.15,4.17h2.76c.18,0,.24.06.24.24v3c0,.15-.06.17-.21.21H7300v6.42c0,1.32.39,1.92,1.62,1.92a5.09,5.09,0,0,0,1-.13c.12,0,.21,0,.21.21Z" transform="translate(-6988.5 7279.3)"/><path class="cls-1" d="M7305.46-7260.25a2.38,2.38,0,0,1,2.49-2.5,2.37,2.37,0,0,1,2.48,2.5,2.31,2.31,0,0,1-2.48,2.51A2.36,2.36,0,0,1,7305.46-7260.25Z" transform="translate(-6988.5 7279.3)"/><path class="cls-1" d="M7333.05-7258.3c0,.23-.09.26-.3.26h-12.21c-.17,0-.24-.08-.24-.26v-19.11c0-.18.07-.27.24-.27h11.85c.24,0,.3,0,.33.24l.33,3.24c0,.15,0,.27-.21.27h-8.37v4h7.65c.15,0,.24.07.24.25v3.29c0,.18-.12.21-.24.21h-7.65v4.38h8.85c.24,0,.27.09.24.28Z" transform="translate(-6988.5 7279.3)"/><path class="cls-1" d="M7335.57-7264c-.15,0-.21-.09-.21-.24v-3.16a.19.19,0,0,1,.21-.21h7.23c.12,0,.18,0,.18.21v3.19c0,.18-.06.21-.15.21Z" transform="translate(-6988.5 7279.3)"/><path class="cls-1" d="M7351-7269.92c-1.41,0-1.86.52-1.86,1s.39.89,2.13,1.56c3.63,1.32,4.77,2.73,4.77,4.86,0,2.85-2.22,4.73-6.18,4.73a9.7,9.7,0,0,1-4.35-.84.34.34,0,0,1-.21-.33v-3.23c0-.19.12-.28.24-.19a8.53,8.53,0,0,0,4.41,1.21c1.41,0,2-.39,2-1s-.51-1-2.28-1.65c-3.39-1.26-4.5-2.71-4.5-4.86,0-2.34,1.89-4.59,5.85-4.59a9.93,9.93,0,0,1,3.9.6.38.38,0,0,1,.21.39v3c0,.18-.12.29-.3.21A9.19,9.19,0,0,0,7351-7269.92Z" transform="translate(-6988.5 7279.3)"/><path class="cls-1" d="M7358.34-7276.87a2.25,2.25,0,0,1,2.34-2.31,2.17,2.17,0,0,1,2.31,2.31,2.2,2.2,0,0,1-2.34,2.34A2.18,2.18,0,0,1,7358.34-7276.87Zm.21,4.17c0-.15.06-.24.24-.24h3.69c.18,0,.24.06.24.24v14.4c0,.18,0,.26-.27.26h-3.6c-.21,0-.3-.08-.3-.26Z" transform="translate(-6988.5 7279.3)"/><path class="cls-1" d="M7373.94-7261.51c4.29.21,5.88,1.94,5.88,4.31,0,3.12-3.06,5.64-7.89,5.64-5,0-7.2-2.48-7.2-4.65,0-1,.78-2.16,2.76-3.8a3.79,3.79,0,0,1-.63-2.25,4.21,4.21,0,0,1,.54-2,4.29,4.29,0,0,1-2.07-3.87c0-2.87,2.25-5.12,6.15-5.12a17.44,17.44,0,0,1,2.85.24,3.17,3.17,0,0,0,.72.06h4.11c.15,0,.21.06.21.21v2.79c0,.15-.06.21-.21.21-.45,0-1.44-.09-2.07-.15a3.88,3.88,0,0,1,.45,1.95c0,3.18-2.61,4.76-5.94,4.76-.33,0-.69,0-1-.05a1.44,1.44,0,0,0-.06.8,1.66,1.66,0,0,0,.33.79Zm-4.26,3.35a3,3,0,0,0-1.14,1.59c0,.94,1.32,1.95,3.66,1.95,2.67,0,3.81-.92,3.81-1.92s-1.32-1.41-3-1.5Zm-.3-10a2,2,0,0,0,2.13,2,1.83,1.83,0,0,0,2.07-1.95,1.92,1.92,0,0,0-2.1-2.17A1.92,1.92,0,0,0,7369.38-7268.17Z" transform="translate(-6988.5 7279.3)"/><path class="cls-1" d="M7381.68-7269.46c0-1-.06-2.58-.12-3.24,0-.15,0-.24.21-.24h3.15a.35.35,0,0,1,.39.24,3.68,3.68,0,0,1,.24,1,6.57,6.57,0,0,1,4.26-1.53c2.31,0,5,1.2,5,6v8.91c0,.18-.06.26-.27.26H7391c-.21,0-.3-.08-.3-.26v-8.55c0-1.8-.78-2.76-2.34-2.76a3.63,3.63,0,0,0-2.49.93v10.4q0,.24-.27.24H7382c-.21,0-.27-.08-.27-.26Z" transform="translate(-6988.5 7279.3)"/><path class="cls-1" d="M7397.67-7260.25a2.39,2.39,0,0,1,2.49-2.5,2.38,2.38,0,0,1,2.49,2.5,2.32,2.32,0,0,1-2.49,2.51A2.37,2.37,0,0,1,7397.67-7260.25Z" transform="translate(-6988.5 7279.3)"/></g><g class="cls-3"><path class="cls-1" d="M7114.9-7228c-.18,0-.24-.05-.24-.26v-19.05c0-.15,0-.3.21-.3,2.7-.06,3.84-.09,6.27-.09,5,0,7.77,2.13,7.77,6a5.64,5.64,0,0,1-3.75,5.28c1,1.34,4.38,6.45,5.31,8.06.09.19.12.36-.09.36H7126c-.27,0-.36-.05-.42-.17-.87-1.33-2.76-4.54-4-6.58-.21-.35-.36-.5-.69-.5h-2.19v7a.22.22,0,0,1-.24.24Zm6.15-10.79c2.25,0,3.69-.9,3.69-2.67s-1.5-2.61-3.72-2.61c-1,0-1.83,0-2.28.06v5.22Z" transform="translate(-6988.5 7279.3)"/><path class="cls-1" d="M7135.15-7234.39c.15,1.71,1.35,3.11,4.29,3.11a9.47,9.47,0,0,0,3.69-.68c.09-.07.18,0,.18.14v2.86c0,.21-.06.29-.21.35a10.07,10.07,0,0,1-4.59.87c-5.64,0-7.62-3.87-7.62-7.59,0-4.13,2.55-7.91,7.26-7.91,4.53,0,6.33,3.51,6.33,6.48a9.62,9.62,0,0,1-.15,2,.26.26,0,0,1-.24.24,30.77,30.77,0,0,1-3.09.12Zm3.9-2.91a7.86,7.86,0,0,0,1.5-.07v-.21a2.44,2.44,0,0,0-2.55-2.36,2.83,2.83,0,0,0-2.88,2.64Z" transform="translate(-6988.5 7279.3)"/><path class="cls-1" d="M7147.15-7239.46c0-1-.06-2.58-.12-3.24,0-.15,0-.24.21-.24h3.15a.35.35,0,0,1,.39.24,3.68,3.68,0,0,1,.24,1,6.57,6.57,0,0,1,4.26-1.53c2.31,0,5,1.2,5,6v8.91c0,.18-.06.26-.27.26h-3.6c-.21,0-.3-.08-.3-.26v-8.55c0-1.8-.78-2.76-2.34-2.76a3.63,3.63,0,0,0-2.49.93v10.4q0,.24-.27.24h-3.63c-.21,0-.27-.08-.27-.26Z" transform="translate(-6988.5 7279.3)"/><path class="cls-1" d="M7167.28-7234.39c.15,1.71,1.35,3.11,4.29,3.11a9.47,9.47,0,0,0,3.69-.68c.09-.07.18,0,.18.14v2.86c0,.21-.06.29-.21.35a10.07,10.07,0,0,1-4.59.87c-5.64,0-7.62-3.87-7.62-7.59,0-4.13,2.55-7.91,7.26-7.91,4.53,0,6.33,3.51,6.33,6.48a9.62,9.62,0,0,1-.15,2,.26.26,0,0,1-.24.24,30.77,30.77,0,0,1-3.09.12Zm3.9-2.91a7.86,7.86,0,0,0,1.5-.07v-.21a2.44,2.44,0,0,0-2.55-2.36,2.83,2.83,0,0,0-2.88,2.64Z" transform="translate(-6988.5 7279.3)"/><path class="cls-1" d="M7191.76-7228a.31.31,0,0,1-.36-.26c-1.5-6.12-2-8.88-2.28-10.35h0c-.75,3.3-1.35,5.78-2.61,10.35-.06.21-.15.26-.33.26h-3.75c-.3,0-.36-.05-.42-.26l-3.9-14.37c-.06-.15,0-.27.24-.27h3.81c.18,0,.24.06.27.21,1.59,6.48,2,9.35,2.22,10.61h.06c.24-1.08.72-3.89,2.46-10.55,0-.18.06-.27.27-.27h4c.15,0,.21.06.24.21,1.59,6.63,2,9.53,2.22,10.73h.06c.42-1.95.87-5.18,2.31-10.73a.24.24,0,0,1,.27-.21H7200c.12,0,.24.09.18.24l-4.29,14.4c-.06.21-.09.26-.36.26Z" transform="translate(-6988.5 7279.3)"/><path class="cls-1" d="M7212.73-7232.71l-1.44,4.43a.32.32,0,0,1-.33.24h-3.48c-.21,0-.27-.12-.24-.29l6-17.31a5.45,5.45,0,0,0,.3-1.83.2.2,0,0,1,.18-.21h4.8c.15,0,.21,0,.24.18l6.81,19.2c.06.14,0,.26-.15.26h-3.9a.29.29,0,0,1-.33-.21l-1.53-4.46Zm5.82-3.75c-.6-2-1.8-5.61-2.37-7.74h0c-.48,2-1.56,5.31-2.34,7.74Z" transform="translate(-6988.5 7279.3)"/><path class="cls-1" d="M7237.9-7228.46c0,.16,0,.21-.15.25a9.53,9.53,0,0,1-3.36.47c-4.86,0-7.92-3.26-7.92-7.68s3.39-7.82,8.49-7.82a8.17,8.17,0,0,1,2.76.33c.15.06.18.15.18.33l0,3.08c0,.21-.12.25-.24.21a7.53,7.53,0,0,0-2.52-.35c-2.52,0-4.35,1.38-4.35,4.08,0,3.11,2.31,4.14,4.41,4.14a9.35,9.35,0,0,0,2.49-.28c.18-.05.24,0,.24.12Z" transform="translate(-6988.5 7279.3)"/><path class="cls-1" d="M7243.75-7242.94a.33.33,0,0,1,.36.27,5.72,5.72,0,0,1,.33,1.68,6.23,6.23,0,0,1,4.77-2.25c.18,0,.24.06.24.24v3.69c0,.14-.06.21-.27.21-2.16-.09-3.9.56-4.53,1.29l0,9.53c0,.19-.06.24-.27.24h-3.6c-.24,0-.3-.08-.3-.26v-10.35c0-1.29,0-3-.15-4.08,0-.15,0-.21.18-.21Z" transform="translate(-6988.5 7279.3)"/><path class="cls-1" d="M7265.56-7235.56c0,4.7-3.06,7.82-7.38,7.82-5.13,0-7.41-3.87-7.41-7.73,0-4.26,2.85-7.77,7.47-7.77C7263.07-7243.24,7265.56-7239.61,7265.56-7235.56Zm-10.56,0c0,2.65,1.23,4.33,3.24,4.33,1.74,0,3.06-1.5,3.06-4.26,0-2.34-1-4.29-3.24-4.29C7256.32-7239.76,7255-7238.21,7255-7235.54Z" transform="translate(-6988.5 7279.3)"/><path class="cls-1" d="M7272.13-7249.3c.24,0,.3,0,.3.24v6.15a9.66,9.66,0,0,1,2.52-.33,6.87,6.87,0,0,1,7.2,7.14c0,5.6-4.44,8.36-9,8.36a16,16,0,0,1-4.71-.68.38.38,0,0,1-.18-.31v-20.36c0-.15.06-.21.21-.21Zm2.07,9.59a6,6,0,0,0-1.77.25v8.13a5.24,5.24,0,0,0,1.11.12,4.13,4.13,0,0,0,4.35-4.5C7277.89-7238.44,7276.3-7239.71,7274.2-7239.71Z" transform="translate(-6988.5 7279.3)"/><path class="cls-1" d="M7296.54-7231.37a21,21,0,0,0,.07,2.13c0,.07,0,.12-.07.16a16.63,16.63,0,0,1-6.53,1.34c-3.33,0-6.06-1.52-6.06-5,0-3.17,2.79-4.85,6.78-4.85a12.68,12.68,0,0,1,1.77.06v-.21c0-.58-.36-1.89-2.88-1.89a9.61,9.61,0,0,0-4,.81.18.18,0,0,1-.27-.15v-3a.26.26,0,0,1,.21-.3,11.25,11.25,0,0,1,4.71-.93c4.31,0,6.23,2.67,6.23,6.09Zm-4-3.09a13.32,13.32,0,0,0-1.5-.08c-2.13,0-3,.69-3,1.76s.75,1.81,2.64,1.81a6.05,6.05,0,0,0,1.86-.28Z" transform="translate(-6988.5 7279.3)"/><path class="cls-1" d="M7307.34-7228.54c0,.17,0,.33-.21.38a7.41,7.41,0,0,1-2.67.42c-2.6,0-4.13-1.29-4.13-4.29v-7.43h-1.8c-.18,0-.24-.09-.24-.27v-2.94c0-.21.06-.27.27-.27h1.8a32.88,32.88,0,0,1,.3-3.63.32.32,0,0,1,.27-.27l3.51-.45c.14,0,.23,0,.23.18-.09.93-.14,2.7-.14,4.17h2.76c.17,0,.24.06.24.24v3c0,.15-.07.17-.21.21h-2.82v6.42c0,1.32.38,1.92,1.62,1.92a5,5,0,0,0,1-.13c.12,0,.21,0,.21.21Z" transform="translate(-6988.5 7279.3)"/><path class="cls-1" d="M7316.94-7247.41c0-.18,0-.24.18-.24,1.23,0,3.6-.09,5.88-.09,6.06,0,8.16,3.36,8.16,6.63,0,4.86-3.75,6.93-8.37,6.93h-1.71v5.9c0,.16-.06.24-.24.24h-3.69c-.15,0-.21-.08-.21-.24Zm4.14,9.53c.51,0,.84,0,1.68,0,2.37,0,4.26-.72,4.26-3.18,0-1.89-1.29-3.09-3.9-3.09-1,0-1.77,0-2,.06Z" transform="translate(-6988.5 7279.3)"/><path class="cls-1" d="M7337-7242.94a.33.33,0,0,1,.35.27,5.72,5.72,0,0,1,.33,1.68,6.23,6.23,0,0,1,4.77-2.25c.18,0,.24.06.24.24v3.69c0,.14-.06.21-.27.21-2.16-.09-3.9.56-4.53,1.29l0,9.53c0,.19-.06.24-.27.24H7334c-.25,0-.31-.08-.31-.26v-10.35c0-1.29,0-3-.15-4.08,0-.15,0-.21.18-.21Z" transform="translate(-6988.5 7279.3)"/><path class="cls-1" d="M7358.76-7235.56c0,4.7-3.06,7.82-7.38,7.82-5.13,0-7.41-3.87-7.41-7.73,0-4.26,2.85-7.77,7.47-7.77C7356.27-7243.24,7358.76-7239.61,7358.76-7235.56Zm-10.56,0c0,2.65,1.23,4.33,3.24,4.33,1.74,0,3.06-1.5,3.06-4.26,0-2.34-1-4.29-3.24-4.29C7349.52-7239.76,7348.2-7238.21,7348.2-7235.54Z" transform="translate(-6988.5 7279.3)"/><path class="cls-1" d="M7368.63-7247.41c0-.15,0-.21.21-.24.9,0,3.18-.09,5.85-.09,7.17,0,10.68,4,10.68,9.57,0,7.17-5.52,10.19-10.62,10.19-2,0-5,0-5.94-.06-.12,0-.18-.08-.18-.29Zm4.17,15.78c.6,0,1.08.05,1.77.05,3.93,0,6.51-2.37,6.51-6.54,0-4-2.58-6-6.42-6-.72,0-1.2,0-1.86,0Z" transform="translate(-6988.5 7279.3)"/><path class="cls-1" d="M7402.5-7228.7c0,.21-.06.37-.24.42a13.14,13.14,0,0,1-4.17.54c-5.82,0-10.35-3.44-10.35-10,0-6.09,4.2-10.23,10.83-10.23a10,10,0,0,1,3.9.51.34.34,0,0,1,.21.36v3.27c0,.27-.15.27-.27.21a9.39,9.39,0,0,0-3.9-.66c-4,0-6.48,2.49-6.48,6.39,0,4.68,3.42,6.44,6.57,6.44a11.46,11.46,0,0,0,3.66-.47c.15-.07.24,0,.24.14Z" transform="translate(-6988.5 7279.3)"/><path class="cls-1" d="M7405.62-7230.25a2.39,2.39,0,0,1,2.49-2.5,2.38,2.38,0,0,1,2.49,2.5,2.32,2.32,0,0,1-2.49,2.51A2.37,2.37,0,0,1,7405.62-7230.25Z" transform="translate(-6988.5 7279.3)"/></g></g><path class="cls-1" d="M7178.87-7176.31c-.94,0-1.61.82-1.61,2.15s.63,2.19,1.7,2.19c.87,0,1.61-.72,1.61-2.16C7180.57-7175.29,7180.1-7176.31,7178.87-7176.31Z" transform="translate(-6988.5 7279.3)"/><path class="cls-1" d="M7135.54-7176.37A1.52,1.52,0,0,0,7134-7175h2.86v-.1a1.28,1.28,0,0,0-1.31-1.27h0Z" transform="translate(-6988.5 7279.3)"/><path class="cls-1" d="M7150.29-7176.37a1.5,1.5,0,0,0-1.52,1.41h2.86v-.1a1.3,1.3,0,0,0-1.27-1.32Z" transform="translate(-6988.5 7279.3)"/><path class="cls-1" d="M7187.51-7193h-58a18,18,0,0,0-18,18h0a18,18,0,0,0,18,18h58a18,18,0,0,0,18-18h0a18,18,0,0,0-18-18Zm-55.5,22.32h-1.75a.2.2,0,0,1-.19-.07c-.41-.62-1.39-2.24-2-3.22-.09-.17-.16-.24-.32-.24h-1.2v3.42c0,.08,0,.11-.12.11H7125c-.08,0-.11,0-.11-.11v-8.95c0-.07,0-.13.1-.13h2.77c2.24,0,3.56,1,3.56,2.75a2.6,2.6,0,0,1-1.81,2.46c.46.65,2.15,3.15,2.55,3.85,0,.06,0,.14-.06.14Zm6.43-3.22a.13.13,0,0,1-.11.09,11.72,11.72,0,0,1-1.45.06H7134c0,1,.69,1.77,2.12,1.77a4.48,4.48,0,0,0,1.73-.34h.09v1.17a.2.2,0,0,1-.09.15,4.89,4.89,0,0,1-2.1.41,3.24,3.24,0,0,1-3.47-3,2.26,2.26,0,0,1,0-.52c0-2,1.18-3.67,3.29-3.67a2.8,2.8,0,0,1,2.88,2.68h0v.31a6.46,6.46,0,0,1,0,.88Zm7.31,3.09c0,.1,0,.13-.11.13h-1.46c-.09,0-.13,0-.13-.13v-4c0-.92-.39-1.46-1.2-1.46a1.71,1.71,0,0,0-1.36.58v4.89a.11.11,0,0,1-.09.11h-1.49c-.09,0-.12,0-.12-.11v-5.2a12.68,12.68,0,0,0,0-1.51c0-.07,0-.1.1-.1h1.21c.1,0,.14,0,.17.1s.08.36.1.53a3.12,3.12,0,0,1,2-.77c1,0,2.34.53,2.34,2.77Zm7.43-3.09s0,.08-.11.09a11.56,11.56,0,0,1-1.44.06h-2.85c0,1,.69,1.77,2.12,1.77a4.48,4.48,0,0,0,1.73-.34h.09v1.17a.15.15,0,0,1-.09.15,4.89,4.89,0,0,1-2.1.41,3.24,3.24,0,0,1-3.47-3,2.26,2.26,0,0,1,0-.52c0-2,1.18-3.67,3.3-3.67a2.79,2.79,0,0,1,2.87,2.69h0v.3a5.14,5.14,0,0,1-.07.88Zm8.88,3.11c0,.08-.06.11-.16.11h-1.54c-.1,0-.12,0-.15-.13-.81-3.12-1-4.37-1.19-5.06h0c-.32,1.41-.67,2.75-1.33,5.08a.15.15,0,0,1-.15.11H7156c-.14,0-.15,0-.18-.11l-1.82-6.69c0-.06,0-.11.1-.11h1.54c.07,0,.1,0,.11.09.84,3.29,1.05,4.62,1.15,5.18h0c.11-.49.35-1.77,1.27-5.16,0-.08,0-.11.13-.11h1.61a.11.11,0,0,1,.11.08h0c.87,3.41,1.06,4.66,1.18,5.22h0a49.25,49.25,0,0,1,1.19-5.22.1.1,0,0,1,.1-.1H7164c.05,0,.11,0,.08.1Zm12.18,0c0,.1-.05.13-.12.13h-1.45c-.09,0-.13,0-.13-.13v-4c0-.92-.39-1.46-1.2-1.46a1.71,1.71,0,0,0-1.36.58v4.89a.11.11,0,0,1-.09.11h-1.49c-.09,0-.12,0-.12-.11V-7176c0-.5,0-1-.05-1.51,0-.07,0-.1.1-.1h1.27c.1,0,.14,0,.17.1s.08.36.1.53a3.12,3.12,0,0,1,2-.77c1,0,2.34.53,2.34,2.77Zm4.7.27a3.32,3.32,0,0,1-3.39-3.25,1.93,1.93,0,0,1,0-.34,3.38,3.38,0,0,1,3.14-3.6h.27a3.3,3.3,0,0,1,3.34,3.23v.33a3.33,3.33,0,0,1-3.05,3.59h-.32Zm12.12-.25c0,.08-.05.11-.15.11h-1.54c-.1,0-.13,0-.15-.13-.82-3.12-1.05-4.37-1.19-5.06h0c-.32,1.41-.67,2.75-1.33,5.08a.15.15,0,0,1-.15.11H7185c-.14,0-.15,0-.18-.11l-1.82-6.69c0-.06,0-.11.09-.11h1.55c.06,0,.09,0,.11.09.83,3.29,1,4.62,1.14,5.18h0c.13-.49.36-1.77,1.28-5.16,0-.08,0-.11.13-.11h1.61c.07,0,.09,0,.11.09.87,3.41,1.06,4.66,1.17,5.22h0c.17-.84.38-2.24,1.19-5.22a.13.13,0,0,1,.13-.09H7193c.06,0,.12,0,.09.1Z" transform="translate(-6988.5 7279.3)"/><path class="cls-1" d="M7127.68-7178.44h-1.15v2.76h1.22c1.13,0,1.86-.51,1.86-1.4S7128.87-7178.44,7127.68-7178.44Z" transform="translate(-6988.5 7279.3)"/><rect class="cls-2" x="123" y="62.27" width="124" height="24"/><rect class="cls-2" x="123" y="122.27" width="124" height="40"/><rect class="cls-2" x="217" y="62.27" width="30" height="100"/></svg>