<svg xmlns="http://www.w3.org/2000/svg" viewBox="0 0 129.06 10.07"><defs><style>.a{isolation:isolate;}.b{fill:#fff;}</style></defs><title>tag_eyebrow</title><g class="a"><g class="a"><path class="b" d="M2.59,14.81l-.67,2.08a.15.15,0,0,1-.15.11H.14C0,17,0,16.94,0,16.86l2.8-8.08A2.53,2.53,0,0,0,3,7.92a.09.09,0,0,1,.08-.09H5.29c.07,0,.1,0,.12.08l3.18,9c0,.07,0,.13-.07.13H6.7a.15.15,0,0,1-.16-.1l-.71-2.09Zm2.72-1.75C5,12.14,4.47,10.44,4.2,9.45h0c-.23.94-.73,2.48-1.09,3.61Z" transform="translate(-0.02 -7.07)"/><path class="b" d="M9,13.58c0-2,1.5-3.68,4.06-3.68l.47,0V7.17a.09.09,0,0,1,.1-.1h1.76c.07,0,.08,0,.08.08v8.28a8.23,8.23,0,0,0,.06,1c0,.07,0,.1-.1.13a6.94,6.94,0,0,1-2.76.56A3.36,3.36,0,0,1,9,13.58Zm4.53-2a1.64,1.64,0,0,0-.52-.07,1.87,1.87,0,0,0-2,2,1.75,1.75,0,0,0,1.86,2,2,2,0,0,0,.66-.08Z" transform="translate(-0.02 -7.07)"/><path class="b" d="M23.64,13.48a3.39,3.39,0,0,1-3.45,3.66,3.35,3.35,0,0,1-3.46-3.61A3.43,3.43,0,0,1,20.22,9.9,3.33,3.33,0,0,1,23.64,13.48Zm-4.93,0c0,1.23.57,2,1.51,2s1.43-.71,1.43-2c0-1.1-.45-2-1.52-2C19.32,11.52,18.71,12.25,18.71,13.5Z" transform="translate(-0.02 -7.07)"/><path class="b" d="M26.7,7.07c.11,0,.14,0,.14.11v2.87A4.43,4.43,0,0,1,28,9.9a3.2,3.2,0,0,1,3.36,3.33,3.89,3.89,0,0,1-4.2,3.91,7.41,7.41,0,0,1-2.2-.32.17.17,0,0,1-.09-.14V7.17c0-.07,0-.1.1-.1Zm1,4.48a3,3,0,0,0-.83.11v3.8a2.31,2.31,0,0,0,.52.06,1.94,1.94,0,0,0,2-2.11A1.64,1.64,0,0,0,27.67,11.55Z" transform="translate(-0.02 -7.07)"/><path class="b" d="M34.3,14c.07.8.63,1.46,2,1.46A4.48,4.48,0,0,0,38,15.17s.08,0,.08.07v1.33c0,.09,0,.14-.1.16a4.62,4.62,0,0,1-2.14.41,3.29,3.29,0,0,1-3.56-3.54A3.41,3.41,0,0,1,35.7,9.9a2.86,2.86,0,0,1,3,3,4.58,4.58,0,0,1-.07.94c0,.07,0,.1-.11.11A12.4,12.4,0,0,1,37,14Zm1.82-1.36a3.62,3.62,0,0,0,.7,0v-.09a1.14,1.14,0,0,0-1.19-1.11,1.32,1.32,0,0,0-1.34,1.23Z" transform="translate(-0.02 -7.07)"/><path class="b" d="M49.62,16.69c0,.1,0,.17-.11.2a6.16,6.16,0,0,1-1.95.25c-2.72,0-4.83-1.61-4.83-4.68,0-2.84,2-4.78,5.05-4.78a4.66,4.66,0,0,1,1.83.24.16.16,0,0,1,.09.17V9.62c0,.12-.07.12-.12.1a4.28,4.28,0,0,0-1.82-.31,2.79,2.79,0,0,0-3,3,2.85,2.85,0,0,0,3.07,3,5.22,5.22,0,0,0,1.71-.22c.07,0,.11,0,.11.07Z" transform="translate(-0.02 -7.07)"/><path class="b" d="M52.44,10a.16.16,0,0,1,.17.12,3,3,0,0,1,.16.79A2.9,2.9,0,0,1,55,9.9c.09,0,.12,0,.12.11v1.72c0,.07,0,.1-.13.1a2.94,2.94,0,0,0-2.12.6v4.46c0,.08,0,.11-.13.11H51c-.11,0-.14,0-.14-.13V12a18.8,18.8,0,0,0-.07-1.9c0-.07,0-.1.09-.1Z" transform="translate(-0.02 -7.07)"/><path class="b" d="M57.71,14c.07.8.63,1.46,2,1.46a4.39,4.39,0,0,0,1.72-.32s.09,0,.09.07v1.33c0,.09,0,.14-.1.16a4.65,4.65,0,0,1-2.14.41,3.28,3.28,0,0,1-3.56-3.54,3.41,3.41,0,0,1,3.39-3.7,2.85,2.85,0,0,1,3,3,4,4,0,0,1-.07.94.11.11,0,0,1-.11.11,12,12,0,0,1-1.44.06Zm1.82-1.36a3.7,3.7,0,0,0,.7,0v-.09A1.14,1.14,0,0,0,59,11.44a1.34,1.34,0,0,0-1.35,1.23Z" transform="translate(-0.02 -7.07)"/><path class="b" d="M68.74,15.45c0,.36,0,.65,0,1,0,0,0,.06,0,.07a7.63,7.63,0,0,1-3,.63c-1.56,0-2.83-.71-2.83-2.34s1.3-2.27,3.16-2.27a5.53,5.53,0,0,1,.83,0v-.1c0-.26-.17-.88-1.34-.88a4.46,4.46,0,0,0-1.85.38.08.08,0,0,1-.13-.07V10.47a.13.13,0,0,1,.1-.14,5.33,5.33,0,0,1,2.2-.43,2.63,2.63,0,0,1,2.91,2.84ZM66.85,14a4.9,4.9,0,0,0-.7,0c-1,0-1.4.32-1.4.83s.35.84,1.23.84a3,3,0,0,0,.87-.13Z" transform="translate(-0.02 -7.07)"/><path class="b" d="M73.78,16.76c0,.09,0,.16-.1.18a3.43,3.43,0,0,1-1.24.2,1.74,1.74,0,0,1-1.94-2V11.66h-.84c-.08,0-.11,0-.11-.12V10.16c0-.09,0-.12.13-.12h.84a14.61,14.61,0,0,1,.14-1.7.13.13,0,0,1,.12-.12L72.42,8c.07,0,.11,0,.11.08,0,.44-.07,1.26-.07,1.95h1.29c.09,0,.12,0,.12.11v1.42c0,.06,0,.08-.1.09H72.45v3c0,.62.18.9.76.9a2.42,2.42,0,0,0,.47-.06c.06,0,.1,0,.1.1Z" transform="translate(-0.02 -7.07)"/><path class="b" d="M74.88,8.2A1,1,0,0,1,76,7.13,1,1,0,0,1,77.06,8.2,1,1,0,0,1,76,9.3,1,1,0,0,1,74.88,8.2Zm.1,2c0-.07,0-.11.12-.11h1.72c.08,0,.11,0,.11.11v6.72c0,.09,0,.13-.13.13H75.12c-.1,0-.14,0-.14-.13Z" transform="translate(-0.02 -7.07)"/><path class="b" d="M80.26,17a.16.16,0,0,1-.17-.1c-.53-1.58-1.71-5.14-2.28-6.75,0-.06,0-.11.1-.11h1.83a.14.14,0,0,1,.16.1c.91,3.15,1.22,4.4,1.36,5h0c.14-.63.51-1.9,1.49-5,0-.07,0-.1.13-.1h1.62a.08.08,0,0,1,.08.12c-.6,1.66-1.78,5.2-2.34,6.73,0,.07-.07.11-.16.11Z" transform="translate(-0.02 -7.07)"/><path class="b" d="M87.05,14c.07.8.63,1.46,2,1.46a4.44,4.44,0,0,0,1.73-.32s.08,0,.08.07v1.33c0,.09,0,.14-.1.16a4.62,4.62,0,0,1-2.14.41,3.29,3.29,0,0,1-3.56-3.54,3.41,3.41,0,0,1,3.39-3.7,2.86,2.86,0,0,1,3,3,4.58,4.58,0,0,1-.07.94c0,.07,0,.1-.11.11a12.4,12.4,0,0,1-1.45.06Zm1.82-1.36a3.62,3.62,0,0,0,.7,0v-.09a1.14,1.14,0,0,0-1.19-1.11A1.32,1.32,0,0,0,87,12.67Z" transform="translate(-0.02 -7.07)"/><path class="b" d="M102.37,16.69c0,.1,0,.17-.11.2a6.08,6.08,0,0,1-2,.25c-2.72,0-4.83-1.61-4.83-4.68,0-2.84,2-4.78,5-4.78a4.66,4.66,0,0,1,1.83.24.16.16,0,0,1,.09.17V9.62c0,.12-.07.12-.12.1a4.28,4.28,0,0,0-1.82-.31,2.79,2.79,0,0,0-3,3,2.85,2.85,0,0,0,3.07,3,5.18,5.18,0,0,0,1.71-.22c.07,0,.11,0,.11.07Z" transform="translate(-0.02 -7.07)"/><path class="b" d="M103.61,7.18c0-.07,0-.11.14-.11h1.67c.1,0,.14,0,.14.11V15c0,.39.13.53.46.53a1.1,1.1,0,0,0,.25,0c.06,0,.07,0,.07.1v1.21c0,.11,0,.14-.09.16a2.31,2.31,0,0,1-.87.13c-1,0-1.77-.38-1.77-1.93Z" transform="translate(-0.02 -7.07)"/><path class="b" d="M114,13.48a3.39,3.39,0,0,1-3.44,3.66,3.35,3.35,0,0,1-3.46-3.61,3.43,3.43,0,0,1,3.48-3.63A3.33,3.33,0,0,1,114,13.48Zm-4.93,0c0,1.23.58,2,1.51,2s1.43-.71,1.43-2c0-1.1-.45-2-1.51-2C109.65,11.52,109,12.25,109,13.5Z" transform="translate(-0.02 -7.07)"/><path class="b" d="M121.28,15.45a12,12,0,0,0,.09,1.44c0,.08,0,.11-.13.11h-1.48c-.12,0-.14,0-.17-.1s-.07-.31-.09-.43a2.84,2.84,0,0,1-1.92.67c-1.4,0-2.36-.77-2.36-2.7V10.15c0-.1,0-.11.12-.11h1.71c.09,0,.1,0,.1.11v4.06c0,.76.32,1.25,1.09,1.25a1.54,1.54,0,0,0,1.1-.41v-4.9c0-.08,0-.11.14-.11h1.69c.1,0,.11,0,.11.11Z" transform="translate(-0.02 -7.07)"/><path class="b" d="M122.55,13.58c0-2,1.5-3.68,4.07-3.68l.46,0V7.17a.09.09,0,0,1,.1-.1h1.76c.07,0,.08,0,.08.08v8.28a8.23,8.23,0,0,0,.06,1c0,.07,0,.1-.1.13a6.94,6.94,0,0,1-2.76.56A3.36,3.36,0,0,1,122.55,13.58Zm4.53-2a1.6,1.6,0,0,0-.52-.07,1.87,1.87,0,0,0-2,2,1.75,1.75,0,0,0,1.86,2,2,2,0,0,0,.66-.08Z" transform="translate(-0.02 -7.07)"/></g></g></svg>