<svg xmlns="http://www.w3.org/2000/svg" width="200.072" height="150.86" viewBox="0 0 200.072 150.86"><path d="M179.487,23.551A73.613,73.613,0,0,0,124.992,0a75.58,75.58,0,0,0-53.768,22.61,65.338,65.338,0,0,0-7.242-.4A64.184,64.184,0,0,0,0,86.253a65.93,65.93,0,0,0,17.951,44.7,62.673,62.673,0,0,0,46.031,19.913h60.995A75.48,75.48,0,0,0,200.072,75.18,76.721,76.721,0,0,0,179.487,23.551ZM62.673,140.244a53.308,53.308,0,0,1-.248-106.616A52.82,52.82,0,0,1,97.843,47.1l.263.227,22.085,22.661a9.5,9.5,0,1,1-13.635,13.227L84.642,60.726a34.009,34.009,0,0,0-56.189,25.7,35.058,35.058,0,0,0,34.734,34.452H67.56L67.6,121c6.262,8.643,23.707,19.205,23.707,19.205Zm109.2-19.174a63.254,63.254,0,0,1-45.652,19.544,65.969,65.969,0,0,1-45.808-20.054L51.22,91.307A9.516,9.516,0,0,1,58.028,75.14,9.426,9.426,0,0,1,64.842,78L93.82,107.065a46.818,46.818,0,0,0,32.4,14.515,44.272,44.272,0,0,0,32.088-13.873,47.129,47.129,0,0,0,13.331-32.851,45.624,45.624,0,0,0-45.58-45.56,40.783,40.783,0,0,0-25.269,7.363c-.087-.07-2.184-1.455-4.549-2.9-1.465-.9-3.032-1.779-4.3-2.456-1.379-.754-5.351-2.7-7.712-3.674-.586-.243-1.345-.506-1.668-.637l.07-.034a61.975,61.975,0,0,1,43.4-16.678,64.687,64.687,0,0,1,64.613,64.587,66.092,66.092,0,0,1-18.775,46.2Z" transform="translate(0 -0.003)" fill="#fff"/></svg>