<svg xmlns="http://www.w3.org/2000/svg" viewBox="0 0 100 34"><defs><style>.a{fill:#fff;}</style></defs><title>tag_cta_ro</title><path class="a" d="M21.33,15h-1v2.4l1,0c1,0,1.7-.41,1.7-1.23S22.35,15,21.33,15Z" transform="translate(-1 -1)"/><path class="a" d="M69.64,16.9c-.8.1-1.4.78-1.4,2s.56,2,1.49,2,1.4-.69,1.4-2C71.13,17.82,70.69,16.9,69.64,16.9Z" transform="translate(-1 -1)"/><path class="a" d="M29.16,16.91h0a1.31,1.31,0,0,0-1.33,1.22l1.81,0a4,4,0,0,0,.69,0V18A1.12,1.12,0,0,0,29.16,16.91Z" transform="translate(-1 -1)"/><path class="a" d="M39.94,16.9c-.8.1-1.41.78-1.41,2s.57,2,1.49,2,1.41-.69,1.41-2C41.43,17.82,41,16.9,39.94,16.9Z" transform="translate(-1 -1)"/><path class="a" d="M84,1H18a17,17,0,0,0,0,34H84A17,17,0,0,0,84,1ZM25.67,22.36h-2c-.12,0-.17,0-.19-.09-.4-.6-1.27-2.08-1.84-3-.09-.16-.16-.23-.32-.23h-1v3.23a.1.1,0,0,1-.09.11h0l-1.7,0c-.08,0-.11,0-.11-.13V13.47c0-.06,0-.13.1-.13,1.24,0,1.76-.05,2.88-.05,2.29,0,3.57,1,3.57,2.76a2.58,2.58,0,0,1-1.72,2.43c.46.62,2,3,2.44,3.71C25.67,22.27,25.73,22.36,25.67,22.36Zm6.45-4a4.17,4.17,0,0,1-.07.93.13.13,0,0,1-.11.11,13.48,13.48,0,0,1-1.42.05H27.83c.06.79.62,1.44,2,1.44a4.27,4.27,0,0,0,1.69-.32c.05,0,.09,0,.09.07v1.31c0,.1,0,.14-.1.17a4.65,4.65,0,0,1-2.11.4,3.24,3.24,0,0,1-3.53-2.9,3,3,0,0,1,0-.6,3.36,3.36,0,0,1,3.06-3.64h.27a2.81,2.81,0,0,1,2.92,2.71A1.41,1.41,0,0,1,32.12,18.35Zm2.53,6.13a2.64,2.64,0,0,1-1.95.79,2.16,2.16,0,0,1-.36,0c-.1,0-.13-.05-.13-.13V23.71c0-.07,0-.11.1-.11.72,0,1.12-.28,1.12-1.28V15.61c0-.07,0-.11.12-.11h1.68a.1.1,0,0,1,.11.09v6.2A3.69,3.69,0,0,1,34.65,24.48Zm.82-10.79a1,1,0,0,1-.91,1.08h-.17a1,1,0,0,1-1.07-.92v-.16a1,1,0,0,1,.93-1.06.85.85,0,0,1,.16,0,1,1,0,0,1,1.06.94Zm7.92,5.21a3.34,3.34,0,0,1-3.07,3.59H40a3.31,3.31,0,0,1-3.41-3.19c0-.12,0-.25,0-.37a3.38,3.38,0,0,1,3.17-3.57H40a3.29,3.29,0,0,1,3.4,3.18C43.4,18.66,43.4,18.78,43.39,18.9Zm3.16,3.33c0,.09,0,.13-.13.13H44.77c-.1,0-.14,0-.14-.13V15.61a.1.1,0,0,1,.09-.11h1.72c.08,0,.11,0,.11.11Zm.12-8.54a1.07,1.07,0,0,1-2.14,0h0a1,1,0,0,1,.93-1.06h.15a1,1,0,0,1,1.06.94Zm7.57,8.54c0,.09,0,.13-.12.13h-1.7c-.09,0-.13,0-.13-.13V18.3c0-.83-.36-1.27-1.08-1.27a1.65,1.65,0,0,0-1.14.43v4.79c0,.07,0,.11-.13.11H48.27c-.09,0-.12,0-.12-.13V17.1a11.11,11.11,0,0,0-.06-1.49c0-.07,0-.11.1-.11h1.45a.16.16,0,0,1,.18.11,2.37,2.37,0,0,1,.11.46,3,3,0,0,1,2-.71c1.06,0,2.31.56,2.31,2.78Zm10.86,0c0,.09,0,.13-.13.13h-1.7c-.1,0-.14,0-.14-.13V18.3c0-.83-.36-1.27-1.08-1.27a1.7,1.7,0,0,0-1.14.43v4.79c0,.07,0,.11-.12.11H59.12c-.1,0-.13,0-.13-.13V17.1a13.31,13.31,0,0,0,0-1.49c0-.07,0-.11.09-.11h1.45a.16.16,0,0,1,.18.11,1.47,1.47,0,0,1,.11.46,3,3,0,0,1,2-.71c1.06,0,2.32.56,2.32,2.78Zm8-3.33a3.4,3.4,0,0,1-6.8,0,3.38,3.38,0,0,1,3.17-3.57h.27A3.27,3.27,0,0,1,73.1,18.5,2.64,2.64,0,0,1,73.09,18.9Zm10.68-3.29-2,6.62c0,.1,0,.13-.16.13H80c-.11,0-.13,0-.16-.13a46.74,46.74,0,0,1-1-4.76c-.35,1.52-.62,2.67-1.2,4.76,0,.1-.07.13-.16.13H75.7c-.14,0-.17,0-.19-.13l-1.8-6.6c0-.07,0-.13.11-.13h1.76c.08,0,.11,0,.12.1a47.06,47.06,0,0,1,1,4.88c.11-.5.33-1.79,1.13-4.85,0-.09,0-.13.12-.13h1.82c.07,0,.1,0,.11.1a42.19,42.19,0,0,1,1,4.94c.2-.9.4-2.39,1.06-4.94a.12.12,0,0,1,.13-.1h1.61a.07.07,0,0,1,.09.06A0,0,0,0,1,83.77,15.61Z" transform="translate(-1 -1)"/></svg>