<svg xmlns="http://www.w3.org/2000/svg" viewBox="0 0 252.52 60.35"><defs><style>.a{fill:#fff;}</style></defs><title>F1_dotted_box</title><rect class="a" y="28.89" width="4.2" height="4.2"/><rect class="a" x="0.75" y="29.64" width="2.7" height="2.7"/><rect class="a" y="0.52" width="4.2" height="4.2"/><rect class="a" x="0.75" y="1.27" width="2.7" height="2.7"/><rect class="a" y="55.67" width="4.2" height="4.2"/><rect class="a" x="0.75" y="56.42" width="2.7" height="2.7"/><rect class="a" x="248.32" y="28.89" width="4.2" height="4.2"/><rect class="a" x="249.07" y="29.64" width="2.7" height="2.7"/><rect class="a" x="248.32" y="0.52" width="4.2" height="4.2"/><rect class="a" x="249.07" y="1.27" width="2.7" height="2.7"/><rect class="a" x="123.6" width="4.2" height="4.2"/><rect class="a" x="124.35" y="0.75" width="2.7" height="2.7"/><rect class="a" x="124.16" y="56.15" width="4.2" height="4.2"/><rect class="a" x="124.91" y="55.9" width="2.7" height="2.7"/><rect class="a" x="247.79" y="55.15" width="4.2" height="4.2"/><rect class="a" x="248.54" y="55.9" width="2.7" height="2.7"/><rect class="a" x="6.61" y="1" width="3.02" height="1.04"/><rect class="a" x="11.63" y="1" width="3.02" height="1.04"/><rect class="a" x="16.66" y="1" width="3.02" height="1.04"/><rect class="a" x="21.68" y="1" width="3.02" height="1.04"/><rect class="a" x="26.71" y="1" width="3.02" height="1.04"/><rect class="a" x="31.73" y="1" width="3.02" height="1.04"/><rect class="a" x="36.76" y="1" width="3.02" height="1.04"/><rect class="a" x="41.78" y="1" width="3.02" height="1.04"/><rect class="a" x="46.81" y="1" width="3.02" height="1.04"/><rect class="a" x="51.83" y="1" width="3.02" height="1.04"/><rect class="a" x="56.86" y="1" width="3.02" height="1.04"/><rect class="a" x="61.88" y="1" width="3.02" height="1.04"/><rect class="a" x="66.91" y="1" width="3.02" height="1.04"/><rect class="a" x="71.93" y="1" width="3.02" height="1.04"/><rect class="a" x="76.96" y="1" width="3.02" height="1.04"/><rect class="a" x="81.98" y="1" width="3.02" height="1.04"/><rect class="a" x="87.01" y="1" width="3.02" height="1.04"/><rect class="a" x="92.03" y="1" width="3.02" height="1.04"/><rect class="a" x="97.06" y="1" width="3.02" height="1.04"/><rect class="a" x="102.08" y="1" width="3.02" height="1.04"/><rect class="a" x="107.11" y="1" width="3.02" height="1.04"/><rect class="a" x="112.13" y="1" width="3.02" height="1.04"/><rect class="a" x="117.16" y="1" width="3.02" height="1.04"/><rect class="a" x="131.23" y="1" width="3.02" height="1.04"/><rect class="a" x="136.26" y="1" width="3.02" height="1.04"/><rect class="a" x="141.28" y="1" width="3.02" height="1.04"/><rect class="a" x="146.31" y="1" width="3.02" height="1.04"/><rect class="a" x="151.33" y="1" width="3.02" height="1.04"/><rect class="a" x="156.36" y="1" width="3.02" height="1.04"/><rect class="a" x="161.38" y="1" width="3.02" height="1.04"/><rect class="a" x="166.41" y="1" width="3.02" height="1.04"/><rect class="a" x="171.43" y="1" width="3.02" height="1.04"/><rect class="a" x="176.46" y="1" width="3.02" height="1.04"/><rect class="a" x="181.48" y="1" width="3.02" height="1.04"/><rect class="a" x="186.51" y="1" width="3.02" height="1.04"/><rect class="a" x="191.53" y="1" width="3.02" height="1.04"/><rect class="a" x="196.56" y="1" width="3.02" height="1.04"/><rect class="a" x="201.58" y="1" width="3.02" height="1.04"/><rect class="a" x="206.61" y="1" width="3.02" height="1.04"/><rect class="a" x="211.63" y="1" width="3.02" height="1.04"/><rect class="a" x="216.66" y="1" width="3.02" height="1.04"/><rect class="a" x="221.68" y="1" width="3.02" height="1.04"/><rect class="a" x="226.71" y="1" width="3.02" height="1.04"/><rect class="a" x="231.73" y="1" width="3.02" height="1.04"/><rect class="a" x="236.76" y="1" width="3.02" height="1.04"/><rect class="a" x="241.78" y="1" width="3.02" height="1.04"/><rect class="a" x="250.66" y="7.38" width="1.01" height="3.11"/><rect class="a" x="250.66" y="12.56" width="1.01" height="3.11"/><rect class="a" x="250.66" y="17.74" width="1.01" height="3.11"/><rect class="a" x="250.66" y="22.92" width="1.01" height="3.11"/><rect class="a" x="242.14" y="57.63" width="3.02" height="1.04"/><rect class="a" x="237.12" y="57.63" width="3.02" height="1.04"/><rect class="a" x="232.09" y="57.63" width="3.02" height="1.04"/><rect class="a" x="227.07" y="57.63" width="3.02" height="1.04"/><rect class="a" x="222.04" y="57.63" width="3.02" height="1.04"/><rect class="a" x="217.02" y="57.63" width="3.02" height="1.04"/><rect class="a" x="211.99" y="57.63" width="3.02" height="1.04"/><rect class="a" x="206.97" y="57.63" width="3.02" height="1.04"/><rect class="a" x="201.94" y="57.63" width="3.02" height="1.04"/><rect class="a" x="196.92" y="57.63" width="3.02" height="1.04"/><rect class="a" x="191.89" y="57.63" width="3.02" height="1.04"/><rect class="a" x="186.87" y="57.63" width="3.02" height="1.04"/><rect class="a" x="181.84" y="57.63" width="3.02" height="1.04"/><rect class="a" x="176.82" y="57.63" width="3.02" height="1.04"/><rect class="a" x="171.79" y="57.63" width="3.02" height="1.04"/><rect class="a" x="166.77" y="57.63" width="3.02" height="1.04"/><rect class="a" x="161.74" y="57.63" width="3.02" height="1.04"/><rect class="a" x="156.72" y="57.63" width="3.02" height="1.04"/><rect class="a" x="151.69" y="57.63" width="3.02" height="1.04"/><rect class="a" x="146.67" y="57.63" width="3.02" height="1.04"/><rect class="a" x="141.64" y="57.63" width="3.02" height="1.04"/><rect class="a" x="136.62" y="57.63" width="3.02" height="1.04"/><rect class="a" x="131.59" y="57.63" width="3.02" height="1.04"/><rect class="a" x="117.52" y="57.63" width="3.02" height="1.04"/><rect class="a" x="112.49" y="57.63" width="3.02" height="1.04"/><rect class="a" x="107.47" y="57.63" width="3.02" height="1.04"/><rect class="a" x="102.44" y="57.63" width="3.02" height="1.04"/><rect class="a" x="97.42" y="57.63" width="3.02" height="1.04"/><rect class="a" x="92.39" y="57.63" width="3.02" height="1.04"/><rect class="a" x="87.37" y="57.63" width="3.02" height="1.04"/><rect class="a" x="82.34" y="57.63" width="3.02" height="1.04"/><rect class="a" x="77.32" y="57.63" width="3.02" height="1.04"/><rect class="a" x="72.29" y="57.63" width="3.02" height="1.04"/><rect class="a" x="67.27" y="57.63" width="3.02" height="1.04"/><rect class="a" x="62.24" y="57.63" width="3.02" height="1.04"/><rect class="a" x="57.22" y="57.63" width="3.02" height="1.04"/><rect class="a" x="52.19" y="57.63" width="3.02" height="1.04"/><rect class="a" x="47.17" y="57.63" width="3.02" height="1.04"/><rect class="a" x="42.14" y="57.63" width="3.02" height="1.04"/><rect class="a" x="37.12" y="57.63" width="3.02" height="1.04"/><rect class="a" x="32.09" y="57.63" width="3.02" height="1.04"/><rect class="a" x="27.07" y="57.63" width="3.02" height="1.04"/><rect class="a" x="22.04" y="57.63" width="3.02" height="1.04"/><rect class="a" x="17.02" y="57.63" width="3.02" height="1.04"/><rect class="a" x="11.99" y="57.63" width="3.02" height="1.04"/><rect class="a" x="6.97" y="57.63" width="3.02" height="1.04"/><rect class="a" x="1.58" y="22.78" width="1.01" height="3.11"/><rect class="a" x="1.58" y="17.6" width="1.01" height="3.11"/><rect class="a" x="1.58" y="12.43" width="1.01" height="3.11"/><rect class="a" x="1.58" y="7.25" width="1.01" height="3.11"/><rect class="a" x="250.66" y="35.38" width="1.01" height="3.11"/><rect class="a" x="250.66" y="40.56" width="1.01" height="3.11"/><rect class="a" x="250.66" y="45.74" width="1.01" height="3.11"/><rect class="a" x="250.66" y="50.92" width="1.01" height="3.11"/><rect class="a" x="1.58" y="50.78" width="1.01" height="3.11"/><rect class="a" x="1.58" y="45.6" width="1.01" height="3.11"/><rect class="a" x="1.58" y="40.43" width="1.01" height="3.11"/><rect class="a" x="1.58" y="35.25" width="1.01" height="3.11"/></svg>