<svg xmlns="http://www.w3.org/2000/svg" viewBox="0 0 201.54 21.9"><defs><style>.a{fill:#fff;}</style></defs><title>F1_text</title><path class="a" d="M.48,17.53c-.2,0-.24-.1-.24-.27V2c0-.15,0-.24.19-.24h3c.12,0,.16.07.16.19V14.49h6.9c.14,0,.19.1.16.22l-.43,2.62c0,.17-.12.2-.24.2Z" transform="translate(-0.24 -0.44)"/><path class="a" d="M15.13,12.42c.12,1.37,1.08,2.5,3.44,2.5a7.41,7.41,0,0,0,3-.55c.07,0,.14,0,.14.12v2.29c0,.17-.05.24-.17.29a8,8,0,0,1-3.68.7c-4.53,0-6.12-3.11-6.12-6.1,0-3.32,2-6.36,5.83-6.36a4.91,4.91,0,0,1,5.08,5.21,7.86,7.86,0,0,1-.12,1.61.2.2,0,0,1-.19.19,21.66,21.66,0,0,1-2.48.1Zm3.13-2.34a6.79,6.79,0,0,0,1.2-.05V9.87a2,2,0,0,0-2-1.91,2.29,2.29,0,0,0-2.32,2.12Z" transform="translate(-0.24 -0.44)"/><path class="a" d="M27.61,17.53a.28.28,0,0,1-.29-.17c-.91-2.72-2.94-8.84-3.92-11.61a.15.15,0,0,1,.16-.2h3.16c.17,0,.22,0,.26.17,1.57,5.42,2.1,7.57,2.34,8.65h.05c.24-1.08.87-3.25,2.55-8.65,0-.12.1-.17.22-.17h2.8a.15.15,0,0,1,.14.22c-1,2.84-3.06,8.94-4,11.56-.08.13-.12.2-.29.2Z" transform="translate(-0.24 -0.44)"/><path class="a" d="M39.3,12.42c.12,1.37,1.08,2.5,3.45,2.5a7.4,7.4,0,0,0,3-.55c.07,0,.14,0,.14.12v2.29c0,.17,0,.24-.17.29a8,8,0,0,1-3.68.7c-4.53,0-6.12-3.11-6.12-6.1,0-3.32,2-6.36,5.83-6.36a4.91,4.91,0,0,1,5.08,5.21,7.86,7.86,0,0,1-.12,1.61.2.2,0,0,1-.19.19,21.52,21.52,0,0,1-2.48.1Zm3.13-2.34A7,7,0,0,0,43.64,10V9.87a2,2,0,0,0-2-1.91,2.27,2.27,0,0,0-2.31,2.12Z" transform="translate(-0.24 -0.44)"/><path class="a" d="M48.84.64c0-.12,0-.2.24-.2H52c.17,0,.24.08.24.2V14.13c0,.67.22.92.8.92a2.17,2.17,0,0,0,.43,0c.1,0,.12.05.12.17v2.07c0,.2,0,.24-.17.29a3.91,3.91,0,0,1-1.49.22c-1.73,0-3-.65-3-3.33Z" transform="translate(-0.24 -0.44)"/><path class="a" d="M71.4,14.85a21.52,21.52,0,0,0,.14,2.48c0,.15-.05.2-.21.2H68.77c-.19,0-.24-.05-.29-.17a6.58,6.58,0,0,1-.14-.75A4.89,4.89,0,0,1,65,17.77c-2.41,0-4.07-1.33-4.07-4.65V5.75c0-.17,0-.2.21-.2h2.94c.15,0,.17,0,.17.2v7c0,1.3.55,2.15,1.88,2.15a2.67,2.67,0,0,0,1.88-.7V5.75c0-.15.07-.2.24-.2h2.92c.16,0,.19,0,.19.2Z" transform="translate(-0.24 -0.44)"/><path class="a" d="M85.5,11.17c0,4.41-3.62,6.6-7.38,6.6a2.48,2.48,0,0,1-.45,0v4.1c0,.12,0,.19-.2.22-1,.09-2.84.26-3,.29s-.17-.05-.17-.17V8c0-.34,0-1.23-.08-1.59a.11.11,0,0,1,.1-.12,15.47,15.47,0,0,1,5.06-1C83.59,5.31,85.5,8.15,85.5,11.17ZM77.67,8.35v6.57a3.84,3.84,0,0,0,.77.05,3.4,3.4,0,0,0,3.61-3.59c0-2.07-1.06-3.23-2.94-3.23A4.48,4.48,0,0,0,77.67,8.35Z" transform="translate(-0.24 -0.44)"/><path class="a" d="M95.07,5.55a.26.26,0,0,1,.24.17c1.37,4.12,2.09,6.63,2.43,7.88.77-2.55,1.52-4.87,2.46-7.88a.25.25,0,0,1,.26-.17h2.87c.17,0,.19.1.17.22-1.74,5.4-4.41,12.05-6.19,16.17,0,.09-.12.17-.34.17l-3,.24c-.14,0-.19-.08-.12-.22.7-1.45,1.42-3,2.2-4.84a.43.43,0,0,0,0-.41c-.68-1.67-2.94-7.35-4.36-11.13-.07-.12,0-.2.14-.2Z" transform="translate(-0.24 -0.44)"/><path class="a" d="M116.15,11.48c0,3.78-2.46,6.29-5.93,6.29-4.12,0-6-3.11-6-6.22a5.9,5.9,0,0,1,6-6.24C114.15,5.31,116.15,8.23,116.15,11.48Zm-8.48,0c0,2.12,1,3.47,2.6,3.47,1.4,0,2.46-1.2,2.46-3.42,0-1.88-.77-3.44-2.6-3.44C108.73,8.11,107.67,9.36,107.67,11.5Z" transform="translate(-0.24 -0.44)"/><path class="a" d="M128.75,14.85a20.86,20.86,0,0,0,.15,2.48c0,.15-.05.2-.22.2h-2.55c-.19,0-.24-.05-.29-.17s-.12-.53-.15-.75a4.88,4.88,0,0,1-3.3,1.16c-2.41,0-4.07-1.33-4.07-4.65V5.75c0-.17.05-.2.22-.2h2.94c.14,0,.17,0,.17.2v7c0,1.3.55,2.15,1.88,2.15a2.67,2.67,0,0,0,1.88-.7V5.75c0-.15.07-.2.24-.2h2.91c.17,0,.19,0,.19.2Z" transform="translate(-0.24 -0.44)"/><path class="a" d="M134.32,5.55a.27.27,0,0,1,.29.22,4.78,4.78,0,0,1,.27,1.35,5,5,0,0,1,3.83-1.81c.14,0,.19.05.19.19v3c0,.12-.05.17-.22.17a4.89,4.89,0,0,0-3.63,1l0,7.66c0,.15-.05.2-.22.2h-2.89c-.19,0-.24-.07-.24-.22V9c0-1,0-2.44-.12-3.28,0-.12,0-.17.15-.17Z" transform="translate(-0.24 -0.44)"/><path class="a" d="M149.72,8c-1.13,0-1.49.41-1.49.82s.31.72,1.71,1.25c2.91,1.06,3.83,2.19,3.83,3.9,0,2.29-1.78,3.81-5,3.81a7.82,7.82,0,0,1-3.5-.68.27.27,0,0,1-.17-.26v-2.6c0-.15.1-.22.2-.15a6.82,6.82,0,0,0,3.54,1c1.13,0,1.64-.32,1.64-.82s-.41-.8-1.83-1.33c-2.73-1-3.62-2.17-3.62-3.9s1.52-3.69,4.7-3.69a8,8,0,0,1,3.13.48.32.32,0,0,1,.17.32V8.52c0,.14-.1.24-.24.17A7.34,7.34,0,0,0,149.72,8Z" transform="translate(-0.24 -0.44)"/><path class="a" d="M166.49,5.55c.17,0,.24.12.15.24-.75.9-3.64,4.1-4.56,5.09a.08.08,0,0,0,0,.09c1.4,1.74,3.69,4.53,5.18,6.34.1.07,0,.22-.12.22h-3.83c-.17,0-.21-.07-.31-.17-.75-.92-2.82-3.64-3.95-5.13v5.06c0,.17-.05.24-.22.24h-2.91c-.2,0-.24-.07-.24-.24V.64c0-.1,0-.2.24-.2h2.91c.12,0,.22,0,.22.2v9.9c1.25-1.49,3.49-4.19,4-4.82a.37.37,0,0,1,.34-.17Z" transform="translate(-0.24 -0.44)"/><path class="a" d="M168,2.4A1.8,1.8,0,0,1,169.92.54a1.75,1.75,0,0,1,1.85,1.86,1.77,1.77,0,0,1-1.88,1.88A1.75,1.75,0,0,1,168,2.4Zm.17,3.35c0-.12,0-.2.19-.2h3c.15,0,.2,0,.2.2V17.31c0,.15,0,.22-.22.22h-2.89c-.17,0-.24-.07-.24-.22Z" transform="translate(-0.24 -0.44)"/><path class="a" d="M174.45.64c0-.12.05-.2.24-.2h2.87c.17,0,.24.08.24.2V14.13c0,.67.21.92.79.92a2.27,2.27,0,0,0,.44,0c.09,0,.12.05.12.17v2.07c0,.2,0,.24-.17.29a4,4,0,0,1-1.5.22c-1.73,0-3-.65-3-3.33Z" transform="translate(-0.24 -0.44)"/><path class="a" d="M181.1.64c0-.12.05-.2.24-.2h2.87c.17,0,.24.08.24.2V14.13c0,.67.22.92.79.92a2.27,2.27,0,0,0,.44,0c.09,0,.12.05.12.17v2.07c0,.2,0,.24-.17.29a4,4,0,0,1-1.49.22c-1.74,0-3-.65-3-3.33Z" transform="translate(-0.24 -0.44)"/><path class="a" d="M191.85,8c-1.14,0-1.5.41-1.5.82s.32.72,1.71,1.25c2.92,1.06,3.83,2.19,3.83,3.9,0,2.29-1.78,3.81-5,3.81a7.74,7.74,0,0,1-3.49-.68.27.27,0,0,1-.17-.26v-2.6c0-.15.1-.22.19-.15a6.84,6.84,0,0,0,3.54,1c1.14,0,1.64-.32,1.64-.82s-.41-.8-1.83-1.33c-2.72-1-3.61-2.17-3.61-3.9s1.51-3.69,4.69-3.69a8,8,0,0,1,3.14.48.33.33,0,0,1,.17.32V8.52c0,.14-.1.24-.24.17A7.41,7.41,0,0,0,191.85,8Z" transform="translate(-0.24 -0.44)"/><path class="a" d="M197.78,15.74a2,2,0,0,1,4,0,1.87,1.87,0,0,1-2,2A1.9,1.9,0,0,1,197.78,15.74Z" transform="translate(-0.24 -0.44)"/></svg>