<svg xmlns="http://www.w3.org/2000/svg" viewBox="0 0 201.37 23.87"><defs><style>.a{fill:#fff;}</style></defs><title>tag_headline3</title><path class="a" d="M2.36,2c0-.15,0-.2.15-.2,1.06,0,3.1-.08,5.06-.08,5.21,0,7,2.89,7,5.7,0,4.18-3.23,6-7.2,6H5.92v5.08c0,.13,0,.21-.21.21H2.54c-.13,0-.18-.08-.18-.21ZM5.92,10.2c.44,0,.72,0,1.44,0,2,0,3.67-.62,3.67-2.73,0-1.63-1.11-2.66-3.36-2.66-.82,0-1.52,0-1.75,0Z" transform="translate(-2.36 -0.37)"/><path class="a" d="M20.57,18.45c0,.16-.05.21-.2.21H17.19c-.15,0-.2-.08-.2-.21V.55c0-.11,0-.18.2-.18h3.18c.15,0,.2,0,.2.18V6.64A5.74,5.74,0,0,1,24,5.58c2,0,4.36,1,4.36,5.18v7.67c0,.15,0,.23-.23.23H25c-.18,0-.25-.08-.25-.23v-7.3c0-1.63-.7-2.43-2-2.43a3.55,3.55,0,0,0-2.12.65Z" transform="translate(-2.36 -0.37)"/><path class="a" d="M43.35,12.18c0,4.05-2.63,6.74-6.35,6.74-4.41,0-6.37-3.33-6.37-6.66,0-3.66,2.45-6.68,6.43-6.68C41.21,5.58,43.35,8.7,43.35,12.18Zm-9.08,0c0,2.27,1.06,3.71,2.79,3.71,1.49,0,2.63-1.29,2.63-3.66,0-2-.83-3.69-2.79-3.69C35.4,8.57,34.27,9.91,34.27,12.21Z" transform="translate(-2.36 -0.37)"/><path class="a" d="M52.17,18.22c0,.16,0,.28-.18.34a6.33,6.33,0,0,1-2.29.36c-2.25,0-3.56-1.11-3.56-3.69V8.83H44.59c-.16,0-.21-.08-.21-.23V6.07c0-.18,0-.23.23-.23h1.55a29.33,29.33,0,0,1,.26-3.13.27.27,0,0,1,.23-.23l3-.39c.13,0,.21,0,.21.16-.08.8-.13,2.32-.13,3.59h2.37c.16,0,.21,0,.21.2V8.65c0,.13,0,.15-.18.18H49.72v5.52c0,1.14.34,1.65,1.4,1.65a5.28,5.28,0,0,0,.87-.1c.11,0,.18,0,.18.18Z" transform="translate(-2.36 -0.37)"/><path class="a" d="M66.21,12.18c0,4.05-2.63,6.74-6.35,6.74-4.41,0-6.37-3.33-6.37-6.66,0-3.66,2.45-6.68,6.42-6.68C64.07,5.58,66.21,8.7,66.21,12.18Zm-9.08,0c0,2.27,1,3.71,2.78,3.71,1.5,0,2.63-1.29,2.63-3.66,0-2-.82-3.69-2.78-3.69C58.26,8.57,57.13,9.91,57.13,12.21Z" transform="translate(-2.36 -0.37)"/><path class="a" d="M75.24,15.67c3.69.18,5.05,1.67,5.05,3.71,0,2.69-2.63,4.85-6.78,4.85-4.31,0-6.2-2.14-6.2-4,0-.82.68-1.85,2.38-3.27A3.21,3.21,0,0,1,69.15,15a3.61,3.61,0,0,1,.46-1.7A3.71,3.71,0,0,1,67.83,10c0-2.48,1.94-4.41,5.29-4.41a15.46,15.46,0,0,1,2.45.2,2.36,2.36,0,0,0,.62.06h3.54c.12,0,.18,0,.18.18v2.4c0,.13-.06.18-.18.18-.39,0-1.24-.08-1.79-.13a3.29,3.29,0,0,1,.39,1.68c0,2.73-2.24,4.1-5.11,4.1-.28,0-.59,0-.87-.05a1.23,1.23,0,0,0-.06.69,1.34,1.34,0,0,0,.29.67Zm-3.67,2.89a2.51,2.51,0,0,0-1,1.36c0,.8,1.14,1.68,3.15,1.68C76,21.6,77,20.8,77,20s-1.14-1.21-2.58-1.29Zm-.26-8.62a1.67,1.67,0,0,0,1.84,1.75A1.58,1.58,0,0,0,74.93,10a1.81,1.81,0,1,0-3.62-.08Z" transform="translate(-2.36 -0.37)"/><path class="a" d="M84.73,5.84a.28.28,0,0,1,.31.23,4.7,4.7,0,0,1,.28,1.44,5.4,5.4,0,0,1,4.1-1.93c.16,0,.21,0,.21.2V9c0,.13,0,.18-.23.18a5.3,5.3,0,0,0-3.9,1.11l0,8.2c0,.16-.06.21-.24.21H82.15c-.21,0-.26-.08-.26-.23V9.53c0-1.11,0-2.61-.13-3.51,0-.13,0-.18.16-.18Z" transform="translate(-2.36 -0.37)"/><path class="a" d="M101.11,15.8c0,.67,0,1.21,0,1.83,0,.05,0,.1,0,.13a14.37,14.37,0,0,1-5.62,1.16c-2.87,0-5.22-1.32-5.22-4.31,0-2.74,2.4-4.18,5.83-4.18a11.43,11.43,0,0,1,1.53.05V10.3c0-.49-.31-1.63-2.48-1.63a8.26,8.26,0,0,0-3.41.7.15.15,0,0,1-.23-.13V6.64a.23.23,0,0,1,.18-.26,9.76,9.76,0,0,1,4-.8c3.72,0,5.37,2.29,5.37,5.24Zm-3.48-2.66a10,10,0,0,0-1.29-.08c-1.84,0-2.58.59-2.58,1.52s.64,1.55,2.27,1.55a5.38,5.38,0,0,0,1.6-.23Z" transform="translate(-2.36 -0.37)"/><path class="a" d="M116.15,11.85c0,4.72-3.87,7.07-7.9,7.07a3.1,3.1,0,0,1-.49,0v4.39c0,.13,0,.21-.2.23-1.06.1-3,.28-3.2.31s-.18-.05-.18-.18V8.47c0-.36-.05-1.32-.08-1.7a.12.12,0,0,1,.1-.13,16.62,16.62,0,0,1,5.42-1.06C114.11,5.58,116.15,8.62,116.15,11.85Zm-8.39-3v7a4.52,4.52,0,0,0,.83.05,3.64,3.64,0,0,0,3.87-3.84c0-2.22-1.13-3.46-3.15-3.46A4.88,4.88,0,0,0,107.76,8.83Z" transform="translate(-2.36 -0.37)"/><path class="a" d="M122.06,18.45c0,.16-.06.21-.21.21h-3.17c-.16,0-.21-.08-.21-.21V.55c0-.11,0-.18.21-.18h3.17c.15,0,.21,0,.21.18V6.64a5.69,5.69,0,0,1,3.38-1.06c2,0,4.36,1,4.36,5.18v7.67c0,.15-.05.23-.24.23h-3.09c-.18,0-.26-.08-.26-.23v-7.3c0-1.63-.7-2.43-2-2.43a3.5,3.5,0,0,0-2.11.65Z" transform="translate(-2.36 -0.37)"/><path class="a" d="M134.75,5.84A.26.26,0,0,1,135,6c1.48,4.41,2.25,7.09,2.61,8.43.83-2.73,1.63-5.21,2.63-8.43a.27.27,0,0,1,.29-.18h3.07c.18,0,.2.1.18.23-1.86,5.78-4.72,12.9-6.63,17.31-.06.11-.13.18-.36.18l-3.26.26c-.15,0-.2-.08-.12-.23.74-1.55,1.52-3.25,2.34-5.19a.44.44,0,0,0,0-.44c-.72-1.78-3.15-7.87-4.67-11.92-.08-.13,0-.2.15-.2Z" transform="translate(-2.36 -0.37)"/><path class="a" d="M163.07,11.85c0,4.72-3.87,7.07-7.89,7.07a3,3,0,0,1-.49,0v4.39c0,.13,0,.21-.21.23-1.06.1-3,.28-3.2.31s-.18-.05-.18-.18V8.47c0-.36,0-1.32-.08-1.7a.12.12,0,0,1,.11-.13,16.51,16.51,0,0,1,5.42-1.06C161,5.58,163.07,8.62,163.07,11.85Zm-8.38-3v7a4.36,4.36,0,0,0,.82.05,3.64,3.64,0,0,0,3.87-3.84c0-2.22-1.13-3.46-3.14-3.46A4.81,4.81,0,0,0,154.69,8.83Z" transform="translate(-2.36 -0.37)"/><path class="a" d="M165.39.57c0-.13.05-.2.26-.2h3.07c.18,0,.26.07.26.2V15c0,.72.23,1,.85,1l.46,0c.11,0,.13.05.13.18v2.22c0,.2,0,.25-.18.31a4.23,4.23,0,0,1-1.6.23c-1.85,0-3.25-.7-3.25-3.56Z" transform="translate(-2.36 -0.37)"/><path class="a" d="M182.63,15.8c0,.67,0,1.21.05,1.83,0,.05,0,.1-.05.13A14.38,14.38,0,0,1,177,18.92c-2.86,0-5.21-1.32-5.21-4.31,0-2.74,2.4-4.18,5.83-4.18a11.17,11.17,0,0,1,1.52.05V10.3c0-.49-.31-1.63-2.47-1.63a8.26,8.26,0,0,0-3.41.7.15.15,0,0,1-.23-.13V6.64c0-.13,0-.21.18-.26a9.76,9.76,0,0,1,4-.8c3.72,0,5.37,2.29,5.37,5.24Zm-3.49-2.66a9.79,9.79,0,0,0-1.29-.08c-1.83,0-2.58.59-2.58,1.52s.65,1.55,2.27,1.55a5.33,5.33,0,0,0,1.6-.23Z" transform="translate(-2.36 -0.37)"/><path class="a" d="M185.69,8.83c0-.88-.05-2.22-.1-2.79,0-.13,0-.2.18-.2h2.71c.21,0,.29.07.34.2a3.22,3.22,0,0,1,.2.85,5.71,5.71,0,0,1,3.67-1.31c2,0,4.33,1,4.33,5.18v7.67c0,.15-.05.23-.23.23h-3.1c-.18,0-.25-.08-.25-.23V11.07c0-1.54-.68-2.37-2-2.37a3.13,3.13,0,0,0-2.14.8v9a.2.2,0,0,1-.23.21h-3.12c-.18,0-.24-.08-.24-.23Z" transform="translate(-2.36 -0.37)"/><path class="a" d="M199.44,16.75a2.15,2.15,0,0,1,4.29,0,2,2,0,0,1-2.14,2.17A2,2,0,0,1,199.44,16.75Z" transform="translate(-2.36 -0.37)"/></svg>