<?xml version="1.0" encoding="utf-8"?>
<!-- Generator: Adobe Illustrator 22.1.0, SVG Export Plug-In . SVG Version: 6.00 Build 0)  -->
<svg version="1.1" id="Layer_1" xmlns="http://www.w3.org/2000/svg" xmlns:xlink="http://www.w3.org/1999/xlink" x="0px" y="0px"
	 viewBox="0 0 176.3 209.4" style="enable-background:new 0 0 176.3 209.4;" xml:space="preserve">
<style type="text/css">
	.st0{fill:#FFFFFF;}
	.st1{fill:none;stroke:#FFFFFF;stroke-width:2;stroke-miterlimit:10;}
</style>
<title>F1_copy-cta-logo</title>
<path class="st0" d="M19.3,169.4H30v25.7L19.3,169.4z"/>
<path class="st0" d="M11.7,169.4H0.9v25.7L11.7,169.4z"/>
<path class="st0" d="M15.5,178.9l6.8,16.2h-4.5l-2.1-5.2h-5L15.5,178.9z"/>
<path class="st0" d="M4.7,205.4c-0.2-1.1-0.6-2.6-0.7-3.6h0c-0.2,1-0.4,2.4-0.7,3.6H4.7z M3,207l-0.5,2.2c0,0.1,0,0.1-0.1,0.1H1.1
	c-0.1,0-0.1,0-0.1-0.1l1.9-8.1c0.1-0.3,0.1-0.5,0-0.8c0,0,0-0.1,0.1-0.1h2c0.1,0,0.1,0,0.1,0.1l2.2,8.9c0,0.1,0,0.1-0.1,0.1H5.6
	c-0.1,0-0.1,0-0.1-0.1l0,0L5,207L3,207z"/>
<path class="st0" d="M10.8,203.7c-0.1,0-0.2,0-0.3,0c-0.8,0-1.4,0.7-1.4,2.1s0.6,2.1,1.4,2.1c0.1,0,0.2,0,0.3,0L10.8,203.7z
	 M7.5,205.8c0-2.1,1.2-3.7,3.2-3.7h0.2v-2.4c0,0,0-0.1,0.1-0.1c0,0,0,0,0,0h1.5c0.1,0,0.1,0,0.1,0.1v8.1c0,0.3,0,0.6,0,0.9
	c0,0,0,0.1-0.1,0.1c-0.6,0.3-1.3,0.5-2.1,0.5C8.7,209.4,7.5,208.3,7.5,205.8z"/>
<path class="st0" d="M15.1,205.8c0,1.3,0.3,2.2,0.9,2.2c0.6,0,0.9-0.7,0.9-2.2s-0.2-2.1-0.9-2.1C15.3,203.6,15.1,204.3,15.1,205.8z
	 M18.6,205.8c0,2.2-0.9,3.6-2.6,3.6c-1.9,0-2.6-1.6-2.6-3.7s0.9-3.6,2.6-3.6S18.6,203.5,18.6,205.8L18.6,205.8z"/>
<path class="st0" d="M21.7,203.7c-0.2,0-0.3,0-0.5,0.1v4.2c0.1,0,0.2,0,0.3,0c0.6,0,1.4-0.6,1.4-2.4
	C22.9,204.2,22.3,203.7,21.7,203.7z M21.1,199.7C21.1,199.7,21.1,199.7,21.1,199.7l0.1,2.6c0.2-0.1,0.5-0.1,0.8-0.1
	c1.5,0,2.6,1.1,2.6,3.3c0,2.6-1.5,3.9-3.3,3.9c-0.6,0-1.1-0.1-1.6-0.3c0,0-0.1-0.1-0.1-0.1v-9.3c0,0,0-0.1,0-0.1c0,0,0,0,0,0
	L21.1,199.7L21.1,199.7z"/>
<path class="st0" d="M28,204.9c0.1,0,0.3,0,0.4,0c0,0,0-0.1,0-0.1c0-0.5-0.2-1.1-0.8-1.1s-0.8,0.6-0.9,1.3L28,204.9z M26.8,206.2
	c0,1.1,0.4,1.8,1.5,1.8c0.4,0,0.7-0.1,1.1-0.2c0.1,0,0.1,0,0.1,0.1v1.2c0,0.1,0,0.2-0.1,0.2c-0.4,0.2-0.9,0.3-1.4,0.3
	c-2.1,0-2.9-1.5-2.9-3.5s0.9-3.7,2.6-3.7s2.3,1.6,2.3,2.8c0,0.4,0,0.7,0,1.1c0,0.1-0.1,0.1-0.1,0.1c-0.1,0-0.6,0-1.3,0L26.8,206.2z"
	/>
<path class="st1" d="M77.9,138.9H20c-10.2,0-18.5-8.3-18.5-18.5s8.3-18.5,18.5-18.5h58c10.2,0,18.5,8.3,18.5,18.5
	S88.2,138.9,77.9,138.9z"/>
<g>
	<g>
		<path class="st0" d="M15.4,124.8c-0.1,0-0.1,0-0.1-0.1v-8.9c0-0.1,0-0.1,0.1-0.1c1.3,0,1.8,0,2.9,0c2.3,0,3.6,1,3.6,2.8
			c0,1.1-0.7,2.1-1.8,2.5c0.5,0.6,2,3,2.5,3.8c0,0.1,0,0.2,0,0.2h-2c-0.1,0-0.2,0-0.2-0.1c-0.4-0.6-1.3-2.1-1.9-3.1
			c-0.1-0.2-0.2-0.2-0.3-0.2h-1v3.3c0,0.1,0,0.1-0.1,0.1c0,0,0,0,0,0L15.4,124.8z M18.3,119.8c1,0,1.7-0.4,1.7-1.3s-0.7-1.2-1.7-1.2
			h-1.1v2.4L18.3,119.8z"/>
		<path class="st0" d="M24.8,121.8c0.1,0.8,0.6,1.5,2,1.5c0.6,0,1.2-0.1,1.7-0.3c0,0,0.1,0,0.1,0.1v1.3c0,0.1,0,0.1-0.1,0.2
			c-0.7,0.3-1.4,0.4-2.1,0.4c-1.8,0.2-3.4-1.2-3.6-3c0-0.2,0-0.3,0-0.5c-0.2-1.9,1.2-3.5,3.1-3.7c0.1,0,0.2,0,0.3,0
			c1.6-0.1,2.9,1.2,3,2.8c0,0.1,0,0.2,0,0.2c0,0.3,0,0.6-0.1,0.9c0,0.1,0,0.1-0.1,0.1c-0.5,0-1,0-1.4,0L24.8,121.8z M26.7,120.4
			c0.2,0,0.5,0,0.7,0v-0.1c0-0.6-0.5-1.1-1.2-1.1c0,0,0,0,0,0c-0.7,0-1.3,0.5-1.3,1.2H26.7z"/>
		<path class="st0" d="M30.4,119.4c0-0.5,0-1.2,0-1.5c0-0.1,0-0.1,0.1-0.1H32c0.1,0,0.2,0,0.2,0.1c0.1,0.2,0.1,0.3,0.1,0.5
			c0.6-0.5,1.3-0.7,2-0.7c1.1,0,2.3,0.6,2.3,2.8v4.2c0,0.1,0,0.1-0.1,0.1h-1.7c-0.1,0-0.1,0-0.1-0.1v-4c0-0.8-0.4-1.3-1.1-1.3
			c-0.4,0-0.8,0.1-1.2,0.4v4.9c0,0.1,0,0.1-0.1,0.1h-1.7c-0.1,0-0.1,0-0.1-0.1L30.4,119.4z"/>
		<path class="st0" d="M39.8,121.8c0.1,0.8,0.6,1.5,2,1.5c0.6,0,1.2-0.1,1.7-0.3c0,0,0.1,0,0.1,0.1v1.3c0,0.1,0,0.1-0.1,0.2
			c-0.7,0.3-1.4,0.4-2.1,0.4c-1.8,0.2-3.4-1.2-3.6-3c0-0.2,0-0.3,0-0.5c-0.2-1.9,1.2-3.5,3.1-3.7c0.1,0,0.2,0,0.3,0
			c1.6-0.1,2.9,1.1,3,2.7c0,0.1,0,0.2,0,0.3c0,0.3,0,0.6-0.1,0.9c0,0.1,0,0.1-0.1,0.1c-0.5,0-1,0-1.4,0L39.8,121.8z M41.7,120.4
			c0.2,0,0.5,0,0.7,0v-0.1c0-0.6-0.5-1.1-1.2-1.1c0,0,0,0,0,0c-0.7,0-1.3,0.5-1.3,1.2H41.7z"/>
		<path class="st0" d="M51.3,124.8c-0.1,0-0.1,0-0.2-0.1c-0.7-2.9-0.9-4.1-1.1-4.8l0,0c-0.3,1.6-0.6,2.7-1.2,4.8
			c0,0.1-0.1,0.1-0.2,0.1h-1.8c-0.1,0-0.2,0-0.2-0.1l-1.8-6.7c0-0.1,0-0.1,0.1-0.1h1.8c0.1,0,0.1,0,0.1,0.1c0,0,0,0,0,0
			c0.7,3,0.9,4.4,1,5l0,0c0.1-0.5,0.3-1.8,1.2-4.9c0-0.1,0-0.1,0.1-0.1H51c0.1,0,0.1,0,0.1,0.1c0.7,3.1,0.9,4.5,1,5l0,0
			c0.2-0.9,0.4-2.4,1.1-5c0-0.1,0.1-0.1,0.1-0.1c0,0,0,0,0,0H55c0.1,0,0.1,0,0.1,0.1l-2,6.7c0,0.1,0,0.1-0.2,0.1L51.3,124.8z"/>
		<path class="st0" d="M59.3,119.4c0-0.5,0-1.2-0.1-1.5c0-0.1,0-0.1,0.1-0.1h1.5c0.1,0,0.2,0,0.2,0.1c0.1,0.2,0.1,0.3,0.1,0.5
			c0.6-0.5,1.3-0.7,2-0.7c1.1,0,2.4,0.6,2.4,2.8v4.2c0,0.1,0,0.1-0.1,0.1h-1.7c-0.1,0-0.1,0-0.1-0.1v-4c0-0.8-0.4-1.3-1.1-1.3
			c-0.4,0-0.8,0.1-1.2,0.4v4.9c0,0.1,0,0.1-0.1,0.1h-1.7c-0.1,0-0.1,0-0.1-0.1V119.4z"/>
		<path class="st0" d="M73.6,121.3c0.1,1.9-1.4,3.5-3.3,3.6c-1.9,0.1-3.5-1.4-3.6-3.3c0-0.1,0-0.2,0-0.4c-0.1-1.9,1.3-3.5,3.2-3.6
			c0.1,0,0.2,0,0.3,0c1.8-0.1,3.4,1.4,3.4,3.2C73.6,121,73.6,121.1,73.6,121.3z M68.7,121.3c0,1.2,0.6,2,1.5,2s1.4-0.7,1.4-2
			c0-1.1-0.4-2-1.5-2C69.3,119.3,68.7,120,68.7,121.3L68.7,121.3z"/>
		<path class="st0" d="M80.6,124.8c-0.1,0-0.1,0-0.2-0.1c-0.7-2.9-0.9-4.1-1.1-4.8l0,0c-0.3,1.6-0.6,2.7-1.2,4.8
			c0,0.1-0.1,0.1-0.2,0.1h-1.8c-0.1,0-0.2,0-0.2-0.1l-1.8-6.7c0-0.1,0-0.1,0.1-0.1h1.8c0.1,0,0.1,0,0.1,0.1c0.8,3,0.9,4.4,1,5l0,0
			c0.1-0.5,0.3-1.8,1.2-4.9c0-0.1,0-0.1,0.1-0.1h1.8c0.1,0,0.1,0,0.1,0.1c0.8,3.1,0.9,4.5,1,5l0,0c0.2-0.9,0.4-2.4,1.1-5
			c0-0.1,0.1-0.1,0.1-0.1c0,0,0,0,0,0h1.8c0,0,0.1,0,0.1,0.1c0,0,0,0,0,0l-2,6.7c0,0.1,0,0.1-0.2,0.1L80.6,124.8z"/>
	</g>
</g>
<g>
	<g>
		<path class="st0" d="M9.3,11.8c-0.2,0-0.2-0.1-0.2-0.2V8.9c0-0.1,0.1-0.2,0.2-0.2h6c0.2,0,0.2,0,0.2,0.2v8.6c0,0.1,0,0.2-0.2,0.3
			c-1.7,0.6-3.5,0.9-5.3,0.9c-6.2,0-9.2-3.9-9.2-8.7c0-5.4,3.8-8.9,9.7-8.9c1.4-0.1,2.9,0.1,4.2,0.6c0.1,0,0.2,0.1,0.2,0.3v2.8
			c0,0.2-0.1,0.2-0.2,0.1c-1.3-0.6-2.7-0.8-4.1-0.8C6.6,4.3,4.6,6.4,4.6,9.9c-0.2,2.9,1.9,5.4,4.8,5.6c0.3,0,0.5,0,0.8,0
			c0.6,0,1.1,0,1.6-0.2v-3.4L9.3,11.8z"/>
		<path class="st0" d="M21.5,12.9c0.1,1.5,1.2,2.7,3.7,2.7c1.1,0,2.2-0.2,3.2-0.6c0.1,0,0.2,0,0.2,0.1v2.5c0,0.1-0.1,0.3-0.2,0.3
			c-1.3,0.6-2.6,0.8-4,0.8c-4.9,0-6.6-3.4-6.6-6.6c0-3.6,2.2-6.9,6.3-6.9s5.5,3,5.5,5.6c0,0.6,0,1.2-0.1,1.8c0,0.1-0.1,0.2-0.2,0.2
			c-0.9,0.1-1.8,0.1-2.7,0.1H21.5z M24.9,10.4c0.4,0,0.9,0,1.3-0.1v-0.2c0-1.2-1-2.1-2.1-2.1c0,0-0.1,0-0.1,0c-1.3,0-2.4,1-2.5,2.3
			H24.9z"/>
		<path class="st0" d="M38.6,18c0,0.1,0,0.3-0.2,0.3c-0.7,0.3-1.5,0.4-2.3,0.4c-2.3,0-3.6-1.1-3.6-3.7V8.5H31
			c-0.1,0-0.2-0.1-0.2-0.2V5.7c0-0.2,0-0.2,0.2-0.2h1.6c0-1.1,0.1-2.1,0.3-3.2c0-0.1,0.1-0.2,0.2-0.2l3-0.4c0.1,0,0.2,0,0.2,0.1
			c-0.1,0.8-0.1,2.3-0.1,3.6h2.4c0.2,0,0.2,0.1,0.2,0.2v2.6c0,0.1,0,0.2-0.2,0.2h-2.4v5.6c0,1.1,0.3,1.7,1.4,1.7
			c0.3,0,0.6,0,0.9-0.1c0.1,0,0.2,0,0.2,0.2L38.6,18z"/>
		<path class="st0" d="M50,0c0.2,0,0.3,0,0.3,0.2v5.3c0.7-0.2,1.4-0.3,2.2-0.3c3.3-0.2,6.1,2.4,6.2,5.6c0,0.2,0,0.4,0,0.6
			c0,4.9-3.8,7.3-7.8,7.3c-1.4,0-2.8-0.2-4.1-0.6c-0.1,0-0.2-0.2-0.2-0.3V0.2C46.6,0,46.7,0,46.8,0H50z M51.8,8.3
			c-0.5,0-1,0.1-1.5,0.2v7c0.3,0.1,0.7,0.1,1,0.1c2,0.1,3.6-1.5,3.7-3.4c0-0.2,0-0.3,0-0.5C55,9.4,53.6,8.3,51.8,8.3z"/>
		<path class="st0" d="M71.2,15.5c0,0.7,0,1.2,0.1,1.9c0,0,0,0.1-0.1,0.1c-1.8,0.8-3.7,1.2-5.7,1.2c-2.9,0-5.2-1.3-5.2-4.3
			c0-2.8,2.4-4.2,5.9-4.2c0.5,0,1,0,1.5,0V10c0-0.5-0.3-1.6-2.5-1.6c-1.2,0-2.4,0.2-3.4,0.7c-0.1,0-0.2,0-0.2,0c0,0,0-0.1,0-0.1V6.3
			c0-0.1,0.1-0.2,0.2-0.3c1.3-0.6,2.7-0.8,4.1-0.8c3.8,0,5.4,2.3,5.4,5.3L71.2,15.5z M67.6,12.9c-0.4-0.1-0.9-0.1-1.3-0.1
			c-1.8,0-2.6,0.6-2.6,1.5s0.6,1.6,2.3,1.6c0.5,0,1.1-0.1,1.6-0.2V12.9z"/>
		<path class="st0" d="M83.3,18.1c0,0.1,0,0.2-0.1,0.2c-0.9,0.3-1.9,0.5-2.9,0.4c-4.2,0-6.9-2.8-6.9-6.7s2.9-6.8,7.4-6.8
			c0.8,0,1.6,0.1,2.4,0.3c0.1,0.1,0.2,0.1,0.2,0.3v2.7c0,0.2-0.1,0.2-0.2,0.2c-0.7-0.2-1.4-0.3-2.2-0.3c-2.2,0-3.8,1.2-3.8,3.5
			c0,2.7,2,3.6,3.8,3.6c0.7,0,1.5-0.1,2.2-0.2c0.2,0,0.2,0,0.2,0.1L83.3,18.1z"/>
		<path class="st0" d="M97.3,5.5c0.2,0,0.3,0.1,0.2,0.3c-0.8,1-3.9,4.4-4.9,5.5c0,0,0,0.1,0,0.1c1.5,1.9,4,4.9,5.6,6.8
			c0.1,0.1,0,0.2-0.1,0.2h-4.1c-0.2,0-0.2-0.1-0.3-0.2c-0.8-1-3-3.9-4.3-5.5v5.5c0,0.2,0,0.3-0.2,0.3h-3.1c-0.2,0-0.3-0.1-0.3-0.3
			v-18c0-0.1,0-0.2,0.3-0.2H89c0.1,0,0.2,0,0.2,0.2v10.7c1.3-1.6,3.8-4.5,4.3-5.2c0.1-0.1,0.2-0.2,0.4-0.2L97.3,5.5z"/>
		<path class="st0" d="M116.9,11.9c0,4.1-2.7,6.8-6.4,6.8c-4.4,0-6.4-3.4-6.4-6.7c0-3.7,2.5-6.7,6.5-6.7
			C114.8,5.2,116.9,8.4,116.9,11.9z M107.8,11.9c0,2.3,1.1,3.7,2.8,3.7c1.5,0,2.7-1.3,2.7-3.7c0-2-0.8-3.7-2.8-3.7
			C108.9,8.3,107.8,9.6,107.8,11.9L107.8,11.9z"/>
		<path class="st0" d="M119.3,8.5c0-0.9,0-2.2-0.1-2.8c0-0.1,0-0.2,0.2-0.2h2.7c0.1,0,0.3,0.1,0.3,0.2c0.1,0.3,0.2,0.6,0.2,0.9
			c1-0.9,2.3-1.3,3.7-1.3c2,0,4.4,1,4.4,5.2v7.7c0,0.1-0.1,0.2-0.2,0.2h-3.1c-0.2,0-0.3-0.1-0.3-0.2v-7.4c0-1.6-0.7-2.4-2-2.4
			c-0.8,0-1.6,0.3-2.2,0.8v9c0,0.1-0.1,0.2-0.2,0.2c0,0,0,0,0,0h-3.2c-0.2,0-0.2-0.1-0.2-0.2L119.3,8.5z"/>
		<path class="st0" d="M146.1,18c0,0.1,0,0.3-0.2,0.3c-0.7,0.3-1.5,0.4-2.3,0.4c-2.3,0-3.6-1.1-3.6-3.7V8.5h-1.6
			c-0.2,0-0.2-0.1-0.2-0.2V5.7c0-0.2,0.1-0.2,0.2-0.2h1.6c0-1.1,0.1-2.1,0.3-3.2c0-0.1,0.1-0.2,0.2-0.2l3-0.4c0.1,0,0.2,0,0.2,0.1
			c-0.1,0.8-0.1,2.3-0.1,3.6h2.4c0.2,0,0.2,0.1,0.2,0.2v2.6c0,0.1-0.1,0.2-0.2,0.2h-2.4v5.6c0,1.1,0.3,1.7,1.4,1.7
			c0.3,0,0.6,0,0.9-0.1c0.1,0,0.2,0,0.2,0.2L146.1,18z"/>
		<path class="st0" d="M151.9,18.2c0,0.2-0.1,0.2-0.2,0.2h-3.2c-0.1,0-0.2-0.1-0.2-0.2c0,0,0,0,0,0v-18c0-0.1,0-0.2,0.2-0.2h3.2
			c0.2,0,0.2,0,0.2,0.2v6.1c1-0.7,2.2-1.1,3.4-1.1c2,0,4.4,1,4.4,5.2v7.7c0,0.1,0,0.2-0.2,0.2h-3.1c-0.2,0-0.3-0.1-0.3-0.2v-7.4
			c0-1.6-0.7-2.5-2.1-2.5c-0.8,0-1.5,0.2-2.1,0.7L151.9,18.2z"/>
		<path class="st0" d="M165.8,12.9c0.1,1.5,1.2,2.7,3.7,2.7c1.1,0,2.2-0.2,3.2-0.6c0.1,0,0.1,0,0.1,0.1v2.5c0,0.2,0,0.3-0.2,0.3
			c-1.3,0.6-2.6,0.8-4,0.8c-4.9,0-6.6-3.4-6.6-6.6c0-3.6,2.2-6.9,6.3-6.9s5.5,3,5.5,5.6c0,0.6,0,1.2-0.1,1.8c0,0.1-0.1,0.2-0.2,0.2
			c-0.9,0.1-1.8,0.1-2.7,0.1H165.8z M169.2,10.4c0.4,0,0.9,0,1.3-0.1v-0.2c0-1.2-1-2.1-2.2-2.1c0,0,0,0,0,0c-1.3,0-2.4,1-2.5,2.3
			H169.2z"/>
	</g>
	<g>
		<path class="st0" d="M5.6,38.1C4.4,38.1,4,38.6,4,39s0.3,0.8,1.8,1.3C9,41.5,10,42.7,10,44.6c0,2.5-1.9,4.1-5.3,4.1
			c-1.3,0.1-2.6-0.2-3.8-0.7c-0.1-0.1-0.2-0.2-0.2-0.3v-2.8c0-0.2,0.1-0.2,0.2-0.2c1.2,0.7,2.5,1,3.8,1c1.2,0,1.8-0.3,1.8-0.9
			s-0.4-0.9-2-1.4c-2.9-1-3.9-2.3-3.9-4.2c0-2,1.6-4,5.1-4c1.2-0.1,2.3,0.1,3.4,0.5c0.1,0.1,0.2,0.2,0.2,0.3v2.6
			c0,0.2-0.1,0.3-0.3,0.2C7.9,38.4,6.8,38.1,5.6,38.1z"/>
		<path class="st0" d="M22.5,45.5c0,0.6,0,1.3,0.1,1.9c0,0,0,0.1-0.1,0.1c-1.8,0.8-3.7,1.2-5.7,1.2c-2.9,0-5.3-1.3-5.3-4.3
			c0-2.8,2.4-4.2,5.9-4.2c0.5,0,1,0,1.5,0V40c0-0.5-0.3-1.6-2.5-1.6c-1.2,0-2.3,0.2-3.4,0.7c-0.1,0-0.2,0-0.2-0.1c0,0,0,0,0-0.1
			v-2.6c0-0.1,0.1-0.2,0.2-0.3c1.3-0.6,2.7-0.8,4.1-0.8c3.7,0,5.4,2.3,5.4,5.3V45.5z M19,42.9c-0.4-0.1-0.9-0.1-1.3-0.1
			c-1.8,0-2.6,0.6-2.6,1.5s0.6,1.6,2.3,1.6c0.5,0,1.1-0.1,1.6-0.2L19,42.9z"/>
		<path class="st0" d="M25.9,48.4c-0.2,0-0.2-0.1-0.2-0.2v-9.9c0-1-0.1-2.1-0.1-2.6c0-0.2,0.1-0.2,0.2-0.2h2.8
			c0.1,0,0.2,0.1,0.3,0.2c0.1,0.3,0.2,0.7,0.2,1c1-0.9,2.4-1.4,3.7-1.4c1.3-0.1,2.6,0.5,3.3,1.7c1.2-1.1,2.7-1.6,4.2-1.7
			c2.3,0,4.5,1.2,4.5,5.2v7.8c0,0.1-0.1,0.2-0.2,0.2c0,0,0,0-0.1,0h-3.1c-0.2,0-0.3-0.1-0.3-0.2v-7.5c0-1.3-0.5-2.4-2-2.4
			c-0.8,0-1.6,0.3-2.2,0.8c0.1,0.5,0.1,1,0.1,1.5v7.5c0,0.1,0,0.2-0.2,0.2h-3.1c-0.2,0-0.3,0-0.3-0.2v-7.5c0-1.6-0.7-2.3-2-2.3
			c-0.8,0-1.5,0.3-2.1,0.7v9.1c0,0.1,0,0.2-0.2,0.2H25.9z"/>
		<path class="st0" d="M50.7,42.9c0.1,1.5,1.2,2.7,3.7,2.7c1.1,0,2.2-0.2,3.2-0.6c0.1,0,0.2,0,0.2,0.1v2.5c0,0.2,0,0.3-0.2,0.3
			c-1.3,0.6-2.6,0.8-4,0.8c-4.9,0-6.6-3.3-6.6-6.6c0-3.6,2.2-6.9,6.3-6.9c3.9,0,5.5,3,5.5,5.6c0,0.6,0,1.2-0.1,1.8
			c0,0.1-0.1,0.2-0.2,0.2l0,0c-0.9,0.1-1.8,0.1-2.7,0.1L50.7,42.9z M54.1,40.4c0.4,0,0.9,0,1.3-0.1v-0.2c-0.1-1.2-1-2.1-2.2-2
			c-1.3,0-2.4,1-2.5,2.2H54.1z"/>
		<path class="st0" d="M79.1,41.6c0,4.8-3.9,7.1-8,7.1c-0.2,0-0.3,0-0.5,0v4.4c0,0.1,0,0.2-0.2,0.2c-1.1,0.1-3.1,0.3-3.2,0.3
			s-0.2,0-0.2-0.2V38.2c0-0.4,0-1.3-0.1-1.7c0-0.1,0-0.1,0.1-0.1c1.8-0.7,3.6-1,5.5-1.1C77,35.3,79.1,38.3,79.1,41.6z M70.6,38.6
			v7.1c0.3,0,0.6,0.1,0.8,0c2,0.1,3.8-1.4,3.9-3.4c0-0.1,0-0.3,0-0.4c0-2.2-1.2-3.5-3.2-3.5C71.7,38.3,71.1,38.4,70.6,38.6
			L70.6,38.6z"/>
		<path class="st0" d="M91.5,45.5c0,0.7,0,1.2,0.1,1.8c0,0,0,0.1-0.1,0.1c-1.8,0.8-3.7,1.2-5.7,1.2c-2.9,0-5.3-1.3-5.3-4.3
			c0-2.8,2.4-4.2,5.9-4.2c0.5,0,1,0,1.5,0V40c0-0.5-0.3-1.6-2.5-1.6c-1.2,0-2.3,0.2-3.4,0.7c-0.1,0-0.2,0-0.2,0c0,0,0-0.1,0-0.1
			v-2.6c0-0.1,0.1-0.2,0.2-0.3c1.3-0.6,2.7-0.8,4.1-0.8c3.8,0,5.4,2.3,5.4,5.3L91.5,45.5z M88,42.9c-0.4-0.1-0.9-0.1-1.3-0.1
			c-1.8,0-2.6,0.6-2.6,1.5s0.7,1.6,2.3,1.6c0.5,0,1.1-0.1,1.6-0.2V42.9z"/>
		<path class="st0" d="M101.1,45.4c3.7,0.2,5.1,1.7,5.1,3.8c0,2.7-2.7,4.9-6.8,4.9c-4.3,0-6.2-2.2-6.2-4c0-0.8,0.7-1.9,2.4-3.3
			c-0.4-0.6-0.6-1.3-0.5-2c0-0.6,0.2-1.2,0.5-1.7c-1.2-0.7-1.8-2-1.8-3.4c0-2.5,1.9-4.4,5.3-4.4c0.8,0,1.7,0.1,2.5,0.2
			c0.2,0,0.4,0,0.6,0h3.6c0.1,0,0.2,0,0.2,0.2v2.4c0,0.1,0,0.2-0.2,0.2c-0.4,0-1.3-0.1-1.8-0.1c0.3,0.5,0.4,1.1,0.4,1.7
			c0,2.8-2.3,4.1-5.2,4.1c-0.3,0-0.6,0-0.9,0c-0.1,0.2-0.1,0.5,0,0.7c0,0.2,0.1,0.5,0.3,0.7L101.1,45.4z M97.4,48.3
			c-0.5,0.3-0.8,0.8-1,1.4c0,0.8,1.2,1.7,3.2,1.7c2.3,0,3.3-0.8,3.3-1.7s-1.2-1.2-2.6-1.3L97.4,48.3z M97.1,39.6
			c-0.1,0.9,0.6,1.7,1.6,1.8c0.1,0,0.2,0,0.3,0c0.9,0.1,1.7-0.5,1.8-1.4c0-0.1,0-0.2,0-0.3c0-1-0.8-1.8-1.8-1.9S97.1,38.7,97.1,39.6
			L97.1,39.6z"/>
		<path class="st0" d="M110.4,42.9c0.1,1.5,1.2,2.7,3.7,2.7c1.1,0,2.2-0.2,3.2-0.6c0.1,0,0.2,0,0.2,0.1v2.5c0,0.2,0,0.3-0.2,0.3
			c-1.3,0.6-2.6,0.8-4,0.8c-4.9,0-6.6-3.3-6.6-6.6c0-3.6,2.2-6.9,6.3-6.9c3.9,0,5.5,3,5.5,5.6c0,0.6,0,1.2-0.1,1.8
			c0,0.1-0.1,0.2-0.2,0.2c-0.9,0.1-1.8,0.1-2.7,0.1L110.4,42.9z M113.8,40.4c0.4,0,0.9,0,1.3-0.1v-0.2c-0.1-1.2-1-2.1-2.2-2
			c-1.3,0-2.4,1-2.5,2.3L113.8,40.4z"/>
		<path class="st0" d="M137.2,48.4c-0.2,0-0.3-0.1-0.3-0.2c-1.3-5.3-1.7-7.7-2-9l0,0c-0.6,2.9-1.2,5-2.3,9c-0.1,0.2-0.1,0.2-0.3,0.2
			h-3.3c-0.3,0-0.3,0-0.4-0.2l-3.4-12.5c-0.1-0.1,0-0.2,0.2-0.2h3.3c0.2,0,0.2,0,0.2,0.2c1.4,5.6,1.8,8.1,1.9,9.2h0.1
			c0.2-0.9,0.6-3.4,2.1-9.1c0-0.2,0.1-0.2,0.2-0.2h3.4c0.1,0,0.2,0,0.2,0.2c1.4,5.8,1.7,8.3,1.9,9.3l0,0c0.4-1.7,0.8-4.5,2-9.3
			c0-0.1,0.1-0.2,0.2-0.2h3c0.1,0,0.2,0.1,0.2,0.2l-3.7,12.5c0,0.2-0.1,0.2-0.3,0.2L137.2,48.4z"/>
		<path class="st0" d="M146.1,32.1c0-1.1,0.9-2,2-2c1-0.1,1.9,0.7,2,1.8c0,0.1,0,0.2,0,0.2c0,1.1-0.9,2-2,2S146.1,33.2,146.1,32.1z
			 M146.3,35.7c0-0.1,0-0.2,0.2-0.2h3.2c0.2,0,0.2,0,0.2,0.2v12.5c0,0.2,0,0.2-0.2,0.2h-3.1c-0.2,0-0.3-0.1-0.3-0.2L146.3,35.7z"/>
		<path class="st0" d="M159.7,48c0,0.2,0,0.3-0.2,0.3c-0.7,0.3-1.5,0.4-2.3,0.4c-2.3,0-3.6-1.1-3.6-3.7v-6.5H152
			c-0.1,0-0.2-0.1-0.2-0.2v-2.5c0-0.2,0.1-0.2,0.2-0.2h1.6c0-1.1,0.1-2.1,0.3-3.2c0-0.1,0.1-0.2,0.2-0.2l3-0.4c0.1,0,0.2,0,0.2,0.2
			c-0.1,0.8-0.1,2.3-0.1,3.6h2.4c0.2,0,0.2,0,0.2,0.2v2.6c0,0.1-0.1,0.2-0.2,0.2h-2.4v5.6c0,1.1,0.3,1.7,1.4,1.7
			c0.3,0,0.6,0,0.9-0.1c0.1,0,0.2,0,0.2,0.2L159.7,48z"/>
		<path class="st0" d="M165.5,48.2c0,0.2-0.1,0.2-0.2,0.2h-3.2c-0.2,0-0.2-0.1-0.2-0.2v-18c0-0.1,0-0.2,0.2-0.2h3.2
			c0.2,0,0.2,0,0.2,0.2v6.1c1-0.7,2.2-1.1,3.4-1.1c2,0,4.4,1,4.4,5.2v7.7c0,0.2,0,0.2-0.2,0.2h-3.2c-0.2,0-0.3-0.1-0.3-0.2v-7.4
			c0-1.6-0.7-2.5-2.1-2.5c-0.8,0-1.5,0.2-2.1,0.7L165.5,48.2z"/>
	</g>
	<g>
		<path class="st0" d="M4.8,74.4l-1.2,3.8c0,0.1-0.1,0.2-0.3,0.2h-3C0,78.4,0,78.3,0,78.2l5.2-15c0.2-0.5,0.3-1,0.3-1.6
			c0-0.1,0.1-0.1,0.1-0.2h4.2c0.1,0,0.2,0,0.2,0.2l5.9,16.6c0.1,0.1,0,0.2-0.1,0.2h-3.4c-0.1,0-0.3-0.1-0.3-0.2l-1.3-3.9L4.8,74.4z
			 M9.8,71.1c-0.5-1.7-1.5-4.9-2-6.7l0,0c-0.4,1.7-1.3,4.6-2,6.7L9.8,71.1z"/>
		<path class="st0" d="M26.6,78.1c0,0.1,0,0.2-0.1,0.2c-0.9,0.3-1.9,0.5-2.9,0.4c-4.2,0-6.9-2.8-6.9-6.7s2.9-6.8,7.4-6.8
			c0.8,0,1.6,0.1,2.4,0.3c0.1,0.1,0.1,0.1,0.1,0.3v2.7c0,0.2-0.1,0.2-0.2,0.2c-0.7-0.2-1.4-0.3-2.2-0.3c-2.2,0-3.8,1.2-3.8,3.5
			c0,2.7,2,3.6,3.8,3.6c0.7,0,1.5-0.1,2.2-0.2c0.1,0,0.2,0,0.2,0.1L26.6,78.1z"/>
		<path class="st0" d="M31.6,65.5c0.1,0,0.3,0.1,0.3,0.2c0.2,0.5,0.3,1,0.3,1.5c1-1.2,2.5-2,4.1-2c0.2,0,0.2,0.1,0.2,0.2v3.2
			c0,0.1,0,0.2-0.2,0.2c-1.4-0.2-2.8,0.2-3.9,1.1v8.3c0,0.2,0,0.2-0.2,0.2H29c-0.2,0-0.3-0.1-0.3-0.2v-9c0-1.1,0-2.6-0.1-3.5
			c0-0.1,0-0.2,0.2-0.2L31.6,65.5z"/>
		<path class="st0" d="M50.5,71.9c0,4.1-2.7,6.8-6.4,6.8c-4.5,0-6.4-3.3-6.4-6.7c0-3.7,2.5-6.7,6.5-6.7
			C48.4,65.3,50.5,68.4,50.5,71.9z M41.4,71.9c0,2.3,1.1,3.7,2.8,3.7c1.5,0,2.7-1.3,2.7-3.7c0-2-0.8-3.7-2.8-3.7
			C42.5,68.3,41.4,69.6,41.4,71.9L41.4,71.9z"/>
		<path class="st0" d="M56.2,60c0.2,0,0.3,0,0.3,0.2v5.3c0.7-0.2,1.4-0.3,2.2-0.3c3.3-0.2,6.1,2.3,6.3,5.6c0,0.2,0,0.4,0,0.6
			c0,4.9-3.8,7.3-7.8,7.3c-1.4,0-2.8-0.2-4.1-0.6c-0.1-0.1-0.2-0.2-0.2-0.3V60.2c0-0.1,0-0.2,0.2-0.2H56.2z M58,68.3
			c-0.5,0-1,0.1-1.5,0.2v7c0.3,0.1,0.7,0.1,1,0.1c2,0.1,3.7-1.4,3.8-3.3c0-0.2,0-0.4,0-0.6C61.2,69.4,59.9,68.3,58,68.3z"/>
		<path class="st0" d="M77.4,75.5c0,0.6,0,1.3,0.1,1.9c0,0.1,0,0.1-0.1,0.1c-1.8,0.8-3.7,1.2-5.7,1.2c-2.9,0-5.3-1.3-5.3-4.3
			c0-2.8,2.4-4.2,5.9-4.2c0.5,0,1,0,1.5,0.1V70c0-0.5-0.3-1.6-2.5-1.6c-1.2,0-2.3,0.2-3.4,0.7c-0.1,0-0.2,0-0.2-0.1c0,0,0,0,0-0.1
			v-2.7c0-0.1,0.1-0.2,0.2-0.3c1.3-0.6,2.7-0.8,4.1-0.8c3.7,0,5.4,2.3,5.4,5.3L77.4,75.5z M73.9,72.9c-0.4-0.1-0.9-0.1-1.3-0.1
			c-1.8,0-2.6,0.6-2.6,1.5s0.7,1.6,2.3,1.6c0.5,0,1.1-0.1,1.6-0.2V72.9z"/>
		<path class="st0" d="M86.8,78c0,0.2,0,0.3-0.2,0.3c-0.7,0.3-1.5,0.4-2.3,0.4c-2.3,0-3.6-1.1-3.6-3.7v-6.4h-1.6
			c-0.2,0-0.2-0.1-0.2-0.2v-2.5c0-0.2,0.1-0.2,0.2-0.2h1.6c0-1.1,0.1-2.1,0.3-3.1c0-0.1,0.1-0.2,0.2-0.2l3-0.4c0.1,0,0.2,0,0.2,0.2
			c-0.1,0.8-0.1,2.3-0.1,3.6h2.4c0.2,0,0.2,0,0.2,0.2v2.6c0,0.1,0,0.2-0.2,0.2h-2.4v5.6c0,1.1,0.3,1.7,1.4,1.7c0.3,0,0.6,0,0.9-0.1
			c0.1,0,0.2,0,0.2,0.2V78z"/>
		<path class="st0" d="M95.1,61.6c0-0.2,0-0.2,0.2-0.2c1.1,0,3.1-0.1,5.1-0.1c5.3,0,7.1,2.9,7.1,5.7c0,4.2-3.3,6-7.3,6h-1.5v5.1
			c0,0.1,0,0.2-0.2,0.2h-3.2c-0.1,0-0.2-0.1-0.2-0.2L95.1,61.6z M98.7,69.9c0.4,0,0.7,0,1.5,0c2,0,3.7-0.6,3.7-2.8
			c0-1.6-1.1-2.7-3.4-2.7c-0.8,0-1.5,0-1.8,0.1L98.7,69.9z"/>
		<path class="st0" d="M112.4,65.5c0.1,0,0.3,0.1,0.3,0.2c0.2,0.5,0.3,1,0.3,1.5c1-1.2,2.5-2,4.1-2c0.2,0,0.2,0.1,0.2,0.2v3.2
			c0,0.1,0,0.2-0.2,0.2c-1.4-0.2-2.8,0.2-3.9,1.1v8.3c0,0.2,0,0.2-0.2,0.2h-3.1c-0.2,0-0.3-0.1-0.3-0.2v-9c0-1.1,0-2.6-0.1-3.5
			c0-0.1,0-0.2,0.2-0.2L112.4,65.5z"/>
		<path class="st0" d="M131.3,71.9c0,4.1-2.7,6.8-6.4,6.8c-4.4,0-6.4-3.3-6.4-6.7c0-3.7,2.5-6.7,6.5-6.7
			C129.2,65.3,131.3,68.4,131.3,71.9z M122.2,71.9c0,2.3,1.1,3.7,2.8,3.7c1.5,0,2.7-1.3,2.7-3.7c0-2-0.8-3.7-2.8-3.7
			C123.3,68.3,122.2,69.6,122.2,71.9L122.2,71.9z"/>
		<path class="st0" d="M139.9,61.6c0-0.1,0-0.2,0.2-0.2c0.8,0,2.8-0.1,5.1-0.1c6.2,0,9.3,3.5,9.3,8.3c0,6.2-4.8,8.8-9.2,8.8
			c-1.7,0-4.3,0-5.1,0c-0.1,0-0.1-0.1-0.1-0.3V61.6z M143.5,75.3c0.5,0,0.9,0.1,1.5,0.1c3.4,0,5.6-2.1,5.6-5.7s-2.2-5.2-5.6-5.2
			c-0.6,0-1,0-1.6,0V75.3z"/>
		<path class="st0" d="M169.2,77.9c0,0.2-0.1,0.3-0.2,0.4c-1.2,0.3-2.4,0.5-3.6,0.5c-5,0-9-3-9-8.7c0-5.3,3.6-8.9,9.4-8.9
			c1.1-0.1,2.3,0.1,3.4,0.4c0.1,0,0.2,0.2,0.2,0.3v2.8c0,0.2-0.1,0.2-0.2,0.2c-1.1-0.4-2.2-0.6-3.4-0.6c-3.5,0-5.6,2.2-5.6,5.5
			c0,4,3,5.6,5.7,5.6c1.1,0,2.2-0.1,3.2-0.4c0.1-0.1,0.2,0,0.2,0.1L169.2,77.9z"/>
		<path class="st0" d="M171.9,76.5c-0.1-1.2,0.8-2.2,2-2.3c1.2-0.1,2.2,0.8,2.3,2c0,0.1,0,0.2,0,0.3c0.1,1.1-0.7,2.1-1.8,2.2
			c-0.1,0-0.2,0-0.4,0c-1.1,0.1-2.1-0.7-2.2-1.8C171.9,76.7,171.9,76.6,171.9,76.5z"/>
	</g>
</g>
</svg>
