<svg id="Layer_1" data-name="Layer 1" xmlns="http://www.w3.org/2000/svg" viewBox="0 0 176.21 209.6"><defs><style>.cls-1{fill:#fff;}.cls-2,.cls-3{fill:none;}.cls-3{stroke:#fff;stroke-width:2px;}</style></defs><path class="cls-1" d="M19.3,169.4H30v25.7Z"/><path class="cls-1" d="M11.7,169.4H.9v25.7Z"/><path class="cls-1" d="M15.5,178.9l6.8,16.2H17.8l-2.1-5.2h-5Z"/><path class="cls-1" d="M4.7,205.4c-.2-1.1-.6-2.6-.7-3.6H4c-.2,1-.4,2.4-.7,3.6ZM3,207l-.5,2.2c0,.1,0,.1-.1.1H1.1c-.1,0-.1,0-.1-.1l1.9-8.1a1.1,1.1,0,0,0,0-.8.1.1,0,0,1,.1-.1H5c.1,0,.1,0,.1.1l2.2,8.9c0,.1,0,.1-.1.1H5.6c-.1,0-.1,0-.1-.1h0L5,207Z"/><path class="cls-1" d="M10.8,203.7h-.3c-.8,0-1.4.7-1.4,2.1s.6,2.1,1.4,2.1h.3Zm-3.3,2.1c0-2.1,1.2-3.7,3.2-3.7h.2v-2.4a.1.1,0,0,1,.1-.1h1.5c.1,0,.1,0,.1.1v9a.1.1,0,0,1-.1.1,4.65,4.65,0,0,1-2.1.5C8.7,209.4,7.5,208.3,7.5,205.8Z"/><path class="cls-1" d="M15.1,205.8c0,1.3.3,2.2.9,2.2s.9-.7.9-2.2-.2-2.1-.9-2.1S15.1,204.3,15.1,205.8Zm3.5,0c0,2.2-.9,3.6-2.6,3.6-1.9,0-2.6-1.6-2.6-3.7s.9-3.6,2.6-3.6,2.6,1.4,2.6,3.7Z"/><path class="cls-1" d="M21.7,203.7a.9.9,0,0,0-.5.1V208h.3c.6,0,1.4-.6,1.4-2.4C22.9,204.2,22.3,203.7,21.7,203.7Zm-.6-4h0l.1,2.6a2,2,0,0,1,.8-.1c1.5,0,2.6,1.1,2.6,3.3,0,2.6-1.5,3.9-3.3,3.9a4.15,4.15,0,0,1-1.6-.3l-.1-.1v-9.4h0l1.5.1Z"/><path class="cls-1" d="M28,204.9h.4v-.1c0-.5-.2-1.1-.8-1.1s-.8.6-.9,1.3Zm-1.2,1.3c0,1.1.4,1.8,1.5,1.8a4.25,4.25,0,0,0,1.1-.2c.1,0,.1,0,.1.1v1.2c0,.1,0,.2-.1.2a3.19,3.19,0,0,1-1.4.3c-2.1,0-2.9-1.5-2.9-3.5s.9-3.7,2.6-3.7S30,204,30,205.2v1.1a.1.1,0,0,1-.1.1H28.6Z"/><path class="cls-1" d="M9.3,11.8c-.2,0-.2-.1-.2-.2V8.9a.22.22,0,0,1,.2-.2h6c.2,0,.2,0,.2.2v8.6c0,.1,0,.2-.2.3a16,16,0,0,1-5.3.9C3.8,18.7.8,14.8.8,10c0-5.4,3.8-8.9,9.7-8.9a10,10,0,0,1,4.2.6c.1,0,.2.1.2.3V4.8c0,.2-.1.2-.2.1a9.68,9.68,0,0,0-4.1-.8c-4,.2-6,2.3-6,5.8a5.18,5.18,0,0,0,4.8,5.6h.8a4.14,4.14,0,0,0,1.6-.2V11.9Z"/><path class="cls-1" d="M21.5,12.9c.1,1.5,1.2,2.7,3.7,2.7a8.66,8.66,0,0,0,3.2-.6c.1,0,.2,0,.2.1v2.5c0,.1-.1.3-.2.3a9.24,9.24,0,0,1-4,.8c-4.9,0-6.6-3.4-6.6-6.6,0-3.6,2.2-6.9,6.3-6.9s5.5,3,5.5,5.6a10.87,10.87,0,0,1-.1,1.8.22.22,0,0,1-.2.2,24.37,24.37,0,0,1-2.7.1Zm3.4-2.5a5.7,5.7,0,0,0,1.3-.1v-.2A2.11,2.11,0,0,0,24.1,8H24a2.51,2.51,0,0,0-2.5,2.3h3.4Z"/><path class="cls-1" d="M38.6,18c0,.1,0,.3-.2.3a5.87,5.87,0,0,1-2.3.4c-2.3,0-3.6-1.1-3.6-3.7V8.5H31a.22.22,0,0,1-.2-.2V5.7c0-.2,0-.2.2-.2h1.6a17.33,17.33,0,0,1,.3-3.2.22.22,0,0,1,.2-.2l3-.4c.1,0,.2,0,.2.1-.1.8-.1,2.3-.1,3.6h2.4c.2,0,.2.1.2.2V8.2c0,.1,0,.2-.2.2H36.2V14c0,1.1.3,1.7,1.4,1.7a2.77,2.77,0,0,0,.9-.1c.1,0,.2,0,.2.2Z"/><path class="cls-1" d="M50,0c.2,0,.3,0,.3.2V5.5a7.8,7.8,0,0,1,2.2-.3,5.86,5.86,0,0,1,6.2,5.6v.6c0,4.9-3.8,7.3-7.8,7.3a14,14,0,0,1-4.1-.6c-.1,0-.2-.2-.2-.3V.2c0-.2.1-.2.2-.2Zm1.8,8.3a7.72,7.72,0,0,0-1.5.2v7a3.4,3.4,0,0,0,1,.1A3.57,3.57,0,0,0,55,12.2v-.5A3.05,3.05,0,0,0,51.8,8.3Z"/><path class="cls-1" d="M71.2,15.5a12.1,12.1,0,0,0,.1,1.9.1.1,0,0,1-.1.1,13.88,13.88,0,0,1-5.7,1.2c-2.9,0-5.2-1.3-5.2-4.3,0-2.8,2.4-4.2,5.9-4.2h1.5V10c0-.5-.3-1.6-2.5-1.6a7.67,7.67,0,0,0-3.4.7h-.2V6.3c0-.1.1-.2.2-.3a9.68,9.68,0,0,1,4.1-.8c3.8,0,5.4,2.3,5.4,5.3Zm-3.6-2.6a5.7,5.7,0,0,0-1.3-.1c-1.8,0-2.6.6-2.6,1.5s.6,1.6,2.3,1.6a8.75,8.75,0,0,0,1.6-.2Z"/><path class="cls-1" d="M83.3,18.1c0,.1,0,.2-.1.2a7,7,0,0,1-2.9.4c-4.2,0-6.9-2.8-6.9-6.7s2.9-6.8,7.4-6.8a9.86,9.86,0,0,1,2.4.3c.1.1.2.1.2.3V8.5c0,.2-.1.2-.2.2A7.8,7.8,0,0,0,81,8.4c-2.2,0-3.8,1.2-3.8,3.5,0,2.7,2,3.6,3.8,3.6a16.35,16.35,0,0,0,2.2-.2c.2,0,.2,0,.2.1Z"/><path class="cls-1" d="M97.3,5.5c.2,0,.3.1.2.3-.8,1-3.9,4.4-4.9,5.5v.1c1.5,1.9,4,4.9,5.6,6.8.1.1,0,.2-.1.2H94c-.2,0-.2-.1-.3-.2-.8-1-3-3.9-4.3-5.5v5.5c0,.2,0,.3-.2.3H86.1a.27.27,0,0,1-.3-.3V.2c0-.1,0-.2.3-.2H89c.1,0,.2,0,.2.2V10.9c1.3-1.6,3.8-4.5,4.3-5.2a.52.52,0,0,1,.4-.2Z"/><path class="cls-1" d="M116.9,11.9c0,4.1-2.7,6.8-6.4,6.8-4.4,0-6.4-3.4-6.4-6.7a6.35,6.35,0,0,1,6.5-6.7C114.8,5.2,116.9,8.4,116.9,11.9Zm-9.1,0c0,2.3,1.1,3.7,2.8,3.7,1.5,0,2.7-1.3,2.7-3.7,0-2-.8-3.7-2.8-3.7-1.6.1-2.7,1.4-2.7,3.7Z"/><path class="cls-1" d="M119.3,8.5a23.52,23.52,0,0,0-.1-2.8c0-.1,0-.2.2-.2h2.7c.1,0,.3.1.3.2a2.92,2.92,0,0,1,.2.9,5.41,5.41,0,0,1,3.7-1.3c2,0,4.4,1,4.4,5.2v7.7a.22.22,0,0,1-.2.2h-3.1c-.2,0-.3-.1-.3-.2V10.8c0-1.6-.7-2.4-2-2.4a3.49,3.49,0,0,0-2.2.8v9a.22.22,0,0,1-.2.2h-3.2c-.2,0-.2-.1-.2-.2Z"/><path class="cls-1" d="M146.1,18c0,.1,0,.3-.2.3a5.87,5.87,0,0,1-2.3.4c-2.3,0-3.6-1.1-3.6-3.7V8.5h-1.6c-.2,0-.2-.1-.2-.2V5.7c0-.2.1-.2.2-.2H140a17.33,17.33,0,0,1,.3-3.2.22.22,0,0,1,.2-.2l3-.4c.1,0,.2,0,.2.1-.1.8-.1,2.3-.1,3.6H146c.2,0,.2.1.2.2V8.2a.22.22,0,0,1-.2.2h-2.4V14c0,1.1.3,1.7,1.4,1.7a2.77,2.77,0,0,0,.9-.1c.1,0,.2,0,.2.2Z"/><path class="cls-1" d="M151.9,18.2c0,.2-.1.2-.2.2h-3.2a.22.22,0,0,1-.2-.2h0V.2c0-.1,0-.2.2-.2h3.2c.2,0,.2,0,.2.2V6.3a6,6,0,0,1,3.4-1.1c2,0,4.4,1,4.4,5.2v7.7c0,.1,0,.2-.2.2h-3.1c-.2,0-.3-.1-.3-.2V10.7c0-1.6-.7-2.5-2.1-2.5a3.14,3.14,0,0,0-2.1.7Z"/><path class="cls-1" d="M165.8,12.9c.1,1.5,1.2,2.7,3.7,2.7a8.66,8.66,0,0,0,3.2-.6c.1,0,.1,0,.1.1v2.5c0,.2,0,.3-.2.3a9.24,9.24,0,0,1-4,.8c-4.9,0-6.6-3.4-6.6-6.6,0-3.6,2.2-6.9,6.3-6.9s5.5,3,5.5,5.6a10.87,10.87,0,0,1-.1,1.8.22.22,0,0,1-.2.2,24.37,24.37,0,0,1-2.7.1Zm3.4-2.5a5.7,5.7,0,0,0,1.3-.1v-.2A2.14,2.14,0,0,0,168.3,8h0a2.51,2.51,0,0,0-2.5,2.3h3.4Z"/><path class="cls-1" d="M5.6,38.1c-1.2,0-1.6.5-1.6.9s.3.8,1.8,1.3C9,41.5,10,42.7,10,44.6c0,2.5-1.9,4.1-5.3,4.1A8.3,8.3,0,0,1,.9,48c-.1-.1-.2-.2-.2-.3V44.9c0-.2.1-.2.2-.2a7.46,7.46,0,0,0,3.8,1q1.8,0,1.8-.9c0-.6-.4-.9-2-1.4C1.6,42.4.6,41.1.6,39.2s1.6-4,5.1-4a7.83,7.83,0,0,1,3.4.5c.1.1.2.2.2.3v2.6c0,.2-.1.3-.3.2A9.83,9.83,0,0,0,5.6,38.1Z"/><path class="cls-1" d="M22.5,45.5a12.1,12.1,0,0,0,.1,1.9.1.1,0,0,1-.1.1,13.88,13.88,0,0,1-5.7,1.2c-2.9,0-5.3-1.3-5.3-4.3,0-2.8,2.4-4.2,5.9-4.2h1.5V40c0-.5-.3-1.6-2.5-1.6a8,8,0,0,0-3.4.7c-.1,0-.2,0-.2-.1V36.3c0-.1.1-.2.2-.3a9.68,9.68,0,0,1,4.1-.8c3.7,0,5.4,2.3,5.4,5.3ZM19,42.9a5.7,5.7,0,0,0-1.3-.1c-1.8,0-2.6.6-2.6,1.5s.6,1.6,2.3,1.6a8.75,8.75,0,0,0,1.6-.2Z"/><path class="cls-1" d="M25.9,48.4c-.2,0-.2-.1-.2-.2V38.3c0-1-.1-2.1-.1-2.6,0-.2.1-.2.2-.2h2.8c.1,0,.2.1.3.2a3.55,3.55,0,0,1,.2,1,5.68,5.68,0,0,1,3.7-1.4A3.48,3.48,0,0,1,36.1,37a6.78,6.78,0,0,1,4.2-1.7c2.3,0,4.5,1.2,4.5,5.2v7.8a.22.22,0,0,1-.2.2H41.4c-.2,0-.3-.1-.3-.2V40.8c0-1.3-.5-2.4-2-2.4a3.49,3.49,0,0,0-2.2.8,7.57,7.57,0,0,1,.1,1.5v7.5c0,.1,0,.2-.2.2H33.7c-.2,0-.3,0-.3-.2V40.7c0-1.6-.7-2.3-2-2.3a3.77,3.77,0,0,0-2.1.7v9.1c0,.1,0,.2-.2.2Z"/><path class="cls-1" d="M50.7,42.9c.1,1.5,1.2,2.7,3.7,2.7a8.66,8.66,0,0,0,3.2-.6c.1,0,.2,0,.2.1v2.5c0,.2,0,.3-.2.3a9.24,9.24,0,0,1-4,.8c-4.9,0-6.6-3.3-6.6-6.6,0-3.6,2.2-6.9,6.3-6.9a5.3,5.3,0,0,1,5.5,5.6,10.87,10.87,0,0,1-.1,1.8.22.22,0,0,1-.2.2h0a24.37,24.37,0,0,1-2.7.1Zm3.4-2.5a5.7,5.7,0,0,0,1.3-.1v-.2a2.05,2.05,0,0,0-2.2-2,2.5,2.5,0,0,0-2.5,2.2h3.4Z"/><path class="cls-1" d="M79.1,41.6c0,4.8-3.9,7.1-8,7.1h-.5v4.4c0,.1,0,.2-.2.2l-3.2.3c-.1,0-.2,0-.2-.2V38.2a9.7,9.7,0,0,0-.1-1.7c0-.1,0-.1.1-.1a17.36,17.36,0,0,1,5.5-1.1C77,35.3,79.1,38.3,79.1,41.6Zm-8.5-3v7.1c.3,0,.6.1.8,0a3.68,3.68,0,0,0,3.9-3.4v-.4c0-2.2-1.2-3.5-3.2-3.5a2.73,2.73,0,0,0-1.5.2Z"/><path class="cls-1" d="M91.5,45.5a10.28,10.28,0,0,0,.1,1.8.1.1,0,0,1-.1.1,13.88,13.88,0,0,1-5.7,1.2c-2.9,0-5.3-1.3-5.3-4.3,0-2.8,2.4-4.2,5.9-4.2h1.5V40c0-.5-.3-1.6-2.5-1.6a8,8,0,0,0-3.4.7h-.2V36.4c0-.1.1-.2.2-.3a9.68,9.68,0,0,1,4.1-.8c3.8,0,5.4,2.3,5.4,5.3ZM88,42.9a5.7,5.7,0,0,0-1.3-.1c-1.8,0-2.6.6-2.6,1.5s.7,1.6,2.3,1.6a8.75,8.75,0,0,0,1.6-.2Z"/><path class="cls-1" d="M101.1,45.4c3.7.2,5.1,1.7,5.1,3.8,0,2.7-2.7,4.9-6.8,4.9-4.3,0-6.2-2.2-6.2-4,0-.8.7-1.9,2.4-3.3a2.88,2.88,0,0,1-.5-2,3.37,3.37,0,0,1,.5-1.7,3.81,3.81,0,0,1-1.8-3.4c0-2.5,1.9-4.4,5.3-4.4a21.05,21.05,0,0,1,2.5.2h4.2c.1,0,.2,0,.2.2v2.4c0,.1,0,.2-.2.2-.4,0-1.3-.1-1.8-.1a3.29,3.29,0,0,1,.4,1.7c0,2.8-2.3,4.1-5.2,4.1h-.9a.85.85,0,0,0,0,.7,1.08,1.08,0,0,0,.3.7Zm-3.7,2.9a2.43,2.43,0,0,0-1,1.4c0,.8,1.2,1.7,3.2,1.7,2.3,0,3.3-.8,3.3-1.7s-1.2-1.2-2.6-1.3Zm-.3-8.7a1.68,1.68,0,0,0,1.6,1.8H99a1.59,1.59,0,0,0,1.8-1.4v-.3A2,2,0,0,0,99,37.8a1.88,1.88,0,0,0-1.9,1.8Z"/><path class="cls-1" d="M110.4,42.9c.1,1.5,1.2,2.7,3.7,2.7a8.66,8.66,0,0,0,3.2-.6c.1,0,.2,0,.2.1v2.5c0,.2,0,.3-.2.3a9.24,9.24,0,0,1-4,.8c-4.9,0-6.6-3.3-6.6-6.6,0-3.6,2.2-6.9,6.3-6.9a5.3,5.3,0,0,1,5.5,5.6,10.87,10.87,0,0,1-.1,1.8.22.22,0,0,1-.2.2,24.37,24.37,0,0,1-2.7.1Zm3.4-2.5a5.7,5.7,0,0,0,1.3-.1v-.2a2.05,2.05,0,0,0-2.2-2,2.51,2.51,0,0,0-2.5,2.3Z"/><path class="cls-1" d="M137.2,48.4c-.2,0-.3-.1-.3-.2-1.3-5.3-1.7-7.7-2-9h0c-.6,2.9-1.2,5-2.3,9-.1.2-.1.2-.3.2H129c-.3,0-.3,0-.4-.2l-3.4-12.5c-.1-.1,0-.2.2-.2h3.3c.2,0,.2,0,.2.2a69.86,69.86,0,0,1,1.9,9.2h.1c.2-.9.6-3.4,2.1-9.1,0-.2.1-.2.2-.2h3.4c.1,0,.2,0,.2.2,1.4,5.8,1.7,8.3,1.9,9.3h0c.4-1.7.8-4.5,2-9.3a.22.22,0,0,1,.2-.2h3a.22.22,0,0,1,.2.2l-3.7,12.5c0,.2-.1.2-.3.2Z"/><path class="cls-1" d="M146.1,32.1a2,2,0,0,1,2-2,1.89,1.89,0,0,1,2,1.8v.2a2,2,0,0,1-4,0Zm.2,3.6c0-.1,0-.2.2-.2h3.2c.2,0,.2,0,.2.2V48.2c0,.2,0,.2-.2.2h-3.1c-.2,0-.3-.1-.3-.2Z"/><path class="cls-1" d="M159.7,48c0,.2,0,.3-.2.3a5.87,5.87,0,0,1-2.3.4c-2.3,0-3.6-1.1-3.6-3.7V38.5H152a.22.22,0,0,1-.2-.2V35.8c0-.2.1-.2.2-.2h1.6a17.33,17.33,0,0,1,.3-3.2.22.22,0,0,1,.2-.2l3-.4c.1,0,.2,0,.2.2-.1.8-.1,2.3-.1,3.6h2.4c.2,0,.2,0,.2.2v2.6a.22.22,0,0,1-.2.2h-2.4v5.6c0,1.1.3,1.7,1.4,1.7a2.77,2.77,0,0,0,.9-.1c.1,0,.2,0,.2.2Z"/><path class="cls-1" d="M165.5,48.2c0,.2-.1.2-.2.2h-3.2c-.2,0-.2-.1-.2-.2v-18c0-.1,0-.2.2-.2h3.2c.2,0,.2,0,.2.2v6.1a6,6,0,0,1,3.4-1.1c2,0,4.4,1,4.4,5.2v7.7c0,.2,0,.2-.2.2h-3.2c-.2,0-.3-.1-.3-.2V40.7c0-1.6-.7-2.5-2.1-2.5a3.14,3.14,0,0,0-2.1.7Z"/><path class="cls-1" d="M4.8,74.4,3.6,78.2c0,.1-.1.2-.3.2H.3c-.3,0-.3-.1-.3-.2l5.2-15a4.15,4.15,0,0,0,.3-1.6c0-.1.1-.1.1-.2H9.8c.1,0,.2,0,.2.2l5.9,16.6c.1.1,0,.2-.1.2H12.4c-.1,0-.3-.1-.3-.2l-1.3-3.9Zm5-3.3c-.5-1.7-1.5-4.9-2-6.7h0c-.4,1.7-1.3,4.6-2,6.7Z"/><path class="cls-1" d="M26.6,78.1c0,.1,0,.2-.1.2a7,7,0,0,1-2.9.4c-4.2,0-6.9-2.8-6.9-6.7s2.9-6.8,7.4-6.8a9.86,9.86,0,0,1,2.4.3c.1.1.1.1.1.3v2.7c0,.2-.1.2-.2.2a7.8,7.8,0,0,0-2.2-.3c-2.2,0-3.8,1.2-3.8,3.5,0,2.7,2,3.6,3.8,3.6a16.35,16.35,0,0,0,2.2-.2c.1,0,.2,0,.2.1Z"/><path class="cls-1" d="M31.6,65.5c.1,0,.3.1.3.2a4,4,0,0,1,.3,1.5,5.42,5.42,0,0,1,4.1-2c.2,0,.2.1.2.2v3.2c0,.1,0,.2-.2.2a5,5,0,0,0-3.9,1.1v8.3c0,.2,0,.2-.2.2H29c-.2,0-.3-.1-.3-.2v-9c0-1.1,0-2.6-.1-3.5,0-.1,0-.2.2-.2Z"/><path class="cls-1" d="M50.5,71.9c0,4.1-2.7,6.8-6.4,6.8-4.5,0-6.4-3.3-6.4-6.7a6.35,6.35,0,0,1,6.5-6.7C48.4,65.3,50.5,68.4,50.5,71.9Zm-9.1,0c0,2.3,1.1,3.7,2.8,3.7,1.5,0,2.7-1.3,2.7-3.7,0-2-.8-3.7-2.8-3.7-1.6.1-2.7,1.4-2.7,3.7Z"/><path class="cls-1" d="M56.2,60c.2,0,.3,0,.3.2v5.3a7.8,7.8,0,0,1,2.2-.3A5.94,5.94,0,0,1,65,70.8v.6c0,4.9-3.8,7.3-7.8,7.3a14,14,0,0,1-4.1-.6c-.1-.1-.2-.2-.2-.3V60.2c0-.1,0-.2.2-.2ZM58,68.3a7.72,7.72,0,0,0-1.5.2v7a3.4,3.4,0,0,0,1,.1,3.58,3.58,0,0,0,3.8-3.3v-.6C61.2,69.4,59.9,68.3,58,68.3Z"/><path class="cls-1" d="M77.4,75.5a12.1,12.1,0,0,0,.1,1.9c0,.1,0,.1-.1.1a13.88,13.88,0,0,1-5.7,1.2c-2.9,0-5.3-1.3-5.3-4.3,0-2.8,2.4-4.2,5.9-4.2a7.57,7.57,0,0,1,1.5.1V70c0-.5-.3-1.6-2.5-1.6a8,8,0,0,0-3.4.7c-.1,0-.2,0-.2-.1V66.2c0-.1.1-.2.2-.3a9.68,9.68,0,0,1,4.1-.8c3.7,0,5.4,2.3,5.4,5.3Zm-3.5-2.6a5.7,5.7,0,0,0-1.3-.1c-1.8,0-2.6.6-2.6,1.5s.7,1.6,2.3,1.6a8.75,8.75,0,0,0,1.6-.2Z"/><path class="cls-1" d="M86.8,78c0,.2,0,.3-.2.3a5.87,5.87,0,0,1-2.3.4c-2.3,0-3.6-1.1-3.6-3.7V68.6H79.1c-.2,0-.2-.1-.2-.2V65.9c0-.2.1-.2.2-.2h1.6a15.53,15.53,0,0,1,.3-3.1.22.22,0,0,1,.2-.2l3-.4c.1,0,.2,0,.2.2-.1.8-.1,2.3-.1,3.6h2.4c.2,0,.2,0,.2.2v2.6c0,.1,0,.2-.2.2H84.3v5.6c0,1.1.3,1.7,1.4,1.7a2.77,2.77,0,0,0,.9-.1c.1,0,.2,0,.2.2Z"/><path class="cls-1" d="M95.1,61.6c0-.2,0-.2.2-.2,1.1,0,3.1-.1,5.1-.1,5.3,0,7.1,2.9,7.1,5.7,0,4.2-3.3,6-7.3,6H98.7v5.1c0,.1,0,.2-.2.2H95.3a.22.22,0,0,1-.2-.2Zm3.6,8.3h1.5c2,0,3.7-.6,3.7-2.8,0-1.6-1.1-2.7-3.4-2.7a8.16,8.16,0,0,0-1.8.1Z"/><path class="cls-1" d="M112.4,65.5c.1,0,.3.1.3.2a4,4,0,0,1,.3,1.5,5.42,5.42,0,0,1,4.1-2c.2,0,.2.1.2.2v3.2c0,.1,0,.2-.2.2a5,5,0,0,0-3.9,1.1v8.3c0,.2,0,.2-.2.2h-3.1c-.2,0-.3-.1-.3-.2v-9c0-1.1,0-2.6-.1-3.5,0-.1,0-.2.2-.2Z"/><path class="cls-1" d="M131.3,71.9c0,4.1-2.7,6.8-6.4,6.8-4.4,0-6.4-3.3-6.4-6.7a6.35,6.35,0,0,1,6.5-6.7C129.2,65.3,131.3,68.4,131.3,71.9Zm-9.1,0c0,2.3,1.1,3.7,2.8,3.7,1.5,0,2.7-1.3,2.7-3.7,0-2-.8-3.7-2.8-3.7-1.6.1-2.7,1.4-2.7,3.7Z"/><path class="cls-1" d="M139.9,61.6c0-.1,0-.2.2-.2.8,0,2.8-.1,5.1-.1,6.2,0,9.3,3.5,9.3,8.3,0,6.2-4.8,8.8-9.2,8.8h-5.1c-.1,0-.1-.1-.1-.3V61.6Zm3.6,13.7c.5,0,.9.1,1.5.1,3.4,0,5.6-2.1,5.6-5.7s-2.2-5.2-5.6-5.2h-1.6V75.3Z"/><path class="cls-1" d="M169.2,77.9a.52.52,0,0,1-.2.4,14.87,14.87,0,0,1-3.6.5c-5,0-9-3-9-8.7,0-5.3,3.6-8.9,9.4-8.9a9.91,9.91,0,0,1,3.4.4c.1,0,.2.2.2.3v2.8c0,.2-.1.2-.2.2a9.74,9.74,0,0,0-3.4-.6c-3.5,0-5.6,2.2-5.6,5.5,0,4,3,5.6,5.7,5.6a11.24,11.24,0,0,0,3.2-.4c.1-.1.2,0,.2.1Z"/><path class="cls-1" d="M171.9,76.5a2.16,2.16,0,0,1,4.3-.3v.3a2,2,0,0,1-1.8,2.2H174a2,2,0,0,1-2.2-1.8A.76.76,0,0,0,171.9,76.5Z"/><path class="cls-2" d="M19,102.5H77a18,18,0,0,1,18,18h0a18,18,0,0,1-18,18H19a18,18,0,0,1-18-18H1A18,18,0,0,1,19,102.5Z"/><path class="cls-3" d="M19,103.5H77a17,17,0,0,1,17,17h0a17,17,0,0,1-17,17H19a17,17,0,0,1-17-17H2A17,17,0,0,1,19,103.5Z"/><path class="cls-1" d="M14.46,124.85c-.08,0-.11,0-.11-.11v-8.95c0-.07,0-.13.1-.13h2.77c2.24,0,3.56,1,3.56,2.76A2.6,2.6,0,0,1,19,120.85c.47.64,2.15,3.15,2.55,3.85.05.08.06.15,0,.15H19.74a.23.23,0,0,1-.19-.07c-.41-.63-1.39-2.24-2-3.22-.1-.17-.17-.24-.33-.24H16v3.42a.1.1,0,0,1-.09.11H14.46Zm2.78-5c1.13,0,1.86-.5,1.86-1.4s-.74-1.39-1.93-1.39H16v2.76Z"/><path class="cls-1" d="M23.52,121.79c0,1,.69,1.76,2.12,1.76a4.31,4.31,0,0,0,1.73-.34c.05,0,.09,0,.09.06v1.16a.15.15,0,0,1-.09.16,4.74,4.74,0,0,1-2.1.4,3.23,3.23,0,0,1-3.46-3,4.34,4.34,0,0,1,0-.51c0-2,1.18-3.67,3.29-3.67A2.78,2.78,0,0,1,28,120.5c0,.11,0,.22,0,.33a4.25,4.25,0,0,1-.06.87.11.11,0,0,1-.11.1,11.56,11.56,0,0,1-1.44.06Zm2.09-1.21h.77v-.08a1.3,1.3,0,0,0-1.3-1.3h0a1.53,1.53,0,0,0-1.51,1.43Z"/><path class="cls-1" d="M29.28,119.56a11.12,11.12,0,0,0-.06-1.51c0-.07,0-.1.1-.1h1.27c.1,0,.14,0,.17.1a3.1,3.1,0,0,1,.1.53,3,3,0,0,1,2-.77c1,0,2.34.53,2.34,2.77v4.15c0,.09,0,.12-.11.12H33.66c-.08,0-.13,0-.13-.12v-4c0-.92-.39-1.45-1.2-1.45a1.84,1.84,0,0,0-1.36.57v4.89a.1.1,0,0,1-.09.11H29.39c-.09,0-.11,0-.11-.11Z"/><path class="cls-1" d="M38.26,121.79c.05,1,.69,1.76,2.12,1.76a4.32,4.32,0,0,0,1.74-.34s.08,0,.08.06v1.16a.15.15,0,0,1-.08.16,4.74,4.74,0,0,1-2.1.4,3.23,3.23,0,0,1-3.46-3,4.34,4.34,0,0,1,0-.51c0-2,1.17-3.67,3.29-3.67a2.8,2.8,0,0,1,2.88,2.68c0,.11,0,.21,0,.32a4.25,4.25,0,0,1-.06.87.11.11,0,0,1-.11.1,11.56,11.56,0,0,1-1.44.06Zm2.09-1.21h.77v-.08a1.3,1.3,0,0,0-1.3-1.3h0a1.54,1.54,0,0,0-1.52,1.43Z"/><path class="cls-1" d="M49.84,124.85c-.09,0-.12,0-.15-.12-.81-3.13-1-4.37-1.19-5.06h0c-.33,1.4-.68,2.75-1.34,5.07a.13.13,0,0,1-.15.11H45.47c-.14,0-.15,0-.18-.11l-1.82-6.68c0-.07,0-.11.1-.11h1.54c.07,0,.1,0,.11.08.84,3.29,1.05,4.62,1.15,5.18h0c.11-.49.35-1.76,1.27-5.15,0-.08,0-.11.13-.11h1.61c.07,0,.1,0,.11.08.87,3.42,1.07,4.67,1.18,5.23h0A52,52,0,0,1,51.86,118s0-.08.12-.08H53.4s.11,0,.08.1l-2,6.69c0,.08-.06.11-.16.11Z"/><path class="cls-1" d="M57.76,119.56v-1.51c0-.07,0-.1.1-.1h1.27c.1,0,.14,0,.17.1a3.1,3.1,0,0,1,.1.53,3,3,0,0,1,2-.77c1,0,2.34.53,2.34,2.77v4.15c0,.09,0,.12-.11.12H62.15c-.09,0-.13,0-.13-.12v-4c0-.92-.39-1.45-1.2-1.45a1.84,1.84,0,0,0-1.36.57v4.89a.1.1,0,0,1-.09.11H57.88c-.09,0-.12,0-.12-.11Z"/><path class="cls-1" d="M71.78,121.36a3.38,3.38,0,1,1-6.74.52,4.51,4.51,0,0,1,0-.52,3.38,3.38,0,0,1,3.15-3.59h.26A3.28,3.28,0,0,1,71.8,121C71.8,121.1,71.79,121.23,71.78,121.36Zm-5,0c0,1.29.63,2.18,1.7,2.18.87,0,1.61-.71,1.61-2.15,0-1.17-.51-2.19-1.7-2.19-1,0-1.64.85-1.64,2.18Z"/><path class="cls-1" d="M78.85,124.85c-.1,0-.12,0-.15-.12-.81-3.13-1-4.37-1.19-5.06h0c-.32,1.4-.67,2.75-1.33,5.07a.13.13,0,0,1-.15.11H74.48c-.14,0-.15,0-.18-.11l-1.82-6.68c0-.07,0-.11.1-.11h1.54c.07,0,.1,0,.11.08.84,3.29,1,4.62,1.15,5.18h0c.11-.49.35-1.76,1.27-5.15,0-.08,0-.11.13-.11h1.61c.07,0,.1,0,.11.08.87,3.42,1.06,4.67,1.18,5.23h0c.17-.84.38-2.24,1.19-5.23A.13.13,0,0,1,81,118h1.42s.11,0,.08.1l-2,6.69c0,.08-.06.11-.16.11Z"/><rect class="cls-2" x="1" y="78.5" width="124" height="24"/><rect class="cls-2" x="1" y="138.5" width="124" height="40"/><rect class="cls-2" x="95" y="78.5" width="30" height="100"/></svg>