<svg id="Layer_1" data-name="Layer 1" xmlns="http://www.w3.org/2000/svg" viewBox="0 0 176.3 209.52"><defs><style>.cls-1{fill:#fff;}.cls-2{fill:none;}</style></defs><path class="cls-1" d="M19.26,169.46H30v25.71Z" transform="translate(0 0)"/><path class="cls-1" d="M11.7,169.46H1v25.71Z" transform="translate(0 0)"/><path class="cls-1" d="M15.48,178.93l6.84,16.24H17.84l-2-5.17h-5Z" transform="translate(0 0)"/><path class="cls-1" d="M4.69,205.46c-.21-1.05-.58-2.62-.72-3.64H4c-.15,1-.42,2.38-.66,3.64ZM3,207l-.48,2.24c0,.08,0,.1-.11.1H1c-.09,0-.12,0-.1-.15l1.88-8.1a3.48,3.48,0,0,0,0-.79.08.08,0,0,1,.07-.08H5c.07,0,.1,0,.12.1l2.19,8.9c0,.08,0,.11-.09.11H5.6a.1.1,0,0,1-.11-.08h0L5,207Z" transform="translate(0 0)"/><path class="cls-1" d="M10.83,203.71a1.61,1.61,0,0,0-.31,0c-.8,0-1.39.72-1.39,2.14S9.72,208,10.5,208h.33Zm-3.38,2.15c0-2.06,1.21-3.66,3.15-3.66h.23v-2.43s0-.07.06-.08h1.54c.06,0,.07,0,.07.08v8.15a8.34,8.34,0,0,0,0,1,.11.11,0,0,1-.06.1,4.73,4.73,0,0,1-2,.5c-1.74-.06-2.94-1.23-2.94-3.66Z" transform="translate(0 0)"/><path class="cls-1" d="M15.06,205.81c0,1.31.29,2.18.92,2.18s.91-.74.91-2.17-.23-2.15-.9-2.15S15.06,204.34,15.06,205.81Zm3.49,0c0,2.23-.93,3.65-2.57,3.65-1.85,0-2.58-1.61-2.58-3.67s.94-3.6,2.61-3.6,2.55,1.34,2.55,3.61Z" transform="translate(0 0)"/><path class="cls-1" d="M21.63,203.7a1.79,1.79,0,0,0-.51.07V208a.76.76,0,0,0,.3,0c.64,0,1.39-.65,1.4-2.4C22.83,204.19,22.28,203.7,21.63,203.7Zm-.58-4c.06,0,.07,0,.07.09v2.5a3.22,3.22,0,0,1,.76-.09c1.48,0,2.59,1.14,2.59,3.33,0,2.56-1.45,3.94-3.28,3.94a5.42,5.42,0,0,1-1.65-.26.12.12,0,0,1-.08-.11v-9.31a.06.06,0,0,1,0-.08h1.59Z" transform="translate(0 0)"/><path class="cls-1" d="M28,204.89h.42a.38.38,0,0,0,0-.15c0-.54-.16-1.1-.75-1.1s-.79.58-.86,1.27Zm-1.2,1.33c0,1.09.41,1.75,1.55,1.75a2.66,2.66,0,0,0,1.08-.2c.07,0,.11,0,.11.07V209c0,.1,0,.16-.1.19a3.06,3.06,0,0,1-1.4.25c-2.07,0-2.88-1.52-2.88-3.52s.93-3.74,2.59-3.74S30,203.74,30,205a8.34,8.34,0,0,1,0,1,.14.14,0,0,1-.13.11H28.46Z" transform="translate(0 0)"/><path class="cls-1" d="M9.24,11.83c-.18,0-.24-.08-.24-.23V8.92c0-.13.08-.16.21-.16h6c.21,0,.24,0,.24.21v8.61c0,.15,0,.2-.19.26a15.64,15.64,0,0,1-5.25.88C3.83,18.72.84,14.82.84,10c0-5.38,3.85-8.89,9.7-8.89a11,11,0,0,1,4.21.62c.13,0,.18.13.18.34V5c0,.18-.1.23-.23.15a9.28,9.28,0,0,0-4.06-.75c-4,0-6.08,2.09-6.08,5.59a5.23,5.23,0,0,0,5.61,5.61,5.66,5.66,0,0,0,1.64-.18V12Z" transform="translate(0 0)"/><path class="cls-1" d="M21.48,13c.13,1.48,1.17,2.7,3.72,2.7a8,8,0,0,0,3.2-.6c.08,0,.16,0,.16.13v2.47a.3.3,0,0,1-.19.32,8.75,8.75,0,0,1-4,.75c-4.89,0-6.61-3.35-6.61-6.58,0-3.59,2.21-6.86,6.29-6.86s5.49,3,5.49,5.61a7.9,7.9,0,0,1-.13,1.75.22.22,0,0,1-.21.2,21.84,21.84,0,0,1-2.68.11Zm3.38-2.49a7.08,7.08,0,0,0,1.3-.06v-.18A2.1,2.1,0,0,0,24,8.14H24a2.45,2.45,0,0,0-2.47,2.32Z" transform="translate(0 0)"/><path class="cls-1" d="M38.62,18c0,.15,0,.28-.18.34a6.55,6.55,0,0,1-2.32.36c-2.26,0-3.59-1.12-3.59-3.72V8.55H31c-.15,0-.2-.07-.2-.23V5.77c0-.18,0-.23.23-.23h1.56a30.17,30.17,0,0,1,.26-3.15A.28.28,0,0,1,33,2.16l3-.39c.13,0,.2,0,.2.15-.07.81-.13,2.34-.13,3.62h2.4c.15,0,.2,0,.2.21V8.37c0,.13,0,.16-.18.18h-2.4v5.57c0,1.14.34,1.66,1.4,1.66a5.27,5.27,0,0,0,.89-.1c.1,0,.18,0,.18.18Z" transform="translate(0 0)"/><path class="cls-1" d="M50,0c.21,0,.26,0,.26.2V5.56a8.41,8.41,0,0,1,2.18-.28,5.94,5.94,0,0,1,6.24,5.62h0a5,5,0,0,1,0,.55c0,4.86-3.84,7.25-7.8,7.25a13.44,13.44,0,0,1-4.08-.6.29.29,0,0,1-.16-.26V.21c0-.13.06-.18.19-.18Zm1.79,8.32a5.64,5.64,0,0,0-1.53.2v7a3.74,3.74,0,0,0,1,.1A3.57,3.57,0,0,0,55,12.31v0a3.69,3.69,0,0,0,0-.47C55,9.46,53.59,8.35,51.77,8.35Z" transform="translate(0 0)"/><path class="cls-1" d="M71.14,15.57v2a14.35,14.35,0,0,1-5.67,1.17c-2.88,0-5.25-1.33-5.25-4.34,0-2.76,2.42-4.21,5.88-4.21a13,13,0,0,1,1.53,0V10c0-.5-.31-1.64-2.49-1.64a8.5,8.5,0,0,0-3.44.7A.16.16,0,0,1,61.49,9a.11.11,0,0,1,0-.08V6.34a.23.23,0,0,1,.18-.26,9.87,9.87,0,0,1,4.08-.8c3.75,0,5.41,2.31,5.41,5.28ZM67.63,12.9a8.11,8.11,0,0,0-1.3-.08c-1.84,0-2.6.6-2.6,1.53s.65,1.56,2.29,1.56a5.14,5.14,0,0,0,1.61-.23Z" transform="translate(0 0)"/><path class="cls-1" d="M83.26,18.1c0,.13,0,.18-.13.2a8,8,0,0,1-2.91.42c-4.22,0-6.87-2.83-6.87-6.66s2.94-6.78,7.36-6.78a7.16,7.16,0,0,1,2.39.28c.13.06.16.13.16.29V8.53c0,.18-.1.21-.21.18a6.43,6.43,0,0,0-2.18-.31c-2.18,0-3.77,1.19-3.77,3.53,0,2.71,2,3.59,3.82,3.59a8.72,8.72,0,0,0,2.16-.23c.16,0,.21,0,.21.1Z" transform="translate(0 0)"/><path class="cls-1" d="M97.25,5.54c.18,0,.26.13.15.26-.8,1-3.92,4.42-4.91,5.48a.08.08,0,0,0,0,.11c1.51,1.87,4,4.89,5.59,6.84.1.07,0,.23-.13.23H93.81c-.18,0-.23-.08-.33-.18-.81-1-3-3.93-4.27-5.54V18.2c0,.18,0,.26-.23.26H85.83c-.21,0-.26-.08-.26-.26V.2c0-.1,0-.2.26-.2H89c.13,0,.23,0,.23.2V10.92C90.56,9.31,93,6.4,93.53,5.72a.4.4,0,0,1,.36-.18Z" transform="translate(0 0)"/><path class="cls-1" d="M117,11.93c0,4.09-2.65,6.79-6.4,6.79-4.44,0-6.42-3.35-6.42-6.71,0-3.69,2.47-6.73,6.47-6.73S117,8.46,117,11.93Zm-9.15,0c0,2.29,1.06,3.74,2.8,3.74,1.51,0,2.66-1.3,2.66-3.69,0-2-.84-3.72-2.81-3.72-1.5,0-2.65,1.39-2.65,3.7Z" transform="translate(0 0)"/><path class="cls-1" d="M119.27,8.55a21.85,21.85,0,0,0-.11-2.8c0-.13,0-.21.19-.21h2.73a.3.3,0,0,1,.33.21,3.11,3.11,0,0,1,.21.85,5.72,5.72,0,0,1,3.69-1.32c2,0,4.37,1,4.37,5.22v7.73c0,.15,0,.23-.23.23h-3.12c-.18,0-.26-.08-.26-.23V10.82c0-1.56-.68-2.4-2-2.4a3.17,3.17,0,0,0-2.16.81v9a.19.19,0,0,1-.17.21h-3.21c-.18,0-.23-.08-.23-.23Z" transform="translate(0 0)"/><path class="cls-1" d="M146.07,18c0,.15,0,.28-.18.34a6.46,6.46,0,0,1-2.31.36c-2.27,0-3.59-1.12-3.59-3.72V8.55h-1.56c-.16,0-.21-.07-.21-.23V5.77c0-.18,0-.23.24-.23H140a30.17,30.17,0,0,1,.26-3.15.29.29,0,0,1,.24-.23l3-.39c.13,0,.21,0,.21.15-.08.81-.13,2.34-.13,3.62H146c.16,0,.21,0,.21.21V8.37c0,.13-.05.16-.18.18h-2.45v5.57c0,1.14.34,1.66,1.41,1.66a5.16,5.16,0,0,0,.88-.1c.11,0,.18,0,.18.18Z" transform="translate(0 0)"/><path class="cls-1" d="M152,18.25c0,.16,0,.21-.21.21h-3.2a.19.19,0,0,1-.21-.17h0V.25c0-.11,0-.18.21-.18h3.2c.16,0,.21,0,.21.18V6.38a5.81,5.81,0,0,1,3.4-1.06c2,0,4.4,1,4.4,5.22v7.73c0,.15,0,.23-.24.23h-3.12c-.18,0-.25-.08-.25-.23v-7.4c0-1.64-.71-2.45-2.06-2.45A3.51,3.51,0,0,0,152,9Z" transform="translate(0 0)"/><path class="cls-1" d="M165.78,13c.13,1.48,1.17,2.7,3.72,2.7a8,8,0,0,0,3.2-.6c.07,0,.15,0,.15.13v2.47c0,.19,0,.26-.18.32a8.75,8.75,0,0,1-4,.75c-4.89,0-6.6-3.35-6.6-6.58,0-3.59,2.21-6.86,6.29-6.86s5.49,3,5.49,5.61a9.32,9.32,0,0,1-.13,1.75.22.22,0,0,1-.21.2,21.84,21.84,0,0,1-2.68.11Zm3.38-2.49a7.08,7.08,0,0,0,1.3-.06v-.18a2.11,2.11,0,0,0-2.17-2h0a2.47,2.47,0,0,0-2.5,2.29Z" transform="translate(0 0)"/><path class="cls-1" d="M5.62,38.16C4.4,38.16,4,38.61,4,39s.34.78,1.85,1.35C9,41.54,10,42.77,10,44.61c0,2.47-1.92,4.11-5.35,4.11A8.36,8.36,0,0,1,.87,48c-.13-.08-.19-.15-.19-.28V44.9c0-.16.11-.24.21-.16a7.33,7.33,0,0,0,3.82,1c1.23,0,1.77-.34,1.77-.88S6,44,4.48,43.43c-2.91-1-3.87-2.3-3.87-4.17s1.63-4,5.07-4a8.65,8.65,0,0,1,3.38.52.34.34,0,0,1,.18.34v2.6c0,.15-.11.26-.26.18A8,8,0,0,0,5.62,38.16Z" transform="translate(0 0)"/><path class="cls-1" d="M22.52,45.57q0,.95.06,1.89c.06.94,0,.1-.06.13a14.31,14.31,0,0,1-5.66,1.17c-2.89,0-5.26-1.33-5.26-4.34,0-2.76,2.42-4.21,5.88-4.21a13,13,0,0,1,1.53,0V40c0-.5-.31-1.64-2.49-1.64a8.42,8.42,0,0,0-3.43.7.16.16,0,0,1-.22-.06h0a.09.09,0,0,1,0-.07V36.34a.23.23,0,0,1,.18-.26,9.92,9.92,0,0,1,4.09-.8c3.74,0,5.4,2.31,5.4,5.28ZM19,42.9a8.11,8.11,0,0,0-1.3-.08c-1.84,0-2.6.6-2.6,1.53s.65,1.56,2.29,1.56A5.14,5.14,0,0,0,19,45.68Z" transform="translate(0 0)"/><path class="cls-1" d="M25.85,48.46c-.18,0-.23-.08-.23-.23V38.35c0-1-.08-2.08-.11-2.58,0-.15.06-.23.21-.23h2.76a.37.37,0,0,1,.31.15,3.73,3.73,0,0,1,.16,1,5.65,5.65,0,0,1,3.74-1.38A3.7,3.7,0,0,1,36,37a6.37,6.37,0,0,1,4.21-1.66c2.26,0,4.45,1.22,4.45,5.15v7.8a.21.21,0,0,1-.19.23H41.32c-.18,0-.26-.08-.26-.23V40.79c0-1.35-.47-2.39-2-2.39a3.46,3.46,0,0,0-2.21.83A11.82,11.82,0,0,1,37,40.69v7.54c0,.13,0,.23-.2.23H33.6c-.16,0-.26,0-.26-.23V40.69c0-1.56-.73-2.27-2-2.27a3.56,3.56,0,0,0-2.13.73v9.1c0,.13-.05.21-.23.21Z" transform="translate(0 0)"/><path class="cls-1" d="M50.71,43c.13,1.48,1.17,2.7,3.72,2.7a7.94,7.94,0,0,0,3.19-.6c.08,0,.16,0,.16.13v2.47c0,.19,0,.26-.18.32a8.75,8.75,0,0,1-4,.75c-4.89,0-6.61-3.35-6.61-6.58,0-3.59,2.22-6.86,6.3-6.86,3.92,0,5.48,3,5.48,5.61a7.9,7.9,0,0,1-.13,1.75.2.2,0,0,1-.2.2h0a21.84,21.84,0,0,1-2.68.11Zm3.38-2.49a7.08,7.08,0,0,0,1.3-.06v-.18a2.12,2.12,0,0,0-2.21-2,2.47,2.47,0,0,0-2.5,2.24Z" transform="translate(0 0)"/><path class="cls-1" d="M79.07,41.6c0,4.75-3.9,7.12-8,7.12h-.5v4.42c0,.13,0,.21-.2.24-1.07.1-3.07.28-3.23.31s-.18,0-.18-.18V38.19a12.38,12.38,0,0,0-.08-1.72.13.13,0,0,1,.1-.13,17,17,0,0,1,5.47-1.06C77,35.28,79.07,38.35,79.07,41.6Zm-8.45-3v7.1a5.89,5.89,0,0,0,.84,0,3.67,3.67,0,0,0,3.9-3.42h0a3.23,3.23,0,0,0,0-.44c0-2.24-1.15-3.48-3.18-3.48a5.14,5.14,0,0,0-1.56.15Z" transform="translate(0 0)"/><path class="cls-1" d="M91.5,45.57v2a14.35,14.35,0,0,1-5.67,1.17c-2.88,0-5.25-1.33-5.25-4.34,0-2.76,2.42-4.21,5.88-4.21a13,13,0,0,1,1.53,0V40c0-.5-.31-1.64-2.5-1.64a8.42,8.42,0,0,0-3.43.7.16.16,0,0,1-.21-.05.11.11,0,0,1,0-.08V36.34a.23.23,0,0,1,.18-.26,9.87,9.87,0,0,1,4.08-.8c3.75,0,5.41,2.31,5.41,5.28ZM88,42.9a8.11,8.11,0,0,0-1.3-.08c-1.85,0-2.6.6-2.6,1.53s.65,1.56,2.29,1.56A5.14,5.14,0,0,0,88,45.68Z" transform="translate(0 0)"/><path class="cls-1" d="M101,45.46c3.72.19,5.1,1.69,5.1,3.75,0,2.7-2.65,4.89-6.84,4.89s-6.24-2.16-6.24-4c0-.84.68-1.88,2.39-3.31a3.16,3.16,0,0,1-.54-2,3.64,3.64,0,0,1,.46-1.71,3.75,3.75,0,0,1-1.79-3.36c0-2.49,2-4.44,5.33-4.44a14.62,14.62,0,0,1,2.47.21,3.21,3.21,0,0,0,.62,0h3.57c.13,0,.18,0,.18.18v2.42c0,.13,0,.18-.18.18-.39,0-1.25-.08-1.8-.13a3.31,3.31,0,0,1,.39,1.69c0,2.76-2.26,4.13-5.15,4.13h-.88a1.19,1.19,0,0,0,0,.7,1.41,1.41,0,0,0,.28.68Zm-3.69,2.9a2.56,2.56,0,0,0-1,1.37c0,.81,1.15,1.69,3.17,1.69,2.32,0,3.31-.8,3.31-1.66s-1.15-1.22-2.6-1.3Zm-.26-8.69a1.69,1.69,0,0,0,1.58,1.79H99a1.59,1.59,0,0,0,1.78-1.37,1.71,1.71,0,0,0,0-.32,1.82,1.82,0,1,0-3.64-.08h0Z" transform="translate(0 0)"/><path class="cls-1" d="M110.38,43c.13,1.48,1.17,2.7,3.72,2.7a7.94,7.94,0,0,0,3.19-.6c.08,0,.16,0,.16.13v2.47c0,.19,0,.26-.18.32a8.75,8.75,0,0,1-4,.75c-4.89,0-6.61-3.35-6.61-6.58,0-3.59,2.21-6.86,6.3-6.86,3.92,0,5.48,3,5.48,5.61a7.9,7.9,0,0,1-.13,1.75.2.2,0,0,1-.2.2,21.84,21.84,0,0,1-2.68.11Zm3.38-2.49a7.08,7.08,0,0,0,1.3-.06v-.18a2.12,2.12,0,0,0-2.21-2,2.47,2.47,0,0,0-2.5,2.29Z" transform="translate(0 0)"/><path class="cls-1" d="M137.16,48.46c-.21,0-.26-.08-.32-.23-1.3-5.31-1.71-7.7-2-9h0c-.65,2.86-1.17,5-2.26,9,0,.18-.13.23-.29.23H129c-.26,0-.31,0-.36-.23L125.3,35.77c0-.13,0-.23.21-.23h3.3c.16,0,.21.05.23.18,1.38,5.62,1.75,8.11,1.93,9.2h0c.21-.93.62-3.38,2.13-9.15,0-.15.05-.23.24-.23h3.43c.13,0,.18.05.21.18,1.42,5.75,1.79,8.31,2,9.31h0c.37-1.69.76-4.5,2-9.31a.23.23,0,0,1,.24-.18h3c.11,0,.21.08.16.21l-3.75,12.48c0,.18-.08.23-.31.23Z" transform="translate(0 0)"/><path class="cls-1" d="M146.07,32.13a2,2,0,0,1,2-2,1.87,1.87,0,0,1,2,1.75,1,1,0,0,1,0,.25,2,2,0,0,1-4,0Zm.19,3.62c0-.13,0-.21.2-.21h3.2c.16,0,.21.05.21.21V48.23c0,.15,0,.23-.23.23h-3.12c-.19,0-.26-.08-.26-.23Z" transform="translate(0 0)"/><path class="cls-1" d="M159.64,48c0,.15,0,.28-.18.34a6.46,6.46,0,0,1-2.31.36c-2.26,0-3.59-1.12-3.59-3.72V38.55H152c-.15,0-.21-.07-.21-.23V35.77c0-.18.06-.23.24-.23h1.56a27.68,27.68,0,0,1,.26-3.15.26.26,0,0,1,.23-.23l3-.39c.13,0,.21,0,.21.15-.08.81-.13,2.34-.13,3.62h2.39c.16,0,.21.05.21.21v2.62c0,.13-.05.16-.18.18h-2.44v5.57c0,1.14.33,1.66,1.4,1.66a5.16,5.16,0,0,0,.88-.1c.11,0,.18,0,.18.18Z" transform="translate(0 0)"/><path class="cls-1" d="M165.52,48.25c0,.16,0,.21-.21.21h-3.19c-.16,0-.21-.08-.21-.21v-18c0-.11,0-.18.21-.18h3.19c.16,0,.21,0,.21.18v6.13a5.8,5.8,0,0,1,3.41-1.1c2,0,4.39,1,4.39,5.22v7.73c0,.15,0,.23-.23.23H170c-.18,0-.26-.08-.26-.23V40.87c0-1.64-.7-2.45-2.06-2.45a3.53,3.53,0,0,0-2.13.65Z" transform="translate(0 0)"/><path class="cls-1" d="M4.74,74.4,3.49,78.25a.28.28,0,0,1-.28.21h-3c-.18,0-.23-.1-.21-.26l5.2-15a4.53,4.53,0,0,0,.26-1.59.19.19,0,0,1,.14-.15H9.76c.13,0,.18,0,.21.16l5.9,16.64c0,.13,0,.23-.13.23H12.36a.26.26,0,0,1-.29-.18l-1.32-3.88Zm5-3.25c-.48-1.69-1.52-4.86-2-6.69h0c-.41,1.74-1.35,4.6-2,6.7Z" transform="translate(0 0)"/><path class="cls-1" d="M26.55,78.1c0,.13,0,.18-.13.2a8,8,0,0,1-2.91.42c-4.21,0-6.86-2.83-6.86-6.66s2.94-6.78,7.36-6.78a7.42,7.42,0,0,1,2.39.28c.13.06.15.13.15.29v2.68c0,.18-.11.21-.21.18a6.43,6.43,0,0,0-2.18-.31c-2.19,0-3.77,1.19-3.77,3.53,0,2.71,2,3.59,3.82,3.59a8.72,8.72,0,0,0,2.16-.23c.15,0,.2,0,.2.1Z" transform="translate(0 0)"/><path class="cls-1" d="M31.62,65.54a.3.3,0,0,1,.32.23,4.84,4.84,0,0,1,.28,1.46,5.41,5.41,0,0,1,4.14-2c.15,0,.2,0,.2.21v3.19c0,.13,0,.19-.23.19a5.4,5.4,0,0,0-3.93,1.11V78.2c0,.16,0,.21-.24.21H29c-.2,0-.26-.08-.26-.23v-9a29.92,29.92,0,0,0-.13-3.54c0-.13,0-.18.16-.18Z" transform="translate(0 0)"/><path class="cls-1" d="M50.53,71.93c0,4.09-2.66,6.79-6.4,6.79-4.45,0-6.42-3.35-6.42-6.71,0-3.69,2.47-6.73,6.47-6.73C48.37,65.28,50.53,68.46,50.53,71.93Zm-9.16,0c0,2.29,1.07,3.74,2.81,3.74,1.51,0,2.65-1.3,2.65-3.69,0-2-.83-3.72-2.8-3.72-1.51,0-2.66,1.39-2.66,3.7Z" transform="translate(0 0)"/><path class="cls-1" d="M56.22,60c.21,0,.26,0,.26.2v5.33a8.41,8.41,0,0,1,2.18-.28A6,6,0,0,1,65,70.82v.06a5.61,5.61,0,0,1,0,.58c0,4.86-3.84,7.25-7.8,7.25a13.44,13.44,0,0,1-4.08-.6.28.28,0,0,1-.15-.26V60.21c0-.13,0-.18.18-.18ZM58,68.35a5.64,5.64,0,0,0-1.53.2v7a3.74,3.74,0,0,0,1,.1,3.57,3.57,0,0,0,3.78-3.35h0a5,5,0,0,0,0-.55A3.08,3.08,0,0,0,58,68.35Z" transform="translate(0 0)"/><path class="cls-1" d="M77.38,75.57q0,.95.06,1.89c.06,1,0,.1-.06.13a14.31,14.31,0,0,1-5.66,1.17c-2.89,0-5.26-1.33-5.26-4.34,0-2.76,2.42-4.21,5.88-4.21a13,13,0,0,1,1.53,0V70c0-.5-.31-1.64-2.49-1.64a8.42,8.42,0,0,0-3.43.7.16.16,0,0,1-.22-.06h0a.09.09,0,0,1,0-.07V66.34a.23.23,0,0,1,.18-.26,9.92,9.92,0,0,1,4.09-.8c3.74,0,5.4,2.31,5.4,5.28ZM73.87,72.9a8.11,8.11,0,0,0-1.3-.08c-1.84,0-2.6.6-2.6,1.53s.65,1.56,2.29,1.56a5.14,5.14,0,0,0,1.61-.23Z" transform="translate(0 0)"/><path class="cls-1" d="M86.74,78c0,.15,0,.28-.18.34a6.46,6.46,0,0,1-2.31.36c-2.27,0-3.59-1.12-3.59-3.72V68.55H79.1c-.16,0-.21-.07-.21-.23V65.77c0-.18,0-.23.23-.23h1.56a27.74,27.74,0,0,1,.3-3.15.29.29,0,0,1,.24-.23l3-.39c.13,0,.21,0,.21.15-.08.81-.13,2.34-.13,3.62h2.39c.16,0,.21,0,.21.21v2.62c0,.13,0,.16-.18.18h-2.4v5.57c0,1.14.34,1.66,1.41,1.66a5.16,5.16,0,0,0,.88-.1c.11,0,.18,0,.18.18Z" transform="translate(0 0)"/><path class="cls-1" d="M95.06,61.66c0-.15,0-.2.16-.2,1.06,0,3.12-.08,5.09-.08,5.26,0,7.08,2.91,7.08,5.74,0,4.22-3.25,6-7.26,6H98.65v5.12c0,.13,0,.21-.21.21h-3.2c-.13,0-.18-.08-.18-.21Zm3.59,8.27h1.46c2,0,3.69-.63,3.69-2.76,0-1.64-1.12-2.68-3.38-2.68a13.09,13.09,0,0,0-1.77.06Z" transform="translate(0 0)"/><path class="cls-1" d="M112.4,65.54a.3.3,0,0,1,.32.23,4.82,4.82,0,0,1,.26,1.46,5.41,5.41,0,0,1,4.14-2c.15,0,.2,0,.2.21v3.19c0,.13,0,.19-.23.19a5.4,5.4,0,0,0-3.93,1.11V78.2c0,.16,0,.21-.24.21H109.8c-.2,0-.26-.08-.26-.23v-9a29.92,29.92,0,0,0-.13-3.54c0-.13,0-.18.16-.18Z" transform="translate(0 0)"/><path class="cls-1" d="M131.31,71.93c0,4.09-2.66,6.79-6.4,6.79-4.45,0-6.42-3.35-6.42-6.71,0-3.69,2.47-6.73,6.47-6.73C129.15,65.28,131.31,68.46,131.31,71.93Zm-9.16,0c0,2.29,1.07,3.74,2.81,3.74,1.51,0,2.65-1.3,2.65-3.69,0-2-.83-3.72-2.8-3.72-1.51,0-2.66,1.39-2.66,3.7Z" transform="translate(0 0)"/><path class="cls-1" d="M139.86,61.66c0-.13,0-.18.18-.2.78,0,2.76-.08,5.07-.08,6.22,0,9.26,3.48,9.26,8.29,0,6.22-4.79,8.84-9.21,8.84H140c-.1,0-.15-.08-.15-.26Zm3.61,13.68H145c3.4,0,5.64-2,5.64-5.67s-2.24-5.2-5.56-5.2h-1.62Z" transform="translate(0 0)"/><path class="cls-1" d="M169.21,77.89c0,.18,0,.31-.2.36a11.37,11.37,0,0,1-3.62.47c-5,0-9-3-9-8.68,0-5.28,3.64-8.87,9.39-8.87a8.64,8.64,0,0,1,3.38.44.3.3,0,0,1,.18.31v2.84c0,.23-.13.23-.23.18a8.14,8.14,0,0,0-3.38-.57c-3.49,0-5.62,2.16-5.62,5.54,0,4,3,5.59,5.69,5.59a9.77,9.77,0,0,0,3.18-.42c.13,0,.2,0,.2.13Z" transform="translate(0 0)"/><path class="cls-1" d="M172,76.54a2.16,2.16,0,0,1,4.31-.29,1.41,1.41,0,0,1,0,.29,2,2,0,0,1-1.8,2.18,2.16,2.16,0,0,1-.36,0A2,2,0,0,1,172,76.88h0A1.93,1.93,0,0,1,172,76.54Z" transform="translate(0 0)"/><path class="cls-2" d="M19.53,102.74h58a18,18,0,0,1,18,18h0a18,18,0,0,1-18,18h-58a18,18,0,0,1-18-18h0A18,18,0,0,1,19.53,102.74Z" transform="translate(0 0)"/><path class="cls-1" d="M44.2,119.36a1.54,1.54,0,0,0-1.51,1.44l2.07,0a5,5,0,0,0,.77,0v-.16A1.3,1.3,0,0,0,44.2,119.36Z" transform="translate(0 0)"/><ellipse class="cls-1" cx="68.15" cy="118.64" rx="1" ry="1.44"/><path class="cls-1" d="M30.65,121.9c-1.11,0-1.6.45-1.6,1s.38,1,1.38,1a2.3,2.3,0,0,0,1-.17V121.9Z" transform="translate(0 0)"/><path class="cls-1" d="M74.36,121.19c-.57,0-1,.44-1,1.44,0,.81.37,1.43,1,1.43s1-.5,1-1.43S74.93,121.19,74.36,121.19Z" transform="translate(0 0)"/><path class="cls-1" d="M77.53,103.74h-58a17,17,0,0,0,0,34h58a17,17,0,0,0,0-34Zm-54.6,21.49a5.32,5.32,0,0,1-2.44-.62.23.23,0,0,1-.1-.21v-1.46a.09.09,0,0,1,.1,0,4.82,4.82,0,0,0,2.5.73c1.14,0,1.63-.48,1.63-1s-.33-.91-1.4-1.36l-.67-.28c-1.72-.73-2.17-1.65-2.17-2.65,0-1.5,1.14-2.64,3.25-2.64a5.07,5.07,0,0,1,2.14.38c.08,0,.08.08.08.18v1.38c0,.06,0,.06-.12.06a4.32,4.32,0,0,0-2.12-.49c-1.2,0-1.58.5-1.58,1s.32.85,1.43,1.32l.53.22c1.82.74,2.34,1.64,2.34,2.74C26.33,124.17,25,125.23,22.93,125.23ZM33,123.7a6.46,6.46,0,0,0,0,.88v.06a7,7,0,0,1-2.91.63c-1.53,0-2.75-.81-2.75-2.3s1.33-2.23,3.15-2.23h.86v-.21c0-.27-.18-1-1.41-1a4.17,4.17,0,0,0-1.84.39.1.1,0,0,1-.07-.09v-1.22a.12.12,0,0,1,.08-.14,5.19,5.19,0,0,1,2.13-.42,2.09,2.09,0,0,1,.5,0h0a2.54,2.54,0,0,1,2.29,2.77Zm7.33-5.39c-.53,1.44-1.86,5.44-2.37,6.69a.13.13,0,0,1-.13.09l-1.59,0a.16.16,0,0,1-.14-.08c-.46-1.35-1.82-5.32-2.31-6.72,0-.1,0-.1.08-.1h1.6a.11.11,0,0,1,.13.08c1,3.24,1.37,4.62,1.51,5.24.16-.62.58-2,1.64-5.24,0-.08.06-.08.12-.08h1.46A.09.09,0,0,1,40.37,118.31Zm6.74,3.59a.11.11,0,0,1-.11.1,12,12,0,0,1-1.47,0l-2.81.06c0,1,.68,1.76,2.11,1.76a4.31,4.31,0,0,0,1.74-.33c.08-.08.08-.07.08,0v1.16a.15.15,0,0,1-.08.16,4.74,4.74,0,0,1-2.1.4,2.35,2.35,0,0,1-.53,0h0A3.23,3.23,0,0,1,41,121.7c0-2,1.17-3.67,3.29-3.67h.31a2.79,2.79,0,0,1,2.56,3A4.25,4.25,0,0,1,47.11,121.9Zm6.55,3.3a4.87,4.87,0,0,1-2.32-.45.18.18,0,0,1-.09-.19v-1.38c0-.06.07-.06.13-.06a4.55,4.55,0,0,0,2.22.59c1.31,0,1.85-.46,1.85-1.28s-.62-1.24-1.82-1.24l-.79,0c-.1,0-.1,0-.1-.1v-1.27c0-.13,0-.13.09-.13h.7c1,0,1.54-.44,1.54-1.1s-.52-1.1-1.58-1.1a4.12,4.12,0,0,0-2,.53c-.1.08-.1,0-.1,0v-1.29c0-.07,0-.14.07-.14a5.13,5.13,0,0,1,2.37-.55c1.81,0,2.91,1,2.91,2.37a2,2,0,0,1-1.27,1.86,2.23,2.23,0,0,1,1.69,2.18C57.16,124.2,55.58,125.2,53.66,125.2Zm7.87,0h-.05c-2.23,0-3.23-2-3.23-4.59s1.16-4.55,3.26-4.55c2.58,0,3.22,2.42,3.22,4.55C64.73,123,63.88,125.2,61.53,125.2Zm4.3-6.52a.61.61,0,0,1,0-.19,2.38,2.38,0,0,1,2.31-2.43h0c1.54,0,2.27,1.09,2.34,2.58v.19h0a2.36,2.36,0,0,1-2.35,2.37h-.38A2.25,2.25,0,0,1,65.83,118.68Zm2.77,6.44H67.52a.08.08,0,0,1,0-.11l6.17-8.71a.16.16,0,0,1,.15-.09h1.08v.1L68.8,125C68.74,125.12,68.71,125.12,68.6,125.12Zm8.1-2.33a2.36,2.36,0,0,1-2.31,2.4,2,2,0,0,1-.35,0h0a2.27,2.27,0,0,1-2-2.54.54.54,0,0,1,0-.18h0a2.37,2.37,0,0,1,2.3-2.42h0c1.54,0,2.27,1.12,2.36,2.57Z" transform="translate(0 0)"/><path class="cls-1" d="M61.53,117.49l-.05,0c-.89,0-1.54.94-1.54,3.08,0,2,.5,3.18,1.59,3.18s1.57-1,1.57-3.11S62.53,117.49,61.53,117.49Z" transform="translate(0 0)"/></svg>