<svg xmlns="http://www.w3.org/2000/svg" viewBox="0 0 253.52 61.35"><defs><style>.a{fill:#fff;}</style></defs><title>F1_dotted_box</title><path class="a" d="M5.2,34.09H0v-5.2H5.2Zm-4.2-1H4.2v-3.2H1Z"/><path class="a" d="M5.2,5.72H0V.52H5.2ZM1,4.72H4.2V1.52H1Z"/><path class="a" d="M5.2,60.87H0v-5.2H5.2Zm-4.2-1H4.2v-3.2H1Z"/><path class="a" d="M253.52,33.19h-5.08V28.11h5.08Zm-4.08-1h3.08V29.11h-3.08Z"/><path class="a" d="M253.52,5.72h-5.2V.52h5.2Zm-4.2-1h3.2V1.52h-3.2Z"/><path class="a" d="M128.8,5.2h-5.2V0h5.2Zm-4.2-1h3.2V1h-3.2Z"/><path class="a" d="M129.36,61.35h-5.2v-5.2h5.2Zm-4.2-1h3.2v-3.2h-3.2Z"/><path class="a" d="M253,60.35h-5.2v-5.2H253Zm-4.2-1H252v-3.2h-3.2Z"/><rect class="a" x="7.11" y="1.5" width="3.02" height="1.04"/><rect class="a" x="12.13" y="1.5" width="3.02" height="1.04"/><rect class="a" x="17.16" y="1.5" width="3.02" height="1.04"/><rect class="a" x="22.18" y="1.5" width="3.02" height="1.04"/><rect class="a" x="27.21" y="1.5" width="3.02" height="1.04"/><rect class="a" x="32.23" y="1.5" width="3.02" height="1.04"/><rect class="a" x="37.26" y="1.5" width="3.02" height="1.04"/><rect class="a" x="42.28" y="1.5" width="3.02" height="1.04"/><rect class="a" x="47.31" y="1.5" width="3.02" height="1.04"/><rect class="a" x="52.33" y="1.5" width="3.02" height="1.04"/><rect class="a" x="57.36" y="1.5" width="3.02" height="1.04"/><rect class="a" x="62.38" y="1.5" width="3.02" height="1.04"/><rect class="a" x="67.41" y="1.5" width="3.02" height="1.04"/><rect class="a" x="72.43" y="1.5" width="3.02" height="1.04"/><rect class="a" x="77.46" y="1.5" width="3.02" height="1.04"/><rect class="a" x="82.48" y="1.5" width="3.02" height="1.04"/><rect class="a" x="87.51" y="1.5" width="3.02" height="1.04"/><rect class="a" x="92.53" y="1.5" width="3.02" height="1.04"/><rect class="a" x="97.56" y="1.5" width="3.02" height="1.04"/><rect class="a" x="102.58" y="1.5" width="3.02" height="1.04"/><rect class="a" x="107.61" y="1.5" width="3.02" height="1.04"/><rect class="a" x="112.63" y="1.5" width="3.02" height="1.04"/><rect class="a" x="117.66" y="1.5" width="3.02" height="1.04"/><rect class="a" x="131.73" y="1.5" width="3.02" height="1.04"/><rect class="a" x="136.76" y="1.5" width="3.02" height="1.04"/><rect class="a" x="141.78" y="1.5" width="3.02" height="1.04"/><rect class="a" x="146.81" y="1.5" width="3.02" height="1.04"/><rect class="a" x="151.83" y="1.5" width="3.02" height="1.04"/><rect class="a" x="156.86" y="1.5" width="3.02" height="1.04"/><rect class="a" x="161.88" y="1.5" width="3.02" height="1.04"/><rect class="a" x="166.91" y="1.5" width="3.02" height="1.04"/><rect class="a" x="171.93" y="1.5" width="3.02" height="1.04"/><rect class="a" x="176.96" y="1.5" width="3.02" height="1.04"/><rect class="a" x="181.98" y="1.5" width="3.02" height="1.04"/><rect class="a" x="187.01" y="1.5" width="3.02" height="1.04"/><rect class="a" x="192.03" y="1.5" width="3.02" height="1.04"/><rect class="a" x="197.06" y="1.5" width="3.02" height="1.04"/><rect class="a" x="202.08" y="1.5" width="3.02" height="1.04"/><rect class="a" x="207.11" y="1.5" width="3.02" height="1.04"/><rect class="a" x="212.13" y="1.5" width="3.02" height="1.04"/><rect class="a" x="217.16" y="1.5" width="3.02" height="1.04"/><rect class="a" x="222.18" y="1.5" width="3.02" height="1.04"/><rect class="a" x="227.21" y="1.5" width="3.02" height="1.04"/><rect class="a" x="232.23" y="1.5" width="3.02" height="1.04"/><rect class="a" x="237.26" y="1.5" width="3.02" height="1.04"/><rect class="a" x="242.28" y="1.5" width="3.02" height="1.04"/><rect class="a" x="251.16" y="7.88" width="1.01" height="3.11"/><rect class="a" x="251.16" y="13.06" width="1.01" height="3.11"/><rect class="a" x="251.16" y="18.24" width="1.01" height="3.11"/><rect class="a" x="251.16" y="23.42" width="1.01" height="3.11"/><rect class="a" x="242.64" y="58.13" width="3.02" height="1.04"/><rect class="a" x="237.62" y="58.13" width="3.02" height="1.04"/><rect class="a" x="232.59" y="58.13" width="3.02" height="1.04"/><rect class="a" x="227.57" y="58.13" width="3.02" height="1.04"/><rect class="a" x="222.54" y="58.13" width="3.02" height="1.04"/><rect class="a" x="217.52" y="58.13" width="3.02" height="1.04"/><rect class="a" x="212.49" y="58.13" width="3.02" height="1.04"/><rect class="a" x="207.47" y="58.13" width="3.02" height="1.04"/><rect class="a" x="202.44" y="58.13" width="3.02" height="1.04"/><rect class="a" x="197.42" y="58.13" width="3.02" height="1.04"/><rect class="a" x="192.39" y="58.13" width="3.02" height="1.04"/><rect class="a" x="187.37" y="58.13" width="3.02" height="1.04"/><rect class="a" x="182.34" y="58.13" width="3.02" height="1.04"/><rect class="a" x="177.32" y="58.13" width="3.02" height="1.04"/><rect class="a" x="172.29" y="58.13" width="3.02" height="1.04"/><rect class="a" x="167.27" y="58.13" width="3.02" height="1.04"/><rect class="a" x="162.24" y="58.13" width="3.02" height="1.04"/><rect class="a" x="157.22" y="58.13" width="3.02" height="1.04"/><rect class="a" x="152.19" y="58.13" width="3.02" height="1.04"/><rect class="a" x="147.17" y="58.13" width="3.02" height="1.04"/><rect class="a" x="142.14" y="58.13" width="3.02" height="1.04"/><rect class="a" x="137.12" y="58.13" width="3.02" height="1.04"/><rect class="a" x="132.09" y="58.13" width="3.02" height="1.04"/><rect class="a" x="118.02" y="58.13" width="3.02" height="1.04"/><rect class="a" x="112.99" y="58.13" width="3.02" height="1.04"/><rect class="a" x="107.97" y="58.13" width="3.02" height="1.04"/><rect class="a" x="102.94" y="58.13" width="3.02" height="1.04"/><rect class="a" x="97.92" y="58.13" width="3.02" height="1.04"/><rect class="a" x="92.89" y="58.13" width="3.02" height="1.04"/><rect class="a" x="87.87" y="58.13" width="3.02" height="1.04"/><rect class="a" x="82.84" y="58.13" width="3.02" height="1.04"/><rect class="a" x="77.82" y="58.13" width="3.02" height="1.04"/><rect class="a" x="72.79" y="58.13" width="3.02" height="1.04"/><rect class="a" x="67.77" y="58.13" width="3.02" height="1.04"/><rect class="a" x="62.74" y="58.13" width="3.02" height="1.04"/><rect class="a" x="57.72" y="58.13" width="3.02" height="1.04"/><rect class="a" x="52.69" y="58.13" width="3.02" height="1.04"/><rect class="a" x="47.67" y="58.13" width="3.02" height="1.04"/><rect class="a" x="42.64" y="58.13" width="3.02" height="1.04"/><rect class="a" x="37.62" y="58.13" width="3.02" height="1.04"/><rect class="a" x="32.59" y="58.13" width="3.02" height="1.04"/><rect class="a" x="27.57" y="58.13" width="3.02" height="1.04"/><rect class="a" x="22.54" y="58.13" width="3.02" height="1.04"/><rect class="a" x="17.52" y="58.13" width="3.02" height="1.04"/><rect class="a" x="12.49" y="58.13" width="3.02" height="1.04"/><rect class="a" x="7.47" y="58.13" width="3.02" height="1.04"/><rect class="a" x="2.08" y="23.28" width="1.01" height="3.11"/><rect class="a" x="2.08" y="18.1" width="1.01" height="3.11"/><rect class="a" x="2.08" y="12.93" width="1.01" height="3.11"/><rect class="a" x="2.08" y="7.75" width="1.01" height="3.11"/><rect class="a" x="251.16" y="35.88" width="1.01" height="3.11"/><rect class="a" x="251.16" y="41.06" width="1.01" height="3.11"/><rect class="a" x="251.16" y="46.24" width="1.01" height="3.11"/><rect class="a" x="251.16" y="51.42" width="1.01" height="3.11"/><rect class="a" x="2.08" y="51.28" width="1.01" height="3.11"/><rect class="a" x="2.08" y="46.1" width="1.01" height="3.11"/><rect class="a" x="2.08" y="40.93" width="1.01" height="3.11"/><rect class="a" x="2.08" y="35.75" width="1.01" height="3.11"/></svg>