<svg xmlns="http://www.w3.org/2000/svg" viewBox="0 0 216.16 22.11"><defs><style>.a{isolation:isolate;}.b{fill:#fff;}</style></defs><title>F1_text</title><g class="a"><g class="a"><path class="b" d="M56.06,27.78c0,.15,0,.22-.21.22H52.92c-.14,0-.19-.07-.19-.22V12.5c0-.2.07-.22.19-.22h2.93c.14,0,.21.05.21.22Z" transform="translate(-52.73 -11.08)"/><path class="b" d="M65.14,25.22c3.43.16,4.7,1.56,4.7,3.45,0,2.5-2.45,4.51-6.31,4.51s-5.76-2-5.76-3.72c0-.76.62-1.72,2.21-3a3.06,3.06,0,0,1-.51-1.8A3.38,3.38,0,0,1,59.9,23a3.45,3.45,0,0,1-1.65-3.09c0-2.31,1.8-4.11,4.92-4.11a14.64,14.64,0,0,1,2.28.19,2.44,2.44,0,0,0,.57.05h3.29c.12,0,.17.05.17.17v2.23c0,.12,0,.17-.17.17-.36,0-1.15-.07-1.65-.12A3.14,3.14,0,0,1,68,20.08c0,2.54-2.09,3.82-4.76,3.82-.26,0-.55,0-.81,0a1.18,1.18,0,0,0-.05.65,1.29,1.29,0,0,0,.26.62ZM61.73,27.9a2.35,2.35,0,0,0-.91,1.28c0,.74,1,1.56,2.92,1.56,2.14,0,3.05-.75,3.05-1.54s-1.05-1.13-2.4-1.2Zm-.24-8a1.56,1.56,0,0,0,1.7,1.63A1.47,1.47,0,0,0,64.85,20a1.68,1.68,0,1,0-3.36-.07Z" transform="translate(-52.73 -11.08)"/><path class="b" d="M71.38,18.86c0-.82,0-2.07-.1-2.6,0-.12,0-.19.17-.19H74a.28.28,0,0,1,.31.19,3,3,0,0,1,.19.79,5.3,5.3,0,0,1,3.41-1.22c1.85,0,4,1,4,4.83v7.12c0,.15,0,.22-.21.22H78.82c-.17,0-.24-.07-.24-.22V20.94c0-1.44-.63-2.2-1.88-2.2a2.9,2.9,0,0,0-2,.74v8.33c0,.12-.07.19-.21.19H71.59c-.17,0-.21-.07-.21-.22Z" transform="translate(-52.73 -11.08)"/><path class="b" d="M84.67,12.93a1.8,1.8,0,0,1,1.87-1.85,1.74,1.74,0,0,1,1.85,1.85,1.86,1.86,0,1,1-3.72,0Zm.17,3.33c0-.12,0-.19.19-.19h3c.15,0,.2.05.2.19V27.78c0,.15,0,.22-.22.22H85.08c-.17,0-.24-.07-.24-.22Z" transform="translate(-52.73 -11.08)"/><path class="b" d="M97.25,27.59c0,.15,0,.27-.17.31a6,6,0,0,1-2.14.34c-2.09,0-3.31-1-3.31-3.43V18.86H90.19c-.14,0-.19-.08-.19-.22V16.29c0-.17,0-.22.21-.22h1.44a25.09,25.09,0,0,1,.25-2.9.24.24,0,0,1,.21-.22l2.81-.36c.12,0,.19,0,.19.14-.07.75-.12,2.16-.12,3.34H97.2c.14,0,.19.05.19.19v2.43c0,.12,0,.14-.17.17H95V24c0,1.06.31,1.54,1.29,1.54a4.59,4.59,0,0,0,.82-.1c.1,0,.17,0,.17.17Z" transform="translate(-52.73 -11.08)"/><path class="b" d="M101.93,22.91c.12,1.37,1.08,2.5,3.43,2.5a7.49,7.49,0,0,0,3-.55c.07-.05.15,0,.15.12v2.28c0,.16,0,.24-.17.28a8,8,0,0,1-3.67.7c-4.52,0-6.1-3.1-6.1-6.07,0-3.31,2-6.34,5.81-6.34A4.89,4.89,0,0,1,109.39,21a7.74,7.74,0,0,1-.12,1.6.21.21,0,0,1-.19.2c-.31,0-1.22.09-2.47.09Zm3.12-2.33a9.39,9.39,0,0,0,1.2,0v-.17a2,2,0,0,0-2-1.9,2.29,2.29,0,0,0-2.31,2.11Z" transform="translate(-52.73 -11.08)"/><path class="b" d="M119,16.07a.25.25,0,0,1,.24.17c1.37,4.1,2.09,6.6,2.42,7.85.77-2.55,1.52-4.85,2.45-7.85a.25.25,0,0,1,.27-.17h2.85c.17,0,.2.1.17.22-1.73,5.37-4.39,12-6.17,16.1,0,.1-.12.17-.33.17l-3,.24c-.14,0-.19-.07-.12-.22.7-1.44,1.42-3,2.19-4.82a.43.43,0,0,0,0-.41c-.67-1.65-2.93-7.32-4.34-11.09-.08-.12,0-.19.14-.19Z" transform="translate(-52.73 -11.08)"/><path class="b" d="M140,22c0,3.76-2.45,6.26-5.91,6.26-4.1,0-5.92-3.1-5.92-6.19,0-3.41,2.28-6.22,6-6.22C138.05,15.83,140,18.74,140,22Zm-8.45,0c0,2.11,1,3.46,2.59,3.46,1.39,0,2.45-1.2,2.45-3.41,0-1.87-.77-3.43-2.59-3.43C132.65,18.62,131.59,19.86,131.59,22Z" transform="translate(-52.73 -11.08)"/><path class="b" d="M152.64,25.34a21.62,21.62,0,0,0,.14,2.47c0,.14-.05.19-.21.19H150c-.19,0-.24-.05-.29-.17s-.12-.53-.14-.74a4.91,4.91,0,0,1-3.29,1.15c-2.4,0-4.05-1.32-4.05-4.63V16.26c0-.17,0-.19.21-.19h2.93c.14,0,.17.05.17.19v7c0,1.3.55,2.14,1.87,2.14a2.64,2.64,0,0,0,1.87-.7v-8.4c0-.14.07-.19.24-.19h2.91c.16,0,.19.05.19.19Z" transform="translate(-52.73 -11.08)"/><path class="b" d="M158.23,16.07a.27.27,0,0,1,.29.22,4.41,4.41,0,0,1,.26,1.34,5,5,0,0,1,3.82-1.8c.14,0,.19.05.19.19v3c0,.12,0,.16-.22.16a4.92,4.92,0,0,0-3.62,1l0,7.63c0,.14-.05.19-.22.19h-2.88c-.19,0-.24-.07-.24-.22V19.5c0-1,0-2.42-.12-3.26,0-.12,0-.17.14-.17Z" transform="translate(-52.73 -11.08)"/><path class="b" d="M178.27,27.66c0,.12,0,.17-.12.2a7.49,7.49,0,0,1-2.69.38,5.93,5.93,0,0,1-6.33-6.14c0-3.6,2.71-6.27,6.79-6.27a6.75,6.75,0,0,1,2.21.26c.12.05.14.12.14.27l0,2.47c0,.17-.1.19-.2.17a5.86,5.86,0,0,0-2-.29c-2,0-3.48,1.11-3.48,3.27,0,2.49,1.85,3.31,3.53,3.31a7.86,7.86,0,0,0,2-.22c.14-.05.19,0,.19.1Z" transform="translate(-52.73 -11.08)"/><path class="b" d="M183,16.07a.27.27,0,0,1,.29.22,4.74,4.74,0,0,1,.26,1.34,5,5,0,0,1,3.82-1.8c.14,0,.19.05.19.19v3c0,.12-.05.16-.22.16a4.9,4.9,0,0,0-3.62,1l0,7.63c0,.14-.05.19-.21.19H180.6c-.2,0-.24-.07-.24-.22V19.5c0-1,0-2.42-.12-3.26,0-.12,0-.17.14-.17Z" transform="translate(-52.73 -11.08)"/><path class="b" d="M192.07,22.91c.12,1.37,1.08,2.5,3.43,2.5a7.49,7.49,0,0,0,2.95-.55c.08-.05.15,0,.15.12v2.28c0,.16,0,.24-.17.28a8,8,0,0,1-3.67.7c-4.52,0-6.1-3.1-6.1-6.07,0-3.31,2-6.34,5.81-6.34A4.89,4.89,0,0,1,199.53,21a7.08,7.08,0,0,1-.12,1.6.21.21,0,0,1-.19.2c-.31,0-1.22.09-2.47.09Zm3.12-2.33a9.39,9.39,0,0,0,1.2,0v-.17a2,2,0,0,0-2-1.9A2.29,2.29,0,0,0,192,20.58Z" transform="translate(-52.73 -11.08)"/><path class="b" d="M211,25.34c0,.62,0,1.12.05,1.7,0,.05,0,.1-.05.12a13.19,13.19,0,0,1-5.23,1.08c-2.67,0-4.85-1.22-4.85-4,0-2.54,2.23-3.89,5.42-3.89a9.82,9.82,0,0,1,1.42.05v-.17c0-.45-.29-1.51-2.31-1.51a7.61,7.61,0,0,0-3.16.65.14.14,0,0,1-.22-.12V16.82c0-.12,0-.2.17-.24a8.91,8.91,0,0,1,3.77-.75c3.45,0,5,2.14,5,4.87Zm-3.24-2.48a10.64,10.64,0,0,0-1.2-.07c-1.71,0-2.4.55-2.4,1.42s.6,1.44,2.11,1.44a4.71,4.71,0,0,0,1.49-.22Z" transform="translate(-52.73 -11.08)"/><path class="b" d="M219.72,27.59c0,.15,0,.27-.17.31a6,6,0,0,1-2.14.34c-2.09,0-3.31-1-3.31-3.43V18.86h-1.44c-.14,0-.19-.08-.19-.22V16.29c0-.17.05-.22.21-.22h1.44a27.64,27.64,0,0,1,.24-2.9.27.27,0,0,1,.22-.22l2.81-.36c.12,0,.19,0,.19.14-.07.75-.12,2.16-.12,3.34h2.21c.14,0,.19.05.19.19v2.43c0,.12-.05.14-.17.17h-2.25V24c0,1.06.31,1.54,1.29,1.54a4.59,4.59,0,0,0,.82-.1c.09,0,.17,0,.17.17Z" transform="translate(-52.73 -11.08)"/><path class="b" d="M221.66,12.93a1.8,1.8,0,0,1,1.87-1.85,1.74,1.74,0,0,1,1.85,1.85,1.86,1.86,0,1,1-3.72,0Zm.17,3.33c0-.12,0-.19.19-.19H225c.15,0,.19.05.19.19V27.78c0,.15,0,.22-.21.22h-2.88c-.17,0-.24-.07-.24-.22Z" transform="translate(-52.73 -11.08)"/><path class="b" d="M230.92,28a.29.29,0,0,1-.29-.17c-.91-2.71-2.92-8.81-3.91-11.57a.15.15,0,0,1,.17-.19H230a.23.23,0,0,1,.26.17c1.56,5.4,2.09,7.54,2.33,8.62h.05c.24-1.08.86-3.24,2.54-8.62.05-.12.1-.17.22-.17h2.78c.1,0,.19.07.14.22-1,2.83-3,8.9-4,11.52-.08.12-.12.19-.29.19Z" transform="translate(-52.73 -11.08)"/><path class="b" d="M239.85,12.93a1.8,1.8,0,0,1,1.87-1.85,1.74,1.74,0,0,1,1.85,1.85,1.86,1.86,0,1,1-3.72,0Zm.17,3.33c0-.12,0-.19.19-.19h2.95c.15,0,.2.05.2.19V27.78c0,.15,0,.22-.22.22h-2.88c-.17,0-.24-.07-.24-.22Z" transform="translate(-52.73 -11.08)"/><path class="b" d="M252.43,27.59c0,.15,0,.27-.17.31a6,6,0,0,1-2.14.34c-2.08,0-3.31-1-3.31-3.43V18.86h-1.44c-.14,0-.19-.08-.19-.22V16.29c0-.17,0-.22.21-.22h1.44c0-.82.13-2.23.24-2.9a.27.27,0,0,1,.22-.22l2.81-.36c.12,0,.19,0,.19.14-.07.75-.12,2.16-.12,3.34h2.21c.14,0,.19.05.19.19v2.43c0,.12,0,.14-.17.17h-2.25V24c0,1.06.31,1.54,1.29,1.54a4.59,4.59,0,0,0,.82-.1c.1,0,.17,0,.17.17Z" transform="translate(-52.73 -11.08)"/><path class="b" d="M256.89,16.07a.25.25,0,0,1,.24.17c1.37,4.1,2.09,6.6,2.42,7.85.77-2.55,1.52-4.85,2.45-7.85a.25.25,0,0,1,.27-.17h2.85c.17,0,.19.1.17.22-1.73,5.37-4.39,12-6.17,16.1-.05.1-.12.17-.33.17l-3,.24c-.14,0-.19-.07-.12-.22.7-1.44,1.42-3,2.19-4.82a.43.43,0,0,0,0-.41c-.67-1.65-2.93-7.32-4.34-11.09-.08-.12,0-.19.14-.19Z" transform="translate(-52.73 -11.08)"/><path class="b" d="M264.91,26.22a2,2,0,0,1,4,0,1.86,1.86,0,0,1-2,2A1.9,1.9,0,0,1,264.91,26.22Z" transform="translate(-52.73 -11.08)"/></g></g></svg>