<svg xmlns="http://www.w3.org/2000/svg" viewBox="0 0 100 34"><defs><style>.a{fill:#fff;}</style></defs><title>tag_cta_ro</title><path class="a" d="M42.83,16.66h0a1.54,1.54,0,0,0-1.52,1.43h2.86V18A1.3,1.3,0,0,0,42.83,16.66Z" transform="translate(-1 -1)"/><path class="a" d="M20.17,14.58H19v2.8l1.22,0c1.13,0,1.86-.5,1.86-1.4S21.36,14.58,20.17,14.58Z" transform="translate(-1 -1)"/><path class="a" d="M28.1,16.65H28a1.53,1.53,0,0,0-1.51,1.43h2.89V18A1.3,1.3,0,0,0,28.1,16.65Z" transform="translate(-1 -1)"/><path class="a" d="M71.39,16.71c-1,0-1.64.87-1.64,2.17h0c0,1.29.63,2.18,1.7,2.18.87,0,1.61-.71,1.61-2.15C73.09,17.74,72.58,16.71,71.39,16.71Z" transform="translate(-1 -1)"/><path class="a" d="M84,1H18a17,17,0,0,0,0,34H84A17,17,0,0,0,84,1ZM24.55,22.35H22.74c-.11,0-.15,0-.19-.07-.41-.63-1.39-2.24-2-3.22-.1-.17-.17-.24-.33-.24H19v3.42c0,.09,0,.11-.11.11H17.46c-.08,0-.11,0-.11-.11V13.29c0-.07,0-.13.1-.13h2.77c2.24,0,3.56,1,3.56,2.76A2.6,2.6,0,0,1,22,18.35c.47.64,2.15,3.15,2.55,3.85C24.6,22.28,24.61,22.35,24.55,22.35ZM31,18.26a4.25,4.25,0,0,1-.06.87.11.11,0,0,1-.11.1,11.56,11.56,0,0,1-1.44.06H26.52c0,1,.69,1.76,2.12,1.76a4.47,4.47,0,0,0,1.73-.33c.05,0,.09,0,.09.05v1.16a.15.15,0,0,1-.09.16,4.74,4.74,0,0,1-2.1.4,3.23,3.23,0,0,1-3.46-3,2.35,2.35,0,0,1,0-.53c0-1.95,1.18-3.67,3.29-3.67A2.78,2.78,0,0,1,31,18,1.5,1.5,0,0,1,31,18.26Zm7.2,4c0,.1,0,.12-.11.12H36.66c-.08,0-.13,0-.13-.12v-4c0-.93-.39-1.46-1.2-1.46a1.84,1.84,0,0,0-1.36.57v4.89a.1.1,0,0,1-.09.11H32.39c-.09,0-.11,0-.11-.11V17.06a11.12,11.12,0,0,0-.06-1.51c0-.07,0-.1.1-.1h1.27c.1,0,.14,0,.17.1a3.1,3.1,0,0,1,.1.53,3,3,0,0,1,2-.77c1,0,2.34.53,2.34,2.77Zm7.52-4a4.25,4.25,0,0,1-.06.87.11.11,0,0,1-.11.1,11.56,11.56,0,0,1-1.44.06H41.26c.05,1,.69,1.76,2.12,1.76a4.49,4.49,0,0,0,1.74-.33s.08,0,.08.05v1.16a.15.15,0,0,1-.08.16,4.74,4.74,0,0,1-2.1.4,3.23,3.23,0,0,1-3.46-3,2.35,2.35,0,0,1,0-.53c0-1.95,1.17-3.67,3.29-3.67A2.78,2.78,0,0,1,45.72,18,1.22,1.22,0,0,1,45.72,18.26Zm8.82,4c0,.09-.06.11-.16.11l-1.54,0c-.09,0-.12,0-.15-.12-.81-3.13-1-4.37-1.19-5.06-.33,1.4-.68,2.75-1.34,5.07,0,.09-.07.11-.15.11H48.47c-.14,0-.15,0-.18-.11l-1.82-6.66c0-.07,0-.11.1-.11h1.54c.07,0,.1,0,.11.08.84,3.29,1.05,4.62,1.15,5.19.11-.5.35-1.77,1.27-5.16,0-.08,0-.11.13-.11h1.61c.07,0,.1,0,.11.08.87,3.42,1.07,4.67,1.18,5.23a51.75,51.75,0,0,1,1.25-5.2s0-.08.12-.08h1.42s.11,0,.08.1Zm12.2-.06c0,.1,0,.12-.11.12H65.15c-.09,0-.13,0-.13-.12v-4c0-.93-.39-1.46-1.2-1.46a1.84,1.84,0,0,0-1.36.57v4.89a.1.1,0,0,1-.09.11H60.88c-.09,0-.12,0-.12-.11V15.55c0-.07,0-.1.1-.1h1.27c.1,0,.14,0,.17.1a3.1,3.1,0,0,1,.1.53,3,3,0,0,1,2-.77c1,0,2.34.53,2.34,2.77Zm8-3.36a3.38,3.38,0,0,1-6.74.52,4.51,4.51,0,0,1,0-.52,3.38,3.38,0,0,1,3.15-3.59h.26a3.28,3.28,0,0,1,3.35,3.21C74.8,18.61,74.79,18.74,74.78,18.87Zm8.72,3.39c0,.09-.06.11-.16.11l-1.49,0c-.1,0-.12,0-.15-.12-.81-3.13-1-4.37-1.19-5.06-.32,1.4-.67,2.75-1.33,5.07a.13.13,0,0,1-.15.11H77.48c-.14,0-.15,0-.18-.11l-1.82-6.66c0-.07,0-.11.1-.11h1.54c.07,0,.1,0,.11.08.84,3.29,1,4.62,1.15,5.19.11-.5.35-1.77,1.27-5.16,0-.08,0-.11.13-.11h1.61c.07,0,.1,0,.11.08.87,3.42,1.06,4.67,1.18,5.23.17-.84.38-2.24,1.19-5.23a.13.13,0,0,1,.13-.08h1.42s.11,0,.08.1Z" transform="translate(-1 -1)"/></svg>