<svg xmlns="http://www.w3.org/2000/svg" viewBox="0 0 196.74 18.69"><defs><style>.a{isolation:isolate;}.b{fill:#fff;}</style></defs><title>tag_headline2</title><g class="a"><path class="b" d="M7.93,24.56c0,.15,0,.28-.18.34a6.5,6.5,0,0,1-2.32.36c-2.26,0-3.58-1.12-3.58-3.72V15.09H.29c-.16,0-.21-.07-.21-.23V12.31c0-.18.05-.23.23-.23H1.87a29.5,29.5,0,0,1,.26-3.15.28.28,0,0,1,.24-.23l3-.39c.13,0,.21,0,.21.15-.08.81-.13,2.34-.13,3.62H7.88c.15,0,.21.05.21.21v2.62c0,.13-.06.16-.19.18H5.46v5.57c0,1.14.34,1.66,1.4,1.66a5.27,5.27,0,0,0,.89-.1c.1,0,.18,0,.18.18Z" transform="translate(-0.08 -6.57)"/><path class="b" d="M22.07,18.47c0,4.09-2.65,6.79-6.39,6.79-4.45,0-6.42-3.35-6.42-6.71,0-3.69,2.47-6.73,6.47-6.73C19.92,11.82,22.07,15,22.07,18.47Zm-9.15,0c0,2.29,1.07,3.74,2.81,3.74,1.51,0,2.65-1.3,2.65-3.69,0-2-.83-3.72-2.81-3.72C14.07,14.83,12.92,16.19,12.92,18.5Z" transform="translate(-0.08 -6.57)"/><path class="b" d="M42.46,24.43c0,.18-.05.31-.21.36a11.45,11.45,0,0,1-3.61.47c-5,0-9-3-9-8.68,0-5.28,3.64-8.87,9.38-8.87a8.67,8.67,0,0,1,3.38.44.29.29,0,0,1,.18.31V11.3c0,.23-.13.23-.23.18A8.08,8.08,0,0,0,39,10.91c-3.48,0-5.62,2.16-5.62,5.54,0,4.05,3,5.59,5.7,5.59a9.74,9.74,0,0,0,3.17-.42c.13-.05.21,0,.21.13Z" transform="translate(-0.08 -6.57)"/><path class="b" d="M47.71,12.08a.29.29,0,0,1,.31.23,5.14,5.14,0,0,1,.29,1.46,5.41,5.41,0,0,1,4.13-1.95c.16,0,.21,0,.21.21v3.19c0,.13,0,.19-.23.19a5.36,5.36,0,0,0-3.93,1.11l0,8.27c0,.16-.05.21-.23.21H45.11c-.21,0-.26-.08-.26-.23v-9c0-1.12,0-2.63-.13-3.54,0-.13,0-.18.16-.18Z" transform="translate(-0.08 -6.57)"/><path class="b" d="M57.48,19.49c.13,1.48,1.17,2.7,3.72,2.7a8,8,0,0,0,3.2-.6c.08-.05.16,0,.16.13v2.47a.3.3,0,0,1-.18.32,8.84,8.84,0,0,1-4,.75c-4.89,0-6.61-3.35-6.61-6.58,0-3.59,2.21-6.86,6.29-6.86s5.49,3,5.49,5.61a8.28,8.28,0,0,1-.13,1.75.21.21,0,0,1-.21.2,21.47,21.47,0,0,1-2.67.11ZM60.87,17a7.42,7.42,0,0,0,1.3-.06v-.18A2.12,2.12,0,0,0,60,14.68,2.46,2.46,0,0,0,57.46,17Z" transform="translate(-0.08 -6.57)"/><path class="b" d="M78,22.11c0,.68,0,1.23,0,1.85,0,.05,0,.1,0,.13a14.41,14.41,0,0,1-5.67,1.17c-2.88,0-5.25-1.33-5.25-4.34,0-2.76,2.42-4.21,5.88-4.21a11.34,11.34,0,0,1,1.53.05v-.18c0-.5-.31-1.64-2.49-1.64a8.41,8.41,0,0,0-3.44.7.15.15,0,0,1-.23-.13V12.88a.23.23,0,0,1,.18-.26,9.9,9.9,0,0,1,4.08-.8c3.75,0,5.41,2.31,5.41,5.28Zm-3.51-2.67a8.47,8.47,0,0,0-1.3-.08c-1.84,0-2.6.6-2.6,1.53s.65,1.56,2.29,1.56a5.4,5.4,0,0,0,1.61-.23Z" transform="translate(-0.08 -6.57)"/><path class="b" d="M87.33,24.56c0,.15,0,.28-.18.34a6.44,6.44,0,0,1-2.31.36c-2.27,0-3.59-1.12-3.59-3.72V15.09H79.69c-.16,0-.21-.07-.21-.23V12.31c0-.18,0-.23.23-.23h1.56a29.5,29.5,0,0,1,.26-3.15.28.28,0,0,1,.24-.23l3-.39c.13,0,.21,0,.21.15-.08.81-.13,2.34-.13,3.62h2.39c.16,0,.21.05.21.21v2.62c0,.13,0,.16-.18.18H84.86v5.57c0,1.14.34,1.66,1.41,1.66a5.27,5.27,0,0,0,.88-.1c.1,0,.18,0,.18.18Z" transform="translate(-0.08 -6.57)"/><path class="b" d="M89.39,8.67a1.94,1.94,0,0,1,2-2,1.89,1.89,0,0,1,2,2,1.92,1.92,0,0,1-2,2A1.89,1.89,0,0,1,89.39,8.67Zm.18,3.62c0-.13.05-.21.21-.21H93c.16,0,.21.05.21.21V24.77c0,.15,0,.23-.23.23H89.83c-.18,0-.26-.08-.26-.23Z" transform="translate(-0.08 -6.57)"/><path class="b" d="M99.37,25a.31.31,0,0,1-.31-.18c-1-2.94-3.17-9.54-4.24-12.53,0-.11,0-.21.18-.21h3.41c.18,0,.23.05.28.18,1.69,5.85,2.27,8.16,2.53,9.33h0c.26-1.17.93-3.51,2.75-9.33.06-.13.11-.18.24-.18h3a.16.16,0,0,1,.16.23c-1.12,3.07-3.3,9.65-4.34,12.48-.08.13-.13.21-.31.21Z" transform="translate(-0.08 -6.57)"/><path class="b" d="M112,19.49c.13,1.48,1.17,2.7,3.72,2.7a8,8,0,0,0,3.2-.6c.07-.05.15,0,.15.13v2.47c0,.19,0,.26-.18.32a8.78,8.78,0,0,1-4,.75c-4.89,0-6.6-3.35-6.6-6.58,0-3.59,2.21-6.86,6.29-6.86s5.49,3,5.49,5.61a9,9,0,0,1-.13,1.75.22.22,0,0,1-.21.2,21.81,21.81,0,0,1-2.68.11ZM115.36,17a7.33,7.33,0,0,0,1.3-.06v-.18a2.11,2.11,0,0,0-2.21-2.05A2.47,2.47,0,0,0,112,17Z" transform="translate(-0.08 -6.57)"/><path class="b" d="M140.42,24.43c0,.18,0,.31-.21.36a11.36,11.36,0,0,1-3.61.47c-5,0-9-3-9-8.68,0-5.28,3.64-8.87,9.39-8.87a8.7,8.7,0,0,1,3.38.44.29.29,0,0,1,.18.31V11.3c0,.23-.13.23-.23.18a8.1,8.1,0,0,0-3.39-.57c-3.48,0-5.61,2.16-5.61,5.54,0,4.05,3,5.59,5.69,5.59a9.66,9.66,0,0,0,3.17-.42c.14-.05.21,0,.21.13Z" transform="translate(-0.08 -6.57)"/><path class="b" d="M142.74,6.77c0-.13,0-.2.26-.2h3.09c.18,0,.26.07.26.2V21.33c0,.73.23,1,.86,1l.47,0c.1,0,.13.05.13.18v2.23c0,.21,0,.26-.18.32a4.35,4.35,0,0,1-1.62.23c-1.87,0-3.27-.7-3.27-3.59Z" transform="translate(-0.08 -6.57)"/><path class="b" d="M162,18.47c0,4.09-2.65,6.79-6.4,6.79-4.44,0-6.42-3.35-6.42-6.71,0-3.69,2.47-6.73,6.48-6.73C159.79,11.82,162,15,162,18.47Zm-9.15,0c0,2.29,1.06,3.74,2.81,3.74,1.5,0,2.65-1.3,2.65-3.69,0-2-.83-3.72-2.81-3.72C153.94,14.83,152.8,16.19,152.8,18.5Z" transform="translate(-0.08 -6.57)"/><path class="b" d="M175.55,22.11a21.4,21.4,0,0,0,.16,2.68c0,.16-.06.21-.24.21h-2.76c-.2,0-.26-.05-.31-.18a7.67,7.67,0,0,1-.15-.81,5.31,5.31,0,0,1-3.57,1.25c-2.6,0-4.39-1.43-4.39-5V12.29c0-.19.05-.21.23-.21h3.18c.15,0,.18.05.18.21v7.54c0,1.4.6,2.31,2,2.31a2.88,2.88,0,0,0,2-.75v-9.1c0-.16.08-.21.26-.21h3.15c.18,0,.21.05.21.21Z" transform="translate(-0.08 -6.57)"/><path class="b" d="M177.91,18.66c0-3.72,2.79-6.84,7.54-6.84.21,0,.47,0,.86,0V6.75a.16.16,0,0,1,.18-.18h3.28c.13,0,.16,0,.16.15V22.09A14.35,14.35,0,0,0,190,24c0,.13,0,.18-.18.23a13.15,13.15,0,0,1-5.12,1C180.88,25.26,177.91,23.08,177.91,18.66Zm8.4-3.7a2.79,2.79,0,0,0-1-.13,3.48,3.48,0,0,0-3.72,3.64c0,2.58,1.48,3.7,3.46,3.7a3.64,3.64,0,0,0,1.22-.16Z" transform="translate(-0.08 -6.57)"/><path class="b" d="M192.5,23.08a2.16,2.16,0,0,1,4.32,0,2,2,0,0,1-2.16,2.18A2.05,2.05,0,0,1,192.5,23.08Z" transform="translate(-0.08 -6.57)"/></g></svg>