<svg xmlns="http://www.w3.org/2000/svg" viewBox="0 0 102 36"><defs><style>.a{isolation:isolate;}.b{fill:#fff;}.c{fill:none;stroke:#fff;stroke-width:2px;}</style></defs><title>tag_cta</title><g class="a"><g class="a"><path class="b" d="M17.46,22.77c-.08,0-.11,0-.11-.11V13.71c0-.07,0-.13.1-.13,1.11,0,1.69,0,2.77,0,2.24,0,3.56,1,3.56,2.76A2.6,2.6,0,0,1,22,18.77c.47.64,2.15,3.15,2.55,3.85.05.08.06.15,0,.15H22.74c-.11,0-.15,0-.19-.07-.41-.63-1.39-2.24-2-3.22-.1-.17-.17-.24-.33-.24H19v3.42c0,.09,0,.11-.11.11Zm2.78-5c1.13,0,1.86-.5,1.86-1.4S21.36,15,20.17,15c-.48,0-.93,0-1.15,0V17.8Z" transform="translate(0 -0.42)"/><path class="b" d="M26.52,19.71c0,1,.69,1.76,2.12,1.76a4.44,4.44,0,0,0,1.73-.33c.05,0,.09,0,.09.05v1.16a.15.15,0,0,1-.09.16,4.65,4.65,0,0,1-2.1.4,3.23,3.23,0,0,1-3.46-3.51c0-1.95,1.18-3.67,3.29-3.67A2.78,2.78,0,0,1,31,18.68a4.25,4.25,0,0,1-.06.87.11.11,0,0,1-.11.1,10.85,10.85,0,0,1-1.44.06Zm2.09-1.21h.77v-.11A1.3,1.3,0,0,0,28,17.07a1.53,1.53,0,0,0-1.51,1.43Z" transform="translate(0 -0.42)"/><path class="b" d="M32.28,17.48c0-.48,0-1.23-.06-1.51,0-.07,0-.1.1-.1h1.27c.1,0,.14,0,.17.1a3.14,3.14,0,0,1,.1.53,3,3,0,0,1,2-.77c1,0,2.34.53,2.34,2.77v4.15c0,.1,0,.12-.11.12H36.66c-.08,0-.13,0-.13-.12v-4c0-.93-.39-1.46-1.2-1.46a1.81,1.81,0,0,0-1.36.57v4.89a.1.1,0,0,1-.11.11H32.39c-.09,0-.11,0-.11-.11Z" transform="translate(0 -0.42)"/><path class="b" d="M41.26,19.71c.05,1,.69,1.76,2.12,1.76a4.53,4.53,0,0,0,1.74-.33s.08,0,.08.05v1.16a.16.16,0,0,1-.08.16,4.72,4.72,0,0,1-2.1.4,3.23,3.23,0,0,1-3.46-3.51c0-1.95,1.17-3.67,3.29-3.67a2.78,2.78,0,0,1,2.87,2.95,4.25,4.25,0,0,1-.06.87.11.11,0,0,1-.11.1,10.85,10.85,0,0,1-1.44.06Zm2.09-1.21h.77v-.11a1.3,1.3,0,0,0-1.34-1.31,1.54,1.54,0,0,0-1.52,1.43Z" transform="translate(0 -0.42)"/><path class="b" d="M52.84,22.77c-.09,0-.12,0-.15-.12-.81-3.13-1-4.37-1.19-5.06h0c-.33,1.4-.68,2.75-1.34,5.07,0,.09-.07.11-.15.11H48.47c-.14,0-.15,0-.18-.11L46.47,16c0-.07,0-.11.1-.11h1.54c.07,0,.1,0,.11.08.84,3.29,1.05,4.62,1.15,5.19h0c.11-.5.35-1.77,1.27-5.16,0-.08,0-.11.13-.11h1.61c.07,0,.1,0,.11.08.87,3.42,1.07,4.67,1.18,5.23h0A52,52,0,0,1,54.92,16s0-.08.12-.08h1.42s.11,0,.08.1l-2,6.69c0,.09-.06.11-.16.11Z" transform="translate(0 -0.42)"/><path class="b" d="M60.76,17.48c0-.48,0-1.23,0-1.51,0-.07,0-.1.1-.1h1.27c.1,0,.14,0,.17.1a3.14,3.14,0,0,1,.1.53,3,3,0,0,1,2-.77c1.05,0,2.34.53,2.34,2.77v4.15c0,.1,0,.12-.11.12H65.15c-.09,0-.13,0-.13-.12v-4c0-.93-.39-1.46-1.2-1.46a1.81,1.81,0,0,0-1.36.57v4.89a.1.1,0,0,1-.11.11H60.88c-.09,0-.12,0-.12-.11Z" transform="translate(0 -0.42)"/><path class="b" d="M74.78,19.29a3.38,3.38,0,1,1-6.74,0,3.38,3.38,0,0,1,3.41-3.6A3.28,3.28,0,0,1,74.78,19.29Zm-5,0c0,1.29.63,2.18,1.7,2.18.87,0,1.61-.71,1.61-2.15,0-1.16-.51-2.19-1.7-2.19C70.43,17.14,69.75,18,69.75,19.3Z" transform="translate(0 -0.42)"/><path class="b" d="M81.85,22.77c-.1,0-.12,0-.15-.12-.81-3.13-1-4.37-1.19-5.06h0c-.32,1.4-.67,2.75-1.33,5.07a.13.13,0,0,1-.15.11H77.48c-.14,0-.15,0-.18-.11L75.48,16c0-.07,0-.11.1-.11h1.54c.07,0,.1,0,.11.08.84,3.29,1,4.62,1.15,5.19h0c.11-.5.35-1.77,1.27-5.16,0-.08,0-.11.13-.11h1.61c.07,0,.1,0,.11.08.87,3.42,1.06,4.67,1.18,5.23h0c.17-.84.38-2.24,1.19-5.23a.13.13,0,0,1,.13-.08h1.42s.11,0,.08.1l-2,6.69c0,.09-.06.11-.16.11Z" transform="translate(0 -0.42)"/></g></g><path class="c" d="M18,1.42H84a17,17,0,0,1,17,17h0a17,17,0,0,1-17,17H18a17,17,0,0,1-17-17H1A17,17,0,0,1,18,1.42Z" transform="translate(0 -0.42)"/></svg>