<?xml version="1.0" encoding="utf-8"?>
<!-- Generator: Adobe Illustrator 22.1.0, SVG Export Plug-In . SVG Version: 6.00 Build 0)  -->
<svg version="1.1" id="Layer_1" xmlns="http://www.w3.org/2000/svg" xmlns:xlink="http://www.w3.org/1999/xlink" x="0px" y="0px"
	 viewBox="0 0 151 51.6" style="enable-background:new 0 0 151 51.6;" xml:space="preserve">
<style type="text/css">
	.st0{fill:#FFFFFF;}
</style>
<title>tag_headline2</title>
<path class="st0" d="M13.1,18.2c0,0.2-0.1,0.2-0.3,0.2H2.2C2,18.4,2,18.4,2,18.2V1.6c0-0.2,0-0.2,0.2-0.2h10.3c0.2,0,0.3,0,0.3,0.2
	l0.3,2.8c0,0.1,0,0.2-0.2,0.2H5.6v3.5h6.6c0.1,0,0.2,0.1,0.2,0.2v2.9c0,0.2-0.1,0.2-0.2,0.2H5.6v3.8h7.7c0.2,0,0.2,0.1,0.2,0.2
	L13.1,18.2z"/>
<path class="st0" d="M15.5,8.5c0-0.9-0.1-2.2-0.1-2.8c0-0.1,0-0.2,0.2-0.2h2.7c0.1,0,0.3,0.1,0.3,0.2c0.1,0.3,0.2,0.6,0.2,0.9
	c1-0.9,2.3-1.3,3.7-1.3c2,0,4.4,1,4.4,5.2v7.7c0,0.1,0,0.2-0.2,0.2h-3.1c-0.2,0-0.3-0.1-0.3-0.2v-7.4c0-1.6-0.7-2.4-2-2.4
	c-0.8,0-1.6,0.3-2.2,0.8v9c0,0.1-0.1,0.2-0.2,0.2c0,0,0,0,0,0h-3.2c-0.2,0-0.2-0.1-0.2-0.2L15.5,8.5z"/>
<path class="st0" d="M29.3,12.1c0-3.7,2.8-6.8,7.5-6.8c0.2,0,0.5,0,0.9,0V0.2c0-0.1,0-0.2,0.1-0.2c0,0,0,0,0,0h3.3
	c0.1,0,0.2,0,0.2,0.2v15.4c0,0.6,0,1.3,0.1,1.9c0,0.1,0,0.2-0.2,0.2c-1.6,0.7-3.4,1-5.1,1C32.2,18.7,29.3,16.5,29.3,12.1z M37.7,8.4
	c-0.3-0.1-0.7-0.1-1-0.1c-1.9-0.1-3.6,1.3-3.7,3.2c0,0.1,0,0.3,0,0.4c0,2.6,1.5,3.7,3.5,3.7c0.4,0,0.9,0,1.3-0.2V8.4z"/>
<path class="st0" d="M44.4,0.2c0-0.1,0-0.2,0.3-0.2h3.1C47.9,0,48,0.1,48,0.2v14.6c0,0.7,0.2,1,0.8,1c0.2,0,0.3,0,0.5,0
	c0.1,0,0.1,0,0.1,0.2v2.2c0,0.2,0,0.3-0.2,0.3c-0.5,0.2-1.1,0.3-1.6,0.2c-1.9,0-3.3-0.7-3.3-3.6L44.4,0.2z"/>
<path class="st0" d="M54.5,12.9c0.1,1.5,1.2,2.7,3.7,2.7c1.1,0,2.2-0.2,3.2-0.6c0.1,0,0.2,0,0.2,0.1v2.5c0,0.2,0,0.3-0.2,0.3
	c-1.3,0.6-2.6,0.8-4,0.8c-4.9,0-6.6-3.4-6.6-6.6c0-3.6,2.2-6.9,6.3-6.9s5.5,3,5.5,5.6c0,0.6,0,1.2-0.1,1.8c0,0.1-0.1,0.2-0.2,0.2
	c-0.9,0.1-1.8,0.1-2.7,0.1H54.5z M57.9,10.4c0.4,0,0.9,0,1.3-0.1v-0.2c0-1.2-1-2.1-2.2-2.1c0,0,0,0,0,0c-1.3,0-2.4,1-2.5,2.3H57.9z"
	/>
<path class="st0" d="M69.3,8.1c-1.2,0-1.6,0.4-1.6,0.9s0.3,0.8,1.8,1.4c3.2,1.1,4.1,2.4,4.1,4.2c0,2.5-1.9,4.1-5.4,4.1
	c-1.3,0-2.6-0.2-3.8-0.7c-0.1,0-0.2-0.2-0.2-0.3v-2.8c0-0.2,0.1-0.2,0.2-0.2c1.2,0.7,2.5,1,3.8,1c1.2,0,1.8-0.3,1.8-0.9
	s-0.4-0.9-2-1.4c-2.9-1.1-3.9-2.3-3.9-4.2c0-2,1.6-4,5.1-4c1.2-0.1,2.3,0.1,3.4,0.5c0.1,0.1,0.2,0.2,0.2,0.3v2.6
	c0,0.1-0.1,0.3-0.3,0.2C71.6,8.4,70.4,8.1,69.3,8.1z"/>
<path class="st0" d="M80.3,8.1c-1.2,0-1.6,0.4-1.6,0.9s0.3,0.8,1.8,1.4c3.1,1.1,4.1,2.4,4.1,4.2c0,2.5-1.9,4.1-5.4,4.1
	c-1.3,0-2.6-0.2-3.8-0.7c-0.1,0-0.2-0.2-0.2-0.3v-2.8c0-0.2,0.1-0.2,0.2-0.2c1.2,0.7,2.5,1,3.8,1c1.2,0,1.8-0.3,1.8-0.9
	s-0.4-0.9-2-1.4c-2.9-1.1-3.9-2.3-3.9-4.2c0-2,1.6-4,5.1-4c1.2-0.1,2.3,0.1,3.4,0.5c0.1,0.1,0.2,0.2,0.2,0.3v2.6
	c0,0.1-0.1,0.3-0.3,0.2C82.6,8.4,81.5,8.1,80.3,8.1z"/>
<path class="st0" d="M103.2,18.4c-0.1,0-0.3-0.1-0.3-0.2c-1.3-5.3-1.7-7.7-2-9l0,0c-0.7,2.9-1.2,5-2.3,9c-0.1,0.2-0.1,0.2-0.3,0.2
	h-3.3c-0.3,0-0.3,0-0.4-0.2L91.4,5.7c-0.1-0.1,0-0.2,0.2-0.2h3.3c0.2,0,0.2,0.1,0.2,0.2c1.4,5.6,1.7,8.1,1.9,9.2l0,0
	c0.2-0.9,0.6-3.4,2.1-9.1c0-0.1,0-0.2,0.2-0.2h3.4c0.1,0,0.2,0.1,0.2,0.2c1.4,5.8,1.8,8.3,1.9,9.3l0,0c0.4-1.7,0.8-4.5,2-9.3
	c0-0.1,0.1-0.2,0.2-0.2h3c0.1,0,0.2,0.1,0.2,0.2l-3.7,12.5c-0.1,0.2-0.1,0.2-0.3,0.2L103.2,18.4z"/>
<path class="st0" d="M122,15.5c0,0.7,0,1.2,0,1.9c0,0,0,0.1,0,0.1c-1.8,0.8-3.7,1.2-5.7,1.2c-2.9,0-5.3-1.3-5.3-4.3
	c0-2.8,2.4-4.2,5.9-4.2c0.5,0,1,0,1.5,0V10c0-0.5-0.3-1.6-2.5-1.6c-1.2,0-2.3,0.2-3.4,0.7c-0.1,0-0.2,0-0.2-0.1c0,0,0,0,0-0.1V6.3
	c0-0.1,0-0.2,0.2-0.3c1.3-0.6,2.7-0.8,4.1-0.8c3.7,0,5.4,2.3,5.4,5.3L122,15.5z M118.5,12.9c-0.4-0.1-0.9-0.1-1.3-0.1
	c-1.8,0-2.6,0.6-2.6,1.5s0.7,1.6,2.3,1.6c0.5,0,1.1-0.1,1.6-0.2V12.9z"/>
<path class="st0" d="M126.8,5.5c0.1,0,0.2,0.1,0.3,0.2c1.5,4.4,2.3,7.1,2.6,8.5c0.8-2.8,1.6-5.3,2.7-8.5c0-0.1,0.2-0.2,0.3-0.2h3.1
	c0.2,0,0.2,0.1,0.2,0.2c-1.9,5.8-4.8,13-6.7,17.5c-0.1,0.1-0.1,0.2-0.4,0.2l-3.3,0.3c-0.2,0-0.2-0.1-0.1-0.2
	c0.8-1.6,1.5-3.3,2.4-5.2c0.1-0.1,0.1-0.3,0-0.4c-0.7-1.8-3.2-7.9-4.7-12c-0.1-0.1,0-0.2,0.2-0.2L126.8,5.5z"/>
<path class="st0" d="M142,8.1c-1.2,0-1.6,0.4-1.6,0.9s0.3,0.8,1.9,1.4c3.1,1.1,4.1,2.4,4.1,4.2c0,2.5-1.9,4.1-5.4,4.1
	c-1.3,0.1-2.6-0.2-3.8-0.7c-0.1-0.1-0.2-0.1-0.2-0.3v-2.8c0-0.2,0.1-0.2,0.2-0.2c1.2,0.7,2.5,1,3.8,1c1.2,0,1.8-0.3,1.8-0.9
	s-0.4-0.9-2-1.4c-2.9-1.1-3.9-2.3-3.9-4.2c0-2,1.6-4,5.1-4c1.2-0.1,2.3,0.1,3.4,0.5c0.1,0.1,0.2,0.2,0.2,0.3v2.6
	c0,0.1-0.1,0.3-0.3,0.2C144.3,8.4,143.2,8.1,142,8.1z"/>
<path class="st0" d="M9.9,48c0,0.2,0,0.3-0.2,0.3c-0.7,0.3-1.5,0.4-2.3,0.4c-2.3,0-3.6-1.1-3.6-3.7v-6.5H2.2c-0.2,0-0.2-0.1-0.2-0.2
	v-2.5c0-0.2,0.1-0.2,0.2-0.2h1.6c0-1.1,0.1-2.1,0.3-3.2c0-0.1,0.1-0.2,0.2-0.2l3-0.4c0.1,0,0.2,0,0.2,0.1c-0.1,0.8-0.1,2.3-0.1,3.6
	h2.4c0.1,0,0.2,0,0.2,0.2v2.6c0,0.1-0.1,0.2-0.2,0.2H7.3v5.6c0,1.1,0.3,1.7,1.4,1.7c0.3,0,0.6,0,0.9-0.1c0.1,0,0.2,0,0.2,0.2L9.9,48
	z"/>
<path class="st0" d="M24,41.9c0,4.1-2.6,6.8-6.4,6.8c-4.4,0-6.4-3.3-6.4-6.7c0-3.7,2.5-6.7,6.5-6.7C21.8,35.3,24,38.4,24,41.9z
	 M14.9,41.9c0,2.3,1.1,3.7,2.8,3.7c1.5,0,2.6-1.3,2.6-3.7c0-2-0.8-3.7-2.8-3.7C16,38.3,14.9,39.6,14.9,41.9L14.9,41.9z"/>
<path class="st0" d="M41.4,48.1c0,0.1,0,0.2-0.1,0.2c-0.9,0.3-1.9,0.5-2.9,0.4c-4.2,0-6.9-2.8-6.9-6.7s2.9-6.8,7.4-6.8
	c0.8,0,1.6,0.1,2.4,0.3c0.1,0.1,0.2,0.1,0.2,0.3v2.7c0,0.2-0.1,0.2-0.2,0.2c-0.7-0.2-1.4-0.3-2.2-0.3c-2.2,0-3.8,1.2-3.8,3.5
	c0,2.7,2,3.6,3.8,3.6c0.7,0,1.4-0.1,2.1-0.2c0.2,0,0.2,0,0.2,0.1L41.4,48.1z"/>
<path class="st0" d="M46.4,35.5c0.1,0,0.3,0.1,0.3,0.2c0.2,0.5,0.3,1,0.3,1.5c1-1.2,2.5-1.9,4.1-2c0.2,0,0.2,0,0.2,0.2v3.2
	c0,0.1-0.1,0.2-0.2,0.2c-1.4-0.2-2.8,0.2-3.9,1.1v8.3c0,0.2-0.1,0.2-0.2,0.2h-3.1c-0.2,0-0.3-0.1-0.3-0.2v-9c0-1.1,0-2.6-0.1-3.5
	c0-0.1,0-0.2,0.2-0.2L46.4,35.5z"/>
<path class="st0" d="M56.2,42.9c0.1,1.5,1.2,2.7,3.7,2.7c1.1,0,2.2-0.2,3.2-0.6c0.1,0,0.2,0,0.2,0.1v2.5c0,0.2,0,0.3-0.2,0.3
	c-1.3,0.6-2.6,0.8-4,0.8c-4.9,0-6.6-3.4-6.6-6.6c0-3.6,2.2-6.9,6.3-6.9c3.9,0,5.5,3,5.5,5.6c0,0.6,0,1.2-0.1,1.8
	c0,0.1-0.1,0.2-0.2,0.2c-0.9,0.1-1.8,0.1-2.7,0.1H56.2z M59.6,40.4c0.4,0,0.9,0,1.3-0.1v-0.2c0-1.2-1-2.1-2.2-2.1c0,0,0,0,0,0
	c-1.3,0-2.4,1-2.5,2.3H59.6z"/>
<path class="st0" d="M76.7,45.5c0,0.6,0,1.2,0.1,1.8c0,0,0,0.1-0.1,0.1c-1.8,0.8-3.7,1.2-5.7,1.2c-2.9,0-5.3-1.3-5.3-4.3
	c0-2.8,2.4-4.2,5.9-4.2c0.5,0,1,0,1.5,0V40c0-0.5-0.3-1.6-2.5-1.6c-1.2,0-2.4,0.2-3.4,0.7c-0.1,0-0.2,0-0.2,0c0,0,0-0.1,0-0.1v-2.6
	c0-0.1,0.1-0.2,0.2-0.3c1.3-0.6,2.7-0.8,4.1-0.8c3.7,0,5.4,2.3,5.4,5.3L76.7,45.5z M73.2,42.9c-0.4-0.1-0.9-0.1-1.3-0.1
	c-1.8,0-2.6,0.6-2.6,1.5s0.6,1.6,2.3,1.6c0.5,0,1.1-0.1,1.6-0.2L73.2,42.9z"/>
<path class="st0" d="M86.1,48c0,0.2,0,0.3-0.2,0.3c-0.7,0.3-1.5,0.4-2.3,0.4c-2.3,0-3.6-1.1-3.6-3.7v-6.5h-1.6
	c-0.2,0-0.2-0.1-0.2-0.2v-2.5c0-0.2,0-0.2,0.2-0.2H80c0-1.1,0.1-2.1,0.3-3.2c0-0.1,0.1-0.2,0.2-0.2l3-0.4c0.1,0,0.2,0,0.2,0.1
	c-0.1,0.8-0.1,2.3-0.1,3.6H86c0.2,0,0.2,0,0.2,0.2v2.6c0,0.1-0.1,0.2-0.2,0.2h-2.4v5.6c0,1.1,0.3,1.7,1.4,1.7c0.3,0,0.6,0,0.9-0.1
	c0.1,0,0.2,0,0.2,0.2L86.1,48z"/>
<path class="st0" d="M91.1,42.9c0.1,1.5,1.2,2.7,3.7,2.7c1.1,0,2.2-0.2,3.2-0.6c0.1,0,0.1,0,0.1,0.1v2.5c0,0.2-0.1,0.3-0.2,0.3
	c-1.3,0.6-2.6,0.8-4,0.8c-4.9,0-6.6-3.4-6.6-6.6c0-3.6,2.2-6.9,6.3-6.9c3.9,0,5.5,3,5.5,5.6c0,0.6,0,1.2-0.1,1.8
	c0,0.1-0.1,0.2-0.2,0.2c-0.9,0.1-1.8,0.1-2.7,0.1H91.1z M94.5,40.4c0.4,0,0.9,0,1.3-0.1v-0.2c0-1.2-1-2.1-2.2-2.1c0,0,0,0,0,0
	c-1.3,0-2.4,1-2.5,2.3H94.5z"/>
<path class="st0" d="M100.7,46.5c0-1.2,1-2.2,2.2-2.2s2.2,1,2.2,2.2c0.1,1.1-0.7,2.1-1.8,2.2c-0.1,0-0.2,0-0.4,0
	c-1.1,0.1-2.1-0.8-2.2-1.9C100.7,46.7,100.7,46.6,100.7,46.5z"/>
</svg>
