<?xml version="1.0" encoding="utf-8"?>
<!-- Generator: Adobe Illustrator 22.1.0, SVG Export Plug-In . SVG Version: 6.00 Build 0)  -->
<svg version="1.1" id="Layer_1" xmlns="http://www.w3.org/2000/svg" xmlns:xlink="http://www.w3.org/1999/xlink" x="0px" y="0px"
	 viewBox="0 0 86.8 28.6" style="enable-background:new 0 0 86.8 28.6;" xml:space="preserve">
<style type="text/css">
	.st0{fill:#FFFFFF;}
</style>
<title>tag_eyebrow</title>
<path class="st0" d="M2.8,7.7L2.1,9.8c0,0.1-0.1,0.1-0.1,0.1H0.4c-0.1,0-0.1-0.1-0.1-0.1L3,1.7c0.1-0.3,0.2-0.6,0.2-0.9
	c0,0,0-0.1,0.1-0.1h2.2c0.1,0,0.1,0,0.1,0.1l3.2,9c0,0.1,0,0.1-0.1,0.1H6.9c-0.1,0-0.1,0-0.2-0.1L6.1,7.8L2.8,7.7z M5.5,6
	C5.2,5.1,4.7,3.4,4.4,2.4l0,0C4.2,3.3,3.7,4.9,3.3,6L5.5,6z"/>
<path class="st0" d="M9.2,6.5c0-2,1.5-3.7,4.1-3.7h0.5V0.1c0,0,0-0.1,0.1-0.1c0,0,0,0,0,0h1.8c0.1,0,0.1,0,0.1,0.1v8.3
	c0,0.3,0,0.7,0.1,1c0,0.1,0,0.1-0.1,0.1c-0.9,0.4-1.8,0.6-2.8,0.6c-1.8,0.2-3.5-1.2-3.7-3C9.2,6.9,9.2,6.7,9.2,6.5z M13.8,4.5
	c-0.2-0.1-0.3-0.1-0.5-0.1c-1-0.1-1.9,0.7-2,1.7c0,0.1,0,0.2,0,0.3c-0.1,1,0.5,1.8,1.5,2c0.1,0,0.3,0,0.4,0c0.2,0,0.4,0,0.7-0.1
	L13.8,4.5z"/>
<path class="st0" d="M23.9,6.4c0.1,1.9-1.2,3.5-3.1,3.6c-0.1,0-0.2,0-0.3,0C18.6,10.1,17,8.7,17,6.8c0-0.1,0-0.3,0-0.4
	c-0.1-1.9,1.3-3.5,3.2-3.6c0.1,0,0.2,0,0.3,0c1.8-0.1,3.4,1.4,3.4,3.2C23.9,6.2,23.9,6.3,23.9,6.4z M18.9,6.4c0,1.2,0.6,2,1.5,2
	s1.4-0.7,1.4-2c0-1.1-0.5-2-1.5-2C19.5,4.5,18.9,5.2,18.9,6.4L18.9,6.4z"/>
<path class="st0" d="M26.9,0c0.1,0,0.1,0,0.1,0.1V3c0.4-0.1,0.8-0.2,1.2-0.2c1.8-0.1,3.3,1.3,3.4,3c0,0.1,0,0.2,0,0.3
	c0,2.1-1.7,3.9-3.9,3.9c-0.1,0-0.2,0-0.3,0c-0.7,0-1.5-0.1-2.2-0.3c-0.1,0-0.1-0.1-0.1-0.1V0.1c0-0.1,0-0.1,0.1-0.1H26.9z M27.9,4.5
	c-0.3,0-0.6,0-0.8,0.1v3.8c0.2,0,0.3,0.1,0.5,0.1c1.1,0,2-0.8,2-1.9c0-0.1,0-0.2,0-0.2c0.1-0.9-0.5-1.7-1.4-1.8
	C28.1,4.5,28,4.5,27.9,4.5L27.9,4.5z"/>
<path class="st0" d="M34.5,6.9c0.1,0.8,0.6,1.5,2,1.5c0.6,0,1.2-0.1,1.7-0.3c0,0,0.1,0,0.1,0.1v1.3c0,0.1,0,0.1-0.1,0.2
	c-0.7,0.3-1.4,0.4-2.1,0.4c-1.8,0.2-3.4-1.2-3.6-3c0-0.2,0-0.4,0-0.5c-0.2-1.9,1.2-3.5,3.1-3.7c0.1,0,0.2,0,0.3,0
	c1.6-0.1,2.9,1.1,3,2.7c0,0.1,0,0.2,0,0.3c0,0.3,0,0.6-0.1,0.9c0,0.1,0,0.1-0.1,0.1c-0.5,0-1,0.1-1.5,0.1H34.5z M36.3,5.6
	c0.2,0,0.5,0,0.7,0V5.5c0-0.6-0.5-1.1-1.2-1.1c0,0,0,0,0,0c-0.7,0-1.3,0.5-1.3,1.2L36.3,5.6z"/>
<path class="st0" d="M7.1,27.6c0,0.1,0,0.2-0.1,0.2c-0.6,0.2-1.3,0.3-2,0.3c-2.7,0-4.8-1.6-4.8-4.7c0-2.8,2-4.8,5-4.8
	c0.6,0,1.2,0,1.8,0.2c0.1,0,0.1,0.1,0.1,0.2v1.5c0,0.1-0.1,0.1-0.1,0.1c-0.6-0.2-1.2-0.3-1.8-0.3c-1.5-0.1-2.9,1-3,2.6
	c0,0.1,0,0.3,0,0.4c-0.1,1.6,1.1,2.9,2.7,3c0.1,0,0.3,0,0.4,0c0.6,0,1.2-0.1,1.7-0.2c0.1,0,0.1,0,0.1,0.1L7.1,27.6z"/>
<path class="st0" d="M9.9,20.9c0.1,0,0.2,0,0.2,0.1c0.1,0.3,0.1,0.5,0.2,0.8c0.6-0.6,1.4-1,2.2-1c0.1,0,0.1,0,0.1,0.1v1.7
	c0,0.1,0,0.1-0.1,0.1c-0.8-0.1-1.5,0.1-2.1,0.6v4.5c0,0.1,0,0.1-0.1,0.1H8.5c-0.1,0-0.1,0-0.1-0.1v-4.9c0-0.6,0-1.3-0.1-1.9
	c0-0.1,0-0.1,0.1-0.1H9.9z"/>
<path class="st0" d="M15.2,24.9c0.1,0.8,0.6,1.5,2,1.5c0.6,0,1.2-0.1,1.7-0.3c0,0,0.1,0,0.1,0.1v1.3c0,0.1,0,0.1-0.1,0.2
	c-0.7,0.3-1.4,0.4-2.1,0.4c-1.8,0.2-3.4-1.2-3.6-3c0-0.2,0-0.4,0-0.6c-0.2-1.9,1.2-3.5,3.1-3.7c0.1,0,0.2,0,0.3,0
	c1.6-0.1,2.9,1.1,3,2.7c0,0.1,0,0.2,0,0.3c0,0.3,0,0.6-0.1,0.9c0,0.1,0,0.1-0.1,0.1l0,0c-0.5,0-1,0.1-1.4,0.1L15.2,24.9z M17,23.6
	c0.2,0,0.5,0,0.7,0v-0.1c0-0.6-0.5-1.1-1.2-1.1c0,0,0,0-0.1,0c-0.7,0-1.3,0.5-1.3,1.2L17,23.6z"/>
<path class="st0" d="M26.2,26.4c0,0.4,0,0.7,0,1c0,0,0,0.1,0,0.1c-0.9,0.4-2,0.6-3,0.6c-1.6,0-2.8-0.7-2.8-2.3s1.3-2.3,3.2-2.3
	c0.3,0,0.6,0,0.8,0v-0.1c0-0.3-0.2-0.9-1.3-0.9c-0.6,0-1.3,0.1-1.8,0.4c0,0-0.1,0-0.1,0c0,0,0,0,0-0.1v-1.4c0-0.1,0-0.1,0.1-0.1
	c0.7-0.3,1.4-0.4,2.2-0.4c1.4-0.2,2.7,0.9,2.9,2.3c0,0.2,0,0.3,0,0.5L26.2,26.4z M24.3,24.9c-0.2,0-0.5,0-0.7,0
	c-1,0-1.4,0.3-1.4,0.8s0.3,0.8,1.2,0.8c0.3,0,0.6,0,0.9-0.1L24.3,24.9z"/>
<path class="st0" d="M31.3,27.7c0,0.1,0,0.2-0.1,0.2c-0.4,0.1-0.8,0.2-1.2,0.2c-1,0.1-1.8-0.6-1.9-1.5c0-0.2,0-0.3,0-0.5v-3.5h-0.8
	c-0.1,0-0.1,0-0.1-0.1v-1.4c0-0.1,0-0.1,0.1-0.1H28c0-0.6,0.1-1.1,0.1-1.7c0-0.1,0.1-0.1,0.1-0.1l1.6-0.2c0.1,0,0.1,0,0.1,0.1
	c0,0.4-0.1,1.3-0.1,1.9h1.3c0.1,0,0.1,0,0.1,0.1v1.4c0,0.1,0,0.1-0.1,0.1h-1.3v3c0,0.6,0.2,0.9,0.8,0.9c0.2,0,0.3,0,0.5-0.1
	c0.1,0,0.1,0,0.1,0.1V27.7z"/>
<path class="st0" d="M32.4,19.1c0-0.6,0.4-1,0.9-1.1c0.1,0,0.1,0,0.2,0c0.6,0,1,0.4,1.1,0.9c0,0,0,0.1,0,0.1c0.1,0.5-0.3,1-0.9,1.1
	c-0.1,0-0.1,0-0.2,0c-0.5,0.1-1-0.3-1.1-0.9C32.4,19.3,32.4,19.2,32.4,19.1z M32.5,21.1c0-0.1,0-0.1,0.1-0.1h1.7
	c0.1,0,0.1,0,0.1,0.1v6.7c0,0.1,0,0.1-0.1,0.1h-1.7c-0.1,0-0.1,0-0.1-0.1L32.5,21.1z"/>
<path class="st0" d="M37.7,27.9c-0.1,0-0.1,0-0.2-0.1c-0.5-1.6-1.7-5.1-2.3-6.8c0-0.1,0-0.1,0.1-0.1h1.8c0.1,0,0.1,0,0.2,0.1
	c0.9,3.2,1.2,4.4,1.4,5l0,0c0.1-0.6,0.5-1.9,1.5-5c0-0.1,0-0.1,0.1-0.1H42c0,0,0.1,0,0.1,0.1c0,0,0,0,0,0.1
	c-0.6,1.7-1.8,5.2-2.3,6.7c0,0.1-0.1,0.1-0.2,0.1H37.7z"/>
<path class="st0" d="M44.5,24.9c0.1,0.8,0.6,1.5,2,1.5c0.6,0,1.2-0.1,1.7-0.3c0,0,0.1,0,0.1,0.1v1.3c0,0.1,0,0.1-0.1,0.2
	c-0.7,0.3-1.4,0.4-2.1,0.4c-1.8,0.2-3.4-1.2-3.6-3c0-0.2,0-0.4,0-0.5c-0.2-1.9,1.2-3.5,3.1-3.7c0.1,0,0.2,0,0.3,0
	c1.6-0.1,2.9,1.1,3,2.7c0,0.1,0,0.2,0,0.3c0,0.3,0,0.6-0.1,0.9c0,0.1,0,0.1-0.1,0.1c-0.5,0-1,0.1-1.4,0.1L44.5,24.9z M46.4,23.6
	c0.2,0,0.5,0,0.7,0v-0.1c0-0.6-0.5-1.1-1.2-1.1c0,0,0,0,0,0c-0.7,0-1.3,0.5-1.4,1.2L46.4,23.6z"/>
<path class="st0" d="M59.9,27.6c0,0.1,0,0.2-0.1,0.2c-0.6,0.2-1.3,0.3-2,0.3c-2.7,0-4.8-1.6-4.8-4.7c0-2.8,2-4.8,5-4.8
	c0.6,0,1.2,0,1.8,0.2c0.1,0,0.1,0.1,0.1,0.2v1.5c0,0.1-0.1,0.1-0.1,0.1c-0.6-0.2-1.2-0.3-1.8-0.3c-1.5-0.1-2.9,1-3,2.6
	c0,0.1,0,0.3,0,0.4c-0.1,1.6,1.1,2.9,2.7,3c0.1,0,0.3,0,0.4,0c0.6,0,1.2-0.1,1.7-0.2c0.1,0,0.1,0,0.1,0.1L59.9,27.6z"/>
<path class="st0" d="M61.1,18.1c0-0.1,0-0.1,0.1-0.1h1.7c0.1,0,0.1,0,0.1,0.1v7.8c0,0.4,0.1,0.5,0.5,0.5c0.1,0,0.2,0,0.3,0
	c0.1,0,0.1,0,0.1,0.1v1.2c0,0.1,0,0.1-0.1,0.2c-0.3,0.1-0.6,0.1-0.9,0.1c-1,0-1.8-0.4-1.8-1.9V18.1z"/>
<path class="st0" d="M71.5,24.4c0.1,1.9-1.2,3.5-3.1,3.6c-0.1,0-0.2,0-0.3,0c-1.8,0.1-3.4-1.4-3.5-3.2c0-0.1,0-0.3,0-0.4
	c-0.1-1.9,1.3-3.5,3.2-3.6c0.1,0,0.2,0,0.3,0c1.8-0.1,3.4,1.4,3.4,3.2C71.5,24.2,71.5,24.3,71.5,24.4z M66.6,24.4c0,1.2,0.6,2,1.5,2
	s1.4-0.7,1.4-2c0-1.1-0.4-2-1.5-2C67.1,22.5,66.5,23.2,66.6,24.4L66.6,24.4z"/>
<path class="st0" d="M78.8,26.4c0,0.5,0,1,0.1,1.4c0,0.1,0,0.1-0.1,0.1h-1.5c-0.1,0-0.1,0-0.2-0.1S77,27.5,77,27.4
	c-0.5,0.5-1.2,0.7-1.9,0.7c-1.4,0-2.4-0.8-2.4-2.7v-4.3c0-0.1,0-0.1,0.1-0.1h1.7c0.1,0,0.1,0,0.1,0.1v4.1c0,0.8,0.3,1.3,1.1,1.3
	c0.4,0,0.8-0.1,1.1-0.4v-4.9c0-0.1,0-0.1,0.1-0.1h1.7c0.1,0,0.1,0,0.1,0.1V26.4z"/>
<path class="st0" d="M80,24.5c0-2,1.5-3.7,4.1-3.7h0.5v-2.7c0,0,0-0.1,0.1-0.1c0,0,0,0,0,0h1.8c0.1,0,0.1,0,0.1,0.1v8.3
	c0,0.3,0,0.7,0.1,1c0,0.1,0,0.1-0.1,0.1c-0.9,0.4-1.8,0.6-2.8,0.6c-1.8,0.2-3.5-1.2-3.7-3C80,24.9,80,24.7,80,24.5z M84.6,22.5
	c-0.2-0.1-0.3-0.1-0.5-0.1c-1-0.1-1.9,0.7-2,1.7c0,0.1,0,0.2,0,0.3c-0.1,1,0.5,1.8,1.5,2c0.1,0,0.3,0,0.4,0c0.2,0,0.4,0,0.7-0.1
	L84.6,22.5z"/>
</svg>
