<svg id="Layer_1" data-name="Layer 1" xmlns="http://www.w3.org/2000/svg" viewBox="0 0 678 50.04"><defs><style>.cls-1{fill:#fff;}.cls-2{fill:none;}.cls-3{isolation:isolate;}</style></defs><path class="cls-1" d="M6883.92-7225h13.42v32.14Z" transform="translate(-6861 7225.02)"/><path class="cls-1" d="M6874.46-7225H6861v32.14Z" transform="translate(-6861 7225.02)"/><path class="cls-1" d="M6879.19-7213.18l8.55,20.29h-5.6l-2.56-6.46h-6.26Z" transform="translate(-6861 7225.02)"/><path class="cls-1" d="M6865.7-7180c-.26-1.3-.72-3.27-.9-4.55h0c-.18,1.24-.51,3-.82,4.55Zm-2.13,1.92-.59,2.79c0,.11-.06.13-.15.13h-1.7c-.11,0-.14,0-.13-.18l2.35-10.13a3.75,3.75,0,0,0,.07-1,.11.11,0,0,1,.09-.11H6866c.09,0,.13,0,.15.13l2.74,11.12c0,.1,0,.14-.11.14h-1.9a.12.12,0,0,1-.14-.1h0l-.63-2.79Z" transform="translate(-6861 7225.02)"/><path class="cls-1" d="M6873.38-7182.2a.86.86,0,0,0-.39,0c-1,0-1.74.9-1.74,2.67s.74,2.65,1.72,2.65a1.84,1.84,0,0,0,.41-.05Zm-4.23,2.69c0-2.59,1.52-4.59,3.94-4.59h.29v-3a.09.09,0,0,1,.09-.09h1.91a.08.08,0,0,1,.09.07v10.21a9.48,9.48,0,0,0,.05,1.19.11.11,0,0,1-.07.12,5.82,5.82,0,0,1-2.56.62C6870.65-7175,6869.15-7176.48,6869.15-7179.51Z" transform="translate(-6861 7225.02)"/><path class="cls-1" d="M6878.66-7179.58c0,1.64.36,2.72,1.16,2.72s1.13-.92,1.13-2.71-.28-2.69-1.12-2.69S6878.66-7181.43,6878.66-7179.58Zm4.37,0c0,2.79-1.17,4.56-3.22,4.56-2.31,0-3.22-2-3.22-4.58s1.17-4.5,3.26-4.5,3.19,1.67,3.19,4.52Z" transform="translate(-6861 7225.02)"/><path class="cls-1" d="M6886.87-7182.22a2.28,2.28,0,0,0-.63.09v5.22a2.29,2.29,0,0,0,.37,0c.8,0,1.73-.81,1.75-3C6888.38-7181.6,6887.69-7182.22,6886.87-7182.22Zm-.72-5c.07,0,.08,0,.08.11v3.13a4.79,4.79,0,0,1,1-.11c1.84,0,3.24,1.42,3.24,4.16,0,3.2-1.83,4.92-4.11,4.92a6.87,6.87,0,0,1-2.06-.32.15.15,0,0,1-.1-.14v-11.64a.12.12,0,0,1,.09-.11h1.86Z" transform="translate(-6861 7225.02)"/><path class="cls-1" d="M6894.8-7180.74a2.35,2.35,0,0,0,.53,0,.67.67,0,0,0,0-.2c0-.67-.22-1.37-.94-1.37s-1,.72-1.08,1.59Zm-1.51,1.67c0,1.36.52,2.19,1.95,2.19a3.63,3.63,0,0,0,1.34-.26c.09,0,.15,0,.15.09v1.47c0,.13,0,.2-.13.23a3.89,3.89,0,0,1-1.75.32c-2.6,0-3.61-1.91-3.61-4.4,0-2.65,1.17-4.67,3.24-4.67s2.81,1.93,2.81,3.5a9.76,9.76,0,0,1-.09,1.32c0,.09-.07.13-.16.15s-.72,0-1.68,0Z" transform="translate(-6861 7225.02)"/><rect class="cls-2" x="36" width="30" height="50"/><path class="cls-1" d="M6937.54-7205.46c0,.14,0,.24-.16.28a8.71,8.71,0,0,1-2.78.36c-3.88,0-6.9-2.3-6.9-6.68,0-4.06,2.8-6.82,7.22-6.82a6.55,6.55,0,0,1,2.6.34.23.23,0,0,1,.14.24v2.18c0,.18-.1.18-.18.14a6.23,6.23,0,0,0-2.6-.44,4,4,0,0,0-4.31,3.66,4,4,0,0,0,0,.6,4.09,4.09,0,0,0,3.82,4.31,5.23,5.23,0,0,0,.56,0,7.45,7.45,0,0,0,2.44-.32c.1,0,.16,0,.16.1Z" transform="translate(-6861 7225.02)"/><path class="cls-1" d="M6948.52-7210c0,3.14-2,5.22-4.92,5.22-3.42,0-4.94-2.58-4.94-5.16a4.88,4.88,0,0,1,4.59-5.17h.41C6946.86-7215.16,6948.52-7212.74,6948.52-7210Zm-7,0c0,1.76.82,2.88,2.16,2.88,1.16,0,2-1,2-2.84,0-1.56-.64-2.86-2.16-2.86-1.16,0-2,1-2,2.82Z" transform="translate(-6861 7225.02)"/><path class="cls-1" d="M6950.5-7205c-.14,0-.18-.06-.18-.18v-7.6c0-.74-.06-1.6-.08-2,0-.12,0-.18.16-.18h2.12a.27.27,0,0,1,.24.12,3.09,3.09,0,0,1,.12.74,4.34,4.34,0,0,1,2.88-1.06,2.83,2.83,0,0,1,2.56,1.28,4.88,4.88,0,0,1,3.24-1.28c1.74,0,3.42.94,3.42,4v6a.16.16,0,0,1-.14.18h-2.44c-.14,0-.2-.06-.2-.18v-5.72c0-1-.36-1.84-1.52-1.84a2.73,2.73,0,0,0-1.7.64,10.51,10.51,0,0,1,.06,1.12v5.8c0,.1,0,.18-.16.18h-2.42c-.12,0-.2,0-.2-.18v-5.8c0-1.2-.56-1.74-1.52-1.74a2.71,2.71,0,0,0-1.64.56v7c0,.1,0,.16-.18.16Z" transform="translate(-6861 7225.02)"/><path class="cls-1" d="M6967.5-7205c-.14,0-.18-.06-.18-.18v-7.6c0-.74-.06-1.6-.08-2,0-.12,0-.18.16-.18h2.12a.27.27,0,0,1,.24.12,3.09,3.09,0,0,1,.12.74,4.34,4.34,0,0,1,2.88-1.06,2.83,2.83,0,0,1,2.56,1.28,4.88,4.88,0,0,1,3.24-1.28c1.74,0,3.42.94,3.42,4v6a.16.16,0,0,1-.14.18h-2.44c-.14,0-.2-.06-.2-.18v-5.72c0-1-.36-1.84-1.52-1.84a2.73,2.73,0,0,0-1.7.64,10.51,10.51,0,0,1,.06,1.12v5.8c0,.1,0,.18-.16.18h-2.42c-.12,0-.2,0-.2-.18v-5.8c0-1.2-.56-1.74-1.52-1.74a2.71,2.71,0,0,0-1.64.56v7c0,.1,0,.16-.18.16Z" transform="translate(-6861 7225.02)"/><path class="cls-1" d="M6986.62-7209.26c.1,1.14.9,2.08,2.86,2.08a6.11,6.11,0,0,0,2.46-.46c.06,0,.12,0,.12.1v1.9c0,.14,0,.2-.14.24a6.71,6.71,0,0,1-3.06.58c-3.76,0-5.08-2.58-5.08-5.06,0-2.76,1.7-5.28,4.84-5.28a4.08,4.08,0,0,1,4.22,3.93,2.54,2.54,0,0,1,0,.39,6.67,6.67,0,0,1-.1,1.34.16.16,0,0,1-.16.16,17.65,17.65,0,0,1-2.06.08Zm2.6-1.94a5.57,5.57,0,0,0,1,0v-.14a1.63,1.63,0,0,0-1.68-1.58h0a1.88,1.88,0,0,0-1.92,1.76Z" transform="translate(-6861 7225.02)"/><path class="cls-1" d="M6994.62-7212.64a17.43,17.43,0,0,0-.08-2.16c0-.1,0-.16.14-.16h2.1a.24.24,0,0,1,.26.16,2.45,2.45,0,0,1,.16.66,4.4,4.4,0,0,1,2.84-1c1.54,0,3.36.8,3.36,4v5.94c0,.12,0,.18-.18.18h-2.4c-.14,0-.2-.06-.2-.18v-5.7c0-1.2-.52-1.84-1.56-1.84a2.41,2.41,0,0,0-1.66.62v6.94c0,.1-.06.16-.18.16h-2.42c-.14,0-.18-.06-.18-.18Z" transform="translate(-6861 7225.02)"/><path class="cls-1" d="M7010.7-7205.36c0,.12,0,.22-.14.26a5.11,5.11,0,0,1-1.78.28c-1.74,0-2.76-.86-2.76-2.86v-5h-1.2c-.12,0-.16-.06-.16-.18v-2c0-.14,0-.18.18-.18h1.2a21.73,21.73,0,0,1,.2-2.42.21.21,0,0,1,.18-.18l2.34-.3c.1,0,.16,0,.16.12-.06.62-.1,1.8-.1,2.78h1.84c.12,0,.16,0,.16.16v2c0,.1,0,.12-.14.14h-1.88v4.28c0,.88.26,1.28,1.08,1.28a3.83,3.83,0,0,0,.68-.08c.08,0,.14,0,.14.14Z" transform="translate(-6861 7225.02)"/><path class="cls-1" d="M7012.42-7206.5a1.59,1.59,0,0,1,1.52-1.66h.14a1.59,1.59,0,0,1,1.66,1.52v.14a1.56,1.56,0,0,1-1.41,1.68h-.25a1.58,1.58,0,0,1-1.66-1.49Z" transform="translate(-6861 7225.02)"/><path class="cls-1" d="M7030.82-7205.2c0,.16-.06.18-.2.18h-8.14c-.12,0-.16-.06-.16-.18v-12.74c0-.12,0-.18.16-.18h7.9c.16,0,.2,0,.22.16l.22,2.16c0,.1,0,.18-.14.18h-5.58v2.68h5.1c.1,0,.16,0,.16.16v2.2c0,.12-.08.14-.16.14h-5.1v2.92h5.9c.16,0,.18.06.16.18Z" transform="translate(-6861 7225.02)"/><path class="cls-1" d="M7032.06-7209.9c0-2.86,2.14-5.26,5.8-5.26h.66V-7219a.13.13,0,0,1,.12-.14h2.54c.1,0,.12,0,.12.12v11.82a11.8,11.8,0,0,0,.08,1.46c0,.1,0,.14-.14.18a10.06,10.06,0,0,1-3.94.8C7034.34-7204.82,7032.06-7206.5,7032.06-7209.9Zm6.46-2.84a2.07,2.07,0,0,0-.74-.1,2.67,2.67,0,0,0-2.86,2.47c0,.11,0,.22,0,.33a2.5,2.5,0,0,0,2.13,2.82,2.35,2.35,0,0,0,.53,0,3,3,0,0,0,.94-.12Z" transform="translate(-6861 7225.02)"/><path class="cls-1" d="M7043.48-7217.58a1.5,1.5,0,0,1,1.46-1.54h.1a1.45,1.45,0,0,1,1.54,1.35v.19a1.47,1.47,0,0,1-1.37,1.56.74.74,0,0,1-.21,0,1.44,1.44,0,0,1-1.52-1.37Zm.14,2.78c0-.1,0-.16.16-.16h2.46c.12,0,.16,0,.16.16v9.6c0,.12,0,.18-.18.18h-2.4c-.14,0-.2-.06-.2-.18Z" transform="translate(-6861 7225.02)"/><path class="cls-1" d="M7053.92-7205.36c0,.12,0,.22-.14.26a5.11,5.11,0,0,1-1.78.28c-1.74,0-2.76-.86-2.76-2.86v-5H7048c-.12,0-.16-.06-.16-.18v-2c0-.14,0-.18.18-.18h1.2a21.73,21.73,0,0,1,.2-2.42.21.21,0,0,1,.18-.18l2.34-.3c.1,0,.16,0,.16.12-.06.62-.1,1.8-.1,2.78h1.84c.12,0,.16,0,.16.16v2c0,.1,0,.12-.14.14H7052v4.28c0,.88.26,1.28,1.08,1.28a3.83,3.83,0,0,0,.68-.08c.08,0,.14,0,.14.14Z" transform="translate(-6861 7225.02)"/><path class="cls-1" d="M7055.64-7206.5a1.59,1.59,0,0,1,1.52-1.66h.14a1.59,1.59,0,0,1,1.66,1.52v.14a1.55,1.55,0,0,1-1.41,1.68h-.25a1.58,1.58,0,0,1-1.66-1.49Z" transform="translate(-6861 7225.02)"/><path class="cls-1" d="M7074-7205.2c0,.16-.06.18-.2.18h-8.14c-.12,0-.16-.06-.16-.18v-12.74c0-.12,0-.18.16-.18h7.9c.16,0,.2,0,.22.16l.22,2.16c0,.1,0,.18-.14.18h-5.58v2.68h5.1c.1,0,.16,0,.16.16v2.2c0,.12-.08.14-.16.14h-5.1v2.92h5.9c.16,0,.18.06.16.18Z" transform="translate(-6861 7225.02)"/><path class="cls-1" d="M7075.72-7209c-.1,0-.14-.06-.14-.16v-2.1a.13.13,0,0,1,.12-.14h4.84c.08,0,.12,0,.12.14v2.12c0,.12,0,.14-.1.14Z" transform="translate(-6861 7225.02)"/><path class="cls-1" d="M7086-7212.94c-.94,0-1.24.34-1.24.68s.26.6,1.42,1c2.42.88,3.18,1.82,3.18,3.24,0,1.9-1.48,3.16-4.12,3.16a6.42,6.42,0,0,1-2.9-.56.23.23,0,0,1-.14-.22v-2.16c0-.12.08-.18.16-.12a5.65,5.65,0,0,0,2.94.8c.94,0,1.36-.26,1.36-.68s-.34-.66-1.52-1.1c-2.26-.84-3-1.8-3-3.24s1.26-3.06,3.9-3.06a6.59,6.59,0,0,1,2.6.4.26.26,0,0,1,.14.26v2c0,.12-.08.2-.2.14A6,6,0,0,0,7086-7212.94Z" transform="translate(-6861 7225.02)"/><path class="cls-1" d="M7090.9-7217.58a1.5,1.5,0,0,1,1.46-1.54h.1a1.45,1.45,0,0,1,1.54,1.35v.19a1.47,1.47,0,0,1-1.37,1.56h-.19a1.45,1.45,0,0,1-1.54-1.35A1.47,1.47,0,0,1,7090.9-7217.58Zm.14,2.78c0-.1,0-.16.16-.16h2.46c.12,0,.16,0,.16.16v9.6c0,.12,0,.18-.18.18h-2.4c-.14,0-.2-.06-.2-.18Z" transform="translate(-6861 7225.02)"/><path class="cls-1" d="M7101.3-7207.34c2.86.14,3.92,1.3,3.92,2.88,0,2.08-2,3.76-5.26,3.76s-4.8-1.66-4.8-3.1c0-.64.52-1.44,1.84-2.54a2.57,2.57,0,0,1-.42-1.5,2.78,2.78,0,0,1,.36-1.32,2.9,2.9,0,0,1-1.38-2.58c0-1.92,1.5-3.42,4.1-3.42a11,11,0,0,1,1.9.16,1.93,1.93,0,0,0,.48,0h2.74c.1,0,.14,0,.14.14v1.86c0,.1,0,.14-.14.14-.3,0-1-.06-1.38-.1a2.57,2.57,0,0,1,.3,1.3c0,2.12-1.74,3.18-4,3.18H7099a1,1,0,0,0,0,.54,1.1,1.1,0,0,0,.22.52Zm-2.84,2.24a2,2,0,0,0-.76,1.06c0,.62.88,1.3,2.44,1.3,1.78,0,2.54-.62,2.54-1.28s-.88-.94-2-1Zm-.2-6.68a1.29,1.29,0,0,0,1.23,1.36.6.6,0,0,0,.19,0,1.22,1.22,0,0,0,1.37-1.05,1,1,0,0,0,0-.25,1.29,1.29,0,0,0-1.1-1.44,1.5,1.5,0,0,0-.3,0,1.29,1.29,0,0,0-1.4,1.15A.89.89,0,0,0,7098.26-7211.78Z" transform="translate(-6861 7225.02)"/><path class="cls-1" d="M7106.46-7212.64a17.43,17.43,0,0,0-.08-2.16c0-.1,0-.16.14-.16h2.1a.24.24,0,0,1,.26.16,2.45,2.45,0,0,1,.16.66,4.4,4.4,0,0,1,2.84-1c1.54,0,3.36.8,3.36,4v5.94c0,.12,0,.18-.18.18h-2.4c-.14,0-.2-.06-.2-.18v-5.7c0-1.2-.52-1.84-1.56-1.84a2.41,2.41,0,0,0-1.66.62v6.94c0,.1-.06.16-.18.16h-2.42c-.14,0-.18-.06-.18-.18Z" transform="translate(-6861 7225.02)"/><path class="cls-1" d="M7117.12-7206.5a1.59,1.59,0,0,1,1.52-1.66h.14a1.59,1.59,0,0,1,1.66,1.52v.14a1.55,1.55,0,0,1-1.41,1.68h-.25a1.58,1.58,0,0,1-1.66-1.49Z" transform="translate(-6861 7225.02)"/><path class="cls-1" d="M6928.6-7181c-.12,0-.16,0-.16-.18v-12.7c0-.1,0-.2.14-.2,1.8,0,2.56-.06,4.18-.06,3.32,0,5.18,1.42,5.18,4a3.76,3.76,0,0,1-2.5,3.52c.66.9,2.92,4.3,3.54,5.38.06.12.08.24-.06.24H6936c-.18,0-.24,0-.28-.12-.58-.88-1.84-3-2.66-4.38-.14-.24-.24-.34-.46-.34h-1.46v4.68a.15.15,0,0,1-.14.16h-2.4Zm4.1-7.2c1.5,0,2.46-.6,2.46-1.78s-1-1.74-2.48-1.74h-1.52v3.48Z" transform="translate(-6861 7225.02)"/><path class="cls-1" d="M6942.1-7185.26c.1,1.14.9,2.08,2.86,2.08a6.11,6.11,0,0,0,2.46-.46c.06,0,.12,0,.12.1v1.9c0,.14,0,.2-.14.24a6.71,6.71,0,0,1-3.06.58c-3.76,0-5.08-2.58-5.08-5.06,0-2.76,1.7-5.28,4.84-5.28a4.08,4.08,0,0,1,4.22,3.93,2.54,2.54,0,0,1,0,.39,6.67,6.67,0,0,1-.1,1.34.16.16,0,0,1-.16.16,17.65,17.65,0,0,1-2.06.08Zm2.6-1.94a5.57,5.57,0,0,0,1,0v-.14a1.63,1.63,0,0,0-1.68-1.58h0a1.88,1.88,0,0,0-1.92,1.76Z" transform="translate(-6861 7225.02)"/><path class="cls-1" d="M6950.1-7188.64a17.43,17.43,0,0,0-.08-2.16c0-.1,0-.16.14-.16h2.1a.24.24,0,0,1,.26.16,2.45,2.45,0,0,1,.16.66,4.4,4.4,0,0,1,2.84-1c1.54,0,3.36.8,3.36,4v5.94c0,.12,0,.18-.18.18h-2.4c-.14,0-.2-.06-.2-.18v-5.7c0-1.2-.52-1.84-1.56-1.84a2.41,2.41,0,0,0-1.66.62v6.94c0,.1-.06.16-.18.16h-2.42c-.14,0-.18-.06-.18-.18Z" transform="translate(-6861 7225.02)"/><path class="cls-1" d="M6963.52-7185.26c.1,1.14.9,2.08,2.86,2.08a6.11,6.11,0,0,0,2.46-.46c.06,0,.12,0,.12.1v1.9c0,.14,0,.2-.14.24a6.71,6.71,0,0,1-3.06.58c-3.76,0-5.08-2.58-5.08-5.06,0-2.76,1.7-5.28,4.84-5.28a4.08,4.08,0,0,1,4.22,3.93,2.54,2.54,0,0,1,0,.39,6.67,6.67,0,0,1-.1,1.34.16.16,0,0,1-.16.16,17.65,17.65,0,0,1-2.06.08Zm2.6-1.94a5.57,5.57,0,0,0,1,0v-.14a1.63,1.63,0,0,0-1.68-1.58h0a1.88,1.88,0,0,0-1.92,1.76Z" transform="translate(-6861 7225.02)"/><path class="cls-1" d="M6979.84-7181c-.16,0-.2-.06-.24-.18-1-4.08-1.32-5.92-1.52-6.9h0c-.5,2.2-.9,3.86-1.74,6.9,0,.14-.1.18-.22.18h-2.5c-.2,0-.24,0-.28-.18l-2.6-9.58c0-.1,0-.18.16-.18h2.54c.12,0,.16,0,.18.14,1.06,4.32,1.34,6.24,1.48,7.08h0c.16-.72.48-2.6,1.64-7,0-.12,0-.18.18-.18h2.64c.1,0,.14,0,.16.14,1.06,4.42,1.34,6.36,1.48,7.16h0c.28-1.3.58-3.46,1.54-7.16a.16.16,0,0,1,.18-.14h2.34c.08,0,.16.06.12.16l-2.86,9.6c0,.14-.06.18-.24.18Z" transform="translate(-6861 7225.02)"/><path class="cls-1" d="M6993.82-7184.14l-1,3a.22.22,0,0,1-.22.16h-2.32c-.14,0-.18-.08-.16-.2l4-11.54a3.63,3.63,0,0,0,.2-1.22.13.13,0,0,1,.12-.14h3.2c.1,0,.14,0,.16.12l4.54,12.8c0,.1,0,.18-.1.18h-2.6a.21.21,0,0,1-.22-.14l-1-3Zm3.88-2.5c-.4-1.32-1.2-3.74-1.58-5.16h0c-.32,1.34-1,3.54-1.56,5.16Z" transform="translate(-6861 7225.02)"/><path class="cls-1" d="M7010.6-7181.3c0,.1,0,.14-.1.16a6.3,6.3,0,0,1-2.24.32,5,5,0,0,1-5.27-4.71c0-.14,0-.27,0-.41,0-3,2.26-5.22,5.66-5.22a5.47,5.47,0,0,1,1.84.22c.1,0,.12.1.12.22v2.06c0,.14-.08.16-.16.14a5,5,0,0,0-1.68-.24,2.6,2.6,0,0,0-2.89,2.28,3.23,3.23,0,0,0,0,.44,2.65,2.65,0,0,0,2.52,2.77,2,2,0,0,0,.42,0,6.6,6.6,0,0,0,1.66-.18c.12,0,.16,0,.16.08Z" transform="translate(-6861 7225.02)"/><path class="cls-1" d="M7014.5-7191a.22.22,0,0,1,.24.18,3.91,3.91,0,0,1,.22,1.12,4.2,4.2,0,0,1,3.18-1.5c.12,0,.16,0,.16.16v2.46c0,.1,0,.14-.18.14a4.11,4.11,0,0,0-3,.86v6.36c0,.12,0,.16-.18.16h-2.4c-.16,0-.2-.06-.2-.18v-6.9a23.49,23.49,0,0,0-.1-2.72c0-.1,0-.14.12-.14Z" transform="translate(-6861 7225.02)"/><path class="cls-1" d="M7029-7186c0,3.14-2,5.22-4.92,5.22-3.42,0-4.94-2.58-4.94-5.16a4.88,4.88,0,0,1,4.59-5.17h.41C7027.38-7191.16,7029-7188.74,7029-7186Zm-7,0c0,1.76.82,2.88,2.16,2.88,1.16,0,2-1,2-2.84,0-1.56-.64-2.86-2.16-2.86C7022.88-7188.84,7022-7187.8,7022-7186Z" transform="translate(-6861 7225.02)"/><path class="cls-1" d="M7033.42-7195.2c.16,0,.2,0,.2.16v4.1a6.35,6.35,0,0,1,1.68-.22,4.58,4.58,0,0,1,4.8,4.35,2.81,2.81,0,0,1,0,.41c0,3.74-3,5.58-6,5.58a10.47,10.47,0,0,1-3.14-.46.24.24,0,0,1-.12-.2V-7195c0-.1,0-.14.14-.14Zm1.38,6.4a3.91,3.91,0,0,0-1.18.16v5.42a3.05,3.05,0,0,0,.74.08,2.75,2.75,0,0,0,2.91-2.58,3,3,0,0,0,0-.42,2.35,2.35,0,0,0-2-2.64,2.13,2.13,0,0,0-.44,0Z" transform="translate(-6861 7225.02)"/><path class="cls-1" d="M7049.7-7183.24v1.52a11.09,11.09,0,0,1-4.36.9c-2.22,0-4-1-4-3.34,0-2.12,1.86-3.24,4.52-3.24a7.75,7.75,0,0,1,1.18,0v-.14c0-.38-.24-1.26-1.92-1.26a6.31,6.31,0,0,0-2.64.54.12.12,0,0,1-.16,0,.14.14,0,0,1,0-.06v-2a.17.17,0,0,1,.14-.2h0a7.53,7.53,0,0,1,3.14-.62c2.88,0,4.16,1.78,4.16,4.06Zm-2.7-2.06a8.39,8.39,0,0,0-1-.06c-1.42,0-2,.46-2,1.18s.5,1.2,1.76,1.2a4,4,0,0,0,1.24-.18Z" transform="translate(-6861 7225.02)"/><path class="cls-1" d="M7056.9-7181.36c0,.12,0,.22-.14.26a5.11,5.11,0,0,1-1.78.28c-1.74,0-2.76-.86-2.76-2.86v-5H7051c-.12,0-.16-.06-.16-.18v-2c0-.14,0-.18.18-.18h1.2a21.73,21.73,0,0,1,.2-2.42.21.21,0,0,1,.18-.18l2.34-.3c.1,0,.16,0,.16.12-.06.62-.1,1.8-.1,2.78h1.84c.12,0,.16,0,.16.16v2c0,.1,0,.12-.14.14H7055v4.28c0,.88.26,1.28,1.08,1.28a3.83,3.83,0,0,0,.68-.08c.08,0,.14,0,.14.14Z" transform="translate(-6861 7225.02)"/><path class="cls-1" d="M7063.3-7193.94c0-.12,0-.16.12-.16.82,0,2.4-.06,3.92-.06,4,0,5.44,2.24,5.44,4.42,0,3.24-2.5,4.62-5.58,4.62h-1.14v3.94c0,.1,0,.16-.16.16h-2.46c-.1,0-.14-.06-.14-.16Zm2.76,6.36h1.12c1.58,0,2.84-.48,2.84-2.12,0-1.26-.86-2.06-2.6-2.06h-1.36Z" transform="translate(-6861 7225.02)"/><path class="cls-1" d="M7076.64-7191a.22.22,0,0,1,.24.18,3.91,3.91,0,0,1,.22,1.12,4.2,4.2,0,0,1,3.18-1.5c.12,0,.16,0,.16.16v2.46c0,.1,0,.14-.18.14a4.11,4.11,0,0,0-3,.86v6.36c0,.12,0,.16-.18.16h-2.4c-.16,0-.2-.06-.2-.18v-6.9a23.49,23.49,0,0,0-.1-2.72c0-.1,0-.14.12-.14Z" transform="translate(-6861 7225.02)"/><path class="cls-1" d="M7091.18-7186c0,3.14-2,5.22-4.92,5.22-3.42,0-4.94-2.58-4.94-5.16a4.88,4.88,0,0,1,4.59-5.17h.41C7089.52-7191.16,7091.18-7188.74,7091.18-7186Zm-7,0c0,1.76.82,2.88,2.16,2.88,1.16,0,2-1,2-2.84,0-1.56-.64-2.86-2.16-2.86-1.18,0-2,1-2,2.82Z" transform="translate(-6861 7225.02)"/><path class="cls-1" d="M7097.76-7193.94c0-.1,0-.14.14-.16.6,0,2.12-.06,3.9-.06,4.78,0,7.12,2.68,7.12,6.38,0,4.78-3.68,6.8-7.08,6.8h-4c-.08,0-.12-.06-.12-.2Zm2.78,10.52h1.18a4,4,0,0,0,4.34-3.63,4.45,4.45,0,0,0,0-.73c0-2.68-1.72-4-4.28-4h-1.24Z" transform="translate(-6861 7225.02)"/><path class="cls-1" d="M7120.34-7181.46c0,.14,0,.24-.16.28a8.71,8.71,0,0,1-2.78.36c-3.88,0-6.9-2.3-6.9-6.68,0-4.06,2.8-6.82,7.22-6.82a6.55,6.55,0,0,1,2.6.34.23.23,0,0,1,.14.24v2.18c0,.18-.1.18-.18.14a6.23,6.23,0,0,0-2.6-.44,4,4,0,0,0-4.31,3.66,4,4,0,0,0,0,.6,4.09,4.09,0,0,0,3.82,4.31,5.23,5.23,0,0,0,.56,0,7.45,7.45,0,0,0,2.44-.32c.1,0,.16,0,.16.1Z" transform="translate(-6861 7225.02)"/><path class="cls-1" d="M7122.42-7182.5a1.59,1.59,0,0,1,1.52-1.66h.14a1.59,1.59,0,0,1,1.66,1.52v.14a1.56,1.56,0,0,1-1.41,1.68h-.25a1.58,1.58,0,0,1-1.66-1.49Z" transform="translate(-6861 7225.02)"/><path class="cls-1" d="M7463-7216a16,16,0,0,0-16,16,16,16,0,0,0,4.69,11.31A15.88,15.88,0,0,0,7463-7184h58a16,16,0,0,0,16-16,16,16,0,0,0-4.69-11.31A15.88,15.88,0,0,0,7521-7216h-58m0-2h58a18,18,0,0,1,18,18,18,18,0,0,1-18,18h-58a18,18,0,0,1-18-18A18,18,0,0,1,7463-7218Z" transform="translate(-6861 7225.02)"/><g class="cls-3"><g class="cls-3"><path class="cls-1" d="M7458.46-7195.67c-.08,0-.11,0-.11-.11v-8.95c0-.07,0-.13.1-.13,1.11,0,1.69,0,2.77,0,2.24,0,3.56,1,3.56,2.76a2.6,2.6,0,0,1-1.81,2.47c.47.64,2.15,3.15,2.55,3.85,0,.08.06.15,0,.15h-1.75a.24.24,0,0,1-.2-.07c-.41-.63-1.39-2.24-2-3.22-.1-.17-.17-.24-.33-.24H7460v3.42a.1.1,0,0,1-.11.11Zm2.78-5c1.13,0,1.86-.5,1.86-1.4s-.74-1.39-1.93-1.39c-.48,0-.93,0-1.15,0v2.76Z" transform="translate(-6861 7225.02)"/><path class="cls-1" d="M7467.52-7198.73c0,1,.69,1.76,2.12,1.76a4.36,4.36,0,0,0,1.74-.34s.08,0,.08.06v1.16a.16.16,0,0,1-.08.16,4.73,4.73,0,0,1-2.11.4,3.23,3.23,0,0,1-3.46-3.51c0-1.95,1.18-3.67,3.3-3.67a2.78,2.78,0,0,1,2.87,2.95,4.32,4.32,0,0,1-.06.87.11.11,0,0,1-.11.1,10.85,10.85,0,0,1-1.44.06Zm2.09-1.21h.77v-.12a1.3,1.3,0,0,0-1.34-1.3,1.53,1.53,0,0,0-1.52,1.43Z" transform="translate(-6861 7225.02)"/><path class="cls-1" d="M7473.28-7201c0-.48,0-1.23-.06-1.51,0-.07,0-.1.1-.1h1.27c.1,0,.14,0,.17.1a3.14,3.14,0,0,1,.1.53,3,3,0,0,1,2-.77c1,0,2.34.53,2.34,2.77v4.15c0,.09,0,.12-.11.12h-1.46c-.08,0-.13,0-.13-.12v-4c0-.92-.39-1.45-1.2-1.45a1.81,1.81,0,0,0-1.36.57v4.89a.1.1,0,0,1-.11.11h-1.47c-.09,0-.11,0-.11-.11Z" transform="translate(-6861 7225.02)"/><path class="cls-1" d="M7482.26-7198.73c.05,1,.69,1.76,2.12,1.76a4.36,4.36,0,0,0,1.74-.34s.08,0,.08.06v1.16a.16.16,0,0,1-.08.16,4.72,4.72,0,0,1-2.1.4,3.23,3.23,0,0,1-3.46-3.51c0-1.95,1.17-3.67,3.29-3.67a2.78,2.78,0,0,1,2.87,2.95,3.67,3.67,0,0,1-.06.87.11.11,0,0,1-.11.1,10.85,10.85,0,0,1-1.44.06Zm2.09-1.21h.77v-.12a1.3,1.3,0,0,0-1.34-1.3,1.54,1.54,0,0,0-1.52,1.43Z" transform="translate(-6861 7225.02)"/><path class="cls-1" d="M7493.84-7195.67c-.09,0-.12,0-.15-.12-.81-3.13-1-4.37-1.19-5.06h0c-.33,1.4-.68,2.75-1.33,5.07a.15.15,0,0,1-.16.11h-1.53c-.14,0-.15,0-.18-.11l-1.82-6.68c0-.07,0-.11.1-.11h1.54c.07,0,.1,0,.11.08.84,3.29,1.05,4.62,1.15,5.18h0c.11-.49.35-1.76,1.27-5.15,0-.08,0-.11.13-.11h1.61c.07,0,.1,0,.11.08.87,3.42,1.07,4.67,1.18,5.23h0c.17-.84.38-2.24,1.19-5.23,0-.05.05-.08.12-.08h1.42c.05,0,.11,0,.08.1l-2,6.69c0,.08-.06.11-.15.11Z" transform="translate(-6861 7225.02)"/><path class="cls-1" d="M7501.77-7201c0-.48,0-1.23-.06-1.51,0-.07,0-.1.1-.1h1.27c.1,0,.14,0,.17.1a3.14,3.14,0,0,1,.1.53,3,3,0,0,1,2-.77c1.05,0,2.34.53,2.34,2.77v4.15c0,.09,0,.12-.11.12h-1.46c-.08,0-.13,0-.13-.12v-4c0-.92-.39-1.45-1.2-1.45a1.81,1.81,0,0,0-1.36.57v4.89a.1.1,0,0,1-.11.11h-1.47c-.09,0-.11,0-.11-.11Z" transform="translate(-6861 7225.02)"/><path class="cls-1" d="M7515.78-7199.16a3.33,3.33,0,0,1-3.36,3.63,3.31,3.31,0,0,1-3.38-3.58,3.38,3.38,0,0,1,3.41-3.6A3.28,3.28,0,0,1,7515.78-7199.16Zm-5,0c0,1.29.63,2.18,1.7,2.18.87,0,1.61-.71,1.61-2.15,0-1.17-.5-2.19-1.69-2.19C7511.43-7201.3,7510.75-7200.47,7510.75-7199.14Z" transform="translate(-6861 7225.02)"/><path class="cls-1" d="M7522.85-7195.67c-.1,0-.12,0-.15-.12-.81-3.13-1.05-4.37-1.19-5.06h0c-.32,1.4-.67,2.75-1.33,5.07a.14.14,0,0,1-.15.11h-1.53c-.14,0-.15,0-.18-.11l-1.82-6.68c0-.07,0-.11.1-.11h1.54c.07,0,.1,0,.11.08.84,3.29,1.05,4.62,1.15,5.18h0c.11-.49.35-1.76,1.27-5.15,0-.08,0-.11.13-.11h1.61c.07,0,.1,0,.11.08.87,3.42,1.06,4.67,1.18,5.23h0c.17-.84.38-2.24,1.2-5.23,0-.05,0-.08.12-.08h1.42c.05,0,.11,0,.08.1l-2,6.69c-.05.08-.06.11-.16.11Z" transform="translate(-6861 7225.02)"/></g></g></svg>