<?xml version="1.0" encoding="utf-8"?>
<!-- Generator: Adobe Illustrator 25.2.3, SVG Export Plug-In . SVG Version: 6.00 Build 0)  -->
<svg version="1.1" id="Layer_1" xmlns="http://www.w3.org/2000/svg" xmlns:xlink="http://www.w3.org/1999/xlink" x="0px" y="0px"
	 viewBox="0 0 263 185" style="enable-background:new 0 0 263 185;" xml:space="preserve">
<style type="text/css">
	.st0{fill:#FFFFFF;}
	.st1{fill:none;}
	.st2{font-family:'AdobeClean-ExtraBold';}
	.st3{font-size:26px;}
</style>
<g transform="translate(-20 -20)">
	<g transform="translate(20 20)">
		<path class="st0" d="M22.9,0h13.4v32.1L22.9,0z"/>
		<path class="st0" d="M13.5,0H0v32.1L13.5,0z"/>
		<path class="st0" d="M18.2,11.8l8.6,20.3h-5.6l-2.6-6.5h-6.3L18.2,11.8z"/>
		<path class="st0" d="M4.7,45c-0.3-1.3-0.7-3.3-0.9-4.5h0c-0.2,1.2-0.5,3-0.8,4.5H4.7z M2.6,46.9L2,49.7c0,0.1-0.1,0.1-0.1,0.1H0.1
			c-0.1,0-0.1,0-0.1-0.2l2.3-10.1c0.1-0.3,0.1-0.7,0.1-1c0-0.1,0-0.1,0.1-0.1c0,0,0,0,0,0H5c0.1,0,0.1,0,0.1,0.1l2.7,11.1
			c0,0.1,0,0.1-0.1,0.1H5.8c-0.1,0-0.1,0-0.1-0.1c0,0,0,0,0,0l-0.6-2.8L2.6,46.9z"/>
		<path class="st0" d="M12.4,42.8c-0.1,0-0.3-0.1-0.4-0.1c-1,0-1.7,0.9-1.7,2.7c0,1.9,0.7,2.7,1.7,2.7c0.1,0,0.3,0,0.4-0.1
			L12.4,42.8z M8.1,45.5c0-2.6,1.5-4.6,3.9-4.6h0.3v-3c0-0.1,0-0.1,0.1-0.1h1.9c0.1,0,0.1,0,0.1,0.1v10.2c0,0.4,0,0.8,0.1,1.2
			c0,0.1,0,0.1-0.1,0.1c-0.8,0.4-1.7,0.6-2.6,0.6C9.7,50,8.1,48.5,8.1,45.5z"/>
		<path class="st0" d="M17.7,45.4c0,1.6,0.4,2.7,1.2,2.7c0.8,0,1.1-0.9,1.1-2.7c0-1.7-0.3-2.7-1.1-2.7
			C18.1,42.8,17.7,43.6,17.7,45.4z M22,45.4c0,2.8-1.2,4.6-3.2,4.6c-2.3,0-3.2-2-3.2-4.6c0-2.6,1.2-4.5,3.3-4.5
			C20.8,40.9,22,42.6,22,45.4L22,45.4z"/>
		<path class="st0" d="M25.9,42.8c-0.2,0-0.4,0-0.6,0.1v5.2c0.1,0,0.2,0,0.4,0c0.8,0,1.7-0.8,1.8-3C27.4,43.4,26.7,42.8,25.9,42.8z
			 M25.1,37.8c0.1,0,0.1,0,0.1,0.1V41c0.3-0.1,0.6-0.1,1-0.1c1.8,0,3.2,1.4,3.2,4.2c0,3.2-1.8,4.9-4.1,4.9c-0.7,0-1.4-0.1-2.1-0.3
			c-0.1,0-0.1-0.1-0.1-0.1V37.9c0-0.1,0-0.1,0.1-0.1c0,0,0,0,0,0L25.1,37.8z"/>
		<path class="st0" d="M33.8,44.3c0.2,0,0.4,0,0.5,0c0-0.1,0-0.1,0-0.2c0-0.7-0.2-1.4-0.9-1.4c-0.7,0-1,0.7-1.1,1.6L33.8,44.3z
			 M32.3,45.9c0,1.4,0.5,2.2,1.9,2.2c0.5,0,0.9-0.1,1.3-0.3c0.1,0,0.1,0,0.1,0.1v1.5c0,0.1,0,0.2-0.1,0.2c-0.6,0.2-1.2,0.3-1.8,0.3
			c-2.6,0-3.6-1.9-3.6-4.4c0-2.7,1.2-4.7,3.2-4.7c2.2,0,2.8,1.9,2.8,3.5c0,0.4,0,0.9-0.1,1.3c0,0.1-0.1,0.1-0.2,0.1
			c-0.2,0-0.7,0.1-1.7,0.1L32.3,45.9z"/>
		<rect y="50" class="st1" width="66" height="30"/>
		<rect x="36" class="st1" width="30" height="80"/>
	</g>
	<text transform="matrix(1 0 0 1 20 113)" class="st0 st2 st3">Comment. Edit. E-sign. </text>
	<text transform="matrix(1 0 0 1 20 143)" class="st0 st2 st3">Renew Acrobat Pro DC.</text>
	<g transform="translate(20 145)">
		<path class="st0" d="M38.8,40.7c-1,0-1.4,0.7-1.5,1.4h2.1c0.5,0,0.7,0,0.8,0c0,0,0-0.1,0-0.1C40.1,41.5,39.8,40.7,38.8,40.7z"/>
		<path class="st0" d="M24,40.7c-1,0-1.4,0.7-1.5,1.4h2.1c0.5,0,0.7,0,0.8,0c0,0,0-0.1,0-0.1C25.4,41.5,25.1,40.7,24,40.7z"/>
		<path class="st0" d="M76,24H18C8.1,24,0,32.1,0,42s8.1,18,18,18h58c9.9,0,18-8.1,18-18S85.9,24,76,24z M20.5,46.4h-1.8
			c-0.1,0-0.2,0-0.2-0.1c-0.4-0.6-1.4-2.2-2-3.2c-0.1-0.2-0.2-0.2-0.3-0.2H15v3.4c0,0.1,0,0.1-0.1,0.1h-1.4c-0.1,0-0.1,0-0.1-0.1
			v-8.9c0-0.1,0-0.1,0.1-0.1c1.1,0,1.7,0,2.8,0c2.2,0,3.6,1,3.6,2.8c0,1.2-0.8,2.1-1.8,2.5c0.5,0.6,2.1,3.2,2.5,3.9
			C20.6,46.3,20.6,46.4,20.5,46.4z M26.9,43.1c0,0.1,0,0.1-0.1,0.1c-0.2,0-0.8,0.1-1.4,0.1h-2.8c0,1,0.7,1.8,2.1,1.8
			c0.6,0,1.2-0.1,1.7-0.3c0,0,0.1,0,0.1,0.1v1.2c0,0.1,0,0.1-0.1,0.2c-0.5,0.3-1.1,0.4-2.1,0.4c-2.5,0-3.5-1.8-3.5-3.5
			c0-1.9,1.2-3.7,3.3-3.7c2.1,0,2.9,1.6,2.9,3C27,42.7,27,43,26.9,43.1z M34.2,46.2c0,0.1,0,0.1-0.1,0.1h-1.5c-0.1,0-0.1,0-0.1-0.1
			v-4c0-0.9-0.4-1.5-1.2-1.5c-0.6,0-1,0.2-1.4,0.6v4.9c0,0.1,0,0.1-0.1,0.1h-1.5c-0.1,0-0.1,0-0.1-0.1v-5.2c0-0.5,0-1.2-0.1-1.5
			c0-0.1,0-0.1,0.1-0.1h1.3c0.1,0,0.1,0,0.2,0.1c0,0.1,0.1,0.3,0.1,0.5c0.6-0.5,1.3-0.8,2-0.8c1.1,0,2.3,0.5,2.3,2.8V46.2z
			 M41.7,43.1c0,0.1,0,0.1-0.1,0.1c-0.2,0-0.8,0.1-1.4,0.1h-2.8c0,1,0.7,1.8,2.1,1.8c0.6,0,1.2-0.1,1.7-0.3c0,0,0.1,0,0.1,0.1v1.2
			c0,0.1,0,0.1-0.1,0.2c-0.5,0.3-1.1,0.4-2.1,0.4c-2.5,0-3.5-1.8-3.5-3.5c0-1.9,1.2-3.7,3.3-3.7c2.1,0,2.9,1.6,2.9,3
			C41.7,42.7,41.7,43,41.7,43.1z M50.5,46.2c0,0.1-0.1,0.1-0.2,0.1h-1.5c-0.1,0-0.1,0-0.2-0.1c-0.8-3.1-1.1-4.4-1.2-5.1h0
			c-0.3,1.4-0.7,2.7-1.3,5.1c0,0.1-0.1,0.1-0.2,0.1h-1.5c-0.1,0-0.2,0-0.2-0.1l-1.8-6.7c0-0.1,0-0.1,0.1-0.1h1.5
			c0.1,0,0.1,0,0.1,0.1c0.8,3.3,1.1,4.6,1.1,5.2h0c0.1-0.5,0.4-1.8,1.3-5.2c0-0.1,0-0.1,0.1-0.1h1.6c0.1,0,0.1,0,0.1,0.1
			c0.9,3.4,1.1,4.7,1.2,5.2h0c0.2-0.8,0.4-2.2,1.2-5.2c0-0.1,0.1-0.1,0.1-0.1h1.4c0.1,0,0.1,0,0.1,0.1L50.5,46.2z M62.7,46.2
			c0,0.1,0,0.1-0.1,0.1h-1.5c-0.1,0-0.1,0-0.1-0.1v-4c0-0.9-0.4-1.5-1.2-1.5c-0.6,0-1,0.2-1.4,0.6v4.9c0,0.1,0,0.1-0.1,0.1h-1.5
			c-0.1,0-0.1,0-0.1-0.1v-5.2c0-0.5,0-1.2-0.1-1.5c0-0.1,0-0.1,0.1-0.1h1.3c0.1,0,0.1,0,0.2,0.1c0,0.1,0.1,0.3,0.1,0.5
			c0.6-0.5,1.3-0.8,2-0.8c1.1,0,2.3,0.5,2.3,2.8V46.2z M67.4,46.5c-2.3,0-3.4-1.8-3.4-3.6c0-2,1.3-3.6,3.4-3.6
			c2.2,0,3.3,1.6,3.3,3.6C70.8,45,69.4,46.5,67.4,46.5z M79.5,46.2c0,0.1-0.1,0.1-0.2,0.1h-1.5c-0.1,0-0.1,0-0.2-0.1
			c-0.8-3.1-1.1-4.4-1.2-5.1h0c-0.3,1.4-0.7,2.7-1.3,5.1c0,0.1-0.1,0.1-0.2,0.1h-1.5c-0.1,0-0.2,0-0.2-0.1l-1.8-6.7
			c0-0.1,0-0.1,0.1-0.1h1.5c0.1,0,0.1,0,0.1,0.1c0.8,3.3,1.1,4.6,1.1,5.2h0c0.1-0.5,0.4-1.8,1.3-5.2c0-0.1,0-0.1,0.1-0.1h1.6
			c0.1,0,0.1,0,0.1,0.1c0.9,3.4,1.1,4.7,1.2,5.2h0c0.2-0.8,0.4-2.2,1.2-5.2c0-0.1,0.1-0.1,0.1-0.1h1.4c0.1,0,0.1,0,0.1,0.1
			L79.5,46.2z"/>
		<path class="st0" d="M16.2,38.6c-0.5,0-0.9,0-1.1,0v2.8h1.2c1.1,0,1.9-0.5,1.9-1.4C18.1,39.1,17.4,38.6,16.2,38.6z"/>
		<path class="st0" d="M67.4,40.7c-0.9,0-1.6,0.8-1.6,2.2c0,1.3,0.6,2.2,1.7,2.2c0.9,0,1.6-0.7,1.6-2.2
			C69.1,41.7,68.6,40.7,67.4,40.7z"/>
		<rect class="st1" width="124" height="24"/>
		<rect x="94" class="st1" width="30" height="60"/>
	</g>
</g>
</svg>
