<svg xmlns="http://www.w3.org/2000/svg" viewBox="0 0 254.01 23.63"><defs><style>.a{isolation:isolate;}.b{fill:#fff;}</style></defs><title>tag_headline2</title><g class="a"><path class="b" d="M12.92,21.77c0,.2-.08.23-.26.23H2.08c-.16,0-.21-.08-.21-.23V5.2c0-.15,0-.23.21-.23H12.35c.21,0,.26,0,.29.21L12.92,8c0,.13,0,.23-.18.23H5.49V11.7h6.63c.13,0,.2.06.2.21v2.86c0,.16-.1.18-.2.18H5.49v3.8h7.67c.2,0,.23.08.2.23Z" transform="translate(-1.87 -3.57)"/><path class="b" d="M15.37,12.09c0-.88-.06-2.23-.11-2.8,0-.13,0-.21.18-.21h2.73a.31.31,0,0,1,.34.21,2.85,2.85,0,0,1,.21.85,5.7,5.7,0,0,1,3.69-1.32c2,0,4.37,1,4.37,5.22v7.73c0,.15-.05.23-.23.23H23.43c-.19,0-.26-.08-.26-.23V14.36c0-1.56-.68-2.4-2-2.4a3.17,3.17,0,0,0-2.16.81v9a.2.2,0,0,1-.23.21H15.6c-.18,0-.23-.08-.23-.23Z" transform="translate(-1.87 -3.57)"/><path class="b" d="M29.12,15.66c0-3.72,2.78-6.84,7.54-6.84.21,0,.47,0,.86,0V3.75a.16.16,0,0,1,.18-.18H41c.13,0,.15.05.15.15V19.09a14.29,14.29,0,0,0,.11,1.9c0,.13,0,.18-.19.23a13.12,13.12,0,0,1-5.12,1C32.08,22.26,29.12,20.08,29.12,15.66Zm8.4-3.7a2.79,2.79,0,0,0-1-.13,3.47,3.47,0,0,0-3.72,3.64c0,2.58,1.48,3.7,3.46,3.7A3.68,3.68,0,0,0,37.52,19Z" transform="translate(-1.87 -3.57)"/><path class="b" d="M44.25,3.77c0-.13,0-.2.26-.2h3.1c.18,0,.26.07.26.2V18.33c0,.73.23,1,.85,1a3.86,3.86,0,0,0,.47,0c.11,0,.13.05.13.18v2.23c0,.21,0,.26-.18.32a4.29,4.29,0,0,1-1.61.23c-1.87,0-3.28-.7-3.28-3.59Z" transform="translate(-1.87 -3.57)"/><path class="b" d="M54.34,16.49c.13,1.48,1.17,2.7,3.72,2.7a8,8,0,0,0,3.2-.6c.07-.05.15,0,.15.13v2.47c0,.19,0,.26-.18.32a8.78,8.78,0,0,1-4,.75c-4.89,0-6.6-3.35-6.6-6.58,0-3.59,2.21-6.86,6.29-6.86s5.49,3,5.49,5.61a9,9,0,0,1-.13,1.75.22.22,0,0,1-.21.2,21.81,21.81,0,0,1-2.68.11ZM57.72,14a7.33,7.33,0,0,0,1.3-.06v-.18a2.11,2.11,0,0,0-2.21-2.05A2.47,2.47,0,0,0,54.31,14Z" transform="translate(-1.87 -3.57)"/><path class="b" d="M69.16,11.7c-1.22,0-1.61.45-1.61.89s.33.78,1.84,1.35c3.15,1.14,4.14,2.37,4.14,4.21,0,2.47-1.93,4.11-5.36,4.11a8.43,8.43,0,0,1-3.77-.73.3.3,0,0,1-.18-.28V18.44c0-.16.1-.24.21-.16a7.3,7.3,0,0,0,3.82,1c1.22,0,1.77-.34,1.77-.88s-.44-.86-2-1.43c-2.94-1.09-3.9-2.34-3.9-4.21,0-2,1.64-4,5.07-4a8.62,8.62,0,0,1,3.38.52.33.33,0,0,1,.18.34v2.6c0,.15-.1.26-.26.18A8,8,0,0,0,69.16,11.7Z" transform="translate(-1.87 -3.57)"/><path class="b" d="M80.18,11.7c-1.22,0-1.61.45-1.61.89s.34.78,1.85,1.35c3.14,1.14,4.13,2.37,4.13,4.21,0,2.47-1.92,4.11-5.36,4.11a8.46,8.46,0,0,1-3.77-.73.3.3,0,0,1-.18-.28V18.44c0-.16.11-.24.21-.16a7.33,7.33,0,0,0,3.82,1c1.22,0,1.77-.34,1.77-.88s-.44-.86-2-1.43c-2.93-1.09-3.9-2.34-3.9-4.21,0-2,1.64-4,5.07-4a8.62,8.62,0,0,1,3.38.52.34.34,0,0,1,.19.34v2.6c0,.15-.11.26-.26.18A8,8,0,0,0,80.18,11.7Z" transform="translate(-1.87 -3.57)"/><path class="b" d="M103.11,22a.28.28,0,0,1-.31-.23c-1.3-5.31-1.71-7.7-2-9h0c-.65,2.86-1.17,5-2.26,9-.05.18-.13.23-.29.23H95c-.26,0-.31-.05-.36-.23L91.26,9.31c-.05-.13,0-.23.21-.23h3.3c.15,0,.21.05.23.18,1.38,5.62,1.74,8.11,1.93,9.2h0c.21-.93.62-3.38,2.13-9.15,0-.15,0-.23.23-.23h3.44c.13,0,.18.05.2.18,1.38,5.75,1.75,8.27,1.93,9.31h0c.36-1.69.75-4.5,2-9.31a.22.22,0,0,1,.24-.18h3c.1,0,.21.08.15.21l-3.71,12.48c-.06.18-.08.23-.32.23Z" transform="translate(-1.87 -3.57)"/><path class="b" d="M121.89,19.11c0,.68,0,1.23,0,1.85,0,.05,0,.1,0,.13a14.44,14.44,0,0,1-5.67,1.17c-2.89,0-5.25-1.33-5.25-4.34,0-2.76,2.41-4.21,5.87-4.21a11.6,11.6,0,0,1,1.54,0v-.18c0-.5-.32-1.64-2.5-1.64a8.36,8.36,0,0,0-3.43.7.16.16,0,0,1-.24-.13V9.88c0-.13,0-.2.19-.26a9.84,9.84,0,0,1,4.08-.8c3.74,0,5.41,2.31,5.41,5.28Zm-3.51-2.67a8.55,8.55,0,0,0-1.3-.08c-1.85,0-2.6.6-2.6,1.53s.65,1.56,2.28,1.56a5.51,5.51,0,0,0,1.62-.23Z" transform="translate(-1.87 -3.57)"/><path class="b" d="M126.62,9.08a.27.27,0,0,1,.26.18c1.48,4.45,2.26,7.15,2.62,8.5.84-2.75,1.64-5.25,2.66-8.5a.27.27,0,0,1,.28-.18h3.1c.18,0,.2.1.18.23-1.87,5.83-4.76,13-6.68,17.45-.06.1-.13.18-.37.18l-3.27.26c-.16,0-.21-.08-.13-.23.75-1.56,1.53-3.28,2.36-5.23a.44.44,0,0,0,0-.44c-.73-1.8-3.17-7.93-4.71-12-.08-.13,0-.21.16-.21Z" transform="translate(-1.87 -3.57)"/><path class="b" d="M141.91,11.7c-1.23,0-1.62.45-1.62.89s.34.78,1.85,1.35c3.15,1.14,4.13,2.37,4.13,4.21,0,2.47-1.92,4.11-5.35,4.11a8.4,8.4,0,0,1-3.77-.73c-.13-.08-.19-.15-.19-.28V18.44c0-.16.11-.24.21-.16a7.36,7.36,0,0,0,3.83,1c1.22,0,1.76-.34,1.76-.88s-.44-.86-2-1.43c-2.94-1.09-3.9-2.34-3.9-4.21,0-2,1.64-4,5.07-4a8.66,8.66,0,0,1,3.38.52.34.34,0,0,1,.18.34v2.6c0,.15-.1.26-.26.18A8,8,0,0,0,141.91,11.7Z" transform="translate(-1.87 -3.57)"/><path class="b" d="M160.73,21.56c0,.15,0,.28-.18.34a6.5,6.5,0,0,1-2.32.36c-2.26,0-3.58-1.12-3.58-3.72V12.09h-1.56c-.16,0-.21-.07-.21-.23V9.31c0-.18.05-.23.23-.23h1.56a29.5,29.5,0,0,1,.26-3.15.28.28,0,0,1,.24-.23l3-.39c.13,0,.21,0,.21.15-.08.81-.13,2.34-.13,3.62h2.39c.15,0,.21.05.21.21v2.62c0,.13-.06.16-.19.18h-2.44v5.57c0,1.14.34,1.66,1.4,1.66a5.27,5.27,0,0,0,.89-.1c.1,0,.18,0,.18.18Z" transform="translate(-1.87 -3.57)"/><path class="b" d="M174.87,15.47c0,4.09-2.65,6.79-6.39,6.79-4.45,0-6.43-3.35-6.43-6.71,0-3.69,2.48-6.73,6.48-6.73C172.71,8.82,174.87,12,174.87,15.47Zm-9.15,0c0,2.29,1.07,3.74,2.81,3.74,1.51,0,2.65-1.3,2.65-3.69,0-2-.83-3.72-2.81-3.72C166.87,11.83,165.72,13.19,165.72,15.5Z" transform="translate(-1.87 -3.57)"/><path class="b" d="M192.24,21.64c0,.13,0,.18-.13.2a8,8,0,0,1-2.91.42c-4.21,0-6.87-2.83-6.87-6.66s2.94-6.78,7.36-6.78a7.23,7.23,0,0,1,2.39.28c.13.06.16.13.16.29l0,2.68c0,.18-.1.21-.2.18a6.58,6.58,0,0,0-2.19-.31c-2.18,0-3.77,1.19-3.77,3.53,0,2.71,2,3.59,3.83,3.59a8.51,8.51,0,0,0,2.15-.23c.16,0,.21,0,.21.1Z" transform="translate(-1.87 -3.57)"/><path class="b" d="M197.31,9.08a.29.29,0,0,1,.31.23,5.14,5.14,0,0,1,.29,1.46A5.41,5.41,0,0,1,202,8.82c.16,0,.21,0,.21.21v3.19c0,.13-.05.19-.23.19a5.36,5.36,0,0,0-3.93,1.11l0,8.27c0,.16-.05.21-.23.21h-3.12c-.21,0-.26-.08-.26-.23v-9c0-1.12,0-2.63-.13-3.54,0-.13,0-.18.16-.18Z" transform="translate(-1.87 -3.57)"/><path class="b" d="M207.09,16.49c.13,1.48,1.17,2.7,3.71,2.7a8,8,0,0,0,3.2-.6c.08-.05.16,0,.16.13v2.47c0,.19,0,.26-.18.32a8.81,8.81,0,0,1-4,.75c-4.89,0-6.61-3.35-6.61-6.58,0-3.59,2.21-6.86,6.3-6.86,3.92,0,5.48,3,5.48,5.61a8.28,8.28,0,0,1-.13,1.75.21.21,0,0,1-.21.2,21.47,21.47,0,0,1-2.67.11ZM210.47,14a7.42,7.42,0,0,0,1.3-.06v-.18a2.12,2.12,0,0,0-2.21-2.05,2.47,2.47,0,0,0-2.5,2.29Z" transform="translate(-1.87 -3.57)"/><path class="b" d="M227.57,19.11a18.45,18.45,0,0,0,.06,1.85c0,.05,0,.1-.06.13a14.36,14.36,0,0,1-5.66,1.17c-2.89,0-5.26-1.33-5.26-4.34,0-2.76,2.42-4.21,5.88-4.21a11.34,11.34,0,0,1,1.53,0v-.18c0-.5-.31-1.64-2.49-1.64a8.41,8.41,0,0,0-3.44.7.15.15,0,0,1-.23-.13V9.88a.23.23,0,0,1,.18-.26,9.92,9.92,0,0,1,4.09-.8c3.74,0,5.4,2.31,5.4,5.28Zm-3.51-2.67a8.47,8.47,0,0,0-1.3-.08c-1.84,0-2.6.6-2.6,1.53s.65,1.56,2.29,1.56a5.4,5.4,0,0,0,1.61-.23Z" transform="translate(-1.87 -3.57)"/><path class="b" d="M236.93,21.56c0,.15,0,.28-.18.34a6.44,6.44,0,0,1-2.31.36c-2.26,0-3.59-1.12-3.59-3.72V12.09h-1.56c-.16,0-.21-.07-.21-.23V9.31c0-.18,0-.23.24-.23h1.56a27.11,27.11,0,0,1,.26-3.15.26.26,0,0,1,.23-.23l3-.39c.13,0,.21,0,.21.15-.08.81-.13,2.34-.13,3.62h2.39c.16,0,.21.05.21.21v2.62c0,.13-.05.16-.18.18h-2.45v5.57c0,1.14.34,1.66,1.41,1.66a5.27,5.27,0,0,0,.88-.1c.11,0,.18,0,.18.18Z" transform="translate(-1.87 -3.57)"/><path class="b" d="M242,16.49c.13,1.48,1.17,2.7,3.72,2.7a8,8,0,0,0,3.2-.6c.08-.05.15,0,.15.13v2.47c0,.19-.05.26-.18.32a8.78,8.78,0,0,1-4,.75c-4.89,0-6.6-3.35-6.6-6.58,0-3.59,2.21-6.86,6.29-6.86,3.93,0,5.49,3,5.49,5.61a8.28,8.28,0,0,1-.13,1.75.22.22,0,0,1-.21.2,21.81,21.81,0,0,1-2.68.11ZM245.33,14a7.33,7.33,0,0,0,1.3-.06v-.18a2.11,2.11,0,0,0-2.21-2.05A2.45,2.45,0,0,0,241.93,14Z" transform="translate(-1.87 -3.57)"/><path class="b" d="M251.57,20.08a2.16,2.16,0,0,1,4.32,0,2,2,0,0,1-2.16,2.18A2.05,2.05,0,0,1,251.57,20.08Z" transform="translate(-1.87 -3.57)"/></g></svg>