<svg xmlns="http://www.w3.org/2000/svg" viewBox="0 0 102 36"><defs><style>.a{fill:none;stroke:#fff;stroke-width:2px;}.b{fill:#fff;}</style></defs><title>tag_cta</title><path class="a" d="M18,1H84a17,17,0,0,1,17,17h0A17,17,0,0,1,84,35H18A17,17,0,0,1,1,18H1A17,17,0,0,1,18,1Z" transform="translate(0 0)"/><path class="b" d="M18.51,22.36c-.08,0-.11,0-.11-.13V13.47c0-.06,0-.13.1-.13,1.24,0,1.76-.05,2.88-.05,2.29,0,3.57,1,3.57,2.76a2.58,2.58,0,0,1-1.72,2.43c.46.62,2,3,2.44,3.71,0,.08.06.17,0,.17h-2c-.12,0-.17,0-.19-.09-.4-.6-1.27-2.08-1.84-3-.09-.16-.16-.23-.32-.23h-1v3.23a.1.1,0,0,1-.11.11Zm2.83-5c1,0,1.7-.41,1.7-1.23S22.35,15,21.33,15c-.46,0-.85,0-1,0v2.4Z" transform="translate(0 0)"/><path class="b" d="M27.83,19.43c.06.79.62,1.44,2,1.44a4.24,4.24,0,0,0,1.69-.32c.05,0,.09,0,.09.07v1.31c0,.1,0,.14-.1.17a4.66,4.66,0,0,1-2.11.4A3.23,3.23,0,0,1,25.87,19a3.36,3.36,0,0,1,3.33-3.65,2.82,2.82,0,0,1,2.92,3,4.54,4.54,0,0,1-.07.93.14.14,0,0,1-.11.11,12.77,12.77,0,0,1-1.42.05Zm1.79-1.33a5,5,0,0,0,.69,0V18a1.12,1.12,0,0,0-1.17-1.09,1.31,1.31,0,0,0-1.33,1.22Z" transform="translate(0 0)"/><path class="b" d="M35.23,15.5a.1.1,0,0,1,.11.11v6.18a3.7,3.7,0,0,1-.69,2.69,2.64,2.64,0,0,1-1.95.79,2.17,2.17,0,0,1-.36,0c-.1,0-.13-.05-.13-.13V23.71c0-.07,0-.11.1-.11.72,0,1.12-.28,1.12-1.28V15.61c0-.07,0-.11.12-.11Zm-1.91-1.81a1,1,0,0,1,1.09-1.06,1,1,0,0,1,1.06,1.06,1,1,0,0,1-1.08,1.08A1,1,0,0,1,33.32,13.69Z" transform="translate(0 0)"/><path class="b" d="M43.39,18.9A3.34,3.34,0,0,1,40,22.5a3.3,3.3,0,0,1-3.4-3.56A3.38,3.38,0,0,1,40,15.36,3.29,3.29,0,0,1,43.39,18.9Zm-4.86,0c0,1.21.57,2,1.49,2s1.41-.69,1.41-2c0-1.08-.44-2-1.49-2C39.14,17,38.53,17.68,38.53,18.91Z" transform="translate(0 0)"/><path class="b" d="M44.53,13.69a1,1,0,0,1,1.08-1.06,1,1,0,0,1,1.06,1.06,1.07,1.07,0,1,1-2.14,0Zm.1,1.92a.1.1,0,0,1,.11-.11h1.7c.08,0,.11,0,.11.11v6.62c0,.09,0,.13-.13.13H44.77c-.1,0-.14,0-.14-.13Z" transform="translate(0 0)"/><path class="b" d="M48.15,17.1c0-.47,0-1.18-.06-1.49,0-.07,0-.11.1-.11h1.45a.16.16,0,0,1,.18.11,2.07,2.07,0,0,1,.11.46,3,3,0,0,1,2-.71c1.06,0,2.31.56,2.31,2.78v4.09c0,.09,0,.13-.12.13H52.42c-.09,0-.13,0-.13-.13V18.3c0-.83-.36-1.27-1.08-1.27a1.67,1.67,0,0,0-1.14.43v4.79c0,.07,0,.11-.13.11H48.27c-.09,0-.12,0-.12-.13Z" transform="translate(0 0)"/><path class="b" d="M59,17.1c0-.47,0-1.18-.05-1.49,0-.07,0-.11.09-.11h1.45a.16.16,0,0,1,.18.11,1.63,1.63,0,0,1,.11.46,3,3,0,0,1,2-.71c1.06,0,2.32.56,2.32,2.78v4.09c0,.09,0,.13-.13.13H63.27c-.1,0-.14,0-.14-.13V18.3c0-.83-.36-1.27-1.08-1.27a1.69,1.69,0,0,0-1.14.43v4.79c0,.07,0,.11-.12.11H59.12c-.1,0-.13,0-.13-.13Z" transform="translate(0 0)"/><path class="b" d="M73.09,18.9a3.4,3.4,0,1,1-6.8,0,3.38,3.38,0,0,1,3.44-3.58A3.28,3.28,0,0,1,73.09,18.9Zm-4.85,0c0,1.21.56,2,1.49,2s1.4-.69,1.4-2c0-1.08-.44-2-1.49-2C68.84,17,68.24,17.68,68.24,18.91Z" transform="translate(0 0)"/><path class="b" d="M80,22.36c-.11,0-.13,0-.16-.13-.69-2.81-.91-4.08-1-4.76h0c-.35,1.52-.62,2.67-1.2,4.76,0,.1-.07.13-.16.13H75.7c-.14,0-.17,0-.19-.13l-1.8-6.6c0-.07,0-.13.11-.13h1.76c.08,0,.11,0,.12.1.73,3,.92,4.3,1,4.88h0c.11-.5.33-1.79,1.13-4.85,0-.09,0-.13.12-.13h1.82c.07,0,.1,0,.11.1.74,3,.93,4.38,1,4.94h0c.2-.9.4-2.39,1.06-4.94a.12.12,0,0,1,.13-.1h1.61a.08.08,0,0,1,.09.11l-2,6.62c0,.1,0,.13-.16.13Z" transform="translate(0 0)"/></svg>