<svg id="Layer_2" data-name="Layer 2" xmlns="http://www.w3.org/2000/svg" viewBox="0 0 257.74 209.44"><defs><style>.cls-1{fill:#fff;}.cls-2{fill:none;}</style></defs><path class="cls-1" d="M18.74,169.43H29.48v25.71Z" transform="translate(0 0)"/><path class="cls-1" d="M11.18,169.43H.41v25.71Z" transform="translate(0 0)"/><path class="cls-1" d="M15,178.9l6.84,16.24H17.32L15.27,190h-5Z" transform="translate(0 0)"/><path class="cls-1" d="M4.17,205.43c-.21-1.05-.58-2.62-.72-3.64h0c-.15,1-.42,2.38-.66,3.64ZM2.47,207,2,209.2c0,.08,0,.1-.11.1H.51c-.09,0-.12,0-.1-.15l1.88-8.1a3,3,0,0,0,0-.79.08.08,0,0,1,.07-.08h2c.07,0,.1,0,.12.1l2.19,8.9c0,.08,0,.11-.09.11H5.08a.1.1,0,0,1-.11-.08H5L4.47,207Z" transform="translate(0 0)"/><path class="cls-1" d="M10.31,203.68a1.61,1.61,0,0,0-.31,0c-.8,0-1.39.72-1.39,2.14s.59,2.12,1.37,2.12h.33Zm-3.38,2.15c0-2.06,1.21-3.66,3.15-3.66h.23v-2.43s0-.07.06-.08h1.54c.06,0,.07,0,.07.08v8.15a7.53,7.53,0,0,0,0,1,.11.11,0,0,1-.06.1,4.73,4.73,0,0,1-2.05.5C8.13,209.43,6.93,208.26,6.93,205.83Z" transform="translate(0 0)"/><path class="cls-1" d="M14.54,205.78c0,1.31.29,2.18.92,2.18s.91-.74.91-2.17-.23-2.15-.9-2.15S14.54,204.31,14.54,205.78Zm3.49,0c0,2.23-.93,3.65-2.57,3.65-1.85,0-2.58-1.61-2.58-3.67s.94-3.6,2.61-3.6S18,203.5,18,205.77Z" transform="translate(0 0)"/><path class="cls-1" d="M21.11,203.67a1.79,1.79,0,0,0-.51.07v4.18a.76.76,0,0,0,.3,0c.64,0,1.39-.65,1.4-2.4C22.31,204.16,21.76,203.67,21.11,203.67Zm-.58-4c.06,0,.07,0,.07.09v2.5a3.22,3.22,0,0,1,.76-.09c1.48,0,2.59,1.14,2.59,3.33,0,2.56-1.45,3.94-3.28,3.94a5.42,5.42,0,0,1-1.65-.26.12.12,0,0,1-.08-.11v-9.31a.07.07,0,0,1,0-.08h1.55Z" transform="translate(0 0)"/><path class="cls-1" d="M27.41,204.86h.42a.38.38,0,0,0,0-.15c0-.54-.16-1.1-.75-1.1s-.79.58-.86,1.27Zm-1.2,1.33c0,1.09.41,1.75,1.55,1.75a2.66,2.66,0,0,0,1.08-.2c.07,0,.11,0,.11.07V209c0,.1,0,.16-.1.19a3.06,3.06,0,0,1-1.4.25c-2.07,0-2.88-1.52-2.88-3.52s.93-3.74,2.59-3.74,2.25,1.55,2.25,2.8a9.55,9.55,0,0,1,0,1.07.14.14,0,0,1-.13.11H27.94Z" transform="translate(0 0)"/><rect class="cls-2" x="0.41" y="144.43" width="54" height="25"/><rect class="cls-2" x="29.41" y="144.43" width="25" height="65"/><path class="cls-1" d="M13.11,17.86c0,.18,0,.31-.21.36a11.31,11.31,0,0,1-3.61.47c-5,0-9-3-9-8.68,0-5.28,3.64-8.87,9.39-8.87a8.64,8.64,0,0,1,3.38.44.3.3,0,0,1,.18.31V4.73c0,.23-.13.23-.24.18a8,8,0,0,0-3.38-.57C6.14,4.34,4,6.5,4,9.88c0,4,3,5.59,5.69,5.59a9.48,9.48,0,0,0,3.17-.42c.13-.05.21,0,.21.13Z" transform="translate(0 0)"/><path class="cls-1" d="M27.41,11.9c0,4.09-2.66,6.79-6.4,6.79-4.45,0-6.42-3.35-6.42-6.71,0-3.69,2.47-6.73,6.47-6.73C25.23,5.25,27.41,8.43,27.41,11.9Zm-9.16,0c0,2.29,1.07,3.74,2.81,3.74,1.51,0,2.65-1.3,2.65-3.69,0-2-.83-3.72-2.8-3.72-1.5,0-2.68,1.39-2.68,3.7Z" transform="translate(0 0)"/><path class="cls-1" d="M30,18.43c-.18,0-.23-.08-.23-.23V8.32c0-1-.08-2.08-.11-2.58,0-.15.05-.23.21-.23h2.76a.37.37,0,0,1,.31.15,3.37,3.37,0,0,1,.15,1A5.66,5.66,0,0,1,36.8,5.28a3.71,3.71,0,0,1,3.33,1.66,6.32,6.32,0,0,1,4.21-1.66c2.26,0,4.44,1.22,4.44,5.15v7.8a.2.2,0,0,1-.16.23H45.41c-.18,0-.26-.08-.26-.23V10.76c0-1.35-.47-2.39-2-2.39a3.52,3.52,0,0,0-2.21.83A10.13,10.13,0,0,1,41,10.66V18.2c0,.13,0,.23-.21.23h-3.1c-.16,0-.26-.05-.26-.23V10.66c0-1.56-.73-2.27-2-2.27a3.56,3.56,0,0,0-2.13.73v9.1c0,.13,0,.21-.23.21Z" transform="translate(0 0)"/><path class="cls-1" d="M52.06,18.43c-.18,0-.23-.08-.23-.23V8.32c0-1-.08-2.08-.11-2.58,0-.15,0-.23.21-.23h2.76a.37.37,0,0,1,.31.15,3.37,3.37,0,0,1,.15,1A5.66,5.66,0,0,1,58.9,5.28a3.71,3.71,0,0,1,3.33,1.66,6.32,6.32,0,0,1,4.18-1.69c2.26,0,4.44,1.22,4.44,5.15v7.8a.2.2,0,0,1-.16.23H67.53c-.18,0-.26-.08-.26-.23V10.76c0-1.35-.47-2.39-2-2.39a3.52,3.52,0,0,0-2.21.83,10.13,10.13,0,0,1,.08,1.46V18.2c0,.13,0,.23-.21.23H59.81c-.16,0-.26-.05-.26-.23V10.66c0-1.56-.73-2.27-2-2.27a3.56,3.56,0,0,0-2.13.73v9.1c0,.13-.05.21-.23.21Z" transform="translate(0 0)"/><path class="cls-1" d="M76.92,12.92c.13,1.48,1.17,2.7,3.71,2.7a8,8,0,0,0,3.2-.6c.08,0,.16,0,.16.13v2.47c0,.19,0,.26-.18.32a8.75,8.75,0,0,1-4,.75c-4.89,0-6.61-3.35-6.61-6.58,0-3.59,2.21-6.86,6.3-6.86,3.92,0,5.48,3,5.48,5.61a7.9,7.9,0,0,1-.13,1.75.22.22,0,0,1-.21.2,21.68,21.68,0,0,1-2.67.11Zm3.38-2.49a7.08,7.08,0,0,0,1.3-.06v-.18a2.12,2.12,0,0,0-2.16-2.08h0a2.47,2.47,0,0,0-2.52,2.32Z" transform="translate(0 0)"/><path class="cls-1" d="M87.32,8.52c0-.88-.06-2.23-.11-2.8,0-.13,0-.21.18-.21h2.73a.32.32,0,0,1,.34.21,3.11,3.11,0,0,1,.21.85,5.74,5.74,0,0,1,3.74-1.32c2,0,4.37,1,4.37,5.22V18.2c0,.15,0,.23-.23.23H95.41c-.19,0-.26-.08-.26-.23V10.79c0-1.56-.68-2.4-2-2.4A3.17,3.17,0,0,0,91,9.2v9a.19.19,0,0,1-.19.21H87.55c-.18,0-.23-.08-.23-.23Z" transform="translate(0 0)"/><path class="cls-1" d="M108.22,18c0,.15,0,.28-.18.34a6.55,6.55,0,0,1-2.32.36c-2.26,0-3.58-1.12-3.58-3.72V8.52h-1.56c-.16,0-.21-.07-.21-.23V5.74c0-.18,0-.23.23-.23h1.56a30.16,30.16,0,0,1,.25-3.15.29.29,0,0,1,.24-.23l3-.39c.13,0,.21,0,.21.15-.08.81-.13,2.34-.13,3.62h2.39c.15,0,.21,0,.21.21V8.34c0,.13-.06.16-.19.18H105.7v5.57c0,1.14.34,1.66,1.4,1.66a5.27,5.27,0,0,0,.89-.1c.1,0,.18,0,.18.18Z" transform="translate(0 0)"/><path class="cls-1" d="M110.41,16.51a2.16,2.16,0,0,1,4.32,0,2,2,0,0,1-1.8,2.18h-.36a2,2,0,0,1-2.16-1.93A1,1,0,0,1,110.41,16.51Z" transform="translate(0 0)"/><path class="cls-1" d="M134.41,18.2c0,.2-.07.23-.25.23H123.53c-.15,0-.21-.08-.21-.23V1.63c0-.15.06-.23.21-.23H133.8c.21,0,.26,0,.29.21l.32,2.82c0,.13,0,.23-.18.23H127V8.13h6.63a.19.19,0,0,1,.21.17v2.9c0,.16-.11.18-.21.18H127v3.8h7.67c.21,0,.23.08.21.23Z" transform="translate(0 0)"/><path class="cls-1" d="M136,12.09c0-3.72,2.78-6.84,7.54-6.84h.85V.18a.17.17,0,0,1,.16-.18h3.3c.13,0,.16,0,.16.15V15.52a17.28,17.28,0,0,0,.1,1.9c0,.13,0,.18-.18.23a13.2,13.2,0,0,1-5.12,1C139,18.69,136,16.51,136,12.09Zm8.42-3.66a2.81,2.81,0,0,0-1-.13,3.49,3.49,0,0,0-3.72,3.23,2.8,2.8,0,0,0,0,.41c0,2.58,1.49,3.7,3.46,3.7a3.59,3.59,0,0,0,1.26-.21Z" transform="translate(0 0)"/><path class="cls-1" d="M150.83,2.1a2,2,0,0,1,2-2,1.88,1.88,0,0,1,2,1.75,1,1,0,0,1,0,.25,2,2,0,0,1-4,0ZM151,5.72a.19.19,0,0,1,.17-.21h3.23c.16,0,.21,0,.21.21V18.2c0,.15,0,.23-.24.23h-3.12c-.18,0-.26-.08-.26-.23Z" transform="translate(0 0)"/><path class="cls-1" d="M164.41,18c0,.15,0,.28-.18.34a6.46,6.46,0,0,1-2.31.36c-2.26,0-3.59-1.12-3.59-3.72V8.52h-1.56c-.16,0-.21-.07-.21-.23V5.74c0-.18.05-.23.24-.23h1.56a27.68,27.68,0,0,1,.26-3.15.26.26,0,0,1,.23-.23l3-.39c.13,0,.21,0,.21.15-.08.81-.13,2.34-.13,3.62h2.39c.16,0,.21,0,.21.21V8.34c0,.13-.05.16-.18.18H161.9v5.57c0,1.14.34,1.66,1.41,1.66a5.16,5.16,0,0,0,.88-.1c.11,0,.18,0,.18.18Z" transform="translate(0 0)"/><path class="cls-1" d="M166.64,16.51a2.16,2.16,0,1,1,4.31-.29,1.4,1.4,0,0,1,0,.29,2,2,0,0,1-1.8,2.18h-.35a2,2,0,0,1-2.16-1.93A1,1,0,0,1,166.64,16.51Z" transform="translate(0 0)"/><path class="cls-1" d="M190.56,18.2c0,.2-.08.23-.26.23H179.72c-.16,0-.21-.08-.21-.23V1.63c0-.15.05-.23.21-.23H190c.21,0,.26,0,.28.21l.29,2.81c0,.13,0,.23-.18.23h-7.26V8.13h6.63a.19.19,0,0,1,.21.17v2.9c0,.16-.1.18-.21.18h-6.63v3.8h7.67c.21,0,.24.08.21.23Z" transform="translate(0 0)"/><path class="cls-1" d="M192.74,13.28c-.13,0-.18-.08-.18-.21V10.34a.16.16,0,0,1,.14-.18H199c.1,0,.15,0,.15.18V13.1c0,.16,0,.18-.13.18Z" transform="translate(0 0)"/><path class="cls-1" d="M206.11,8.13c-1.23,0-1.62.45-1.62.89s.34.78,1.85,1.35c3.15,1.14,4.13,2.37,4.13,4.21,0,2.47-1.92,4.11-5.35,4.11a8.41,8.41,0,0,1-3.77-.73.31.31,0,0,1-.18-.28V14.87c0-.16.1-.24.2-.16a7.36,7.36,0,0,0,3.83,1c1.22,0,1.76-.34,1.76-.88s-.44-.86-2-1.43c-2.94-1.09-3.9-2.34-3.9-4.21s1.64-4,5.07-4a8.65,8.65,0,0,1,3.38.52.34.34,0,0,1,.18.34v2.6c0,.15-.1.26-.26.18A7.92,7.92,0,0,0,206.11,8.13Z" transform="translate(0 0)"/><path class="cls-1" d="M212.48,2.1a1.94,1.94,0,0,1,1.88-2h.12a1.89,1.89,0,0,1,2,1.77V2.1a1.92,1.92,0,0,1-1.84,2h-.16a1.89,1.89,0,0,1-2-1.77Zm.18,3.62c0-.13.05-.21.21-.21h3.19c.16,0,.21,0,.21.21V18.2c0,.15,0,.23-.23.23h-3.12c-.18,0-.26-.08-.26-.23Z" transform="translate(0 0)"/><path class="cls-1" d="M226,15.43c3.71.19,5.09,1.69,5.09,3.75,0,2.7-2.65,4.89-6.84,4.89-4.34,0-6.24-2.16-6.24-4,0-.84.68-1.88,2.4-3.31a3.23,3.23,0,0,1-.55-2,3.54,3.54,0,0,1,.47-1.71,3.74,3.74,0,0,1-1.8-3.36c0-2.49,1.95-4.44,5.33-4.44a14.62,14.62,0,0,1,2.47.21,2.68,2.68,0,0,0,.63,0h3.56c.13,0,.18,0,.18.18V8.11c0,.13,0,.18-.18.18-.39,0-1.25-.08-1.79-.13a3.42,3.42,0,0,1,.39,1.69c0,2.76-2.27,4.13-5.15,4.13a8.85,8.85,0,0,1-.89-.05,1.38,1.38,0,0,0,0,.7,1.33,1.33,0,0,0,.29.68Zm-3.7,2.92a2.51,2.51,0,0,0-1,1.37c0,.81,1.14,1.69,3.17,1.69,2.31,0,3.3-.8,3.3-1.66s-1.14-1.22-2.6-1.3ZM222,9.66a1.7,1.7,0,0,0,1.6,1.78h.25a1.59,1.59,0,0,0,1.78-1.37,1.71,1.71,0,0,0,0-.32A1.82,1.82,0,1,0,222,9.66Z" transform="translate(0 0)"/><path class="cls-1" d="M232.7,8.52a23.44,23.44,0,0,0-.1-2.8c0-.13,0-.21.18-.21h2.73a.32.32,0,0,1,.34.21,3.11,3.11,0,0,1,.21.85,5.72,5.72,0,0,1,3.69-1.32c2,0,4.37,1,4.37,5.22V18.2c0,.15-.05.23-.24.23h-3.12c-.18,0-.26-.08-.26-.23V10.79c0-1.56-.67-2.4-2-2.4a3.17,3.17,0,0,0-2.16.81v9c0,.13-.08.21-.24.21H233c-.18,0-.24-.08-.24-.23Z" transform="translate(0 0)"/><path class="cls-1" d="M246.56,16.51a2.16,2.16,0,0,1,4.32,0,2,2,0,0,1-1.8,2.18h-.36a2,2,0,0,1-2.16-1.93A1,1,0,0,1,246.56,16.51Z" transform="translate(0 0)"/><path class="cls-1" d="M1.49,48.43c-.16,0-.21,0-.21-.23V31.69c0-.14,0-.26.18-.26,2.34-.06,3.33-.08,5.44-.08,4.31,0,6.73,1.84,6.73,5.2a4.87,4.87,0,0,1-3.22,4.57c.86,1.17,3.8,5.59,4.6,7,.08.15.11.31-.07.31h-3.8c-.24,0-.32,0-.37-.16-.75-1.14-2.36-3.92-3.46-5.69-.18-.31-.31-.44-.59-.44H4.82v6.08a.19.19,0,0,1-.17.21H1.49Zm5.33-9.36c1.95,0,3.2-.78,3.2-2.31s-1.3-2.27-3.23-2.27a17.86,17.86,0,0,0-2,.06v4.52Z" transform="translate(0 0)"/><path class="cls-1" d="M19,42.92c.13,1.48,1.17,2.7,3.72,2.7A8,8,0,0,0,26,45c.07-.05.15,0,.15.13v2.47c0,.19-.05.26-.18.32a8.75,8.75,0,0,1-4,.75c-4.89,0-6.6-3.35-6.6-6.58,0-3.59,2.21-6.86,6.29-6.86,3.93,0,5.49,3,5.49,5.61A9.32,9.32,0,0,1,27,42.61a.22.22,0,0,1-.21.2,21.84,21.84,0,0,1-2.68.11Zm3.37-2.49a7.08,7.08,0,0,0,1.3-.06v-.18a2.11,2.11,0,0,0-2.21-2A2.47,2.47,0,0,0,19,40.43Z" transform="translate(0 0)"/><path class="cls-1" d="M29.41,38.52c0-.88-.05-2.23-.1-2.8,0-.13,0-.21.18-.21h2.73a.32.32,0,0,1,.34.21,3.51,3.51,0,0,1,.2.85,5.74,5.74,0,0,1,3.7-1.32c2,0,4.36,1,4.36,5.22V48.2c0,.15,0,.23-.23.23H37.5c-.18,0-.26-.08-.26-.23V40.79c0-1.56-.68-2.4-2-2.4a3.17,3.17,0,0,0-2.16.81v9c0,.13-.07.21-.23.21H29.67c-.18,0-.23-.08-.23-.23Z" transform="translate(0 0)"/><path class="cls-1" d="M46.89,42.92c.13,1.48,1.17,2.7,3.71,2.7a8,8,0,0,0,3.2-.6c.08-.05.16,0,.16.13v2.47c0,.19,0,.26-.18.32a8.75,8.75,0,0,1-4,.75c-4.89,0-6.61-3.35-6.61-6.58,0-3.59,2.21-6.86,6.3-6.86,3.92,0,5.48,3,5.48,5.61a7.9,7.9,0,0,1-.13,1.75.22.22,0,0,1-.21.2,21.68,21.68,0,0,1-2.67.11Zm3.38-2.49a7.08,7.08,0,0,0,1.3-.06v-.18a2.12,2.12,0,0,0-2.21-2,2.47,2.47,0,0,0-2.5,2.24Z" transform="translate(0 0)"/><path class="cls-1" d="M68.1,48.43a.27.27,0,0,1-.31-.22h0c-1.3-5.31-1.72-7.7-2-9h0c-.65,2.86-1.17,5-2.26,9-.06.18-.13.23-.29.23H60c-.26,0-.31,0-.37-.23L56.24,35.74c0-.13,0-.23.21-.23h3.3c.16,0,.21.05.24.18,1.38,5.62,1.74,8.11,1.92,9.2H62c.2-.93.62-3.38,2.13-9.15,0-.15,0-.23.23-.23h3.43a.18.18,0,0,1,.21.15v0C69.35,41.44,69.71,44,69.9,45h0c.36-1.69.75-4.5,2-9.31a.22.22,0,0,1,.23-.18h3a.14.14,0,0,1,.16.14.17.17,0,0,1,0,.07L71.66,48.2c0,.18-.07.23-.31.23Z" transform="translate(0 0)"/><path class="cls-1" d="M86.27,44.37,85,48.22a.29.29,0,0,1-.29.21h-3c-.18,0-.23-.1-.2-.26l5.2-15A5,5,0,0,0,87,31.58a.17.17,0,0,1,.15-.18h4.16c.13,0,.18,0,.21.15L97.41,48.2c.06.13,0,.23-.13.23H93.89a.26.26,0,0,1-.28-.18l-1.33-3.88Zm5-3.25c-.52-1.71-1.56-4.86-2.06-6.7h0c-.42,1.74-1.35,4.6-2,6.7Z" transform="translate(0 0)"/><path class="cls-1" d="M108.09,48.07c0,.13,0,.18-.13.2a8,8,0,0,1-2.91.42c-4.22,0-6.87-2.83-6.87-6.66s2.94-6.78,7.36-6.78a7.16,7.16,0,0,1,2.39.28c.13.06.16.13.16.29V38.5c0,.18-.1.21-.2.18a6.53,6.53,0,0,0-2.19-.31c-2.18,0-3.77,1.19-3.77,3.53,0,2.71,2,3.59,3.82,3.59a8.72,8.72,0,0,0,2.16-.23c.16,0,.21,0,.21.1Z" transform="translate(0 0)"/><path class="cls-1" d="M113.16,35.51a.29.29,0,0,1,.31.23,5.19,5.19,0,0,1,.29,1.46,5.39,5.39,0,0,1,4.13-2c.16,0,.21,0,.21.21V38.6c0,.13,0,.19-.23.19a5.34,5.34,0,0,0-3.93,1.11v8.27c0,.16,0,.21-.23.21h-3.12c-.21,0-.26-.08-.26-.23v-9a30.36,30.36,0,0,0-.13-3.54c0-.13,0-.18.15-.18Z" transform="translate(0 0)"/><path class="cls-1" d="M132.06,41.9c0,4.09-2.65,6.79-6.4,6.79-4.44,0-6.42-3.35-6.42-6.71,0-3.69,2.47-6.73,6.48-6.73C129.9,35.25,132.06,38.43,132.06,41.9Zm-9.15,0c0,2.29,1.06,3.74,2.81,3.74,1.5,0,2.65-1.3,2.65-3.69,0-2-.83-3.72-2.81-3.72-1.51,0-2.65,1.39-2.65,3.7Z" transform="translate(0 0)"/><path class="cls-1" d="M137.75,30c.21,0,.26,0,.26.2v5.33a8.49,8.49,0,0,1,2.19-.28A6,6,0,0,1,146.41,41v.4c0,4.86-3.85,7.25-7.8,7.25a13.44,13.44,0,0,1-4.08-.6.29.29,0,0,1-.16-.26V30.18c0-.13,0-.18.18-.18Zm1.8,8.32a5.71,5.71,0,0,0-1.54.2v7a3.74,3.74,0,0,0,1,.1,3.59,3.59,0,0,0,3.78-3.37,3.13,3.13,0,0,0,0-.53C142.75,39.43,141.41,38.32,139.55,38.32Z" transform="translate(0 0)"/><path class="cls-1" d="M158.92,45.54c0,.68,0,1.23.05,1.85,0,0,0,.1-.05.13a14.35,14.35,0,0,1-5.67,1.17c-2.89,0-5.25-1.33-5.25-4.34,0-2.76,2.42-4.21,5.87-4.21a13.19,13.19,0,0,1,1.54,0V40c0-.5-.31-1.64-2.5-1.64a8.42,8.42,0,0,0-3.43.7.16.16,0,0,1-.21-.05.19.19,0,0,1,0-.08V36.31a.23.23,0,0,1,.18-.26,9.87,9.87,0,0,1,4.08-.8c3.74,0,5.41,2.31,5.41,5.28Zm-3.51-2.67a8.11,8.11,0,0,0-1.3-.08c-1.85,0-2.6.6-2.6,1.53s.65,1.56,2.29,1.56a5.45,5.45,0,0,0,1.61-.23Z" transform="translate(0 0)"/><path class="cls-1" d="M168.28,48c0,.15,0,.28-.18.34a6.55,6.55,0,0,1-2.32.36c-2.26,0-3.59-1.12-3.59-3.72V38.52h-1.56c-.15,0-.2-.07-.2-.23V35.74c0-.18,0-.23.23-.23h1.56a30.17,30.17,0,0,1,.26-3.15.28.28,0,0,1,.23-.23l3-.39c.13,0,.2,0,.2.15-.07.81-.13,2.34-.13,3.62h2.4c.15,0,.2.05.2.21v2.62c0,.13,0,.16-.18.18h-2.39v5.57c0,1.14.34,1.66,1.4,1.66a5.27,5.27,0,0,0,.89-.1c.1,0,.18,0,.18.18Z" transform="translate(0 0)"/><path class="cls-1" d="M176.6,31.63c0-.15,0-.2.15-.2,1.07,0,3.12-.08,5.1-.08,5.25,0,7.07,2.91,7.07,5.74,0,4.22-3.25,6-7.25,6h-1.48v5.12a.19.19,0,0,1-.17.21h-3.24c-.13,0-.18-.08-.18-.21Zm3.59,8.27h1.45c2.06,0,3.69-.63,3.69-2.76,0-1.64-1.12-2.68-3.38-2.68a12,12,0,0,0-1.76.06Z" transform="translate(0 0)"/><path class="cls-1" d="M193.94,35.51a.29.29,0,0,1,.31.23,5.19,5.19,0,0,1,.29,1.46,5.39,5.39,0,0,1,4.13-2c.16,0,.21,0,.21.21V38.6c0,.13,0,.19-.23.19a5.38,5.38,0,0,0-3.93,1.11v8.27c0,.16-.05.21-.23.21h-3.12c-.21,0-.26-.08-.26-.23v-9a30.36,30.36,0,0,0-.13-3.54c0-.13,0-.18.16-.18Z" transform="translate(0 0)"/><path class="cls-1" d="M212.84,41.9c0,4.09-2.65,6.79-6.4,6.79C202,48.69,200,45.34,200,42c0-3.69,2.47-6.73,6.48-6.73C210.68,35.25,212.84,38.43,212.84,41.9Zm-9.15,0c0,2.29,1.06,3.74,2.81,3.74,1.5,0,2.65-1.3,2.65-3.69,0-2-.83-3.72-2.81-3.72-1.51,0-2.65,1.39-2.65,3.7Z" transform="translate(0 0)"/><path class="cls-1" d="M221.41,31.63c0-.13,0-.18.19-.2.78,0,2.75-.08,5.07-.08,6.21,0,9.25,3.48,9.25,8.29,0,6.22-4.78,8.84-9.2,8.84h-5.15c-.1,0-.16-.08-.16-.26ZM225,45.31h1.53c3.41,0,5.64-2,5.64-5.67s-2.23-5.2-5.56-5.2H225Z" transform="translate(0 0)"/><path class="cls-1" d="M250.75,47.86c0,.18-.05.31-.21.36a11.31,11.31,0,0,1-3.61.47c-5.05,0-9-3-9-8.68,0-5.28,3.65-8.87,9.39-8.87a8.64,8.64,0,0,1,3.38.44.3.3,0,0,1,.18.31v2.84c0,.23-.13.23-.23.18a8.14,8.14,0,0,0-3.38-.57c-3.48,0-5.62,2.16-5.62,5.54,0,4,3,5.59,5.7,5.59a9.74,9.74,0,0,0,3.17-.42c.13,0,.21,0,.21.13Z" transform="translate(0 0)"/><path class="cls-1" d="M253.41,46.51a2.16,2.16,0,0,1,4.32,0,2,2,0,0,1-1.8,2.18,2.16,2.16,0,0,1-.36,0,2,2,0,0,1-2.16-1.93A1,1,0,0,1,253.41,46.51Z" transform="translate(0 0)"/><path class="cls-1" d="M42.6,90.24h0a1.33,1.33,0,0,0-1.35,1.19h1.82a4.09,4.09,0,0,0,.7,0v-.1a1.15,1.15,0,0,0-1.17-1.11Z" transform="translate(0 0)"/><path class="cls-1" d="M27.41,93.64c0,.5.35.84,1.23.84a2.33,2.33,0,0,0,.87-.13V92.81a4.09,4.09,0,0,0-.7,0C27.8,92.81,27.41,93.14,27.41,93.64Z" transform="translate(0 0)"/><path class="cls-1" d="M60.14,88.43c-.94,0-1.38.85-1.38,2.86v.07c0,1.93.47,3,1.41,3s1.38-1,1.38-2.93S61.08,88.43,60.14,88.43Z" transform="translate(0 0)"/><path class="cls-1" d="M66.93,90.75c.52,0,.86-.45.86-1.27s-.34-1.32-.87-1.32-.9.41-.9,1.3c0,.7.3,1.26.91,1.26Z" transform="translate(0 0)"/><path class="cls-1" d="M73.25,92.1c-.55,0-.9.42-.9,1.31,0,.7.31,1.23.92,1.23h0c.51,0,.85-.42.85-1.27S73.8,92.1,73.25,92.1Z" transform="translate(0 0)"/><path class="cls-1" d="M76.5,73h-58a18.5,18.5,0,0,0,0,37h58a18.5,18.5,0,0,0,0-37ZM20.93,96a5.34,5.34,0,0,1-2.43-.45.2.2,0,0,1-.1-.22V93.56a.08.08,0,0,1,0-.11.09.09,0,0,1,.1,0h0a4.72,4.72,0,0,0,2.53.73c1.07,0,1.49-.36,1.49-.85s-.33-.77-1.28-1.18l-.7-.29c-1.72-.73-2.2-1.6-2.2-2.69,0-1.48,1.16-2.72,3.35-2.72a5.41,5.41,0,0,1,2.18.36A.21.21,0,0,1,24,87v1.56c0,.06-.05.13-.13.07a4.48,4.48,0,0,0-2.16-.46c-1.08,0-1.45.37-1.45.83s.29.73,1.34,1.15l.52.21c1.86.77,2.38,1.65,2.38,2.78,0,1.7-1.37,2.76-3.53,2.76Zm10.48-4.34v3.76a7.44,7.44,0,0,1-3.05.63c-1.56,0-2.83-.71-2.83-2.34s1.26-2.23,3.13-2.23h.82v-.09c0-.27-.17-.89-1.34-.89a4.35,4.35,0,0,0-1.85.38.08.08,0,0,1-.11,0,.06.06,0,0,1,0-.06v-1.4a.13.13,0,0,1,.09-.14h0a5,5,0,0,1,2.2-.44,2.65,2.65,0,0,1,2.94,2.32,3.38,3.38,0,0,1,0,.45Zm5.12,4.09a.18.18,0,0,1-.17.11H34.5a.14.14,0,0,1-.16-.09c-.54-1.59-1.71-5.15-2.29-6.76a.1.1,0,0,1,.06-.11H34a.13.13,0,0,1,.15.1c.91,3.15,1.22,4.4,1.36,5,.14-.63.5-1.89,1.48-5,0-.07.06-.1.13-.1h1.62c.06,0,.11,0,.09.13-.61,1.6-1.78,5.15-2.34,6.67Zm9.16-4a6,6,0,0,1-.07.94c0,.07,0,.09-.11.11a10.32,10.32,0,0,1-1.47,0l-2.76.07c.07.8.63,1.46,2,1.46A4.25,4.25,0,0,0,45,93.92s.08,0,.08.07v1.33c0,.1,0,.14-.09.17a4.68,4.68,0,0,1-2.15.4,3.28,3.28,0,0,1-3.54-3h0a4,4,0,0,1,0-.49,3.43,3.43,0,0,1,3.07-3.65h.26a2.87,2.87,0,0,1,3,2.7h0Zm6.53,4.18a5.12,5.12,0,0,1-2.35-.43c-.1,0-.1-.13-.1-.2V93.7s0-.07.06-.08h.06a4.88,4.88,0,0,0,2.24.58c1.21,0,1.67-.48,1.67-1.11S53.32,92,52.23,92h-.92c-.07,0-.11,0-.11-.09V90.5c0-.09,0-.15.09-.15H52c.93,0,1.43-.25,1.43-.86s-.5-1-1.48-1A4.37,4.37,0,0,0,50,89h-.1V87.51a.15.15,0,0,1,.07-.15,5.31,5.31,0,0,1,2.45-.53c1.83,0,3,.92,3,2.39A2,2,0,0,1,54.23,91a2.19,2.19,0,0,1,1.58,2.17c0,1.78-1.65,2.74-3.58,2.74Zm8,0c-2.38,0-3.36-2-3.36-4.58s1.22-4.53,3.36-4.53c2.62,0,3.32,2.35,3.32,4.53,0,2.4-1,4.59-3.33,4.59Zm4.27-6h0a3.54,3.54,0,0,1-.08-.45,2.39,2.39,0,0,1,2.15-2.62h.22A2.31,2.31,0,0,1,69.23,89a1.85,1.85,0,0,1,0,.47A2.39,2.39,0,0,1,67,92h-.21a2.25,2.25,0,0,1-2.38-2.06Zm3.07,5.92H66.29c-.06,0-.11-.07,0-.12l6.12-8.58a.21.21,0,0,1,.17-.08H73.8l-6.12,8.73c-.06.09-.1.09-.21.09Zm8-2.37A2.39,2.39,0,0,1,73.4,96h-.15a2.26,2.26,0,0,1-2.38-2.13v0h0v-.41A2.4,2.4,0,0,1,73,90.83h.2A2.28,2.28,0,0,1,75.56,93h0a1.93,1.93,0,0,1,0,.34Z" transform="translate(0 0)"/></svg>