<svg id="Layer_1" data-name="Layer 1" xmlns="http://www.w3.org/2000/svg" viewBox="0 0 258.37 184"><defs><style>.cls-1{fill:#fff;}.cls-2{fill:none;}.cls-3{isolation:isolate;}</style></defs><path class="cls-1" d="M7093.74-7292h13.42v32.14Z" transform="translate(-7070.82 7292)"/><path class="cls-1" d="M7084.28-7292h-13.43v32.14Z" transform="translate(-7070.82 7292)"/><path class="cls-1" d="M7089-7280.16l8.55,20.29H7092l-2.56-6.46h-6.26Z" transform="translate(-7070.82 7292)"/><path class="cls-1" d="M7075.52-7247c-.26-1.3-.73-3.27-.9-4.54h0c-.18,1.23-.51,3-.82,4.54Zm-2.13,1.92-.59,2.79c0,.11-.06.13-.15.13H7071c-.11,0-.14,0-.12-.18l2.34-10.13a3.37,3.37,0,0,0,.06-1,.11.11,0,0,1,.09-.11h2.45c.09,0,.13,0,.15.13l2.75,11.12c0,.11,0,.14-.11.14h-1.9a.12.12,0,0,1-.14-.1h0l-.63-2.8Z" transform="translate(-7070.82 7292)"/><path class="cls-1" d="M7083.2-7249.18a.86.86,0,0,0-.39,0c-1,0-1.75.9-1.75,2.67s.75,2.65,1.73,2.65a2,2,0,0,0,.41-.05Zm-4.23,2.69c0-2.59,1.52-4.59,3.95-4.59h.28v-3a.09.09,0,0,1,.08-.09h1.92c.08,0,.09,0,.09.09v10.19a9.47,9.47,0,0,0,0,1.19.09.09,0,0,1-.06.12,5.82,5.82,0,0,1-2.56.62C7080.47-7242,7079-7243.46,7079-7246.49Z" transform="translate(-7070.82 7292)"/><path class="cls-1" d="M7088.49-7246.56c0,1.64.35,2.72,1.15,2.72s1.13-.92,1.13-2.71-.28-2.69-1.12-2.69S7088.49-7248.4,7088.49-7246.56Zm4.36,0c0,2.79-1.17,4.56-3.23,4.56-2.31,0-3.22-2-3.22-4.58s1.17-4.5,3.26-4.5,3.19,1.67,3.19,4.52Z" transform="translate(-7070.82 7292)"/><path class="cls-1" d="M7096.69-7249.2a2.18,2.18,0,0,0-.63.09v5.22a1.15,1.15,0,0,0,.37,0c.8,0,1.73-.81,1.75-3C7098.2-7248.58,7097.51-7249.2,7096.69-7249.2Zm-.73-5c.07,0,.09,0,.09.11v3.13a4.47,4.47,0,0,1,.95-.11c1.84,0,3.25,1.42,3.25,4.16,0,3.2-1.82,4.92-4.11,4.92a6.76,6.76,0,0,1-2.05-.32.14.14,0,0,1-.11-.14v-11.64a.1.1,0,0,1,.09-.11H7096Z" transform="translate(-7070.82 7292)"/><path class="cls-1" d="M7104.62-7247.72a2.35,2.35,0,0,0,.53,0v-.2c0-.67-.21-1.37-.94-1.37s-1,.72-1.09,1.59Zm-1.5,1.67c0,1.36.5,2.19,1.94,2.19a3.68,3.68,0,0,0,1.35-.26c.09,0,.14,0,.14.09v1.47c0,.13,0,.2-.13.23a3.92,3.92,0,0,1-1.75.32c-2.6,0-3.61-1.91-3.61-4.4,0-2.65,1.17-4.67,3.24-4.67s2.81,1.93,2.81,3.5a7.33,7.33,0,0,1-.09,1.32c0,.09-.06.13-.15.15s-.73,0-1.68,0Z" transform="translate(-7070.82 7292)"/><rect class="cls-2" y="50" width="66" height="30"/><rect class="cls-2" x="36" width="30" height="80"/><rect class="cls-2" y="124" width="124" height="24"/><path class="cls-1" d="M7084.52-7199.57c0,.18-.05.31-.21.36a11.33,11.33,0,0,1-3.62.47c-5,0-9-3-9-8.68,0-5.28,3.64-8.87,9.39-8.87a8.59,8.59,0,0,1,3.38.44.3.3,0,0,1,.19.31v2.84c0,.23-.13.23-.23.18a8.17,8.17,0,0,0-3.38-.57c-3.5,0-5.62,2.16-5.62,5.54,0,4.05,3,5.59,5.68,5.59a9.83,9.83,0,0,0,3.19-.42c.13-.05.2,0,.2.13Z" transform="translate(-7070.82 7292)"/><path class="cls-1" d="M7098.8-7205.53c0,4.09-2.65,6.79-6.4,6.79-4.44,0-6.42-3.35-6.42-6.71,0-3.69,2.47-6.73,6.47-6.73C7096.64-7212.18,7098.8-7209,7098.8-7205.53Zm-9.15,0c0,2.29,1.06,3.74,2.8,3.74,1.51,0,2.66-1.3,2.66-3.69,0-2-.84-3.72-2.81-3.72-1.51,0-2.65,1.39-2.65,3.7Z" transform="translate(-7070.82 7292)"/><path class="cls-1" d="M7101.39-7199c-.18,0-.23-.08-.23-.23v-9.88c0-1-.08-2.08-.11-2.58,0-.15.06-.23.21-.23H7104a.39.39,0,0,1,.31.15,4.18,4.18,0,0,1,.16,1,5.62,5.62,0,0,1,3.74-1.38,3.71,3.71,0,0,1,3.33,1.66,6.37,6.37,0,0,1,4.21-1.66c2.26,0,4.45,1.22,4.45,5.15v7.8a.21.21,0,0,1-.19.23h-3.17c-.18,0-.26-.08-.26-.23v-7.44c0-1.35-.47-2.39-2-2.39a3.42,3.42,0,0,0-2.21.83,14.13,14.13,0,0,1,.07,1.46v7.54c0,.13-.05.23-.2.23h-3.15c-.16,0-.26-.05-.26-.23v-7.54c0-1.56-.73-2.27-2-2.27a3.5,3.5,0,0,0-2.13.73v9.1c0,.13,0,.21-.23.21Z" transform="translate(-7070.82 7292)"/><path class="cls-1" d="M7123.47-7199c-.18,0-.23-.08-.23-.23v-9.88c0-1-.08-2.08-.11-2.58,0-.15.06-.23.21-.23h2.76a.39.39,0,0,1,.31.15,4.18,4.18,0,0,1,.16,1,5.62,5.62,0,0,1,3.74-1.38,3.71,3.71,0,0,1,3.33,1.66,6.37,6.37,0,0,1,4.21-1.66c2.26,0,4.45,1.22,4.45,5.15v7.8a.21.21,0,0,1-.19.23h-3.17c-.18,0-.26-.08-.26-.23v-7.44c0-1.35-.47-2.39-2-2.39a3.42,3.42,0,0,0-2.21.83,14.13,14.13,0,0,1,.07,1.46v7.54c0,.13-.05.23-.2.23h-3.15c-.16,0-.26-.05-.26-.23v-7.54c0-1.56-.73-2.27-2-2.27a3.5,3.5,0,0,0-2.13.73v9.1c0,.13-.05.21-.23.21Z" transform="translate(-7070.82 7292)"/><path class="cls-1" d="M7148.33-7204.51c.13,1.48,1.17,2.7,3.72,2.7a7.94,7.94,0,0,0,3.19-.6c.08-.05.16,0,.16.13v2.47c0,.19,0,.26-.18.32a8.75,8.75,0,0,1-4,.75c-4.89,0-6.6-3.35-6.6-6.58,0-3.59,2.21-6.86,6.29-6.86,3.92,0,5.48,3,5.48,5.61a9.32,9.32,0,0,1-.13,1.75.2.2,0,0,1-.2.2h0a21.84,21.84,0,0,1-2.68.11Zm3.38-2.52a7,7,0,0,0,1.29-.06v-.18a2.11,2.11,0,0,0-2.21-2,2.47,2.47,0,0,0-2.5,2.29Z" transform="translate(-7070.82 7292)"/><path class="cls-1" d="M7158.73-7208.91c0-.88,0-2.23-.11-2.8,0-.13,0-.21.19-.21h2.73a.31.31,0,0,1,.33.21,3.11,3.11,0,0,1,.21.85,5.7,5.7,0,0,1,3.69-1.32c2,0,4.37,1,4.37,5.22v7.73c0,.15-.05.23-.23.23h-3.12c-.19,0-.26-.08-.26-.23v-7.41c0-1.56-.68-2.4-2-2.4a3.17,3.17,0,0,0-2.16.81v9a.2.2,0,0,1-.19.21H7159c-.18,0-.23-.08-.23-.23Z" transform="translate(-7070.82 7292)"/><path class="cls-1" d="M7179.63-7199.44c0,.15,0,.28-.18.34a6.53,6.53,0,0,1-2.31.36c-2.27,0-3.59-1.12-3.59-3.72v-6.45H7172c-.16,0-.21-.07-.21-.23v-2.55c0-.18,0-.23.23-.23h1.56a27.68,27.68,0,0,1,.26-3.15.28.28,0,0,1,.24-.23l3-.39c.13,0,.21,0,.21.15-.08.81-.13,2.34-.13,3.62h2.39c.16,0,.21.05.21.21v2.62c0,.13,0,.16-.18.18h-2.45v5.57c0,1.14.34,1.66,1.41,1.66a5.27,5.27,0,0,0,.88-.1c.1,0,.18,0,.18.18Z" transform="translate(-7070.82 7292)"/><path class="cls-1" d="M7181.87-7200.92a2.05,2.05,0,0,1,1.95-2.16h.2a2.06,2.06,0,0,1,2.16,1.95v.21a2,2,0,0,1-1.81,2.18,2,2,0,0,1-.35,0,2,2,0,0,1-2.16-1.83A1.36,1.36,0,0,1,7181.87-7200.92Z" transform="translate(-7070.82 7292)"/><path class="cls-1" d="M7205.79-7199.23c0,.2-.08.23-.26.23h-10.59c-.15,0-.2-.08-.2-.23v-16.57c0-.15,0-.23.2-.23h10.27c.21,0,.26,0,.29.21l.29,2.81c0,.13,0,.23-.19.23h-7.21v3.48H7205a.2.2,0,0,1,.21.17v2.9c0,.16-.11.18-.21.18h-6.63v3.8h7.67c.21,0,.23.08.21.23Z" transform="translate(-7070.82 7292)"/><path class="cls-1" d="M7207.39-7205.34c0-3.72,2.78-6.84,7.54-6.84a6.12,6.12,0,0,1,.86.05v-5.12a.15.15,0,0,1,.13-.18h3.33c.13,0,.15.05.15.15v15.37a13.44,13.44,0,0,0,.1,1.9c0,.13,0,.18-.19.23a13.2,13.2,0,0,1-5.12,1C7210.39-7198.74,7207.39-7200.92,7207.39-7205.34Zm8.4-3.7a2.87,2.87,0,0,0-1-.13,3.47,3.47,0,0,0-3.71,3.22,2.94,2.94,0,0,0,0,.42c0,2.58,1.48,3.7,3.45,3.7a3.69,3.69,0,0,0,1.23-.16Z" transform="translate(-7070.82 7292)"/><path class="cls-1" d="M7222.24-7215.33a2,2,0,0,1,2-2,1.89,1.89,0,0,1,2,1.75v.25a1.92,1.92,0,0,1-1.82,2h-.18a1.89,1.89,0,0,1-2-1.79A.74.74,0,0,1,7222.24-7215.33Zm.19,3.62c0-.13,0-.21.2-.21h3.2c.16,0,.21.05.21.21v12.48c0,.15,0,.23-.23.23h-3.12c-.19,0-.26-.08-.26-.23Z" transform="translate(-7070.82 7292)"/><path class="cls-1" d="M7235.82-7199.44c0,.15,0,.28-.19.34a6.53,6.53,0,0,1-2.31.36c-2.26,0-3.59-1.12-3.59-3.72v-6.45h-1.56c-.16,0-.21-.07-.21-.23v-2.55c0-.18.05-.23.24-.23h1.56a25.57,25.57,0,0,1,.26-3.15.25.25,0,0,1,.23-.23l3-.39c.13,0,.21,0,.21.15-.08.81-.13,2.34-.13,3.62h2.39c.16,0,.21.05.21.21v2.62c0,.13-.05.16-.18.18h-2.36v5.57c0,1.14.33,1.66,1.4,1.66a5.27,5.27,0,0,0,.88-.1c.1,0,.18,0,.18.18Z" transform="translate(-7070.82 7292)"/><path class="cls-1" d="M7238.05-7200.92a2.05,2.05,0,0,1,1.95-2.16h.21a2.06,2.06,0,0,1,2.16,1.95v.21a2,2,0,0,1-1.81,2.18,2,2,0,0,1-.35,0,2.06,2.06,0,0,1-2.17-1.93A2.09,2.09,0,0,1,7238.05-7200.92Z" transform="translate(-7070.82 7292)"/><path class="cls-1" d="M7262-7199.23c0,.2-.08.23-.26.23h-10.58c-.16,0-.21-.08-.21-.23v-16.57c0-.15.05-.23.21-.23h10.26c.21,0,.26,0,.28.21l.29,2.81c0,.13,0,.23-.19.23h-7.25v3.48h6.63a.18.18,0,0,1,.2.17,0,0,0,0,1,0,0v2.86c0,.16-.1.18-.2.18h-6.63v3.8h7.67c.21,0,.24.08.21.23Z" transform="translate(-7070.82 7292)"/><path class="cls-1" d="M7264.15-7204.15c-.13,0-.19-.08-.19-.21v-2.73a.16.16,0,0,1,.14-.18h6.29c.1,0,.16,0,.16.18v2.76c0,.16-.06.18-.13.18Z" transform="translate(-7070.82 7292)"/><path class="cls-1" d="M7277.52-7209.3c-1.23,0-1.61.45-1.61.89s.33.78,1.84,1.35c3.15,1.14,4.14,2.37,4.14,4.21,0,2.47-1.93,4.11-5.36,4.11a8.41,8.41,0,0,1-3.77-.73.28.28,0,0,1-.18-.28v-2.81c0-.16.1-.24.21-.16a7.27,7.27,0,0,0,3.81,1c1.23,0,1.78-.34,1.78-.88s-.46-.86-2-1.43c-2.94-1.09-3.9-2.34-3.9-4.21s1.64-4,5.06-4a8.65,8.65,0,0,1,3.38.52.32.32,0,0,1,.18.34v2.6c0,.15-.1.26-.25.18A8,8,0,0,0,7277.52-7209.3Z" transform="translate(-7070.82 7292)"/><path class="cls-1" d="M7283.89-7215.33a2,2,0,0,1,2-2,1.89,1.89,0,0,1,2,1.75v.25a1.93,1.93,0,0,1-1.84,2h-.16a1.88,1.88,0,0,1-2-1.77A.89.89,0,0,1,7283.89-7215.33Zm.18,3.62c0-.13,0-.21.21-.21h3.2c.15,0,.2.05.2.21v12.48c0,.15,0,.23-.23.23h-3.12c-.18,0-.26-.08-.26-.23Z" transform="translate(-7070.82 7292)"/><path class="cls-1" d="M7297.39-7202c3.72.19,5.09,1.69,5.09,3.75,0,2.7-2.65,4.89-6.83,4.89-4.36,0-6.25-2.16-6.25-4,0-.84.67-1.88,2.39-3.31a3.29,3.29,0,0,1-.54-1.95,3.54,3.54,0,0,1,.47-1.71,3.71,3.71,0,0,1-1.79-3.36c0-2.49,1.95-4.44,5.33-4.44a14.71,14.71,0,0,1,2.47.21,2.56,2.56,0,0,0,.62.05h3.56c.13,0,.18.05.18.18v2.42c0,.13-.05.18-.18.18-.39,0-1.25-.08-1.79-.13a3.42,3.42,0,0,1,.39,1.69c0,2.76-2.26,4.13-5.15,4.13a8.49,8.49,0,0,1-.88-.05,1.2,1.2,0,0,0-.06.7,1.33,1.33,0,0,0,.29.68Zm-3.69,2.92a2.43,2.43,0,0,0-1,1.37c0,.81,1.14,1.69,3.17,1.69,2.31,0,3.3-.8,3.3-1.66s-1.15-1.22-2.61-1.3Zm-.26-8.69A1.66,1.66,0,0,0,7295-7206a1.22,1.22,0,0,0,.27,0,1.57,1.57,0,0,0,1.78-1.36,1.83,1.83,0,0,0,0-.33,1.66,1.66,0,0,0-1.43-1.86,1.7,1.7,0,0,0-.39,0,1.66,1.66,0,0,0-1.8,1.51,1.13,1.13,0,0,0,0,.26Z" transform="translate(-7070.82 7292)"/><path class="cls-1" d="M7304.12-7208.91c0-.88-.06-2.23-.11-2.8,0-.13,0-.21.18-.21h2.73a.32.32,0,0,1,.34.21,3.11,3.11,0,0,1,.21.85,5.7,5.7,0,0,1,3.69-1.32c2,0,4.37,1,4.37,5.22v7.73c0,.15-.05.23-.23.23h-3.12c-.19,0-.26-.08-.26-.23v-7.41c0-1.56-.68-2.4-2-2.4a3.17,3.17,0,0,0-2.16.81v9a.2.2,0,0,1-.19.21h-3.18c-.18,0-.23-.08-.23-.23Z" transform="translate(-7070.82 7292)"/><path class="cls-1" d="M7318-7200.92a2.05,2.05,0,0,1,1.95-2.16h.21a2.06,2.06,0,0,1,2.16,1.95v.21a2,2,0,0,1-1.81,2.18,2,2,0,0,1-.35,0,2.06,2.06,0,0,1-2.17-1.93A2.09,2.09,0,0,1,7318-7200.92Z" transform="translate(-7070.82 7292)"/><path class="cls-1" d="M7072.9-7169c-.15,0-.21-.05-.21-.23v-16.51c0-.14,0-.26.19-.26,2.33-.06,3.31-.08,5.43-.08,4.31,0,6.73,1.84,6.73,5.2a4.88,4.88,0,0,1-3.25,4.57c.86,1.17,3.79,5.59,4.61,7,.06.15.1.31-.09.31h-3.77c-.24,0-.31-.05-.37-.16-.75-1.14-2.39-3.92-3.45-5.69-.19-.31-.32-.44-.6-.44h-1.9v6.08a.18.18,0,0,1-.16.21h-3.16Zm5.33-9.36c2,0,3.2-.78,3.2-2.31s-1.3-2.27-3.22-2.27a17.67,17.67,0,0,0-2,.06v4.52Z" transform="translate(-7070.82 7292)"/><path class="cls-1" d="M7090.45-7174.51c.13,1.48,1.17,2.7,3.72,2.7a8,8,0,0,0,3.2-.6c.08-.05.15,0,.15.13v2.47c0,.19-.05.26-.18.32a8.75,8.75,0,0,1-4,.75c-4.88,0-6.6-3.35-6.6-6.58,0-3.59,2.21-6.86,6.29-6.86s5.49,3,5.49,5.61a9.32,9.32,0,0,1-.13,1.75.22.22,0,0,1-.21.2,21.84,21.84,0,0,1-2.68.11Zm3.38-2.52a7,7,0,0,0,1.29-.06v-.18a2.1,2.1,0,0,0-2.2-2,2.44,2.44,0,0,0-2.53,2.27Z" transform="translate(-7070.82 7292)"/><path class="cls-1" d="M7100.85-7178.91c0-.88-.05-2.23-.1-2.8,0-.13,0-.21.18-.21h2.73a.32.32,0,0,1,.34.21,4.06,4.06,0,0,1,.21.85,5.7,5.7,0,0,1,3.69-1.32c2,0,4.37,1,4.37,5.22v7.73c0,.15-.06.23-.25.23h-3.12c-.18,0-.25-.08-.25-.23v-7.41c0-1.56-.67-2.4-2-2.4a3.13,3.13,0,0,0-2.15.81v9c0,.13-.08.21-.25.21h-3.14c-.19,0-.24-.08-.24-.23Z" transform="translate(-7070.82 7292)"/><path class="cls-1" d="M7118.3-7174.51c.13,1.48,1.17,2.7,3.72,2.7a7.94,7.94,0,0,0,3.19-.6c.08-.05.16,0,.16.13v2.47c0,.19,0,.26-.18.32a8.75,8.75,0,0,1-4,.75c-4.89,0-6.61-3.35-6.61-6.58,0-3.59,2.22-6.86,6.3-6.86,3.92,0,5.48,3,5.48,5.61a9.32,9.32,0,0,1-.13,1.75.2.2,0,0,1-.2.2h0a21.84,21.84,0,0,1-2.68.11Zm3.38-2.52a7.12,7.12,0,0,0,1.3-.06v-.18a2.12,2.12,0,0,0-2.21-2,2.46,2.46,0,0,0-2.5,2.29Z" transform="translate(-7070.82 7292)"/><path class="cls-1" d="M7139.51-7169a.27.27,0,0,1-.31-.23c-1.3-5.31-1.72-7.7-2-9h0c-.65,2.86-1.17,5-2.26,9-.06.18-.13.23-.29.23h-3.26c-.26,0-.31-.05-.36-.23l-3.38-12.46c-.06-.13,0-.23.2-.23h3.31c.15,0,.2.05.23.18,1.38,5.62,1.74,8.11,1.92,9.2h.06c.2-.93.62-3.38,2.13-9.15,0-.15.05-.23.23-.23h3.44c.13,0,.18.05.2.18,1.38,5.75,1.74,8.27,1.93,9.31h.05c.36-1.69.75-4.5,2-9.31a.22.22,0,0,1,.24-.18h3c.1,0,.21.08.15.21l-3.71,12.48c-.06.18-.08.23-.32.23Z" transform="translate(-7070.82 7292)"/><path class="cls-1" d="M7157.69-7173.06l-1.25,3.85a.29.29,0,0,1-.29.21h-3c-.19,0-.25-.1-.21-.26l5.2-15a5,5,0,0,0,.26-1.59.17.17,0,0,1,.14-.18h4.17c.12,0,.19,0,.21.15l5.89,16.65c.07.13,0,.23-.12.23h-3.38a.25.25,0,0,1-.28-.18l-1.33-3.88Zm5-3.25c-.52-1.71-1.57-4.86-2-6.7h0c-.42,1.74-1.35,4.6-2,6.7Z" transform="translate(-7070.82 7292)"/><path class="cls-1" d="M7179.5-7169.36c0,.13,0,.18-.13.2a8,8,0,0,1-2.91.42c-4.21,0-6.88-2.83-6.88-6.66s2.94-6.78,7.36-6.78a7.13,7.13,0,0,1,2.39.28.26.26,0,0,1,.17.29v2.68c0,.18-.1.21-.21.18a6.45,6.45,0,0,0-2.19-.31c-2.18,0-3.77,1.19-3.77,3.53,0,2.71,2,3.59,3.82,3.59a8.22,8.22,0,0,0,2.16-.23c.17-.05.21,0,.21.1Z" transform="translate(-7070.82 7292)"/><path class="cls-1" d="M7184.57-7181.92a.3.3,0,0,1,.31.23,5.56,5.56,0,0,1,.29,1.46,5.39,5.39,0,0,1,4.13-2c.16,0,.21,0,.21.21v3.19c0,.13-.05.19-.23.19a5.38,5.38,0,0,0-3.93,1.11v8.27c0,.16-.05.21-.23.21H7182c-.21,0-.26-.08-.26-.23v-9a30.36,30.36,0,0,0-.13-3.54c0-.13,0-.18.16-.18Z" transform="translate(-7070.82 7292)"/><path class="cls-1" d="M7203.47-7175.53c0,4.09-2.65,6.79-6.39,6.79-4.46,0-6.43-3.35-6.43-6.71,0-3.69,2.47-6.73,6.47-6.73C7201.31-7182.18,7203.47-7179,7203.47-7175.53Zm-9.15,0c0,2.29,1.07,3.74,2.81,3.74,1.51,0,2.65-1.3,2.65-3.69,0-2-.83-3.72-2.81-3.72-1.51,0-2.65,1.39-2.65,3.7Z" transform="translate(-7070.82 7292)"/><path class="cls-1" d="M7209.17-7187.43c.2,0,.25,0,.25.2v5.33a8.52,8.52,0,0,1,2.18-.28,6,6,0,0,1,6.24,5.75c0,.15,0,.29,0,.44,0,4.86-3.85,7.25-7.8,7.25a13.4,13.4,0,0,1-4.08-.6.29.29,0,0,1-.16-.26v-17.65c0-.13,0-.18.18-.18Zm1.79,8.32a5.59,5.59,0,0,0-1.53.2v7.05a3.69,3.69,0,0,0,1,.1,3.58,3.58,0,0,0,3.77-3.37,4.69,4.69,0,0,0,0-.53c0-2.34-1.42-3.45-3.24-3.45Z" transform="translate(-7070.82 7292)"/><path class="cls-1" d="M7230.33-7171.89c0,.68,0,1.23.05,1.85,0,.05,0,.1-.05.13a14.43,14.43,0,0,1-5.67,1.17c-2.89,0-5.25-1.33-5.25-4.34,0-2.76,2.42-4.21,5.88-4.21a11,11,0,0,1,1.52.05v-.18c0-.5-.31-1.64-2.5-1.64a8.46,8.46,0,0,0-3.43.7.15.15,0,0,1-.2-.05.11.11,0,0,1,0-.08v-2.63a.25.25,0,0,1,.18-.26,9.89,9.89,0,0,1,4.09-.8c3.75,0,5.41,2.31,5.41,5.28Zm-3.51-2.67a8.18,8.18,0,0,0-1.3-.08c-1.85,0-2.6.6-2.6,1.53s.65,1.56,2.29,1.56a5.55,5.55,0,0,0,1.61-.23Z" transform="translate(-7070.82 7292)"/><path class="cls-1" d="M7239.69-7169.44c0,.15,0,.28-.19.34a6.49,6.49,0,0,1-2.31.36c-2.26,0-3.59-1.12-3.59-3.72v-6.45h-1.55c-.16,0-.21-.07-.21-.23v-2.55c0-.18.05-.23.23-.23h1.56a27.68,27.68,0,0,1,.26-3.15.28.28,0,0,1,.24-.23l3-.39c.13,0,.21,0,.21.15-.08.81-.13,2.34-.13,3.62h2.39c.15,0,.21.05.21.21v2.62c0,.13-.06.16-.19.18h-2.44v5.57c0,1.14.34,1.66,1.4,1.66a5.51,5.51,0,0,0,.89-.1c.1,0,.18,0,.18.18Z" transform="translate(-7070.82 7292)"/><path class="cls-1" d="M7248-7185.8c0-.15,0-.2.15-.2,1.07,0,3.12-.08,5.1-.08,5.25,0,7.07,2.91,7.07,5.74,0,4.22-3.25,6-7.25,6h-1.48v5.12a.2.2,0,0,1-.17.21h-3.24c-.13,0-.19-.08-.19-.21Zm3.59,8.27h1.45c2.06,0,3.69-.63,3.69-2.76,0-1.64-1.11-2.68-3.38-2.68a12,12,0,0,0-1.76.06Z" transform="translate(-7070.82 7292)"/><path class="cls-1" d="M7265.39-7181.92a.3.3,0,0,1,.31.23,5.56,5.56,0,0,1,.29,1.46,5.39,5.39,0,0,1,4.13-2c.16,0,.21,0,.21.21v3.19c0,.13,0,.19-.23.19a5.38,5.38,0,0,0-3.93,1.11v8.27c0,.16-.05.21-.23.21h-3.13c-.21,0-.25-.08-.25-.23v-9a30.36,30.36,0,0,0-.13-3.54c0-.13,0-.18.16-.18Z" transform="translate(-7070.82 7292)"/><path class="cls-1" d="M7284.25-7175.53c0,4.09-2.65,6.79-6.4,6.79-4.45,0-6.43-3.35-6.43-6.71,0-3.69,2.48-6.73,6.48-6.73C7282.09-7182.18,7284.25-7179,7284.25-7175.53Zm-9.15,0c0,2.29,1.07,3.74,2.81,3.74,1.51,0,2.65-1.3,2.65-3.69,0-2-.83-3.72-2.81-3.72-1.51,0-2.65,1.39-2.65,3.7Z" transform="translate(-7070.82 7292)"/><path class="cls-1" d="M7292.81-7185.8c0-.13,0-.18.18-.2.78,0,2.75-.08,5.07-.08,6.21,0,9.25,3.48,9.25,8.29,0,6.22-4.78,8.84-9.21,8.84-1.72,0-4.31,0-5.14-.05-.11,0-.15-.08-.15-.26Zm3.61,13.68c.52,0,.93.05,1.52.05,3.41,0,5.65-2.05,5.65-5.67s-2.24-5.2-5.57-5.2h-1.6Z" transform="translate(-7070.82 7292)"/><path class="cls-1" d="M7322.16-7169.57c0,.18-.05.31-.21.36a11.35,11.35,0,0,1-3.61.47c-5.05,0-9-3-9-8.68,0-5.28,3.64-8.87,9.38-8.87a8.64,8.64,0,0,1,3.38.44.32.32,0,0,1,.19.31v2.84c0,.23-.14.23-.25.18a8.09,8.09,0,0,0-3.37-.57c-3.48,0-5.61,2.16-5.61,5.54,0,4.05,3,5.59,5.69,5.59a9.74,9.74,0,0,0,3.17-.42c.12-.05.2,0,.2.13Z" transform="translate(-7070.82 7292)"/><path class="cls-1" d="M7324.86-7170.92a2.05,2.05,0,0,1,2-2.16h.21a2.06,2.06,0,0,1,2.16,1.95v.21a2,2,0,0,1-1.81,2.18,2,2,0,0,1-.35,0,2.06,2.06,0,0,1-2.17-1.93A2.09,2.09,0,0,1,7324.86-7170.92Z" transform="translate(-7070.82 7292)"/><path class="cls-1" d="M7088.82-7142a16,16,0,0,0-16,16,16,16,0,0,0,4.69,11.31,15.92,15.92,0,0,0,11.32,4.69h58a16,16,0,0,0,16-16,16,16,0,0,0-4.69-11.31,15.9,15.9,0,0,0-11.31-4.69h-58m0-2h58a18,18,0,0,1,18,18,18,18,0,0,1-18,18h-58a18,18,0,0,1-18-18A18,18,0,0,1,7088.82-7144Z" transform="translate(-7070.82 7292)"/><g class="cls-3"><g class="cls-3"><path class="cls-1" d="M7089.77-7122a.21.21,0,0,1-.1-.21v-1.46s.05-.08.11,0a4.71,4.71,0,0,0,2.49.72c1.15,0,1.64-.44,1.64-1.05s-.33-.91-1.4-1.35l-.67-.29c-1.72-.72-2.17-1.59-2.17-2.64,0-1.5,1.13-2.65,3.25-2.65a5.08,5.08,0,0,1,2.14.37c.07,0,.09.08.09.18v1.35c0,.06,0,.12-.13.06a4.35,4.35,0,0,0-2.12-.46c-1.2,0-1.58.5-1.58,1s.32.86,1.43,1.32l.53.22c1.82.76,2.34,1.64,2.34,2.75,0,1.64-1.29,2.7-3.4,2.7A5.3,5.3,0,0,1,7089.77-7122Z" transform="translate(-7070.82 7292)"/><path class="cls-1" d="M7102.36-7123.08c0,.31,0,.59,0,.89,0,0,0,0,0,0a6.85,6.85,0,0,1-2.92.63c-1.52,0-2.74-.71-2.74-2.29s1.33-2.23,3.15-2.23a7.91,7.91,0,0,1,.87,0v-.17c0-.32-.19-1.05-1.42-1.05a4.18,4.18,0,0,0-1.83.39c-.05,0-.12,0-.12-.08v-1.22c0-.07,0-.1.09-.14a5.19,5.19,0,0,1,2.13-.42,2.54,2.54,0,0,1,2.79,2.77Zm-1.64-1.65a5.5,5.5,0,0,0-.77,0c-1.11,0-1.6.36-1.6,1s.36,1,1.37,1a2.51,2.51,0,0,0,1-.17Z" transform="translate(-7070.82 7292)"/><path class="cls-1" d="M7105.55-7121.65a.13.13,0,0,1-.14-.08c-.47-1.35-1.83-5.32-2.32-6.73,0-.05,0-.09.09-.09h1.59c.07,0,.1,0,.13.08,1,3.28,1.37,4.62,1.51,5.24h0c.16-.62.58-2,1.64-5.24,0-.07.06-.08.11-.08h1.42s.1,0,.07.11c-.53,1.47-1.89,5.39-2.37,6.7a.15.15,0,0,1-.15.09Z" transform="translate(-7070.82 7292)"/><path class="cls-1" d="M7111.94-7124.71c0,1,.69,1.76,2.12,1.76a4.27,4.27,0,0,0,1.73-.34c.05,0,.09,0,.09.06v1.16a.15.15,0,0,1-.09.16,4.65,4.65,0,0,1-2.1.4,3.23,3.23,0,0,1-3.46-3.51c0-1.95,1.18-3.67,3.3-3.67a2.78,2.78,0,0,1,2.87,2.95,4.32,4.32,0,0,1-.06.87c0,.06,0,.08-.11.1a10.85,10.85,0,0,1-1.44.06Zm2.09-1.21h.77v-.11a1.3,1.3,0,0,0-1.34-1.31,1.54,1.54,0,0,0-1.52,1.43Z" transform="translate(-7070.82 7292)"/><path class="cls-1" d="M7122.08-7125.53c-.07,0-.1,0-.1-.09v-1.28c0-.08,0-.13.08-.13h.71c1,0,1.61-.33,1.61-1s-.52-1.09-1.59-1.09a3.88,3.88,0,0,0-2,.53c-.09,0-.1,0-.1-.06V-7130c0-.07,0-.1.07-.14a5.06,5.06,0,0,1,2.37-.54c1.8,0,2.91.95,2.91,2.36a2,2,0,0,1-1.28,1.87,2.2,2.2,0,0,1,1.7,2.18c0,1.77-1.58,2.73-3.5,2.73a4.9,4.9,0,0,1-2.33-.46c-.07,0-.08-.11-.08-.18v-1.39c0-.05.07-.08.12-.05a4.61,4.61,0,0,0,2.23.58c1.3,0,1.82-.56,1.82-1.27s-.61-1.25-1.82-1.25Z" transform="translate(-7070.82 7292)"/><path class="cls-1" d="M7127.57-7126.1c0-2.61,1.16-4.55,3.26-4.55,2.58,0,3.22,2.42,3.22,4.55,0,2.35-.85,4.59-3.21,4.59S7127.57-7123.54,7127.57-7126.1Zm1.69,0c0,2,.52,3.18,1.58,3.18s1.53-1.11,1.53-3.16-.53-3.1-1.57-3.1S7129.26-7128.29,7129.26-7126.14Z" transform="translate(-7070.82 7292)"/><path class="cls-1" d="M7139.75-7128.08a2.36,2.36,0,0,1-2.3,2.58,2.24,2.24,0,0,1-2.3-2.54,2.37,2.37,0,0,1,2.32-2.61C7139-7130.65,7139.75-7129.56,7139.75-7128.08Zm-2.27,1.45c.6,0,1-.52,1-1.45s-.36-1.44-1-1.44-1,.46-1,1.44C7136.44-7127.28,7136.79-7126.63,7137.48-7126.63Zm.64,4.9c-.05.08-.08.08-.19.08h-1.07s-.1-.05,0-.12l6.16-8.66a.16.16,0,0,1,.16-.08h1.08c.07,0,.05.05,0,.09Zm7.83-2.35a2.35,2.35,0,0,1-2.29,2.57,2.26,2.26,0,0,1-2.31-2.55,2.36,2.36,0,0,1,2.31-2.6C7145.21-7126.66,7146-7125.55,7146-7124.08Zm-2.27,1.42c.61,0,1-.49,1-1.42s-.37-1.45-1-1.45-1,.48-1,1.45C7142.65-7123.27,7143-7122.66,7143.68-7122.66Z" transform="translate(-7070.82 7292)"/></g></g><rect class="cls-2" y="124" width="124" height="24"/><rect class="cls-2" x="94" y="124" width="30" height="60"/></svg>