<svg id="Layer_1" data-name="Layer 1" xmlns="http://www.w3.org/2000/svg" viewBox="0 0 258.36 184"><defs><style>.cls-1{fill:#fff;}.cls-2{fill:none;}.cls-3{isolation:isolate;}</style></defs><path class="cls-1" d="M7093.35-7292h13.42v32.14Z" transform="translate(-7070.43 7292)"/><path class="cls-1" d="M7083.89-7292h-13.43v32.14Z" transform="translate(-7070.43 7292)"/><path class="cls-1" d="M7088.62-7280.16l8.55,20.29h-5.6l-2.56-6.46h-6.26Z" transform="translate(-7070.43 7292)"/><path class="cls-1" d="M7075.13-7247c-.26-1.3-.72-3.27-.9-4.54h0c-.18,1.23-.51,3-.82,4.54Zm-2.13,1.92-.59,2.79c0,.11-.06.13-.15.13h-1.7c-.11,0-.14,0-.12-.18l2.34-10.13a3.57,3.57,0,0,0,.07-1,.1.1,0,0,1,.09-.11h2.45c.09,0,.13,0,.15.13l2.74,11.12c0,.11,0,.14-.11.14h-1.9a.12.12,0,0,1-.14-.11h0l-.63-2.8Z" transform="translate(-7070.43 7292)"/><path class="cls-1" d="M7082.81-7249.18a.88.88,0,0,0-.39,0c-1,0-1.74.9-1.74,2.67s.75,2.65,1.72,2.65a1.92,1.92,0,0,0,.41-.05Zm-4.23,2.69c0-2.59,1.52-4.59,3.95-4.59h.28v-3a.09.09,0,0,1,.1-.09h1.9c.08,0,.09,0,.09.09v10.19a9.4,9.4,0,0,0,.05,1.19.1.1,0,0,1-.06.12,5.9,5.9,0,0,1-2.57.62C7080.08-7242,7078.58-7243.46,7078.58-7246.49Z" transform="translate(-7070.43 7292)"/><path class="cls-1" d="M7088.1-7246.56c0,1.64.35,2.72,1.15,2.72s1.13-.92,1.13-2.71-.28-2.69-1.12-2.69S7088.1-7248.4,7088.1-7246.56Zm4.36,0c0,2.79-1.17,4.56-3.22,4.56-2.31,0-3.22-2-3.22-4.58s1.17-4.5,3.26-4.5,3.19,1.67,3.19,4.52Z" transform="translate(-7070.43 7292)"/><path class="cls-1" d="M7096.3-7249.2a2.23,2.23,0,0,0-.63.09v5.22a1.14,1.14,0,0,0,.37,0c.8,0,1.73-.81,1.75-3C7097.81-7248.58,7097.12-7249.2,7096.3-7249.2Zm-.72-5c.07,0,.09,0,.09.11v3.13a4.33,4.33,0,0,1,.95-.11c1.84,0,3.24,1.42,3.24,4.16,0,3.2-1.82,4.92-4.11,4.92a6.76,6.76,0,0,1-2.05-.32.15.15,0,0,1-.11-.14v-11.64a.11.11,0,0,1,.09-.11h1.9Z" transform="translate(-7070.43 7292)"/><path class="cls-1" d="M7104.23-7247.72a2.35,2.35,0,0,0,.53,0,1.23,1.23,0,0,0,0-.2c0-.67-.21-1.37-.94-1.37s-1,.72-1.08,1.59Zm-1.5,1.67c0,1.36.51,2.19,1.94,2.19a3.68,3.68,0,0,0,1.35-.26c.09,0,.14,0,.14.09v1.47c0,.13,0,.2-.13.23a3.89,3.89,0,0,1-1.75.32c-2.6,0-3.61-1.91-3.61-4.4,0-2.65,1.17-4.67,3.24-4.67s2.81,1.93,2.81,3.5a7.33,7.33,0,0,1-.09,1.32c0,.09-.06.13-.15.15s-.73,0-1.68,0Z" transform="translate(-7070.43 7292)"/><rect class="cls-2" y="50" width="66" height="30"/><rect class="cls-2" x="36" width="30" height="80"/><path class="cls-1" d="M7098-7123.8c0,.51.36,1,1.37,1a2.49,2.49,0,0,0,1-.17v-1.72a5.5,5.5,0,0,0-.77,0C7098.46-7124.77,7098-7124.41,7098-7123.8Z" transform="translate(-7070.43 7292)"/><path class="cls-1" d="M7113.07-7127.35a1.53,1.53,0,0,0-1.51,1.43h2.86v-.11A1.3,1.3,0,0,0,7113.07-7127.35Z" transform="translate(-7070.43 7292)"/><path class="cls-1" d="M7130.42-7129.22c-.9,0-1.54.93-1.54,3.08,0,2,.52,3.18,1.58,3.18s1.53-1.11,1.53-3.16S7131.45-7129.22,7130.42-7129.22Z" transform="translate(-7070.43 7292)"/><path class="cls-1" d="M7138.08-7128.08c0-.92-.37-1.44-1-1.44s-1,.46-1,1.44c0,.8.35,1.45,1,1.45S7138.08-7127.15,7138.08-7128.08Z" transform="translate(-7070.43 7292)"/><path class="cls-1" d="M7146.43-7144h-58a18,18,0,0,0-18,18,18,18,0,0,0,18,18h58a18,18,0,0,0,18-18A18,18,0,0,0,7146.43-7144Zm-54.6,22.49a5.33,5.33,0,0,1-2.45-.5c-.07,0-.09-.1-.09-.21v-1.46s.05-.08.11,0a4.68,4.68,0,0,0,2.49.72c1.15,0,1.64-.44,1.64-1.05s-.34-.91-1.4-1.35l-.67-.29c-1.73-.72-2.17-1.59-2.17-2.64,0-1.5,1.13-2.65,3.24-2.65a5.1,5.1,0,0,1,2.15.37c.07,0,.08.08.08.18v1.35c0,.06,0,.12-.12.06a4.4,4.4,0,0,0-2.12-.46c-1.2,0-1.58.5-1.58,1s.32.86,1.43,1.32l.53.22c1.82.76,2.34,1.64,2.34,2.75C7095.24-7122.57,7094-7121.51,7091.83-7121.51Zm10.14-.63a6.81,6.81,0,0,1-2.91.63c-1.53,0-2.75-.71-2.75-2.29s1.33-2.23,3.15-2.23a7.78,7.78,0,0,1,.87,0v-.17c0-.32-.18-1.05-1.41-1.05a4.23,4.23,0,0,0-1.84.39.08.08,0,0,1-.11-.08v-1.22c0-.07,0-.1.09-.14a5.18,5.18,0,0,1,2.12-.42,2.54,2.54,0,0,1,2.79,2.77v2.84a8.72,8.72,0,0,0,0,.89S7102-7122.15,7102-7122.14Zm5,.4a.15.15,0,0,1-.16.09h-1.61a.16.16,0,0,1-.14-.08c-.46-1.35-1.82-5.32-2.31-6.73,0-.05,0-.09.08-.09h1.6c.07,0,.1,0,.13.08,1,3.28,1.37,4.62,1.51,5.24h0c.15-.62.57-2,1.64-5.24,0-.07.05-.08.11-.08h1.41c.05,0,.1,0,.07.11C7108.76-7127,7107.4-7123,7106.93-7121.74Zm9-3.13a.13.13,0,0,1-.11.1,10.93,10.93,0,0,1-1.45.06h-2.84c0,1,.69,1.76,2.11,1.76a4.32,4.32,0,0,0,1.74-.34s.09,0,.09.06v1.16a.15.15,0,0,1-.09.16,4.68,4.68,0,0,1-2.1.4,3.23,3.23,0,0,1-3.46-3.51c0-1.95,1.18-3.67,3.29-3.67a2.78,2.78,0,0,1,2.87,2.95A4.53,4.53,0,0,1,7116-7124.87Zm6.6,3.36a4.86,4.86,0,0,1-2.32-.46.18.18,0,0,1-.09-.18v-1.39c0-.05.07-.08.13-.05a4.58,4.58,0,0,0,2.23.58c1.3,0,1.82-.56,1.82-1.27s-.62-1.25-1.82-1.25h-.82c-.07,0-.09,0-.09-.09v-1.28c0-.08,0-.13.08-.13h.7c1,0,1.61-.33,1.61-1s-.52-1.09-1.58-1.09a3.94,3.94,0,0,0-2,.53c-.08,0-.1,0-.1-.06V-7130c0-.07,0-.1.07-.14a5.12,5.12,0,0,1,2.37-.54c1.81,0,2.92.95,2.92,2.36a2,2,0,0,1-1.28,1.87,2.2,2.2,0,0,1,1.7,2.18C7126.07-7122.47,7124.48-7121.51,7122.56-7121.51Zm7.9,0c-2.31,0-3.28-2-3.28-4.59s1.16-4.55,3.27-4.55c2.57,0,3.22,2.42,3.22,4.55C7133.67-7123.75,7132.81-7121.51,7130.46-7121.51Zm4.31-6.53a2.37,2.37,0,0,1,2.31-2.61c1.56,0,2.28,1.09,2.28,2.57a2.35,2.35,0,0,1-2.29,2.58A2.24,2.24,0,0,1,7134.77-7128Zm2.77,6.39h-1.06c-.06,0-.1-.05,0-.12l6.16-8.66a.15.15,0,0,1,.15-.08h1.08c.07,0,.06.05,0,.09l-6.12,8.69C7137.68-7121.65,7137.66-7121.65,7137.54-7121.65Zm5.73.14a2.27,2.27,0,0,1-2.31-2.55,2.37,2.37,0,0,1,2.31-2.6c1.56,0,2.3,1.11,2.3,2.58A2.35,2.35,0,0,1,7143.27-7121.51Z" transform="translate(-7070.43 7292)"/><path class="cls-1" d="M7143.29-7125.53c-.59,0-1,.48-1,1.45,0,.81.35,1.42,1,1.42s1-.49,1-1.42S7143.92-7125.53,7143.29-7125.53Z" transform="translate(-7070.43 7292)"/><rect class="cls-2" y="124" width="124" height="24"/><rect class="cls-2" x="94" y="124" width="30" height="60"/><g class="cls-3"><g class="cls-3"><path class="cls-1" d="M7084.13-7199.57c0,.18-.05.31-.2.36a11.47,11.47,0,0,1-3.62.47c-5,0-9-3-9-8.68,0-5.28,3.64-8.87,9.39-8.87a8.7,8.7,0,0,1,3.38.44.29.29,0,0,1,.18.31v2.84c0,.23-.13.23-.23.18a8.08,8.08,0,0,0-3.38-.57c-3.49,0-5.62,2.16-5.62,5.54,0,4.05,3,5.59,5.69,5.59a9.77,9.77,0,0,0,3.18-.42c.13-.05.2,0,.2.13Z" transform="translate(-7070.43 7292)"/><path class="cls-1" d="M7098.41-7205.53c0,4.09-2.65,6.79-6.4,6.79-4.44,0-6.42-3.35-6.42-6.71,0-3.69,2.47-6.73,6.47-6.73C7096.25-7212.18,7098.41-7209,7098.41-7205.53Zm-9.15,0c0,2.29,1.06,3.74,2.8,3.74,1.51,0,2.66-1.3,2.66-3.69,0-2-.84-3.72-2.81-3.72C7090.4-7209.17,7089.26-7207.81,7089.26-7205.5Z" transform="translate(-7070.43 7292)"/><path class="cls-1" d="M7101-7199c-.18,0-.23-.08-.23-.23v-9.88c0-1-.08-2.08-.11-2.58,0-.15.06-.23.21-.23h2.76a.37.37,0,0,1,.31.15,3.79,3.79,0,0,1,.16,1,5.61,5.61,0,0,1,3.74-1.38,3.7,3.7,0,0,1,3.33,1.66,6.33,6.33,0,0,1,4.21-1.66c2.26,0,4.45,1.22,4.45,5.15v7.8a.21.21,0,0,1-.24.23h-3.12c-.18,0-.26-.08-.26-.23v-7.44c0-1.35-.47-2.39-2-2.39a3.46,3.46,0,0,0-2.21.83,11.75,11.75,0,0,1,.07,1.46v7.54c0,.13-.05.23-.2.23h-3.15c-.16,0-.26-.05-.26-.23v-7.54c0-1.56-.73-2.27-2-2.27a3.54,3.54,0,0,0-2.13.73v9.1c0,.13,0,.21-.23.21Z" transform="translate(-7070.43 7292)"/><path class="cls-1" d="M7123.08-7199c-.18,0-.23-.08-.23-.23v-9.88c0-1-.08-2.08-.11-2.58,0-.15.06-.23.21-.23h2.76a.37.37,0,0,1,.31.15,3.79,3.79,0,0,1,.16,1,5.61,5.61,0,0,1,3.74-1.38,3.7,3.7,0,0,1,3.33,1.66,6.33,6.33,0,0,1,4.21-1.66c2.26,0,4.45,1.22,4.45,5.15v7.8a.21.21,0,0,1-.24.23h-3.12c-.18,0-.26-.08-.26-.23v-7.44c0-1.35-.47-2.39-2-2.39a3.46,3.46,0,0,0-2.21.83,11.75,11.75,0,0,1,.07,1.46v7.54c0,.13-.05.23-.2.23h-3.15c-.16,0-.26-.05-.26-.23v-7.54c0-1.56-.73-2.27-2-2.27a3.54,3.54,0,0,0-2.13.73v9.1c0,.13-.05.21-.23.21Z" transform="translate(-7070.43 7292)"/><path class="cls-1" d="M7147.94-7204.51c.13,1.48,1.17,2.7,3.72,2.7a7.92,7.92,0,0,0,3.19-.6c.08-.05.16,0,.16.13v2.47c0,.19-.05.26-.18.32a8.81,8.81,0,0,1-4,.75c-4.89,0-6.6-3.35-6.6-6.58,0-3.59,2.21-6.86,6.29-6.86,3.92,0,5.48,3,5.48,5.61a8.28,8.28,0,0,1-.13,1.75.2.2,0,0,1-.2.2,21.81,21.81,0,0,1-2.68.11Zm3.38-2.52a7.42,7.42,0,0,0,1.3-.06v-.18a2.12,2.12,0,0,0-2.21-2,2.47,2.47,0,0,0-2.5,2.29Z" transform="translate(-7070.43 7292)"/><path class="cls-1" d="M7158.34-7208.91c0-.88-.05-2.23-.11-2.8,0-.13,0-.21.19-.21h2.73a.3.3,0,0,1,.33.21,2.85,2.85,0,0,1,.21.85,5.72,5.72,0,0,1,3.69-1.32c2,0,4.37,1,4.37,5.22v7.73c0,.15-.05.23-.23.23h-3.12c-.18,0-.26-.08-.26-.23v-7.41c0-1.56-.68-2.4-2-2.4a3.19,3.19,0,0,0-2.16.81v9a.2.2,0,0,1-.23.21h-3.15c-.18,0-.23-.08-.23-.23Z" transform="translate(-7070.43 7292)"/><path class="cls-1" d="M7179.24-7199.44c0,.15,0,.28-.18.34a6.44,6.44,0,0,1-2.31.36c-2.27,0-3.59-1.12-3.59-3.72v-6.45h-1.56c-.16,0-.21-.07-.21-.23v-2.55c0-.18,0-.23.23-.23h1.56a29.5,29.5,0,0,1,.26-3.15.28.28,0,0,1,.24-.23l3-.39c.13,0,.21,0,.21.15-.08.81-.13,2.34-.13,3.62h2.39c.16,0,.21.05.21.21v2.62c0,.13,0,.16-.18.18h-2.45v5.57c0,1.14.34,1.66,1.41,1.66a5.27,5.27,0,0,0,.88-.1c.1,0,.18,0,.18.18Z" transform="translate(-7070.43 7292)"/><path class="cls-1" d="M7181.48-7200.92a2.06,2.06,0,0,1,2.15-2.16,2.06,2.06,0,0,1,2.16,2.16,2,2,0,0,1-2.16,2.18A2,2,0,0,1,7181.48-7200.92Z" transform="translate(-7070.43 7292)"/><path class="cls-1" d="M7205.4-7199.23c0,.2-.08.23-.26.23h-10.59c-.15,0-.2-.08-.2-.23v-16.57c0-.15,0-.23.2-.23h10.27c.21,0,.26,0,.29.21l.29,2.81c0,.13,0,.23-.19.23H7198v3.48h6.63a.19.19,0,0,1,.21.21v2.86c0,.16-.11.18-.21.18H7198v3.8h7.67c.21,0,.23.08.21.23Z" transform="translate(-7070.43 7292)"/><path class="cls-1" d="M7207-7205.34c0-3.72,2.78-6.84,7.54-6.84.21,0,.47,0,.86.05v-5.12a.16.16,0,0,1,.18-.18h3.28c.13,0,.15.05.15.15v15.37a16.28,16.28,0,0,0,.1,1.9c0,.13,0,.18-.18.23a13.12,13.12,0,0,1-5.12,1C7210-7198.74,7207-7200.92,7207-7205.34Zm8.4-3.7a2.81,2.81,0,0,0-1-.13,3.47,3.47,0,0,0-3.71,3.64c0,2.58,1.48,3.7,3.45,3.7a3.7,3.7,0,0,0,1.23-.16Z" transform="translate(-7070.43 7292)"/><path class="cls-1" d="M7221.85-7215.33a2,2,0,0,1,2-2,1.88,1.88,0,0,1,2,2,1.91,1.91,0,0,1-2,2A1.9,1.9,0,0,1,7221.85-7215.33Zm.19,3.62c0-.13.05-.21.2-.21h3.2c.16,0,.21.05.21.21v12.48c0,.15,0,.23-.23.23h-3.12c-.19,0-.26-.08-.26-.23Z" transform="translate(-7070.43 7292)"/><path class="cls-1" d="M7235.43-7199.44c0,.15,0,.28-.19.34a6.41,6.41,0,0,1-2.31.36c-2.26,0-3.59-1.12-3.59-3.72v-6.45h-1.56c-.16,0-.21-.07-.21-.23v-2.55c0-.18.05-.23.24-.23h1.56a27.11,27.11,0,0,1,.26-3.15.26.26,0,0,1,.23-.23l3-.39c.13,0,.21,0,.21.15-.08.81-.13,2.34-.13,3.62h2.39c.16,0,.21.05.21.21v2.62c0,.13-.05.16-.18.18H7233v5.57c0,1.14.33,1.66,1.4,1.66a5.27,5.27,0,0,0,.88-.1c.11,0,.19,0,.19.18Z" transform="translate(-7070.43 7292)"/><path class="cls-1" d="M7237.66-7200.92a2.06,2.06,0,0,1,2.16-2.16,2.06,2.06,0,0,1,2.16,2.16,2,2,0,0,1-2.16,2.18A2.05,2.05,0,0,1,7237.66-7200.92Z" transform="translate(-7070.43 7292)"/><path class="cls-1" d="M7261.58-7199.23c0,.2-.08.23-.26.23h-10.58c-.16,0-.21-.08-.21-.23v-16.57c0-.15.05-.23.21-.23H7261c.21,0,.26,0,.28.21l.29,2.81c0,.13,0,.23-.18.23h-7.26v3.48h6.63a.19.19,0,0,1,.21.21v2.86c0,.16-.1.18-.21.18h-6.63v3.8h7.67c.21,0,.24.08.21.23Z" transform="translate(-7070.43 7292)"/><path class="cls-1" d="M7263.76-7204.15c-.13,0-.18-.08-.18-.21v-2.73a.16.16,0,0,1,.18-.18H7270c.1,0,.16,0,.16.18v2.76c0,.16-.06.18-.13.18Z" transform="translate(-7070.43 7292)"/><path class="cls-1" d="M7277.13-7209.3c-1.22,0-1.61.45-1.61.89s.33.78,1.84,1.35c3.15,1.14,4.14,2.37,4.14,4.21,0,2.47-1.93,4.11-5.36,4.11a8.43,8.43,0,0,1-3.77-.73.3.3,0,0,1-.18-.28v-2.81c0-.16.1-.24.21-.16a7.3,7.3,0,0,0,3.82,1c1.22,0,1.77-.34,1.77-.88s-.45-.86-2-1.43c-2.94-1.09-3.9-2.34-3.9-4.21,0-2,1.64-4,5.07-4a8.66,8.66,0,0,1,3.38.52.33.33,0,0,1,.18.34v2.6c0,.15-.1.26-.26.18A8,8,0,0,0,7277.13-7209.3Z" transform="translate(-7070.43 7292)"/><path class="cls-1" d="M7283.5-7215.33a2,2,0,0,1,2-2,1.88,1.88,0,0,1,2,2,1.92,1.92,0,0,1-2,2A1.89,1.89,0,0,1,7283.5-7215.33Zm.18,3.62c0-.13,0-.21.21-.21h3.2c.15,0,.2.05.2.21v12.48c0,.15,0,.23-.23.23h-3.12c-.18,0-.26-.08-.26-.23Z" transform="translate(-7070.43 7292)"/><path class="cls-1" d="M7297-7202c3.72.19,5.09,1.69,5.09,3.75,0,2.7-2.65,4.89-6.83,4.89-4.35,0-6.24-2.16-6.24-4,0-.84.67-1.88,2.39-3.31a3.3,3.3,0,0,1-.55-1.95,3.57,3.57,0,0,1,.47-1.71,3.73,3.73,0,0,1-1.79-3.36c0-2.49,1.95-4.44,5.33-4.44a14.48,14.48,0,0,1,2.47.21,2.81,2.81,0,0,0,.62.05h3.56c.13,0,.18.05.18.18v2.42c0,.13-.05.18-.18.18-.39,0-1.25-.08-1.79-.13a3.33,3.33,0,0,1,.39,1.69c0,2.76-2.26,4.13-5.15,4.13a8.49,8.49,0,0,1-.88-.05,1.28,1.28,0,0,0-.06.7,1.41,1.41,0,0,0,.29.68Zm-3.69,2.92a2.46,2.46,0,0,0-1,1.37c0,.81,1.14,1.69,3.17,1.69,2.31,0,3.3-.8,3.3-1.66s-1.14-1.22-2.6-1.3Zm-.26-8.69a1.68,1.68,0,0,0,1.84,1.77,1.59,1.59,0,0,0,1.8-1.69,1.66,1.66,0,0,0-1.82-1.87A1.66,1.66,0,0,0,7293.07-7207.79Z" transform="translate(-7070.43 7292)"/><path class="cls-1" d="M7303.73-7208.91c0-.88-.06-2.23-.11-2.8,0-.13,0-.21.18-.21h2.73a.31.31,0,0,1,.34.21,2.85,2.85,0,0,1,.21.85,5.7,5.7,0,0,1,3.69-1.32c2,0,4.37,1,4.37,5.22v7.73c0,.15-.05.23-.23.23h-3.12c-.19,0-.26-.08-.26-.23v-7.41c0-1.56-.68-2.4-2-2.4a3.17,3.17,0,0,0-2.16.81v9a.2.2,0,0,1-.23.21H7304c-.18,0-.23-.08-.23-.23Z" transform="translate(-7070.43 7292)"/><path class="cls-1" d="M7317.58-7200.92a2.06,2.06,0,0,1,2.16-2.16,2.06,2.06,0,0,1,2.16,2.16,2,2,0,0,1-2.16,2.18A2.05,2.05,0,0,1,7317.58-7200.92Z" transform="translate(-7070.43 7292)"/></g><g class="cls-3"><path class="cls-1" d="M7072.51-7169c-.15,0-.21-.05-.21-.23v-16.51c0-.14,0-.26.19-.26,2.34-.06,3.32-.08,5.43-.08,4.32,0,6.73,1.84,6.73,5.2a4.87,4.87,0,0,1-3.25,4.57c.86,1.17,3.8,5.59,4.61,7,.07.15.1.31-.08.31h-3.77c-.24,0-.31-.05-.37-.16-.75-1.14-2.39-3.92-3.45-5.69-.19-.31-.32-.44-.6-.44h-1.9v6.08a.19.19,0,0,1-.21.21Zm5.33-9.36c1.95,0,3.2-.78,3.2-2.31s-1.3-2.27-3.22-2.27c-.86,0-1.59,0-2,.06v4.52Z" transform="translate(-7070.43 7292)"/><path class="cls-1" d="M7090.06-7174.51c.13,1.48,1.17,2.7,3.72,2.7a8,8,0,0,0,3.2-.6c.08-.05.15,0,.15.13v2.47c0,.19-.05.26-.18.32a8.78,8.78,0,0,1-4,.75c-4.88,0-6.6-3.35-6.6-6.58,0-3.59,2.21-6.86,6.29-6.86s5.49,3,5.49,5.61a8.28,8.28,0,0,1-.13,1.75.22.22,0,0,1-.21.2,21.81,21.81,0,0,1-2.68.11Zm3.38-2.52a7.33,7.33,0,0,0,1.3-.06v-.18a2.11,2.11,0,0,0-2.21-2A2.45,2.45,0,0,0,7090-7177Z" transform="translate(-7070.43 7292)"/><path class="cls-1" d="M7100.46-7178.91c0-.88-.05-2.23-.1-2.8,0-.13,0-.21.18-.21h2.73a.31.31,0,0,1,.34.21,3.63,3.63,0,0,1,.21.85,5.7,5.7,0,0,1,3.69-1.32c2,0,4.37,1,4.37,5.22v7.73c0,.15-.06.23-.24.23h-3.12c-.18,0-.26-.08-.26-.23v-7.41c0-1.56-.67-2.4-2-2.4a3.14,3.14,0,0,0-2.15.81v9c0,.13-.08.21-.24.21h-3.14c-.19,0-.24-.08-.24-.23Z" transform="translate(-7070.43 7292)"/><path class="cls-1" d="M7117.91-7174.51c.13,1.48,1.17,2.7,3.72,2.7a7.92,7.92,0,0,0,3.19-.6c.08-.05.16,0,.16.13v2.47c0,.19,0,.26-.18.32a8.81,8.81,0,0,1-4,.75c-4.89,0-6.61-3.35-6.61-6.58,0-3.59,2.22-6.86,6.3-6.86,3.92,0,5.48,3,5.48,5.61a8.28,8.28,0,0,1-.13,1.75.2.2,0,0,1-.2.2,21.81,21.81,0,0,1-2.68.11Zm3.38-2.52a7.42,7.42,0,0,0,1.3-.06v-.18a2.12,2.12,0,0,0-2.21-2,2.47,2.47,0,0,0-2.5,2.29Z" transform="translate(-7070.43 7292)"/><path class="cls-1" d="M7139.12-7169a.28.28,0,0,1-.31-.23c-1.3-5.31-1.72-7.7-2-9h0c-.65,2.86-1.17,5-2.26,9-.06.18-.13.23-.29.23H7131c-.26,0-.31-.05-.36-.23l-3.38-12.46c-.06-.13,0-.23.2-.23h3.31c.15,0,.2.05.23.18,1.38,5.62,1.74,8.11,1.92,9.2h.06c.2-.93.62-3.38,2.13-9.15,0-.15.05-.23.23-.23h3.44c.13,0,.18.05.2.18,1.38,5.75,1.74,8.27,1.93,9.31h.05c.36-1.69.75-4.5,2-9.31a.22.22,0,0,1,.24-.18h3c.1,0,.21.08.15.21l-3.71,12.48c-.06.18-.08.23-.32.23Z" transform="translate(-7070.43 7292)"/><path class="cls-1" d="M7157.3-7173.06l-1.25,3.85a.28.28,0,0,1-.29.21h-3c-.19,0-.24-.1-.21-.26l5.2-15a4.83,4.83,0,0,0,.26-1.59.18.18,0,0,1,.15-.18h4.16c.13,0,.19,0,.21.15l5.9,16.65c.06.13,0,.23-.13.23h-3.38a.26.26,0,0,1-.28-.18l-1.33-3.88Zm5-3.25c-.52-1.71-1.56-4.86-2.05-6.7h0c-.42,1.74-1.35,4.6-2,6.7Z" transform="translate(-7070.43 7292)"/><path class="cls-1" d="M7179.11-7169.36c0,.13,0,.18-.13.2a8,8,0,0,1-2.91.42c-4.21,0-6.87-2.83-6.87-6.66s2.94-6.78,7.36-6.78a7.23,7.23,0,0,1,2.39.28c.13.06.16.13.16.29l0,2.68c0,.18-.1.21-.2.18a6.62,6.62,0,0,0-2.19-.31c-2.18,0-3.77,1.19-3.77,3.53,0,2.71,2,3.59,3.82,3.59a8.6,8.6,0,0,0,2.16-.23c.16-.05.21,0,.21.1Z" transform="translate(-7070.43 7292)"/><path class="cls-1" d="M7184.18-7181.92a.29.29,0,0,1,.31.23,5.14,5.14,0,0,1,.29,1.46,5.41,5.41,0,0,1,4.13-2c.16,0,.21.05.21.21v3.19c0,.13-.05.19-.23.19a5.36,5.36,0,0,0-3.93,1.11l0,8.27c0,.16-.05.21-.23.21h-3.12c-.21,0-.26-.08-.26-.23v-9c0-1.12,0-2.63-.13-3.54,0-.13,0-.18.16-.18Z" transform="translate(-7070.43 7292)"/><path class="cls-1" d="M7203.08-7175.53c0,4.09-2.65,6.79-6.39,6.79-4.45,0-6.43-3.35-6.43-6.71,0-3.69,2.47-6.73,6.48-6.73C7200.92-7182.18,7203.08-7179,7203.08-7175.53Zm-9.15,0c0,2.29,1.07,3.74,2.81,3.74,1.51,0,2.65-1.3,2.65-3.69,0-2-.83-3.72-2.81-3.72C7195.07-7179.17,7193.93-7177.81,7193.93-7175.5Z" transform="translate(-7070.43 7292)"/><path class="cls-1" d="M7208.78-7187.43c.2,0,.26,0,.26.2v5.33a8.39,8.39,0,0,1,2.18-.28,6,6,0,0,1,6.24,6.19c0,4.86-3.85,7.25-7.8,7.25a13.44,13.44,0,0,1-4.08-.6.29.29,0,0,1-.16-.26v-17.65c0-.13.05-.18.18-.18Zm1.79,8.32a5.61,5.61,0,0,0-1.53.2v7.05a3.92,3.92,0,0,0,1,.1,3.58,3.58,0,0,0,3.77-3.9C7213.77-7178,7212.39-7179.11,7210.57-7179.11Z" transform="translate(-7070.43 7292)"/><path class="cls-1" d="M7229.94-7171.89c0,.68,0,1.23.05,1.85,0,.05,0,.1-.05.13a14.44,14.44,0,0,1-5.67,1.17c-2.89,0-5.25-1.33-5.25-4.34,0-2.76,2.42-4.21,5.88-4.21a11.34,11.34,0,0,1,1.53.05v-.18c0-.5-.31-1.64-2.5-1.64a8.36,8.36,0,0,0-3.43.7.15.15,0,0,1-.23-.13v-2.63a.23.23,0,0,1,.18-.26,9.87,9.87,0,0,1,4.08-.8c3.75,0,5.41,2.31,5.41,5.28Zm-3.51-2.67a8.55,8.55,0,0,0-1.3-.08c-1.85,0-2.6.6-2.6,1.53s.65,1.56,2.29,1.56a5.4,5.4,0,0,0,1.61-.23Z" transform="translate(-7070.43 7292)"/><path class="cls-1" d="M7239.3-7169.44c0,.15,0,.28-.18.34a6.5,6.5,0,0,1-2.32.36c-2.26,0-3.59-1.12-3.59-3.72v-6.45h-1.55c-.16,0-.21-.07-.21-.23v-2.55c0-.18.05-.23.23-.23h1.56a29.5,29.5,0,0,1,.26-3.15.28.28,0,0,1,.24-.23l3-.39c.13,0,.21,0,.21.15-.08.81-.13,2.34-.13,3.62h2.39c.15,0,.21.05.21.21v2.62c0,.13-.06.16-.19.18h-2.44v5.57c0,1.14.34,1.66,1.4,1.66a5.51,5.51,0,0,0,.89-.1c.1,0,.18,0,.18.18Z" transform="translate(-7070.43 7292)"/><path class="cls-1" d="M7247.62-7185.8c0-.15,0-.2.15-.2,1.07,0,3.12-.08,5.1-.08,5.25,0,7.07,2.91,7.07,5.74,0,4.22-3.25,6-7.25,6h-1.48v5.12a.19.19,0,0,1-.21.21h-3.2c-.13,0-.18-.08-.18-.21Zm3.59,8.27c.44,0,.72,0,1.45,0,2.06,0,3.69-.63,3.69-2.76,0-1.64-1.11-2.68-3.38-2.68-.83,0-1.53,0-1.76.06Z" transform="translate(-7070.43 7292)"/><path class="cls-1" d="M7265-7181.92a.29.29,0,0,1,.31.23,5.14,5.14,0,0,1,.29,1.46,5.41,5.41,0,0,1,4.13-2c.16,0,.21.05.21.21v3.19c0,.13,0,.19-.23.19a5.36,5.36,0,0,0-3.93,1.11l0,8.27c0,.16-.05.21-.23.21h-3.12c-.21,0-.26-.08-.26-.23v-9c0-1.12,0-2.63-.13-3.54,0-.13,0-.18.16-.18Z" transform="translate(-7070.43 7292)"/><path class="cls-1" d="M7283.86-7175.53c0,4.09-2.65,6.79-6.39,6.79-4.45,0-6.43-3.35-6.43-6.71,0-3.69,2.47-6.73,6.48-6.73C7281.7-7182.18,7283.86-7179,7283.86-7175.53Zm-9.15,0c0,2.29,1.07,3.74,2.81,3.74,1.51,0,2.65-1.3,2.65-3.69,0-2-.83-3.72-2.81-3.72C7275.85-7179.17,7274.71-7177.81,7274.71-7175.5Z" transform="translate(-7070.43 7292)"/><path class="cls-1" d="M7292.42-7185.8c0-.13,0-.18.18-.2.78,0,2.75-.08,5.07-.08,6.21,0,9.25,3.48,9.25,8.29,0,6.22-4.78,8.84-9.2,8.84-1.72,0-4.32,0-5.15-.05-.1,0-.15-.08-.15-.26Zm3.61,13.68c.52,0,.94.05,1.53.05,3.41,0,5.65-2.05,5.65-5.67s-2.24-5.2-5.57-5.2c-.62,0-1,0-1.61,0Z" transform="translate(-7070.43 7292)"/><path class="cls-1" d="M7321.77-7169.57c0,.18-.05.31-.21.36a11.45,11.45,0,0,1-3.61.47c-5.05,0-9-3-9-8.68,0-5.28,3.64-8.87,9.38-8.87a8.67,8.67,0,0,1,3.38.44.3.3,0,0,1,.19.31v2.84c0,.23-.14.23-.24.18a8.08,8.08,0,0,0-3.38-.57c-3.48,0-5.61,2.16-5.61,5.54,0,4.05,3,5.59,5.69,5.59a9.74,9.74,0,0,0,3.17-.42c.13-.05.21,0,.21.13Z" transform="translate(-7070.43 7292)"/><path class="cls-1" d="M7324.47-7170.92a2.06,2.06,0,0,1,2.16-2.16,2.06,2.06,0,0,1,2.16,2.16,2,2,0,0,1-2.16,2.18A2.05,2.05,0,0,1,7324.47-7170.92Z" transform="translate(-7070.43 7292)"/></g></g></svg>