<svg xmlns="http://www.w3.org/2000/svg" width="456" height="178" viewBox="0 0 456 178"><g transform="translate(-86 -47)"><g transform="translate(86 90.151)"><g transform="translate(0 -9.302)"><path d="M18.334,0H38.279V47.757Z" transform="translate(15.721)" fill="#fff"/><path d="M19.985,0H.021V47.757Z" transform="translate(0.017)" fill="#fff"/><path d="M18.579,9.474,31.288,39.629H22.96l-3.805-9.6h-9.3Z" transform="translate(8.449 8.124)" fill="#fff"/><path d="M6.98,40.521c-.382-1.943-1.065-4.87-1.332-6.759H5.621C5.354,35.6,4.858,38.177,4.4,40.521ZM3.816,43.368,2.938,47.52c-.027.16-.08.187-.214.187H.194c-.16,0-.214-.053-.187-.267L3.492,32.391A5.4,5.4,0,0,0,3.6,30.929a.141.141,0,0,1,.16-.16H7.377c.134,0,.187.053.214.187l4.072,16.526c.027.16-.027.214-.16.214H8.682a.191.191,0,0,1-.214-.187l-.931-4.152Z" transform="translate(-0.001 26.384)" fill="#fff"/><path d="M12.8,37.7a1.5,1.5,0,0,0-.58-.076c-1.473,0-2.576,1.34-2.576,3.969,0,2.786,1.1,3.943,2.549,3.943a2.221,2.221,0,0,0,.607-.08Zm-6.286,4c0-3.836,2.263-6.809,5.866-6.809h.42V30.368c0-.08.05-.134.156-.134h2.824c.107,0,.13.053.13.134v15.14a12.137,12.137,0,0,0,.08,1.763.164.164,0,0,1-.1.183,8.725,8.725,0,0,1-3.817.92C8.754,48.375,6.517,46.207,6.517,41.7Z" transform="translate(5.588 25.927)" fill="#fff"/><path d="M15.556,39.445c0,2.443.527,4.049,1.71,4.049s1.683-1.37,1.683-4.023c0-2.473-.42-4-1.656-4C16.212,35.475,15.556,36.708,15.556,39.445Zm6.488,0c0,4.152-1.737,6.782-4.786,6.782-3.435,0-4.786-3-4.786-6.809,0-3.889,1.737-6.679,4.839-6.679,2.977,0,4.74,2.473,4.74,6.706Z" transform="translate(10.694 28.075)" fill="#fff"/><path d="M22.56,37.677a3.2,3.2,0,0,0-.947.13v7.755a2.126,2.126,0,0,0,.553.053c1.183,0,2.576-1.21,2.6-4.469C24.8,38.593,23.77,37.677,22.56,37.677Zm-1.076-7.442c.1,0,.13.053.13.16v4.652a6.366,6.366,0,0,1,1.42-.16c2.733,0,4.813,2.1,4.813,6.179,0,4.759-2.71,7.309-6.107,7.309a10.007,10.007,0,0,1-3.053-.473.233.233,0,0,1-.156-.21v-17.3a.141.141,0,0,1,.156-.16Z" transform="translate(15.887 25.927)" fill="#fff"/><path d="M29.48,37.74a4.2,4.2,0,0,0,.786-.027,1.145,1.145,0,0,0,.027-.29c0-1-.313-2.05-1.393-2.05s-1.473,1.08-1.6,2.366Zm-2.237,2.473c0,2.023.763,3.259,2.893,3.259a5.343,5.343,0,0,0,2-.382c.134-.053.214-.053.214.134V45.4c0,.187-.053.29-.187.343a5.755,5.755,0,0,1-2.6.473c-3.862,0-5.362-2.84-5.362-6.545,0-3.943,1.737-6.942,4.813-6.942,3.233,0,4.179,2.866,4.179,5.206a14.121,14.121,0,0,1-.134,1.973c-.023.13-.1.183-.237.21-.26.027-1.076.08-2.5.08Z" transform="translate(20.746 28.07)" fill="#fff"/></g><rect width="54" height="25" fill="none" opacity="0.749"/><rect width="25" height="65" transform="translate(29)" fill="none" opacity="0.749"/></g><g transform="translate(209 125)"><rect width="94" height="36" rx="18" transform="translate(0 24)" fill="#fff"/><path d="M18,2A16,16,0,0,0,6.686,29.314,15.9,15.9,0,0,0,18,34H76A16,16,0,0,0,87.314,6.686,15.9,15.9,0,0,0,76,2H18m0-2H76a18,18,0,0,1,0,36H18A18,18,0,0,1,18,0Z" transform="translate(0 24)" fill="#fff"/><text transform="translate(47 46.353)" fill="#fff" font-size="14" font-family="AdobeClean-Bold, Adobe Clean" font-weight="700"><tspan x="-28.651" y="0">Save 30%</tspan></text><rect width="124" height="24" fill="none" opacity="0.749"/><rect width="124" height="40" transform="translate(0 60)" fill="none" opacity="0.749"/><rect width="30" height="100" transform="translate(94)" fill="none" opacity="0.749"/></g><text transform="translate(211 47)" fill="#fff" font-size="30" font-family="AdobeClean-ExtraBold, Adobe Clean" font-weight="800"><tspan x="0" y="30">Comment. Edit. E-sign. </tspan><tspan x="0" y="60">Renew Acrobat Pro DC.</tspan></text></g></svg>