<svg id="Layer_1" data-name="Layer 1" xmlns="http://www.w3.org/2000/svg" viewBox="0 0 423.1 169.27"><defs><style>.cls-1{fill:#fff;}.cls-2{fill:none;}.cls-3{isolation:isolate;}</style></defs><path class="cls-1" d="M7022.05-7257.69H7042v47.76Z" transform="translate(-6988 7282.8)"/><path class="cls-1" d="M7008-7257.69h-20v47.76Z" transform="translate(-6988 7282.8)"/><path class="cls-1" d="M7015-7240.09l12.71,30.16h-8.33l-3.81-9.6h-9.3Z" transform="translate(-6988 7282.8)"/><path class="cls-1" d="M6995-7190.78c-.38-1.94-1.07-4.87-1.33-6.76h0c-.27,1.84-.76,4.41-1.22,6.76Zm-3.17,2.85-.87,4.15c0,.16-.08.18-.22.18h-2.53c-.16,0-.21,0-.19-.26l3.49-15.05a5.5,5.5,0,0,0,.11-1.46.14.14,0,0,1,.12-.16s0,0,0,0h3.61c.14,0,.19.05.22.18l4.07,16.53c0,.16,0,.21-.16.21h-2.82a.18.18,0,0,1-.21-.16v0l-.94-4.16Z" transform="translate(-6988 7282.8)"/><path class="cls-1" d="M7006.39-7194.06a1.66,1.66,0,0,0-.58-.08c-1.48,0-2.58,1.34-2.58,4,0,2.79,1.1,3.95,2.55,3.95a2.55,2.55,0,0,0,.61-.08Zm-6.29,4c0-3.84,2.26-6.81,5.87-6.81h.42v-4.52a.13.13,0,0,1,.15-.14h2.83c.1,0,.13.06.13.14v15.14a11.47,11.47,0,0,0,.08,1.76.16.16,0,0,1-.1.18,8.6,8.6,0,0,1-3.82.92c-3.32,0-5.56-2.16-5.56-6.67Z" transform="translate(-6988 7282.8)"/><path class="cls-1" d="M7014.25-7190.17c0,2.45.53,4.05,1.71,4.05s1.68-1.37,1.68-4c0-2.47-.42-4-1.65-4S7014.25-7192.9,7014.25-7190.17Zm6.49,0c0,4.16-1.74,6.79-4.79,6.79-3.43,0-4.79-3-4.79-6.81s1.74-6.68,4.84-6.68,4.74,2.47,4.74,6.7Z" transform="translate(-6988 7282.8)"/><path class="cls-1" d="M7026.45-7194.08a3.07,3.07,0,0,0-.95.13v7.75a2.57,2.57,0,0,0,.55.06c1.18,0,2.58-1.21,2.6-4.47C7028.69-7193.17,7027.66-7194.08,7026.45-7194.08Zm-1.08-7.44c.1,0,.13.05.13.16v4.65a6.18,6.18,0,0,1,1.42-.16c2.73,0,4.81,2.1,4.81,6.18,0,4.76-2.71,7.31-6.1,7.31a9.93,9.93,0,0,1-3.06-.48.22.22,0,0,1-.15-.21v-17.3a.14.14,0,0,1,.12-.16h2.83Z" transform="translate(-6988 7282.8)"/><path class="cls-1" d="M7038.22-7191.88a4.15,4.15,0,0,0,.79,0,1.5,1.5,0,0,0,0-.29c0-1-.32-2.05-1.4-2.05s-1.47,1.08-1.6,2.36Zm-2.23,2.48c0,2,.76,3.26,2.89,3.26a5.28,5.28,0,0,0,2-.39c.13-.05.21-.05.21.14v2.17c0,.19-.05.29-.18.35a5.81,5.81,0,0,1-2.6.47c-3.86,0-5.36-2.84-5.36-6.55,0-3.94,1.73-6.94,4.81-6.94s4.18,2.87,4.18,5.21a14.39,14.39,0,0,1-.14,2c0,.13-.1.18-.23.21s-1.08.08-2.5.08Z" transform="translate(-6988 7282.8)"/><rect class="cls-2" y="34.42" width="54" height="25"/><rect class="cls-2" x="29" y="34.42" width="25" height="65"/><path class="cls-1" d="M7178.64-7173.61c0-.93-.36-1.44-1-1.44s-1,.46-1,1.44c0,.8.35,1.44,1,1.44S7178.64-7172.69,7178.64-7173.61Z" transform="translate(-6988 7282.8)"/><path class="cls-1" d="M7171-7174.76c-.89,0-1.54.94-1.54,3.08s.52,3.18,1.59,3.18,1.52-1.11,1.52-3.15S7172-7174.76,7171-7174.76Z" transform="translate(-6988 7282.8)"/><path class="cls-1" d="M7138.53-7169.34c0,.52.37,1,1.38,1a2.49,2.49,0,0,0,1-.17v-1.72a5.3,5.3,0,0,0-.77-.05C7139-7170.31,7138.53-7169.94,7138.53-7169.34Z" transform="translate(-6988 7282.8)"/><path class="cls-1" d="M7153.64-7172.88a1.52,1.52,0,0,0-1.51,1.42H7155v-.11A1.29,1.29,0,0,0,7153.64-7172.88Z" transform="translate(-6988 7282.8)"/><path class="cls-1" d="M7183.85-7171.06c-.58,0-1,.47-1,1.44,0,.81.35,1.43,1,1.43s1-.49,1-1.43S7184.48-7171.06,7183.85-7171.06Z" transform="translate(-6988 7282.8)"/><path class="cls-1" d="M7187-7189.54h-58a18,18,0,0,0-18,18,18,18,0,0,0,18,18h58a18,18,0,0,0,18-18A18,18,0,0,0,7187-7189.54Zm-54.6,22.5a5.29,5.29,0,0,1-2.45-.51c-.07,0-.1-.09-.1-.21v-1.45a.07.07,0,0,1,.11-.06,4.76,4.76,0,0,0,2.5.73c1.15,0,1.64-.45,1.64-1.05s-.34-.91-1.4-1.36l-.68-.28c-1.72-.73-2.17-1.6-2.17-2.65,0-1.5,1.14-2.65,3.25-2.65a5.16,5.16,0,0,1,2.15.37c.06,0,.08.08.08.18v1.36c0,.06,0,.11-.13.06a4.33,4.33,0,0,0-2.11-.47c-1.21,0-1.59.51-1.59,1s.33.85,1.43,1.32l.54.22c1.82.76,2.34,1.64,2.34,2.74C7135.81-7168.11,7134.52-7167,7132.4-7167Zm10.14-.63a6.82,6.82,0,0,1-2.92.63c-1.52,0-2.74-.72-2.74-2.3s1.33-2.23,3.15-2.23c.42,0,.74,0,.87,0v-.17c0-.32-.18-1.05-1.42-1.05a4.18,4.18,0,0,0-1.83.39.08.08,0,0,1-.11-.08v-1.22a.13.13,0,0,1,.08-.14,5.19,5.19,0,0,1,2.13-.42,2.54,2.54,0,0,1,2.79,2.77v2.85a8.43,8.43,0,0,0,0,.88S7142.57-7167.69,7142.54-7167.67Zm4.95.39a.14.14,0,0,1-.15.1h-1.61a.14.14,0,0,1-.14-.09c-.46-1.34-1.82-5.32-2.31-6.72,0-.05,0-.1.08-.1h1.6a.1.1,0,0,1,.12.09c1,3.27,1.38,4.62,1.52,5.23h0c.16-.61.58-1.94,1.64-5.23a.11.11,0,0,1,.12-.09h1.41a.07.07,0,0,1,.07.11C7149.33-7172.51,7148-7168.58,7147.49-7167.28Zm9-3.12s0,.08-.11.09a9.14,9.14,0,0,1-1.44.06h-2.84c0,1,.68,1.77,2.11,1.77a4.5,4.5,0,0,0,1.74-.34s.08,0,.08,0v1.17a.15.15,0,0,1-.08.15,4.67,4.67,0,0,1-2.1.41,3.24,3.24,0,0,1-3.46-3.52c0-1.95,1.17-3.67,3.29-3.67a2.79,2.79,0,0,1,2.87,3A3.73,3.73,0,0,1,7156.52-7170.4Zm6.61,3.36a5,5,0,0,1-2.32-.46c-.08,0-.09-.12-.09-.19v-1.38c0-.06.07-.09.13-.06a4.48,4.48,0,0,0,2.22.59c1.31,0,1.83-.56,1.83-1.28s-.62-1.24-1.83-1.24h-.81c-.07,0-.1,0-.1-.1v-1.28c0-.08,0-.12.09-.12h.7c1,0,1.61-.34,1.61-1s-.52-1.09-1.58-1.09a4,4,0,0,0-2,.53c-.08,0-.1,0-.1-.05v-1.29c0-.07,0-.1.07-.14a5,5,0,0,1,2.37-.55c1.81,0,2.91.95,2.91,2.37a2,2,0,0,1-1.27,1.86,2.21,2.21,0,0,1,1.69,2.19C7166.63-7168,7165.05-7167,7163.13-7167Zm7.9,0c-2.31,0-3.28-2-3.28-4.6s1.16-4.55,3.26-4.55c2.58,0,3.22,2.42,3.22,4.55C7174.23-7169.28,7173.38-7167,7171-7167Zm4.31-6.53a2.37,2.37,0,0,1,2.31-2.62c1.55,0,2.28,1.09,2.28,2.58a2.35,2.35,0,0,1-2.3,2.57A2.23,2.23,0,0,1,7175.34-7173.57Zm2.77,6.39h-1.06c-.06,0-.1-.06-.05-.13l6.17-8.65a.16.16,0,0,1,.15-.09h1.08c.07,0,.06.06,0,.1l-6.12,8.68C7178.25-7167.18,7178.22-7167.18,7178.11-7167.18Zm5.73.14a2.27,2.27,0,0,1-2.31-2.55,2.37,2.37,0,0,1,2.31-2.61c1.55,0,2.3,1.11,2.3,2.58A2.37,2.37,0,0,1,7183.84-7167Z" transform="translate(-6988 7282.8)"/><rect class="cls-2" x="123" y="69.27" width="124" height="24"/><rect class="cls-2" x="123" y="129.27" width="124" height="40"/><rect class="cls-2" x="217" y="69.27" width="30" height="100"/><g class="cls-3"><g class="cls-3"><path class="cls-1" d="M7128.81-7262.2c0,.21-.06.37-.24.42a13.14,13.14,0,0,1-4.17.54c-5.82,0-10.35-3.44-10.35-10,0-6.09,4.2-10.23,10.83-10.23a10,10,0,0,1,3.9.51.34.34,0,0,1,.21.36v3.27c0,.27-.15.27-.27.21a9.39,9.39,0,0,0-3.9-.66c-4,0-6.48,2.49-6.48,6.39,0,4.68,3.42,6.44,6.57,6.44a11.46,11.46,0,0,0,3.66-.47c.15-.07.24,0,.24.14Z" transform="translate(-6988 7282.8)"/><path class="cls-1" d="M7145.28-7269.06c0,4.7-3.06,7.82-7.38,7.82-5.13,0-7.41-3.87-7.41-7.73,0-4.26,2.85-7.77,7.47-7.77C7142.79-7276.74,7145.28-7273.11,7145.28-7269.06Zm-10.56,0c0,2.65,1.23,4.33,3.24,4.33,1.74,0,3.06-1.5,3.06-4.26,0-2.34-1-4.29-3.24-4.29C7136-7273.26,7134.72-7271.71,7134.72-7269Z" transform="translate(-6988 7282.8)"/><path class="cls-1" d="M7148.25-7261.54c-.21,0-.27-.08-.27-.26v-11.41c0-1.1-.09-2.39-.12-3,0-.18.06-.27.24-.27h3.18a.43.43,0,0,1,.36.18,4.24,4.24,0,0,1,.18,1.11,6.5,6.5,0,0,1,4.32-1.59,4.26,4.26,0,0,1,3.84,1.92,7.31,7.31,0,0,1,4.86-1.92c2.61,0,5.13,1.41,5.13,5.94v9c0,.18-.09.26-.27.26h-3.6c-.21,0-.3-.08-.3-.26v-8.58c0-1.56-.54-2.76-2.28-2.76a4,4,0,0,0-2.55,1,12.73,12.73,0,0,1,.09,1.68v8.7c0,.14-.06.26-.24.26h-3.63c-.18,0-.3-.05-.3-.26v-8.7c0-1.8-.84-2.61-2.28-2.61a4.07,4.07,0,0,0-2.46.84v10.49c0,.16-.06.24-.27.24Z" transform="translate(-6988 7282.8)"/><path class="cls-1" d="M7173.75-7261.54c-.21,0-.27-.08-.27-.26v-11.41c0-1.1-.09-2.39-.12-3,0-.18.06-.27.24-.27h3.18a.43.43,0,0,1,.36.18,4.24,4.24,0,0,1,.18,1.11,6.5,6.5,0,0,1,4.32-1.59,4.26,4.26,0,0,1,3.84,1.92,7.31,7.31,0,0,1,4.86-1.92c2.61,0,5.13,1.41,5.13,5.94v9c0,.18-.09.26-.27.26h-3.6c-.21,0-.3-.08-.3-.26v-8.58c0-1.56-.54-2.76-2.28-2.76a4,4,0,0,0-2.55,1,12.73,12.73,0,0,1,.09,1.68v8.7c0,.14-.06.26-.24.26h-3.63c-.18,0-.3-.05-.3-.26v-8.7c0-1.8-.84-2.61-2.28-2.61a4.07,4.07,0,0,0-2.46.84v10.49c0,.16-.06.24-.27.24Z" transform="translate(-6988 7282.8)"/><path class="cls-1" d="M7202.43-7267.89c.15,1.71,1.35,3.11,4.29,3.11a9.47,9.47,0,0,0,3.69-.68c.09-.07.18,0,.18.14v2.86c0,.21-.06.29-.21.35a10.07,10.07,0,0,1-4.59.87c-5.64,0-7.62-3.87-7.62-7.59,0-4.13,2.55-7.91,7.26-7.91,4.53,0,6.33,3.51,6.33,6.48a9.62,9.62,0,0,1-.15,2,.26.26,0,0,1-.24.24,30.77,30.77,0,0,1-3.09.12Zm3.9-2.91a7.86,7.86,0,0,0,1.5-.07v-.21a2.44,2.44,0,0,0-2.55-2.36,2.83,2.83,0,0,0-2.88,2.64Z" transform="translate(-6988 7282.8)"/><path class="cls-1" d="M7214.43-7273c0-1-.06-2.58-.12-3.24,0-.15,0-.24.21-.24h3.15a.35.35,0,0,1,.39.24,3.68,3.68,0,0,1,.24,1,6.57,6.57,0,0,1,4.26-1.53c2.31,0,5,1.2,5,6v8.91c0,.18-.06.26-.27.26h-3.6c-.21,0-.3-.08-.3-.26v-8.55c0-1.8-.78-2.76-2.34-2.76a3.63,3.63,0,0,0-2.49.93v10.4q0,.24-.27.24h-3.63c-.21,0-.27-.08-.27-.26Z" transform="translate(-6988 7282.8)"/><path class="cls-1" d="M7238.55-7262c0,.17,0,.33-.21.38a7.45,7.45,0,0,1-2.67.42c-2.61,0-4.14-1.29-4.14-4.29V-7273h-1.8c-.18,0-.24-.09-.24-.27v-2.94c0-.21.06-.27.27-.27h1.8a32.88,32.88,0,0,1,.3-3.63.32.32,0,0,1,.27-.27l3.51-.45c.15,0,.24,0,.24.18-.09.93-.15,2.7-.15,4.17h2.76c.18,0,.24.06.24.24v3c0,.15-.06.17-.21.21h-2.82v6.42c0,1.32.39,1.92,1.62,1.92a5.09,5.09,0,0,0,1-.13c.12,0,.21,0,.21.21Z" transform="translate(-6988 7282.8)"/><path class="cls-1" d="M7241.13-7263.75a2.39,2.39,0,0,1,2.49-2.5,2.38,2.38,0,0,1,2.49,2.5,2.32,2.32,0,0,1-2.49,2.51A2.37,2.37,0,0,1,7241.13-7263.75Z" transform="translate(-6988 7282.8)"/><path class="cls-1" d="M7268.73-7261.8c0,.23-.09.26-.3.26h-12.21c-.18,0-.24-.08-.24-.26v-19.11c0-.18.06-.27.24-.27h11.85c.24,0,.3,0,.33.24l.33,3.24c0,.15,0,.27-.21.27h-8.37v4h7.65c.15,0,.24.07.24.25v3.29c0,.18-.12.21-.24.21h-7.65v4.38H7269c.24,0,.27.09.24.28Z" transform="translate(-6988 7282.8)"/><path class="cls-1" d="M7270.59-7268.85c0-4.29,3.21-7.89,8.7-7.89.24,0,.54,0,1,.06v-5.91a.19.19,0,0,1,.21-.21h3.78c.15,0,.18.06.18.18v17.73a16.76,16.76,0,0,0,.12,2.18c0,.16,0,.21-.21.27a15.07,15.07,0,0,1-5.91,1.2C7274-7261.24,7270.59-7263.75,7270.59-7268.85Zm9.69-4.26a3.11,3.11,0,0,0-1.11-.15,4,4,0,0,0-4.29,4.2c0,3,1.71,4.26,4,4.26a4,4,0,0,0,1.41-.19Z" transform="translate(-6988 7282.8)"/><path class="cls-1" d="M7287.72-7280.37a2.25,2.25,0,0,1,2.34-2.31,2.17,2.17,0,0,1,2.31,2.31A2.2,2.2,0,0,1,7290-7278,2.18,2.18,0,0,1,7287.72-7280.37Zm.21,4.17c0-.15.06-.24.24-.24h3.69c.18,0,.24.06.24.24v14.4c0,.18,0,.26-.27.26h-3.6c-.21,0-.3-.08-.3-.26Z" transform="translate(-6988 7282.8)"/><path class="cls-1" d="M7303.38-7262c0,.17,0,.33-.21.38a7.45,7.45,0,0,1-2.67.42c-2.61,0-4.14-1.29-4.14-4.29V-7273h-1.8c-.18,0-.24-.09-.24-.27v-2.94c0-.21.06-.27.27-.27h1.8a32.88,32.88,0,0,1,.3-3.63.32.32,0,0,1,.27-.27l3.51-.45c.15,0,.24,0,.24.18-.09.93-.15,2.7-.15,4.17h2.76c.18,0,.24.06.24.24v3c0,.15-.06.17-.21.21h-2.82v6.42c0,1.32.39,1.92,1.62,1.92a5.09,5.09,0,0,0,1-.13c.12,0,.21,0,.21.21Z" transform="translate(-6988 7282.8)"/><path class="cls-1" d="M7306-7263.75a2.38,2.38,0,0,1,2.49-2.5,2.37,2.37,0,0,1,2.48,2.5,2.31,2.31,0,0,1-2.48,2.51A2.36,2.36,0,0,1,7306-7263.75Z" transform="translate(-6988 7282.8)"/><path class="cls-1" d="M7333.55-7261.8c0,.23-.09.26-.3.26H7321c-.17,0-.24-.08-.24-.26v-19.11c0-.18.07-.27.24-.27h11.85c.24,0,.3,0,.33.24l.33,3.24c0,.15,0,.27-.21.27H7325v4h7.65c.15,0,.24.07.24.25v3.29c0,.18-.12.21-.24.21H7325v4.38h8.85c.24,0,.27.09.24.28Z" transform="translate(-6988 7282.8)"/><path class="cls-1" d="M7336.07-7267.47c-.15,0-.21-.09-.21-.24v-3.16a.19.19,0,0,1,.21-.21h7.23c.12,0,.18,0,.18.21v3.19c0,.18-.06.21-.15.21Z" transform="translate(-6988 7282.8)"/><path class="cls-1" d="M7351.49-7273.42c-1.41,0-1.86.52-1.86,1s.39.89,2.13,1.56c3.63,1.32,4.77,2.73,4.77,4.86,0,2.85-2.22,4.73-6.18,4.73a9.7,9.7,0,0,1-4.35-.84.34.34,0,0,1-.21-.33v-3.23c0-.19.12-.28.24-.19a8.53,8.53,0,0,0,4.41,1.21c1.41,0,2-.39,2-1s-.51-1-2.28-1.65c-3.39-1.26-4.5-2.71-4.5-4.86,0-2.34,1.89-4.59,5.85-4.59a9.93,9.93,0,0,1,3.9.6.38.38,0,0,1,.21.39v3c0,.18-.12.29-.3.21A9.19,9.19,0,0,0,7351.49-7273.42Z" transform="translate(-6988 7282.8)"/><path class="cls-1" d="M7358.84-7280.37a2.25,2.25,0,0,1,2.34-2.31,2.17,2.17,0,0,1,2.31,2.31,2.2,2.2,0,0,1-2.34,2.34A2.18,2.18,0,0,1,7358.84-7280.37Zm.21,4.17c0-.15.06-.24.24-.24H7363c.18,0,.24.06.24.24v14.4c0,.18,0,.26-.27.26h-3.6c-.21,0-.3-.08-.3-.26Z" transform="translate(-6988 7282.8)"/><path class="cls-1" d="M7374.44-7265c4.29.21,5.88,1.94,5.88,4.31,0,3.12-3.06,5.64-7.89,5.64-5,0-7.2-2.48-7.2-4.65,0-1,.78-2.16,2.76-3.8a3.79,3.79,0,0,1-.63-2.25,4.21,4.21,0,0,1,.54-2,4.29,4.29,0,0,1-2.07-3.87c0-2.87,2.25-5.12,6.15-5.12a17.44,17.44,0,0,1,2.85.24,3.17,3.17,0,0,0,.72.06h4.11c.15,0,.21.06.21.21v2.79c0,.15-.06.21-.21.21-.45,0-1.44-.09-2.07-.15a3.88,3.88,0,0,1,.45,1.95c0,3.18-2.61,4.76-5.94,4.76-.33,0-.69,0-1-.05a1.44,1.44,0,0,0-.06.8,1.66,1.66,0,0,0,.33.79Zm-4.26,3.35a3,3,0,0,0-1.14,1.59c0,.94,1.32,1.95,3.66,1.95,2.67,0,3.81-.92,3.81-1.92s-1.32-1.41-3-1.5Zm-.3-10a2,2,0,0,0,2.13,2,1.83,1.83,0,0,0,2.07-1.95,1.92,1.92,0,0,0-2.1-2.17A1.92,1.92,0,0,0,7369.88-7271.67Z" transform="translate(-6988 7282.8)"/><path class="cls-1" d="M7382.18-7273c0-1-.06-2.58-.12-3.24,0-.15,0-.24.21-.24h3.15a.35.35,0,0,1,.39.24,3.68,3.68,0,0,1,.24,1,6.57,6.57,0,0,1,4.26-1.53c2.31,0,5,1.2,5,6v8.91c0,.18-.06.26-.27.26h-3.6c-.21,0-.3-.08-.3-.26v-8.55c0-1.8-.78-2.76-2.34-2.76a3.63,3.63,0,0,0-2.49.93v10.4q0,.24-.27.24h-3.63c-.21,0-.27-.08-.27-.26Z" transform="translate(-6988 7282.8)"/><path class="cls-1" d="M7398.17-7263.75a2.39,2.39,0,0,1,2.49-2.5,2.38,2.38,0,0,1,2.49,2.5,2.32,2.32,0,0,1-2.49,2.51A2.37,2.37,0,0,1,7398.17-7263.75Z" transform="translate(-6988 7282.8)"/></g><g class="cls-3"><path class="cls-1" d="M7115.4-7231.54c-.18,0-.24-.05-.24-.26v-19.05c0-.15,0-.3.21-.3,2.7-.06,3.84-.09,6.27-.09,5,0,7.77,2.13,7.77,6a5.64,5.64,0,0,1-3.75,5.28c1,1.34,4.38,6.45,5.31,8.06.09.19.12.36-.09.36h-4.35c-.27,0-.36-.05-.42-.17-.87-1.33-2.76-4.54-4-6.58-.21-.35-.36-.5-.69-.5h-2.19v7a.22.22,0,0,1-.24.24Zm6.15-10.79c2.25,0,3.69-.9,3.69-2.67s-1.5-2.61-3.72-2.61c-1,0-1.83,0-2.28.06v5.22Z" transform="translate(-6988 7282.8)"/><path class="cls-1" d="M7135.65-7237.89c.15,1.71,1.35,3.11,4.29,3.11a9.47,9.47,0,0,0,3.69-.68c.09-.07.18,0,.18.14v2.86c0,.21-.06.29-.21.35a10.07,10.07,0,0,1-4.59.87c-5.64,0-7.62-3.87-7.62-7.59,0-4.13,2.55-7.91,7.26-7.91,4.53,0,6.33,3.51,6.33,6.48a9.62,9.62,0,0,1-.15,2,.26.26,0,0,1-.24.24,30.77,30.77,0,0,1-3.09.12Zm3.9-2.91a7.86,7.86,0,0,0,1.5-.07v-.21a2.44,2.44,0,0,0-2.55-2.36,2.83,2.83,0,0,0-2.88,2.64Z" transform="translate(-6988 7282.8)"/><path class="cls-1" d="M7147.65-7243c0-1-.06-2.58-.12-3.24,0-.15,0-.24.21-.24h3.15a.35.35,0,0,1,.39.24,3.68,3.68,0,0,1,.24,1,6.57,6.57,0,0,1,4.26-1.53c2.31,0,5,1.2,5,6v8.91c0,.18-.06.26-.27.26H7157c-.21,0-.3-.08-.3-.26v-8.55c0-1.8-.78-2.76-2.34-2.76a3.63,3.63,0,0,0-2.49.93v10.4q0,.24-.27.24h-3.63c-.21,0-.27-.08-.27-.26Z" transform="translate(-6988 7282.8)"/><path class="cls-1" d="M7167.78-7237.89c.15,1.71,1.35,3.11,4.29,3.11a9.47,9.47,0,0,0,3.69-.68c.09-.07.18,0,.18.14v2.86c0,.21-.06.29-.21.35a10.07,10.07,0,0,1-4.59.87c-5.64,0-7.62-3.87-7.62-7.59,0-4.13,2.55-7.91,7.26-7.91,4.53,0,6.33,3.51,6.33,6.48a9.62,9.62,0,0,1-.15,2,.26.26,0,0,1-.24.24,30.77,30.77,0,0,1-3.09.12Zm3.9-2.91a7.86,7.86,0,0,0,1.5-.07v-.21a2.44,2.44,0,0,0-2.55-2.36,2.83,2.83,0,0,0-2.88,2.64Z" transform="translate(-6988 7282.8)"/><path class="cls-1" d="M7192.26-7231.54a.31.31,0,0,1-.36-.26c-1.5-6.12-2-8.88-2.28-10.35h0c-.75,3.3-1.35,5.78-2.61,10.35-.06.21-.15.26-.33.26h-3.75c-.3,0-.36-.05-.42-.26l-3.9-14.37c-.06-.15,0-.27.24-.27h3.81c.18,0,.24.06.27.21,1.59,6.48,2,9.35,2.22,10.61h.06c.24-1.08.72-3.89,2.46-10.55,0-.18.06-.27.27-.27h4c.15,0,.21.06.24.21,1.59,6.63,2,9.53,2.22,10.73h.06c.42-1.95.87-5.18,2.31-10.73a.24.24,0,0,1,.27-.21h3.51c.12,0,.24.09.18.24l-4.29,14.4c-.06.21-.09.26-.36.26Z" transform="translate(-6988 7282.8)"/><path class="cls-1" d="M7213.23-7236.21l-1.44,4.43a.32.32,0,0,1-.33.24H7208c-.21,0-.27-.12-.24-.29l6-17.31a5.45,5.45,0,0,0,.3-1.83.2.2,0,0,1,.18-.21h4.8c.15,0,.21,0,.24.18l6.81,19.2c.06.14,0,.26-.15.26H7222a.29.29,0,0,1-.33-.21l-1.53-4.46Zm5.82-3.75c-.6-2-1.8-5.61-2.37-7.74h0c-.48,2-1.56,5.31-2.34,7.74Z" transform="translate(-6988 7282.8)"/><path class="cls-1" d="M7238.4-7232c0,.16,0,.21-.15.25a9.53,9.53,0,0,1-3.36.47c-4.86,0-7.92-3.26-7.92-7.68s3.39-7.82,8.49-7.82a8.17,8.17,0,0,1,2.76.33c.15.06.18.15.18.33l0,3.08c0,.21-.12.25-.24.21a7.53,7.53,0,0,0-2.52-.35c-2.52,0-4.35,1.38-4.35,4.08,0,3.11,2.31,4.14,4.41,4.14a9.35,9.35,0,0,0,2.49-.28c.18-.05.24,0,.24.12Z" transform="translate(-6988 7282.8)"/><path class="cls-1" d="M7244.25-7246.44a.33.33,0,0,1,.36.27,5.72,5.72,0,0,1,.33,1.68,6.23,6.23,0,0,1,4.77-2.25c.18,0,.24.06.24.24v3.69c0,.14-.06.21-.27.21-2.16-.09-3.9.56-4.53,1.29l0,9.53c0,.19-.06.24-.27.24h-3.6c-.24,0-.3-.08-.3-.26v-10.35c0-1.29,0-3-.15-4.08,0-.15,0-.21.18-.21Z" transform="translate(-6988 7282.8)"/><path class="cls-1" d="M7266.06-7239.06c0,4.7-3.06,7.82-7.38,7.82-5.13,0-7.41-3.87-7.41-7.73,0-4.26,2.85-7.77,7.47-7.77C7263.57-7246.74,7266.06-7243.11,7266.06-7239.06Zm-10.56,0c0,2.65,1.23,4.33,3.24,4.33,1.74,0,3.06-1.5,3.06-4.26,0-2.34-1-4.29-3.24-4.29C7256.82-7243.26,7255.5-7241.71,7255.5-7239Z" transform="translate(-6988 7282.8)"/><path class="cls-1" d="M7272.63-7252.8c.24,0,.3,0,.3.24v6.15a9.66,9.66,0,0,1,2.52-.33,6.87,6.87,0,0,1,7.2,7.14c0,5.6-4.44,8.36-9,8.36a16,16,0,0,1-4.71-.68.38.38,0,0,1-.18-.31v-20.36c0-.15.06-.21.21-.21Zm2.07,9.59a6,6,0,0,0-1.77.25v8.13a5.24,5.24,0,0,0,1.11.12,4.13,4.13,0,0,0,4.35-4.5C7278.39-7241.94,7276.8-7243.21,7274.7-7243.21Z" transform="translate(-6988 7282.8)"/><path class="cls-1" d="M7297-7234.87a21,21,0,0,0,.07,2.13c0,.07,0,.12-.07.16a16.63,16.63,0,0,1-6.53,1.34c-3.33,0-6.06-1.52-6.06-5,0-3.17,2.79-4.85,6.78-4.85a12.68,12.68,0,0,1,1.77.06v-.21c0-.58-.36-1.89-2.88-1.89a9.61,9.61,0,0,0-4,.81.18.18,0,0,1-.27-.15v-3a.26.26,0,0,1,.21-.3,11.25,11.25,0,0,1,4.71-.93c4.31,0,6.23,2.67,6.23,6.09Zm-4-3.09a13.32,13.32,0,0,0-1.5-.08c-2.13,0-3,.69-3,1.76s.75,1.81,2.64,1.81a6.05,6.05,0,0,0,1.86-.28Z" transform="translate(-6988 7282.8)"/><path class="cls-1" d="M7307.84-7232c0,.17,0,.33-.21.38a7.41,7.41,0,0,1-2.67.42c-2.6,0-4.13-1.29-4.13-4.29V-7243H7299c-.18,0-.24-.09-.24-.27v-2.94c0-.21.06-.27.27-.27h1.8a32.88,32.88,0,0,1,.3-3.63.32.32,0,0,1,.27-.27l3.51-.45c.14,0,.23,0,.23.18-.09.93-.14,2.7-.14,4.17h2.76c.17,0,.24.06.24.24v3c0,.15-.07.17-.21.21H7305v6.42c0,1.32.38,1.92,1.62,1.92a5,5,0,0,0,1-.13c.12,0,.21,0,.21.21Z" transform="translate(-6988 7282.8)"/><path class="cls-1" d="M7317.44-7250.91c0-.18,0-.24.18-.24,1.23,0,3.6-.09,5.88-.09,6.06,0,8.16,3.36,8.16,6.63,0,4.86-3.75,6.93-8.37,6.93h-1.71v5.9c0,.16-.06.24-.24.24h-3.69c-.15,0-.21-.08-.21-.24Zm4.14,9.53c.51,0,.84,0,1.68,0,2.37,0,4.26-.72,4.26-3.18,0-1.89-1.29-3.09-3.9-3.09-1,0-1.77,0-2,.06Z" transform="translate(-6988 7282.8)"/><path class="cls-1" d="M7337.46-7246.44a.33.33,0,0,1,.35.27,5.72,5.72,0,0,1,.33,1.68,6.23,6.23,0,0,1,4.77-2.25c.18,0,.24.06.24.24v3.69c0,.14-.06.21-.27.21-2.16-.09-3.9.56-4.53,1.29l0,9.53c0,.19-.06.24-.27.24h-3.59c-.25,0-.31-.08-.31-.26v-10.35c0-1.29,0-3-.15-4.08,0-.15,0-.21.18-.21Z" transform="translate(-6988 7282.8)"/><path class="cls-1" d="M7359.26-7239.06c0,4.7-3.06,7.82-7.38,7.82-5.13,0-7.41-3.87-7.41-7.73,0-4.26,2.85-7.77,7.47-7.77C7356.77-7246.74,7359.26-7243.11,7359.26-7239.06Zm-10.56,0c0,2.65,1.23,4.33,3.24,4.33,1.74,0,3.06-1.5,3.06-4.26,0-2.34-1-4.29-3.24-4.29C7350-7243.26,7348.7-7241.71,7348.7-7239Z" transform="translate(-6988 7282.8)"/><path class="cls-1" d="M7369.13-7250.91c0-.15,0-.21.21-.24.9,0,3.18-.09,5.85-.09,7.17,0,10.68,4,10.68,9.57,0,7.17-5.52,10.19-10.62,10.19-2,0-5,0-5.94-.06-.12,0-.18-.08-.18-.29Zm4.17,15.78c.6,0,1.08.05,1.77.05,3.93,0,6.51-2.37,6.51-6.54,0-4-2.58-6-6.42-6-.72,0-1.2,0-1.86,0Z" transform="translate(-6988 7282.8)"/><path class="cls-1" d="M7403-7232.2c0,.21-.06.37-.24.42a13.14,13.14,0,0,1-4.17.54c-5.82,0-10.35-3.44-10.35-10,0-6.09,4.2-10.23,10.83-10.23a10,10,0,0,1,3.9.51.34.34,0,0,1,.21.36v3.27c0,.27-.15.27-.27.21a9.39,9.39,0,0,0-3.9-.66c-4,0-6.48,2.49-6.48,6.39,0,4.68,3.42,6.44,6.57,6.44a11.46,11.46,0,0,0,3.66-.47c.15-.07.24,0,.24.14Z" transform="translate(-6988 7282.8)"/><path class="cls-1" d="M7406.12-7233.75a2.39,2.39,0,0,1,2.49-2.5,2.38,2.38,0,0,1,2.49,2.5,2.32,2.32,0,0,1-2.49,2.51A2.37,2.37,0,0,1,7406.12-7233.75Z" transform="translate(-6988 7282.8)"/></g></g></svg>