<svg xmlns="http://www.w3.org/2000/svg" viewBox="0 0 257.34 209.71"><defs><style>.a{fill:#fff;}</style></defs><title>F1_copy-cta-logo_ro</title><path class="a" d="M18.83,169.7H29.57v25.71Z" transform="translate(-0.49 0)"/><path class="a" d="M11.27,169.7H.5v25.71Z" transform="translate(-0.49 0)"/><path class="a" d="M15.05,179.17l6.84,16.24H17.41l-2.05-5.17h-5Z" transform="translate(-0.49 0)"/><path class="a" d="M4.26,205.7c-.21-1-.58-2.62-.72-3.64h0c-.15,1-.42,2.38-.66,3.64Zm-1.7,1.53-.48,2.24c0,.08,0,.1-.11.1H.6c-.09,0-.12,0-.1-.15l1.88-8.1a3,3,0,0,0,.05-.79.08.08,0,0,1,.07-.08h2c.07,0,.1,0,.12.1l2.19,8.9c0,.08,0,.11-.09.11H5.17a.1.1,0,0,1-.11-.08h0l-.5-2.23Z" transform="translate(-0.49 0)"/><path class="a" d="M10.4,204h-.31c-.8,0-1.39.72-1.39,2.14s.59,2.12,1.37,2.12h.33ZM7,206.1c0-2.06,1.21-3.66,3.15-3.66h.23V200s0-.07.06-.08H12c.06,0,.07,0,.07.08v8.15a7.53,7.53,0,0,0,0,1,.11.11,0,0,1-.06.1,4.77,4.77,0,0,1-2,.5C8.22,209.7,7,208.53,7,206.1Z" transform="translate(-0.49 0)"/><path class="a" d="M14.63,206c0,1.31.29,2.18.92,2.18s.91-.74.91-2.17-.23-2.15-.9-2.15S14.63,204.58,14.63,206Zm3.49,0c0,2.23-.93,3.65-2.57,3.65-1.85,0-2.58-1.61-2.58-3.67s.94-3.6,2.61-3.6,2.55,1.34,2.55,3.61Z" transform="translate(-0.49 0)"/><path class="a" d="M21.2,203.94a1.79,1.79,0,0,0-.51.07v4.18a.76.76,0,0,0,.3,0c.64,0,1.39-.65,1.4-2.4C22.4,204.43,21.85,203.94,21.2,203.94Zm-.58-4c.06,0,.07,0,.07.09v2.5a3.22,3.22,0,0,1,.76-.09c1.48,0,2.59,1.14,2.59,3.33,0,2.56-1.45,3.94-3.28,3.94a5.42,5.42,0,0,1-1.65-.26.12.12,0,0,1-.08-.11V200a.06.06,0,0,1,0-.08h1.59Z" transform="translate(-0.49 0)"/><path class="a" d="M27.5,205.13h.42a.38.38,0,0,0,0-.15c0-.54-.16-1.1-.75-1.1s-.79.58-.86,1.27Zm-1.2,1.33c0,1.09.41,1.75,1.55,1.75a2.66,2.66,0,0,0,1.08-.2c.07,0,.11,0,.11.07v1.17c0,.1,0,.16-.1.19a3.06,3.06,0,0,1-1.4.25c-2.07,0-2.88-1.52-2.88-3.52s.93-3.74,2.59-3.74,2.25,1.55,2.25,2.8a9.55,9.55,0,0,1,0,1.07.14.14,0,0,1-.13.11H28Z" transform="translate(-0.49 0)"/><path class="a" d="M43.6,90.49h0a1.33,1.33,0,0,0-1.35,1.21h1.82a4.09,4.09,0,0,0,.7,0v-.1A1.14,1.14,0,0,0,43.6,90.49Z" transform="translate(-0.49 0)"/><path class="a" d="M28.4,93.89c0,.5.35.84,1.23.84a2.55,2.55,0,0,0,.87-.13V93.06a4.09,4.09,0,0,0-.7,0C28.8,93.06,28.4,93.39,28.4,93.89Z" transform="translate(-0.49 0)"/><path class="a" d="M61.14,88.68c-.94,0-1.38.85-1.38,2.86v.07c0,1.93.47,3,1.41,3s1.38-1,1.38-2.93S62.08,88.68,61.14,88.68Z" transform="translate(-0.49 0)"/><path class="a" d="M67.93,91c.52,0,.86-.45.86-1.27s-.34-1.32-.87-1.32-.9.41-.9,1.3c0,.7.3,1.26.91,1.26Z" transform="translate(-0.49 0)"/><path class="a" d="M74.25,92.35c-.55,0-.9.42-.9,1.31,0,.7.31,1.23.92,1.23v0c.51,0,.85-.42.85-1.27S74.8,92.35,74.25,92.35Z" transform="translate(-0.49 0)"/><path class="a" d="M77.5,73.2h-58a18.5,18.5,0,0,0,0,37h58a18.5,18.5,0,0,0,0-37Zm-55.57,23a5.5,5.5,0,0,1-2.43-.45.23.23,0,0,1-.1-.22V93.81a.08.08,0,0,1,0-.11.07.07,0,0,1,.1,0h0a4.83,4.83,0,0,0,2.53.73c1.07,0,1.49-.36,1.49-.85s-.33-.77-1.28-1.18l-.7-.29c-1.72-.73-2.2-1.6-2.2-2.69,0-1.48,1.16-2.72,3.35-2.72a5.24,5.24,0,0,1,2.18.36.18.18,0,0,1,.09.19v1.56c0,.06-.05.13-.13.07a4.48,4.48,0,0,0-2.16-.46c-1.08,0-1.45.37-1.45.83s.29.73,1.34,1.15l.52.21c1.86.77,2.38,1.65,2.38,2.78C25.46,95.09,24.09,96.15,21.93,96.15Zm10.44-4.34v3.76a7.61,7.61,0,0,1-3.05.63c-1.56,0-2.83-.71-2.83-2.34s1.3-2.26,3.17-2.26h.82v-.09c0-.27-.17-.89-1.34-.89a4.35,4.35,0,0,0-1.85.38.08.08,0,0,1-.11,0,.06.06,0,0,1,0-.06v-1.4a.12.12,0,0,1,.1-.14h0a5,5,0,0,1,2.2-.44,2.64,2.64,0,0,1,2.9,2.35A2.09,2.09,0,0,1,32.37,91.81Zm5.12,4.09a.18.18,0,0,1-.17.11H35.5a.15.15,0,0,1-.16-.09c-.54-1.59-1.71-5.15-2.29-6.76a.09.09,0,0,1,.07-.11H35a.13.13,0,0,1,.15.1c.91,3.15,1.22,4.4,1.36,5,.14-.63.5-1.89,1.48-5,0-.07.06-.1.13-.1h1.62c.06,0,.11,0,.09.13C39.22,90.83,38.05,94.38,37.49,95.9ZM46.65,92a5,5,0,0,1-.07.94c0,.07,0,.09-.11.11A12,12,0,0,1,45,93l-2.76.07c.07.8.63,1.46,2,1.46A4.43,4.43,0,0,0,46,94.22s.08,0,.08.07v1.33c0,.1,0,.14-.09.17a4.82,4.82,0,0,1-2.15.4,3.28,3.28,0,0,1-3.54-3h0a4,4,0,0,1,0-.49A3.43,3.43,0,0,1,43.39,89h.26a2.85,2.85,0,0,1,3,2.71Zm6.53,4.18a5.26,5.26,0,0,1-2.35-.43c-.1,0-.1-.13-.1-.2V94s0-.07.06-.08,0,0,.06,0a4.88,4.88,0,0,0,2.24.58c1.21,0,1.67-.48,1.67-1.11s-.48-1.07-1.57-1.07l-.92,0c-.07,0-.11,0-.11-.09V90.75c0-.09,0-.15.09-.15H53c.93,0,1.43-.25,1.43-.86s-.5-1-1.48-1a4.22,4.22,0,0,0-2,.51h-.1V87.76a.15.15,0,0,1,.07-.15,5.29,5.29,0,0,1,2.44-.53c1.83,0,3,.92,3,2.39a2,2,0,0,1-1.18,1.81,2.19,2.19,0,0,1,1.58,2.17C56.76,95.23,55.11,96.19,53.18,96.19Zm8,0c-2.38,0-3.36-2-3.36-4.58s1.22-4.53,3.36-4.53c2.62,0,3.32,2.35,3.32,4.53C64.49,94,63.55,96.19,61.17,96.19Zm4.27-6h0a3.84,3.84,0,0,1,0-.48,2.4,2.4,0,0,1,2.16-2.62h.21a2.31,2.31,0,0,1,2.44,2.63A2.39,2.39,0,0,1,68,92.25h-.18A2.25,2.25,0,0,1,65.44,90.17Zm3.07,5.92H67.29c-.06,0-.11-.07,0-.12l6.16-8.63a.21.21,0,0,1,.17-.08h1.22L68.72,96C68.66,96.09,68.62,96.09,68.51,96.09Zm8.08-2.43a2.39,2.39,0,0,1-2.2,2.56h-.15a2.27,2.27,0,0,1-2.38-2.16v-.38A2.4,2.4,0,0,1,74,91.09h.2a2.27,2.27,0,0,1,2.36,2.18h0a2,2,0,0,1,0,.34Z" transform="translate(-0.49 0)"/><path class="a" d="M1.58,18.7c-.16,0-.21-.05-.21-.23V2c0-.13,0-.26.18-.26C3.89,1.64,4.88,1.62,7,1.62c4.31,0,6.73,1.84,6.73,5.2a4.87,4.87,0,0,1-3.22,4.57c.86,1.17,3.8,5.59,4.6,7,.08.15.11.31-.07.31h-3.8c-.24,0-.32-.05-.37-.16-.75-1.14-2.36-3.92-3.46-5.69-.18-.31-.31-.44-.59-.44H4.91v6.08a.19.19,0,0,1-.17.21H1.58ZM6.91,9.34c1.95,0,3.2-.78,3.2-2.31S8.81,4.76,6.88,4.76a16.7,16.7,0,0,0-2,.06V9.34Z" transform="translate(-0.49 0)"/><path class="a" d="M19.13,13.19c.13,1.48,1.17,2.7,3.72,2.7a8,8,0,0,0,3.2-.6c.07,0,.15,0,.15.13v2.47c0,.19-.05.26-.18.32a8.72,8.72,0,0,1-4,.8c-4.89,0-6.6-3.35-6.6-6.58,0-3.59,2.21-6.86,6.29-6.86,3.93,0,5.49,3,5.49,5.61a9.32,9.32,0,0,1-.13,1.75.22.22,0,0,1-.21.2,21.84,21.84,0,0,1-2.68.11ZM22.5,10.7a7.08,7.08,0,0,0,1.3-.06v-.18a2.11,2.11,0,0,0-2.17-2h0a2.47,2.47,0,0,0-2.49,2.29Z" transform="translate(-0.49 0)"/><path class="a" d="M32.6,18.7a.31.31,0,0,1-.31-.18C31.29,15.58,29.11,9,28.05,6c0-.11,0-.21.18-.21h3.41c.18,0,.23,0,.28.18,1.69,5.85,2.26,8.16,2.52,9.33h.06c.26-1.17.93-3.51,2.75-9.33a.23.23,0,0,1,.24-.18h3a.16.16,0,0,1,.18.14h0V6c-1.15,3.07-3.29,9.69-4.33,12.48-.08.13-.13.21-.32.21Z" transform="translate(-0.49 0)"/><path class="a" d="M42.22,2.37a2,2,0,0,1,2-2,1.87,1.87,0,0,1,2,1.75,1,1,0,0,1,0,.25,1.92,1.92,0,0,1-1.84,2h-.16a1.89,1.89,0,0,1-2-1.77ZM42.4,6c0-.13.05-.21.21-.21h3.2c.15,0,.2,0,.2.21V18.47c0,.15,0,.23-.23.23H42.66c-.18,0-.26-.08-.26-.23Z" transform="translate(-0.49 0)"/><path class="a" d="M52.05,13.19c.13,1.48,1.17,2.7,3.71,2.7a8,8,0,0,0,3.2-.6c.08,0,.16,0,.16.13v2.47c0,.19,0,.26-.18.32a8.75,8.75,0,0,1-4,.75c-4.89,0-6.61-3.35-6.61-6.58,0-3.59,2.21-6.86,6.3-6.86,3.92,0,5.48,3,5.48,5.61A7.89,7.89,0,0,1,60,12.88a.22.22,0,0,1-.21.2,21.68,21.68,0,0,1-2.67.11Zm3.38-2.49a7.08,7.08,0,0,0,1.3-.06v-.18a2.12,2.12,0,0,0-2.16-2.08H54.5A2.47,2.47,0,0,0,52,10.7Z" transform="translate(-0.49 0)"/><path class="a" d="M73.26,18.7a.27.27,0,0,1-.31-.22h0c-1.3-5.31-1.72-7.7-2-9h0c-.65,2.86-1.17,5-2.26,9-.06.18-.14.23-.29.23H65.15c-.26,0-.31-.05-.37-.23L61.4,6c0-.13,0-.23.21-.23h3.31c.15,0,.2,0,.23.18,1.38,5.62,1.74,8.11,1.92,9.2h.06c.2-.93.62-3.38,2.13-9.15,0-.15,0-.23.23-.23h3.43c.13,0,.18,0,.21.18,1.37,5.74,1.74,8.27,1.93,9.31h0c.36-1.69.75-4.5,2-9.31a.22.22,0,0,1,.23-.18h3a.14.14,0,0,1,.16.12V6L76.82,18.47c0,.18-.07.23-.31.23Z" transform="translate(-0.49 0)"/><path class="a" d="M80.5,16.78a2.16,2.16,0,0,1,4.32,0h0A2,2,0,0,1,83.07,19h-.43a2,2,0,0,1-2.14-1.86V17A.89.89,0,0,1,80.5,16.78Z" transform="translate(-0.49 0)"/><path class="a" d="M93.62,18.7c-.16,0-.21-.05-.21-.23V2c0-.13,0-.26.18-.26,2.34-.06,3.33-.08,5.44-.08,4.31,0,6.73,1.84,6.73,5.2a4.87,4.87,0,0,1-3.26,4.57c.86,1.17,3.8,5.59,4.6,7,.08.15.11.31-.07.31h-3.77c-.24,0-.32-.05-.37-.16-.75-1.14-2.39-3.92-3.46-5.69-.18-.31-.31-.44-.6-.44H97v6.08a.19.19,0,0,1-.17.21H93.62ZM99,9.34c2,0,3.2-.78,3.2-2.31S100.9,4.76,99,4.76a16.7,16.7,0,0,0-2,.06V9.34Z" transform="translate(-0.49 0)"/><path class="a" d="M111.17,13.19c.13,1.48,1.17,2.7,3.72,2.7a7.94,7.94,0,0,0,3.19-.6c.08,0,.16,0,.16.13v2.47c0,.19,0,.26-.18.32a8.75,8.75,0,0,1-4,.75c-4.89,0-6.6-3.35-6.6-6.58,0-3.59,2.21-6.86,6.29-6.86,3.92,0,5.48,3,5.48,5.61a8.54,8.54,0,0,1-.12,1.75.22.22,0,0,1-.21.2,21.84,21.84,0,0,1-2.68.11Zm3.38-2.49a7.08,7.08,0,0,0,1.3-.06v-.18a2.12,2.12,0,0,0-2.19-2h0a2.47,2.47,0,0,0-2.5,2.29Z" transform="translate(-0.49 0)"/><path class="a" d="M124.64,18.7a.33.33,0,0,1-.32-.18c-1-2.94-3.17-9.54-4.23-12.53,0-.11,0-.21.18-.21h3.4c.19,0,.24,0,.29.18,1.69,5.85,2.26,8.16,2.52,9.33h0c.26-1.17.94-3.51,2.76-9.33,0-.13.1-.18.23-.18h3a.16.16,0,0,1,.18.14h0V6c-1.12,3.07-3.31,9.65-4.35,12.48a.3.3,0,0,1-.31.21Z" transform="translate(-0.49 0)"/><path class="a" d="M134.26,2.37a1.94,1.94,0,0,1,1.88-2h.12a1.89,1.89,0,0,1,2,1.77v.23a1.92,1.92,0,0,1-1.84,2h-.16a1.89,1.89,0,0,1-2-1.77ZM134.44,6c0-.13.05-.21.21-.21h3.19c.16,0,.21,0,.21.21V18.47c0,.15,0,.23-.23.23H134.7c-.18,0-.26-.08-.26-.23Z" transform="translate(-0.49 0)"/><path class="a" d="M145.59,8.4c-1.22,0-1.61.45-1.61.89s.34.78,1.85,1.35C149,11.78,150,13,150,14.85c0,2.47-2,4.16-5.4,4.16a8.41,8.41,0,0,1-3.77-.73.31.31,0,0,1-.18-.28V15.14c0-.16.11-.24.21-.16a7.33,7.33,0,0,0,3.82,1c1.22,0,1.77-.34,1.77-.88s-.44-.86-2-1.43c-2.93-1.09-3.9-2.34-3.9-4.21s1.64-4,5.07-4A8.67,8.67,0,0,1,149,6a.34.34,0,0,1,.19.34V9c0,.15-.11.26-.26.18A8,8,0,0,0,145.59,8.4Z" transform="translate(-0.49 0)"/><path class="a" d="M155.21,13.19c.13,1.48,1.17,2.7,3.72,2.7a8,8,0,0,0,3.2-.6c.08,0,.15,0,.15.13v2.47c0,.19-.05.26-.18.32a8.75,8.75,0,0,1-4,.75c-4.88,0-6.6-3.35-6.6-6.58,0-3.59,2.21-6.86,6.29-6.86s5.49,3,5.49,5.61a7.9,7.9,0,0,1-.13,1.75.22.22,0,0,1-.21.2,21.84,21.84,0,0,1-2.68.11Zm3.38-2.49a7.08,7.08,0,0,0,1.3-.06v-.18a2.11,2.11,0,0,0-2.17-2h0a2.45,2.45,0,0,0-2.49,2.29Z" transform="translate(-0.49 0)"/><path class="a" d="M164.83,16.78a2.16,2.16,0,1,1,4.32,0,2,2,0,0,1-1.8,2.18H167a2,2,0,0,1-2.15-1.83.49.49,0,0,1,0-.12A.89.89,0,0,1,164.83,16.78Z" transform="translate(-0.49 0)"/><path class="a" d="M177.91,18.7c-.16,0-.21-.05-.21-.23V2c0-.13,0-.26.18-.26,2.34-.06,3.33-.08,5.44-.08,4.31,0,6.73,1.84,6.73,5.2a4.86,4.86,0,0,1-3.25,4.57c.86,1.17,3.8,5.59,4.6,7,.08.15.11.31-.07.31h-3.78c-.23,0-.31-.05-.36-.16-.75-1.14-2.39-3.92-3.46-5.69-.18-.31-.31-.44-.6-.44h-1.89v6.08a.19.19,0,0,1-.17.21h-3.16Zm5.33-9.36c1.95,0,3.2-.78,3.2-2.31s-1.3-2.27-3.23-2.27a16.7,16.7,0,0,0-2,.06V9.34Z" transform="translate(-0.49 0)"/><path class="a" d="M195.5,13.19c.13,1.48,1.17,2.7,3.72,2.7a8,8,0,0,0,3.2-.6c.07,0,.15,0,.15.13v2.47c0,.19,0,.26-.18.32a8.75,8.75,0,0,1-4,.75c-4.89,0-6.6-3.35-6.6-6.58,0-3.59,2.21-6.86,6.29-6.86,3.92,0,5.48,3,5.48,5.61a8.54,8.54,0,0,1-.12,1.75.22.22,0,0,1-.21.2,21.84,21.84,0,0,1-2.68.11Zm3.34-2.49a7.08,7.08,0,0,0,1.3-.06v-.18a2.12,2.12,0,0,0-2.19-2h0a2.47,2.47,0,0,0-2.5,2.29Z" transform="translate(-0.49 0)"/><path class="a" d="M204.87,8.79c-.13,0-.18-.07-.18-.2V6a.16.16,0,0,1,.14-.18h1.57V5.1a6.78,6.78,0,0,1,.6-2.73A4.13,4.13,0,0,1,211,0a3.42,3.42,0,0,1,1.35.18c.16,0,.19.13.19.28v2.6c0,.11-.06.21-.21.16a2.51,2.51,0,0,0-.86-.1c-1,0-1.48.52-1.48,1.84v.81h2.21c.18,0,.21.08.21.18V8.59c0,.15,0,.18-.21.2H210v9.68c0,.13,0,.23-.24.23h-3.14a.21.21,0,0,1-.24-.18h0V8.79Zm9.07-6.37a1.93,1.93,0,0,1,1.86-2h.14a1.87,1.87,0,0,1,2,1.73,1.22,1.22,0,0,1,0,.27,2,2,0,0,1-4,0ZM214.07,6c0-.13.08-.21.24-.21h3.19c.15,0,.2,0,.2.21V18.47c0,.15,0,.23-.23.23h-3.12c-.18,0-.29-.08-.29-.23Z" transform="translate(-0.49 0)"/><path class="a" d="M220.68,8.79c0-.88-.05-2.23-.11-2.8,0-.13,0-.21.19-.21h2.74a.3.3,0,0,1,.33.21,3.11,3.11,0,0,1,.21.85,5.72,5.72,0,0,1,3.69-1.32c2,0,4.37,1,4.37,5.22v7.73c0,.15,0,.23-.23.23h-3.12c-.18,0-.26-.08-.26-.23V11.06c0-1.56-.68-2.4-2-2.4a3.17,3.17,0,0,0-2.16.81v9a.19.19,0,0,1-.17.21H221c-.18,0-.23-.08-.23-.23Z" transform="translate(-0.49 0)"/><path class="a" d="M238.12,13.19c.13,1.48,1.17,2.7,3.72,2.7a8,8,0,0,0,3.2-.6c.08,0,.16,0,.16.13v2.47a.3.3,0,0,1-.19.32,8.75,8.75,0,0,1-4,.75c-4.89,0-6.61-3.35-6.61-6.58,0-3.59,2.21-6.86,6.29-6.86s5.49,3,5.49,5.61a7.9,7.9,0,0,1-.13,1.75.22.22,0,0,1-.21.2,21.84,21.84,0,0,1-2.68.11Zm3.38-2.49a7.08,7.08,0,0,0,1.3-.06v-.18a2.11,2.11,0,0,0-2.17-2h0a2.46,2.46,0,0,0-2.49,2.29Z" transform="translate(-0.49 0)"/><path class="a" d="M247.74,16.78a2.16,2.16,0,1,1,4.32,0,2,2,0,0,1-1.8,2.18h-.36a2,2,0,0,1-2.15-1.83.49.49,0,0,1,0-.12A.89.89,0,0,1,247.74,16.78Z" transform="translate(-0.49 0)"/><path class="a" d="M1.58,48.7c-.16,0-.21,0-.21-.23V32c0-.13,0-.26.18-.26,2.34-.06,3.33-.08,5.44-.08,4.31,0,6.73,1.84,6.73,5.2a4.87,4.87,0,0,1-3.22,4.57c.86,1.17,3.8,5.59,4.6,7,.08.15.11.31-.07.31h-3.8c-.24,0-.32,0-.37-.16-.75-1.14-2.36-3.92-3.46-5.69-.18-.31-.31-.44-.59-.44H4.91v6.08a.19.19,0,0,1-.17.21H1.58Zm5.33-9.36c1.95,0,3.2-.78,3.2-2.31s-1.3-2.27-3.23-2.27a16.7,16.7,0,0,0-2,.06v4.52Z" transform="translate(-0.49 0)"/><path class="a" d="M19.13,43.19c.13,1.48,1.17,2.7,3.72,2.7a8,8,0,0,0,3.2-.6c.07,0,.15,0,.15.13v2.47c0,.19-.05.26-.18.32a8.72,8.72,0,0,1-4,.8c-4.89,0-6.6-3.35-6.6-6.58,0-3.59,2.21-6.86,6.29-6.86,3.93,0,5.49,3,5.49,5.61a9.32,9.32,0,0,1-.13,1.75.22.22,0,0,1-.21.2,21.84,21.84,0,0,1-2.68.11ZM22.5,40.7a7.08,7.08,0,0,0,1.3-.06v-.18a2.11,2.11,0,0,0-2.21-2A2.47,2.47,0,0,0,19.1,40.7Z" transform="translate(-0.49 0)"/><path class="a" d="M29.5,38.79c0-.88-.05-2.23-.1-2.8,0-.13,0-.21.18-.21h2.73a.32.32,0,0,1,.34.21,3.51,3.51,0,0,1,.2.85,5.74,5.74,0,0,1,3.7-1.32c2,0,4.36,1,4.36,5.22v7.73c0,.15,0,.23-.23.23H37.59c-.18,0-.26-.08-.26-.23V41.06c0-1.56-.68-2.4-2-2.4a3.17,3.17,0,0,0-2.16.81v9c0,.13-.07.21-.23.21H29.76c-.18,0-.23-.08-.23-.23Z" transform="translate(-0.49 0)"/><path class="a" d="M47,43.19c.13,1.48,1.17,2.7,3.71,2.7a8,8,0,0,0,3.2-.6c.08,0,.16,0,.16.13v2.47c0,.19,0,.26-.18.32a8.75,8.75,0,0,1-4,.75c-4.89,0-6.61-3.35-6.61-6.58,0-3.59,2.21-6.86,6.3-6.86,3.92,0,5.48,3,5.48,5.61a7.9,7.9,0,0,1-.13,1.75.22.22,0,0,1-.21.2,21.68,21.68,0,0,1-2.67.11Zm3.38-2.49a7.08,7.08,0,0,0,1.3-.06v-.18a2.12,2.12,0,0,0-2.21-2A2.47,2.47,0,0,0,47,40.7Z" transform="translate(-0.49 0)"/><path class="a" d="M68.19,48.7a.27.27,0,0,1-.31-.22h0c-1.3-5.31-1.72-7.7-2-9h0c-.65,2.86-1.17,5-2.26,9-.06.18-.13.23-.29.23H60.08c-.26,0-.31,0-.37-.23L56.33,36c0-.13,0-.23.21-.23h3.3c.16,0,.21,0,.24.18,1.38,5.62,1.74,8.11,1.92,9.2h.06c.2-.93.62-3.38,2.13-9.15,0-.15,0-.23.23-.23h3.43a.18.18,0,0,1,.21.15h0c1.38,5.75,1.74,8.27,1.93,9.31h0c.36-1.69.75-4.5,2-9.31a.22.22,0,0,1,.23-.18h3a.14.14,0,0,1,.16.12V36L71.75,48.47c0,.18-.07.23-.31.23Z" transform="translate(-0.49 0)"/><path class="a" d="M86.36,44.64l-1.24,3.85a.29.29,0,0,1-.29.21h-3c-.18,0-.23-.1-.2-.26l5.2-15a5,5,0,0,0,.26-1.59.17.17,0,0,1,.15-.18H91.4c.13,0,.18,0,.21.16L97.5,48.47c.06.13,0,.23-.13.23H94a.26.26,0,0,1-.28-.18l-1.33-3.88Zm5-3.25c-.52-1.71-1.56-4.86-2.06-6.7h0c-.42,1.74-1.35,4.6-2,6.7Z" transform="translate(-0.49 0)"/><path class="a" d="M108.18,48.34c0,.13,0,.18-.13.2a8,8,0,0,1-2.91.42c-4.22,0-6.87-2.83-6.87-6.66s2.94-6.78,7.36-6.78a7.16,7.16,0,0,1,2.39.28c.13.06.16.13.16.29v2.68c0,.18-.1.21-.2.18a6.53,6.53,0,0,0-2.19-.31c-2.18,0-3.77,1.19-3.77,3.53,0,2.71,2,3.59,3.82,3.59a8.72,8.72,0,0,0,2.16-.23c.16,0,.21,0,.21.1Z" transform="translate(-0.49 0)"/><path class="a" d="M113.25,35.78a.29.29,0,0,1,.31.23,5.19,5.19,0,0,1,.29,1.46,5.39,5.39,0,0,1,4.13-2c.16,0,.21,0,.21.21v3.19c0,.13,0,.19-.23.19a5.37,5.37,0,0,0-4,1.11v8.27c0,.16,0,.21-.23.21h-3.12c-.21,0-.26-.08-.26-.23v-9a29.92,29.92,0,0,0-.13-3.54c0-.13,0-.18.15-.18Z" transform="translate(-0.49 0)"/><path class="a" d="M132.15,42.17c0,4.09-2.65,6.79-6.4,6.79-4.44,0-6.42-3.35-6.42-6.71,0-3.69,2.47-6.73,6.48-6.73C130,35.52,132.15,38.7,132.15,42.17Zm-9.15,0c0,2.29,1.06,3.74,2.81,3.74,1.5,0,2.65-1.3,2.65-3.69,0-2-.83-3.72-2.81-3.72-1.51,0-2.65,1.39-2.65,3.7Z" transform="translate(-0.49 0)"/><path class="a" d="M137.84,30.27c.21,0,.26,0,.26.2V35.8a8.49,8.49,0,0,1,2.19-.28,6,6,0,0,1,6.21,5.78v.4c0,4.86-3.85,7.25-7.8,7.25a13.44,13.44,0,0,1-4.08-.6.29.29,0,0,1-.16-.26V30.45c0-.13,0-.18.18-.18Zm1.8,8.32a5.71,5.71,0,0,0-1.54.2v7a3.74,3.74,0,0,0,1,.1,3.59,3.59,0,0,0,3.78-3.37,4.69,4.69,0,0,0,0-.53C142.84,39.7,141.5,38.59,139.64,38.59Z" transform="translate(-0.49 0)"/><path class="a" d="M159,45.81c0,.68,0,1.23.05,1.85,0,0,0,.1-.05.13A14.32,14.32,0,0,1,153.34,49c-2.89,0-5.25-1.33-5.25-4.34,0-2.76,2.42-4.21,5.87-4.21a13.19,13.19,0,0,1,1.54,0v-.18c0-.5-.31-1.64-2.5-1.64a8.42,8.42,0,0,0-3.43.7.16.16,0,0,1-.21-.05.11.11,0,0,1,0-.08V36.58a.23.23,0,0,1,.18-.26,9.87,9.87,0,0,1,4.08-.8c3.74,0,5.41,2.31,5.41,5.28Zm-3.51-2.67a8.11,8.11,0,0,0-1.3-.08c-1.85,0-2.6.6-2.6,1.53s.65,1.56,2.29,1.56a5.45,5.45,0,0,0,1.61-.23Z" transform="translate(-0.49 0)"/><path class="a" d="M168.37,48.26c0,.15,0,.28-.18.34a6.55,6.55,0,0,1-2.32.36c-2.26,0-3.59-1.12-3.59-3.72V38.79h-1.56c-.15,0-.2-.07-.2-.23V36c0-.18,0-.23.23-.23h1.56a30.17,30.17,0,0,1,.26-3.15.28.28,0,0,1,.23-.23l3-.39c.13,0,.2,0,.2.15-.07.81-.13,2.34-.13,3.62h2.4c.15,0,.2,0,.2.21v2.62c0,.13-.05.16-.18.18H165.9v5.57c0,1.14.34,1.66,1.4,1.66a5.27,5.27,0,0,0,.89-.1c.1,0,.18,0,.18.18Z" transform="translate(-0.49 0)"/><path class="a" d="M176.69,31.9c0-.15,0-.2.15-.2,1.07,0,3.12-.08,5.1-.08,5.25,0,7.07,2.91,7.07,5.74,0,4.22-3.25,6-7.25,6h-1.48v5.12a.19.19,0,0,1-.17.21h-3.24c-.13,0-.18-.08-.18-.21Zm3.59,8.27h1.45c2.06,0,3.69-.63,3.69-2.76,0-1.64-1.12-2.68-3.38-2.68a12.89,12.89,0,0,0-1.76.06Z" transform="translate(-0.49 0)"/><path class="a" d="M194,35.78a.29.29,0,0,1,.31.23,5.19,5.19,0,0,1,.29,1.46,5.39,5.39,0,0,1,4.13-2c.16,0,.21,0,.21.21v3.19c0,.13-.05.19-.23.19a5.4,5.4,0,0,0-3.93,1.11v8.27c0,.16-.05.21-.23.21h-3.12c-.21,0-.26-.08-.26-.23v-9a29.92,29.92,0,0,0-.13-3.54c0-.13,0-.18.16-.18Z" transform="translate(-0.49 0)"/><path class="a" d="M212.93,42.17c0,4.09-2.65,6.79-6.4,6.79-4.44,0-6.42-3.35-6.42-6.71,0-3.69,2.47-6.73,6.48-6.73C210.77,35.52,212.93,38.7,212.93,42.17Zm-9.15,0c0,2.29,1.06,3.74,2.81,3.74,1.5,0,2.65-1.3,2.65-3.69,0-2-.83-3.72-2.81-3.72-1.51,0-2.65,1.39-2.65,3.7Z" transform="translate(-0.49 0)"/><path class="a" d="M221.5,31.9c0-.13,0-.18.19-.2.78,0,2.75-.08,5.07-.08,6.21,0,9.25,3.48,9.25,8.29,0,6.22-4.78,8.84-9.2,8.84h-5.15c-.1,0-.16-.08-.16-.26Zm3.62,13.68h1.53c3.41,0,5.64-2,5.64-5.67s-2.23-5.2-5.56-5.2h-1.61Z" transform="translate(-0.49 0)"/><path class="a" d="M250.84,48.13c0,.18-.05.31-.21.36A11.16,11.16,0,0,1,247,49c-5.05,0-9-3-9-8.68,0-5.28,3.65-8.87,9.39-8.87a8.64,8.64,0,0,1,3.38.44.3.3,0,0,1,.18.31V35c0,.23-.13.23-.23.18a8.14,8.14,0,0,0-3.38-.57c-3.48,0-5.62,2.16-5.62,5.54,0,4,3,5.59,5.7,5.59a9.74,9.74,0,0,0,3.17-.42c.13,0,.21,0,.21.13Z" transform="translate(-0.49 0)"/><path class="a" d="M253.5,46.78a2.16,2.16,0,0,1,4.32,0A2,2,0,0,1,256.07,49h-.43a2,2,0,0,1-2.14-1.86V47A.89.89,0,0,1,253.5,46.78Z" transform="translate(-0.49 0)"/></svg>