<svg xmlns="http://www.w3.org/2000/svg" viewBox="0 0 257.83 209.71"><defs><style>.a{fill:#fff;}.b{fill:none;stroke:#fff;stroke-miterlimit:10;stroke-width:2px;}</style></defs><title>F1_copy-cta-logo</title><path class="a" d="M18.83,169.69H29.57V195.4Z" transform="translate(0 0.01)"/><path class="a" d="M11.27,169.69H.5V195.4Z" transform="translate(0 0.01)"/><path class="a" d="M15.05,179.16l6.84,16.24H17.41l-2.05-5.17h-5Z" transform="translate(0 0.01)"/><path class="a" d="M4.26,205.69c-.21-1.05-.58-2.62-.72-3.64h0c-.15,1-.42,2.38-.66,3.64Zm-1.7,1.53-.48,2.24c0,.08,0,.1-.11.1H.6c-.09,0-.12,0-.1-.15l1.88-8.1a3,3,0,0,0,.05-.79.08.08,0,0,1,.07-.08h2c.07,0,.1,0,.12.1l2.19,8.9c0,.08,0,.11-.09.11H5.17a.1.1,0,0,1-.11-.08h0l-.5-2.23Z" transform="translate(0 0.01)"/><path class="a" d="M10.4,203.94h-.31c-.8,0-1.39.72-1.39,2.14s.59,2.12,1.37,2.12a1.82,1.82,0,0,0,.33,0ZM7,206.09c0-2.06,1.21-3.66,3.15-3.66h.23V200s0-.07.06-.08H12c.06,0,.07,0,.07.08v8.15a7.53,7.53,0,0,0,0,.95.11.11,0,0,1-.06.1,4.73,4.73,0,0,1-2,.5C8.22,209.69,7,208.52,7,206.09Z" transform="translate(0 0.01)"/><path class="a" d="M14.63,206c0,1.31.29,2.18.92,2.18s.91-.74.91-2.17-.23-2.15-.9-2.15S14.63,204.57,14.63,206Zm3.49,0c0,2.23-.93,3.65-2.57,3.65-1.85,0-2.58-1.61-2.58-3.67s.94-3.6,2.61-3.6,2.55,1.34,2.55,3.61Z" transform="translate(0 0.01)"/><path class="a" d="M21.2,203.93a1.79,1.79,0,0,0-.51.07v4.18a.76.76,0,0,0,.3,0c.64,0,1.39-.65,1.4-2.4C22.4,204.42,21.85,203.93,21.2,203.93Zm-.58-4c.06,0,.07,0,.07.09v2.5a3.22,3.22,0,0,1,.76-.09c1.48,0,2.59,1.14,2.59,3.33,0,2.56-1.45,3.94-3.28,3.94a5.42,5.42,0,0,1-1.65-.26.12.12,0,0,1-.08-.11V200a.07.07,0,0,1,0-.08h1.55Z" transform="translate(0 0.01)"/><path class="a" d="M27.5,205.12h.42a.38.38,0,0,0,0-.15c0-.54-.16-1.1-.75-1.1s-.79.58-.86,1.27Zm-1.2,1.33c0,1.09.41,1.75,1.55,1.75a2.66,2.66,0,0,0,1.08-.2c.07,0,.11,0,.11.07v1.17c0,.1,0,.16-.1.19a3.06,3.06,0,0,1-1.4.25c-2.07,0-2.88-1.52-2.88-3.52s.93-3.74,2.59-3.74,2.25,1.55,2.25,2.8a9.55,9.55,0,0,1,0,1.07.14.14,0,0,1-.13.11H28Z" transform="translate(0 0.01)"/><path class="b" d="M77.5,110.19h-58a18.5,18.5,0,0,1,0-37h58a18.5,18.5,0,0,1,0,37Z" transform="translate(0 0.01)"/><path class="a" d="M76.5,73.69" transform="translate(0 0.01)"/><path class="a" d="M19.5,95.69a.23.23,0,0,1-.1-.22V93.8a.08.08,0,0,1,0-.11.07.07,0,0,1,.1,0,4.83,4.83,0,0,0,2.53.73c1.07,0,1.49-.36,1.49-.85s-.33-.77-1.28-1.18l-.7-.29c-1.72-.73-2.2-1.6-2.2-2.69,0-1.48,1.16-2.72,3.35-2.72a5.24,5.24,0,0,1,2.18.36.18.18,0,0,1,.09.19V88.8c0,.06-.05.13-.13.07a4.48,4.48,0,0,0-2.16-.46c-1.08,0-1.45.37-1.45.83s.29.73,1.34,1.15l.52.21c1.86.77,2.38,1.65,2.38,2.78,0,1.7-1.37,2.76-3.53,2.76A5.48,5.48,0,0,1,19.5,95.69Z" transform="translate(0 0.01)"/><path class="a" d="M32.36,94.49v1.07a7.61,7.61,0,0,1-3.05.63c-1.56,0-2.83-.71-2.83-2.34s1.3-2.26,3.17-2.26c.27,0,.55,0,.82,0V91.5c0-.27-.17-.89-1.34-.89a4.35,4.35,0,0,0-1.85.38.08.08,0,0,1-.11,0,.07.07,0,0,1,0-.06v-1.4a.12.12,0,0,1,.1-.14h0a5,5,0,0,1,2.2-.44,2.64,2.64,0,0,1,2.9,2.35,2.77,2.77,0,0,1,0,.5ZM30.5,93.05a4.09,4.09,0,0,0-.7,0c-1,0-1.4.33-1.4.83s.35.84,1.23.84a2.55,2.55,0,0,0,.87-.13Z" transform="translate(0 0.01)"/><path class="a" d="M35.5,96a.15.15,0,0,1-.16-.09c-.54-1.59-1.71-5.15-2.29-6.76a.09.09,0,0,1,.07-.11H35a.13.13,0,0,1,.15.1c.91,3.15,1.22,4.4,1.36,5h0c.14-.63.5-1.89,1.48-5,0-.07.06-.1.13-.1h1.62c.06,0,.11,0,.09.13-.61,1.65-1.78,5.2-2.34,6.72a.18.18,0,0,1-.17.11Z" transform="translate(0 0.01)"/><path class="a" d="M42.24,93.07c.07.8.63,1.46,2,1.46A4.41,4.41,0,0,0,46,94.21s.08,0,.08.07v1.33c0,.1,0,.14-.09.17a4.82,4.82,0,0,1-2.15.4,3.28,3.28,0,0,1-3.54-3,4,4,0,0,1,0-.49A3.43,3.43,0,0,1,43.39,89h.26a2.86,2.86,0,0,1,3,2.71V92a5,5,0,0,1-.07.94c0,.07,0,.09-.11.11A11.53,11.53,0,0,1,45,93Zm1.83-1.38a4.09,4.09,0,0,0,.7,0v-.1a1.14,1.14,0,0,0-1.17-1.11h0a1.33,1.33,0,0,0-1.35,1.21Z" transform="translate(0 0.01)"/><path class="a" d="M52.27,92.3c-.07,0-.11,0-.11-.09V90.74c0-.09,0-.15.09-.15H53c.93,0,1.43-.25,1.43-.86s-.5-1-1.48-1a4.22,4.22,0,0,0-2,.51h-.1V87.75a.14.14,0,0,1,.07-.15,5.29,5.29,0,0,1,2.44-.53c1.83,0,3,.92,3,2.39a2,2,0,0,1-1.18,1.81,2.19,2.19,0,0,1,1.58,2.17c0,1.78-1.65,2.74-3.58,2.74a5.26,5.26,0,0,1-2.35-.43c-.1,0-.1-.13-.1-.2V94s0-.07.06-.08,0,0,.06,0a4.88,4.88,0,0,0,2.24.58c1.21,0,1.67-.48,1.67-1.11s-.48-1.07-1.57-1.07Z" transform="translate(0 0.01)"/><path class="a" d="M57.81,91.6c0-2.64,1.22-4.53,3.36-4.53,2.62,0,3.32,2.35,3.32,4.53,0,2.4-.94,4.58-3.32,4.58S57.81,94.18,57.81,91.6Zm1.95,0c0,1.93.47,3,1.41,3s1.38-1,1.38-2.93-.47-3-1.41-3-1.38.85-1.38,2.86Z" transform="translate(0 0.01)"/><path class="a" d="M70.25,89.69A2.39,2.39,0,0,1,68,92.24h-.15a2.25,2.25,0,0,1-2.41-2.08,2.57,2.57,0,0,1,0-.48,2.4,2.4,0,0,1,2.16-2.62h.21C69.5,87.07,70.25,88.16,70.25,89.69ZM67.93,91c.52,0,.86-.45.86-1.27s-.34-1.32-.87-1.32-.9.41-.9,1.3c0,.7.3,1.26.91,1.26Zm.79,5c-.06.08-.1.08-.21.08H67.29c-.06,0-.11-.07,0-.12l6.16-8.63a.21.21,0,0,1,.17-.08h1.22a0,0,0,0,1,0,.07,0,0,0,0,1,0,0Zm7.87-2.35a2.39,2.39,0,0,1-2.2,2.56h-.15A2.27,2.27,0,0,1,71.86,94c0-.11,0-.22,0-.33A2.4,2.4,0,0,1,74,91.08h.2a2.27,2.27,0,0,1,2.36,2.19A2,2,0,0,1,76.59,93.61Zm-2.32,1.27c.51,0,.85-.42.85-1.27s-.32-1.31-.87-1.31-.9.42-.9,1.31C73.35,94.35,73.66,94.88,74.27,94.88Z" transform="translate(0 0.01)"/><path class="a" d="M1.58,18.69c-.16,0-.21-.05-.21-.23V2c0-.13,0-.26.18-.26C3.89,1.63,4.88,1.61,7,1.61c4.31,0,6.73,1.84,6.73,5.2a4.87,4.87,0,0,1-3.22,4.57c.86,1.17,3.8,5.59,4.6,7,.08.15.11.31-.07.31h-3.8c-.24,0-.32-.05-.37-.16-.75-1.14-2.36-3.92-3.46-5.69-.18-.31-.31-.44-.59-.44H4.91v6.08a.19.19,0,0,1-.17.21H1.58ZM6.91,9.33c1.95,0,3.2-.78,3.2-2.31S8.81,4.75,6.88,4.75a17.86,17.86,0,0,0-2,.06V9.33Z" transform="translate(0 0.01)"/><path class="a" d="M19.13,13.18c.13,1.48,1.17,2.7,3.72,2.7a8,8,0,0,0,3.2-.6c.07,0,.15,0,.15.13v2.47c0,.19-.05.26-.18.32A8.75,8.75,0,0,1,22,19c-4.89,0-6.6-3.35-6.6-6.58,0-3.59,2.21-6.86,6.29-6.86,3.93,0,5.49,3,5.49,5.61a9.32,9.32,0,0,1-.13,1.75.22.22,0,0,1-.21.2,21.84,21.84,0,0,1-2.68.11Zm3.37-2.49a7.08,7.08,0,0,0,1.3-.06v-.18a2.11,2.11,0,0,0-2.17-2h0a2.47,2.47,0,0,0-2.49,2.29Z" transform="translate(0 0.01)"/><path class="a" d="M32.6,18.69a.31.31,0,0,1-.31-.18C31.29,15.57,29.11,9,28.05,6c0-.11,0-.21.18-.21h3.41c.18,0,.23.05.28.18,1.69,5.85,2.26,8.16,2.52,9.33h.06c.26-1.17.93-3.51,2.75-9.33a.23.23,0,0,1,.24-.18h3a.16.16,0,0,1,.18.14.29.29,0,0,1,0,.09c-1.15,3.07-3.29,9.69-4.33,12.48-.08.13-.13.21-.32.21Z" transform="translate(0 0.01)"/><path class="a" d="M42.22,2.36a2,2,0,0,1,2-2,1.88,1.88,0,0,1,2,1.75,1,1,0,0,1,0,.25,1.92,1.92,0,0,1-1.84,2h-.16a1.89,1.89,0,0,1-2-1.77ZM42.4,6c0-.13.05-.21.21-.21h3.2c.15,0,.2.05.2.21V18.46c0,.15,0,.23-.23.23H42.66c-.18,0-.26-.08-.26-.23Z" transform="translate(0 0.01)"/><path class="a" d="M52.05,13.18c.13,1.48,1.17,2.7,3.71,2.7a8,8,0,0,0,3.2-.6c.08,0,.16,0,.16.13v2.47c0,.19,0,.26-.18.32a8.75,8.75,0,0,1-4,.75c-4.89,0-6.61-3.35-6.61-6.58,0-3.59,2.21-6.86,6.3-6.86,3.92,0,5.48,3,5.48,5.61A7.9,7.9,0,0,1,60,12.87a.22.22,0,0,1-.21.2,21.68,21.68,0,0,1-2.67.11Zm3.38-2.49a7.08,7.08,0,0,0,1.3-.06v-.18a2.12,2.12,0,0,0-2.16-2.08H54.5A2.47,2.47,0,0,0,52,10.69Z" transform="translate(0 0.01)"/><path class="a" d="M73.26,18.69a.27.27,0,0,1-.31-.22h0c-1.3-5.31-1.72-7.7-2-9h0c-.65,2.86-1.17,5-2.26,9-.06.18-.14.23-.29.23H65.15c-.26,0-.31-.05-.37-.23L61.4,6c0-.13,0-.23.21-.23h3.31c.15,0,.2.05.23.18,1.38,5.62,1.74,8.11,1.92,9.2h.06c.2-.93.62-3.38,2.13-9.15,0-.15,0-.23.23-.23h3.43c.13,0,.18.05.21.18,1.37,5.74,1.74,8.27,1.93,9.31h0c.36-1.69.75-4.5,2-9.31a.22.22,0,0,1,.23-.18h3a.14.14,0,0,1,.16.14.17.17,0,0,1,0,.07L76.82,18.46c0,.18-.07.23-.31.23Z" transform="translate(0 0.01)"/><path class="a" d="M80.5,16.77a2.16,2.16,0,1,1,4.32,0A2,2,0,0,1,83,19a2.16,2.16,0,0,1-.36,0A2,2,0,0,1,80.5,17,1,1,0,0,1,80.5,16.77Z" transform="translate(0 0.01)"/><path class="a" d="M93.62,18.69c-.16,0-.21-.05-.21-.23V2c0-.13,0-.26.18-.26,2.34-.06,3.33-.08,5.44-.08,4.31,0,6.73,1.84,6.73,5.2a4.87,4.87,0,0,1-3.26,4.57c.86,1.17,3.8,5.59,4.6,7,.08.15.11.31-.07.31h-3.77c-.24,0-.32-.05-.37-.16-.75-1.14-2.39-3.92-3.46-5.69-.18-.31-.31-.44-.6-.44H97v6.08a.19.19,0,0,1-.17.21H93.62ZM99,9.33c2,0,3.2-.78,3.2-2.31s-1.3-2.27-3.23-2.27a17.76,17.76,0,0,0-2,.06V9.33Z" transform="translate(0 0.01)"/><path class="a" d="M111.17,13.18c.13,1.48,1.17,2.7,3.72,2.7a7.94,7.94,0,0,0,3.19-.6c.08,0,.16,0,.16.13v2.47c0,.19,0,.26-.18.32a8.75,8.75,0,0,1-4,.75c-4.89,0-6.6-3.35-6.6-6.58,0-3.59,2.21-6.86,6.29-6.86,3.92,0,5.48,3,5.48,5.61a8.54,8.54,0,0,1-.12,1.75.22.22,0,0,1-.21.2,21.84,21.84,0,0,1-2.68.11Zm3.38-2.49a7.08,7.08,0,0,0,1.3-.06v-.18a2.12,2.12,0,0,0-2.19-2h0a2.47,2.47,0,0,0-2.5,2.29Z" transform="translate(0 0.01)"/><path class="a" d="M124.64,18.69a.33.33,0,0,1-.32-.18c-1-2.94-3.17-9.54-4.23-12.53,0-.11,0-.21.18-.21h3.4c.19,0,.24.05.29.18,1.69,5.85,2.26,8.16,2.52,9.33h0c.26-1.17.94-3.51,2.76-9.33,0-.13.1-.18.23-.18h3a.16.16,0,0,1,.18.14.29.29,0,0,1,0,.09c-1.12,3.07-3.31,9.65-4.35,12.48a.3.3,0,0,1-.31.21Z" transform="translate(0 0.01)"/><path class="a" d="M134.26,2.36a1.94,1.94,0,0,1,1.88-2h.12a1.89,1.89,0,0,1,2,1.77v.23a1.92,1.92,0,0,1-1.84,2h-.16a1.89,1.89,0,0,1-2-1.77ZM134.44,6c0-.13.05-.21.21-.21h3.19c.16,0,.21.05.21.21V18.46c0,.15,0,.23-.23.23H134.7c-.18,0-.26-.08-.26-.23Z" transform="translate(0 0.01)"/><path class="a" d="M145.59,8.39c-1.22,0-1.61.45-1.61.89s.34.78,1.85,1.35C149,11.77,150,13,150,14.84,150,17.31,148,19,144.6,19a8.41,8.41,0,0,1-3.77-.73.31.31,0,0,1-.18-.28V15.13c0-.16.11-.24.21-.16a7.33,7.33,0,0,0,3.82,1c1.22,0,1.77-.34,1.77-.88s-.44-.86-2-1.43c-2.93-1.09-3.9-2.34-3.9-4.21s1.64-4,5.07-4A8.65,8.65,0,0,1,149,6a.34.34,0,0,1,.19.34v2.6c0,.15-.11.26-.26.18A8,8,0,0,0,145.59,8.39Z" transform="translate(0 0.01)"/><path class="a" d="M155.21,13.18c.13,1.48,1.17,2.7,3.72,2.7a8,8,0,0,0,3.2-.6c.08,0,.15,0,.15.13v2.47c0,.19-.05.26-.18.32a8.75,8.75,0,0,1-4,.75c-4.88,0-6.6-3.35-6.6-6.58,0-3.59,2.21-6.86,6.29-6.86s5.49,3,5.49,5.61a7.9,7.9,0,0,1-.13,1.75.22.22,0,0,1-.21.2,21.84,21.84,0,0,1-2.68.11Zm3.38-2.49a7.08,7.08,0,0,0,1.3-.06v-.18a2.11,2.11,0,0,0-2.17-2h0a2.45,2.45,0,0,0-2.49,2.29Z" transform="translate(0 0.01)"/><path class="a" d="M164.83,16.77a2.16,2.16,0,1,1,4.32,0,2,2,0,0,1-1.8,2.18,2.16,2.16,0,0,1-.36,0A2,2,0,0,1,164.83,17,1,1,0,0,1,164.83,16.77Z" transform="translate(0 0.01)"/><path class="a" d="M177.91,18.69c-.16,0-.21-.05-.21-.23V2c0-.13,0-.26.18-.26,2.34-.06,3.33-.08,5.44-.08,4.31,0,6.73,1.84,6.73,5.2a4.86,4.86,0,0,1-3.25,4.57c.86,1.17,3.8,5.59,4.6,7,.08.15.11.31-.07.31h-3.78c-.23,0-.31-.05-.36-.16-.75-1.14-2.39-3.92-3.46-5.69-.18-.31-.31-.44-.6-.44h-1.89v6.08a.19.19,0,0,1-.17.21h-3.16Zm5.33-9.36c1.95,0,3.2-.78,3.2-2.31s-1.3-2.27-3.23-2.27a17.86,17.86,0,0,0-2,.06V9.33Z" transform="translate(0 0.01)"/><path class="a" d="M195.5,13.18c.13,1.48,1.17,2.7,3.72,2.7a8,8,0,0,0,3.2-.6c.07,0,.15,0,.15.13v2.47c0,.19,0,.26-.18.32a8.75,8.75,0,0,1-4,.75c-4.89,0-6.6-3.35-6.6-6.58,0-3.59,2.21-6.86,6.29-6.86,3.92,0,5.48,3,5.48,5.61a8.54,8.54,0,0,1-.12,1.75.22.22,0,0,1-.21.2,21.84,21.84,0,0,1-2.68.11Zm3.34-2.49a7.08,7.08,0,0,0,1.3-.06v-.18a2.12,2.12,0,0,0-2.19-2h0a2.47,2.47,0,0,0-2.5,2.29Z" transform="translate(0 0.01)"/><path class="a" d="M204.87,8.78c-.13,0-.18-.07-.18-.2V6a.16.16,0,0,1,.14-.18h1.57V5.09A6.73,6.73,0,0,1,207,2.36,4.12,4.12,0,0,1,211,0a3.42,3.42,0,0,1,1.35.18c.16,0,.19.13.19.28v2.6c0,.11-.06.21-.21.16a2.51,2.51,0,0,0-.86-.1c-1,0-1.48.52-1.48,1.84v.81h2.21c.18,0,.21.08.21.18V8.58c0,.15,0,.18-.21.2H210v9.68c0,.13,0,.23-.24.23h-3.14a.21.21,0,0,1-.24-.18V8.78Zm9.07-6.37a1.93,1.93,0,0,1,1.86-2h.14a1.87,1.87,0,0,1,2,1.73,1.22,1.22,0,0,1,0,.27,2,2,0,0,1-4,0ZM214.07,6c0-.13.08-.21.24-.21h3.19c.15,0,.2.05.2.21V18.46c0,.15,0,.23-.23.23h-3.12c-.18,0-.29-.08-.29-.23Z" transform="translate(0 0.01)"/><path class="a" d="M220.68,8.78c0-.88-.05-2.23-.11-2.8,0-.13,0-.21.19-.21h2.74a.3.3,0,0,1,.33.21,3.11,3.11,0,0,1,.21.85,5.72,5.72,0,0,1,3.69-1.32c2,0,4.37,1,4.37,5.22v7.73c0,.15,0,.23-.23.23h-3.12c-.18,0-.26-.08-.26-.23V11.05c0-1.56-.68-2.4-2-2.4a3.17,3.17,0,0,0-2.16.81v9a.19.19,0,0,1-.19.21H221c-.18,0-.23-.08-.23-.23Z" transform="translate(0 0.01)"/><path class="a" d="M238.12,13.18c.13,1.48,1.17,2.7,3.72,2.7a8,8,0,0,0,3.2-.6c.08,0,.16,0,.16.13v2.47a.3.3,0,0,1-.19.32,8.75,8.75,0,0,1-4,.75c-4.89,0-6.61-3.35-6.61-6.58,0-3.59,2.21-6.86,6.29-6.86s5.49,3,5.49,5.61a7.9,7.9,0,0,1-.13,1.75.22.22,0,0,1-.21.2,21.84,21.84,0,0,1-2.68.11Zm3.38-2.49a7.08,7.08,0,0,0,1.3-.06v-.18a2.11,2.11,0,0,0-2.17-2h0a2.46,2.46,0,0,0-2.49,2.29Z" transform="translate(0 0.01)"/><path class="a" d="M247.74,16.77a2.16,2.16,0,0,1,4.32,0,2,2,0,0,1-1.8,2.18,2.16,2.16,0,0,1-.36,0A2,2,0,0,1,247.74,17,1,1,0,0,1,247.74,16.77Z" transform="translate(0 0.01)"/><path class="a" d="M1.58,48.69c-.16,0-.21,0-.21-.23V32c0-.13,0-.26.18-.26,2.34-.06,3.33-.08,5.44-.08,4.31,0,6.73,1.84,6.73,5.2a4.87,4.87,0,0,1-3.22,4.57c.86,1.17,3.8,5.59,4.6,7,.08.15.11.31-.07.31h-3.8c-.24,0-.32,0-.37-.16-.75-1.14-2.36-3.92-3.46-5.69-.18-.31-.31-.44-.59-.44H4.91v6.08a.19.19,0,0,1-.17.21H1.58Zm5.33-9.36c1.95,0,3.2-.78,3.2-2.31s-1.3-2.27-3.23-2.27a17.86,17.86,0,0,0-2,.06v4.52Z" transform="translate(0 0.01)"/><path class="a" d="M19.13,43.18c.13,1.48,1.17,2.7,3.72,2.7a8,8,0,0,0,3.2-.6c.07-.05.15,0,.15.13v2.47c0,.19-.05.26-.18.32A8.75,8.75,0,0,1,22,49c-4.89,0-6.6-3.35-6.6-6.58,0-3.59,2.21-6.86,6.29-6.86,3.93,0,5.49,3,5.49,5.61a9.32,9.32,0,0,1-.13,1.75.22.22,0,0,1-.21.2,21.84,21.84,0,0,1-2.68.11Zm3.37-2.49a7.08,7.08,0,0,0,1.3-.06v-.18a2.11,2.11,0,0,0-2.21-2,2.47,2.47,0,0,0-2.49,2.24Z" transform="translate(0 0.01)"/><path class="a" d="M29.5,38.78c0-.88-.05-2.23-.1-2.8,0-.13,0-.21.18-.21h2.73a.32.32,0,0,1,.34.21,3.51,3.51,0,0,1,.2.85,5.74,5.74,0,0,1,3.7-1.32c2,0,4.36,1,4.36,5.22v7.73c0,.15,0,.23-.23.23H37.59c-.18,0-.26-.08-.26-.23V41.05c0-1.56-.68-2.4-2-2.4a3.17,3.17,0,0,0-2.16.81v9c0,.13-.07.21-.23.21H29.76c-.18,0-.23-.08-.23-.23Z" transform="translate(0 0.01)"/><path class="a" d="M47,43.18c.13,1.48,1.17,2.7,3.71,2.7a8,8,0,0,0,3.2-.6c.08-.05.16,0,.16.13v2.47c0,.19,0,.26-.18.32a8.75,8.75,0,0,1-4,.75c-4.89,0-6.61-3.35-6.61-6.58,0-3.59,2.21-6.86,6.3-6.86,3.92,0,5.48,3,5.48,5.61a7.9,7.9,0,0,1-.13,1.75.22.22,0,0,1-.21.2,21.68,21.68,0,0,1-2.67.11Zm3.38-2.49a7.08,7.08,0,0,0,1.3-.06v-.18a2.12,2.12,0,0,0-2.21-2A2.47,2.47,0,0,0,47,40.69Z" transform="translate(0 0.01)"/><path class="a" d="M68.19,48.69a.27.27,0,0,1-.31-.22h0c-1.3-5.31-1.72-7.7-2-9h0c-.65,2.86-1.17,5-2.26,9-.06.18-.13.23-.29.23H60.08c-.26,0-.31,0-.37-.23L56.33,36c0-.13,0-.23.21-.23h3.3c.16,0,.21,0,.24.18,1.38,5.62,1.74,8.11,1.92,9.2h.06c.2-.93.62-3.38,2.13-9.15,0-.15,0-.23.23-.23h3.43a.18.18,0,0,1,.21.15v0c1.38,5.75,1.74,8.27,1.93,9.31H70c.36-1.69.75-4.5,2-9.31a.22.22,0,0,1,.23-.18h3a.14.14,0,0,1,.16.14.17.17,0,0,1,0,.07L71.75,48.46c0,.18-.07.23-.31.23Z" transform="translate(0 0.01)"/><path class="a" d="M86.36,44.63l-1.24,3.85a.29.29,0,0,1-.29.21h-3c-.18,0-.23-.1-.2-.26l5.2-15a5,5,0,0,0,.26-1.59.17.17,0,0,1,.15-.18H91.4c.13,0,.18,0,.21.16L97.5,48.46c.06.13,0,.23-.13.23H94a.26.26,0,0,1-.28-.18l-1.33-3.88Zm5-3.25c-.52-1.71-1.56-4.86-2.06-6.7h0c-.42,1.74-1.35,4.6-2,6.7Z" transform="translate(0 0.01)"/><path class="a" d="M108.18,48.33c0,.13,0,.18-.13.2a8,8,0,0,1-2.91.42c-4.22,0-6.87-2.83-6.87-6.66s2.94-6.78,7.36-6.78a7.16,7.16,0,0,1,2.39.28c.13.06.16.13.16.29v2.68c0,.18-.1.21-.2.18a6.53,6.53,0,0,0-2.19-.31c-2.18,0-3.77,1.19-3.77,3.53,0,2.71,2,3.59,3.82,3.59a8.72,8.72,0,0,0,2.16-.23c.16,0,.21,0,.21.1Z" transform="translate(0 0.01)"/><path class="a" d="M113.25,35.77a.29.29,0,0,1,.31.23,5.19,5.19,0,0,1,.29,1.46,5.39,5.39,0,0,1,4.13-2c.16,0,.21,0,.21.21v3.19c0,.13,0,.19-.23.19A5.34,5.34,0,0,0,114,40.16v8.27c0,.16,0,.21-.23.21h-3.12c-.21,0-.26-.08-.26-.23v-9a30.36,30.36,0,0,0-.13-3.54c0-.13,0-.18.15-.18Z" transform="translate(0 0.01)"/><path class="a" d="M132.15,42.16c0,4.09-2.65,6.79-6.4,6.79-4.44,0-6.42-3.35-6.42-6.71,0-3.69,2.47-6.73,6.48-6.73C130,35.51,132.15,38.69,132.15,42.16Zm-9.15,0c0,2.29,1.06,3.74,2.81,3.74,1.5,0,2.65-1.3,2.65-3.69,0-2-.83-3.72-2.81-3.72-1.51,0-2.65,1.39-2.65,3.7Z" transform="translate(0 0.01)"/><path class="a" d="M137.84,30.26c.21,0,.26,0,.26.2v5.33a8.49,8.49,0,0,1,2.19-.28,6,6,0,0,1,6.21,5.78v.4c0,4.86-3.85,7.25-7.8,7.25a13.44,13.44,0,0,1-4.08-.6.29.29,0,0,1-.16-.26V30.44c0-.13,0-.18.18-.18Zm1.8,8.32a5.71,5.71,0,0,0-1.54.2v7a3.74,3.74,0,0,0,1,.1,3.59,3.59,0,0,0,3.78-3.37,3.13,3.13,0,0,0,0-.53C142.84,39.69,141.5,38.58,139.64,38.58Z" transform="translate(0 0.01)"/><path class="a" d="M159,45.8c0,.68,0,1.23.05,1.85,0,0,0,.1-.05.13A14.35,14.35,0,0,1,153.34,49c-2.89,0-5.25-1.33-5.25-4.34,0-2.76,2.42-4.21,5.87-4.21a13.19,13.19,0,0,1,1.54,0v-.18c0-.5-.31-1.64-2.5-1.64a8.42,8.42,0,0,0-3.43.7.16.16,0,0,1-.21-.05.19.19,0,0,1,0-.08V36.57a.23.23,0,0,1,.18-.26,9.87,9.87,0,0,1,4.08-.8c3.74,0,5.41,2.31,5.41,5.28Zm-3.51-2.67a8.11,8.11,0,0,0-1.3-.08c-1.85,0-2.6.6-2.6,1.53s.65,1.56,2.29,1.56a5.45,5.45,0,0,0,1.61-.23Z" transform="translate(0 0.01)"/><path class="a" d="M168.37,48.25c0,.15,0,.28-.18.34a6.55,6.55,0,0,1-2.32.36c-2.26,0-3.59-1.12-3.59-3.72V38.78h-1.56c-.15,0-.2-.07-.2-.23V36c0-.18,0-.23.23-.23h1.56a30.17,30.17,0,0,1,.26-3.15.28.28,0,0,1,.23-.23l3-.39c.13,0,.2,0,.2.15-.07.81-.13,2.34-.13,3.62h2.4c.15,0,.2,0,.2.21V38.6c0,.13-.05.16-.18.18H165.9v5.57c0,1.14.34,1.66,1.4,1.66a5.27,5.27,0,0,0,.89-.1c.1,0,.18,0,.18.18Z" transform="translate(0 0.01)"/><path class="a" d="M176.69,31.89c0-.15,0-.2.15-.2,1.07,0,3.12-.08,5.1-.08,5.25,0,7.07,2.91,7.07,5.74,0,4.22-3.25,6-7.25,6h-1.48v5.12a.19.19,0,0,1-.17.21h-3.24c-.13,0-.18-.08-.18-.21Zm3.59,8.27h1.45c2.06,0,3.69-.63,3.69-2.76,0-1.64-1.12-2.68-3.38-2.68a12,12,0,0,0-1.76.06Z" transform="translate(0 0.01)"/><path class="a" d="M194,35.77a.29.29,0,0,1,.31.23,5.19,5.19,0,0,1,.29,1.46,5.39,5.39,0,0,1,4.13-2c.16,0,.21,0,.21.21v3.19c0,.13-.05.19-.23.19a5.38,5.38,0,0,0-3.93,1.11v8.27c0,.16-.05.21-.23.21h-3.12c-.21,0-.26-.08-.26-.23v-9a30.36,30.36,0,0,0-.13-3.54c0-.13,0-.18.16-.18Z" transform="translate(0 0.01)"/><path class="a" d="M212.93,42.16c0,4.09-2.65,6.79-6.4,6.79-4.44,0-6.42-3.35-6.42-6.71,0-3.69,2.47-6.73,6.48-6.73C210.77,35.51,212.93,38.69,212.93,42.16Zm-9.15,0c0,2.29,1.06,3.74,2.81,3.74,1.5,0,2.65-1.3,2.65-3.69,0-2-.83-3.72-2.81-3.72-1.51,0-2.65,1.39-2.65,3.7Z" transform="translate(0 0.01)"/><path class="a" d="M221.5,31.89c0-.13,0-.18.19-.2.78,0,2.75-.08,5.07-.08,6.21,0,9.25,3.48,9.25,8.29,0,6.22-4.78,8.84-9.2,8.84h-5.15c-.1,0-.16-.08-.16-.26Zm3.62,13.68h1.53c3.41,0,5.64-2,5.64-5.67s-2.23-5.2-5.56-5.2h-1.61Z" transform="translate(0 0.01)"/><path class="a" d="M250.84,48.12c0,.18-.05.31-.21.36A11.31,11.31,0,0,1,247,49c-5.05,0-9-3-9-8.68,0-5.28,3.65-8.87,9.39-8.87a8.64,8.64,0,0,1,3.38.44.3.3,0,0,1,.18.31V35c0,.23-.13.23-.23.18a8.14,8.14,0,0,0-3.38-.57c-3.48,0-5.62,2.16-5.62,5.54,0,4,3,5.59,5.7,5.59a9.74,9.74,0,0,0,3.17-.42c.13,0,.21,0,.21.13Z" transform="translate(0 0.01)"/><path class="a" d="M253.5,46.77a2.16,2.16,0,0,1,4.32,0A2,2,0,0,1,256,49h-.36A2,2,0,0,1,253.5,47,1,1,0,0,1,253.5,46.77Z" transform="translate(0 0.01)"/></svg>