<svg xmlns="http://www.w3.org/2000/svg" viewBox="0 0 257.86 209.7"><defs><style>.a{fill:#fff;}.b{isolation:isolate;}</style></defs><title>F1_copy-cta-logo</title><path class="a" d="M19.33,177H30.07v25.71Z" transform="translate(-0.5 -7.31)"/><path class="a" d="M11.77,177H1v25.71Z" transform="translate(-0.5 -7.31)"/><path class="a" d="M15.55,186.47l6.84,16.24H17.91l-2.05-5.17h-5Z" transform="translate(-0.5 -7.31)"/><path class="a" d="M4.76,213c-.21-1.05-.58-2.62-.72-3.64H4c-.15,1-.42,2.38-.66,3.64Zm-1.7,1.53-.48,2.24c0,.08,0,.1-.11.1H1.1c-.09,0-.12,0-.1-.15l1.88-8.1a3,3,0,0,0,.05-.79.08.08,0,0,1,.07-.08H5c.07,0,.1,0,.12.1l2.19,8.9c0,.08,0,.11-.09.11H5.67a.1.1,0,0,1-.11-.08v0l-.5-2.23Z" transform="translate(-0.5 -7.31)"/><path class="a" d="M10.9,211.25a1.1,1.1,0,0,0-.31,0c-.8,0-1.39.72-1.39,2.14s.59,2.12,1.37,2.12a1.24,1.24,0,0,0,.33,0ZM7.52,213.4c0-2.06,1.21-3.66,3.15-3.66h.23v-2.43a.07.07,0,0,1,.08-.08H12.5c.06,0,.07,0,.07.08v8.15a6.11,6.11,0,0,0,0,.95.11.11,0,0,1-.06.1,4.73,4.73,0,0,1-2.05.5C8.72,217,7.52,215.83,7.52,213.4Z" transform="translate(-0.5 -7.31)"/><path class="a" d="M15.13,213.35c0,1.31.29,2.18.92,2.18s.91-.74.91-2.17-.23-2.15-.9-2.15S15.13,211.88,15.13,213.35Zm3.49,0c0,2.23-.93,3.65-2.57,3.65-1.85,0-2.58-1.61-2.58-3.67s.94-3.6,2.61-3.6,2.55,1.34,2.55,3.61Z" transform="translate(-0.5 -7.31)"/><path class="a" d="M21.7,211.24a1.75,1.75,0,0,0-.51.07v4.18a1,1,0,0,0,.3,0c.64,0,1.39-.65,1.4-2.4C22.9,211.73,22.35,211.24,21.7,211.24Zm-.58-4c.06,0,.07,0,.07.09v2.5a3.29,3.29,0,0,1,.76-.09c1.48,0,2.59,1.14,2.59,3.33,0,2.56-1.45,3.94-3.28,3.94a5.47,5.47,0,0,1-1.65-.26.13.13,0,0,1-.08-.11v-9.31a.06.06,0,0,1,.06-.08h1.53Z" transform="translate(-0.5 -7.31)"/><path class="a" d="M28,212.43a2,2,0,0,0,.42,0,.38.38,0,0,0,0-.15c0-.54-.16-1.1-.75-1.1s-.79.58-.86,1.27Zm-1.2,1.33c0,1.09.41,1.75,1.55,1.75a2.66,2.66,0,0,0,1.08-.2c.07,0,.11,0,.11.07v1.17c0,.1,0,.16-.1.19a3,3,0,0,1-1.4.25c-2.07,0-2.88-1.52-2.88-3.52s.93-3.74,2.59-3.74,2.25,1.55,2.25,2.8A7.69,7.69,0,0,1,30,213.6a.14.14,0,0,1-.13.11c-.14,0-.58,0-1.34,0Z" transform="translate(-0.5 -7.31)"/><path class="a" d="M77,117.5H19a18.5,18.5,0,0,1,0-37H77a18.5,18.5,0,0,1,0,37Zm-58-36a17.5,17.5,0,0,0,0,35H77a17.5,17.5,0,0,0,0-35Z" transform="translate(-0.5 -7.31)"/><path class="a" d="M77,117H19a18,18,0,0,1,0-36H77a18,18,0,0,1,0,36ZM19,83a16,16,0,0,0,0,32H77a16,16,0,0,0,0-32Z" transform="translate(-0.5 -7.31)"/><g class="b"><g class="b"><path class="a" d="M20,103a.23.23,0,0,1-.1-.22v-1.67A.07.07,0,0,1,20,101a4.81,4.81,0,0,0,2.53.73c1.07,0,1.49-.36,1.49-.85s-.33-.77-1.28-1.18l-.7-.29c-1.72-.73-2.2-1.6-2.2-2.69C19.81,95.24,21,94,23.19,94a5.27,5.27,0,0,1,2.18.36.19.19,0,0,1,.09.19v1.56c0,.06-.05.13-.13.07a4.45,4.45,0,0,0-2.16-.46c-1.08,0-1.45.37-1.45.83s.29.73,1.34,1.15l.52.21c1.86.77,2.38,1.65,2.38,2.78,0,1.7-1.37,2.76-3.53,2.76A5.45,5.45,0,0,1,20,103Z" transform="translate(-0.5 -7.31)"/><path class="a" d="M32.86,101.8c0,.36,0,.66,0,1,0,0,0,.06,0,.07a7.63,7.63,0,0,1-3.05.63c-1.56,0-2.83-.71-2.83-2.34s1.3-2.26,3.17-2.26a8.15,8.15,0,0,1,.82,0v-.09c0-.27-.17-.89-1.34-.89a4.46,4.46,0,0,0-1.85.38.08.08,0,0,1-.13-.07V96.83a.12.12,0,0,1,.1-.14,5.18,5.18,0,0,1,2.2-.44,2.64,2.64,0,0,1,2.91,2.85ZM31,100.36a4.79,4.79,0,0,0-.7,0c-1,0-1.4.33-1.4.83s.35.84,1.23.84a2.65,2.65,0,0,0,.87-.13Z" transform="translate(-0.5 -7.31)"/><path class="a" d="M36,103.35a.16.16,0,0,1-.16-.09c-.54-1.59-1.71-5.15-2.29-6.76a.09.09,0,0,1,.1-.11h1.84a.14.14,0,0,1,.15.1c.91,3.15,1.22,4.4,1.36,5h0c.14-.63.5-1.89,1.48-5,0-.07.06-.1.13-.1h1.62c.06,0,.11,0,.09.13-.61,1.65-1.78,5.2-2.34,6.72a.17.17,0,0,1-.17.11Z" transform="translate(-0.5 -7.31)"/><path class="a" d="M42.74,100.38c.07.8.63,1.46,2,1.46a4.39,4.39,0,0,0,1.72-.32s.08,0,.08.07v1.33c0,.1,0,.14-.09.17a4.81,4.81,0,0,1-2.15.4A3.28,3.28,0,0,1,40.76,100a3.42,3.42,0,0,1,3.39-3.7,2.86,2.86,0,0,1,3,3,4.73,4.73,0,0,1-.07.94c0,.07,0,.09-.11.11a13.1,13.1,0,0,1-1.44,0ZM44.57,99a5.21,5.21,0,0,0,.7,0v-.1a1.14,1.14,0,0,0-1.19-1.11A1.33,1.33,0,0,0,42.73,99Z" transform="translate(-0.5 -7.31)"/><path class="a" d="M52.77,99.61c-.07,0-.11,0-.11-.09V98.05c0-.09,0-.15.09-.15h.77c.93,0,1.43-.25,1.43-.86s-.5-1-1.48-1a4.25,4.25,0,0,0-2,.51c-.09,0-.1,0-.1,0V95.06c0-.07,0-.1.07-.15a5.24,5.24,0,0,1,2.44-.53c1.83,0,3,.92,3,2.39a2,2,0,0,1-1.18,1.81,2.2,2.2,0,0,1,1.58,2.17c0,1.78-1.65,2.74-3.58,2.74a5.31,5.31,0,0,1-2.35-.43c-.1,0-.1-.13-.1-.2v-1.59a.07.07,0,0,1,.12-.06,4.88,4.88,0,0,0,2.24.58c1.21,0,1.67-.48,1.67-1.11s-.48-1.07-1.57-1.07Z" transform="translate(-0.5 -7.31)"/><path class="a" d="M58.31,98.91c0-2.64,1.22-4.53,3.36-4.53,2.62,0,3.32,2.35,3.32,4.53,0,2.4-.94,4.58-3.32,4.58S58.31,101.49,58.31,98.91Zm1.95,0c0,1.93.47,3,1.41,3s1.38-1,1.38-2.93S62.58,96,61.64,96,60.26,96.85,60.26,98.86Z" transform="translate(-0.5 -7.31)"/><path class="a" d="M70.75,97a2.39,2.39,0,0,1-2.36,2.56A2.25,2.25,0,0,1,66,97a2.4,2.4,0,0,1,2.37-2.63C70,94.38,70.75,95.47,70.75,97Zm-2.32,1.27c.52,0,.86-.45.86-1.27s-.34-1.32-.87-1.32-.9.41-.9,1.3C67.52,97.68,67.82,98.24,68.43,98.24Zm.79,5c-.06.08-.1.08-.21.08H67.79c-.06,0-.11-.07,0-.12l6.16-8.63a.2.2,0,0,1,.17-.08h1.22a.05.05,0,0,1,0,.09Zm7.87-2.35a2.39,2.39,0,0,1-2.35,2.57A2.27,2.27,0,0,1,72.37,101a2.4,2.4,0,0,1,2.37-2.62A2.28,2.28,0,0,1,77.09,100.92Zm-2.32,1.27c.51,0,.85-.42.85-1.27s-.32-1.31-.87-1.31-.9.42-.9,1.31C73.85,101.66,74.16,102.19,74.77,102.19Z" transform="translate(-0.5 -7.31)"/></g></g><g class="b"><g class="b"><path class="a" d="M2.08,26c-.16,0-.21-.05-.21-.23V9.26c0-.13,0-.26.18-.26,2.34-.06,3.33-.08,5.44-.08,4.31,0,6.73,1.84,6.73,5.2A4.87,4.87,0,0,1,11,18.69c.86,1.17,3.8,5.59,4.6,7,.08.15.11.31-.07.31H11.73c-.24,0-.32-.05-.37-.16C10.61,24.7,9,21.92,7.9,20.15c-.18-.31-.31-.44-.59-.44H5.41v6.08A.19.19,0,0,1,5.2,26Zm5.33-9.36c1.95,0,3.2-.78,3.2-2.31s-1.3-2.27-3.23-2.27c-.85,0-1.58,0-2,.06v4.52Z" transform="translate(-0.5 -7.31)"/><path class="a" d="M19.63,20.49c.13,1.48,1.17,2.7,3.72,2.7a8,8,0,0,0,3.2-.6c.07-.05.15,0,.15.13v2.47c0,.19-.05.26-.18.32a8.78,8.78,0,0,1-4,.75c-4.89,0-6.6-3.35-6.6-6.58,0-3.59,2.21-6.86,6.29-6.86,3.93,0,5.49,3,5.49,5.61a9,9,0,0,1-.13,1.75.22.22,0,0,1-.21.2,21.81,21.81,0,0,1-2.68.11ZM23,18a7.33,7.33,0,0,0,1.3-.06v-.18a2.11,2.11,0,0,0-2.21-2.05A2.47,2.47,0,0,0,19.6,18Z" transform="translate(-0.5 -7.31)"/><path class="a" d="M33.1,26a.31.31,0,0,1-.31-.18c-1-2.94-3.18-9.54-4.24-12.53,0-.11,0-.21.18-.21h3.41c.18,0,.23.05.28.18,1.69,5.85,2.26,8.16,2.52,9.33H35c.26-1.17.93-3.51,2.75-9.33a.23.23,0,0,1,.24-.18h3a.16.16,0,0,1,.16.23C40,16.38,37.86,23,36.82,25.79c-.08.13-.13.21-.32.21Z" transform="translate(-0.5 -7.31)"/><path class="a" d="M42.72,9.67a2,2,0,0,1,2-2,1.88,1.88,0,0,1,2,2,1.92,1.92,0,0,1-2,2A1.89,1.89,0,0,1,42.72,9.67Zm.18,3.62c0-.13.05-.21.21-.21h3.2c.15,0,.2.05.2.21V25.77c0,.15,0,.23-.23.23H43.16c-.18,0-.26-.08-.26-.23Z" transform="translate(-0.5 -7.31)"/><path class="a" d="M52.55,20.49c.13,1.48,1.17,2.7,3.71,2.7a8,8,0,0,0,3.2-.6c.08-.05.16,0,.16.13v2.47c0,.19,0,.26-.18.32a8.81,8.81,0,0,1-4,.75c-4.89,0-6.61-3.35-6.61-6.58,0-3.59,2.21-6.86,6.3-6.86,3.92,0,5.48,3,5.48,5.61a8.28,8.28,0,0,1-.13,1.75.21.21,0,0,1-.21.2,21.47,21.47,0,0,1-2.67.11ZM55.93,18a7.42,7.42,0,0,0,1.3-.06v-.18A2.12,2.12,0,0,0,55,15.68,2.47,2.47,0,0,0,52.52,18Z" transform="translate(-0.5 -7.31)"/><path class="a" d="M73.76,26a.27.27,0,0,1-.31-.23c-1.3-5.31-1.72-7.7-2-9h0c-.65,2.86-1.17,5-2.26,9-.06.18-.14.23-.29.23H65.65c-.26,0-.31-.05-.37-.23L61.9,13.31c0-.13,0-.23.21-.23h3.31c.15,0,.2.05.23.18,1.38,5.62,1.74,8.11,1.92,9.2h.06c.2-.93.62-3.38,2.13-9.15,0-.15,0-.23.23-.23h3.43c.13,0,.18.05.21.18C75,19,75.37,21.53,75.56,22.57h0c.36-1.69.75-4.5,2-9.31a.21.21,0,0,1,.23-.18h3a.15.15,0,0,1,.15.21L77.32,25.77c0,.18-.07.23-.31.23Z" transform="translate(-0.5 -7.31)"/><path class="a" d="M81,24.08a2.16,2.16,0,0,1,4.32,0,2,2,0,0,1-2.16,2.18A2.05,2.05,0,0,1,81,24.08Z" transform="translate(-0.5 -7.31)"/><path class="a" d="M94.12,26c-.16,0-.21-.05-.21-.23V9.26c0-.13,0-.26.18-.26,2.34-.06,3.33-.08,5.44-.08,4.31,0,6.73,1.84,6.73,5.2A4.87,4.87,0,0,1,103,18.69c.86,1.17,3.8,5.59,4.6,7,.08.15.11.31-.07.31h-3.77c-.24,0-.32-.05-.37-.16-.75-1.14-2.39-3.92-3.46-5.69-.18-.31-.31-.44-.6-.44H97.45v6.08a.19.19,0,0,1-.21.21Zm5.33-9.36c2,0,3.2-.78,3.2-2.31s-1.3-2.27-3.23-2.27c-.86,0-1.58,0-2,.06v4.52Z" transform="translate(-0.5 -7.31)"/><path class="a" d="M111.67,20.49c.13,1.48,1.17,2.7,3.72,2.7a7.92,7.92,0,0,0,3.19-.6c.08-.05.16,0,.16.13v2.47c0,.19,0,.26-.18.32a8.81,8.81,0,0,1-4,.75c-4.89,0-6.6-3.35-6.6-6.58,0-3.59,2.21-6.86,6.29-6.86,3.92,0,5.48,3,5.48,5.61a9.28,9.28,0,0,1-.12,1.75.22.22,0,0,1-.21.2,21.81,21.81,0,0,1-2.68.11ZM115.05,18a7.42,7.42,0,0,0,1.3-.06v-.18a2.12,2.12,0,0,0-2.21-2.05,2.47,2.47,0,0,0-2.5,2.29Z" transform="translate(-0.5 -7.31)"/><path class="a" d="M125.14,26a.32.32,0,0,1-.32-.18c-1-2.94-3.17-9.54-4.23-12.53,0-.11,0-.21.18-.21h3.4c.19,0,.24.05.29.18,1.69,5.85,2.26,8.16,2.52,9.33h0c.26-1.17.94-3.51,2.76-9.33.05-.13.1-.18.23-.18h3a.16.16,0,0,1,.16.23c-1.12,3.07-3.31,9.65-4.35,12.48a.31.31,0,0,1-.31.21Z" transform="translate(-0.5 -7.31)"/><path class="a" d="M134.76,9.67a1.94,1.94,0,0,1,2-2,1.89,1.89,0,0,1,2,2,1.92,1.92,0,0,1-2,2A1.89,1.89,0,0,1,134.76,9.67Zm.18,3.62c0-.13.05-.21.21-.21h3.19c.16,0,.21.05.21.21V25.77c0,.15,0,.23-.23.23H135.2c-.18,0-.26-.08-.26-.23Z" transform="translate(-0.5 -7.31)"/><path class="a" d="M146.09,15.7c-1.22,0-1.61.45-1.61.89s.34.78,1.85,1.35c3.14,1.14,4.13,2.37,4.13,4.21,0,2.47-1.92,4.11-5.36,4.11a8.46,8.46,0,0,1-3.77-.73.3.3,0,0,1-.18-.28V22.44c0-.16.11-.24.21-.16a7.33,7.33,0,0,0,3.82,1c1.22,0,1.77-.34,1.77-.88s-.44-.86-2-1.43c-2.93-1.09-3.9-2.34-3.9-4.21,0-2,1.64-4,5.07-4a8.62,8.62,0,0,1,3.38.52.34.34,0,0,1,.19.34v2.6c0,.15-.11.26-.26.18A8,8,0,0,0,146.09,15.7Z" transform="translate(-0.5 -7.31)"/><path class="a" d="M155.71,20.49c.13,1.48,1.17,2.7,3.72,2.7a8,8,0,0,0,3.2-.6c.08-.05.15,0,.15.13v2.47c0,.19-.05.26-.18.32a8.78,8.78,0,0,1-4,.75c-4.88,0-6.6-3.35-6.6-6.58,0-3.59,2.21-6.86,6.29-6.86,3.93,0,5.49,3,5.49,5.61a8.28,8.28,0,0,1-.13,1.75.22.22,0,0,1-.21.2,21.81,21.81,0,0,1-2.68.11ZM159.09,18a7.33,7.33,0,0,0,1.3-.06v-.18a2.11,2.11,0,0,0-2.21-2.05A2.45,2.45,0,0,0,155.69,18Z" transform="translate(-0.5 -7.31)"/><path class="a" d="M165.33,24.08a2.16,2.16,0,1,1,4.32,0,2,2,0,0,1-2.16,2.18A2.05,2.05,0,0,1,165.33,24.08Z" transform="translate(-0.5 -7.31)"/><path class="a" d="M178.41,26c-.16,0-.21-.05-.21-.23V9.26c0-.13,0-.26.18-.26,2.34-.06,3.33-.08,5.44-.08,4.31,0,6.73,1.84,6.73,5.2a4.87,4.87,0,0,1-3.25,4.57c.86,1.17,3.8,5.59,4.6,7,.08.15.11.31-.07.31h-3.78c-.23,0-.31-.05-.36-.16-.75-1.14-2.39-3.92-3.46-5.69-.18-.31-.31-.44-.6-.44h-1.89v6.08a.19.19,0,0,1-.21.21Zm5.33-9.36c1.95,0,3.2-.78,3.2-2.31s-1.3-2.27-3.23-2.27c-.85,0-1.58,0-2,.06v4.52Z" transform="translate(-0.5 -7.31)"/><path class="a" d="M196,20.49c.13,1.48,1.17,2.7,3.72,2.7a8,8,0,0,0,3.2-.6c.07-.05.15,0,.15.13v2.47c0,.19-.05.26-.18.32a8.81,8.81,0,0,1-4,.75c-4.89,0-6.6-3.35-6.6-6.58,0-3.59,2.21-6.86,6.29-6.86,3.92,0,5.48,3,5.48,5.61a9.28,9.28,0,0,1-.12,1.75.22.22,0,0,1-.21.2,21.81,21.81,0,0,1-2.68.11ZM199.34,18a7.33,7.33,0,0,0,1.3-.06v-.18a2.12,2.12,0,0,0-2.21-2.05,2.47,2.47,0,0,0-2.5,2.29Z" transform="translate(-0.5 -7.31)"/><path class="a" d="M205.37,16.09c-.13,0-.18-.07-.18-.2V13.26a.16.16,0,0,1,.18-.18h1.53V12.4a6.72,6.72,0,0,1,.55-2.73,4.12,4.12,0,0,1,4.08-2.36,3.32,3.32,0,0,1,1.35.18c.16,0,.19.13.19.28v2.6c0,.11-.06.21-.21.16a2.59,2.59,0,0,0-.86-.1c-1,0-1.48.52-1.48,1.84v.81h2.21c.18,0,.21.08.21.18v2.63c0,.15,0,.18-.21.2h-2.21v9.68c0,.13,0,.23-.24.23h-3.14a.21.21,0,0,1-.24-.23V16.09Zm9.07-6.37a1.93,1.93,0,0,1,2-2,1.87,1.87,0,0,1,2,2,2,2,0,0,1-4,0Zm.13,3.57c0-.13.08-.21.24-.21H218c.15,0,.2.05.2.21V25.77c0,.15-.05.23-.23.23h-3.12c-.18,0-.29-.08-.29-.23Z" transform="translate(-0.5 -7.31)"/><path class="a" d="M221.18,16.09c0-.88-.05-2.23-.11-2.8,0-.13,0-.21.19-.21H224a.3.3,0,0,1,.33.21,2.85,2.85,0,0,1,.21.85,5.72,5.72,0,0,1,3.69-1.32c2,0,4.37,1,4.37,5.22v7.73c0,.15-.05.23-.23.23h-3.12c-.18,0-.26-.08-.26-.23V18.36c0-1.56-.68-2.4-2-2.4a3.19,3.19,0,0,0-2.16.81v9a.2.2,0,0,1-.23.21h-3.15c-.18,0-.23-.08-.23-.23Z" transform="translate(-0.5 -7.31)"/><path class="a" d="M238.62,20.49c.13,1.48,1.17,2.7,3.72,2.7a8,8,0,0,0,3.2-.6c.08-.05.16,0,.16.13v2.47a.29.29,0,0,1-.19.32,8.76,8.76,0,0,1-4,.75c-4.89,0-6.61-3.35-6.61-6.58,0-3.59,2.21-6.86,6.29-6.86,3.93,0,5.49,3,5.49,5.61a8.28,8.28,0,0,1-.13,1.75.22.22,0,0,1-.21.2,21.68,21.68,0,0,1-2.68.11ZM242,18a7.23,7.23,0,0,0,1.3-.06v-.18a2.11,2.11,0,0,0-2.21-2.05A2.46,2.46,0,0,0,238.6,18Z" transform="translate(-0.5 -7.31)"/><path class="a" d="M248.24,24.08a2.16,2.16,0,0,1,4.32,0,2,2,0,0,1-2.16,2.18A2.05,2.05,0,0,1,248.24,24.08Z" transform="translate(-0.5 -7.31)"/></g><g class="b"><path class="a" d="M2.08,56c-.16,0-.21,0-.21-.23V39.26c0-.13,0-.26.18-.26,2.34-.06,3.33-.08,5.44-.08,4.31,0,6.73,1.84,6.73,5.2A4.87,4.87,0,0,1,11,48.69c.86,1.17,3.8,5.59,4.6,7,.08.15.11.31-.07.31H11.73c-.24,0-.32,0-.37-.16C10.61,54.7,9,51.92,7.9,50.15c-.18-.31-.31-.44-.59-.44H5.41v6.08A.19.19,0,0,1,5.2,56Zm5.33-9.36c1.95,0,3.2-.78,3.2-2.31s-1.3-2.27-3.23-2.27c-.85,0-1.58,0-2,.06v4.52Z" transform="translate(-0.5 -7.31)"/><path class="a" d="M19.63,50.49c.13,1.48,1.17,2.7,3.72,2.7a8,8,0,0,0,3.2-.6c.07-.05.15,0,.15.13v2.47c0,.19-.05.26-.18.32a8.78,8.78,0,0,1-4,.75c-4.89,0-6.6-3.35-6.6-6.58,0-3.59,2.21-6.86,6.29-6.86,3.93,0,5.49,3,5.49,5.61a9,9,0,0,1-.13,1.75.22.22,0,0,1-.21.2,21.81,21.81,0,0,1-2.68.11ZM23,48a7.33,7.33,0,0,0,1.3-.06v-.18a2.11,2.11,0,0,0-2.21-2A2.47,2.47,0,0,0,19.6,48Z" transform="translate(-0.5 -7.31)"/><path class="a" d="M30,46.09c0-.88-.05-2.23-.1-2.8,0-.13,0-.21.18-.21h2.73a.31.31,0,0,1,.34.21,3.22,3.22,0,0,1,.2.85,5.75,5.75,0,0,1,3.7-1.32c2,0,4.36,1,4.36,5.22v7.73c0,.15,0,.23-.23.23H38.09c-.18,0-.26-.08-.26-.23V48.36c0-1.56-.68-2.4-2-2.4a3.19,3.19,0,0,0-2.16.81v9c0,.13-.07.21-.23.21H30.26c-.18,0-.23-.08-.23-.23Z" transform="translate(-0.5 -7.31)"/><path class="a" d="M47.48,50.49c.13,1.48,1.17,2.7,3.71,2.7a8,8,0,0,0,3.2-.6c.08-.05.16,0,.16.13v2.47c0,.19,0,.26-.18.32a8.81,8.81,0,0,1-4,.75c-4.89,0-6.61-3.35-6.61-6.58,0-3.59,2.21-6.86,6.3-6.86,3.92,0,5.48,3,5.48,5.61a8.28,8.28,0,0,1-.13,1.75.21.21,0,0,1-.21.2,21.47,21.47,0,0,1-2.67.11ZM50.86,48a7.42,7.42,0,0,0,1.3-.06v-.18a2.12,2.12,0,0,0-2.21-2A2.47,2.47,0,0,0,47.45,48Z" transform="translate(-0.5 -7.31)"/><path class="a" d="M68.69,56a.27.27,0,0,1-.31-.23c-1.3-5.31-1.72-7.7-2-9h0c-.65,2.86-1.17,5-2.26,9-.06.18-.13.23-.29.23H60.58c-.26,0-.31,0-.37-.23L56.83,43.31c0-.13,0-.23.21-.23h3.3c.16,0,.21.05.24.18,1.38,5.62,1.74,8.11,1.92,9.2h.06c.2-.93.62-3.38,2.13-9.15,0-.15,0-.23.23-.23h3.43a.18.18,0,0,1,.21.18c1.38,5.75,1.74,8.27,1.93,9.31h.05c.36-1.69.75-4.5,2-9.31a.21.21,0,0,1,.23-.18h3a.15.15,0,0,1,.15.21L72.25,55.77c0,.18-.07.23-.31.23Z" transform="translate(-0.5 -7.31)"/><path class="a" d="M86.86,51.94l-1.24,3.85a.29.29,0,0,1-.29.21h-3c-.18,0-.23-.1-.2-.26l5.2-15a5.13,5.13,0,0,0,.26-1.59.18.18,0,0,1,.15-.18h4.16c.13,0,.18,0,.21.16L98,55.77c.06.13,0,.23-.13.23H94.48a.26.26,0,0,1-.28-.18l-1.33-3.88Zm5-3.25c-.52-1.71-1.56-4.86-2.06-6.7h0c-.42,1.74-1.35,4.6-2,6.7Z" transform="translate(-0.5 -7.31)"/><path class="a" d="M108.68,55.64c0,.13,0,.18-.13.2a8,8,0,0,1-2.91.42c-4.22,0-6.87-2.83-6.87-6.66s2.94-6.78,7.36-6.78a7.23,7.23,0,0,1,2.39.28c.13.06.16.13.16.29l0,2.68c0,.18-.1.21-.2.18a6.62,6.62,0,0,0-2.19-.31c-2.18,0-3.77,1.19-3.77,3.53,0,2.71,2,3.59,3.82,3.59a8.6,8.6,0,0,0,2.16-.23c.16,0,.21,0,.21.1Z" transform="translate(-0.5 -7.31)"/><path class="a" d="M113.75,43.08a.29.29,0,0,1,.31.23,5.14,5.14,0,0,1,.29,1.46,5.39,5.39,0,0,1,4.13-2c.16,0,.21,0,.21.21v3.19c0,.13,0,.19-.23.19a5.35,5.35,0,0,0-3.93,1.11l0,8.27c0,.16,0,.21-.23.21h-3.12c-.21,0-.26-.08-.26-.23v-9c0-1.12,0-2.63-.13-3.54,0-.13,0-.18.15-.18Z" transform="translate(-0.5 -7.31)"/><path class="a" d="M132.65,49.47c0,4.09-2.65,6.79-6.4,6.79-4.44,0-6.42-3.35-6.42-6.71,0-3.69,2.47-6.73,6.48-6.73C130.49,42.82,132.65,46,132.65,49.47Zm-9.15,0c0,2.29,1.06,3.74,2.81,3.74,1.5,0,2.65-1.3,2.65-3.69,0-2-.83-3.72-2.81-3.72C124.64,45.83,123.5,47.19,123.5,49.5Z" transform="translate(-0.5 -7.31)"/><path class="a" d="M138.34,37.57c.21,0,.26,0,.26.2V43.1a8.53,8.53,0,0,1,2.19-.28A6,6,0,0,1,147,49c0,4.86-3.85,7.25-7.8,7.25a13.44,13.44,0,0,1-4.08-.6.29.29,0,0,1-.16-.26V37.75c0-.13,0-.18.18-.18Zm1.8,8.32a5.77,5.77,0,0,0-1.54.2v7a4,4,0,0,0,1,.1,3.58,3.58,0,0,0,3.77-3.9C143.34,47,142,45.89,140.14,45.89Z" transform="translate(-0.5 -7.31)"/><path class="a" d="M159.51,53.11c0,.68,0,1.23.05,1.85,0,0,0,.1-.05.13a14.44,14.44,0,0,1-5.67,1.17c-2.89,0-5.25-1.33-5.25-4.34,0-2.76,2.42-4.21,5.87-4.21a11.52,11.52,0,0,1,1.54,0v-.18c0-.5-.31-1.64-2.5-1.64a8.36,8.36,0,0,0-3.43.7.15.15,0,0,1-.23-.13V43.88a.23.23,0,0,1,.18-.26,9.84,9.84,0,0,1,4.08-.8c3.74,0,5.41,2.31,5.41,5.28ZM156,50.44a8.55,8.55,0,0,0-1.3-.08c-1.85,0-2.6.6-2.6,1.53s.65,1.56,2.29,1.56a5.49,5.49,0,0,0,1.61-.23Z" transform="translate(-0.5 -7.31)"/><path class="a" d="M168.87,55.56c0,.15,0,.28-.18.34a6.5,6.5,0,0,1-2.32.36c-2.26,0-3.59-1.12-3.59-3.72V46.09h-1.56c-.15,0-.2-.07-.2-.23V43.31c0-.18,0-.23.23-.23h1.56a29.5,29.5,0,0,1,.26-3.15.27.27,0,0,1,.23-.23l3-.39c.13,0,.2,0,.2.15-.07.81-.13,2.34-.13,3.62h2.4c.15,0,.2.05.2.21v2.62c0,.13-.05.16-.18.18H166.4v5.57c0,1.14.34,1.66,1.4,1.66a5.51,5.51,0,0,0,.89-.1c.1,0,.18,0,.18.18Z" transform="translate(-0.5 -7.31)"/><path class="a" d="M177.19,39.2c0-.15,0-.2.15-.2,1.07,0,3.12-.08,5.1-.08,5.25,0,7.07,2.91,7.07,5.74,0,4.22-3.25,6-7.25,6h-1.48v5.12a.19.19,0,0,1-.21.21h-3.2c-.13,0-.18-.08-.18-.21Zm3.59,8.27c.44,0,.72,0,1.45,0,2.06,0,3.69-.63,3.69-2.76,0-1.64-1.12-2.68-3.38-2.68-.83,0-1.53,0-1.76.06Z" transform="translate(-0.5 -7.31)"/><path class="a" d="M194.53,43.08a.29.29,0,0,1,.31.23,5.14,5.14,0,0,1,.29,1.46,5.41,5.41,0,0,1,4.13-2c.16,0,.21,0,.21.21v3.19c0,.13-.05.19-.23.19a5.36,5.36,0,0,0-3.93,1.11l0,8.27c0,.16-.05.21-.23.21h-3.12c-.21,0-.26-.08-.26-.23v-9c0-1.12,0-2.63-.13-3.54,0-.13,0-.18.16-.18Z" transform="translate(-0.5 -7.31)"/><path class="a" d="M213.43,49.47c0,4.09-2.65,6.79-6.4,6.79-4.44,0-6.42-3.35-6.42-6.71,0-3.69,2.47-6.73,6.48-6.73C211.27,42.82,213.43,46,213.43,49.47Zm-9.15,0c0,2.29,1.06,3.74,2.81,3.74,1.5,0,2.65-1.3,2.65-3.69,0-2-.83-3.72-2.81-3.72C205.42,45.83,204.28,47.19,204.28,49.5Z" transform="translate(-0.5 -7.31)"/><path class="a" d="M222,39.2c0-.13,0-.18.19-.2.78,0,2.75-.08,5.07-.08,6.21,0,9.25,3.48,9.25,8.29,0,6.22-4.78,8.84-9.2,8.84-1.72,0-4.32,0-5.15,0-.1,0-.16-.08-.16-.26Zm3.62,13.68c.52,0,.93,0,1.53,0,3.41,0,5.64-2,5.64-5.67s-2.23-5.2-5.56-5.2c-.62,0-1,0-1.61,0Z" transform="translate(-0.5 -7.31)"/><path class="a" d="M251.34,55.43c0,.18-.05.31-.21.36a11.45,11.45,0,0,1-3.61.47c-5.05,0-9-3-9-8.68,0-5.28,3.65-8.87,9.39-8.87a8.67,8.67,0,0,1,3.38.44.29.29,0,0,1,.18.31V42.3c0,.23-.13.23-.23.18a8.08,8.08,0,0,0-3.38-.57c-3.48,0-5.62,2.16-5.62,5.54,0,4,3,5.59,5.7,5.59a9.74,9.74,0,0,0,3.17-.42c.13,0,.21,0,.21.13Z" transform="translate(-0.5 -7.31)"/><path class="a" d="M254,54.08a2.16,2.16,0,0,1,4.32,0,2,2,0,0,1-2.16,2.18A2.05,2.05,0,0,1,254,54.08Z" transform="translate(-0.5 -7.31)"/></g></g></svg>