<?xml version="1.0" encoding="utf-8"?>
<!-- Generator: Adobe Illustrator 22.1.0, SVG Export Plug-In . SVG Version: 6.00 Build 0)  -->
<svg version="1.1" id="Layer_1" xmlns="http://www.w3.org/2000/svg" xmlns:xlink="http://www.w3.org/1999/xlink" x="0px" y="0px"
	 viewBox="0 0 129.1 124.3" style="enable-background:new 0 0 129.1 124.3;" xml:space="preserve">
<style type="text/css">
	.st0{fill:#FFFFFF;}
</style>
<title>F1_dotted_box</title>
<path class="st0" d="M5.2,64.4H0v-5.2h5.2V64.4z M1,63.4h3.2v-3.2H1V63.4z"/>
<path class="st0" d="M5.2,6H0V0.8h5.2V6z M1,5h3.2V1.8H1V5z"/>
<path class="st0" d="M128.5,63.5h-5.1v-5.1h5.1V63.5z M124.4,62.5h3.1v-3.1h-3.1V62.5z"/>
<path class="st0" d="M128.8,5.5h-5.2V0.3h5.2V5.5z M124.6,4.5h3.2V1.3h-3.2V4.5z"/>
<path class="st0" d="M66.9,6h-5.2V0.8h5.2V6z M62.7,5h3.2V1.8h-3.2V5z"/>
<path class="st0" d="M66.4,123.6h-5.2v-5.2h5.2V123.6z M62.2,122.6h3.2v-3.2h-3.2V122.6z"/>
<rect x="6.1" y="1.8" class="st0" width="3" height="1"/>
<rect x="11.1" y="1.8" class="st0" width="3" height="1"/>
<rect x="16.2" y="1.8" class="st0" width="3" height="1"/>
<rect x="21.2" y="1.8" class="st0" width="3" height="1"/>
<rect x="26.2" y="1.8" class="st0" width="3" height="1"/>
<rect x="31.2" y="1.8" class="st0" width="3" height="1"/>
<rect x="36.3" y="1.8" class="st0" width="3" height="1"/>
<rect x="41.3" y="1.8" class="st0" width="3" height="1"/>
<rect x="46.3" y="1.8" class="st0" width="3" height="1"/>
<rect x="51.3" y="1.8" class="st0" width="3" height="1"/>
<rect x="56.4" y="1.8" class="st0" width="3" height="1"/>
<rect x="68.4" y="1.8" class="st0" width="3" height="1"/>
<rect x="73.4" y="1.8" class="st0" width="3" height="1"/>
<rect x="78.5" y="1.8" class="st0" width="3" height="1"/>
<rect x="83.5" y="1.8" class="st0" width="3" height="1"/>
<rect x="88.5" y="1.8" class="st0" width="3" height="1"/>
<rect x="93.5" y="1.8" class="st0" width="3" height="1"/>
<rect x="98.6" y="1.8" class="st0" width="3" height="1"/>
<rect x="103.6" y="1.8" class="st0" width="3" height="1"/>
<rect x="108.6" y="1.8" class="st0" width="3" height="1"/>
<rect x="113.6" y="1.8" class="st0" width="3" height="1"/>
<rect x="118.7" y="1.8" class="st0" width="3" height="1"/>
<rect x="118" y="120.4" class="st0" width="3" height="1"/>
<rect x="113" y="120.4" class="st0" width="3" height="1"/>
<rect x="108" y="120.4" class="st0" width="3" height="1"/>
<rect x="102.9" y="120.4" class="st0" width="3" height="1"/>
<rect x="97.9" y="120.4" class="st0" width="3" height="1"/>
<rect x="92.9" y="120.4" class="st0" width="3" height="1"/>
<rect x="87.9" y="120.4" class="st0" width="3" height="1"/>
<rect x="82.8" y="120.4" class="st0" width="3" height="1"/>
<rect x="77.8" y="120.4" class="st0" width="3" height="1"/>
<rect x="72.8" y="120.4" class="st0" width="3" height="1"/>
<rect x="67.8" y="120.4" class="st0" width="3" height="1"/>
<rect x="56.7" y="120.4" class="st0" width="3" height="1"/>
<rect x="51.7" y="120.4" class="st0" width="3" height="1"/>
<rect x="46.7" y="120.4" class="st0" width="3" height="1"/>
<rect x="41.6" y="120.4" class="st0" width="3" height="1"/>
<rect x="36.6" y="120.4" class="st0" width="3" height="1"/>
<rect x="31.6" y="120.4" class="st0" width="3" height="1"/>
<rect x="26.6" y="120.4" class="st0" width="3" height="1"/>
<rect x="21.5" y="120.4" class="st0" width="3" height="1"/>
<rect x="16.5" y="120.4" class="st0" width="3" height="1"/>
<rect x="11.5" y="120.4" class="st0" width="3" height="1"/>
<rect x="6.5" y="120.4" class="st0" width="3" height="1"/>
<rect x="126.2" y="107.5" class="st0" width="1" height="3.1"/>
<rect x="126.2" y="112.7" class="st0" width="1" height="3.1"/>
<rect x="2.1" y="112.6" class="st0" width="1" height="3.1"/>
<rect x="2.1" y="107.4" class="st0" width="1" height="3.1"/>
<rect x="126.2" y="66.2" class="st0" width="1" height="3.1"/>
<rect x="126.2" y="71.4" class="st0" width="1" height="3.1"/>
<rect x="126.2" y="76.5" class="st0" width="1" height="3.1"/>
<rect x="126.2" y="81.7" class="st0" width="1" height="3.1"/>
<rect x="2.1" y="81.6" class="st0" width="1" height="3.1"/>
<rect x="2.1" y="76.4" class="st0" width="1" height="3.1"/>
<rect x="2.1" y="71.2" class="st0" width="1" height="3.1"/>
<rect x="2.1" y="66.1" class="st0" width="1" height="3.1"/>
<rect x="126.2" y="97.4" class="st0" width="1" height="3.1"/>
<rect x="126.2" y="86.5" class="st0" width="1" height="3.1"/>
<rect x="126.2" y="91.7" class="st0" width="1" height="3.1"/>
<rect x="2.1" y="91.6" class="st0" width="1" height="3.1"/>
<rect x="2.1" y="86.4" class="st0" width="1" height="3.1"/>
<rect x="2.1" y="97.2" class="st0" width="1" height="3.1"/>
<rect x="126.2" y="102.4" class="st0" width="1" height="3.1"/>
<rect x="2.1" y="102.2" class="st0" width="1" height="3.1"/>
<path class="st0" d="M5.2,124H0v-5.2h5.2V124z M1,123h3.2v-3.2H1V123z"/>
<path class="st0" d="M128.8,123.5h-5.2v-5.2h5.2V123.5z M124.6,122.5h3.2v-3.2h-3.2V122.5z"/>
<rect x="126.2" y="48.5" class="st0" width="1" height="3.1"/>
<rect x="126.2" y="53.7" class="st0" width="1" height="3.1"/>
<rect x="2.1" y="53.6" class="st0" width="1" height="3.1"/>
<rect x="2.1" y="48.4" class="st0" width="1" height="3.1"/>
<rect x="126.2" y="7.2" class="st0" width="1" height="3.1"/>
<rect x="126.2" y="12.4" class="st0" width="1" height="3.1"/>
<rect x="126.2" y="17.5" class="st0" width="1" height="3.1"/>
<rect x="126.2" y="22.7" class="st0" width="1" height="3.1"/>
<rect x="2.1" y="22.6" class="st0" width="1" height="3.1"/>
<rect x="2.1" y="17.4" class="st0" width="1" height="3.1"/>
<rect x="2.1" y="12.2" class="st0" width="1" height="3.1"/>
<rect x="2.1" y="7.1" class="st0" width="1" height="3.1"/>
<rect x="126.2" y="38.4" class="st0" width="1" height="3.1"/>
<rect x="126.2" y="27.5" class="st0" width="1" height="3.1"/>
<rect x="126.2" y="32.7" class="st0" width="1" height="3.1"/>
<rect x="2.1" y="32.6" class="st0" width="1" height="3.1"/>
<rect x="2.1" y="27.4" class="st0" width="1" height="3.1"/>
<rect x="2.1" y="38.2" class="st0" width="1" height="3.1"/>
<rect x="126.2" y="43.4" class="st0" width="1" height="3.1"/>
<rect x="2.1" y="43.2" class="st0" width="1" height="3.1"/>
</svg>
