<?xml version="1.0" encoding="utf-8"?>
<!-- Generator: Adobe Illustrator 22.1.0, SVG Export Plug-In . SVG Version: 6.00 Build 0)  -->
<svg version="1.1" id="Layer_1" xmlns="http://www.w3.org/2000/svg" xmlns:xlink="http://www.w3.org/1999/xlink" x="0px" y="0px"
	 viewBox="0 0 99.8 21.7" style="enable-background:new 0 0 99.8 21.7;" xml:space="preserve">
<style type="text/css">
	.st0{fill:#FFFFFF;}
</style>
<title>F1_text3</title>
<path class="st0" d="M9.2,16.6c0,0.1,0,0.2-0.1,0.2c-0.9,0.3-1.8,0.4-2.7,0.4c-3.3,0.2-6.1-2.2-6.3-5.5c0-0.2,0-0.4,0-0.6
	c0-3.6,2.7-6.3,6.8-6.3c0.7,0,1.5,0,2.2,0.3c0.1,0,0.1,0.1,0.1,0.3v2.5C9.2,7.9,9.1,8,9,7.9C8.3,7.7,7.6,7.6,7,7.7
	c-2,0-3.5,1.1-3.5,3.3c0,2.5,1.9,3.3,3.5,3.3c0.7,0,1.3-0.1,2-0.2c0.1,0,0.2,0,0.2,0.1L9.2,16.6z"/>
<path class="st0" d="M13.9,5c0.1,0,0.3,0.1,0.3,0.2c0.2,0.4,0.3,0.9,0.3,1.3c0.9-1.1,2.3-1.8,3.8-1.8c0.1,0,0.2,0,0.2,0.2v3
	c0,0.1,0,0.2-0.2,0.2c-1.3-0.2-2.6,0.2-3.6,1v7.6c0,0.1,0,0.2-0.2,0.2h-2.9c-0.2,0-0.2-0.1-0.2-0.2V8.4c0-1.1,0-2.2-0.1-3.3
	c0-0.1,0-0.2,0.1-0.2H13.9z"/>
<path class="st0" d="M23,11.8c0.1,1.4,1.1,2.5,3.4,2.5c1,0,2-0.2,3-0.6c0.1,0,0.2,0,0.2,0.1v2.3c0,0.2,0,0.2-0.2,0.3
	c-1.2,0.5-2.4,0.8-3.7,0.7c-4.5,0-6.1-3.1-6.1-6.1c0-3.3,2-6.3,5.8-6.3c2.7-0.1,5,2,5.1,4.7c0,0.2,0,0.3,0,0.5c0,0.5,0,1.1-0.1,1.6
	c0,0.1-0.1,0.2-0.2,0.2c-0.3,0-1.2,0.1-2.5,0.1L23,11.8z M26.1,9.5c0.4,0,0.8,0,1.2,0V9.3c-0.1-1.1-0.9-1.9-2-1.9
	C24,7.4,23,8.3,22.9,9.5H26.1z"/>
<path class="st0" d="M41.9,14.3c0,0.6,0,1.1,0,1.7c0,0,0,0.1,0,0.1c-1.7,0.7-3.4,1.1-5.2,1.1c-2.7,0-4.8-1.2-4.8-4
	c0-2.5,2.2-3.9,5.4-3.9c0.5,0,0.9,0,1.4,0.1V9.2c0-0.4-0.3-1.5-2.3-1.5c-1.1,0-2.2,0.2-3.2,0.7c-0.1,0.1-0.1,0.1-0.2,0
	c0,0,0-0.1,0-0.1V5.8c0-0.1,0-0.2,0.2-0.2c1.2-0.5,2.5-0.8,3.8-0.8c3.5,0,5,2.1,5,4.9L41.9,14.3z M38.6,11.8c-0.4,0-0.8-0.1-1.2-0.1
	c-1.7,0-2.4,0.6-2.4,1.4s0.6,1.4,2.1,1.4c0.5,0,1-0.1,1.5-0.2V11.8z"/>
<path class="st0" d="M50.6,16.5c0,0.2,0,0.3-0.2,0.3c-0.7,0.2-1.4,0.4-2.1,0.3c-2.1,0-3.3-1-3.3-3.4V7.8h-1.4
	c-0.1,0-0.2-0.1-0.2-0.2V5.2c0-0.2,0-0.2,0.2-0.2H45c0-1,0.1-1.9,0.2-2.9c0-0.1,0.1-0.2,0.2-0.2l2.8-0.4c0.1,0,0.2,0,0.2,0.1
	c-0.1,0.8-0.1,2.2-0.1,3.3h2.2c0.1,0,0.2,0.1,0.2,0.2v2.4c0,0.1,0,0.1-0.2,0.2h-2.3v5.1c0,1.1,0.3,1.5,1.3,1.5c0.3,0,0.6,0,0.8-0.1
	c0.1,0,0.2,0,0.2,0.2V16.5z"/>
<path class="st0" d="M52.5,1.8c0-1,0.7-1.8,1.7-1.8h0.1c1-0.1,1.8,0.7,1.8,1.6v0.2c0,1-0.8,1.9-1.9,1.9S52.5,2.9,52.5,1.8z
	 M52.7,5.2c0-0.1,0-0.2,0.2-0.2h3c0.2,0,0.2,0.1,0.2,0.2v11.5c0,0.2,0,0.2-0.2,0.2H53c-0.2,0-0.2-0.1-0.2-0.2L52.7,5.2z"/>
<path class="st0" d="M61.8,16.9c-0.1,0-0.3,0-0.3-0.1c-0.9-2.7-2.9-8.8-3.9-11.6c0-0.1,0-0.2,0.1-0.2c0,0,0,0,0,0h3.2
	c0.1,0,0.2,0.1,0.3,0.2c1.6,5.4,2.1,7.5,2.3,8.6l0,0c0.2-1.1,0.9-3.2,2.5-8.6C66,5.1,66.1,5,66.2,5H69c0.1,0,0.2,0.1,0.1,0.2
	c-1,2.8-3,8.9-4,11.5c-0.1,0.1-0.1,0.2-0.3,0.2L61.8,16.9z"/>
<path class="st0" d="M70.7,1.8c0-1,0.7-1.8,1.7-1.8h0.1c1-0.1,1.8,0.7,1.9,1.6v0.2c0,1-0.8,1.9-1.9,1.9S70.8,2.9,70.7,1.8L70.7,1.8z
	 M70.9,5.2c0-0.1,0-0.2,0.2-0.2H74c0.2,0,0.2,0.1,0.2,0.2v11.5c0,0.2,0,0.2-0.2,0.2h-2.9c-0.2,0-0.2-0.1-0.2-0.2V5.2z"/>
<path class="st0" d="M83.3,16.5c0,0.2,0,0.3-0.2,0.3c-0.7,0.2-1.4,0.4-2.1,0.3c-2.1,0-3.3-1-3.3-3.4V7.8h-1.4
	c-0.1,0-0.2-0.1-0.2-0.2V5.2c0-0.2,0-0.2,0.2-0.2h1.4c0-1,0.1-1.9,0.2-2.9c0-0.1,0.1-0.2,0.2-0.2L81,1.5c0.1,0,0.2,0,0.2,0.1
	C81.1,2.4,81,3.8,81,5h2.2c0.1,0,0.2,0.1,0.2,0.2v2.4c0,0.1,0,0.1-0.2,0.2H81v5.1c0,1.1,0.3,1.5,1.3,1.5c0.3,0,0.6,0,0.8-0.1
	c0.1,0,0.2,0,0.2,0.2V16.5z"/>
<path class="st0" d="M87.8,5C87.9,5,88,5.1,88,5.2c1.4,4.1,2.1,6.6,2.4,7.8c0.8-2.6,1.5-4.8,2.4-7.8C92.9,5,93,5,93.1,5H96
	c0.2,0,0.2,0.1,0.2,0.2c-1.7,5.4-4.4,12-6.2,16.1c0,0.1-0.1,0.2-0.3,0.2l-3,0.2c-0.1,0-0.2-0.1-0.1-0.2c0.7-1.4,1.4-3,2.2-4.8
	c0.1-0.1,0.1-0.3,0-0.4c-0.7-1.7-2.9-7.3-4.3-11.1c-0.1-0.1,0-0.2,0.1-0.2L87.8,5z"/>
<path class="st0" d="M95.8,15.1c0-1.1,0.9-2,2-2s2,0.9,2,2c0.1,1-0.7,1.9-1.7,2c-0.1,0-0.2,0-0.3,0c-1,0.1-1.9-0.7-2-1.8
	c0,0,0,0,0,0C95.8,15.3,95.8,15.2,95.8,15.1z"/>
</svg>
