<?xml version="1.0" encoding="utf-8"?>
<!-- Generator: Adobe Illustrator 22.1.0, SVG Export Plug-In . SVG Version: 6.00 Build 0)  -->
<svg version="1.1" id="Layer_1" xmlns="http://www.w3.org/2000/svg" xmlns:xlink="http://www.w3.org/1999/xlink" x="0px" y="0px"
	 viewBox="0 0 47.2 17" style="enable-background:new 0 0 47.2 17;" xml:space="preserve">
<style type="text/css">
	.st0{fill:#FFFFFF;}
</style>
<title>F1_text2</title>
<path class="st0" d="M3.4,0.2c0.1,0,0.2,0.1,0.2,0.2C5,4.5,5.7,7,6.1,8.3c0.8-2.5,1.5-4.8,2.5-7.8c0-0.1,0.2-0.2,0.3-0.2h2.8
	c0.2,0,0.2,0.1,0.2,0.2c-1.7,5.4-4.4,12-6.2,16.1c0,0.1-0.1,0.2-0.3,0.2l-3,0.2c-0.1,0-0.2-0.1-0.1-0.2c0.7-1.4,1.4-3,2.2-4.8
	c0.1-0.1,0.1-0.3,0-0.4C3.7,9.9,1.4,4.2,0,0.4c-0.1-0.1,0-0.2,0.1-0.2L3.4,0.2z"/>
<path class="st0" d="M24.4,6.2c0,3.8-2.5,6.3-5.9,6.3c-4.1,0-5.9-3.1-5.9-6.2c-0.2-3.2,2.3-6,5.5-6.2c0.2,0,0.3,0,0.5,0
	C22.4,0,24.4,2.9,24.4,6.2z M16,6.2c0,2.1,1,3.5,2.6,3.5c1.4,0,2.5-1.2,2.5-3.4c0-1.9-0.8-3.4-2.6-3.4C17.1,2.8,16,4,16,6.2L16,6.2z
	"/>
<path class="st0" d="M37,9.5c0,0.8,0,1.7,0.1,2.5c0,0.1-0.1,0.2-0.2,0.2h-2.6c-0.2,0-0.2,0-0.3-0.2C34,11.8,34,11.6,34,11.3
	c-0.9,0.8-2.1,1.2-3.3,1.2c-2.4,0-4.1-1.3-4.1-4.6V0.4c0-0.2,0-0.2,0.2-0.2h2.9c0.1,0,0.2,0,0.2,0.2v7c0,1.3,0.6,2.1,1.9,2.1
	c0.7,0,1.4-0.2,1.9-0.7V0.5c0-0.1,0.1-0.2,0.2-0.2h2.9c0.2,0,0.2,0,0.2,0.2L37,9.5z"/>
<path class="st0" d="M42.6,0.2c0.1,0,0.3,0.1,0.3,0.2c0.2,0.4,0.2,0.9,0.3,1.3C44.1,0.7,45.5,0,47,0c0.1,0,0.2,0,0.2,0.2v3
	c0,0.1,0,0.2-0.2,0.2c-1.3-0.2-2.6,0.2-3.6,1V12c0,0.1-0.1,0.2-0.2,0.2h-2.9c-0.2,0-0.2-0.1-0.2-0.2V3.7c0-1.1,0-2.2-0.1-3.3
	c0-0.1,0-0.2,0.1-0.2L42.6,0.2z"/>
</svg>
