<?xml version="1.0" encoding="utf-8"?>
<!-- Generator: Adobe Illustrator 22.1.0, SVG Export Plug-In . SVG Version: 6.00 Build 0)  -->
<svg version="1.1" id="Layer_1" xmlns="http://www.w3.org/2000/svg" xmlns:xlink="http://www.w3.org/1999/xlink" x="0px" y="0px"
	 viewBox="0 0 56.7 22.1" style="enable-background:new 0 0 56.7 22.1;" xml:space="preserve">
<style type="text/css">
	.st0{fill:#FFFFFF;}
</style>
<title>F1_text1</title>
<path class="st0" d="M3.3,16.7c0,0.2,0,0.2-0.2,0.2H0.2c-0.2,0-0.2,0-0.2-0.2V1.4c0-0.2,0.1-0.2,0.2-0.2h2.9c0.1,0,0.2,0,0.2,0.2
	C3.3,1.4,3.3,16.7,3.3,16.7z"/>
<path class="st0" d="M12.4,14.1c3.4,0.2,4.7,1.6,4.7,3.5c0,2.5-2.5,4.5-6.3,4.5S5,20.1,5,18.4c0-0.8,0.6-1.7,2.2-3
	c-0.4-0.5-0.5-1.2-0.5-1.8s0.1-1.2,0.4-1.7C6,11.2,5.4,10.1,5.4,8.8c0-2.3,1.8-4.1,4.9-4.1c0.8,0,1.5,0.1,2.3,0.2
	c0.2,0,0.4,0.1,0.6,0h3.3c0.1,0,0.2,0,0.2,0.2v2.2c0,0.1,0,0.2-0.2,0.2c-0.4,0-1.2-0.1-1.7-0.1c0.3,0.5,0.4,1,0.3,1.6
	c0,2.5-2.1,3.8-4.8,3.8H9.7c-0.1,0.2-0.1,0.4,0,0.7c0,0.2,0.1,0.4,0.3,0.6L12.4,14.1z M9,16.8c-0.4,0.3-0.8,0.8-0.9,1.3
	c0,0.7,1,1.6,2.9,1.6c2.1,0,3-0.8,3-1.5s-1-1.1-2.4-1.2L9,16.8z M8.8,8.8c0,0.9,0.6,1.6,1.5,1.6h0.2c0.8,0.1,1.5-0.4,1.7-1.2
	c0-0.1,0-0.2,0-0.3c0-0.9-0.7-1.7-1.6-1.7S8.8,7.9,8.8,8.8L8.8,8.8z"/>
<path class="st0" d="M18.7,7.8c0-0.9,0-1.7-0.1-2.6c0-0.1,0-0.2,0.2-0.2h2.5c0.1,0,0.3,0.1,0.3,0.2c0.1,0.3,0.2,0.5,0.2,0.8
	c1-0.8,2.2-1.2,3.4-1.2c1.8,0,4,1,4,4.8v7.1c0,0.2,0,0.2-0.2,0.2h-2.9c-0.2,0-0.2-0.1-0.2-0.2V9.9c0-1.4-0.6-2.2-1.9-2.2
	c-0.7,0-1.5,0.2-2,0.7v8.4c0,0.1-0.1,0.2-0.2,0.2H19c-0.2,0-0.2-0.1-0.2-0.2L18.7,7.8z"/>
<path class="st0" d="M31.9,1.9c0-1,0.8-1.8,1.8-1.9h0.1c1-0.1,1.8,0.7,1.8,1.6c0,0.1,0,0.2,0,0.2c0,1-0.8,1.9-1.9,1.9
	S31.9,2.9,31.9,1.9z M32.1,5.2c0-0.1,0-0.2,0.2-0.2h3c0.2,0,0.2,0,0.2,0.2v11.5c0,0.2,0,0.2-0.2,0.2h-2.9c-0.2,0-0.2-0.1-0.2-0.2
	L32.1,5.2z"/>
<path class="st0" d="M44.5,16.5c0,0.2,0,0.3-0.2,0.3c-0.7,0.2-1.4,0.4-2.1,0.3c-2.1,0-3.3-1-3.3-3.4v-6h-1.4c-0.1,0-0.2-0.1-0.2-0.2
	V5.2c0-0.2,0-0.2,0.2-0.2h1.4c0-1,0.1-1.9,0.3-2.9c0-0.1,0.1-0.2,0.2-0.2l2.8-0.4c0.1,0,0.2,0,0.2,0.1c-0.1,0.8-0.1,2.2-0.1,3.3h2.2
	c0.1,0,0.2,0,0.2,0.2v2.4c0,0.1,0,0.1-0.2,0.2h-2.2v5.1c0,1.1,0.3,1.5,1.3,1.5c0.3,0,0.6,0,0.8-0.1c0.1,0,0.2,0,0.2,0.2L44.5,16.5z"
	/>
<path class="st0" d="M49.2,11.8c0.1,1.4,1.1,2.5,3.4,2.5c1,0,2-0.2,3-0.5c0.1,0,0.2,0,0.2,0.1v2.3c0,0.2,0,0.2-0.2,0.3
	c-1.2,0.5-2.4,0.8-3.7,0.7c-4.5,0-6.1-3.1-6.1-6.1c0-3.3,2-6.3,5.8-6.3c2.7-0.1,4.9,2.1,5,4.8c0,0.1,0,0.3,0,0.4
	c0,0.5,0,1.1-0.1,1.6c0,0.1-0.1,0.2-0.2,0.2c-0.3,0-1.2,0.1-2.5,0.1L49.2,11.8z M52.3,9.5c0.4,0,0.8,0,1.2,0V9.3
	c-0.1-1.1-0.9-1.9-2-1.9c-1.2,0-2.2,0.9-2.3,2.1H52.3z"/>
</svg>
