<?xml version="1.0" encoding="utf-8"?>
<!-- Generator: Adobe Illustrator 22.1.0, SVG Export Plug-In . SVG Version: 6.00 Build 0)  -->
<svg version="1.1" id="Layer_1" xmlns="http://www.w3.org/2000/svg" xmlns:xlink="http://www.w3.org/1999/xlink" x="0px" y="0px"
	 viewBox="0 0 121.4 48.7" style="enable-background:new 0 0 121.4 48.7;" xml:space="preserve">
<style type="text/css">
	.st0{fill:#FFFFFF;}
</style>
<title>tag_headline2</title>
<path class="st0" d="M7.8,18c0,0.1,0,0.3-0.2,0.3c-0.7,0.3-1.5,0.4-2.3,0.4c-2.3,0-3.6-1.1-3.6-3.7V8.5H0.2C0,8.5,0,8.5,0,8.3V5.7
	c0-0.2,0-0.2,0.2-0.2h1.6c0-1.1,0.1-2.1,0.3-3.2c0-0.1,0.1-0.2,0.2-0.2l3-0.4c0.1,0,0.2,0,0.2,0.1C5.4,2.7,5.4,4.2,5.4,5.5h2.4
	C7.9,5.5,8,5.6,8,5.7v2.6c0,0.1-0.1,0.2-0.2,0.2H5.4v5.6c0,1.1,0.3,1.7,1.4,1.7c0.3,0,0.6,0,0.9-0.1c0.1,0,0.2,0,0.2,0.2V18z"/>
<path class="st0" d="M22,11.9c0,4.1-2.6,6.8-6.4,6.8c-4.4,0-6.4-3.4-6.4-6.7c0-3.7,2.5-6.7,6.5-6.7C19.8,5.2,22,8.4,22,11.9z
	 M12.8,11.9c0,2.3,1.1,3.7,2.8,3.7c1.5,0,2.6-1.3,2.6-3.7c0-2-0.8-3.7-2.8-3.7C14,8.3,12.8,9.6,12.8,11.9L12.8,11.9z"/>
<path class="st0" d="M42.4,17.9c0,0.2,0,0.3-0.2,0.4c-1.2,0.3-2.4,0.5-3.6,0.5c-5,0-9-3-9-8.7c0-5.3,3.6-8.9,9.4-8.9
	c1.1-0.1,2.3,0.1,3.4,0.4c0.1,0,0.2,0.2,0.2,0.3v2.8c0,0.2-0.1,0.2-0.2,0.2c-1.1-0.4-2.2-0.6-3.4-0.6c-3.5,0-5.6,2.2-5.6,5.5
	c0,4,3,5.6,5.7,5.6c1.1,0,2.1-0.1,3.2-0.4c0.1,0,0.2,0,0.2,0.1V17.9z"/>
<path class="st0" d="M47.6,5.5c0.1,0,0.3,0.1,0.3,0.2c0.2,0.5,0.3,1,0.3,1.5c1-1.2,2.5-1.9,4.1-1.9c0.2,0,0.2,0,0.2,0.2v3.2
	c0,0.1,0,0.2-0.2,0.2c-1.4-0.2-2.8,0.2-3.9,1.1v8.3c0,0.2,0,0.2-0.2,0.2H45c-0.2,0-0.3-0.1-0.3-0.2v-9c0-1.1,0-2.6-0.1-3.5
	c0-0.1,0-0.2,0.2-0.2L47.6,5.5z"/>
<path class="st0" d="M57.4,12.9c0.1,1.5,1.2,2.7,3.7,2.7c1.1,0,2.2-0.2,3.2-0.6c0.1,0,0.2,0,0.2,0.1v2.5c0,0.1-0.1,0.3-0.2,0.3
	c-1.3,0.6-2.6,0.8-4,0.8c-4.9,0-6.6-3.4-6.6-6.6c0-3.6,2.2-6.9,6.3-6.9s5.5,3,5.5,5.6c0,0.6,0,1.2-0.1,1.8c0,0.1-0.1,0.2-0.2,0.2
	c-0.9,0.1-1.8,0.1-2.7,0.1H57.4z M60.8,10.4c0.4,0,0.9,0,1.3-0.1v-0.2c0-1.2-1-2.1-2.2-2.1c0,0,0,0,0,0c-1.3,0-2.5,1-2.5,2.3H60.8z"
	/>
<path class="st0" d="M77.9,15.5c0,0.7,0,1.2,0,1.9c0,0,0,0.1,0,0.1c-1.8,0.8-3.7,1.2-5.7,1.2c-2.9,0-5.3-1.3-5.3-4.3
	c0-2.8,2.4-4.2,5.9-4.2c0.5,0,1,0,1.5,0V10c0-0.5-0.3-1.6-2.5-1.6c-1.2,0-2.4,0.2-3.4,0.7c-0.1,0-0.2,0-0.2,0c0,0,0-0.1,0-0.1V6.3
	c0-0.1,0.1-0.2,0.2-0.3c1.3-0.6,2.7-0.8,4.1-0.8c3.8,0,5.4,2.3,5.4,5.3V15.5z M74.4,12.9c-0.4-0.1-0.9-0.1-1.3-0.1
	c-1.8,0-2.6,0.6-2.6,1.5s0.7,1.6,2.3,1.6c0.5,0,1.1-0.1,1.6-0.2V12.9z"/>
<path class="st0" d="M87.3,18c0,0.1,0,0.3-0.2,0.3c-0.7,0.3-1.5,0.4-2.3,0.4c-2.3,0-3.6-1.1-3.6-3.7V8.5h-1.6
	c-0.2,0-0.2-0.1-0.2-0.2V5.7c0-0.2,0-0.2,0.2-0.2h1.6c0-1.1,0.1-2.1,0.3-3.2c0-0.1,0.1-0.2,0.2-0.2l3-0.4c0.1,0,0.2,0,0.2,0.1
	c-0.1,0.8-0.1,2.3-0.1,3.6h2.4c0.2,0,0.2,0.1,0.2,0.2v2.6c0,0.1,0,0.2-0.2,0.2h-2.4v5.6c0,1.1,0.3,1.7,1.4,1.7c0.3,0,0.6,0,0.9-0.1
	c0.1,0,0.2,0,0.2,0.2V18z"/>
<path class="st0" d="M89.3,2.1c0-1.1,0.8-2,1.9-2c0,0,0.1,0,0.1,0c1-0.1,1.9,0.7,2,1.8c0,0.1,0,0.2,0,0.2c0,1.1-0.8,2-1.8,2
	c-0.1,0-0.1,0-0.2,0c-1,0.1-1.9-0.7-2-1.8C89.3,2.3,89.3,2.2,89.3,2.1z M89.5,5.7c0-0.1,0.1-0.2,0.2-0.2h3.2c0.2,0,0.2,0.1,0.2,0.2
	v12.5c0,0.1,0,0.2-0.2,0.2h-3.1c-0.2,0-0.3-0.1-0.3-0.2V5.7z"/>
<path class="st0" d="M99.3,18.4c-0.1,0-0.3-0.1-0.3-0.2c-1-2.9-3.2-9.5-4.2-12.5c0-0.1,0-0.2,0.2-0.2h3.4c0.2,0,0.2,0.1,0.3,0.2
	c1.7,5.9,2.3,8.2,2.5,9.3l0,0c0.3-1.2,0.9-3.5,2.8-9.3c0.1-0.1,0.1-0.2,0.2-0.2h3c0.1,0,0.2,0.1,0.2,0.1c0,0,0,0.1,0,0.1
	c-1.1,3.1-3.3,9.6-4.3,12.5c-0.1,0.1-0.1,0.2-0.3,0.2L99.3,18.4z"/>
<path class="st0" d="M111.9,12.9c0.1,1.5,1.2,2.7,3.7,2.7c1.1,0,2.2-0.2,3.2-0.6c0.1,0,0.2,0,0.2,0.1v2.5c0,0.2,0,0.3-0.2,0.3
	c-1.3,0.6-2.6,0.8-4,0.8c-4.9,0-6.6-3.4-6.6-6.6c0-3.6,2.2-6.9,6.3-6.9s5.5,3,5.5,5.6c0,0.6,0,1.2-0.1,1.8c0,0.1-0.1,0.2-0.2,0.2
	c-0.9,0.1-1.8,0.1-2.7,0.1H111.9z M115.3,10.4c0.4,0,0.9,0,1.3-0.1v-0.2c0-1.2-1-2.1-2.2-2.1c0,0,0,0,0,0c-1.3,0-2.4,1-2.5,2.3
	H115.3z"/>
<path class="st0" d="M12.7,46.5c0,0.2,0,0.3-0.2,0.4c-1.2,0.3-2.4,0.5-3.6,0.5c-5,0-9-3-9-8.7c0-5.3,3.6-8.9,9.4-8.9
	c1.1-0.1,2.3,0.1,3.4,0.4c0.1,0,0.2,0.2,0.2,0.3v2.8c0,0.2-0.1,0.2-0.2,0.2c-1.1-0.4-2.2-0.6-3.4-0.6c-3.5,0-5.6,2.2-5.6,5.5
	c0,4,3,5.6,5.7,5.6c1.1,0,2.1-0.1,3.2-0.4c0.1,0,0.2,0,0.2,0.1L12.7,46.5z"/>
<path class="st0" d="M15,28.9c0-0.1,0-0.2,0.3-0.2h3.1c0.2,0,0.3,0.1,0.3,0.2v14.6c0,0.7,0.2,1,0.9,1h0.5c0.1,0,0.1,0,0.1,0.2v2.2
	c0,0.2,0,0.3-0.2,0.3c-0.5,0.2-1.1,0.3-1.6,0.2c-1.9,0-3.3-0.7-3.3-3.6V28.9z"/>
<path class="st0" d="M34.3,40.6c0,4.1-2.6,6.8-6.4,6.8c-4.4,0-6.4-3.4-6.4-6.7c0-3.7,2.5-6.7,6.5-6.7C32,33.9,34.3,37.1,34.3,40.6z
	 M25.1,40.6c0,2.3,1.1,3.7,2.8,3.7c1.5,0,2.6-1.3,2.6-3.7c0-2-0.8-3.7-2.8-3.7C26.2,36.9,25.1,38.3,25.1,40.6L25.1,40.6z"/>
<path class="st0" d="M47.8,44.2c0,0.9,0.1,1.8,0.2,2.7c0,0.2-0.1,0.2-0.2,0.2H45c-0.2,0-0.3,0-0.3-0.2c-0.1-0.3-0.1-0.5-0.1-0.8
	c-1,0.8-2.3,1.3-3.6,1.3c-2.6,0-4.4-1.4-4.4-5v-8c0-0.2,0.1-0.2,0.2-0.2H40c0.1,0,0.2,0,0.2,0.2v7.5c0,1.4,0.6,2.3,2,2.3
	c0.7,0,1.5-0.3,2-0.8v-9.1c0-0.2,0.1-0.2,0.3-0.2h3.1c0.2,0,0.2,0,0.2,0.2L47.8,44.2z"/>
<path class="st0" d="M50.2,40.8c0-3.7,2.8-6.8,7.5-6.8c0.2,0,0.5,0,0.9,0v-5.1c0-0.1,0-0.2,0.1-0.2c0,0,0,0,0,0H62
	c0.1,0,0.2,0,0.2,0.2v15.4c0,0.6,0,1.3,0.1,1.9c0,0.1,0,0.2-0.2,0.2c-1.6,0.7-3.4,1-5.1,1C53.1,47.4,50.2,45.2,50.2,40.8z
	 M58.6,37.1c-0.3-0.1-0.7-0.1-1-0.1c-1.9-0.1-3.6,1.3-3.7,3.2c0,0.1,0,0.3,0,0.4c0,2.6,1.5,3.7,3.5,3.7c0.4,0,0.8,0,1.2-0.2
	L58.6,37.1z"/>
<path class="st0" d="M64.8,45.2c0-1.2,1-2.2,2.2-2.2s2.2,1,2.2,2.2c0.1,1.1-0.7,2.1-1.8,2.2c-0.1,0-0.2,0-0.4,0
	c-1.1,0.1-2.1-0.8-2.2-1.9C64.7,45.3,64.7,45.3,64.8,45.2z"/>
</svg>
