<svg xmlns="http://www.w3.org/2000/svg" viewBox="0 0 121.18 21.83"><defs><style>.a{fill:#fff;}</style></defs><title>F1_text3</title><path class="a" d="M-1.48,16.74c0,.12,0,.17-.12.19a7.5,7.5,0,0,1-2.7.39,6,6,0,0,1-6.34-5.64,4.64,4.64,0,0,1,0-.53c0-3.61,2.72-6.28,6.81-6.28a6.66,6.66,0,0,1,2.22.26c.12,0,.14.12.14.27V7.88c0,.17-.1.19-.2.17a5.91,5.91,0,0,0-2-.29c-2,0-3.49,1.1-3.49,3.27,0,2.51,1.86,3.32,3.54,3.32a8.45,8.45,0,0,0,2-.21c.14-.05.19,0,.19.09Z" transform="translate(10.65 -0.06)"/><path class="a" d="M11.73,11.06c0,3.78-2.46,6.29-5.93,6.29-4.11,0-5.94-3.11-5.94-6.22a5.88,5.88,0,0,1,6-6.23C9.73,4.87,11.73,7.78,11.73,11.06Zm-8.48,0c0,2.11,1,3.46,2.6,3.46,1.4,0,2.46-1.2,2.46-3.42,0-1.87-.77-3.44-2.6-3.44C4.31,7.66,3.25,8.91,3.25,11.06Z" transform="translate(10.65 -0.06)"/><path class="a" d="M14.11,17.06c-.17,0-.22-.07-.22-.21V7.71c0-.89-.07-1.93-.09-2.39,0-.14,0-.21.19-.21h2.53c.15,0,.19,0,.29.14a3.37,3.37,0,0,1,.14.89,5.27,5.27,0,0,1,3.47-1.27,3.4,3.4,0,0,1,3.1,1.54,5.94,5.94,0,0,1,3.9-1.54c2.1,0,4.12,1.13,4.12,4.76v7.23c0,.14-.07.21-.22.21H28.44c-.17,0-.25-.07-.25-.21V10c0-1.25-.43-2.21-1.83-2.21a3.19,3.19,0,0,0-2,.77,10.18,10.18,0,0,1,.07,1.35v7c0,.12-.05.21-.19.21H21.32c-.14,0-.24,0-.24-.21v-7c0-1.45-.67-2.1-1.83-2.1a3.3,3.3,0,0,0-2,.67v8.43c0,.12-.05.19-.22.19Z" transform="translate(10.65 -0.06)"/><path class="a" d="M34.57,17.06c-.16,0-.21-.07-.21-.21V7.71c0-.89-.08-1.93-.1-2.39,0-.14,0-.21.19-.21H37a.35.35,0,0,1,.28.14,3,3,0,0,1,.15.89,5.25,5.25,0,0,1,3.47-1.27A3.42,3.42,0,0,1,44,6.41a5.82,5.82,0,0,1,3.9-1.54C50,4.87,52,6,52,9.63v7.23a.19.19,0,0,1-.17.21H48.9c-.17,0-.24-.07-.24-.21V10c0-1.25-.43-2.21-1.83-2.21a3.21,3.21,0,0,0-2,.77,10.19,10.19,0,0,1,.08,1.35v7c0,.12,0,.21-.2.21H41.75c-.15,0-.24,0-.24-.21v-7c0-1.45-.68-2.1-1.83-2.1a3.36,3.36,0,0,0-2,.67v8.43c0,.12,0,.19-.21.19Z" transform="translate(10.65 -0.06)"/><path class="a" d="M65.32,14.4a20.51,20.51,0,0,0,.15,2.48c0,.15,0,.19-.22.19H62.7c-.2,0-.24,0-.29-.16a6.2,6.2,0,0,1-.15-.75A4.92,4.92,0,0,1,59,17.32c-2.4,0-4.06-1.33-4.06-4.65V5.3c0-.17,0-.19.21-.19h2.94c.14,0,.17,0,.17.19v7c0,1.3.55,2.15,1.88,2.15a2.64,2.64,0,0,0,1.87-.7V5.3c0-.14.08-.19.25-.19h2.91c.17,0,.19,0,.19.19Z" transform="translate(10.65 -0.06)"/><path class="a" d="M68.23,7.9a22.43,22.43,0,0,0-.09-2.6c0-.12,0-.19.17-.19h2.52c.2,0,.27.07.32.19a3.21,3.21,0,0,1,.19.8,5.28,5.28,0,0,1,3.42-1.23c1.85,0,4,1,4,4.84v7.15c0,.14,0,.21-.21.21H75.66c-.17,0-.24-.07-.24-.21V10c0-1.45-.63-2.22-1.88-2.22a2.94,2.94,0,0,0-2,.75v8.35c0,.12-.07.19-.22.19H68.41c-.17,0-.22-.07-.22-.21Z" transform="translate(10.65 -0.06)"/><path class="a" d="M81.52,2A1.8,1.8,0,0,1,83.23.06h.17a1.75,1.75,0,0,1,1.86,1.63v.22a1.87,1.87,0,0,1-3.74,0Zm.17,3.35c0-.12,0-.19.2-.19h3c.14,0,.19,0,.19.19V16.86c0,.14,0,.21-.22.21H82c-.17,0-.24-.07-.24-.21Z" transform="translate(10.65 -0.06)"/><path class="a" d="M94.09,16.67c0,.14,0,.26-.17.31a6,6,0,0,1-2.14.34c-2.09,0-3.32-1-3.32-3.45v-6H87c-.14,0-.19-.07-.19-.22V5.32c0-.16,0-.21.22-.21h1.48a28.49,28.49,0,0,1,.24-2.92A.25.25,0,0,1,89,2l2.82-.36c.12,0,.19,0,.19.14-.07.75-.12,2.17-.12,3.35h2.21c.15,0,.2,0,.2.19V7.73c0,.12,0,.15-.17.17H91.84v5.16c0,1.06.32,1.54,1.3,1.54a5.56,5.56,0,0,0,.82-.09c.1,0,.17,0,.17.17Z" transform="translate(10.65 -0.06)"/><path class="a" d="M98.52,5.11a.25.25,0,0,1,.24.17c1.37,4.11,2.1,6.62,2.43,7.87.77-2.55,1.52-4.86,2.46-7.87a.24.24,0,0,1,.26-.17h2.87c.17,0,.19.09.17.21-1.74,5.4-4.41,12-6.19,16.16-.05.1-.12.17-.34.17l-3,.24c-.15,0-.19-.07-.12-.22.7-1.44,1.42-3,2.19-4.84a.38.38,0,0,0,0-.41c-.68-1.66-3-7.36-4.36-11.12-.08-.12,0-.19.14-.19Z" transform="translate(10.65 -0.06)"/><path class="a" d="M106.52,15.29a2,2,0,0,1,4,0,1.87,1.87,0,0,1-1.73,2,1.22,1.22,0,0,1-.27,0,1.91,1.91,0,0,1-2-1.82Z" transform="translate(10.65 -0.06)"/></svg>