<svg xmlns="http://www.w3.org/2000/svg" viewBox="0 0 62.45 22.07"><defs><style>.a{fill:#fff;}</style></defs><title>F1_text1</title><path class="a" d="M-2.8,17.06c-.15,0-.2,0-.2-.21V1.57c0-.12,0-.24.17-.24,2.17-.05,3.08-.07,5-.07,4,0,6.24,1.7,6.24,4.81a4.53,4.53,0,0,1-3,4.24c.8,1.08,3.52,5.18,4.26,6.48.08.14.1.28-.07.28H6.13c-.22,0-.29,0-.34-.14-.7-1.06-2.21-3.64-3.2-5.27-.17-.29-.29-.41-.55-.41H.28v5.63a.17.17,0,0,1-.15.19H-2.8ZM2.13,8.41c1.81,0,3-.73,3-2.15s-1.2-2.09-3-2.09H.3V8.41Z" transform="translate(3 -0.06)"/><path class="a" d="M13.45,12c.12,1.37,1.08,2.5,3.44,2.5a7.33,7.33,0,0,0,3-.55c.08,0,.15,0,.15.12v2.29c0,.17-.05.24-.17.29a8.06,8.06,0,0,1-3.68.7c-4.53,0-6.12-3.11-6.12-6.1,0-3.32,2-6.35,5.83-6.35a4.91,4.91,0,0,1,5,4.77c0,.14,0,.28,0,.42a7.24,7.24,0,0,1-.12,1.61.21.21,0,0,1-.2.19,22.75,22.75,0,0,1-2.48.1Zm3.13-2.34a8,8,0,0,0,1.2,0V9.42a2,2,0,0,0-2-1.9,2.3,2.3,0,0,0-2.36,2.11Z" transform="translate(3 -0.06)"/><path class="a" d="M26.38,5.11c.12,0,.19,0,.19.19V16.06c0,2.65-.39,3.68-1.2,4.69A4.65,4.65,0,0,1,22,22.12h-.63c-.19,0-.22-.1-.22-.24V19.43c0-.12,0-.19.17-.19,1.25,0,1.95-.48,1.95-2.24V5.3c0-.12.08-.19.22-.19ZM23,2A1.82,1.82,0,0,1,24.78.06h.15a1.75,1.75,0,0,1,1.86,1.63v.22a1.88,1.88,0,0,1-3.76,0Z" transform="translate(3 -0.06)"/><path class="a" d="M40.61,11.06c0,3.78-2.46,6.29-5.93,6.29-4.11,0-5.94-3.11-5.94-6.22a5.88,5.88,0,0,1,6-6.23C38.61,4.87,40.61,7.78,40.61,11.06Zm-8.48,0c0,2.11,1,3.46,2.6,3.46,1.4,0,2.46-1.2,2.46-3.42,0-1.87-.77-3.44-2.6-3.44C33.19,7.66,32.13,8.91,32.13,11.06Z" transform="translate(3 -0.06)"/><path class="a" d="M42.6,2A1.8,1.8,0,0,1,44.3.06h.22a1.75,1.75,0,0,1,1.86,1.63v.22a1.87,1.87,0,0,1-3.74,0Zm.17,3.35c0-.12,0-.19.2-.19h3c.14,0,.19,0,.19.19V16.86c0,.14,0,.21-.22.21H43q-.24,0-.24-.21Z" transform="translate(3 -0.06)"/><path class="a" d="M48.91,7.9a22.43,22.43,0,0,0-.09-2.6c0-.12,0-.19.16-.19h2.54c.2,0,.27.07.32.19a3.21,3.21,0,0,1,.19.8,5.28,5.28,0,0,1,3.42-1.23c1.85,0,4,1,4,4.84v7.15c0,.14-.05.21-.21.21H56.38c-.17,0-.24-.07-.24-.21V10c0-1.45-.63-2.22-1.88-2.22a2.9,2.9,0,0,0-2,.75v8.35c0,.12-.07.19-.22.19H49.13c-.17,0-.22-.07-.22-.21Z" transform="translate(3 -0.06)"/></svg>