<svg xmlns="http://www.w3.org/2000/svg" viewBox="0 0 33.07 17.33"><defs><style>.a{fill:#fff;}</style></defs><title>F1_text2</title><path class="a" d="M15.74,16.67c0,.14,0,.26-.17.31a6.05,6.05,0,0,1-2.15.34c-2.09,0-3.32-1-3.32-3.45v-6H8.66c-.15,0-.2-.07-.2-.22V5.32c0-.16,0-.21.22-.21h1.45a23.78,23.78,0,0,1,.24-2.92A.23.23,0,0,1,10.58,2l2.82-.36c.12,0,.19,0,.19.14-.07.75-.07,2.17-.07,3.35h2.22c.14,0,.19,0,.19.19V7.73c0,.12,0,.15-.17.17H13.45v5.16c0,1.06.31,1.54,1.3,1.54a5.56,5.56,0,0,0,.82-.09c.09,0,.17,0,.17.17Z" transform="translate(-8.46 0)"/><path class="a" d="M21.18,16.88c0,.15,0,.19-.2.19H18c-.14,0-.19-.07-.19-.19V.17c0-.09,0-.17.19-.17h3c.15,0,.2,0,.2.17V5.85a5.32,5.32,0,0,1,3.15-1c1.88,0,4.07,1,4.07,4.84v7.17c0,.14,0,.21-.22.21H25.29c-.17,0-.24-.07-.24-.21v-6.8c0-1.51-.65-2.26-1.9-2.26a3.32,3.32,0,0,0-2,.6Z" transform="translate(-8.46 0)"/><path class="a" d="M34,12c.12,1.37,1.09,2.5,3.45,2.5a7.33,7.33,0,0,0,3-.55c.07,0,.14,0,.14.12v2.29c0,.17,0,.24-.16.29a8.35,8.35,0,0,1-3.69.7c-4.53,0-6.11-3.11-6.11-6.1,0-3.32,2-6.35,5.82-6.35a4.9,4.9,0,0,1,5.09,4.7,4,4,0,0,1,0,.49,7.24,7.24,0,0,1-.12,1.61.21.21,0,0,1-.19.19,22.75,22.75,0,0,1-2.48.1Zm3.13-2.34a8.15,8.15,0,0,0,1.21,0V9.42a2,2,0,0,0-2-1.9A2.28,2.28,0,0,0,34,9.63Z" transform="translate(-8.46 0)"/></svg>