<svg xmlns="http://www.w3.org/2000/svg" viewBox="0 0 106.13 21.87"><defs><style>.a{isolation:isolate;}.b{fill:#fff;}</style></defs><title>tag_headline1</title><g class="a"><path class="b" d="M.86,22c-.18,0-.18-.1-.18-.23v-2c0-.18,0-.26.1-.33,1.14-.86,2.78-2,4.11-3.25C7.54,13.81,8,12.35,8,11.16,8,9.57,7.1,8.56,5,8.56a7.59,7.59,0,0,0-3.79,1c-.16.08-.24,0-.24-.13V6.74a.27.27,0,0,1,.16-.29A9.64,9.64,0,0,1,5.85,5.33c3.93,0,5.77,2.53,5.77,5.36a7.75,7.75,0,0,1-2.86,5.85A30.75,30.75,0,0,1,5.88,19c1-.1,2.1-.1,3.66-.1h2.71c.2,0,.26.05.23.18l-.62,2.7c-.06.16-.11.21-.26.21Z" transform="translate(-0.68 -5.33)"/><path class="b" d="M14,13.76c0-4.92,2.26-8.43,6.24-8.43,4.86,0,6.16,4.37,6.16,8.43,0,4.44-1.74,8.5-6.16,8.5S14,18.54,14,13.76Zm3.62-.11c0,3.59.88,5.52,2.62,5.52s2.55-1.77,2.55-5.44-.86-5.35-2.6-5.35C18.64,8.38,17.58,9.94,17.58,13.65Z" transform="translate(-0.68 -5.33)"/><path class="b" d="M35.85,8.66c.13,0,.19.05.19.21v5.07h4.88c.13,0,.16.05.16.23v2.14c0,.13,0,.18-.21.18H36v5.17c0,.13-.06.16-.21.16H33.57c-.16,0-.19-.05-.19-.16V16.49H28.52c-.13,0-.21,0-.21-.21V14.12c0-.13.06-.18.19-.18h4.88V8.82a.14.14,0,0,1,.16-.16Z" transform="translate(-0.68 -5.33)"/><path class="b" d="M59.54,19.11c0,.68,0,1.23.05,1.85,0,.05,0,.1-.05.13a14.44,14.44,0,0,1-5.67,1.17c-2.88,0-5.25-1.33-5.25-4.34,0-2.76,2.42-4.21,5.88-4.21a11.34,11.34,0,0,1,1.53,0v-.18c0-.5-.31-1.64-2.5-1.64a8.36,8.36,0,0,0-3.43.7.15.15,0,0,1-.23-.13V9.88a.23.23,0,0,1,.18-.26,9.87,9.87,0,0,1,4.08-.8c3.75,0,5.41,2.31,5.41,5.28ZM56,16.44a8.55,8.55,0,0,0-1.3-.08c-1.85,0-2.6.6-2.6,1.53s.65,1.56,2.29,1.56A5.4,5.4,0,0,0,56,19.22Z" transform="translate(-0.68 -5.33)"/><path class="b" d="M74.7,15.14c0,4.75-3.9,7.12-8,7.12a3,3,0,0,1-.49,0v4.42c0,.13,0,.21-.21.24-1.07.1-3.07.28-3.22.31s-.19-.05-.19-.18V11.73c0-.36-.05-1.33-.07-1.72a.13.13,0,0,1,.1-.13,16.83,16.83,0,0,1,5.46-1.06C72.64,8.82,74.7,11.89,74.7,15.14Zm-8.45-3.05v7.1a4.52,4.52,0,0,0,.83,0A3.67,3.67,0,0,0,71,15.37c0-2.24-1.14-3.48-3.17-3.48A5.21,5.21,0,0,0,66.25,12.09Z" transform="translate(-0.68 -5.33)"/><path class="b" d="M89.1,15.14c0,4.75-3.9,7.12-8,7.12a3,3,0,0,1-.49,0v4.42c0,.13,0,.21-.21.24-1.06.1-3.07.28-3.22.31S77,27.15,77,27V11.73C77,11.37,77,10.4,77,10a.13.13,0,0,1,.1-.13,16.83,16.83,0,0,1,5.46-1.06C87.05,8.82,89.1,11.89,89.1,15.14Zm-8.45-3.05v7.1a4.52,4.52,0,0,0,.83,0,3.67,3.67,0,0,0,3.9-3.87c0-2.24-1.14-3.48-3.17-3.48A5.21,5.21,0,0,0,80.65,12.09Z" transform="translate(-0.68 -5.33)"/><path class="b" d="M96.09,11.7c-1.22,0-1.61.45-1.61.89s.34.78,1.85,1.35c3.14,1.14,4.13,2.37,4.13,4.21,0,2.47-1.92,4.11-5.35,4.11a8.4,8.4,0,0,1-3.77-.73c-.13-.08-.19-.15-.19-.28V18.44c0-.16.11-.24.21-.16a7.33,7.33,0,0,0,3.82,1c1.23,0,1.77-.34,1.77-.88s-.44-.86-2-1.43c-2.94-1.09-3.9-2.34-3.9-4.21,0-2,1.63-4,5.07-4a8.66,8.66,0,0,1,3.38.52.34.34,0,0,1,.18.34v2.6c0,.15-.11.26-.26.18A8,8,0,0,0,96.09,11.7Z" transform="translate(-0.68 -5.33)"/><path class="b" d="M102.49,20.08a2.16,2.16,0,1,1,4.32,0,2,2,0,0,1-2.16,2.18A2.05,2.05,0,0,1,102.49,20.08Z" transform="translate(-0.68 -5.33)"/></g></svg>