<svg xmlns="http://www.w3.org/2000/svg" viewBox="0 0 257.86 202.44"><defs><style>.a{fill:#fff;}.b{isolation:isolate;}.c{fill:none;}</style></defs><title>F1_copy-cta-logo</title><path class="a" d="M19.33,165H30.07v25.71Z" transform="translate(-0.5 -2.57)"/><path class="a" d="M11.77,165H1v25.71Z" transform="translate(-0.5 -2.57)"/><path class="a" d="M15.55,174.47l6.84,16.24H17.91l-2.05-5.17h-5Z" transform="translate(-0.5 -2.57)"/><path class="a" d="M4.76,201c-.21-1.05-.58-2.62-.72-3.64H4c-.15,1-.42,2.38-.66,3.64Zm-1.7,1.53-.48,2.24c0,.08,0,.1-.11.1H1.1c-.09,0-.12,0-.1-.15l1.88-8.1a3,3,0,0,0,.05-.79.08.08,0,0,1,.07-.08H5c.07,0,.1,0,.12.1l2.19,8.9c0,.08,0,.11-.09.11H5.67a.1.1,0,0,1-.11-.08v0l-.5-2.23Z" transform="translate(-0.5 -2.57)"/><path class="a" d="M10.9,199.25a1.1,1.1,0,0,0-.31,0c-.8,0-1.39.72-1.39,2.14s.59,2.12,1.37,2.12a1.24,1.24,0,0,0,.33,0ZM7.52,201.4c0-2.06,1.21-3.66,3.15-3.66h.23v-2.43a.07.07,0,0,1,.08-.08H12.5c.06,0,.07,0,.07.08v8.15a6.11,6.11,0,0,0,0,.95.11.11,0,0,1-.06.1,4.73,4.73,0,0,1-2.05.5C8.72,205,7.52,203.83,7.52,201.4Z" transform="translate(-0.5 -2.57)"/><path class="a" d="M15.13,201.35c0,1.31.29,2.18.92,2.18s.91-.74.91-2.17-.23-2.15-.9-2.15S15.13,199.88,15.13,201.35Zm3.49,0c0,2.23-.93,3.65-2.57,3.65-1.85,0-2.58-1.61-2.58-3.67s.94-3.6,2.61-3.6,2.55,1.34,2.55,3.61Z" transform="translate(-0.5 -2.57)"/><path class="a" d="M21.7,199.24a1.75,1.75,0,0,0-.51.07v4.18a1,1,0,0,0,.3,0c.64,0,1.39-.65,1.4-2.4C22.9,199.73,22.35,199.24,21.7,199.24Zm-.58-4c.06,0,.07,0,.07.09v2.5a3.29,3.29,0,0,1,.76-.09c1.48,0,2.59,1.14,2.59,3.33,0,2.56-1.45,3.94-3.28,3.94a5.47,5.47,0,0,1-1.65-.26.13.13,0,0,1-.08-.11v-9.31a.06.06,0,0,1,.06-.08h1.53Z" transform="translate(-0.5 -2.57)"/><path class="a" d="M28,200.43a2,2,0,0,0,.42,0,.38.38,0,0,0,0-.15c0-.54-.16-1.1-.75-1.1s-.79.58-.86,1.27Zm-1.2,1.33c0,1.09.41,1.75,1.55,1.75a2.66,2.66,0,0,0,1.08-.2c.07,0,.11,0,.11.07v1.17c0,.1,0,.16-.1.19a3,3,0,0,1-1.4.25c-2.07,0-2.88-1.52-2.88-3.52s.93-3.74,2.59-3.74,2.25,1.55,2.25,2.8A7.69,7.69,0,0,1,30,201.6a.14.14,0,0,1-.13.11c-.14,0-.58,0-1.34,0Z" transform="translate(-0.5 -2.57)"/><path class="a" d="M77,111.5H19a18.5,18.5,0,0,1,0-37H77a18.5,18.5,0,0,1,0,37Zm-58-36a17.5,17.5,0,0,0,0,35H77a17.5,17.5,0,0,0,0-35Z" transform="translate(-0.5 -2.57)"/><path class="a" d="M77,110.5H19a17.5,17.5,0,0,1,0-35H77a17.5,17.5,0,0,1,0,35Zm-58-34a16.5,16.5,0,0,0,0,33H77a16.5,16.5,0,0,0,0-33Z" transform="translate(-0.5 -2.57)"/><g class="b"><g class="b"><path class="a" d="M20,97a.23.23,0,0,1-.1-.22V95.11A.07.07,0,0,1,20,95a4.81,4.81,0,0,0,2.53.73c1.07,0,1.49-.36,1.49-.85s-.33-.77-1.28-1.18l-.7-.29c-1.72-.73-2.2-1.6-2.2-2.69C19.81,89.24,21,88,23.19,88a5.27,5.27,0,0,1,2.18.36.2.2,0,0,1,.09.19v1.56c0,.06-.05.13-.13.07a4.45,4.45,0,0,0-2.16-.46c-1.08,0-1.45.37-1.45.83s.29.73,1.34,1.15l.52.21c1.86.77,2.38,1.65,2.38,2.78,0,1.7-1.37,2.76-3.53,2.76A5.45,5.45,0,0,1,20,97Z" transform="translate(-0.5 -2.57)"/><path class="a" d="M32.86,95.8c0,.36,0,.66,0,1,0,0,0,.06,0,.07a7.63,7.63,0,0,1-3.05.63c-1.56,0-2.83-.71-2.83-2.34s1.3-2.27,3.17-2.27a5.45,5.45,0,0,1,.82,0v-.09c0-.27-.17-.89-1.34-.89a4.46,4.46,0,0,0-1.85.38.08.08,0,0,1-.13-.07V90.83a.12.12,0,0,1,.1-.14,5.18,5.18,0,0,1,2.2-.44,2.64,2.64,0,0,1,2.91,2.85ZM31,94.36a4.79,4.79,0,0,0-.7,0c-1,0-1.4.33-1.4.83s.35.84,1.23.84a3,3,0,0,0,.87-.12Z" transform="translate(-0.5 -2.57)"/><path class="a" d="M36,97.35a.16.16,0,0,1-.16-.09c-.54-1.59-1.71-5.14-2.29-6.76a.09.09,0,0,1,.1-.11h1.84a.14.14,0,0,1,.15.1c.91,3.15,1.22,4.4,1.36,5h0c.14-.63.5-1.89,1.48-5,0-.07.06-.1.13-.1h1.62c.06,0,.11,0,.09.13-.61,1.65-1.78,5.19-2.34,6.72a.17.17,0,0,1-.17.11Z" transform="translate(-0.5 -2.57)"/><path class="a" d="M42.74,94.38c.07.8.63,1.46,2,1.46a4.39,4.39,0,0,0,1.72-.32s.08,0,.08.07v1.33c0,.1,0,.14-.09.17a4.81,4.81,0,0,1-2.15.4A3.28,3.28,0,0,1,40.76,94a3.42,3.42,0,0,1,3.39-3.7,2.86,2.86,0,0,1,3,3,4.73,4.73,0,0,1-.07.94c0,.07,0,.09-.11.11a13.1,13.1,0,0,1-1.44,0ZM44.57,93a5.21,5.21,0,0,0,.7,0v-.1a1.14,1.14,0,0,0-1.19-1.11A1.33,1.33,0,0,0,42.73,93Z" transform="translate(-0.5 -2.57)"/><path class="a" d="M52.77,93.61c-.07,0-.11,0-.11-.09V92c0-.08,0-.14.09-.14h.77c.93,0,1.43-.25,1.43-.86s-.5-1-1.48-1a4.25,4.25,0,0,0-2,.51c-.09,0-.1,0-.1,0V89.06c0-.07,0-.1.07-.15a5.24,5.24,0,0,1,2.44-.53c1.83,0,3,.92,3,2.39a2,2,0,0,1-1.18,1.81,2.2,2.2,0,0,1,1.58,2.17c0,1.78-1.65,2.74-3.58,2.74a5.31,5.31,0,0,1-2.35-.43c-.1,0-.1-.13-.1-.2V95.27a.07.07,0,0,1,.12-.06,4.88,4.88,0,0,0,2.24.58c1.21,0,1.67-.48,1.67-1.11s-.48-1.07-1.57-1.07Z" transform="translate(-0.5 -2.57)"/><path class="a" d="M58.31,92.91c0-2.64,1.22-4.53,3.36-4.53,2.62,0,3.32,2.35,3.32,4.53,0,2.4-.94,4.58-3.32,4.58S58.31,95.49,58.31,92.91Zm1.95,0c0,1.93.47,3,1.41,3s1.38-1,1.38-2.93S62.58,90,61.64,90,60.26,90.85,60.26,92.86Z" transform="translate(-0.5 -2.57)"/><path class="a" d="M70.75,91a2.39,2.39,0,0,1-2.36,2.56A2.25,2.25,0,0,1,66,91a2.4,2.4,0,0,1,2.37-2.63C70,88.38,70.75,89.47,70.75,91Zm-2.32,1.27c.52,0,.86-.45.86-1.27s-.34-1.32-.87-1.32-.9.41-.9,1.3C67.52,91.68,67.82,92.24,68.43,92.24Zm.79,5c-.06.08-.1.08-.21.08H67.79c-.06,0-.11-.07,0-.12l6.16-8.63a.2.2,0,0,1,.17-.08h1.22a.05.05,0,0,1,0,.09Zm7.87-2.35a2.39,2.39,0,0,1-2.35,2.57A2.27,2.27,0,0,1,72.37,95a2.4,2.4,0,0,1,2.37-2.62A2.28,2.28,0,0,1,77.09,94.92Zm-2.32,1.27c.51,0,.85-.42.85-1.27s-.32-1.31-.87-1.31-.9.43-.9,1.31S74.16,96.19,74.77,96.19Z" transform="translate(-0.5 -2.57)"/></g></g><rect class="c" x="94.5" y="48.43" width="30" height="100"/><g class="b"><g class="b"><path class="a" d="M2.08,21c-.16,0-.21-.05-.21-.23V4.26c0-.13,0-.26.18-.26,2.34-.06,3.33-.08,5.44-.08,4.31,0,6.73,1.84,6.73,5.2A4.87,4.87,0,0,1,11,13.69c.86,1.17,3.8,5.59,4.6,7,.08.15.11.31-.07.31H11.73c-.24,0-.32-.05-.37-.16C10.61,19.7,9,16.92,7.9,15.15c-.18-.31-.31-.44-.59-.44H5.41v6.08A.19.19,0,0,1,5.2,21Zm5.33-9.36c1.95,0,3.2-.78,3.2-2.31S9.31,7.06,7.38,7.06c-.85,0-1.58,0-2,.06v4.52Z" transform="translate(-0.5 -2.57)"/><path class="a" d="M19.63,15.49c.13,1.48,1.17,2.7,3.72,2.7a8,8,0,0,0,3.2-.6c.07-.05.15,0,.15.13v2.47c0,.19-.05.26-.18.32a8.78,8.78,0,0,1-4,.75c-4.89,0-6.6-3.35-6.6-6.58,0-3.59,2.21-6.86,6.29-6.86,3.93,0,5.49,3,5.49,5.61a9,9,0,0,1-.13,1.75.22.22,0,0,1-.21.2,21.81,21.81,0,0,1-2.68.11ZM23,13a7.33,7.33,0,0,0,1.3-.06v-.18a2.11,2.11,0,0,0-2.21-2.05A2.47,2.47,0,0,0,19.6,13Z" transform="translate(-0.5 -2.57)"/><path class="a" d="M30,11.09c0-.88-.05-2.23-.1-2.8,0-.13,0-.21.18-.21h2.73a.31.31,0,0,1,.34.21,3.22,3.22,0,0,1,.2.85,5.75,5.75,0,0,1,3.7-1.32c2,0,4.36,1,4.36,5.22v7.73c0,.15,0,.23-.23.23H38.09c-.18,0-.26-.08-.26-.23V13.36c0-1.56-.68-2.4-2-2.4a3.19,3.19,0,0,0-2.16.81v9c0,.13-.07.21-.23.21H30.26c-.18,0-.23-.08-.23-.23Z" transform="translate(-0.5 -2.57)"/><path class="a" d="M47.48,15.49c.13,1.48,1.17,2.7,3.71,2.7a8,8,0,0,0,3.2-.6c.08-.05.16,0,.16.13v2.47c0,.19,0,.26-.18.32a8.81,8.81,0,0,1-4,.75c-4.89,0-6.61-3.35-6.61-6.58,0-3.59,2.21-6.86,6.3-6.86,3.92,0,5.48,3,5.48,5.61a8.28,8.28,0,0,1-.13,1.75.21.21,0,0,1-.21.2,21.47,21.47,0,0,1-2.67.11ZM50.86,13a7.42,7.42,0,0,0,1.3-.06v-.18A2.12,2.12,0,0,0,50,10.68,2.47,2.47,0,0,0,47.45,13Z" transform="translate(-0.5 -2.57)"/><path class="a" d="M68.69,21a.27.27,0,0,1-.31-.23c-1.3-5.31-1.72-7.7-2-9h0c-.65,2.86-1.17,5-2.26,9-.06.18-.13.23-.29.23H60.58c-.26,0-.31-.05-.37-.23L56.83,8.31c0-.13,0-.23.21-.23h3.3c.16,0,.21.05.24.18,1.38,5.62,1.74,8.11,1.92,9.2h.06c.2-.93.62-3.38,2.13-9.15,0-.15,0-.23.23-.23h3.43a.18.18,0,0,1,.21.18c1.38,5.75,1.74,8.27,1.93,9.31h.05c.36-1.69.75-4.5,2-9.31a.21.21,0,0,1,.23-.18h3a.15.15,0,0,1,.15.21L72.25,20.77c0,.18-.07.23-.31.23Z" transform="translate(-0.5 -2.57)"/><path class="a" d="M86.86,16.94l-1.24,3.85a.29.29,0,0,1-.29.21h-3c-.18,0-.23-.1-.2-.26l5.2-15a5.13,5.13,0,0,0,.26-1.59A.18.18,0,0,1,87.72,4h4.16c.13,0,.18,0,.21.16L98,20.77c.06.13,0,.23-.13.23H94.48a.26.26,0,0,1-.28-.18l-1.33-3.88Zm5-3.25C91.39,12,90.35,8.83,89.85,7h0c-.42,1.74-1.35,4.6-2,6.7Z" transform="translate(-0.5 -2.57)"/><path class="a" d="M108.68,20.64c0,.13,0,.18-.13.2a8,8,0,0,1-2.91.42c-4.22,0-6.87-2.83-6.87-6.66s2.94-6.78,7.36-6.78a7.23,7.23,0,0,1,2.39.28c.13.06.16.13.16.29l0,2.68c0,.18-.1.21-.2.18a6.62,6.62,0,0,0-2.19-.31c-2.18,0-3.77,1.19-3.77,3.53,0,2.71,2,3.59,3.82,3.59a8.6,8.6,0,0,0,2.16-.23c.16,0,.21,0,.21.1Z" transform="translate(-0.5 -2.57)"/><path class="a" d="M113.75,8.08a.29.29,0,0,1,.31.23,5.14,5.14,0,0,1,.29,1.46,5.39,5.39,0,0,1,4.13-1.95c.16,0,.21,0,.21.21v3.19c0,.13,0,.19-.23.19a5.35,5.35,0,0,0-3.93,1.11l0,8.27c0,.16,0,.21-.23.21h-3.12c-.21,0-.26-.08-.26-.23v-9c0-1.12,0-2.63-.13-3.54,0-.13,0-.18.15-.18Z" transform="translate(-0.5 -2.57)"/><path class="a" d="M132.65,14.47c0,4.09-2.65,6.79-6.4,6.79-4.44,0-6.42-3.35-6.42-6.71,0-3.69,2.47-6.73,6.48-6.73C130.49,7.82,132.65,11,132.65,14.47Zm-9.15,0c0,2.29,1.06,3.74,2.81,3.74,1.5,0,2.65-1.3,2.65-3.69,0-2-.83-3.72-2.81-3.72C124.64,10.83,123.5,12.19,123.5,14.5Z" transform="translate(-0.5 -2.57)"/><path class="a" d="M138.34,2.57c.21,0,.26,0,.26.2V8.1a8.53,8.53,0,0,1,2.19-.28A6,6,0,0,1,147,14c0,4.86-3.85,7.25-7.8,7.25a13.44,13.44,0,0,1-4.08-.6.29.29,0,0,1-.16-.26V2.75c0-.13,0-.18.18-.18Zm1.8,8.32a5.77,5.77,0,0,0-1.54.2v7.05a4,4,0,0,0,1,.1,3.58,3.58,0,0,0,3.77-3.9C143.34,12,142,10.89,140.14,10.89Z" transform="translate(-0.5 -2.57)"/><path class="a" d="M159.51,18.11c0,.68,0,1.23.05,1.85,0,.05,0,.1-.05.13a14.44,14.44,0,0,1-5.67,1.17c-2.89,0-5.25-1.33-5.25-4.34,0-2.76,2.42-4.21,5.87-4.21a11.52,11.52,0,0,1,1.54,0v-.18c0-.5-.31-1.64-2.5-1.64a8.36,8.36,0,0,0-3.43.7.15.15,0,0,1-.23-.13V8.88a.23.23,0,0,1,.18-.26,9.84,9.84,0,0,1,4.08-.8c3.74,0,5.41,2.31,5.41,5.28ZM156,15.44a8.55,8.55,0,0,0-1.3-.08c-1.85,0-2.6.6-2.6,1.53s.65,1.56,2.29,1.56a5.49,5.49,0,0,0,1.61-.23Z" transform="translate(-0.5 -2.57)"/><path class="a" d="M168.87,20.56c0,.15,0,.28-.18.34a6.5,6.5,0,0,1-2.32.36c-2.26,0-3.59-1.12-3.59-3.72V11.09h-1.56c-.15,0-.2-.07-.2-.23V8.31c0-.18,0-.23.23-.23h1.56a29.5,29.5,0,0,1,.26-3.15.27.27,0,0,1,.23-.23l3-.39c.13,0,.2,0,.2.15-.07.81-.13,2.34-.13,3.62h2.4c.15,0,.2.05.2.21v2.62c0,.13-.05.16-.18.18H166.4v5.57c0,1.14.34,1.66,1.4,1.66a5.51,5.51,0,0,0,.89-.1c.1,0,.18,0,.18.18Z" transform="translate(-0.5 -2.57)"/><path class="a" d="M177.19,4.2c0-.15,0-.2.15-.2,1.07,0,3.12-.08,5.1-.08,5.25,0,7.07,2.91,7.07,5.74,0,4.22-3.25,6-7.25,6h-1.48v5.12a.19.19,0,0,1-.21.21h-3.2c-.13,0-.18-.08-.18-.21Zm3.59,8.27c.44,0,.72,0,1.45,0,2.06,0,3.69-.63,3.69-2.76,0-1.64-1.11-2.68-3.38-2.68-.83,0-1.53,0-1.76.06Z" transform="translate(-0.5 -2.57)"/><path class="a" d="M194.53,8.08a.29.29,0,0,1,.31.23,5.14,5.14,0,0,1,.29,1.46,5.41,5.41,0,0,1,4.13-1.95c.16,0,.21,0,.21.21v3.19c0,.13-.05.19-.23.19a5.35,5.35,0,0,0-3.93,1.11l0,8.27c0,.16-.05.21-.23.21h-3.12c-.21,0-.26-.08-.26-.23v-9c0-1.12,0-2.63-.13-3.54,0-.13,0-.18.15-.18Z" transform="translate(-0.5 -2.57)"/><path class="a" d="M213.43,14.47c0,4.09-2.65,6.79-6.4,6.79-4.44,0-6.42-3.35-6.42-6.71,0-3.69,2.47-6.73,6.48-6.73C211.27,7.82,213.43,11,213.43,14.47Zm-9.15,0c0,2.29,1.06,3.74,2.81,3.74,1.5,0,2.65-1.3,2.65-3.69,0-2-.83-3.72-2.81-3.72C205.42,10.83,204.28,12.19,204.28,14.5Z" transform="translate(-0.5 -2.57)"/><path class="a" d="M222,4.2c0-.13,0-.18.19-.2.78,0,2.75-.08,5.07-.08,6.21,0,9.25,3.48,9.25,8.29,0,6.22-4.78,8.84-9.2,8.84-1.72,0-4.32,0-5.15-.05-.1,0-.16-.08-.16-.26Zm3.62,13.68c.52,0,.93.05,1.53.05,3.41,0,5.64-2,5.64-5.67s-2.23-5.2-5.56-5.2c-.62,0-1,0-1.61,0Z" transform="translate(-0.5 -2.57)"/><path class="a" d="M251.34,20.43c0,.18-.05.31-.21.36a11.45,11.45,0,0,1-3.61.47c-5.05,0-9-3-9-8.68,0-5.28,3.64-8.87,9.38-8.87a8.67,8.67,0,0,1,3.38.44.29.29,0,0,1,.18.31V7.3c0,.23-.13.23-.23.18a8.08,8.08,0,0,0-3.38-.57c-3.48,0-5.62,2.16-5.62,5.54,0,4.05,3,5.59,5.7,5.59a9.74,9.74,0,0,0,3.17-.42c.13-.05.21,0,.21.13Z" transform="translate(-0.5 -2.57)"/><path class="a" d="M254,19.08a2.16,2.16,0,0,1,4.32,0,2,2,0,0,1-2.16,2.18A2.05,2.05,0,0,1,254,19.08Z" transform="translate(-0.5 -2.57)"/></g><g class="b"><path class="a" d="M2.11,51c-.16,0-.24,0-.24-.23V34.18c0-.13,0-.21.18-.21H6.27c.2,0,.23.05.33.21,1.75,3.2,5.26,10,6.09,11.93h0c0-.75-.07-1.53-.07-4.08V34.2a.2.2,0,0,1,.23-.23h2.91c.18,0,.24.08.24.26V50.74c0,.21-.06.26-.29.26H12c-.24,0-.29,0-.37-.21-1.45-2.86-5.38-10.14-6.47-12.95h0c.11,1.51.13,2.55.13,5v7.93c0,.15,0,.23-.21.23Z" transform="translate(-0.5 -2.57)"/><path class="a" d="M31.3,44.47c0,4.09-2.65,6.79-6.39,6.79-4.45,0-6.42-3.35-6.42-6.71,0-3.69,2.47-6.73,6.47-6.73C29.15,37.82,31.3,41,31.3,44.47Zm-9.15,0c0,2.29,1.07,3.74,2.81,3.74,1.51,0,2.65-1.3,2.65-3.69,0-2-.83-3.72-2.81-3.72C23.3,40.83,22.15,42.19,22.15,44.5Z" transform="translate(-0.5 -2.57)"/><path class="a" d="M44.33,51a.27.27,0,0,1-.31-.23c-1.3-5.31-1.72-7.7-2-9h0c-.65,2.86-1.17,5-2.27,9,0,.18-.13.23-.28.23H36.22c-.26,0-.31,0-.37-.23L32.47,38.31c0-.13,0-.23.21-.23H36c.16,0,.21.05.24.18,1.38,5.62,1.74,8.11,1.92,9.2h0c.21-.93.63-3.38,2.14-9.15,0-.15.05-.23.23-.23H44c.13,0,.18.05.21.18,1.38,5.75,1.74,8.27,1.92,9.31h.06c.36-1.69.75-4.5,2-9.31a.21.21,0,0,1,.23-.18h3c.11,0,.21.08.16.21L47.89,50.77c0,.18-.08.23-.31.23Z" transform="translate(-0.5 -2.57)"/><path class="a" d="M69.73,51a.27.27,0,0,1-.31-.23c-1.3-5.31-1.72-7.7-2-9h0c-.65,2.86-1.17,5-2.26,9-.06.18-.13.23-.29.23H61.62c-.26,0-.31,0-.36-.23L57.88,38.31c-.06-.13,0-.23.2-.23h3.31c.15,0,.2.05.23.18,1.38,5.62,1.74,8.11,1.92,9.2h.06c.2-.93.62-3.38,2.13-9.15,0-.15,0-.23.23-.23h3.43a.18.18,0,0,1,.21.18C71,44,71.34,46.53,71.53,47.57h0c.36-1.69.75-4.5,2-9.31a.21.21,0,0,1,.23-.18h3a.15.15,0,0,1,.15.21L73.29,50.77c-.05.18-.07.23-.31.23Z" transform="translate(-0.5 -2.57)"/><path class="a" d="M78.65,34.67a2,2,0,0,1,2-2,1.88,1.88,0,0,1,2,2,1.92,1.92,0,0,1-2,2A1.89,1.89,0,0,1,78.65,34.67Zm.18,3.62c0-.13,0-.21.21-.21h3.2c.15,0,.21.05.21.21V50.77c0,.15,0,.23-.24.23H79.09c-.18,0-.26-.08-.26-.23Z" transform="translate(-0.5 -2.57)"/><path class="a" d="M92.22,50.56c0,.15,0,.28-.18.34a6.5,6.5,0,0,1-2.32.36c-2.26,0-3.58-1.12-3.58-3.72V41.09H84.58c-.16,0-.21-.07-.21-.23V38.31c0-.18,0-.23.23-.23h1.56a29.5,29.5,0,0,1,.26-3.15.28.28,0,0,1,.24-.23l3-.39c.13,0,.21,0,.21.15-.08.81-.13,2.34-.13,3.62h2.39c.15,0,.21.05.21.21v2.62c0,.13-.06.16-.19.18H89.75v5.57c0,1.14.34,1.66,1.4,1.66a5.27,5.27,0,0,0,.89-.1c.1,0,.18,0,.18.18Z" transform="translate(-0.5 -2.57)"/><path class="a" d="M98.1,50.79c0,.16-.06.21-.21.21h-3.2c-.16,0-.21-.08-.21-.21v-18c0-.11,0-.18.21-.18h3.2c.15,0,.21,0,.21.18v6.13a5.78,5.78,0,0,1,3.4-1.06c2,0,4.4,1,4.4,5.22v7.73c0,.15-.06.23-.24.23h-3.12c-.18,0-.26-.08-.26-.23V43.41c0-1.64-.7-2.45-2-2.45a3.56,3.56,0,0,0-2.13.65Z" transform="translate(-0.5 -2.57)"/><path class="a" d="M115.49,51c-.21,0-.26-.1-.26-.29V34.23c0-.16,0-.26.21-.26h3.22c.13,0,.18.08.18.21V47.72h7.44c.16,0,.21.11.18.24L126,50.79c0,.18-.13.21-.26.21Z" transform="translate(-0.5 -2.57)"/><path class="a" d="M128.26,34.67a1.94,1.94,0,0,1,2-2,1.89,1.89,0,0,1,2,2,1.92,1.92,0,0,1-2,2A1.89,1.89,0,0,1,128.26,34.67Zm.18,3.62c0-.13.05-.21.21-.21h3.19c.16,0,.21.05.21.21V50.77c0,.15,0,.23-.23.23H128.7c-.18,0-.26-.08-.26-.23Z" transform="translate(-0.5 -2.57)"/><path class="a" d="M134.39,44.71c0-3.67,2.7-6.89,7.59-6.89a13.88,13.88,0,0,1,4.53.75c.08,0,.08.08.08.18-.06.5-.13,1.54-.13,1.88v15c0,.13,0,.21-.16.23-1.09.11-3.15.29-3.25.29s-.21-.08-.21-.21V51a7.64,7.64,0,0,1-1.92.23A6.23,6.23,0,0,1,134.39,44.71Zm8.45-3.77a4.73,4.73,0,0,0-1.14-.11,3.37,3.37,0,0,0-3.59,3.64,3.33,3.33,0,0,0,3.43,3.67,4.44,4.44,0,0,0,1.3-.16Z" transform="translate(-0.5 -2.57)"/><path class="a" d="M160.86,48.11a21.4,21.4,0,0,0,.16,2.68c0,.16-.06.21-.24.21H158c-.21,0-.26,0-.32-.18a7.67,7.67,0,0,1-.15-.81A5.3,5.3,0,0,1,154,51.26c-2.6,0-4.4-1.43-4.4-5v-8c0-.19.05-.21.23-.21H153c.15,0,.18.05.18.21v7.54c0,1.4.6,2.31,2,2.31a2.91,2.91,0,0,0,2-.75v-9.1c0-.16.07-.21.26-.21h3.14c.18,0,.21.05.21.21Z" transform="translate(-0.5 -2.57)"/><path class="a" d="M163.82,34.67a2,2,0,0,1,2-2,1.88,1.88,0,0,1,2,2,2,2,0,1,1-4,0Zm.18,3.62a.19.19,0,0,1,.21-.21h3.2c.16,0,.21.05.21.21V50.77c0,.15,0,.23-.24.23h-3.12c-.18,0-.26-.08-.26-.23Z" transform="translate(-0.5 -2.57)"/><path class="a" d="M170,44.66c0-3.72,2.78-6.84,7.54-6.84.21,0,.47,0,.86,0V32.75a.16.16,0,0,1,.18-.18h3.27c.13,0,.16,0,.16.15V48.09a16.28,16.28,0,0,0,.1,1.9c0,.13,0,.18-.18.23a13.12,13.12,0,0,1-5.12,1C172.92,51.26,170,49.08,170,44.66Zm8.4-3.7a2.81,2.81,0,0,0-1-.13,3.47,3.47,0,0,0-3.71,3.64c0,2.58,1.48,3.7,3.45,3.7a3.7,3.7,0,0,0,1.23-.16Z" transform="translate(-0.5 -2.57)"/><path class="a" d="M192.14,34h4.78a.26.26,0,0,1,.29.18c.72,2.63,2.57,9.52,3.06,12h0c.52-2.24,2.68-9.33,3.46-12,0-.13.08-.21.21-.21h4.68c.15,0,.2,0,.2.18l.65,16.62a.18.18,0,0,1-.2.23h-3.36c-.13,0-.21,0-.21-.18-.07-5.36,0-12.59,0-14.25h0c-.57,2.57-2.86,10.69-3.88,14.22-.05.16-.13.21-.26.21h-3c-.18,0-.23,0-.28-.21-1-3.77-2.73-10.84-3.49-14.27h0c0,2.81-.13,8.84-.37,14.27,0,.18,0,.21-.2.21h-3c-.16,0-.23,0-.21-.21l.91-16.66C191.93,34,192,34,192.14,34Z" transform="translate(-0.5 -2.57)"/><path class="a" d="M224.43,44.47c0,4.09-2.65,6.79-6.4,6.79-4.44,0-6.42-3.35-6.42-6.71,0-3.69,2.47-6.73,6.47-6.73C222.27,37.82,224.43,41,224.43,44.47Zm-9.15,0c0,2.29,1.06,3.74,2.8,3.74,1.51,0,2.66-1.3,2.66-3.69,0-2-.84-3.72-2.81-3.72C216.42,40.83,215.28,42.19,215.28,44.5Z" transform="translate(-0.5 -2.57)"/><path class="a" d="M226.12,44.66c0-3.72,2.78-6.84,7.54-6.84.21,0,.47,0,.86,0V32.75a.16.16,0,0,1,.18-.18H238c.13,0,.16,0,.16.15V48.09a16.28,16.28,0,0,0,.1,1.9c0,.13,0,.18-.18.23a13.12,13.12,0,0,1-5.12,1C229.08,51.26,226.12,49.08,226.12,44.66Zm8.4-3.7a2.81,2.81,0,0,0-1-.13,3.48,3.48,0,0,0-3.72,3.64c0,2.58,1.49,3.7,3.46,3.7a3.7,3.7,0,0,0,1.23-.16Z" transform="translate(-0.5 -2.57)"/><path class="a" d="M244.16,45.49c.13,1.48,1.17,2.7,3.72,2.7a8,8,0,0,0,3.2-.6c.07-.05.15,0,.15.13v2.47c0,.19,0,.26-.18.32a8.78,8.78,0,0,1-4,.75c-4.89,0-6.6-3.35-6.6-6.58,0-3.59,2.21-6.86,6.29-6.86s5.49,3,5.49,5.61a9,9,0,0,1-.13,1.75.22.22,0,0,1-.21.2,21.81,21.81,0,0,1-2.68.11ZM247.54,43a7.33,7.33,0,0,0,1.3-.06v-.18a2.11,2.11,0,0,0-2.21-2,2.47,2.47,0,0,0-2.5,2.29Z" transform="translate(-0.5 -2.57)"/><path class="a" d="M253.78,49.08a2.16,2.16,0,0,1,4.32,0,2,2,0,0,1-2.16,2.18A2.05,2.05,0,0,1,253.78,49.08Z" transform="translate(-0.5 -2.57)"/></g></g></svg>