<svg xmlns="http://www.w3.org/2000/svg" viewBox="0 0 257.34 202.44"><defs><style>.a{fill:#fff;}.b{fill:none;}</style></defs><title>F1_copy-cta-logo_ro</title><path class="a" d="M18.83,162.43H29.57v25.71Z" transform="translate(-0.49)"/><path class="a" d="M11.27,162.43H.5v25.71Z" transform="translate(-0.49)"/><path class="a" d="M15.05,171.9l6.84,16.24H17.41L15.36,183h-5Z" transform="translate(-0.49)"/><path class="a" d="M4.26,198.43c-.21-1.05-.58-2.62-.72-3.64h0c-.15,1-.42,2.38-.66,3.64ZM2.56,200l-.48,2.24c0,.08,0,.1-.11.1H.6c-.09,0-.12,0-.1-.15l1.88-8.1a3,3,0,0,0,.05-.79.08.08,0,0,1,.07-.08h2c.07,0,.1,0,.12.1l2.19,8.9c0,.08,0,.11-.09.11H5.17a.1.1,0,0,1-.11-.08h0L4.56,200Z" transform="translate(-0.49)"/><path class="a" d="M10.4,196.68a1.61,1.61,0,0,0-.31,0c-.8,0-1.39.72-1.39,2.14s.59,2.12,1.37,2.12h.33ZM7,198.83c0-2.06,1.21-3.66,3.15-3.66h.23v-2.43s0-.07.06-.08H12c.06,0,.07,0,.07.08v8.15a7.53,7.53,0,0,0,0,1,.11.11,0,0,1-.06.1,4.73,4.73,0,0,1-2,.5C8.22,202.43,7,201.26,7,198.83Z" transform="translate(-0.49)"/><path class="a" d="M14.63,198.78c0,1.31.29,2.18.92,2.18s.91-.74.91-2.17-.23-2.15-.9-2.15S14.63,197.31,14.63,198.78Zm3.49,0c0,2.23-.93,3.65-2.57,3.65-1.85,0-2.58-1.61-2.58-3.67s.94-3.6,2.61-3.6,2.55,1.34,2.55,3.61Z" transform="translate(-0.49)"/><path class="a" d="M21.2,196.67a1.79,1.79,0,0,0-.51.07v4.18a.76.76,0,0,0,.3,0c.64,0,1.39-.65,1.4-2.4C22.4,197.16,21.85,196.67,21.2,196.67Zm-.58-4c.06,0,.07,0,.07.09v2.5a3.22,3.22,0,0,1,.76-.09c1.48,0,2.59,1.14,2.59,3.33,0,2.56-1.45,3.94-3.28,3.94a5.42,5.42,0,0,1-1.65-.26.12.12,0,0,1-.08-.11v-9.31a.07.07,0,0,1,0-.08h1.55Z" transform="translate(-0.49)"/><path class="a" d="M27.5,197.86h.42a.38.38,0,0,0,0-.15c0-.54-.16-1.1-.75-1.1s-.79.58-.86,1.27Zm-1.2,1.33c0,1.09.41,1.75,1.55,1.75a2.66,2.66,0,0,0,1.08-.2c.07,0,.11,0,.11.07V202c0,.1,0,.16-.1.19a3.06,3.06,0,0,1-1.4.25c-2.07,0-2.88-1.52-2.88-3.52s.93-3.74,2.59-3.74,2.25,1.55,2.25,2.8a9.55,9.55,0,0,1,0,1.07.14.14,0,0,1-.13.11H28Z" transform="translate(-0.49)"/><rect class="b" x="94.01" y="48.43" width="30" height="100"/><path class="a" d="M43.6,89.22h0a1.33,1.33,0,0,0-1.35,1.21h1.84a4.09,4.09,0,0,0,.7,0v-.1A1.14,1.14,0,0,0,43.6,89.22Z" transform="translate(-0.49)"/><path class="a" d="M61.14,87.43c-.94,0-1.38.85-1.38,2.86v0c0,1.93.47,3,1.41,3s1.38-1,1.38-2.93S62.08,87.43,61.14,87.43Z" transform="translate(-0.49)"/><path class="a" d="M28.4,92.62c0,.5.35.84,1.23.84a3.2,3.2,0,0,0,.87-.12V91.79a4.09,4.09,0,0,0-.7,0C28.8,91.79,28.4,92.12,28.4,92.62Z" transform="translate(-0.49)"/><path class="a" d="M67.93,89.7c.52,0,.86-.45.86-1.27s-.34-1.32-.87-1.32-.9.41-.9,1.3c0,.7.3,1.26.91,1.26Z" transform="translate(-0.49)"/><path class="a" d="M74.25,91c-.55,0-.9.43-.9,1.31s.31,1.27.92,1.27.85-.42.85-1.27S74.8,91,74.25,91Z" transform="translate(-0.49)"/><path class="a" d="M76.5,72.93h-58a17.5,17.5,0,0,0,0,35h58a17.5,17.5,0,0,0,0-35ZM21.93,94.88a5.48,5.48,0,0,1-2.43-.45.23.23,0,0,1-.1-.22V92.54a.08.08,0,0,1,0-.11.07.07,0,0,1,.1,0,4.83,4.83,0,0,0,2.53.73c1.07,0,1.49-.36,1.49-.85s-.33-.77-1.28-1.18l-.7-.29c-1.72-.73-2.2-1.6-2.2-2.69,0-1.48,1.16-2.72,3.35-2.72a5.24,5.24,0,0,1,2.18.36A.2.2,0,0,1,25,86v1.56c0,.06-.05.13-.13.07a4.48,4.48,0,0,0-2.16-.46c-1.08,0-1.45.37-1.45.83s.29.73,1.34,1.15l.52.21c1.86.77,2.38,1.65,2.38,2.78C25.46,93.82,24.09,94.88,21.93,94.88Zm10.43-1.65V94.3a7.61,7.61,0,0,1-3.05.63c-1.56,0-2.83-.71-2.83-2.34s1.3-2.27,3.17-2.27a5.61,5.61,0,0,1,.82,0v-.09c0-.27-.17-.89-1.34-.89a4.35,4.35,0,0,0-1.85.38.08.08,0,0,1-.11,0,.07.07,0,0,1,0-.06V88.26a.12.12,0,0,1,.1-.14h0a5,5,0,0,1,2.2-.44A2.64,2.64,0,0,1,32.35,90a2.77,2.77,0,0,1,0,.5Zm5.12,1.44a.18.18,0,0,1-.17.11H35.5a.15.15,0,0,1-.16-.09c-.54-1.59-1.71-5.14-2.29-6.76a.09.09,0,0,1,.07-.11H35a.13.13,0,0,1,.15.1c.91,3.15,1.22,4.4,1.36,5,.14-.63.5-1.89,1.48-5,0-.07.06-.1.13-.1h1.62c.06,0,.11,0,.09.13C39.21,89.6,38,93.14,37.48,94.67Zm9.17-3.94a5,5,0,0,1-.07.94c0,.07,0,.09-.11.11a11.53,11.53,0,0,1-1.44,0l-2.79,0c.07.8.63,1.46,2,1.46A4.41,4.41,0,0,0,46,93S46,93,46,93v1.33c0,.1,0,.14-.09.17a4.82,4.82,0,0,1-2.15.4,3.28,3.28,0,0,1-3.54-3,4,4,0,0,1,0-.49,3.43,3.43,0,0,1,3.13-3.69h.26a2.86,2.86,0,0,1,3,2.71Zm6.55,4.19a5.26,5.26,0,0,1-2.35-.43c-.1,0-.1-.13-.1-.2V92.7s0-.07.06-.08,0,0,.06,0a4.88,4.88,0,0,0,2.24.58c1.21,0,1.67-.48,1.67-1.11S54.3,91,53.21,91h-.94c-.07,0-.11,0-.11-.09V89.43c0-.08,0-.14.09-.14H53c.93,0,1.43-.25,1.43-.86s-.5-1-1.48-1a4.22,4.22,0,0,0-2,.51h-.1V86.49a.14.14,0,0,1,.07-.15,5.29,5.29,0,0,1,2.44-.53c1.83,0,3,.92,3,2.39A2,2,0,0,1,55.2,90a2.19,2.19,0,0,1,1.58,2.17C56.78,94,55.13,94.92,53.2,94.92Zm8,0c-2.38,0-3.36-2-3.36-4.58s1.22-4.53,3.36-4.53c2.62,0,3.32,2.35,3.32,4.53C64.49,92.74,63.55,94.92,61.17,94.92Zm4.31-6a2.57,2.57,0,0,1,0-.48,2.4,2.4,0,0,1,2.16-2.62h.21c1.63,0,2.38,1.1,2.38,2.63A2.39,2.39,0,0,1,68,91h-.15A2.25,2.25,0,0,1,65.48,88.91Zm3,5.87H67.29c-.06,0-.11-.07,0-.12L73.45,86a.21.21,0,0,1,.17-.08h1.22a0,0,0,0,1,0,.07,0,0,0,0,1,0,0L68.72,94.7C68.66,94.78,68.62,94.78,68.51,94.78Zm8.08-2.43a2.39,2.39,0,0,1-2.2,2.56h-.15a2.27,2.27,0,0,1-2.38-2.16c0-.11,0-.22,0-.33A2.4,2.4,0,0,1,74,89.82h.2A2.27,2.27,0,0,1,76.6,92,2,2,0,0,1,76.59,92.35Z" transform="translate(-0.49)"/><path class="a" d="M1.58,18.43c-.16,0-.21-.05-.21-.23V1.69c0-.13,0-.26.18-.26C3.89,1.37,4.88,1.35,7,1.35c4.31,0,6.73,1.84,6.73,5.2a4.87,4.87,0,0,1-3.22,4.57c.86,1.17,3.8,5.59,4.6,7,.08.15.11.31-.07.31h-3.8c-.24,0-.32-.05-.37-.16-.75-1.14-2.36-3.92-3.46-5.69-.18-.31-.31-.44-.59-.44H4.91v6.08a.19.19,0,0,1-.17.21H1.58ZM6.91,9.07c1.95,0,3.2-.78,3.2-2.31S8.81,4.49,6.88,4.49a16.7,16.7,0,0,0-2,.06V9.07Z" transform="translate(-0.49)"/><path class="a" d="M19.13,12.92c.13,1.48,1.17,2.7,3.72,2.7a8,8,0,0,0,3.2-.6c.07,0,.15,0,.15.13v2.47c0,.19-.05.26-.18.32a8.75,8.75,0,0,1-4,.75c-4.89,0-6.6-3.35-6.6-6.58,0-3.59,2.21-6.86,6.29-6.86,3.93,0,5.49,3,5.49,5.61a9.32,9.32,0,0,1-.13,1.75.22.22,0,0,1-.21.2,21.84,21.84,0,0,1-2.68.11Zm3.37-2.49a7.08,7.08,0,0,0,1.3-.06v-.18a2.11,2.11,0,0,0-2.17-2h0a2.47,2.47,0,0,0-2.49,2.29Z" transform="translate(-0.49)"/><path class="a" d="M29.5,8.52c0-.88-.05-2.23-.1-2.8,0-.13,0-.21.18-.21h2.73a.32.32,0,0,1,.34.21,3.51,3.51,0,0,1,.2.85,5.74,5.74,0,0,1,3.7-1.32c2,0,4.36,1,4.36,5.22V18.2c0,.15,0,.23-.23.23H37.59c-.18,0-.26-.08-.26-.23V10.79c0-1.56-.68-2.4-2-2.4a3.17,3.17,0,0,0-2.16.81v9c0,.13-.07.21-.23.21H29.76c-.18,0-.23-.08-.23-.23Z" transform="translate(-0.49)"/><path class="a" d="M47,12.92c.13,1.48,1.17,2.7,3.71,2.7a8,8,0,0,0,3.2-.6c.08,0,.16,0,.16.13v2.47c0,.19,0,.26-.18.32a8.75,8.75,0,0,1-4,.75c-4.89,0-6.61-3.35-6.61-6.58,0-3.59,2.21-6.86,6.3-6.86,3.92,0,5.48,3,5.48,5.61a7.9,7.9,0,0,1-.13,1.75.22.22,0,0,1-.21.2,21.68,21.68,0,0,1-2.67.11Zm3.38-2.49a7.08,7.08,0,0,0,1.3-.06v-.18a2.12,2.12,0,0,0-2.16-2.08h0A2.46,2.46,0,0,0,47,10.43Z" transform="translate(-0.49)"/><path class="a" d="M68.19,18.43a.27.27,0,0,1-.31-.22h0c-1.3-5.31-1.72-7.7-2-9h0c-.65,2.86-1.17,5-2.26,9-.06.18-.13.23-.29.23H60.08c-.26,0-.31-.05-.37-.23L56.33,5.74c0-.13,0-.23.21-.23h3.3c.16,0,.21,0,.24.18,1.38,5.62,1.74,8.11,1.92,9.2h.06c.2-.93.62-3.38,2.13-9.15,0-.15,0-.23.23-.23h3.43a.18.18,0,0,1,.21.15h0C69.44,11.44,69.8,14,70,15h0c.36-1.69.75-4.5,2-9.31a.22.22,0,0,1,.23-.18h3a.14.14,0,0,1,.16.12v.09L71.75,18.2c0,.18-.07.23-.31.23Z" transform="translate(-0.49)"/><path class="a" d="M86.36,14.37l-1.24,3.85a.29.29,0,0,1-.29.21h-3c-.18,0-.23-.1-.2-.26l5.2-15a5,5,0,0,0,.26-1.59.18.18,0,0,1,.13-.15h4.16c.13,0,.18,0,.21.16L97.5,18.2c.06.13,0,.23-.13.23H94a.26.26,0,0,1-.28-.18l-1.33-3.88Zm5-3.25c-.47-1.69-1.51-4.86-2-6.69h0c-.42,1.74-1.35,4.6-2,6.7Z" transform="translate(-0.49)"/><path class="a" d="M108.18,18.07c0,.13,0,.18-.13.2a8,8,0,0,1-2.91.42c-4.22,0-6.87-2.83-6.87-6.66s2.94-6.78,7.36-6.78a7.16,7.16,0,0,1,2.39.28c.13.06.16.13.16.29V8.5c0,.18-.1.21-.2.18a6.53,6.53,0,0,0-2.19-.31c-2.18,0-3.77,1.19-3.77,3.53,0,2.71,2,3.59,3.82,3.59a8.72,8.72,0,0,0,2.16-.23c.16,0,.21,0,.21.1Z" transform="translate(-0.49)"/><path class="a" d="M113.25,5.51a.29.29,0,0,1,.31.23,5.19,5.19,0,0,1,.29,1.46A5.41,5.41,0,0,1,118,5.25c.16,0,.21,0,.21.21V8.65c0,.13,0,.19-.23.19A5.31,5.31,0,0,0,114,10v8.27c0,.16,0,.21-.23.21h-3.12c-.21,0-.26-.08-.26-.23v-9a29.92,29.92,0,0,0-.13-3.54c0-.13,0-.18.15-.18Z" transform="translate(-0.49)"/><path class="a" d="M132.15,11.9c0,4.09-2.65,6.79-6.4,6.79-4.44,0-6.42-3.35-6.42-6.71,0-3.69,2.47-6.73,6.48-6.73C130,5.25,132.15,8.43,132.15,11.9Zm-9.15,0c0,2.29,1.06,3.74,2.81,3.74,1.5,0,2.65-1.3,2.65-3.69,0-2-.83-3.72-2.81-3.72-1.51,0-2.65,1.39-2.65,3.7Z" transform="translate(-0.49)"/><path class="a" d="M137.84,0c.21,0,.26,0,.26.2V5.53a8.49,8.49,0,0,1,2.19-.28A6,6,0,0,1,146.5,11v.4c0,4.86-3.85,7.25-7.8,7.25a13.44,13.44,0,0,1-4.08-.6.29.29,0,0,1-.16-.26V.18c0-.13,0-.18.18-.18Zm1.8,8.32a5.71,5.71,0,0,0-1.54.2v7.05a3.74,3.74,0,0,0,1,.1,3.59,3.59,0,0,0,3.78-3.37,4.69,4.69,0,0,0,0-.53C142.84,9.43,141.5,8.32,139.64,8.32Z" transform="translate(-0.49)"/><path class="a" d="M159,15.54c0,.68,0,1.23.05,1.85,0,.05,0,.1-.05.13a14.35,14.35,0,0,1-5.67,1.17c-2.89,0-5.25-1.33-5.25-4.34,0-2.76,2.42-4.21,5.87-4.21a13.19,13.19,0,0,1,1.54,0V10c0-.5-.31-1.64-2.5-1.64a8.42,8.42,0,0,0-3.43.7.17.17,0,0,1-.21,0,.11.11,0,0,1,0-.08V6.31a.23.23,0,0,1,.18-.26,9.87,9.87,0,0,1,4.08-.8c3.74,0,5.41,2.31,5.41,5.28Zm-3.51-2.67a8.11,8.11,0,0,0-1.3-.08c-1.85,0-2.6.6-2.6,1.53s.65,1.56,2.29,1.56a5.45,5.45,0,0,0,1.61-.23Z" transform="translate(-0.49)"/><path class="a" d="M168.37,18c0,.15,0,.28-.18.34a6.55,6.55,0,0,1-2.32.36c-2.26,0-3.59-1.12-3.59-3.72V8.52h-1.56c-.15,0-.2-.07-.2-.23V5.74c0-.18,0-.23.23-.23h1.56a30.17,30.17,0,0,1,.26-3.15.28.28,0,0,1,.23-.23l3-.39c.13,0,.2,0,.2.15-.07.81-.13,2.34-.13,3.62h2.4c.15,0,.2,0,.2.21V8.34c0,.13-.05.16-.18.18H165.9v5.57c0,1.14.34,1.66,1.4,1.66a5.27,5.27,0,0,0,.89-.1c.1,0,.18,0,.18.18Z" transform="translate(-0.49)"/><path class="a" d="M176.69,1.63c0-.15,0-.2.15-.2,1.07,0,3.12-.08,5.1-.08,5.25,0,7.07,2.91,7.07,5.74,0,4.22-3.25,6-7.25,6h-1.48v5.12a.19.19,0,0,1-.17.21h-3.24c-.13,0-.18-.08-.18-.21Zm3.59,8.27h1.45c2.06,0,3.69-.63,3.69-2.76,0-1.64-1.11-2.68-3.38-2.68a12.89,12.89,0,0,0-1.76.06Z" transform="translate(-0.49)"/><path class="a" d="M194,5.51a.29.29,0,0,1,.31.23,5.19,5.19,0,0,1,.29,1.46,5.4,5.4,0,0,1,4.13-1.95c.16,0,.21,0,.21.21V8.65c0,.13-.05.19-.23.19a5.35,5.35,0,0,0-3.9,1.16v8.27c0,.16-.05.21-.23.21h-3.12c-.21,0-.26-.08-.26-.23v-9a29.92,29.92,0,0,0-.13-3.54c0-.13,0-.18.15-.18Z" transform="translate(-0.49)"/><path class="a" d="M212.93,11.9c0,4.09-2.65,6.79-6.4,6.79-4.44,0-6.42-3.35-6.42-6.71,0-3.69,2.47-6.73,6.48-6.73C210.77,5.25,212.93,8.43,212.93,11.9Zm-9.15,0c0,2.29,1.06,3.74,2.81,3.74,1.5,0,2.65-1.3,2.65-3.69,0-2-.83-3.72-2.81-3.72-1.51,0-2.65,1.39-2.65,3.7Z" transform="translate(-0.49)"/><path class="a" d="M221.5,1.63c0-.13,0-.18.19-.2.78,0,2.75-.08,5.07-.08C233,1.35,236,4.83,236,9.64c0,6.22-4.78,8.84-9.2,8.84-1.72,0-4.32,0-5.15-.05-.1,0-.16-.08-.16-.26Zm3.62,13.68h1.53c3.41,0,5.64-2,5.64-5.67s-2.23-5.2-5.56-5.2h-1.61Z" transform="translate(-0.49)"/><path class="a" d="M250.84,17.86c0,.18-.05.31-.21.36a11.31,11.31,0,0,1-3.61.47c-5.05,0-9-3-9-8.68,0-5.28,3.64-8.87,9.38-8.87a8.64,8.64,0,0,1,3.38.44.3.3,0,0,1,.18.31V4.73c0,.23-.13.23-.23.18a8.14,8.14,0,0,0-3.38-.57c-3.48,0-5.62,2.16-5.62,5.54,0,4,3,5.59,5.7,5.59a9.74,9.74,0,0,0,3.17-.42c.13-.05.21,0,.21.13Z" transform="translate(-0.49)"/><path class="a" d="M253.5,16.51a2.16,2.16,0,0,1,4.32,0,2,2,0,0,1-1.8,2.18h-.36a2,2,0,0,1-2.15-1.83.34.34,0,0,1,0-.1A1,1,0,0,1,253.5,16.51Z" transform="translate(-0.49)"/><path class="a" d="M1.61,48.43c-.16,0-.24,0-.24-.23V31.61c0-.13,0-.21.18-.21H5.77c.2,0,.23.05.33.21,1.75,3.2,5.26,10,6.09,11.93h0c0-.75-.07-1.53-.07-4.08V31.63a.2.2,0,0,1,.16-.23h3c.18,0,.24.08.24.26V48.17c0,.21-.06.26-.29.26H11.5c-.24,0-.29,0-.37-.21C9.68,45.36,5.75,38.08,4.66,35.27h0c.11,1.51.13,2.55.13,5V48.2c0,.15,0,.23-.21.23Z" transform="translate(-0.49)"/><path class="a" d="M30.8,41.9c0,4.09-2.65,6.79-6.39,6.79C20,48.69,18,45.34,18,42c0-3.69,2.47-6.73,6.47-6.73C28.65,35.25,30.8,38.43,30.8,41.9Zm-9.15,0c0,2.29,1.07,3.74,2.81,3.74,1.51,0,2.65-1.3,2.65-3.69,0-2-.83-3.72-2.81-3.72-1.5,0-2.65,1.39-2.65,3.7Z" transform="translate(-0.49)"/><path class="a" d="M43.83,48.43a.27.27,0,0,1-.31-.22h0c-1.3-5.31-1.72-7.7-2-9h0c-.65,2.86-1.17,5-2.27,9,0,.18-.13.23-.28.23H35.72c-.26,0-.31,0-.37-.23L32,35.74c0-.13,0-.23.21-.23H35.5c.16,0,.21.05.24.18,1.38,5.62,1.74,8.11,1.92,9.2h0c.21-.93.63-3.38,2.14-9.15,0-.15.05-.23.23-.23H43.5c.13,0,.18.05.21.18C45.09,41.44,45.45,44,45.63,45h.06c.36-1.69.75-4.5,2-9.31a.22.22,0,0,1,.23-.18h3c.11,0,.21.08.16.21L47.39,48.2c0,.18-.08.23-.31.23Z" transform="translate(-0.49)"/><path class="a" d="M69.23,48.43a.27.27,0,0,1-.31-.22h0c-1.3-5.31-1.72-7.7-2-9h0c-.65,2.86-1.17,5-2.26,9-.06.18-.13.23-.29.23H61.12c-.26,0-.31,0-.36-.23L57.38,35.74c-.06-.13,0-.23.2-.23h3.31c.15,0,.2.05.23.18,1.38,5.62,1.74,8.11,1.92,9.2h.06c.2-.93.62-3.38,2.13-9.15,0-.15,0-.23.23-.23h3.43a.18.18,0,0,1,.21.15h0C70.5,41.43,70.84,44,71,45h0c.36-1.69.75-4.5,2-9.31a.22.22,0,0,1,.23-.18h3a.14.14,0,0,1,.16.12v.09L72.79,48.2c-.05.18-.07.23-.31.23Z" transform="translate(-0.49)"/><path class="a" d="M78.15,32.1a2,2,0,0,1,2-2,1.87,1.87,0,0,1,2,1.75,1,1,0,0,1,0,.25,1.92,1.92,0,0,1-1.84,2h-.16a1.89,1.89,0,0,1-2-1.77Zm.18,3.62c0-.13,0-.21.21-.21h3.2c.15,0,.21.05.21.21V48.2c0,.15,0,.23-.24.23H78.59c-.18,0-.26-.08-.26-.23Z" transform="translate(-0.49)"/><path class="a" d="M91.72,48c0,.15,0,.28-.18.34a6.55,6.55,0,0,1-2.32.36c-2.26,0-3.58-1.12-3.58-3.72V38.52H84.08c-.16,0-.21-.07-.21-.23V35.74c0-.18,0-.23.23-.23h1.56a30.17,30.17,0,0,1,.26-3.15.29.29,0,0,1,.24-.23l3-.39c.13,0,.21,0,.21.15-.08.81-.13,2.34-.13,3.62h2.39c.15,0,.21.05.21.21v2.62c0,.13-.06.16-.19.18h-2.4v5.57c0,1.14.34,1.66,1.4,1.66a5.27,5.27,0,0,0,.89-.1c.1,0,.18,0,.18.18Z" transform="translate(-0.49)"/><path class="a" d="M97.6,48.22c0,.16-.06.21-.21.21h-3.2c-.16,0-.21-.08-.21-.21v-18c0-.11,0-.18.21-.18h3.2c.15,0,.21,0,.21.18v6.13a5.81,5.81,0,0,1,3.4-1.06c2,0,4.4,1,4.4,5.22v7.73c0,.15-.06.23-.24.23H102c-.18,0-.26-.08-.26-.23v-7.4c0-1.64-.7-2.45-2-2.45a3.53,3.53,0,0,0-2.13.65Z" transform="translate(-0.49)"/><path class="a" d="M115,48.43c-.21,0-.26-.1-.26-.29V31.66c0-.16,0-.26.21-.26h3.22c.13,0,.18.08.18.21V45.15h7.44c.16,0,.21.11.18.24l-.46,2.83c0,.18-.13.21-.26.21Z" transform="translate(-0.49)"/><path class="a" d="M127.76,32.1a1.94,1.94,0,0,1,1.88-2h.12a1.89,1.89,0,0,1,2,1.77v.23a1.92,1.92,0,0,1-1.84,2h-.16a1.89,1.89,0,0,1-2-1.77Zm.18,3.62c0-.13,0-.21.21-.21h3.19c.16,0,.21.05.21.21V48.2c0,.15,0,.23-.23.23H128.2c-.18,0-.26-.08-.26-.23Z" transform="translate(-0.49)"/><path class="a" d="M133.89,42.14c0-3.67,2.7-6.89,7.59-6.89A13.91,13.91,0,0,1,146,36c.08,0,.08.08.08.18-.06.5-.13,1.54-.13,1.88v15c0,.13,0,.21-.16.23-1.09.11-3.15.29-3.25.29a.21.21,0,0,1-.21-.21h0V48.43a7.76,7.76,0,0,1-1.92.23,6.23,6.23,0,0,1-6.53-5.92h0C133.88,42.54,133.88,42.34,133.89,42.14Zm8.45-3.77a4.85,4.85,0,0,0-1.14-.11,3.36,3.36,0,0,0-3.59,3.11v0a4.34,4.34,0,0,0,0,.51,3.32,3.32,0,0,0,3,3.65h0a3.53,3.53,0,0,0,.46,0,4.37,4.37,0,0,0,1.3-.16Z" transform="translate(-0.49)"/><path class="a" d="M160.36,45.54a21.78,21.78,0,0,0,.16,2.68c0,.16-.06.21-.24.21H157.5c-.21,0-.26,0-.32-.18a6.24,6.24,0,0,1-.15-.81,5.3,5.3,0,0,1-3.53,1.25c-2.6,0-4.4-1.43-4.4-5v-8c0-.19.05-.21.23-.21h3.17c.15,0,.18.05.18.21v7.54c0,1.4.6,2.31,2,2.31a2.94,2.94,0,0,0,2-.75v-9.1c0-.16.07-.21.26-.21h3.14c.18,0,.21.05.21.21Z" transform="translate(-0.49)"/><path class="a" d="M163.32,32.1a2,2,0,0,1,2-2,1.87,1.87,0,0,1,2,1.75,1,1,0,0,1,0,.25,2,2,0,0,1-4,0Zm.18,3.62a.19.19,0,0,1,.17-.21h3.24c.16,0,.21.05.21.21V48.2c0,.15,0,.23-.24.23h-3.12c-.18,0-.26-.08-.26-.23Z" transform="translate(-0.49)"/><path class="a" d="M169.5,42.09c0-3.72,2.78-6.84,7.54-6.84h.86V30.18A.17.17,0,0,1,178,30h3.31c.13,0,.16,0,.16.15V45.52a17.28,17.28,0,0,0,.1,1.9c0,.13,0,.18-.18.23a13.2,13.2,0,0,1-5.12,1C172.42,48.69,169.5,46.51,169.5,42.09Zm8.4-3.7a2.81,2.81,0,0,0-1-.13,3.48,3.48,0,0,0-3.71,3.22,2.94,2.94,0,0,0,0,.42c0,2.58,1.48,3.7,3.45,3.7a3.65,3.65,0,0,0,1.23-.16Z" transform="translate(-0.49)"/><path class="a" d="M191.64,31.43h4.78a.26.26,0,0,1,.29.18c.72,2.63,2.57,9.52,3.06,12h0c.52-2.24,2.68-9.33,3.46-12a.19.19,0,0,1,.17-.21h4.72c.15,0,.2,0,.2.18L209,48.2a.18.18,0,0,1-.11.22h-3.45c-.13,0-.21,0-.21-.18-.07-5.36,0-12.59,0-14.25h0c-.57,2.57-2.86,10.69-3.88,14.22,0,.16-.13.21-.26.21h-3c-.18,0-.23,0-.28-.21-1-3.77-2.73-10.84-3.49-14.27h0c0,2.81-.13,8.84-.37,14.27,0,.18,0,.21-.2.21h-3c-.16,0-.23,0-.21-.21l.91-16.66C191.43,31.43,191.5,31.43,191.64,31.43Z" transform="translate(-0.49)"/><path class="a" d="M223.93,41.9c0,4.09-2.65,6.79-6.4,6.79-4.44,0-6.42-3.35-6.42-6.71,0-3.69,2.47-6.73,6.47-6.73C221.77,35.25,223.93,38.43,223.93,41.9Zm-9.15,0c0,2.29,1.06,3.74,2.8,3.74,1.51,0,2.66-1.3,2.66-3.69,0-2-.84-3.72-2.81-3.72-1.51,0-2.65,1.39-2.65,3.7Z" transform="translate(-0.49)"/><path class="a" d="M225.62,42.09c0-3.72,2.78-6.84,7.54-6.84H234V30.18a.16.16,0,0,1,.14-.18h3.34c.13,0,.16,0,.16.15V45.52a17.28,17.28,0,0,0,.1,1.9c0,.13,0,.18-.18.23a13.2,13.2,0,0,1-5.12,1C228.58,48.69,225.62,46.51,225.62,42.09Zm8.4-3.7a2.81,2.81,0,0,0-1-.13,3.49,3.49,0,0,0-3.72,3.23,2.81,2.81,0,0,0,0,.41c0,2.58,1.49,3.7,3.46,3.7a3.65,3.65,0,0,0,1.23-.16Z" transform="translate(-0.49)"/><path class="a" d="M243.66,42.92c.13,1.48,1.17,2.7,3.72,2.7a8,8,0,0,0,3.2-.6c.07-.05.15,0,.15.13v2.47c0,.19,0,.26-.18.32a8.75,8.75,0,0,1-4,.75c-4.89,0-6.6-3.35-6.6-6.58,0-3.59,2.21-6.86,6.29-6.86s5.49,3,5.49,5.61a9.32,9.32,0,0,1-.13,1.75.22.22,0,0,1-.21.2,21.84,21.84,0,0,1-2.68.11ZM247,40.43a7.08,7.08,0,0,0,1.3-.06v-.18a2.11,2.11,0,0,0-2.21-2,2.47,2.47,0,0,0-2.5,2.29Z" transform="translate(-0.49)"/><path class="a" d="M253.28,46.51a2.16,2.16,0,0,1,4.32,0,2,2,0,0,1-1.8,2.18,2.16,2.16,0,0,1-.36,0,2,2,0,0,1-2.15-1.83.34.34,0,0,1,0-.1A1,1,0,0,1,253.28,46.51Z" transform="translate(-0.49)"/></svg>