<?xml version="1.0" encoding="utf-8"?>
<!-- Generator: Adobe Illustrator 22.1.0, SVG Export Plug-In . SVG Version: 6.00 Build 0)  -->
<svg version="1.1" id="Layer_1" xmlns="http://www.w3.org/2000/svg" xmlns:xlink="http://www.w3.org/1999/xlink" x="0px" y="0px"
	 viewBox="0 0 257.9 202.4" style="enable-background:new 0 0 257.9 202.4;" xml:space="preserve">
<style type="text/css">
	.st0{fill:#FFFFFF;}
	.st1{fill:none;}
</style>
<title>F1_copy-cta-logo</title>
<path class="st0" d="M18.8,162.4h10.7v25.7L18.8,162.4z"/>
<path class="st0" d="M11.3,162.4H0.5v25.7L11.3,162.4z"/>
<path class="st0" d="M15.1,171.9l6.8,16.2h-4.5l-2.1-5.2h-5L15.1,171.9z"/>
<path class="st0" d="M4.3,198.4c-0.2-1.1-0.6-2.6-0.7-3.6h0c-0.2,1-0.4,2.4-0.7,3.6H4.3z M2.6,200l-0.5,2.2c0,0.1,0,0.1-0.1,0.1H0.6
	c-0.1,0-0.1,0-0.1-0.1l1.9-8.1c0.1-0.3,0.1-0.5,0-0.8c0,0,0-0.1,0.1-0.1h2c0.1,0,0.1,0,0.1,0.1l2.2,8.9c0,0.1,0,0.1-0.1,0.1H5.2
	c-0.1,0-0.1,0-0.1-0.1l0,0L4.6,200L2.6,200z"/>
<path class="st0" d="M10.4,196.7c-0.1,0-0.2,0-0.3,0c-0.8,0-1.4,0.7-1.4,2.1s0.6,2.1,1.4,2.1c0.1,0,0.2,0,0.3,0L10.4,196.7z
	 M7,198.8c0-2.1,1.2-3.7,3.2-3.7h0.2v-2.4c0,0,0-0.1,0.1-0.1c0,0,0,0,0,0H12c0.1,0,0.1,0,0.1,0.1v8.1c0,0.3,0,0.6,0,0.9
	c0,0,0,0.1-0.1,0.1c-0.6,0.3-1.3,0.5-2.1,0.5C8.2,202.4,7,201.3,7,198.8z"/>
<path class="st0" d="M14.6,198.8c0,1.3,0.3,2.2,0.9,2.2s0.9-0.7,0.9-2.2s-0.2-2.1-0.9-2.1S14.6,197.3,14.6,198.8z M18.1,198.8
	c0,2.2-0.9,3.6-2.6,3.6c-1.9,0-2.6-1.6-2.6-3.7s0.9-3.6,2.6-3.6S18.1,196.5,18.1,198.8L18.1,198.8z"/>
<path class="st0" d="M21.2,196.7c-0.2,0-0.3,0-0.5,0.1v4.2c0.1,0,0.2,0,0.3,0c0.6,0,1.4-0.6,1.4-2.4
	C22.4,197.2,21.9,196.7,21.2,196.7z M20.6,192.7C20.7,192.7,20.7,192.7,20.6,192.7l0.1,2.6c0.2-0.1,0.5-0.1,0.8-0.1
	c1.5,0,2.6,1.1,2.6,3.3c0,2.6-1.5,3.9-3.3,3.9c-0.6,0-1.1-0.1-1.6-0.3c0,0-0.1-0.1-0.1-0.1v-9.3c0,0,0-0.1,0-0.1c0,0,0,0,0,0
	L20.6,192.7L20.6,192.7z"/>
<path class="st0" d="M27.5,197.9c0.1,0,0.3,0,0.4,0c0,0,0-0.1,0-0.1c0-0.5-0.2-1.1-0.8-1.1s-0.8,0.6-0.9,1.3L27.5,197.9z
	 M26.3,199.2c0,1.1,0.4,1.8,1.5,1.8c0.4,0,0.7-0.1,1.1-0.2c0.1,0,0.1,0,0.1,0.1v1.2c0,0.1,0,0.2-0.1,0.2c-0.4,0.2-0.9,0.3-1.4,0.3
	c-2.1,0-2.9-1.5-2.9-3.5s0.9-3.7,2.6-3.7s2.3,1.6,2.3,2.8c0,0.4,0,0.7,0,1.1c0,0.1-0.1,0.1-0.1,0.1c-0.1,0-0.6,0-1.3,0L26.3,199.2z"
	/>
<rect x="94.5" y="48.4" class="st1" width="30" height="100"/>
<g>
	<g>
		<path class="st0" d="M2.6,19.4c-0.2,0-0.2,0-0.2-0.2V2.7c0-0.1,0-0.3,0.2-0.3C4.9,2.4,5.9,2.4,8,2.4c4.3,0,6.7,1.8,6.7,5.2
			c0,2-1.3,3.9-3.2,4.6c0.9,1.2,3.8,5.6,4.6,7c0.1,0.1,0.1,0.3-0.1,0.3h-3.8c-0.2,0-0.3,0-0.4-0.2c-0.8-1.1-2.4-3.9-3.5-5.7
			c-0.2-0.3-0.3-0.4-0.6-0.4H5.9v6.1c0,0.1-0.1,0.2-0.2,0.2c0,0,0,0,0,0H2.6z M7.9,10.1c1.9,0,3.2-0.8,3.2-2.3S9.8,5.5,7.9,5.5
			c-0.8,0-1.6,0-2,0.1v4.5L7.9,10.1z"/>
		<path class="st0" d="M20.1,13.9c0.1,1.5,1.2,2.7,3.7,2.7c1.1,0,2.2-0.2,3.2-0.6c0.1,0,0.1,0,0.1,0.1v2.5c0,0.2,0,0.3-0.2,0.3
			c-1.3,0.6-2.6,0.8-4,0.8c-4.9,0-6.6-3.4-6.6-6.6c0-3.6,2.2-6.9,6.3-6.9c3.9,0,5.5,3,5.5,5.6c0,0.6,0,1.2-0.1,1.8
			c0,0.1-0.1,0.2-0.2,0.2c-0.9,0.1-1.8,0.1-2.7,0.1L20.1,13.9z M23.5,11.4c0.4,0,0.9,0,1.3-0.1v-0.2c0-1.2-1-2.1-2.2-2.1
			c0,0,0,0,0,0c-1.3,0-2.4,1-2.5,2.3H23.5z"/>
		<path class="st0" d="M30.5,9.5c0-0.9,0-2.2-0.1-2.8c0-0.1,0-0.2,0.2-0.2h2.7c0.1,0,0.3,0.1,0.3,0.2c0.1,0.3,0.2,0.6,0.2,0.9
			c1-0.9,2.3-1.3,3.7-1.3c2,0,4.4,1,4.4,5.2v7.7c0,0.1,0,0.2-0.2,0.2h-3.1c-0.2,0-0.3-0.1-0.3-0.2v-7.4c0-1.6-0.7-2.4-2-2.4
			c-0.8,0-1.6,0.3-2.2,0.8v9c0,0.1-0.1,0.2-0.2,0.2h-3.2c-0.2,0-0.2-0.1-0.2-0.2L30.5,9.5z"/>
		<path class="st0" d="M48,13.9c0.1,1.5,1.2,2.7,3.7,2.7c1.1,0,2.2-0.2,3.2-0.6c0.1,0,0.2,0,0.2,0.1v2.5c0,0.2,0,0.3-0.2,0.3
			c-1.3,0.6-2.6,0.8-4,0.8c-4.9,0-6.6-3.4-6.6-6.6c0-3.6,2.2-6.9,6.3-6.9c3.9,0,5.5,3,5.5,5.6c0,0.6,0,1.2-0.1,1.8
			c0,0.1-0.1,0.2-0.2,0.2c-0.9,0.1-1.8,0.1-2.7,0.1L48,13.9z M51.4,11.4c0.4,0,0.9,0,1.3-0.1v-0.2c0-1.2-1-2.1-2.2-2.1c0,0,0,0,0,0
			c-1.3,0-2.5,1-2.5,2.3H51.4z"/>
		<path class="st0" d="M69.2,19.4c-0.1,0-0.3-0.1-0.3-0.2c0,0,0,0,0,0c-1.3-5.3-1.7-7.7-2-9l0,0c-0.7,2.9-1.2,5-2.3,9
			c-0.1,0.2-0.1,0.2-0.3,0.2h-3.3c-0.3,0-0.3,0-0.4-0.2L57.3,6.7c0-0.1,0-0.2,0.2-0.2h3.3c0.2,0,0.2,0.1,0.2,0.2
			c1.4,5.6,1.7,8.1,1.9,9.2h0.1c0.2-0.9,0.6-3.4,2.1-9.1c0-0.1,0-0.2,0.2-0.2h3.4c0.1,0,0.2,0,0.2,0.1c0,0,0,0,0,0
			c1.4,5.8,1.7,8.3,1.9,9.3H71c0.4-1.7,0.8-4.5,2-9.3c0-0.1,0.1-0.2,0.2-0.2h3c0.1,0,0.2,0.1,0.2,0.1c0,0,0,0.1,0,0.1l-3.7,12.5
			c0,0.2-0.1,0.2-0.3,0.2H69.2z"/>
		<path class="st0" d="M87.4,15.4l-1.2,3.9c0,0.1-0.2,0.2-0.3,0.2h-3c-0.2,0-0.2-0.1-0.2-0.3l5.2-15c0.2-0.5,0.3-1,0.3-1.6
			c0-0.1,0.1-0.1,0.1-0.1h4.2c0.1,0,0.2,0,0.2,0.2l5.9,16.6c0.1,0.1,0,0.2-0.1,0.2H95c-0.1,0-0.2-0.1-0.3-0.2l-1.3-3.9L87.4,15.4z
			 M92.4,12.1c-0.5-1.7-1.5-4.9-2-6.7l0,0c-0.4,1.7-1.3,4.6-2,6.7L92.4,12.1z"/>
		<path class="st0" d="M109.2,19.1c0,0.1,0,0.2-0.1,0.2c-0.9,0.3-1.9,0.5-2.9,0.4c-4.2,0-6.9-2.8-6.9-6.7s2.9-6.8,7.4-6.8
			c0.8,0,1.6,0.1,2.4,0.3c0.1,0.1,0.2,0.1,0.2,0.3v2.7c0,0.2-0.1,0.2-0.2,0.2c-0.7-0.2-1.4-0.3-2.2-0.3c-2.2,0-3.8,1.2-3.8,3.5
			c0,2.7,2,3.6,3.8,3.6c0.7,0,1.5-0.1,2.2-0.2c0.2,0,0.2,0,0.2,0.1L109.2,19.1z"/>
		<path class="st0" d="M114.3,6.5c0.1,0,0.3,0.1,0.3,0.2c0.2,0.5,0.3,1,0.3,1.5c1-1.2,2.5-1.9,4.1-1.9c0.2,0,0.2,0,0.2,0.2v3.2
			c0,0.1,0,0.2-0.2,0.2c-1.4-0.2-2.8,0.2-3.9,1.1v8.3c0,0.2,0,0.2-0.2,0.2h-3.1c-0.2,0-0.3-0.1-0.3-0.2v-9c0-1.1,0-2.6-0.1-3.5
			c0-0.1,0-0.2,0.2-0.2L114.3,6.5z"/>
		<path class="st0" d="M133.1,12.9c0,4.1-2.6,6.8-6.4,6.8c-4.4,0-6.4-3.4-6.4-6.7c0-3.7,2.5-6.7,6.5-6.7
			C131,6.3,133.1,9.4,133.1,12.9z M124,12.9c0,2.3,1.1,3.7,2.8,3.7c1.5,0,2.7-1.3,2.7-3.7c0-2-0.8-3.7-2.8-3.7
			C125.1,9.3,124,10.6,124,12.9L124,12.9z"/>
		<path class="st0" d="M138.8,1c0.2,0,0.3,0,0.3,0.2v5.3c0.7-0.2,1.5-0.3,2.2-0.3c3.3-0.1,6.1,2.5,6.2,5.8c0,0.1,0,0.3,0,0.4
			c0,4.9-3.9,7.3-7.8,7.3c-1.4,0-2.8-0.2-4.1-0.6c-0.1,0-0.2-0.2-0.2-0.3V1.2c0-0.1,0-0.2,0.2-0.2H138.8z M140.6,9.3
			c-0.5,0-1,0.1-1.5,0.2v7.1c0.3,0.1,0.7,0.1,1,0.1c2,0.1,3.7-1.4,3.8-3.4c0-0.2,0-0.4,0-0.5C143.8,10.4,142.5,9.3,140.6,9.3z"/>
		<path class="st0" d="M160,16.5c0,0.7,0,1.2,0.1,1.9c0,0,0,0.1-0.1,0.1c-1.8,0.8-3.7,1.2-5.7,1.2c-2.9,0-5.3-1.3-5.3-4.3
			c0-2.8,2.4-4.2,5.9-4.2c0.5,0,1,0,1.5,0V11c0-0.5-0.3-1.6-2.5-1.6c-1.2,0-2.3,0.2-3.4,0.7c-0.1,0-0.2,0-0.2,0c0,0,0-0.1,0-0.1V7.3
			c0-0.1,0.1-0.2,0.2-0.3c1.3-0.6,2.7-0.8,4.1-0.8c3.7,0,5.4,2.3,5.4,5.3V16.5z M156.5,13.9c-0.4-0.1-0.9-0.1-1.3-0.1
			c-1.9,0-2.6,0.6-2.6,1.5c0,0.9,0.6,1.6,2.3,1.6c0.5,0,1.1-0.1,1.6-0.2L156.5,13.9z"/>
		<path class="st0" d="M169.4,19c0,0.1,0,0.3-0.2,0.3c-0.7,0.3-1.5,0.4-2.3,0.4c-2.3,0-3.6-1.1-3.6-3.7V9.5h-1.6
			c-0.1,0-0.2-0.1-0.2-0.2V6.7c0-0.2,0-0.2,0.2-0.2h1.6c0-1.1,0.1-2.1,0.3-3.2c0-0.1,0.1-0.2,0.2-0.2l3-0.4c0.1,0,0.2,0,0.2,0.2
			c-0.1,0.8-0.1,2.3-0.1,3.6h2.4c0.1,0,0.2,0.1,0.2,0.2v2.6c0,0.1-0.1,0.2-0.2,0.2h-2.4v5.6c0,1.1,0.3,1.7,1.4,1.7
			c0.3,0,0.6,0,0.9-0.1c0.1,0,0.2,0,0.2,0.2L169.4,19z"/>
		<path class="st0" d="M177.7,2.6c0-0.2,0-0.2,0.1-0.2c1.1,0,3.1-0.1,5.1-0.1c5.3,0,7.1,2.9,7.1,5.7c0,4.2-3.3,6-7.3,6h-1.5v5.1
			c0,0.1-0.1,0.2-0.2,0.2c0,0,0,0,0,0h-3.2c-0.1,0-0.2-0.1-0.2-0.2L177.7,2.6z M181.3,10.9c0.4,0,0.7,0,1.4,0c2.1,0,3.7-0.6,3.7-2.8
			c0-1.6-1.1-2.7-3.4-2.7c-0.8,0-1.5,0-1.8,0.1V10.9z"/>
		<path class="st0" d="M195,6.5c0.1,0,0.3,0.1,0.3,0.2c0.2,0.5,0.3,1,0.3,1.5c1-1.2,2.5-1.9,4.1-1.9c0.2,0,0.2,0,0.2,0.2v3.2
			c0,0.1-0.1,0.2-0.2,0.2c-1.4-0.2-2.8,0.2-3.9,1.1v8.3c0,0.2-0.1,0.2-0.2,0.2h-3.1c-0.2,0-0.3-0.1-0.3-0.2v-9c0-1.1,0-2.6-0.1-3.5
			c0-0.1,0-0.2,0.1-0.2L195,6.5z"/>
		<path class="st0" d="M213.9,12.9c0,4.1-2.6,6.8-6.4,6.8c-4.4,0-6.4-3.4-6.4-6.7c0-3.7,2.5-6.7,6.5-6.7
			C211.8,6.3,213.9,9.4,213.9,12.9z M204.8,12.9c0,2.3,1.1,3.7,2.8,3.7c1.5,0,2.6-1.3,2.6-3.7c0-2-0.8-3.7-2.8-3.7
			C205.9,9.3,204.8,10.6,204.8,12.9L204.8,12.9z"/>
		<path class="st0" d="M222.5,2.6c0-0.1,0-0.2,0.2-0.2c0.8,0,2.8-0.1,5.1-0.1c6.2,0,9.3,3.5,9.3,8.3c0,6.2-4.8,8.8-9.2,8.8
			c-1.7,0-4.3,0-5.1,0c-0.1,0-0.2-0.1-0.2-0.3L222.5,2.6z M226.1,16.3c0.5,0,0.9,0,1.5,0c3.4,0,5.6-2,5.6-5.7s-2.2-5.2-5.6-5.2
			c-0.6,0-1,0-1.6,0V16.3z"/>
		<path class="st0" d="M251.8,18.9c0,0.2-0.1,0.3-0.2,0.4c-1.2,0.3-2.4,0.5-3.6,0.5c-5.1,0-9-3-9-8.7c0-5.3,3.6-8.9,9.4-8.9
			c1.1-0.1,2.3,0.1,3.4,0.4c0.1,0,0.2,0.2,0.2,0.3v2.8c0,0.2-0.1,0.2-0.2,0.2c-1.1-0.4-2.2-0.6-3.4-0.6c-3.5,0-5.6,2.2-5.6,5.5
			c0,4.1,3,5.6,5.7,5.6c1.1,0,2.1-0.1,3.2-0.4c0.1,0,0.2,0,0.2,0.1L251.8,18.9z"/>
		<path class="st0" d="M254.5,17.5c0-1.2,1-2.2,2.2-2.2s2.2,1,2.2,2.2c0.1,1.1-0.7,2.1-1.8,2.2c-0.1,0-0.2,0-0.4,0
			c-1.1,0.1-2.1-0.8-2.2-1.9C254.5,17.7,254.5,17.6,254.5,17.5z"/>
	</g>
	<g>
		<path class="st0" d="M2.6,49.4c-0.2,0-0.2,0-0.2-0.2V32.6c0-0.1,0-0.2,0.2-0.2h4.2c0.2,0,0.2,0,0.3,0.2c1.8,3.2,5.3,10,6.1,11.9
			l0,0c0-0.8-0.1-1.5-0.1-4.1v-7.8c0-0.1,0.1-0.2,0.2-0.2c0,0,0,0,0.1,0h2.9c0.2,0,0.2,0.1,0.2,0.3v16.5c0,0.2-0.1,0.3-0.3,0.3h-3.7
			c-0.2,0-0.3,0-0.4-0.2c-1.4-2.9-5.4-10.1-6.5-13l0,0c0.1,1.5,0.1,2.5,0.1,5v7.9c0,0.2,0,0.2-0.2,0.2H2.6z"/>
		<path class="st0" d="M31.8,42.9c0,4.1-2.6,6.8-6.4,6.8C21,49.7,19,46.3,19,43c0-3.7,2.5-6.7,6.5-6.7
			C29.6,36.3,31.8,39.4,31.8,42.9z M22.6,42.9c0,2.3,1.1,3.7,2.8,3.7c1.5,0,2.6-1.3,2.6-3.7c0-2-0.8-3.7-2.8-3.7
			C23.8,39.3,22.6,40.6,22.6,42.9L22.6,42.9z"/>
		<path class="st0" d="M44.8,49.4c-0.1,0-0.3-0.1-0.3-0.2c0,0,0,0,0,0c-1.3-5.3-1.7-7.7-2-9l0,0c-0.7,2.9-1.2,5-2.3,9
			c0,0.2-0.1,0.2-0.3,0.2h-3.3c-0.3,0-0.3,0-0.4-0.2L33,36.7c0-0.1,0-0.2,0.2-0.2h3.3c0.2,0,0.2,0,0.2,0.2c1.4,5.6,1.7,8.1,1.9,9.2
			l0,0c0.2-0.9,0.6-3.4,2.1-9.1c0-0.2,0-0.2,0.2-0.2h3.5c0.1,0,0.2,0,0.2,0.2c1.4,5.8,1.7,8.3,1.9,9.3h0.1c0.4-1.7,0.8-4.5,2-9.3
			c0-0.1,0.1-0.2,0.2-0.2h3c0.1,0,0.2,0.1,0.2,0.2l-3.7,12.5c0,0.2-0.1,0.2-0.3,0.2H44.8z"/>
		<path class="st0" d="M70.2,49.4c-0.1,0-0.3-0.1-0.3-0.2c0,0,0,0,0,0c-1.3-5.3-1.7-7.7-2-9l0,0c-0.7,2.9-1.2,5-2.3,9
			c-0.1,0.2-0.1,0.2-0.3,0.2h-3.3c-0.3,0-0.3,0-0.4-0.2l-3.4-12.5c-0.1-0.1,0-0.2,0.2-0.2h3.3c0.2,0,0.2,0,0.2,0.2
			c1.4,5.6,1.7,8.1,1.9,9.2h0.1c0.2-0.9,0.6-3.4,2.1-9.1c0-0.2,0-0.2,0.2-0.2h3.4c0.1,0,0.2,0,0.2,0.1c0,0,0,0,0,0
			c1.4,5.7,1.7,8.3,1.9,9.3l0,0c0.4-1.7,0.8-4.5,2-9.3c0-0.1,0.1-0.2,0.2-0.2h3c0.1,0,0.2,0.1,0.2,0.1c0,0,0,0.1,0,0.1l-3.6,12.5
			c-0.1,0.2-0.1,0.2-0.3,0.2H70.2z"/>
		<path class="st0" d="M79.2,33.1c0-1.1,0.9-2,2-2c1-0.1,1.9,0.7,2,1.8c0,0.1,0,0.2,0,0.2c0,1.1-0.8,2-1.8,2c-0.1,0-0.1,0-0.2,0
			c-1,0.1-1.9-0.7-2-1.8C79.1,33.3,79.1,33.2,79.2,33.1z M79.3,36.7c0-0.1,0-0.2,0.2-0.2h3.2c0.2,0,0.2,0,0.2,0.2v12.5
			c0,0.2,0,0.2-0.2,0.2h-3.1c-0.2,0-0.3-0.1-0.3-0.2L79.3,36.7z"/>
		<path class="st0" d="M92.7,49c0,0.2,0,0.3-0.2,0.3c-0.7,0.3-1.5,0.4-2.3,0.4c-2.3,0-3.6-1.1-3.6-3.7v-6.5h-1.6
			c-0.2,0-0.2-0.1-0.2-0.2v-2.5c0-0.2,0-0.2,0.2-0.2h1.6c0-1.1,0.1-2.1,0.3-3.2c0-0.1,0.1-0.2,0.2-0.2l3-0.4c0.1,0,0.2,0,0.2,0.2
			c-0.1,0.8-0.1,2.3-0.1,3.6h2.4c0.2,0,0.2,0,0.2,0.2v2.6c0,0.1-0.1,0.2-0.2,0.2h-2.4v5.6c0,1.1,0.3,1.7,1.4,1.7
			c0.3,0,0.6,0,0.9-0.1c0.1,0,0.2,0,0.2,0.2V49z"/>
		<path class="st0" d="M98.6,49.2c0,0.2-0.1,0.2-0.2,0.2h-3.2c-0.2,0-0.2-0.1-0.2-0.2v-18c0-0.1,0-0.2,0.2-0.2h3.2
			c0.2,0,0.2,0,0.2,0.2v6.1c1-0.7,2.2-1.1,3.4-1.1c2,0,4.4,1,4.4,5.2v7.7c0,0.2-0.1,0.2-0.2,0.2H103c-0.2,0-0.3-0.1-0.3-0.2v-7.4
			c0-1.6-0.7-2.5-2-2.5c-0.8,0-1.5,0.2-2.1,0.7L98.6,49.2z"/>
		<path class="st0" d="M116,49.4c-0.2,0-0.3-0.1-0.3-0.3V32.7c0-0.2,0-0.3,0.2-0.3h3.2c0.1,0,0.2,0.1,0.2,0.2v13.5h7.4
			c0.2,0,0.2,0.1,0.2,0.2l-0.5,2.8c0,0.2-0.1,0.2-0.3,0.2H116z"/>
		<path class="st0" d="M128.8,33.1c0-1.1,0.8-2,1.9-2c0,0,0.1,0,0.1,0c1-0.1,1.9,0.7,2,1.8c0,0.1,0,0.2,0,0.2c0,1.1-0.8,2-1.8,2
			c-0.1,0-0.1,0-0.2,0c-1,0.1-1.9-0.7-2-1.8C128.8,33.3,128.8,33.2,128.8,33.1z M128.9,36.7c0-0.1,0.1-0.2,0.2-0.2h3.2
			c0.2,0,0.2,0,0.2,0.2v12.5c0,0.2,0,0.2-0.2,0.2h-3.1c-0.2,0-0.3-0.1-0.3-0.2L128.9,36.7z"/>
		<path class="st0" d="M134.9,43.1c0-3.7,2.7-6.9,7.6-6.9c1.5,0,3.1,0.3,4.5,0.8c0.1,0,0.1,0.1,0.1,0.2c-0.1,0.5-0.1,1.5-0.1,1.9v15
			c0,0.1,0,0.2-0.2,0.2c-1.1,0.1-3.1,0.3-3.3,0.3s-0.2-0.1-0.2-0.2v-4.9c-0.6,0.2-1.3,0.2-1.9,0.2c-3.4,0.2-6.4-2.5-6.5-5.9
			C134.9,43.5,134.9,43.3,134.9,43.1z M143.3,39.4c-0.4-0.1-0.8-0.1-1.1-0.1c-1.9-0.1-3.5,1.3-3.6,3.1c0,0.2,0,0.3,0,0.5
			c-0.2,1.8,1.1,3.5,3,3.7c0.2,0,0.3,0,0.5,0c0.4,0,0.9,0,1.3-0.2V39.4z"/>
		<path class="st0" d="M161.4,46.5c0,0.9,0.1,1.8,0.2,2.7c0,0.2-0.1,0.2-0.2,0.2h-2.8c-0.2,0-0.3,0-0.3-0.2
			c-0.1-0.3-0.1-0.5-0.1-0.8c-1,0.8-2.2,1.3-3.5,1.3c-2.6,0-4.4-1.4-4.4-5v-8c0-0.2,0.1-0.2,0.2-0.2h3.2c0.1,0,0.2,0,0.2,0.2v7.5
			c0,1.4,0.6,2.3,2,2.3c0.7,0,1.5-0.3,2-0.8v-9.1c0-0.2,0.1-0.2,0.3-0.2h3.1c0.2,0,0.2,0,0.2,0.2L161.4,46.5z"/>
		<path class="st0" d="M164.3,33.1c0-1.1,0.9-2,2-2c1-0.1,1.9,0.7,2,1.8c0,0.1,0,0.2,0,0.2c0,1.1-0.9,2-2,2S164.3,34.2,164.3,33.1z
			 M164.5,36.7c0-0.1,0.1-0.2,0.2-0.2c0,0,0,0,0,0h3.2c0.2,0,0.2,0,0.2,0.2v12.5c0,0.2,0,0.2-0.2,0.2h-3.1c-0.2,0-0.3-0.1-0.3-0.2
			L164.5,36.7z"/>
		<path class="st0" d="M170.5,43.1c0-3.7,2.8-6.8,7.5-6.8c0.2,0,0.5,0,0.9,0v-5.1c0-0.1,0-0.2,0.1-0.2c0,0,0,0,0,0h3.3
			c0.1,0,0.2,0,0.2,0.2v15.4c0,0.6,0,1.3,0.1,1.9c0,0.1,0,0.2-0.2,0.2c-1.6,0.7-3.4,1-5.1,1C173.4,49.7,170.5,47.5,170.5,43.1z
			 M178.9,39.4c-0.3-0.1-0.7-0.1-1-0.1c-1.9-0.1-3.6,1.3-3.7,3.2c0,0.1,0,0.3,0,0.4c0,2.6,1.5,3.7,3.4,3.7c0.4,0,0.8,0,1.2-0.2
			L178.9,39.4z"/>
		<path class="st0" d="M192.6,32.4h4.8c0.1,0,0.3,0.1,0.3,0.2c0.7,2.6,2.6,9.5,3.1,12l0,0c0.5-2.2,2.7-9.3,3.5-12
			c0-0.1,0.1-0.2,0.2-0.2h4.7c0.1,0,0.2,0,0.2,0.2l0.6,16.6c0,0.1,0,0.2-0.1,0.2c0,0-0.1,0-0.1,0h-3.4c-0.1,0-0.2,0-0.2-0.2
			c-0.1-5.4,0-12.6,0-14.3l0,0c-0.6,2.6-2.9,10.7-3.9,14.2c-0.1,0.2-0.1,0.2-0.3,0.2h-3c-0.2,0-0.2,0-0.3-0.2
			c-1-3.8-2.7-10.8-3.5-14.3l0,0c0,2.8-0.1,8.8-0.4,14.3c0,0.2,0,0.2-0.2,0.2h-3c-0.2,0-0.2,0-0.2-0.2l0.9-16.7
			C192.4,32.4,192.5,32.4,192.6,32.4z"/>
		<path class="st0" d="M224.9,42.9c0,4.1-2.6,6.8-6.4,6.8c-4.4,0-6.4-3.3-6.4-6.7c0-3.7,2.5-6.7,6.5-6.7
			C222.8,36.3,224.9,39.4,224.9,42.9z M215.8,42.9c0,2.3,1.1,3.7,2.8,3.7c1.5,0,2.7-1.3,2.7-3.7c0-2-0.8-3.7-2.8-3.7
			C216.9,39.3,215.8,40.6,215.8,42.9L215.8,42.9z"/>
		<path class="st0" d="M226.6,43.1c0-3.7,2.8-6.8,7.5-6.8c0.2,0,0.5,0,0.9,0v-5.1c0-0.1,0-0.2,0.1-0.2c0,0,0,0,0,0h3.3
			c0.1,0,0.2,0,0.2,0.2v15.4c0,0.6,0,1.3,0.1,1.9c0,0.1,0,0.2-0.2,0.2c-1.6,0.7-3.4,1-5.1,1C229.6,49.7,226.6,47.5,226.6,43.1z
			 M235,39.4c-0.3-0.1-0.7-0.1-1-0.1c-1.9-0.1-3.6,1.3-3.7,3.2c0,0.1,0,0.3,0,0.4c0,2.6,1.5,3.7,3.5,3.7c0.4,0,0.8,0,1.2-0.2
			L235,39.4z"/>
		<path class="st0" d="M244.7,43.9c0.1,1.5,1.2,2.7,3.7,2.7c1.1,0,2.2-0.2,3.2-0.6c0.1,0,0.1,0,0.1,0.1v2.5c0,0.2,0,0.3-0.2,0.3
			c-1.3,0.6-2.6,0.8-4,0.8c-4.9,0-6.6-3.3-6.6-6.6c0-3.6,2.2-6.9,6.3-6.9s5.5,3,5.5,5.6c0,0.6,0,1.2-0.1,1.8c0,0.1-0.1,0.2-0.2,0.2
			c-0.9,0.1-1.8,0.1-2.7,0.1L244.7,43.9z M248,41.4c0.4,0,0.9,0,1.3-0.1v-0.2c-0.1-1.2-1-2.1-2.2-2c-1.3,0-2.4,1-2.5,2.3L248,41.4z"
			/>
		<path class="st0" d="M254.3,47.5c0-1.2,1-2.2,2.2-2.2s2.2,1,2.2,2.2c0.1,1.1-0.7,2.1-1.8,2.2c-0.1,0-0.2,0-0.4,0
			c-1.1,0.1-2.1-0.8-2.2-1.9C254.3,47.7,254.3,47.6,254.3,47.5z"/>
	</g>
</g>
<path class="st0" d="M43.6,89.2C43.6,89.2,43.6,89.2,43.6,89.2c-0.7,0-1.3,0.5-1.4,1.2h1.8c0.2,0,0.5,0,0.7,0v-0.1
	C44.8,89.7,44.2,89.2,43.6,89.2z"/>
<path class="st0" d="M61.1,87.4c-0.9,0-1.4,0.8-1.4,2.9v0.1c0,1.9,0.5,3,1.4,3s1.4-1,1.4-2.9C62.5,88.5,62.1,87.4,61.1,87.4z"/>
<path class="st0" d="M28.4,92.6c0,0.5,0.3,0.8,1.2,0.8c0.3,0,0.6,0,0.9-0.1v-1.5c-0.2,0-0.5,0-0.7,0C28.8,91.8,28.4,92.1,28.4,92.6z
	"/>
<path class="st0" d="M67.9,89.7c0.5,0,0.9-0.5,0.9-1.3s-0.3-1.3-0.9-1.3c-0.5,0-0.9,0.4-0.9,1.3C67,89.1,67.3,89.7,67.9,89.7
	L67.9,89.7z"/>
<path class="st0" d="M74.3,91c-0.5,0-0.9,0.4-0.9,1.3s0.3,1.3,0.9,1.3c0.5,0,0.8-0.4,0.8-1.3C75.1,91.5,74.8,91,74.3,91z"/>
<path class="st0" d="M76.5,72.9h-58C8.8,72.9,1,80.8,1,90.4s7.8,17.5,17.5,17.5h58c9.7,0,17.5-7.8,17.5-17.5S86.2,72.9,76.5,72.9z
	 M21.9,94.9c-0.8,0-1.7-0.1-2.4-0.5c-0.1,0-0.1-0.1-0.1-0.2v-1.7c0,0,0-0.1,0-0.1c0,0,0.1,0,0.1,0c0.8,0.5,1.6,0.7,2.5,0.7
	c1.1,0,1.5-0.4,1.5-0.8s-0.3-0.8-1.3-1.2l-0.7-0.3c-1.7-0.7-2.2-1.6-2.2-2.7c0-1.5,1.2-2.7,3.3-2.7c0.7,0,1.5,0.1,2.2,0.4
	c0.1,0,0.1,0.1,0.1,0.2v1.6c0,0.1-0.1,0.1-0.1,0.1c-0.7-0.3-1.4-0.5-2.2-0.5c-1.1,0-1.4,0.4-1.4,0.8c0,0.5,0.3,0.7,1.3,1.2l0.5,0.2
	c1.9,0.8,2.4,1.6,2.4,2.8C25.5,93.8,24.1,94.9,21.9,94.9z M32.4,93.2c0,0.4,0,0.7,0,1c0,0,0,0.1,0,0.1c-1,0.4-2,0.6-3,0.6
	c-1.6,0-2.8-0.7-2.8-2.3c0-1.6,1.3-2.3,3.2-2.3c0.3,0,0.5,0,0.8,0v-0.1c0-0.3-0.2-0.9-1.3-0.9c-0.6,0-1.3,0.1-1.8,0.4
	c0,0-0.1,0-0.1,0c0,0,0,0,0-0.1v-1.4c0-0.1,0-0.1,0.1-0.1c0,0,0,0,0,0c0.7-0.3,1.4-0.5,2.2-0.4c1.4-0.2,2.8,0.9,2.9,2.3
	c0,0.2,0,0.3,0,0.5V93.2z M37.5,94.7c0,0.1-0.1,0.1-0.2,0.1h-1.8c-0.1,0-0.1,0-0.2-0.1c-0.5-1.6-1.7-5.1-2.3-6.8c0,0,0-0.1,0.1-0.1
	c0,0,0,0,0,0H35c0.1,0,0.1,0,0.2,0.1c0.9,3.2,1.2,4.4,1.4,5c0.1-0.6,0.5-1.9,1.5-5c0-0.1,0.1-0.1,0.1-0.1h1.6c0.1,0,0.1,0,0.1,0.1
	C39.2,89.6,38,93.1,37.5,94.7z M46.7,90.7c0,0.3,0,0.6-0.1,0.9c0,0.1,0,0.1-0.1,0.1c-0.5,0-1,0-1.4,0l-2.8,0c0.1,0.8,0.6,1.5,2,1.5
	c0.6,0,1.2-0.1,1.7-0.3c0,0,0.1,0,0.1,0.1v1.3c0,0.1,0,0.1-0.1,0.2c-0.7,0.3-1.4,0.4-2.2,0.4c-1.8,0.1-3.4-1.2-3.5-3
	c0-0.2,0-0.3,0-0.5c-0.2-1.9,1.2-3.5,3.1-3.7c0.1,0,0.2,0,0.3,0c1.6-0.1,2.9,1.1,3,2.7C46.7,90.5,46.7,90.6,46.7,90.7z M53.2,94.9
	c-0.8,0-1.6-0.1-2.3-0.4c-0.1,0-0.1-0.1-0.1-0.2v-1.6c0,0,0-0.1,0.1-0.1c0,0,0,0,0.1,0c0.7,0.4,1.5,0.6,2.2,0.6
	c1.2,0,1.7-0.5,1.7-1.1S54.3,91,53.2,91h-0.9c-0.1,0-0.1,0-0.1-0.1v-1.5c0-0.1,0-0.1,0.1-0.1H53c0.9,0,1.4-0.3,1.4-0.9s-0.5-1-1.5-1
	c-0.7,0-1.4,0.2-2,0.5c-0.1,0-0.1,0-0.1,0v-1.5c0-0.1,0-0.1,0.1-0.2c0.8-0.4,1.6-0.6,2.4-0.5c1.8,0,3,0.9,3,2.4
	c0,0.8-0.5,1.5-1.2,1.8c1,0.3,1.6,1.2,1.6,2.2C56.8,94,55.1,94.9,53.2,94.9z M61.2,94.9c-2.4,0-3.4-2-3.4-4.6c0-2.6,1.2-4.5,3.4-4.5
	c2.6,0,3.3,2.3,3.3,4.5C64.5,92.7,63.5,94.9,61.2,94.9z M65.5,88.9c0-0.2,0-0.3,0-0.5c-0.1-1.3,0.8-2.5,2.2-2.6c0.1,0,0.1,0,0.2,0
	c1.6,0,2.4,1.1,2.4,2.6c0.1,1.3-0.9,2.5-2.2,2.6c0,0-0.1,0-0.1,0C66.7,91.1,65.6,90.1,65.5,88.9z M68.5,94.8h-1.2
	c-0.1,0-0.1-0.1,0-0.1l6.2-8.6c0-0.1,0.1-0.1,0.2-0.1h1.2c0,0,0,0,0,0.1c0,0,0,0,0,0l-6.1,8.7C68.7,94.8,68.6,94.8,68.5,94.8z
	 M76.6,92.3c0.1,1.3-0.9,2.5-2.2,2.6c0,0-0.1,0-0.1,0C73,95,71.9,94,71.9,92.8c0-0.1,0-0.2,0-0.3c-0.1-1.3,0.8-2.5,2.2-2.6
	c0.1,0,0.1,0,0.2,0c1.3,0,2.3,0.9,2.4,2.2C76.6,92.1,76.6,92.2,76.6,92.3z"/>
</svg>
