<svg id="Layer_1" data-name="Layer 1" xmlns="http://www.w3.org/2000/svg" viewBox="0 0 673 50"><defs><style>.cls-1{fill:#fff;}.cls-2{fill:none;}.cls-3{isolation:isolate;}</style></defs><path class="cls-1" d="M6886.42-7225h13.42v32.14Z" transform="translate(-6863.5 7225)"/><path class="cls-1" d="M6877-7225h-13.44v32.14Z" transform="translate(-6863.5 7225)"/><path class="cls-1" d="M6881.69-7213.16l8.55,20.29h-5.6l-2.56-6.46h-6.26Z" transform="translate(-6863.5 7225)"/><path class="cls-1" d="M6868.2-7180c-.26-1.3-.72-3.27-.9-4.55h0c-.18,1.24-.51,3-.82,4.55Zm-2.13,1.92-.59,2.79c0,.11-.06.13-.15.13h-1.7c-.11,0-.14,0-.13-.18l2.35-10.13a3.57,3.57,0,0,0,.07-1,.1.1,0,0,1,.09-.11h2.45c.09,0,.13,0,.15.13l2.74,11.12c0,.1,0,.14-.11.14h-1.9a.12.12,0,0,1-.14-.11v0l-.63-2.79Z" transform="translate(-6863.5 7225)"/><path class="cls-1" d="M6875.88-7182.18a.88.88,0,0,0-.39,0c-1,0-1.74.9-1.74,2.67s.74,2.65,1.72,2.65a1.92,1.92,0,0,0,.41-.05Zm-4.23,2.69c0-2.59,1.52-4.59,3.94-4.59h.29v-3a.09.09,0,0,1,.1-.09h1.9a.08.08,0,0,1,.09.09v10.19a9.48,9.48,0,0,0,.05,1.19.11.11,0,0,1-.07.12,5.82,5.82,0,0,1-2.56.62C6873.15-7175,6871.65-7176.46,6871.65-7179.49Z" transform="translate(-6863.5 7225)"/><path class="cls-1" d="M6881.16-7179.56c0,1.64.36,2.72,1.16,2.72s1.13-.92,1.13-2.71-.28-2.69-1.12-2.69S6881.16-7181.41,6881.16-7179.56Zm4.37,0c0,2.79-1.17,4.56-3.22,4.56-2.31,0-3.22-2-3.22-4.58s1.17-4.5,3.26-4.5,3.19,1.67,3.19,4.52Z" transform="translate(-6863.5 7225)"/><path class="cls-1" d="M6889.37-7182.2a2.23,2.23,0,0,0-.63.09v5.22a1.5,1.5,0,0,0,.37,0c.8,0,1.73-.81,1.75-3C6890.88-7181.58,6890.19-7182.2,6889.37-7182.2Zm-.72-5c.07,0,.08,0,.08.11v3.13a4.49,4.49,0,0,1,1-.11c1.84,0,3.24,1.42,3.24,4.16,0,3.2-1.83,4.92-4.11,4.92a6.87,6.87,0,0,1-2.06-.32.15.15,0,0,1-.1-.14v-11.64a.11.11,0,0,1,.09-.11h1.9Z" transform="translate(-6863.5 7225)"/><path class="cls-1" d="M6897.3-7180.72a2.35,2.35,0,0,0,.53,0,1.23,1.23,0,0,0,0-.2c0-.67-.22-1.37-.94-1.37s-1,.72-1.08,1.59Zm-1.51,1.67c0,1.36.52,2.19,1.95,2.19a3.59,3.59,0,0,0,1.34-.26c.09,0,.15,0,.15.09v1.47c0,.13,0,.2-.13.23a3.89,3.89,0,0,1-1.75.32c-2.6,0-3.61-1.91-3.61-4.4,0-2.65,1.17-4.67,3.24-4.67s2.81,1.93,2.81,3.5a9.76,9.76,0,0,1-.09,1.32c0,.09-.07.13-.16.15s-.72,0-1.68,0Z" transform="translate(-6863.5 7225)"/><rect class="cls-2" x="36" width="30" height="50"/><rect class="cls-2" x="564" y="7" width="30" height="36"/><path class="cls-1" d="M7485.14-7201.35a1.52,1.52,0,0,0-1.51,1.43h2.86v-.12A1.3,1.3,0,0,0,7485.14-7201.35Z" transform="translate(-6863.5 7225)"/><path class="cls-1" d="M7470-7197.8c0,.51.37,1,1.38,1a2.49,2.49,0,0,0,1-.17v-1.72a5.5,5.5,0,0,0-.77,0C7470.52-7198.77,7470-7198.41,7470-7197.8Z" transform="translate(-6863.5 7225)"/><path class="cls-1" d="M7510.14-7202.08c0-.92-.36-1.44-1-1.44s-1,.46-1,1.44c0,.8.35,1.45,1,1.45S7510.14-7201.15,7510.14-7202.08Z" transform="translate(-6863.5 7225)"/><path class="cls-1" d="M7518.5-7218h-58a18,18,0,0,0-18,18,18,18,0,0,0,18,18h58a18,18,0,0,0,18-18A18,18,0,0,0,7518.5-7218Zm-54.6,22.49a5.33,5.33,0,0,1-2.45-.5.21.21,0,0,1-.1-.21v-1.46s.06-.08.12,0a4.68,4.68,0,0,0,2.49.72c1.15,0,1.64-.44,1.64-1.05s-.34-.91-1.4-1.36l-.68-.28c-1.72-.72-2.17-1.59-2.17-2.64,0-1.5,1.14-2.65,3.25-2.65a5.32,5.32,0,0,1,2.15.36c.07.05.08.09.08.19v1.35c0,.06,0,.12-.13.06a4.33,4.33,0,0,0-2.11-.46c-1.21,0-1.58.5-1.58,1s.32.86,1.43,1.32l.53.22c1.82.76,2.34,1.64,2.34,2.75C7467.31-7196.57,7466-7195.51,7463.9-7195.51Zm10.14-.63a6.81,6.81,0,0,1-2.91.63c-1.53,0-2.75-.71-2.75-2.29s1.33-2.23,3.15-2.23a7.78,7.78,0,0,1,.87,0v-.17c0-.32-.18-1.05-1.41-1.05a4.23,4.23,0,0,0-1.84.39.08.08,0,0,1-.11-.08v-1.22a.13.13,0,0,1,.08-.14,5.26,5.26,0,0,1,2.13-.42,2.54,2.54,0,0,1,2.79,2.77v2.84a8.72,8.72,0,0,0,0,.89S7474.07-7196.15,7474-7196.14Zm5,.39a.15.15,0,0,1-.16.1h-1.61a.16.16,0,0,1-.14-.08c-.46-1.35-1.82-5.32-2.31-6.73,0-.05,0-.09.08-.09h1.6c.07,0,.1,0,.13.08,1,3.28,1.37,4.62,1.51,5.24h0c.15-.62.57-2,1.64-5.24,0-.07,0-.08.11-.08h1.41s.1,0,.07.11C7480.83-7201,7479.47-7197,7479-7195.75Zm9-3.12c0,.06-.05.08-.12.1a10.64,10.64,0,0,1-1.44.06h-2.84c0,1,.68,1.76,2.11,1.76a4.32,4.32,0,0,0,1.74-.34s.08,0,.08.06v1.16c0,.09,0,.13-.08.16a4.68,4.68,0,0,1-2.1.4,3.23,3.23,0,0,1-3.46-3.51c0-1.95,1.18-3.67,3.29-3.67a2.78,2.78,0,0,1,2.87,2.95A4.53,4.53,0,0,1,7488-7198.87Zm6.6,3.36a4.86,4.86,0,0,1-2.32-.46.18.18,0,0,1-.09-.18v-1.39c0-.05.07-.08.13-.05a4.58,4.58,0,0,0,2.23.58c1.3,0,1.82-.56,1.82-1.27s-.62-1.25-1.82-1.25h-.82c-.07,0-.09,0-.09-.1v-1.27c0-.08,0-.13.08-.13h.7c1,0,1.61-.33,1.61-1s-.52-1.1-1.58-1.1a4,4,0,0,0-2,.54c-.08,0-.1,0-.1-.06V-7204c0-.07,0-.1.07-.14a5.12,5.12,0,0,1,2.37-.54c1.81,0,2.91.95,2.91,2.36a2,2,0,0,1-1.27,1.87,2.19,2.19,0,0,1,1.69,2.18C7498.13-7196.47,7496.55-7195.51,7494.63-7195.51Zm7.9,0c-2.31,0-3.28-2-3.28-4.59s1.16-4.55,3.26-4.55c2.58,0,3.23,2.42,3.23,4.55C7505.74-7197.75,7504.88-7195.51,7502.53-7195.51Zm4.31-6.53a2.37,2.37,0,0,1,2.31-2.61c1.56,0,2.28,1.09,2.28,2.57a2.35,2.35,0,0,1-2.29,2.58A2.24,2.24,0,0,1,7506.84-7202Zm2.77,6.39h-1.06c-.06,0-.1-.05,0-.12l6.16-8.66a.15.15,0,0,1,.15-.08h1.08c.07,0,.06.05,0,.09l-6.12,8.69C7509.75-7195.65,7509.72-7195.65,7509.61-7195.65Zm5.73.14a2.27,2.27,0,0,1-2.31-2.55,2.36,2.36,0,0,1,2.31-2.6c1.56,0,2.3,1.1,2.3,2.58A2.36,2.36,0,0,1,7515.34-7195.51Z" transform="translate(-6863.5 7225)"/><path class="cls-1" d="M7515.36-7199.53c-.59,0-1,.48-1,1.45,0,.81.35,1.42,1,1.42s1-.49,1-1.42S7516-7199.53,7515.36-7199.53Z" transform="translate(-6863.5 7225)"/><path class="cls-1" d="M7502.49-7203.23c-.9,0-1.54.94-1.54,3.09,0,2,.51,3.18,1.58,3.18s1.53-1.11,1.53-3.16S7503.52-7203.23,7502.49-7203.23Z" transform="translate(-6863.5 7225)"/><rect class="cls-2" x="549" y="7" width="30" height="36"/><g class="cls-3"><g class="cls-3"><path class="cls-1" d="M6940-7205.44c0,.14,0,.24-.16.28a8.76,8.76,0,0,1-2.78.36c-3.88,0-6.9-2.3-6.9-6.68,0-4.06,2.8-6.82,7.22-6.82a6.65,6.65,0,0,1,2.6.34.23.23,0,0,1,.14.24v2.18c0,.18-.1.18-.18.14a6.26,6.26,0,0,0-2.6-.44,4,4,0,0,0-4.32,4.26,4.07,4.07,0,0,0,4.38,4.3,7.44,7.44,0,0,0,2.44-.32c.1,0,.16,0,.16.1Z" transform="translate(-6863.5 7225)"/><path class="cls-1" d="M6951-7210c0,3.14-2,5.22-4.92,5.22-3.42,0-4.94-2.58-4.94-5.16a4.89,4.89,0,0,1,5-5.18C6949.36-7215.14,6951-7212.72,6951-7210Zm-7,0c0,1.76.82,2.88,2.16,2.88,1.16,0,2-1,2-2.84,0-1.56-.64-2.86-2.16-2.86C6944.86-7212.82,6944-7211.78,6944-7210Z" transform="translate(-6863.5 7225)"/><path class="cls-1" d="M6953-7205c-.14,0-.18-.06-.18-.18v-7.6c0-.74-.06-1.6-.08-2,0-.12,0-.18.16-.18H6955a.29.29,0,0,1,.24.12,2.82,2.82,0,0,1,.12.74,4.33,4.33,0,0,1,2.88-1.06,2.84,2.84,0,0,1,2.56,1.28,4.87,4.87,0,0,1,3.24-1.28c1.74,0,3.42.94,3.42,4v6a.16.16,0,0,1-.18.18h-2.4c-.14,0-.2-.06-.2-.18v-5.72c0-1-.36-1.84-1.52-1.84a2.68,2.68,0,0,0-1.7.64,8.56,8.56,0,0,1,.06,1.12v5.8c0,.1,0,.18-.16.18H6959c-.12,0-.2,0-.2-.18v-5.8c0-1.2-.56-1.74-1.52-1.74a2.71,2.71,0,0,0-1.64.56v7c0,.1,0,.16-.18.16Z" transform="translate(-6863.5 7225)"/><path class="cls-1" d="M6970-7205c-.14,0-.18-.06-.18-.18v-7.6c0-.74-.06-1.6-.08-2,0-.12,0-.18.16-.18H6972a.29.29,0,0,1,.24.12,2.82,2.82,0,0,1,.12.74,4.33,4.33,0,0,1,2.88-1.06,2.84,2.84,0,0,1,2.56,1.28,4.87,4.87,0,0,1,3.24-1.28c1.74,0,3.42.94,3.42,4v6a.16.16,0,0,1-.18.18h-2.4c-.14,0-.2-.06-.2-.18v-5.72c0-1-.36-1.84-1.52-1.84a2.68,2.68,0,0,0-1.7.64,8.56,8.56,0,0,1,.06,1.12v5.8c0,.1,0,.18-.16.18H6976c-.12,0-.2,0-.2-.18v-5.8c0-1.2-.56-1.74-1.52-1.74a2.71,2.71,0,0,0-1.64.56v7c0,.1,0,.16-.18.16Z" transform="translate(-6863.5 7225)"/><path class="cls-1" d="M6989.12-7209.24c.1,1.14.9,2.08,2.86,2.08a6.2,6.2,0,0,0,2.46-.46c.06,0,.12,0,.12.1v1.9c0,.14,0,.2-.14.24a6.71,6.71,0,0,1-3.06.58c-3.76,0-5.08-2.58-5.08-5.06,0-2.76,1.7-5.28,4.84-5.28a4.08,4.08,0,0,1,4.22,4.32,6.41,6.41,0,0,1-.1,1.34.17.17,0,0,1-.16.16,18.57,18.57,0,0,1-2.06.08Zm2.6-1.94a6.51,6.51,0,0,0,1,0v-.14a1.63,1.63,0,0,0-1.7-1.58,1.89,1.89,0,0,0-1.92,1.76Z" transform="translate(-6863.5 7225)"/><path class="cls-1" d="M6997.12-7212.62c0-.68,0-1.72-.08-2.16,0-.1,0-.16.14-.16h2.1a.24.24,0,0,1,.26.16,2.45,2.45,0,0,1,.16.66,4.38,4.38,0,0,1,2.84-1c1.54,0,3.36.8,3.36,4v5.94c0,.12,0,.18-.18.18h-2.4c-.14,0-.2-.06-.2-.18v-5.7c0-1.2-.52-1.84-1.56-1.84a2.42,2.42,0,0,0-1.66.62v6.94c0,.1-.06.16-.18.16h-2.42c-.14,0-.18-.06-.18-.18Z" transform="translate(-6863.5 7225)"/><path class="cls-1" d="M7013.2-7205.34c0,.12,0,.22-.14.26a5,5,0,0,1-1.78.28c-1.74,0-2.76-.86-2.76-2.86v-5h-1.2c-.12,0-.16-.06-.16-.18v-2c0-.14,0-.18.18-.18h1.2a21.92,21.92,0,0,1,.2-2.42.21.21,0,0,1,.18-.18l2.34-.3c.1,0,.16,0,.16.12-.06.62-.1,1.8-.1,2.78h1.84c.12,0,.16,0,.16.16v2c0,.1,0,.12-.14.14h-1.88v4.28c0,.88.26,1.28,1.08,1.28a3.94,3.94,0,0,0,.68-.08c.08,0,.14,0,.14.14Z" transform="translate(-6863.5 7225)"/><path class="cls-1" d="M7014.92-7206.48a1.59,1.59,0,0,1,1.66-1.66,1.59,1.59,0,0,1,1.66,1.66,1.55,1.55,0,0,1-1.66,1.68A1.58,1.58,0,0,1,7014.92-7206.48Z" transform="translate(-6863.5 7225)"/><path class="cls-1" d="M7033.32-7205.18c0,.16-.06.18-.2.18H7025c-.12,0-.16-.06-.16-.18v-12.74c0-.12,0-.18.16-.18h7.9c.16,0,.2,0,.22.16l.22,2.16c0,.1,0,.18-.14.18h-5.58v2.68h5.1c.1,0,.16,0,.16.16v2.2c0,.12-.08.14-.16.14h-5.1v2.92h5.9c.16,0,.18.06.16.18Z" transform="translate(-6863.5 7225)"/><path class="cls-1" d="M7034.56-7209.88c0-2.86,2.14-5.26,5.8-5.26l.66,0V-7219a.13.13,0,0,1,.14-.14h2.52c.1,0,.12,0,.12.12v11.82a11.28,11.28,0,0,0,.08,1.46c0,.1,0,.14-.14.18a10,10,0,0,1-3.94.8C7036.84-7204.8,7034.56-7206.48,7034.56-7209.88Zm6.46-2.84a2.07,2.07,0,0,0-.74-.1,2.67,2.67,0,0,0-2.86,2.8,2.5,2.5,0,0,0,2.66,2.84,2.82,2.82,0,0,0,.94-.12Z" transform="translate(-6863.5 7225)"/><path class="cls-1" d="M7046-7217.56a1.5,1.5,0,0,1,1.56-1.54,1.45,1.45,0,0,1,1.54,1.54,1.47,1.47,0,0,1-1.56,1.56A1.45,1.45,0,0,1,7046-7217.56Zm.14,2.78c0-.1,0-.16.16-.16h2.46c.12,0,.16,0,.16.16v9.6c0,.12,0,.18-.18.18h-2.4c-.14,0-.2-.06-.2-.18Z" transform="translate(-6863.5 7225)"/><path class="cls-1" d="M7056.42-7205.34c0,.12,0,.22-.14.26a5,5,0,0,1-1.78.28c-1.74,0-2.76-.86-2.76-2.86v-5h-1.2c-.12,0-.16-.06-.16-.18v-2c0-.14,0-.18.18-.18h1.2a21.92,21.92,0,0,1,.2-2.42.21.21,0,0,1,.18-.18l2.34-.3c.1,0,.16,0,.16.12-.06.62-.1,1.8-.1,2.78h1.84c.12,0,.16,0,.16.16v2c0,.1,0,.12-.14.14h-1.88v4.28c0,.88.26,1.28,1.08,1.28a3.94,3.94,0,0,0,.68-.08c.08,0,.14,0,.14.14Z" transform="translate(-6863.5 7225)"/><path class="cls-1" d="M7058.14-7206.48a1.59,1.59,0,0,1,1.66-1.66,1.59,1.59,0,0,1,1.66,1.66,1.55,1.55,0,0,1-1.66,1.68A1.58,1.58,0,0,1,7058.14-7206.48Z" transform="translate(-6863.5 7225)"/><path class="cls-1" d="M7076.54-7205.18c0,.16-.06.18-.2.18h-8.14c-.12,0-.16-.06-.16-.18v-12.74c0-.12,0-.18.16-.18h7.9c.16,0,.2,0,.22.16l.22,2.16c0,.1,0,.18-.14.18h-5.58v2.68h5.1c.1,0,.16,0,.16.16v2.2c0,.12-.08.14-.16.14h-5.1v2.92h5.9c.16,0,.18.06.16.18Z" transform="translate(-6863.5 7225)"/><path class="cls-1" d="M7078.22-7209c-.1,0-.14-.06-.14-.16v-2.1a.13.13,0,0,1,.14-.14H7083c.08,0,.12,0,.12.14v2.12c0,.12,0,.14-.1.14Z" transform="translate(-6863.5 7225)"/><path class="cls-1" d="M7088.5-7212.92c-.94,0-1.24.34-1.24.68s.26.6,1.42,1c2.42.88,3.18,1.82,3.18,3.24,0,1.9-1.48,3.16-4.12,3.16a6.47,6.47,0,0,1-2.9-.56.23.23,0,0,1-.14-.22v-2.16c0-.12.08-.18.16-.12a5.68,5.68,0,0,0,2.94.8c.94,0,1.36-.26,1.36-.68s-.34-.66-1.52-1.1c-2.26-.84-3-1.8-3-3.24s1.26-3.06,3.9-3.06a6.62,6.62,0,0,1,2.6.4.26.26,0,0,1,.14.26v2c0,.12-.08.2-.2.14A6.12,6.12,0,0,0,7088.5-7212.92Z" transform="translate(-6863.5 7225)"/><path class="cls-1" d="M7093.4-7217.56a1.5,1.5,0,0,1,1.56-1.54,1.45,1.45,0,0,1,1.54,1.54,1.47,1.47,0,0,1-1.56,1.56A1.45,1.45,0,0,1,7093.4-7217.56Zm.14,2.78c0-.1,0-.16.16-.16h2.46c.12,0,.16,0,.16.16v9.6c0,.12,0,.18-.18.18h-2.4c-.14,0-.2-.06-.2-.18Z" transform="translate(-6863.5 7225)"/><path class="cls-1" d="M7103.8-7207.32c2.86.14,3.92,1.3,3.92,2.88,0,2.08-2,3.76-5.26,3.76s-4.8-1.66-4.8-3.1c0-.64.52-1.44,1.84-2.54a2.51,2.51,0,0,1-.42-1.5,2.78,2.78,0,0,1,.36-1.32,2.88,2.88,0,0,1-1.38-2.58c0-1.92,1.5-3.42,4.1-3.42a11.63,11.63,0,0,1,1.9.16,2.11,2.11,0,0,0,.48,0h2.74c.1,0,.14,0,.14.14v1.86c0,.1,0,.14-.14.14-.3,0-1-.06-1.38-.1a2.59,2.59,0,0,1,.3,1.3c0,2.12-1.74,3.18-4,3.18-.22,0-.46,0-.68,0a1,1,0,0,0,0,.54,1.08,1.08,0,0,0,.22.52Zm-2.84,2.24a2,2,0,0,0-.76,1.06c0,.62.88,1.3,2.44,1.3,1.78,0,2.54-.62,2.54-1.28s-.88-.94-2-1Zm-.2-6.68a1.3,1.3,0,0,0,1.42,1.36,1.22,1.22,0,0,0,1.38-1.3,1.28,1.28,0,0,0-1.4-1.44A1.28,1.28,0,0,0,7100.76-7211.76Z" transform="translate(-6863.5 7225)"/><path class="cls-1" d="M7109-7212.62c0-.68,0-1.72-.08-2.16,0-.1,0-.16.14-.16h2.1a.24.24,0,0,1,.26.16,2.45,2.45,0,0,1,.16.66,4.38,4.38,0,0,1,2.84-1c1.54,0,3.36.8,3.36,4v5.94c0,.12,0,.18-.18.18h-2.4c-.14,0-.2-.06-.2-.18v-5.7c0-1.2-.52-1.84-1.56-1.84a2.42,2.42,0,0,0-1.66.62v6.94c0,.1-.06.16-.18.16h-2.42c-.14,0-.18-.06-.18-.18Z" transform="translate(-6863.5 7225)"/><path class="cls-1" d="M7119.62-7206.48a1.59,1.59,0,0,1,1.66-1.66,1.59,1.59,0,0,1,1.66,1.66,1.55,1.55,0,0,1-1.66,1.68A1.58,1.58,0,0,1,7119.62-7206.48Z" transform="translate(-6863.5 7225)"/></g><g class="cls-3"><path class="cls-1" d="M6931.1-7181c-.12,0-.16,0-.16-.18v-12.7c0-.1,0-.2.14-.2,1.8,0,2.56-.06,4.18-.06,3.32,0,5.18,1.42,5.18,4a3.76,3.76,0,0,1-2.5,3.52c.66.9,2.92,4.3,3.54,5.38.06.12.08.24-.06.24h-2.9c-.18,0-.24,0-.28-.12-.58-.88-1.84-3-2.66-4.38-.14-.24-.24-.34-.46-.34h-1.46v4.68a.15.15,0,0,1-.16.16Zm4.1-7.2c1.5,0,2.46-.6,2.46-1.78s-1-1.74-2.48-1.74c-.66,0-1.22,0-1.52,0v3.48Z" transform="translate(-6863.5 7225)"/><path class="cls-1" d="M6944.6-7185.24c.1,1.14.9,2.08,2.86,2.08a6.2,6.2,0,0,0,2.46-.46c.06,0,.12,0,.12.1v1.9c0,.14,0,.2-.14.24a6.71,6.71,0,0,1-3.06.58c-3.76,0-5.08-2.58-5.08-5.06,0-2.76,1.7-5.28,4.84-5.28a4.08,4.08,0,0,1,4.22,4.32,6.41,6.41,0,0,1-.1,1.34.17.17,0,0,1-.16.16,18.57,18.57,0,0,1-2.06.08Zm2.6-1.94a6.51,6.51,0,0,0,1,0v-.14a1.63,1.63,0,0,0-1.7-1.58,1.89,1.89,0,0,0-1.92,1.76Z" transform="translate(-6863.5 7225)"/><path class="cls-1" d="M6952.6-7188.62c0-.68,0-1.72-.08-2.16,0-.1,0-.16.14-.16h2.1a.24.24,0,0,1,.26.16,2.45,2.45,0,0,1,.16.66,4.38,4.38,0,0,1,2.84-1c1.54,0,3.36.8,3.36,4v5.94c0,.12,0,.18-.18.18h-2.4c-.14,0-.2-.06-.2-.18v-5.7c0-1.2-.52-1.84-1.56-1.84a2.42,2.42,0,0,0-1.66.62v6.94c0,.1-.06.16-.18.16h-2.42c-.14,0-.18-.06-.18-.18Z" transform="translate(-6863.5 7225)"/><path class="cls-1" d="M6966-7185.24c.1,1.14.9,2.08,2.86,2.08a6.2,6.2,0,0,0,2.46-.46c.06,0,.12,0,.12.1v1.9c0,.14,0,.2-.14.24a6.71,6.71,0,0,1-3.06.58c-3.76,0-5.08-2.58-5.08-5.06,0-2.76,1.7-5.28,4.84-5.28a4.08,4.08,0,0,1,4.22,4.32,6.41,6.41,0,0,1-.1,1.34.17.17,0,0,1-.16.16,18.57,18.57,0,0,1-2.06.08Zm2.6-1.94a6.51,6.51,0,0,0,1,0v-.14a1.63,1.63,0,0,0-1.7-1.58,1.89,1.89,0,0,0-1.92,1.76Z" transform="translate(-6863.5 7225)"/><path class="cls-1" d="M6982.34-7181c-.16,0-.2-.06-.24-.18-1-4.08-1.32-5.92-1.52-6.9h0c-.5,2.2-.9,3.86-1.74,6.9,0,.14-.1.18-.22.18h-2.5c-.2,0-.24,0-.28-.18l-2.6-9.58c0-.1,0-.18.16-.18h2.54c.12,0,.16,0,.18.14,1.06,4.32,1.34,6.24,1.48,7.08h0c.16-.72.48-2.6,1.64-7,0-.12,0-.18.18-.18h2.64c.1,0,.14,0,.16.14,1.06,4.42,1.34,6.36,1.48,7.16h0c.28-1.3.58-3.46,1.54-7.16a.16.16,0,0,1,.18-.14h2.34c.08,0,.16.06.12.16l-2.86,9.6c0,.14-.06.18-.24.18Z" transform="translate(-6863.5 7225)"/><path class="cls-1" d="M6996.32-7184.12l-1,3a.22.22,0,0,1-.22.16h-2.32c-.14,0-.18-.08-.16-.2l4-11.54a3.64,3.64,0,0,0,.2-1.22.13.13,0,0,1,.12-.14h3.2c.1,0,.14,0,.16.12l4.54,12.8c0,.1,0,.18-.1.18h-2.6a.2.2,0,0,1-.22-.14l-1-3Zm3.88-2.5c-.4-1.32-1.2-3.74-1.58-5.16h0c-.32,1.34-1,3.54-1.56,5.16Z" transform="translate(-6863.5 7225)"/><path class="cls-1" d="M7013.1-7181.28c0,.1,0,.14-.1.16a6.2,6.2,0,0,1-2.24.32,5,5,0,0,1-5.28-5.12c0-3,2.26-5.22,5.66-5.22a5.45,5.45,0,0,1,1.84.22c.1,0,.12.1.12.22l0,2.06c0,.14-.08.16-.16.14a5,5,0,0,0-1.68-.24,2.6,2.6,0,0,0-2.9,2.72,2.65,2.65,0,0,0,2.94,2.76,6.59,6.59,0,0,0,1.66-.18c.12,0,.16,0,.16.08Z" transform="translate(-6863.5 7225)"/><path class="cls-1" d="M7017-7190.94a.22.22,0,0,1,.24.18,3.82,3.82,0,0,1,.22,1.12,4.17,4.17,0,0,1,3.18-1.5c.12,0,.16,0,.16.16v2.46c0,.1,0,.14-.18.14a4.11,4.11,0,0,0-3,.86l0,6.36c0,.12,0,.16-.18.16H7015c-.16,0-.2-.06-.2-.18v-6.9c0-.86,0-2-.1-2.72,0-.1,0-.14.12-.14Z" transform="translate(-6863.5 7225)"/><path class="cls-1" d="M7031.54-7186c0,3.14-2,5.22-4.92,5.22-3.42,0-4.94-2.58-4.94-5.16a4.89,4.89,0,0,1,5-5.18C7029.88-7191.14,7031.54-7188.72,7031.54-7186Zm-7,0c0,1.76.82,2.88,2.16,2.88,1.16,0,2-1,2-2.84,0-1.56-.64-2.86-2.16-2.86C7025.38-7188.82,7024.5-7187.78,7024.5-7186Z" transform="translate(-6863.5 7225)"/><path class="cls-1" d="M7035.92-7195.18c.16,0,.2,0,.2.16v4.1a6.44,6.44,0,0,1,1.68-.22,4.58,4.58,0,0,1,4.8,4.76c0,3.74-3,5.58-6,5.58a10.47,10.47,0,0,1-3.14-.46.23.23,0,0,1-.12-.2V-7195c0-.1,0-.14.14-.14Zm1.38,6.4a4.07,4.07,0,0,0-1.18.16v5.42a3.11,3.11,0,0,0,.74.08,2.75,2.75,0,0,0,2.9-3A2.35,2.35,0,0,0,7037.3-7188.78Z" transform="translate(-6863.5 7225)"/><path class="cls-1" d="M7052.2-7183.22c0,.52,0,.94,0,1.42,0,0,0,.08,0,.1a11,11,0,0,1-4.36.9c-2.22,0-4-1-4-3.34,0-2.12,1.86-3.24,4.52-3.24a8.46,8.46,0,0,1,1.18,0v-.14c0-.38-.24-1.26-1.92-1.26a6.41,6.41,0,0,0-2.64.54.12.12,0,0,1-.18-.1v-2a.17.17,0,0,1,.14-.2,7.52,7.52,0,0,1,3.14-.62c2.88,0,4.16,1.78,4.16,4.06Zm-2.7-2.06a7.46,7.46,0,0,0-1-.06c-1.42,0-2,.46-2,1.18s.5,1.2,1.76,1.2a4,4,0,0,0,1.24-.18Z" transform="translate(-6863.5 7225)"/><path class="cls-1" d="M7059.4-7181.34c0,.12,0,.22-.14.26a5,5,0,0,1-1.78.28c-1.74,0-2.76-.86-2.76-2.86v-5h-1.2c-.12,0-.16-.06-.16-.18v-2c0-.14,0-.18.18-.18h1.2a21.92,21.92,0,0,1,.2-2.42.21.21,0,0,1,.18-.18l2.34-.3c.1,0,.16,0,.16.12-.06.62-.1,1.8-.1,2.78h1.84c.12,0,.16,0,.16.16v2c0,.1,0,.12-.14.14h-1.88v4.28c0,.88.26,1.28,1.08,1.28a3.94,3.94,0,0,0,.68-.08c.08,0,.14,0,.14.14Z" transform="translate(-6863.5 7225)"/><path class="cls-1" d="M7065.8-7193.92c0-.12,0-.16.12-.16.82,0,2.4-.06,3.92-.06,4,0,5.44,2.24,5.44,4.42,0,3.24-2.5,4.62-5.58,4.62h-1.14v3.94c0,.1,0,.16-.16.16h-2.46c-.1,0-.14-.06-.14-.16Zm2.76,6.36c.34,0,.56,0,1.12,0,1.58,0,2.84-.48,2.84-2.12,0-1.26-.86-2.06-2.6-2.06-.64,0-1.18,0-1.36,0Z" transform="translate(-6863.5 7225)"/><path class="cls-1" d="M7079.14-7190.94a.22.22,0,0,1,.24.18,3.82,3.82,0,0,1,.22,1.12,4.17,4.17,0,0,1,3.18-1.5c.12,0,.16,0,.16.16v2.46c0,.1,0,.14-.18.14a4.11,4.11,0,0,0-3,.86l0,6.36c0,.12,0,.16-.18.16h-2.4c-.16,0-.2-.06-.2-.18v-6.9c0-.86,0-2-.1-2.72,0-.1,0-.14.12-.14Z" transform="translate(-6863.5 7225)"/><path class="cls-1" d="M7093.68-7186c0,3.14-2,5.22-4.92,5.22-3.42,0-4.94-2.58-4.94-5.16a4.89,4.89,0,0,1,5-5.18C7092-7191.14,7093.68-7188.72,7093.68-7186Zm-7,0c0,1.76.82,2.88,2.16,2.88,1.16,0,2-1,2-2.84,0-1.56-.64-2.86-2.16-2.86C7087.52-7188.82,7086.64-7187.78,7086.64-7186Z" transform="translate(-6863.5 7225)"/><path class="cls-1" d="M7100.26-7193.92c0-.1,0-.14.14-.16.6,0,2.12-.06,3.9-.06,4.78,0,7.12,2.68,7.12,6.38,0,4.78-3.68,6.8-7.08,6.8-1.32,0-3.32,0-4,0-.08,0-.12-.06-.12-.2Zm2.78,10.52c.4,0,.72,0,1.18,0a4,4,0,0,0,4.34-4.36c0-2.68-1.72-4-4.28-4-.48,0-.8,0-1.24,0Z" transform="translate(-6863.5 7225)"/><path class="cls-1" d="M7122.84-7181.44c0,.14,0,.24-.16.28a8.76,8.76,0,0,1-2.78.36c-3.88,0-6.9-2.3-6.9-6.68,0-4.06,2.8-6.82,7.22-6.82a6.65,6.65,0,0,1,2.6.34.23.23,0,0,1,.14.24v2.18c0,.18-.1.18-.18.14a6.26,6.26,0,0,0-2.6-.44,4,4,0,0,0-4.32,4.26,4.07,4.07,0,0,0,4.38,4.3,7.44,7.44,0,0,0,2.44-.32c.1,0,.16,0,.16.1Z" transform="translate(-6863.5 7225)"/><path class="cls-1" d="M7124.92-7182.48a1.59,1.59,0,0,1,1.66-1.66,1.59,1.59,0,0,1,1.66,1.66,1.55,1.55,0,0,1-1.66,1.68A1.58,1.58,0,0,1,7124.92-7182.48Z" transform="translate(-6863.5 7225)"/></g></g></svg>