<svg xmlns="http://www.w3.org/2000/svg" width="673" height="51" viewBox="0 0 673 51"><defs><style>.a,.c,.d{fill:#fff;}.b{fill:none;opacity:0.749;}.c{font-size:14px;font-family:AdobeClean-Bold, Adobe Clean;font-weight:700;}.d{font-size:20px;font-family:AdobeClean-ExtraBold, Adobe Clean;font-weight:800;}</style></defs><g transform="translate(-20 -20)"><g transform="translate(20 20)"><path class="a" d="M18.334,0H31.756V32.137Z" transform="translate(4.583)"/><path class="a" d="M13.455,0H.021V32.137Z" transform="translate(0.004)"/><path class="a" d="M15.725,9.474l8.552,20.292h-5.6L16.113,23.3H9.854Z" transform="translate(2.463 2.369)"/><path class="a" d="M4.7,37.331c-.257-1.307-.717-3.277-.9-4.548H3.783c-.18,1.235-.514,2.972-.824,4.548ZM2.568,39.247l-.591,2.794c-.018.108-.054.126-.144.126H.131c-.108,0-.144-.036-.126-.18L2.35,31.86a3.632,3.632,0,0,0,.072-.984.1.1,0,0,1,.108-.108H4.964c.09,0,.126.036.144.126l2.74,11.121c.018.108-.018.144-.108.144h-1.9a.128.128,0,0,1-.144-.126l-.627-2.794Z" transform="translate(-0.001 7.692)"/><path class="a" d="M10.747,35.258a1.007,1.007,0,0,0-.39-.051c-.991,0-1.734.9-1.734,2.671,0,1.875.742,2.653,1.716,2.653a1.5,1.5,0,0,0,.408-.054Zm-4.23,2.689c0-2.581,1.523-4.582,3.948-4.582h.283V30.324c0-.054.033-.09.105-.09h1.9c.072,0,.087.036.087.09V40.513a8.168,8.168,0,0,0,.054,1.187.11.11,0,0,1-.069.123,5.871,5.871,0,0,1-2.568.619C8.022,42.441,6.517,40.983,6.517,37.947Z" transform="translate(1.629 7.559)"/><path class="a" d="M14.547,37.251c0,1.644.354,2.725,1.151,2.725s1.133-.922,1.133-2.707c0-1.664-.283-2.689-1.115-2.689C14.989,34.58,14.547,35.41,14.547,37.251Zm4.366,0c0,2.794-1.169,4.564-3.221,4.564-2.311,0-3.221-2.016-3.221-4.582,0-2.617,1.169-4.495,3.257-4.495,2,0,3.19,1.664,3.19,4.513Z" transform="translate(3.117 8.185)"/><path class="a" d="M21.241,35.243a2.155,2.155,0,0,0-.637.087v5.219a1.431,1.431,0,0,0,.372.036c.8,0,1.734-.814,1.752-3.007C22.746,35.859,22.055,35.243,21.241,35.243Zm-.724-5.008c.069,0,.087.036.087.108v3.131a4.283,4.283,0,0,1,.955-.108c1.839,0,3.239,1.415,3.239,4.158,0,3.2-1.824,4.918-4.109,4.918a6.734,6.734,0,0,1-2.055-.318.157.157,0,0,1-.105-.141V30.342a.1.1,0,0,1,.105-.108Z" transform="translate(4.631 7.558)"/><path class="a" d="M27.751,36.1a2.824,2.824,0,0,0,.529-.018.771.771,0,0,0,.018-.2c0-.67-.211-1.379-.937-1.379s-.991.727-1.079,1.592Zm-1.505,1.664c0,1.361.514,2.193,1.947,2.193a3.6,3.6,0,0,0,1.343-.257c.09-.036.144-.036.144.09v1.467c0,.126-.036.2-.126.231a3.873,3.873,0,0,1-1.752.318c-2.6,0-3.608-1.911-3.608-4.4,0-2.653,1.169-4.672,3.239-4.672,2.175,0,2.812,1.929,2.812,3.5a9.5,9.5,0,0,1-.09,1.328c-.015.087-.069.123-.159.141-.175.018-.724.054-1.68.054Z" transform="translate(6.048 8.183)"/><rect class="b" width="30" height="50" transform="translate(36)"/></g><g transform="translate(584 27)"><rect class="b" width="30" height="36"/><g transform="translate(-15)"><rect class="a" width="94" height="36" rx="18" transform="translate(30)"/><path class="a" d="M18,2A16,16,0,0,0,6.686,29.314,15.9,15.9,0,0,0,18,34H76A16,16,0,0,0,87.314,6.686,15.9,15.9,0,0,0,76,2H18m0-2H76a18,18,0,0,1,0,36H18A18,18,0,0,1,18,0Z" transform="translate(30)"/><text class="c" transform="translate(77 22.353)"><tspan x="-28.651" y="0">Save 30%</tspan></text><rect class="b" width="30" height="36"/></g></g><text class="d" transform="translate(86 20)"><tspan x="0" y="20">Comment. Edit. E-sign.</tspan><tspan x="0" y="44">Renew Acrobat Pro DC.</tspan></text></g></svg>