<svg xmlns="http://www.w3.org/2000/svg" viewBox="0 0 203.48 18.68"><defs><style>.a{fill:#fff;}</style></defs><title>tag_headline2</title><path class="a" d="M7.93,18c0,.16,0,.29-.19.34a6.4,6.4,0,0,1-2.31.37c-2.26,0-3.58-1.12-3.58-3.72V8.56H.29c-.16,0-.21-.08-.21-.24V5.77c0-.18.05-.23.23-.23H1.87A29.3,29.3,0,0,1,2.13,2.4a.3.3,0,0,1,.24-.24l3-.39c.13,0,.2,0,.2.16-.07.8-.13,2.34-.13,3.61H7.87c.16,0,.21,0,.21.21V8.37c0,.13-.05.16-.18.19H5.46v5.56c0,1.14.34,1.66,1.4,1.66a5.27,5.27,0,0,0,.88-.1c.11,0,.19,0,.19.18Z" transform="translate(-0.08 -0.03)"/><path class="a" d="M13.8,18.25c0,.15-.05.21-.21.21H10.4c-.16,0-.21-.08-.21-.21V.21c0-.1,0-.18.21-.18h3.19c.16,0,.21.05.21.18V6.35a5.71,5.71,0,0,1,3.4-1.07c2,0,4.4,1,4.4,5.22v7.72c0,.16-.06.24-.24.24H18.24c-.18,0-.26-.08-.26-.24V10.87c0-1.64-.7-2.44-2.05-2.44a3.51,3.51,0,0,0-2.13.65Z" transform="translate(-0.08 -0.03)"/><path class="a" d="M27.63,13c.12,1.48,1.16,2.7,3.71,2.7a8,8,0,0,0,3.2-.6c.07-.05.15,0,.15.13v2.47c0,.18,0,.26-.18.31a8.62,8.62,0,0,1-4,.76c-4.89,0-6.6-3.36-6.6-6.58,0-3.58,2.2-6.86,6.28-6.86s5.49,3,5.49,5.61a8.84,8.84,0,0,1-.13,1.74c0,.14-.08.19-.21.21a21.81,21.81,0,0,1-2.68.11ZM31,10.43a7.33,7.33,0,0,0,1.3-.06v-.18a2.11,2.11,0,0,0-2.21-2,2.46,2.46,0,0,0-2.49,2.29Z" transform="translate(-0.08 -0.03)"/><path class="a" d="M56.05,17.88c0,.19,0,.32-.2.37a11.47,11.47,0,0,1-3.62.47c-5,0-9-3-9-8.68,0-5.28,3.64-8.86,9.38-8.86A8.7,8.7,0,0,1,56,1.62a.29.29,0,0,1,.18.31V4.76c0,.24-.13.24-.23.18a8.24,8.24,0,0,0-3.38-.57C49.12,4.37,47,6.53,47,9.91c0,4.05,3,5.58,5.7,5.58a9.76,9.76,0,0,0,3.17-.41c.13-.05.2,0,.2.13Z" transform="translate(-0.08 -0.03)"/><path class="a" d="M61.3,5.54a.3.3,0,0,1,.32.23,4.84,4.84,0,0,1,.28,1.46A5.44,5.44,0,0,1,66,5.28c.16,0,.21,0,.21.21v3.2c0,.13,0,.18-.23.18A5.38,5.38,0,0,0,62.08,10l0,8.27c0,.15-.05.21-.24.21H58.71c-.21,0-.26-.08-.26-.24v-9c0-1.12,0-2.63-.13-3.54,0-.13,0-.18.15-.18Z" transform="translate(-0.08 -0.03)"/><path class="a" d="M71.07,13c.13,1.48,1.17,2.7,3.72,2.7a8,8,0,0,0,3.2-.6c.07-.05.15,0,.15.13v2.47c0,.18,0,.26-.18.31a8.63,8.63,0,0,1-4,.76c-4.88,0-6.6-3.36-6.6-6.58,0-3.58,2.21-6.86,6.29-6.86,3.93,0,5.49,3,5.49,5.61A8.84,8.84,0,0,1,79,12.63c0,.14-.08.19-.21.21a21.81,21.81,0,0,1-2.68.11Zm3.38-2.52a7.33,7.33,0,0,0,1.3-.06v-.18a2.11,2.11,0,0,0-2.21-2,2.46,2.46,0,0,0-2.49,2.29Z" transform="translate(-0.08 -0.03)"/><path class="a" d="M91.55,15.57c0,.68,0,1.22,0,1.85,0,0,0,.1,0,.13a14.36,14.36,0,0,1-5.66,1.17c-2.89,0-5.25-1.33-5.25-4.34,0-2.76,2.41-4.21,5.87-4.21a11.34,11.34,0,0,1,1.53.05V10c0-.5-.31-1.64-2.49-1.64a8.36,8.36,0,0,0-3.43.7A.15.15,0,0,1,81.89,9V6.35c0-.13,0-.21.18-.26a9.68,9.68,0,0,1,4.08-.81c3.74,0,5.4,2.31,5.4,5.28ZM88,12.9a8.47,8.47,0,0,0-1.3-.08c-1.84,0-2.59.6-2.59,1.53s.65,1.56,2.28,1.56A5.4,5.4,0,0,0,88,15.68Z" transform="translate(-0.08 -0.03)"/><path class="a" d="M100.91,18c0,.16,0,.29-.18.34a6.49,6.49,0,0,1-2.32.37c-2.26,0-3.58-1.12-3.58-3.72V8.56H93.27c-.16,0-.21-.08-.21-.24V5.77c0-.18,0-.23.23-.23h1.56a29.3,29.3,0,0,1,.26-3.14.3.3,0,0,1,.24-.24l3-.39c.13,0,.2,0,.2.16-.07.8-.13,2.34-.13,3.61h2.4c.15,0,.2,0,.2.21V8.37c0,.13,0,.16-.18.19H98.44v5.56c0,1.14.34,1.66,1.4,1.66a5.51,5.51,0,0,0,.89-.1c.1,0,.18,0,.18.18Z" transform="translate(-0.08 -0.03)"/><path class="a" d="M103,2.14a2,2,0,0,1,2-2,1.88,1.88,0,0,1,2,2,1.91,1.91,0,0,1-2,2A1.88,1.88,0,0,1,103,2.14Zm.18,3.61c0-.13,0-.21.21-.21h3.2c.15,0,.2,0,.2.21V18.22c0,.16,0,.24-.23.24H103.4c-.18,0-.26-.08-.26-.24Z" transform="translate(-0.08 -0.03)"/><path class="a" d="M112.94,18.46a.3.3,0,0,1-.31-.19c-1-2.93-3.17-9.53-4.24-12.52a.17.17,0,0,1,.18-.21H112c.18,0,.23,0,.28.18,1.69,5.85,2.26,8.16,2.52,9.33h.06c.26-1.17.93-3.51,2.75-9.33,0-.13.1-.18.23-.18h3a.16.16,0,0,1,.15.23c-1.11,3.07-3.3,9.65-4.33,12.48-.08.13-.13.21-.32.21Z" transform="translate(-0.08 -0.03)"/><path class="a" d="M125.54,13c.13,1.48,1.17,2.7,3.72,2.7a8,8,0,0,0,3.2-.6c.07-.05.15,0,.15.13v2.47c0,.18-.05.26-.18.31a8.63,8.63,0,0,1-4,.76c-4.88,0-6.6-3.36-6.6-6.58,0-3.58,2.21-6.86,6.29-6.86s5.48,3,5.48,5.61a8.1,8.1,0,0,1-.13,1.74c0,.14-.07.19-.2.21a21.81,21.81,0,0,1-2.68.11Zm3.38-2.52a7.33,7.33,0,0,0,1.3-.06v-.18a2.11,2.11,0,0,0-2.21-2,2.45,2.45,0,0,0-2.49,2.29Z" transform="translate(-0.08 -0.03)"/><path class="a" d="M154,17.88c0,.19-.05.32-.21.37a11.36,11.36,0,0,1-3.61.47c-5,0-9-3-9-8.68,0-5.28,3.64-8.86,9.38-8.86a8.7,8.7,0,0,1,3.38.44.29.29,0,0,1,.18.31V4.76c0,.24-.13.24-.24.18a8.16,8.16,0,0,0-3.37-.57c-3.49,0-5.62,2.16-5.62,5.54,0,4.05,3,5.58,5.69,5.58a9.68,9.68,0,0,0,3.17-.41c.13-.05.21,0,.21.13Z" transform="translate(-0.08 -0.03)"/><path class="a" d="M156.29.24c0-.13.05-.21.26-.21h3.09c.18,0,.26.08.26.21V14.79c0,.73.23,1,.85,1a2.58,2.58,0,0,0,.47,0c.11,0,.13.06.13.19v2.23c0,.21,0,.26-.18.31a4.2,4.2,0,0,1-1.61.24c-1.87,0-3.27-.71-3.27-3.59Z" transform="translate(-0.08 -0.03)"/><path class="a" d="M175.49,11.93c0,4.08-2.65,6.79-6.39,6.79-4.45,0-6.42-3.36-6.42-6.71,0-3.69,2.47-6.73,6.47-6.73C173.33,5.28,175.49,8.43,175.49,11.93Zm-9.15,0c0,2.29,1.07,3.74,2.81,3.74,1.51,0,2.65-1.3,2.65-3.69,0-2-.83-3.71-2.81-3.71C167.49,8.3,166.34,9.65,166.34,12Z" transform="translate(-0.08 -0.03)"/><path class="a" d="M189.08,15.57a21.55,21.55,0,0,0,.16,2.68c0,.15-.06.21-.24.21h-2.75c-.21,0-.26-.06-.31-.19a7.55,7.55,0,0,1-.16-.8,5.27,5.27,0,0,1-3.56,1.25c-2.6,0-4.39-1.43-4.39-5V5.75c0-.18,0-.21.23-.21h3.17c.16,0,.19,0,.19.21v7.54c0,1.4.59,2.31,2,2.31a2.85,2.85,0,0,0,2-.76V5.75c0-.16.08-.21.26-.21h3.14c.18,0,.21,0,.21.21Z" transform="translate(-0.08 -0.03)"/><path class="a" d="M191.45,12.12c0-3.72,2.78-6.84,7.53-6.84.21,0,.47,0,.86,0V.21A.16.16,0,0,1,200,0h3.27c.13,0,.16.05.16.16V15.55a16.23,16.23,0,0,0,.1,1.89c0,.13,0,.19-.18.24a13.08,13.08,0,0,1-5.12,1C194.41,18.72,191.45,16.53,191.45,12.12Zm8.39-3.69a2.57,2.57,0,0,0-1-.13,3.47,3.47,0,0,0-3.72,3.63c0,2.58,1.48,3.69,3.46,3.69a3.65,3.65,0,0,0,1.22-.15Z" transform="translate(-0.08 -0.03)"/></svg>