<svg xmlns="http://www.w3.org/2000/svg" viewBox="0 0 102 36"><defs><style>.a{fill:none;stroke:#fff;stroke-width:2px;}.b{fill:#fff;}</style></defs><title>tag_cta</title><path class="a" d="M18.26,1h66a17,17,0,0,1,17,17h0a17,17,0,0,1-17,17h-66a17,17,0,0,1-17-17h0A17,17,0,0,1,18.26,1Z" transform="translate(-0.26 0)"/><path class="b" d="M23,22c-.07,0-.09-.11-.09-.22V20.18c0-.07,0-.11.11-.07a4.67,4.67,0,0,0,2.47.71c1,0,1.45-.35,1.45-.83s-.31-.75-1.24-1.15L25,18.55c-1.68-.71-2.14-1.56-2.14-2.63,0-1.47,1.12-2.65,3.29-2.65a5.06,5.06,0,0,1,2.14.36c.07,0,.08.09.08.17v1.54c0,.05,0,.12-.12.06A4.39,4.39,0,0,0,26.18,15c-1.05,0-1.42.36-1.42.81s.28.71,1.31,1.12l.51.21c1.82.75,2.32,1.61,2.32,2.72,0,1.66-1.34,2.7-3.45,2.7A5.38,5.38,0,0,1,23,22Z" transform="translate(-0.26 0)"/><path class="b" d="M35.65,20.85c0,.36,0,.65,0,1,0,0,0,.06,0,.07a7.5,7.5,0,0,1-3,.62c-1.52,0-2.77-.7-2.77-2.29S31.17,18,33,18a5.29,5.29,0,0,1,.81,0v-.09c0-.26-.16-.87-1.31-.87a4.42,4.42,0,0,0-1.81.37.08.08,0,0,1-.12-.06V16c0-.07,0-.11.09-.13a5.16,5.16,0,0,1,2.15-.43,2.58,2.58,0,0,1,2.85,2.78ZM33.8,19.44a6.74,6.74,0,0,0-.68,0c-1,0-1.37.32-1.37.81s.34.82,1.2.82a2.82,2.82,0,0,0,.85-.12Z" transform="translate(-0.26 0)"/><path class="b" d="M38.67,22.37a.17.17,0,0,1-.16-.09c-.52-1.55-1.67-5-2.23-6.6,0-.06,0-.11.09-.11h1.8a.14.14,0,0,1,.15.09c.89,3.08,1.19,4.3,1.32,4.92h0c.14-.62.49-1.85,1.45-4.92a.13.13,0,0,1,.13-.09h1.58a.09.09,0,0,1,.09.12c-.59,1.62-1.74,5.08-2.29,6.57,0,.07-.07.11-.16.11Z" transform="translate(-0.26 0)"/><path class="b" d="M45.31,19.47c.07.78.62,1.42,2,1.42A4.22,4.22,0,0,0,49,20.58s.08,0,.08.07V22a.15.15,0,0,1-.09.16,4.61,4.61,0,0,1-2.1.4A3.21,3.21,0,0,1,43.37,19a3.34,3.34,0,0,1,3.31-3.61,2.8,2.8,0,0,1,2.89,3,4.38,4.38,0,0,1-.07.91c0,.07,0,.1-.11.12s-.7,0-1.41,0Zm1.78-1.33a3.4,3.4,0,0,0,.68,0V18a1.11,1.11,0,0,0-1.16-1.08,1.29,1.29,0,0,0-1.31,1.2Z" transform="translate(-0.26 0)"/><path class="b" d="M53.55,20.4c-.1,0-.11,0-.11-.08V19.09a.31.31,0,0,1,.06-.21l3.37-5a.22.22,0,0,1,.22-.1h2c.08,0,.11,0,.11.11v5h1c.1,0,.11.05.1.11l-.19,1.35s0,.07-.12.07h-.8v1.86c0,.07,0,.11-.09.11H57.49a.1.1,0,0,1-.11-.11V20.4Zm3.83-2.52c0-1.09,0-1.93.08-2.42h0c-.36.72-1.69,2.81-2.07,3.41h2Z" transform="translate(-0.26 0)"/><path class="b" d="M61.25,18c0-2.58,1.19-4.43,3.29-4.43,2.55,0,3.24,2.3,3.24,4.43,0,2.34-.92,4.48-3.24,4.48S61.25,20.55,61.25,18Zm1.9-.05c0,1.89.47,2.9,1.39,2.9S65.88,20,65.88,18s-.46-2.82-1.37-2.82S63.15,16,63.15,18Z" transform="translate(-0.26 0)"/><path class="b" d="M73.4,16.13a2.33,2.33,0,0,1-2.3,2.5,2.2,2.2,0,0,1-2.3-2.46,2.35,2.35,0,0,1,2.32-2.57C72.68,13.6,73.4,14.67,73.4,16.13Zm-2.26,1.25c.51,0,.84-.44.84-1.25s-.33-1.29-.85-1.29-.88.4-.88,1.28C70.25,16.83,70.54,17.38,71.14,17.38Zm.77,4.91c0,.08-.1.08-.2.08h-1.2c-.05,0-.11-.07,0-.12l6-8.43a.18.18,0,0,1,.16-.09h1.19a.06.06,0,0,1,0,.1ZM79.6,20a2.34,2.34,0,0,1-2.3,2.52A2.22,2.22,0,0,1,75,20a2.34,2.34,0,0,1,2.31-2.56A2.23,2.23,0,0,1,79.6,20Zm-2.27,1.25c.51,0,.84-.42.84-1.25s-.32-1.27-.85-1.27-.88.41-.88,1.27S76.74,21.24,77.33,21.24Z" transform="translate(-0.26 0)"/></svg>