<svg xmlns="http://www.w3.org/2000/svg" viewBox="0 0 359.6 18.8"><defs><style>.a{fill:#fff;}</style></defs><title>tag_headline1</title><path class="a" d="M12.8,17.8a.52.52,0,0,1-.2.4,14.87,14.87,0,0,1-3.6.5c-5.1,0-9-3-9-8.7C0,4.7,3.6,1.1,9.4,1.1a9.91,9.91,0,0,1,3.4.4c.1,0,.2.2.2.3V4.6c0,.2-.1.2-.2.2a9.74,9.74,0,0,0-3.4-.6c-3.5,0-5.6,2.2-5.6,5.5,0,4.1,3,5.6,5.7,5.6a11.7,11.7,0,0,0,3.2-.4c.1-.1.2,0,.2.1Z"/><path class="a" d="M27.1,11.9c0,4.1-2.6,6.8-6.4,6.8-4.4,0-6.4-3.4-6.4-6.7a6.35,6.35,0,0,1,6.5-6.7C24.9,5.3,27.1,8.4,27.1,11.9Zm-9.1,0c0,2.3,1.1,3.7,2.8,3.7,1.5,0,2.6-1.3,2.6-3.7,0-2-.8-3.7-2.8-3.7-1.5.1-2.7,1.4-2.6,3.7Z"/><path class="a" d="M29.6,18.4c-.2,0-.2-.1-.2-.2V8.3c0-1-.1-2.1-.1-2.6,0-.2,0-.2.2-.2h2.8c.1,0,.2.1.3.2a3.55,3.55,0,0,1,.2,1,5.68,5.68,0,0,1,3.7-1.4,3.59,3.59,0,0,1,3.3,1.6A6.35,6.35,0,0,1,44,5.2c2.3,0,4.4,1.2,4.4,5.2v7.8a.22.22,0,0,1-.2.2H45c-.2,0-.3-.1-.3-.2V10.8c0-1.4-.5-2.4-2-2.4a3.49,3.49,0,0,0-2.2.8,7.57,7.57,0,0,1,.1,1.5v7.5c0,.1,0,.2-.2.2H37.3c-.2,0-.3-.1-.3-.2V10.7c0-1.6-.7-2.3-2-2.3a3.77,3.77,0,0,0-2.1.7v9.1c0,.1,0,.2-.2.2Z"/><path class="a" d="M54.5,13c.1,1.5,1.2,2.7,3.7,2.7a8.66,8.66,0,0,0,3.2-.6c.1-.1.2,0,.2.1v2.5c0,.2,0,.3-.2.3a9.24,9.24,0,0,1-4,.8c-4.9,0-6.6-3.4-6.6-6.6,0-3.6,2.2-6.9,6.3-6.9a5.3,5.3,0,0,1,5.5,5.6,9.15,9.15,0,0,1-.1,1.7.22.22,0,0,1-.2.2,13.68,13.68,0,0,1-2.8.2Zm3.4-2.6a5.7,5.7,0,0,0,1.3-.1v-.2a2.05,2.05,0,0,0-2.2-2,2.51,2.51,0,0,0-2.5,2.3Z"/><path class="a" d="M74.1,0c.2,0,.3,0,.3.2V5.6a7.8,7.8,0,0,1,2.2-.3,5.86,5.86,0,0,1,6.2,5.6v.6c0,4.9-3.8,7.3-7.8,7.3a14,14,0,0,1-4.1-.6c-.1-.1-.2-.2-.2-.3V.2c0-.2.1-.2.2-.2Zm1.8,8.3a7.72,7.72,0,0,0-1.5.2v7a3.4,3.4,0,0,0,1,.1,3.5,3.5,0,0,0,3.7-3.4v-.4c0-2.4-1.4-3.5-3.2-3.5Z"/><path class="a" d="M95.3,15.5v1.9a13.88,13.88,0,0,1-5.7,1.2c-2.9,0-5.3-1.3-5.3-4.3,0-2.8,2.4-4.2,5.9-4.2a7.57,7.57,0,0,1,1.5.1V10c0-.5-.3-1.6-2.5-1.6a8,8,0,0,0-3.4.7.14.14,0,0,1-.2,0h0V6.3c0-.1.1-.2.2-.3a9.68,9.68,0,0,1,4.1-.8c3.8,0,5.4,2.3,5.4,5.3Zm-3.5-2.6a5.7,5.7,0,0,0-1.3-.1c-1.8,0-2.6.6-2.6,1.5s.7,1.6,2.3,1.6a8.75,8.75,0,0,0,1.6-.2Z"/><path class="a" d="M107.4,18.1c0,.1,0,.2-.1.2a7,7,0,0,1-2.9.4c-4.2,0-6.9-2.8-6.9-6.7s2.9-6.8,7.3-6.8a9.86,9.86,0,0,1,2.4.3c.1,0,.2.1.2.3V8.5c0,.2-.1.2-.2.2a7.8,7.8,0,0,0-2.2-.3c-2.2,0-3.8,1.2-3.8,3.5,0,2.7,2,3.6,3.8,3.6a16.35,16.35,0,0,0,2.2-.2c.2-.1.2,0,.2.1Z"/><path class="a" d="M121.4,5.5c.2,0,.3.1.2.3-.8,1-3.9,4.4-4.9,5.5v.1c1.5,1.9,4,4.9,5.6,6.8.1.1,0,.2-.1.2h-4.1c-.2,0-.2-.1-.3-.2-.8-1-3-3.9-4.3-5.5v5.5c0,.2,0,.3-.2.3h-3.2a.27.27,0,0,1-.3-.3V.2c0-.1.1-.2.3-.2h3.1c.1,0,.2,0,.2.2V10.9c1.3-1.6,3.8-4.5,4.3-5.2a.52.52,0,0,1,.4-.2Z"/><path class="a" d="M135.4,18c0,.2,0,.3-.2.3a5.87,5.87,0,0,1-2.3.4c-2.3,0-3.6-1.1-3.6-3.7V8.5h-1.6c-.2,0-.2-.1-.2-.2V5.7c0-.2,0-.2.2-.2h1.6a15.53,15.53,0,0,1,.3-3.1.22.22,0,0,1,.2-.2l3-.4c.1,0,.2,0,.2.2-.1.8-.1,2.3-.1,3.6h2.4c.2,0,.2,0,.2.2V8.4a.22.22,0,0,1-.2.2h-2.4v5.6c0,1.1.3,1.7,1.4,1.7a2.77,2.77,0,0,0,.9-.1c.1,0,.2,0,.2.2Z"/><path class="a" d="M149.5,11.9c0,4.1-2.6,6.8-6.4,6.8-4.4,0-6.4-3.4-6.4-6.7a6.35,6.35,0,0,1,6.5-6.7C147.3,5.3,149.5,8.4,149.5,11.9Zm-9.1,0c0,2.3,1.1,3.7,2.8,3.7,1.5,0,2.6-1.3,2.6-3.7,0-2-.8-3.7-2.8-3.7-1.5.1-2.6,1.4-2.6,3.7Z"/><path class="a" d="M163.9,18c0,.2,0,.3-.2.3a5.87,5.87,0,0,1-2.3.4c-2.3,0-3.6-1.1-3.6-3.7V8.5h-1.6c-.2,0-.2-.1-.2-.2V5.7c0-.2.1-.2.2-.2h1.6a15.53,15.53,0,0,1,.3-3.1.22.22,0,0,1,.2-.2l3-.4c.1,0,.2,0,.2.2-.1.8-.1,2.3-.1,3.6h2.4c.2,0,.2,0,.2.2V8.4a.22.22,0,0,1-.2.2h-2.4v5.6c0,1.1.3,1.7,1.4,1.7a2.77,2.77,0,0,0,.9-.1c.1,0,.2,0,.2.2v2Z"/><path class="a" d="M169.7,18.2a.22.22,0,0,1-.2.2h-3.2c-.2,0-.2-.1-.2-.2V.2c0-.1,0-.2.2-.2h3.2c.2,0,.2,0,.2.2V6.3a6,6,0,0,1,3.4-1.1c2,0,4.4,1,4.4,5.2v7.7c0,.2-.1.2-.2.2h-3.1c-.2,0-.3-.1-.3-.2V10.8c0-1.6-.7-2.4-2-2.4a3.7,3.7,0,0,0-2.1.6v9.2Z"/><path class="a" d="M183.6,13c.1,1.5,1.2,2.7,3.7,2.7a8.66,8.66,0,0,0,3.2-.6c.1-.1.1,0,.1.1v2.5c0,.2,0,.3-.2.3a9.24,9.24,0,0,1-4,.8c-4.9,0-6.6-3.4-6.6-6.6,0-3.6,2.2-6.9,6.3-6.9s5.5,3,5.5,5.6a9.15,9.15,0,0,1-.1,1.7.22.22,0,0,1-.2.2,24.37,24.37,0,0,1-2.7.1Zm3.3-2.6a5.7,5.7,0,0,0,1.3-.1v-.2a2.05,2.05,0,0,0-2.2-2,2.51,2.51,0,0,0-2.5,2.3Z"/><path class="a" d="M212,17.8c0,.2,0,.3-.2.4a14.87,14.87,0,0,1-3.6.5c-5,0-9-3-9-8.7,0-5.3,3.6-8.9,9.4-8.9a9.91,9.91,0,0,1,3.4.4c.1,0,.2.2.2.3V4.6c0,.2-.1.2-.2.2a9.74,9.74,0,0,0-3.4-.6c-3.5,0-5.6,2.2-5.6,5.5,0,4.1,3,5.6,5.7,5.6a11.7,11.7,0,0,0,3.2-.4c.1-.1.2,0,.2.1Z"/><path class="a" d="M217.2,5.5c.1,0,.3.1.3.2a4,4,0,0,1,.3,1.5,5.33,5.33,0,0,1,4.1-1.9c.2,0,.2,0,.2.2V8.7c0,.1,0,.2-.2.2A6,6,0,0,0,218,10v8.3a.22.22,0,0,1-.2.2h-3.1c-.2,0-.3-.1-.3-.2v-9c0-1.1,0-2.6-.1-3.5,0-.1,0-.2.1-.2Z"/><path class="a" d="M227,13c.1,1.5,1.2,2.7,3.7,2.7a8.66,8.66,0,0,0,3.2-.6c.1-.1.1,0,.1.1v2.5c0,.2,0,.3-.2.3a9.24,9.24,0,0,1-4,.8c-4.9,0-6.6-3.4-6.6-6.6,0-3.6,2.2-6.9,6.3-6.9a5.3,5.3,0,0,1,5.5,5.6,9.7,9.7,0,0,1-.1,1.7.22.22,0,0,1-.2.2,24.37,24.37,0,0,1-2.7.1Zm3.4-2.6a5.7,5.7,0,0,0,1.3-.1v-.2a2.05,2.05,0,0,0-2.2-2,2.51,2.51,0,0,0-2.5,2.3Z"/><path class="a" d="M247.5,15.5v1.9a13.88,13.88,0,0,1-5.7,1.2c-2.9,0-5.3-1.3-5.3-4.3,0-2.8,2.4-4.2,5.9-4.2a7.57,7.57,0,0,1,1.5.1V10c0-.5-.3-1.6-2.5-1.6a8,8,0,0,0-3.4.7.14.14,0,0,1-.2,0h0V6.3c0-.1,0-.2.2-.3a9.68,9.68,0,0,1,4.1-.8c3.7,0,5.4,2.3,5.4,5.3Zm-3.6-2.6a5.7,5.7,0,0,0-1.3-.1c-1.8,0-2.6.6-2.6,1.5s.7,1.6,2.3,1.6a8.75,8.75,0,0,0,1.6-.2Z"/><path class="a" d="M256.8,18c0,.2,0,.3-.2.3a5.87,5.87,0,0,1-2.3.4c-2.3,0-3.6-1.1-3.6-3.7V8.5h-1.6c-.2,0-.2-.1-.2-.2V5.7c0-.2,0-.2.2-.2h1.6a15.53,15.53,0,0,1,.3-3.1.22.22,0,0,1,.2-.2l3-.4c.1,0,.2,0,.2.2-.1.8-.1,2.3-.1,3.6h2.4c.2,0,.2,0,.2.2V8.4c0,.1,0,.2-.2.2h-2.4v5.6c0,1.1.3,1.7,1.4,1.7a2.77,2.77,0,0,0,.9-.1c.1,0,.2,0,.2.2v2Z"/><path class="a" d="M258.9,2.1a2,2,0,0,1,2-2,1.89,1.89,0,0,1,2,1.8v.2a1.9,1.9,0,0,1-1.8,2h-.2a1.89,1.89,0,0,1-2-1.8Zm.2,3.6c0-.1,0-.2.2-.2h3.2c.1,0,.2,0,.2.2V18.2c0,.2,0,.2-.2.2h-3.2c-.2,0-.3-.1-.3-.2Z"/><path class="a" d="M268.9,18.4c-.1,0-.3-.1-.3-.2-1-2.9-3.2-9.5-4.2-12.5,0-.1,0-.2.1-.2H268c.2,0,.2,0,.3.2,1.7,5.9,2.3,8.2,2.5,9.3h.1c.3-1.2.9-3.5,2.8-9.3a.22.22,0,0,1,.2-.2h3a.22.22,0,0,1,.2.2v.1c-1.1,3.1-3.3,9.6-4.3,12.5-.1.1-.1.2-.3.2Z"/><path class="a" d="M281.5,13c.1,1.5,1.2,2.7,3.7,2.7a8.66,8.66,0,0,0,3.2-.6c.1-.1.1,0,.1.1v2.5c0,.2-.1.3-.2.3a9.24,9.24,0,0,1-4,.8c-4.9,0-6.6-3.4-6.6-6.6,0-3.6,2.2-6.9,6.3-6.9s5.5,3,5.5,5.6a9.15,9.15,0,0,1-.1,1.7.22.22,0,0,1-.2.2,24.37,24.37,0,0,1-2.7.1Zm3.3-2.6a5.7,5.7,0,0,0,1.3-.1v-.2a2.05,2.05,0,0,0-2.2-2,2.51,2.51,0,0,0-2.5,2.3Z"/><path class="a" d="M309.9,17.8a.52.52,0,0,1-.2.4,14.87,14.87,0,0,1-3.6.5c-5,0-9-3-9-8.7,0-5.3,3.6-8.9,9.4-8.9a9.91,9.91,0,0,1,3.4.4c.1,0,.2.2.2.3V4.6c0,.2-.1.2-.2.2a9.74,9.74,0,0,0-3.4-.6c-3.5,0-5.6,2.2-5.6,5.5,0,4.1,3,5.6,5.7,5.6a11.7,11.7,0,0,0,3.2-.4c.1-.1.2,0,.2.1Z"/><path class="a" d="M312.2.2c0-.1.1-.2.3-.2h3.1c.2,0,.3.1.3.2V14.8c0,.7.2,1,.9,1h.5c.1,0,.1.1.1.2v2.2c0,.2,0,.3-.2.3a3,3,0,0,1-1.6.2c-1.9,0-3.3-.7-3.3-3.6V.2Z"/><path class="a" d="M331.4,11.9c0,4.1-2.6,6.8-6.4,6.8-4.5,0-6.4-3.4-6.4-6.7a6.35,6.35,0,0,1,6.5-6.7C329.3,5.3,331.4,8.4,331.4,11.9Zm-9.1,0c0,2.3,1.1,3.7,2.8,3.7,1.5,0,2.6-1.3,2.6-3.7,0-2-.8-3.7-2.8-3.7-1.5.1-2.6,1.4-2.6,3.7Z"/><path class="a" d="M345,15.5a24.52,24.52,0,0,0,.2,2.7.22.22,0,0,1-.2.2h-2.8c-.2,0-.3-.1-.3-.2-.1-.3-.1-.5-.2-.8a5.88,5.88,0,0,1-3.6,1.3c-2.6,0-4.4-1.4-4.4-5v-8c0-.2,0-.2.2-.2h3.2c.2,0,.2,0,.2.2v7.5c0,1.4.6,2.3,2,2.3a3,3,0,0,0,2-.8v-9c0-.2.1-.2.3-.2h3.1c.2,0,.2,0,.2.2Z"/><path class="a" d="M347.4,12.1c0-3.7,2.8-6.8,7.5-6.8h.9V.2c0-.1,0-.2.1-.2h3.4a.22.22,0,0,1,.2.2V15.6a12.1,12.1,0,0,0,.1,1.9c0,.1,0,.2-.2.2a12.88,12.88,0,0,1-5.1,1C350.3,18.7,347.4,16.5,347.4,12.1Zm8.4-3.7a1.73,1.73,0,0,0-1-.1,3.47,3.47,0,0,0-3.7,3.2v.4c0,2.6,1.5,3.7,3.5,3.7a4.87,4.87,0,0,0,1.2-.1Z"/></svg>