<svg id="Layer_1" data-name="Layer 1" xmlns="http://www.w3.org/2000/svg" viewBox="0 0 258.33 209.44"><defs><style>.cls-1{fill:#fff;}.cls-2{fill:none;}</style></defs><path class="cls-1" d="M19.33,169.43H30.07v25.71Z" transform="translate(0 0)"/><path class="cls-1" d="M11.77,169.43H1v25.71Z" transform="translate(0 0)"/><path class="cls-1" d="M15.55,178.9l6.84,16.24H17.91L15.86,190h-5Z" transform="translate(0 0)"/><path class="cls-1" d="M4.76,205.43c-.21-1.05-.58-2.62-.72-3.64H4c-.15,1-.42,2.38-.66,3.64ZM3.06,207l-.48,2.24c0,.08,0,.1-.11.1H1.1c-.09,0-.12,0-.1-.15l1.88-8.1a3,3,0,0,0,.05-.79.08.08,0,0,1,.07-.08H5c.07,0,.1,0,.12.1l2.19,8.9c0,.08,0,.11-.09.11H5.67a.1.1,0,0,1-.11-.08h0L5.06,207Z" transform="translate(0 0)"/><path class="cls-1" d="M10.9,203.68a1.61,1.61,0,0,0-.31,0c-.8,0-1.39.72-1.39,2.14s.59,2.12,1.37,2.12h.33Zm-3.38,2.15c0-2.06,1.21-3.66,3.15-3.66h.23v-2.43s0-.07.06-.08H12.5c.06,0,.07,0,.07.08v8.15a7.53,7.53,0,0,0,0,1,.11.11,0,0,1-.06.1,4.73,4.73,0,0,1-2,.5C8.72,209.43,7.52,208.26,7.52,205.83Z" transform="translate(0 0)"/><path class="cls-1" d="M15.13,205.78c0,1.31.29,2.18.92,2.18s.91-.74.91-2.17-.23-2.15-.9-2.15S15.13,204.31,15.13,205.78Zm3.49,0c0,2.23-.93,3.65-2.57,3.65-1.85,0-2.58-1.61-2.58-3.67s.94-3.6,2.61-3.6,2.55,1.34,2.55,3.61Z" transform="translate(0 0)"/><path class="cls-1" d="M21.7,203.67a1.79,1.79,0,0,0-.51.07v4.18a.76.76,0,0,0,.3,0c.64,0,1.39-.65,1.4-2.4C22.9,204.16,22.35,203.67,21.7,203.67Zm-.58-4c.06,0,.07,0,.07.09v2.5a3.22,3.22,0,0,1,.76-.09c1.48,0,2.59,1.14,2.59,3.33,0,2.56-1.45,3.94-3.28,3.94a5.42,5.42,0,0,1-1.65-.26.12.12,0,0,1-.08-.11v-9.31a.07.07,0,0,1,0-.08h1.55Z" transform="translate(0 0)"/><path class="cls-1" d="M28,204.86h.42a.38.38,0,0,0,0-.15c0-.54-.16-1.1-.75-1.1s-.79.58-.86,1.27Zm-1.2,1.33c0,1.09.41,1.75,1.55,1.75a2.66,2.66,0,0,0,1.08-.2c.07,0,.11,0,.11.07V209c0,.1,0,.16-.1.19a3.06,3.06,0,0,1-1.4.25c-2.07,0-2.88-1.52-2.88-3.52s.93-3.74,2.59-3.74S30,203.71,30,205A9.55,9.55,0,0,1,30,206a.14.14,0,0,1-.13.11H28.53Z" transform="translate(0 0)"/><rect class="cls-2" x="1" y="144.43" width="54" height="25"/><rect class="cls-2" x="30" y="144.43" width="25" height="65"/><path class="cls-1" d="M13.7,17.86c0,.18,0,.31-.21.36a11.31,11.31,0,0,1-3.61.47c-5,0-9-3-9-8.68,0-5.28,3.64-8.87,9.39-8.87a8.64,8.64,0,0,1,3.38.44.3.3,0,0,1,.18.31V4.73c0,.23-.13.23-.24.18a8,8,0,0,0-3.38-.57C6.73,4.34,4.6,6.5,4.6,9.88c0,4,3,5.59,5.69,5.59a9.48,9.48,0,0,0,3.17-.42c.13-.05.21,0,.21.13Z" transform="translate(0 0)"/><path class="cls-1" d="M28,11.9c0,4.09-2.66,6.79-6.4,6.79-4.45,0-6.42-3.35-6.42-6.71,0-3.69,2.47-6.73,6.47-6.73C25.82,5.25,28,8.43,28,11.9Zm-9.16,0c0,2.29,1.07,3.74,2.81,3.74,1.51,0,2.65-1.3,2.65-3.69,0-2-.83-3.72-2.8-3.72-1.5,0-2.68,1.39-2.68,3.7Z" transform="translate(0 0)"/><path class="cls-1" d="M30.55,18.43c-.18,0-.23-.08-.23-.23V8.32c0-1-.08-2.08-.11-2.58,0-.15.05-.23.21-.23h2.76a.37.37,0,0,1,.31.15,3.37,3.37,0,0,1,.15,1,5.66,5.66,0,0,1,3.75-1.38,3.71,3.71,0,0,1,3.33,1.66,6.32,6.32,0,0,1,4.21-1.66c2.26,0,4.44,1.22,4.44,5.15v7.8a.2.2,0,0,1-.16.23H46c-.18,0-.26-.08-.26-.23V10.76c0-1.35-.47-2.39-2-2.39a3.52,3.52,0,0,0-2.21.83,10.13,10.13,0,0,1,.08,1.46V18.2c0,.13,0,.23-.21.23H38.3c-.16,0-.26-.05-.26-.23V10.66c0-1.56-.73-2.27-2-2.27a3.56,3.56,0,0,0-2.13.73v9.1c0,.13,0,.21-.23.21Z" transform="translate(0 0)"/><path class="cls-1" d="M52.65,18.43c-.18,0-.23-.08-.23-.23V8.32c0-1-.08-2.08-.11-2.58,0-.15,0-.23.21-.23h2.76a.37.37,0,0,1,.31.15,3.37,3.37,0,0,1,.15,1,5.66,5.66,0,0,1,3.75-1.38,3.71,3.71,0,0,1,3.33,1.66A6.32,6.32,0,0,1,67,5.25c2.26,0,4.44,1.22,4.44,5.15v7.8a.2.2,0,0,1-.16.23H68.12c-.18,0-.26-.08-.26-.23V10.76c0-1.35-.47-2.39-2-2.39a3.52,3.52,0,0,0-2.21.83,10.13,10.13,0,0,1,.08,1.46V18.2c0,.13,0,.23-.21.23H60.4c-.16,0-.26-.05-.26-.23V10.66c0-1.56-.73-2.27-2-2.27A3.56,3.56,0,0,0,56,9.12v9.1c0,.13,0,.21-.23.21Z" transform="translate(0 0)"/><path class="cls-1" d="M77.51,12.92c.13,1.48,1.17,2.7,3.71,2.7a8,8,0,0,0,3.2-.6c.08,0,.16,0,.16.13v2.47c0,.19,0,.26-.18.32a8.75,8.75,0,0,1-4,.75c-4.89,0-6.61-3.35-6.61-6.58,0-3.59,2.21-6.86,6.3-6.86,3.92,0,5.48,3,5.48,5.61a7.9,7.9,0,0,1-.13,1.75.22.22,0,0,1-.21.2,21.68,21.68,0,0,1-2.67.11Zm3.38-2.49a7.08,7.08,0,0,0,1.3-.06v-.18A2.12,2.12,0,0,0,80,8.11h0a2.47,2.47,0,0,0-2.52,2.32Z" transform="translate(0 0)"/><path class="cls-1" d="M87.91,8.52c0-.88-.06-2.23-.11-2.8,0-.13,0-.21.18-.21h2.73a.32.32,0,0,1,.34.21,3.11,3.11,0,0,1,.21.85A5.74,5.74,0,0,1,95,5.25c2,0,4.37,1,4.37,5.22V18.2c0,.15,0,.23-.23.23H96c-.19,0-.26-.08-.26-.23V10.79c0-1.56-.68-2.4-2-2.4a3.17,3.17,0,0,0-2.16.81v9a.19.19,0,0,1-.19.21H88.14c-.18,0-.23-.08-.23-.23Z" transform="translate(0 0)"/><path class="cls-1" d="M108.81,18c0,.15,0,.28-.18.34a6.55,6.55,0,0,1-2.32.36c-2.26,0-3.58-1.12-3.58-3.72V8.52h-1.56c-.16,0-.21-.07-.21-.23V5.74c0-.18.05-.23.23-.23h1.56A30.16,30.16,0,0,1,103,2.36a.29.29,0,0,1,.24-.23l3-.39c.13,0,.21,0,.21.15-.08.81-.13,2.34-.13,3.62h2.39c.15,0,.21,0,.21.21V8.34c0,.13-.06.16-.19.18h-2.44v5.57c0,1.14.34,1.66,1.4,1.66a5.27,5.27,0,0,0,.89-.1c.1,0,.18,0,.18.18Z" transform="translate(0 0)"/><path class="cls-1" d="M111,16.51a2.16,2.16,0,1,1,4.32,0,2,2,0,0,1-1.8,2.18h-.36A2,2,0,0,1,111,16.76,1,1,0,0,1,111,16.51Z" transform="translate(0 0)"/><path class="cls-1" d="M135,18.2c0,.2-.07.23-.25.23H124.12c-.15,0-.21-.08-.21-.23V1.63c0-.15.06-.23.21-.23h10.27c.21,0,.26,0,.29.21L135,4.43c0,.13,0,.23-.18.23h-7.25V8.13h6.63a.19.19,0,0,1,.21.17v2.9c0,.16-.11.18-.21.18h-6.63v3.8h7.67c.21,0,.23.08.21.23Z" transform="translate(0 0)"/><path class="cls-1" d="M136.58,12.09c0-3.72,2.78-6.84,7.54-6.84H145V.18a.17.17,0,0,1,.16-.18h3.3c.13,0,.16,0,.16.15V15.52a17.28,17.28,0,0,0,.1,1.9c0,.13,0,.18-.18.23a13.2,13.2,0,0,1-5.12,1C139.54,18.69,136.58,16.51,136.58,12.09ZM145,8.43a2.81,2.81,0,0,0-1-.13,3.49,3.49,0,0,0-3.72,3.23,2.8,2.8,0,0,0,0,.41c0,2.58,1.49,3.7,3.46,3.7a3.59,3.59,0,0,0,1.26-.21Z" transform="translate(0 0)"/><path class="cls-1" d="M151.42,2.1a2,2,0,0,1,2-2,1.88,1.88,0,0,1,2,1.75,1,1,0,0,1,0,.25,2,2,0,0,1-4,0Zm.18,3.62a.19.19,0,0,1,.17-.21H155c.16,0,.21,0,.21.21V18.2c0,.15,0,.23-.24.23h-3.12c-.18,0-.26-.08-.26-.23Z" transform="translate(0 0)"/><path class="cls-1" d="M165,18c0,.15,0,.28-.18.34a6.46,6.46,0,0,1-2.31.36c-2.26,0-3.59-1.12-3.59-3.72V8.52h-1.56c-.16,0-.21-.07-.21-.23V5.74c0-.18,0-.23.24-.23H159a27.68,27.68,0,0,1,.26-3.15.26.26,0,0,1,.23-.23l3-.39c.13,0,.21,0,.21.15-.08.81-.13,2.34-.13,3.62h2.39c.16,0,.21,0,.21.21V8.34c0,.13-.05.16-.18.18h-2.45v5.57c0,1.14.34,1.66,1.41,1.66a5.16,5.16,0,0,0,.88-.1c.11,0,.18,0,.18.18Z" transform="translate(0 0)"/><path class="cls-1" d="M167.23,16.51a2.16,2.16,0,1,1,4.31-.29,1.4,1.4,0,0,1,0,.29,2,2,0,0,1-1.8,2.18h-.35a2,2,0,0,1-2.16-1.93A1,1,0,0,1,167.23,16.51Z" transform="translate(0 0)"/><path class="cls-1" d="M191.15,18.2c0,.2-.08.23-.26.23H180.31c-.16,0-.21-.08-.21-.23V1.63c0-.15.05-.23.21-.23h10.27c.21,0,.26,0,.28.21l.29,2.81c0,.13,0,.23-.18.23h-7.26V8.13h6.63a.19.19,0,0,1,.21.17v2.9c0,.16-.1.18-.21.18h-6.63v3.8h7.67c.21,0,.24.08.21.23Z" transform="translate(0 0)"/><path class="cls-1" d="M193.33,13.28c-.13,0-.18-.08-.18-.21V10.34a.16.16,0,0,1,.14-.18h6.31c.1,0,.15,0,.15.18V13.1c0,.16-.05.18-.13.18Z" transform="translate(0 0)"/><path class="cls-1" d="M206.7,8.13c-1.23,0-1.62.45-1.62.89s.34.78,1.85,1.35c3.15,1.14,4.13,2.37,4.13,4.21,0,2.47-1.92,4.11-5.35,4.11a8.41,8.41,0,0,1-3.77-.73.31.31,0,0,1-.18-.28V14.87c0-.16.1-.24.2-.16a7.36,7.36,0,0,0,3.83,1c1.22,0,1.76-.34,1.76-.88s-.44-.86-2-1.43c-2.94-1.09-3.9-2.34-3.9-4.21s1.64-4,5.07-4a8.65,8.65,0,0,1,3.38.52.34.34,0,0,1,.18.34v2.6c0,.15-.1.26-.26.18A7.92,7.92,0,0,0,206.7,8.13Z" transform="translate(0 0)"/><path class="cls-1" d="M213.07,2.1A1.94,1.94,0,0,1,215,.1h.12a1.89,1.89,0,0,1,2,1.77V2.1a1.92,1.92,0,0,1-1.84,2h-.16a1.89,1.89,0,0,1-2-1.77Zm.18,3.62c0-.13.05-.21.21-.21h3.19c.16,0,.21,0,.21.21V18.2c0,.15,0,.23-.23.23h-3.12c-.18,0-.26-.08-.26-.23Z" transform="translate(0 0)"/><path class="cls-1" d="M226.59,15.43c3.71.19,5.09,1.69,5.09,3.75,0,2.7-2.65,4.89-6.84,4.89-4.34,0-6.24-2.16-6.24-4,0-.84.68-1.88,2.4-3.31a3.23,3.23,0,0,1-.55-2,3.54,3.54,0,0,1,.47-1.71,3.74,3.74,0,0,1-1.8-3.36c0-2.49,1.95-4.44,5.33-4.44a14.62,14.62,0,0,1,2.47.21,2.68,2.68,0,0,0,.63,0h3.56c.13,0,.18,0,.18.18V8.11c0,.13,0,.18-.18.18-.39,0-1.25-.08-1.79-.13a3.42,3.42,0,0,1,.39,1.69c0,2.76-2.27,4.13-5.15,4.13a8.85,8.85,0,0,1-.89-.05,1.38,1.38,0,0,0,0,.7,1.33,1.33,0,0,0,.29.68Zm-3.7,2.92a2.51,2.51,0,0,0-1,1.37c0,.81,1.14,1.69,3.17,1.69,2.31,0,3.3-.8,3.3-1.66s-1.14-1.22-2.6-1.3Zm-.26-8.69a1.7,1.7,0,0,0,1.6,1.78h.25a1.59,1.59,0,0,0,1.78-1.37,1.71,1.71,0,0,0,0-.32,1.82,1.82,0,1,0-3.64-.08Z" transform="translate(0 0)"/><path class="cls-1" d="M233.29,8.52a23.44,23.44,0,0,0-.1-2.8c0-.13,0-.21.18-.21h2.73a.32.32,0,0,1,.34.21,3.11,3.11,0,0,1,.21.85,5.72,5.72,0,0,1,3.69-1.32c2,0,4.37,1,4.37,5.22V18.2c0,.15-.05.23-.24.23h-3.12c-.18,0-.26-.08-.26-.23V10.79c0-1.56-.67-2.4-2-2.4a3.17,3.17,0,0,0-2.16.81v9c0,.13-.08.21-.24.21h-3.14c-.18,0-.24-.08-.24-.23Z" transform="translate(0 0)"/><path class="cls-1" d="M247.15,16.51a2.16,2.16,0,1,1,4.32,0,2,2,0,0,1-1.8,2.18h-.36a2,2,0,0,1-2.16-1.93A1,1,0,0,1,247.15,16.51Z" transform="translate(0 0)"/><path class="cls-1" d="M2.08,48.43c-.16,0-.21,0-.21-.23V31.69c0-.14,0-.26.18-.26,2.34-.06,3.33-.08,5.44-.08,4.31,0,6.73,1.84,6.73,5.2A4.87,4.87,0,0,1,11,41.12c.86,1.17,3.8,5.59,4.6,7,.08.15.11.31-.07.31h-3.8c-.24,0-.32,0-.37-.16C10.61,47.13,9,44.35,7.9,42.58c-.18-.31-.31-.44-.59-.44H5.41v6.08a.19.19,0,0,1-.17.21H2.08Zm5.33-9.36c1.95,0,3.2-.78,3.2-2.31s-1.3-2.27-3.23-2.27a17.86,17.86,0,0,0-2,.06v4.52Z" transform="translate(0 0)"/><path class="cls-1" d="M19.63,42.92c.13,1.48,1.17,2.7,3.72,2.7a8,8,0,0,0,3.2-.6c.07-.05.15,0,.15.13v2.47c0,.19-.05.26-.18.32a8.75,8.75,0,0,1-4,.75c-4.89,0-6.6-3.35-6.6-6.58,0-3.59,2.21-6.86,6.29-6.86,3.93,0,5.49,3,5.49,5.61a9.32,9.32,0,0,1-.13,1.75.22.22,0,0,1-.21.2,21.84,21.84,0,0,1-2.68.11ZM23,40.43a7.08,7.08,0,0,0,1.3-.06v-.18a2.11,2.11,0,0,0-2.21-2,2.47,2.47,0,0,0-2.49,2.24Z" transform="translate(0 0)"/><path class="cls-1" d="M30,38.52c0-.88-.05-2.23-.1-2.8,0-.13,0-.21.18-.21h2.73a.32.32,0,0,1,.34.21,3.51,3.51,0,0,1,.2.85,5.74,5.74,0,0,1,3.7-1.32c2,0,4.36,1,4.36,5.22V48.2c0,.15,0,.23-.23.23H38.09c-.18,0-.26-.08-.26-.23V40.79c0-1.56-.68-2.4-2-2.4a3.17,3.17,0,0,0-2.16.81v9c0,.13-.07.21-.23.21H30.26c-.18,0-.23-.08-.23-.23Z" transform="translate(0 0)"/><path class="cls-1" d="M47.48,42.92c.13,1.48,1.17,2.7,3.71,2.7a8,8,0,0,0,3.2-.6c.08-.05.16,0,.16.13v2.47c0,.19,0,.26-.18.32a8.75,8.75,0,0,1-4,.75c-4.89,0-6.61-3.35-6.61-6.58,0-3.59,2.21-6.86,6.3-6.86,3.92,0,5.48,3,5.48,5.61a7.9,7.9,0,0,1-.13,1.75.22.22,0,0,1-.21.2,21.68,21.68,0,0,1-2.67.11Zm3.38-2.49a7.08,7.08,0,0,0,1.3-.06v-.18a2.12,2.12,0,0,0-2.21-2,2.47,2.47,0,0,0-2.5,2.24Z" transform="translate(0 0)"/><path class="cls-1" d="M68.69,48.43a.27.27,0,0,1-.31-.22h0c-1.3-5.31-1.72-7.7-2-9h0c-.65,2.86-1.17,5-2.26,9-.06.18-.13.23-.29.23H60.58c-.26,0-.31,0-.37-.23L56.83,35.74c0-.13,0-.23.21-.23h3.3c.16,0,.21.05.24.18,1.38,5.62,1.74,8.11,1.92,9.2h.06c.2-.93.62-3.38,2.13-9.15,0-.15,0-.23.23-.23h3.43a.18.18,0,0,1,.21.15v0C69.94,41.44,70.3,44,70.49,45h.05c.36-1.69.75-4.5,2-9.31a.22.22,0,0,1,.23-.18h3a.14.14,0,0,1,.16.14.17.17,0,0,1,0,.07L72.25,48.2c0,.18-.07.23-.31.23Z" transform="translate(0 0)"/><path class="cls-1" d="M86.86,44.37l-1.24,3.85a.29.29,0,0,1-.29.21h-3c-.18,0-.23-.1-.2-.26l5.2-15a5,5,0,0,0,.26-1.59.17.17,0,0,1,.15-.18H91.9c.13,0,.18,0,.21.15L98,48.2c.06.13,0,.23-.13.23H94.48a.26.26,0,0,1-.28-.18l-1.33-3.88Zm5-3.25c-.52-1.71-1.56-4.86-2.06-6.7h0c-.42,1.74-1.35,4.6-2,6.7Z" transform="translate(0 0)"/><path class="cls-1" d="M108.68,48.07c0,.13,0,.18-.13.2a8,8,0,0,1-2.91.42c-4.22,0-6.87-2.83-6.87-6.66s2.94-6.78,7.36-6.78a7.16,7.16,0,0,1,2.39.28c.13.06.16.13.16.29V38.5c0,.18-.1.21-.2.18a6.53,6.53,0,0,0-2.19-.31c-2.18,0-3.77,1.19-3.77,3.53,0,2.71,2,3.59,3.82,3.59a8.72,8.72,0,0,0,2.16-.23c.16,0,.21,0,.21.1Z" transform="translate(0 0)"/><path class="cls-1" d="M113.75,35.51a.29.29,0,0,1,.31.23,5.19,5.19,0,0,1,.29,1.46,5.39,5.39,0,0,1,4.13-2c.16,0,.21,0,.21.21V38.6c0,.13,0,.19-.23.19a5.34,5.34,0,0,0-3.93,1.11v8.27c0,.16,0,.21-.23.21h-3.12c-.21,0-.26-.08-.26-.23v-9a30.36,30.36,0,0,0-.13-3.54c0-.13,0-.18.15-.18Z" transform="translate(0 0)"/><path class="cls-1" d="M132.65,41.9c0,4.09-2.65,6.79-6.4,6.79-4.44,0-6.42-3.35-6.42-6.71,0-3.69,2.47-6.73,6.48-6.73C130.49,35.25,132.65,38.43,132.65,41.9Zm-9.15,0c0,2.29,1.06,3.74,2.81,3.74,1.5,0,2.65-1.3,2.65-3.69,0-2-.83-3.72-2.81-3.72-1.51,0-2.65,1.39-2.65,3.7Z" transform="translate(0 0)"/><path class="cls-1" d="M138.34,30c.21,0,.26,0,.26.2v5.33a8.49,8.49,0,0,1,2.19-.28A6,6,0,0,1,147,41v.4c0,4.86-3.85,7.25-7.8,7.25a13.44,13.44,0,0,1-4.08-.6.29.29,0,0,1-.16-.26V30.18c0-.13,0-.18.18-.18Zm1.8,8.32a5.71,5.71,0,0,0-1.54.2v7a3.74,3.74,0,0,0,1,.1,3.59,3.59,0,0,0,3.78-3.37,3.13,3.13,0,0,0,0-.53C143.34,39.43,142,38.32,140.14,38.32Z" transform="translate(0 0)"/><path class="cls-1" d="M159.51,45.54c0,.68,0,1.23.05,1.85,0,0,0,.1-.05.13a14.35,14.35,0,0,1-5.67,1.17c-2.89,0-5.25-1.33-5.25-4.34,0-2.76,2.42-4.21,5.87-4.21a13.19,13.19,0,0,1,1.54,0V40c0-.5-.31-1.64-2.5-1.64a8.42,8.42,0,0,0-3.43.7.16.16,0,0,1-.21-.05.19.19,0,0,1,0-.08V36.31a.23.23,0,0,1,.18-.26,9.87,9.87,0,0,1,4.08-.8c3.74,0,5.41,2.31,5.41,5.28ZM156,42.87a8.11,8.11,0,0,0-1.3-.08c-1.85,0-2.6.6-2.6,1.53s.65,1.56,2.29,1.56a5.45,5.45,0,0,0,1.61-.23Z" transform="translate(0 0)"/><path class="cls-1" d="M168.87,48c0,.15,0,.28-.18.34a6.55,6.55,0,0,1-2.32.36c-2.26,0-3.59-1.12-3.59-3.72V38.52h-1.56c-.15,0-.2-.07-.2-.23V35.74c0-.18,0-.23.23-.23h1.56a30.17,30.17,0,0,1,.26-3.15.28.28,0,0,1,.23-.23l3-.39c.13,0,.2,0,.2.15-.07.81-.13,2.34-.13,3.62h2.4c.15,0,.2.05.2.21v2.62c0,.13-.05.16-.18.18H166.4v5.57c0,1.14.34,1.66,1.4,1.66a5.27,5.27,0,0,0,.89-.1c.1,0,.18,0,.18.18Z" transform="translate(0 0)"/><path class="cls-1" d="M177.19,31.63c0-.15,0-.2.15-.2,1.07,0,3.12-.08,5.1-.08,5.25,0,7.07,2.91,7.07,5.74,0,4.22-3.25,6-7.25,6h-1.48v5.12a.19.19,0,0,1-.17.21h-3.24c-.13,0-.18-.08-.18-.21Zm3.59,8.27h1.45c2.06,0,3.69-.63,3.69-2.76,0-1.64-1.12-2.68-3.38-2.68a12,12,0,0,0-1.76.06Z" transform="translate(0 0)"/><path class="cls-1" d="M194.53,35.51a.29.29,0,0,1,.31.23,5.19,5.19,0,0,1,.29,1.46,5.39,5.39,0,0,1,4.13-2c.16,0,.21,0,.21.21V38.6c0,.13-.05.19-.23.19a5.38,5.38,0,0,0-3.93,1.11v8.27c0,.16-.05.21-.23.21H192c-.21,0-.26-.08-.26-.23v-9a30.36,30.36,0,0,0-.13-3.54c0-.13,0-.18.16-.18Z" transform="translate(0 0)"/><path class="cls-1" d="M213.43,41.9c0,4.09-2.65,6.79-6.4,6.79-4.44,0-6.42-3.35-6.42-6.71,0-3.69,2.47-6.73,6.48-6.73C211.27,35.25,213.43,38.43,213.43,41.9Zm-9.15,0c0,2.29,1.06,3.74,2.81,3.74,1.5,0,2.65-1.3,2.65-3.69,0-2-.83-3.72-2.81-3.72-1.51,0-2.65,1.39-2.65,3.7Z" transform="translate(0 0)"/><path class="cls-1" d="M222,31.63c0-.13,0-.18.19-.2.78,0,2.75-.08,5.07-.08,6.21,0,9.25,3.48,9.25,8.29,0,6.22-4.78,8.84-9.2,8.84h-5.15c-.1,0-.16-.08-.16-.26Zm3.62,13.68h1.53c3.41,0,5.64-2,5.64-5.67s-2.23-5.2-5.56-5.2h-1.61Z" transform="translate(0 0)"/><path class="cls-1" d="M251.34,47.86c0,.18-.05.31-.21.36a11.31,11.31,0,0,1-3.61.47c-5.05,0-9-3-9-8.68,0-5.28,3.65-8.87,9.39-8.87a8.64,8.64,0,0,1,3.38.44.3.3,0,0,1,.18.31v2.84c0,.23-.13.23-.23.18a8.14,8.14,0,0,0-3.38-.57c-3.48,0-5.62,2.16-5.62,5.54,0,4,3,5.59,5.7,5.59a9.74,9.74,0,0,0,3.17-.42c.13,0,.21,0,.21.13Z" transform="translate(0 0)"/><path class="cls-1" d="M254,46.51a2.16,2.16,0,1,1,4.32,0,2,2,0,0,1-1.8,2.18,2.16,2.16,0,0,1-.36,0A2,2,0,0,1,254,46.76,1,1,0,0,1,254,46.51Z" transform="translate(0 0)"/><path class="cls-2" d="M18,78.43H76a18,18,0,0,1,18,18h0a18,18,0,0,1-18,18H18a18,18,0,0,1-18-18H0A18,18,0,0,1,18,78.43Z" transform="translate(0 0)"/><path class="cls-1" d="M24.08,95.13h0a1.53,1.53,0,0,0-1.51,1.43l2.09,0h.77v-.08A1.3,1.3,0,0,0,24.08,95.13Z" transform="translate(0 0)"/><path class="cls-1" d="M38.82,95.13h0a1.54,1.54,0,0,0-1.52,1.43l2.09,0h.77v-.08A1.3,1.3,0,0,0,38.82,95.13Z" transform="translate(0 0)"/><path class="cls-1" d="M16.17,93H15v2.76l1.22,0c1.13,0,1.86-.5,1.86-1.4S17.36,93,16.17,93Z" transform="translate(0 0)"/><path class="cls-1" d="M67.39,95.13c-1,0-1.64.85-1.64,2.18l0,0c0,1.29.63,2.18,1.7,2.18.87,0,1.61-.71,1.61-2.15C69.09,96.15,68.58,95.13,67.39,95.13Z" transform="translate(0 0)"/><path class="cls-1" d="M76,79.43H18a17,17,0,0,0,0,34H76a17,17,0,0,0,0-34ZM20.55,100.78H18.74a.23.23,0,0,1-.19-.07c-.41-.63-1.39-2.24-2-3.22-.1-.17-.17-.24-.33-.24H15v3.42a.1.1,0,0,1-.09.11H13.46c-.08,0-.11,0-.11-.11v-9c0-.07,0-.13.1-.13h2.77c2.24,0,3.56,1,3.56,2.76A2.6,2.6,0,0,1,18,96.78c.47.64,2.15,3.15,2.55,3.85C20.6,100.71,20.61,100.78,20.55,100.78Zm6.43-4a4.25,4.25,0,0,1-.06.87.11.11,0,0,1-.11.1,11.56,11.56,0,0,1-1.44.06l-2.85-.07c0,1,.69,1.76,2.12,1.76a4.31,4.31,0,0,0,1.73-.34c.05,0,.09,0,.09.06v1.16a.15.15,0,0,1-.09.16,4.74,4.74,0,0,1-2.1.4,3.23,3.23,0,0,1-3.46-3,4.34,4.34,0,0,1,0-.51c0-2,1.18-3.67,3.29-3.67A2.78,2.78,0,0,1,27,96.43C27,96.54,27,96.65,27,96.76Zm7.22,3.9c0,.09,0,.12-.11.12H32.66c-.08,0-.13,0-.13-.12v-4c0-.92-.39-1.45-1.2-1.45a1.84,1.84,0,0,0-1.36.57v4.89a.1.1,0,0,1-.09.11H28.39c-.09,0-.11,0-.11-.11V95.49A11.12,11.12,0,0,0,28.22,94c0-.07,0-.1.1-.1h1.27c.1,0,.14,0,.17.1a3.1,3.1,0,0,1,.1.53,3,3,0,0,1,2-.77c1,0,2.34.53,2.34,2.77Zm7.52-3.9a4.25,4.25,0,0,1-.06.87.11.11,0,0,1-.11.1,11.56,11.56,0,0,1-1.44.06l-2.85-.07c.05,1,.69,1.76,2.12,1.76a4.32,4.32,0,0,0,1.74-.34s.08,0,.08.06v1.16a.15.15,0,0,1-.08.16,4.74,4.74,0,0,1-2.1.4,3.23,3.23,0,0,1-3.46-3,4.34,4.34,0,0,1,0-.51c0-2,1.17-3.67,3.29-3.67a2.8,2.8,0,0,1,2.88,2.68C41.73,96.55,41.73,96.65,41.72,96.76Zm8.76,3.91c0,.08-.06.11-.16.11H48.84c-.09,0-.12,0-.15-.12-.81-3.13-1-4.37-1.19-5.06-.33,1.4-.68,2.75-1.34,5.07a.13.13,0,0,1-.15.11H44.47c-.14,0-.15,0-.18-.11L42.47,94c0-.07,0-.11.1-.11h1.54c.07,0,.1,0,.11.08.84,3.29,1.05,4.62,1.15,5.18.11-.49.35-1.76,1.27-5.15,0-.08,0-.11.13-.11h1.61c.07,0,.1,0,.11.08.87,3.42,1.07,4.67,1.18,5.23A52,52,0,0,1,50.86,94s0-.08.12-.08H52.4s.11,0,.08.1Zm12.26,0c0,.09,0,.12-.11.12H61.15c-.09,0-.13,0-.13-.12v-4c0-.92-.39-1.45-1.2-1.45a1.84,1.84,0,0,0-1.36.57v4.89a.1.1,0,0,1-.09.11H56.88c-.09,0-.12,0-.12-.11V94c0-.07,0-.1.1-.1h1.27c.1,0,.14,0,.17.1a3.1,3.1,0,0,1,.1.53,3,3,0,0,1,2-.77c1,0,2.34.53,2.34,2.77Zm8-3.37a3.38,3.38,0,1,1-6.74.52,4.51,4.51,0,0,1,0-.52,3.38,3.38,0,0,1,3.15-3.59h.26A3.28,3.28,0,0,1,70.8,96.9C70.8,97,70.79,97.16,70.78,97.29Zm8.72,3.38c0,.08-.06.11-.16.11H77.85c-.1,0-.12,0-.15-.12-.81-3.13-1-4.37-1.19-5.06-.32,1.4-.67,2.75-1.33,5.07a.13.13,0,0,1-.15.11H73.48c-.14,0-.15,0-.18-.11L71.48,94c0-.07,0-.11.1-.11h1.54c.07,0,.1,0,.11.08.84,3.29,1,4.62,1.15,5.18.11-.49.35-1.76,1.27-5.15,0-.08,0-.11.13-.11h1.61c.07,0,.1,0,.11.08.87,3.42,1.06,4.67,1.18,5.23.17-.84.38-2.24,1.19-5.23a.13.13,0,0,1,.13-.08h1.42s.11,0,.08.1Z" transform="translate(0 0)"/><rect class="cls-2" y="54.43" width="124" height="24"/><rect class="cls-2" y="114.43" width="124" height="40"/><rect class="cls-2" x="94" y="54.43" width="30" height="100"/></svg>