<svg xmlns="http://www.w3.org/2000/svg" viewBox="0 0 230.51 22.15"><defs><style>.a{fill:#fff;}</style></defs><title>F1_text</title><path class="a" d="M.68,17c-.15,0-.2,0-.2-.21V1.51c0-.12,0-.24.17-.24,2.17-.05,3.08-.07,5-.07,4,0,6.24,1.7,6.24,4.81a4.53,4.53,0,0,1-3,4.24c.8,1.08,3.52,5.18,4.26,6.48.08.14.1.28-.07.28H9.61c-.22,0-.29,0-.34-.14-.7-1.06-2.21-3.64-3.2-5.27-.17-.29-.29-.41-.55-.41H3.76v5.63a.17.17,0,0,1-.19.19ZM5.61,8.35c1.81,0,3-.73,3-2.15s-1.2-2.09-3-2.09c-.8,0-1.47,0-1.83,0V8.35Z" transform="translate(-0.48 0.06)"/><path class="a" d="M16.93,11.91c.12,1.37,1.08,2.5,3.44,2.5a7.33,7.33,0,0,0,3-.55c.08,0,.15,0,.15.12v2.29c0,.17-.05.24-.17.29a8.16,8.16,0,0,1-3.68.7c-4.53,0-6.12-3.11-6.12-6.1,0-3.32,2.05-6.35,5.83-6.35A4.91,4.91,0,0,1,24.42,10a7.86,7.86,0,0,1-.12,1.61.21.21,0,0,1-.2.19,21.39,21.39,0,0,1-2.48.1Zm3.13-2.34a9.25,9.25,0,0,0,1.2,0V9.36a2,2,0,0,0-2-1.9A2.29,2.29,0,0,0,16.9,9.57Z" transform="translate(-0.48 0.06)"/><path class="a" d="M29.86,5.05c.12,0,.19,0,.19.19V16c0,2.65-.39,3.68-1.2,4.69a4.64,4.64,0,0,1-3.42,1.37c-.2,0-.44,0-.63,0s-.22-.1-.22-.24V19.37c0-.12.05-.19.17-.19,1.25,0,1.95-.48,1.95-2.24V5.24c0-.12.08-.19.22-.19ZM26.51,1.89A1.82,1.82,0,0,1,28.41,0a1.75,1.75,0,0,1,1.86,1.85,1.88,1.88,0,1,1-3.76,0Z" transform="translate(-0.48 0.06)"/><path class="a" d="M44.09,11c0,3.78-2.46,6.29-5.93,6.29-4.11,0-5.94-3.11-5.94-6.22,0-3.42,2.28-6.23,6-6.23C42.09,4.81,44.09,7.72,44.09,11Zm-8.48,0c0,2.11,1,3.46,2.6,3.46,1.4,0,2.46-1.2,2.46-3.42,0-1.87-.77-3.44-2.6-3.44C36.67,7.6,35.61,8.85,35.61,11Z" transform="translate(-0.48 0.06)"/><path class="a" d="M46.08,1.89A1.8,1.8,0,0,1,48,0a1.75,1.75,0,0,1,1.86,1.85,1.87,1.87,0,1,1-3.74,0Zm.17,3.35c0-.12,0-.19.2-.19h3c.14,0,.19,0,.19.19V16.8c0,.14,0,.21-.22.21H46.49q-.24,0-.24-.21Z" transform="translate(-0.48 0.06)"/><path class="a" d="M52.39,7.84c0-.82,0-2.07-.09-2.6,0-.12,0-.19.16-.19H55c.2,0,.27.07.32.19a3.36,3.36,0,0,1,.19.8,5.26,5.26,0,0,1,3.42-1.23c1.85,0,4,1,4,4.84V16.8c0,.14-.05.21-.21.21H59.86c-.17,0-.24-.07-.24-.21V9.94c0-1.45-.63-2.22-1.88-2.22a2.9,2.9,0,0,0-2,.75v8.35c0,.12-.07.19-.22.19H52.61c-.17,0-.22-.07-.22-.21Z" transform="translate(-0.48 0.06)"/><path class="a" d="M77.22,16.61c0,.14,0,.26-.17.31a6,6,0,0,1-2.15.34c-2.09,0-3.32-1-3.32-3.45v-6H70.14c-.15,0-.2-.07-.2-.22V5.26c0-.16,0-.21.22-.21h1.45a25.74,25.74,0,0,1,.24-2.92.23.23,0,0,1,.21-.21l2.82-.36c.12,0,.19,0,.19.14C75,2.45,75,3.87,75,5.05h2.22c.14,0,.19,0,.19.19V7.67c0,.12,0,.15-.17.17H74.93V13c0,1.06.31,1.54,1.3,1.54a4.57,4.57,0,0,0,.82-.09c.09,0,.17,0,.17.17Z" transform="translate(-0.48 0.06)"/><path class="a" d="M82.66,16.82c0,.15,0,.19-.2.19h-3c-.14,0-.19-.07-.19-.19V.11c0-.09,0-.17.19-.17h3c.15,0,.2,0,.2.17V5.79a5.37,5.37,0,0,1,3.15-1c1.88,0,4.07,1,4.07,4.84V16.8c0,.14,0,.21-.22.21H86.77c-.17,0-.24-.07-.24-.21V10c0-1.51-.65-2.26-1.9-2.26a3.26,3.26,0,0,0-2,.6Z" transform="translate(-0.48 0.06)"/><path class="a" d="M95.46,11.91c.12,1.37,1.09,2.5,3.45,2.5a7.4,7.4,0,0,0,3-.55c.07,0,.14,0,.14.12v2.29c0,.17,0,.24-.16.29a8.23,8.23,0,0,1-3.69.7c-4.53,0-6.11-3.11-6.11-6.1,0-3.32,2-6.35,5.82-6.35A4.9,4.9,0,0,1,103,10a7.86,7.86,0,0,1-.12,1.61.2.2,0,0,1-.19.19,21.52,21.52,0,0,1-2.48.1Zm3.13-2.34a9.48,9.48,0,0,0,1.21,0V9.36a2,2,0,0,0-2-1.9,2.28,2.28,0,0,0-2.31,2.11Z" transform="translate(-0.48 0.06)"/><path class="a" d="M119,16.68c0,.12,0,.17-.12.19a7.55,7.55,0,0,1-2.7.39,6,6,0,0,1-6.35-6.17c0-3.61,2.72-6.28,6.81-6.28a6.78,6.78,0,0,1,2.22.26c.12,0,.14.12.14.27l0,2.48c0,.17-.1.19-.2.17a5.92,5.92,0,0,0-2-.29c-2,0-3.49,1.1-3.49,3.27,0,2.51,1.86,3.32,3.54,3.32a8,8,0,0,0,2-.21c.14-.05.19,0,.19.09Z" transform="translate(-0.48 0.06)"/><path class="a" d="M132.21,11c0,3.78-2.46,6.29-5.93,6.29-4.11,0-5.94-3.11-5.94-6.22,0-3.42,2.28-6.23,6-6.23C130.21,4.81,132.21,7.72,132.21,11Zm-8.48,0c0,2.11,1,3.46,2.6,3.46,1.4,0,2.46-1.2,2.46-3.42,0-1.87-.77-3.44-2.6-3.44C124.79,7.6,123.73,8.85,123.73,11Z" transform="translate(-0.48 0.06)"/><path class="a" d="M134.59,17c-.17,0-.22-.07-.22-.21V7.65c0-.89-.07-1.93-.09-2.39,0-.14,0-.21.19-.21H137c.15,0,.19,0,.29.14a3.37,3.37,0,0,1,.14.89,5.26,5.26,0,0,1,3.47-1.27A3.42,3.42,0,0,1,144,6.35a5.9,5.9,0,0,1,3.9-1.54c2.1,0,4.12,1.13,4.12,4.76V16.8c0,.14-.07.21-.22.21h-2.88c-.17,0-.25-.07-.25-.21V9.91c0-1.25-.43-2.21-1.83-2.21a3.17,3.17,0,0,0-2,.77,10,10,0,0,1,.07,1.35v7c0,.12-.05.21-.19.21h-2.92c-.14,0-.24,0-.24-.21v-7c0-1.45-.67-2.1-1.83-2.1a3.3,3.3,0,0,0-2,.67v8.43c0,.12-.05.19-.22.19Z" transform="translate(-0.48 0.06)"/><path class="a" d="M155.05,17c-.16,0-.21-.07-.21-.21V7.65c0-.89-.08-1.93-.1-2.39,0-.14,0-.21.19-.21h2.56a.34.34,0,0,1,.28.14,3,3,0,0,1,.15.89,5.22,5.22,0,0,1,3.47-1.27,3.43,3.43,0,0,1,3.08,1.54,5.86,5.86,0,0,1,3.9-1.54c2.09,0,4.12,1.13,4.12,4.76V16.8a.19.19,0,0,1-.22.21h-2.89c-.17,0-.24-.07-.24-.21V9.91c0-1.25-.43-2.21-1.83-2.21a3.22,3.22,0,0,0-2.05.77,9.77,9.77,0,0,1,.08,1.35v7c0,.12-.05.21-.2.21h-2.91c-.15,0-.24,0-.24-.21v-7c0-1.45-.68-2.1-1.83-2.1a3.33,3.33,0,0,0-2,.67v8.43c0,.12,0,.19-.21.19Z" transform="translate(-0.48 0.06)"/><path class="a" d="M185.8,14.34a20.86,20.86,0,0,0,.15,2.48c0,.15,0,.19-.22.19h-2.55c-.2,0-.24,0-.29-.16s-.12-.53-.15-.75a4.93,4.93,0,0,1-3.3,1.16c-2.4,0-4.06-1.33-4.06-4.65V5.24c0-.17,0-.19.21-.19h2.94c.14,0,.17,0,.17.19v7c0,1.3.55,2.15,1.88,2.15a2.64,2.64,0,0,0,1.87-.7V5.24c0-.14.08-.19.25-.19h2.91c.17,0,.19,0,.19.19Z" transform="translate(-0.48 0.06)"/><path class="a" d="M188.71,7.84c0-.82,0-2.07-.09-2.6,0-.12,0-.19.17-.19h2.52c.2,0,.27.07.32.19a3.36,3.36,0,0,1,.19.8,5.26,5.26,0,0,1,3.42-1.23c1.85,0,4,1,4,4.84V16.8c0,.14,0,.21-.21.21h-2.89c-.17,0-.24-.07-.24-.21V9.94c0-1.45-.63-2.22-1.88-2.22a2.91,2.91,0,0,0-2,.75v8.35c0,.12-.07.19-.22.19h-2.91c-.17,0-.22-.07-.22-.21Z" transform="translate(-0.48 0.06)"/><path class="a" d="M202,1.89A1.8,1.8,0,0,1,203.88,0a1.75,1.75,0,0,1,1.86,1.85,1.87,1.87,0,1,1-3.74,0Zm.17,3.35c0-.12.05-.19.2-.19h3c.14,0,.19,0,.19.19V16.8c0,.14,0,.21-.22.21h-2.89c-.17,0-.24-.07-.24-.21Z" transform="translate(-0.48 0.06)"/><path class="a" d="M214.57,16.61c0,.14,0,.26-.17.31a6,6,0,0,1-2.14.34c-2.09,0-3.32-1-3.32-3.45v-6h-1.45c-.14,0-.19-.07-.19-.22V5.26c0-.16,0-.21.22-.21H209a28.27,28.27,0,0,1,.24-2.92.25.25,0,0,1,.22-.21l2.82-.36c.12,0,.19,0,.19.14-.07.75-.12,2.17-.12,3.35h2.21c.15,0,.2,0,.2.19V7.67c0,.12-.05.15-.17.17h-2.27V13c0,1.06.32,1.54,1.3,1.54a4.57,4.57,0,0,0,.82-.09c.1,0,.17,0,.17.17Z" transform="translate(-0.48 0.06)"/><path class="a" d="M219,5.05a.25.25,0,0,1,.24.17c1.37,4.11,2.1,6.62,2.43,7.87.77-2.55,1.52-4.86,2.46-7.87a.24.24,0,0,1,.26-.17h2.87c.17,0,.19.09.17.21-1.74,5.4-4.41,12-6.19,16.16-.05.1-.12.17-.34.17l-3,.24c-.15,0-.19-.07-.12-.22.7-1.44,1.42-3,2.19-4.84a.4.4,0,0,0,0-.41C219.29,14.7,217,9,215.61,5.24c-.08-.12,0-.19.14-.19Z" transform="translate(-0.48 0.06)"/><path class="a" d="M227,15.23a2,2,0,1,1,4,0,1.87,1.87,0,0,1-2,2A1.91,1.91,0,0,1,227,15.23Z" transform="translate(-0.48 0.06)"/></svg>