<svg xmlns="http://www.w3.org/2000/svg" width="54" height="65" viewBox="0 0 54 65"><g transform="translate(-20 -165)"><g transform="translate(20 165)"><g transform="translate(0 25)"><path d="M18.334,0H29.071V25.71Z" transform="translate(-0.001)" fill="#fff"/><path d="M10.768,0H.021V25.71Z" transform="translate(-0.001)" fill="#fff"/><path d="M14.551,9.474l6.842,16.234H16.91l-2.048-5.17H9.854Z" transform="translate(-0.001 0)" fill="#fff"/><path d="M3.758,36.018c-.205-1.046-.573-2.622-.717-3.639H3.027c-.144.988-.411,2.377-.66,3.639Zm-1.7,1.533-.473,2.235c-.014.086-.043.1-.115.1H.1c-.086,0-.115-.029-.1-.144l1.876-8.1a2.905,2.905,0,0,0,.058-.787.076.076,0,0,1,.086-.086H3.972c.072,0,.1.029.115.1l2.192,8.9c.014.086-.014.115-.086.115H4.674a.1.1,0,0,1-.115-.1l-.5-2.235Z" transform="translate(-0.001 0)" fill="#fff"/><path d="M9.9,34.253a.805.805,0,0,0-.312-.041c-.793,0-1.387.721-1.387,2.137,0,1.5.594,2.122,1.373,2.122a1.2,1.2,0,0,0,.327-.043ZM6.517,36.4c0-2.065,1.218-3.665,3.158-3.665H9.9V30.306c0-.043.027-.072.084-.072h1.52c.058,0,.07.029.07.072v8.151a6.534,6.534,0,0,0,.043.949.088.088,0,0,1-.055.1,4.7,4.7,0,0,1-2.055.5C7.721,40,6.517,38.833,6.517,36.4Z" transform="translate(-0.001 0)" fill="#fff"/><path d="M14.132,36.349c0,1.315.284,2.18.92,2.18s.906-.738.906-2.166c0-1.331-.226-2.151-.892-2.151C14.485,34.212,14.132,34.876,14.132,36.349Zm3.493,0c0,2.235-.935,3.651-2.577,3.651-1.849,0-2.577-1.613-2.577-3.666,0-2.094.935-3.6,2.605-3.6,1.6,0,2.552,1.331,2.552,3.61Z" transform="translate(-0.001 0)" fill="#fff"/><path d="M20.7,34.241a1.724,1.724,0,0,0-.51.07v4.175a1.145,1.145,0,0,0,.3.029c.637,0,1.387-.651,1.4-2.406C21.9,34.734,21.35,34.241,20.7,34.241Zm-.579-4.007c.055,0,.07.029.07.086v2.5a3.427,3.427,0,0,1,.764-.086c1.471,0,2.591,1.132,2.591,3.326,0,2.562-1.459,3.935-3.287,3.935a5.387,5.387,0,0,1-1.644-.255.125.125,0,0,1-.084-.113V30.321a.076.076,0,0,1,.084-.086Z" transform="translate(-0.001 0)" fill="#fff"/><path d="M27.039,35.428a2.261,2.261,0,0,0,.423-.014.616.616,0,0,0,.014-.156c0-.536-.168-1.1-.75-1.1s-.793.581-.863,1.274Zm-1.2,1.331c0,1.089.411,1.755,1.557,1.755a2.876,2.876,0,0,0,1.075-.205c.072-.029.115-.029.115.072v1.173c0,.1-.029.156-.1.185a3.1,3.1,0,0,1-1.4.255c-2.079,0-2.887-1.529-2.887-3.524,0-2.122.935-3.737,2.591-3.737,1.74,0,2.25,1.543,2.25,2.8a7.6,7.6,0,0,1-.072,1.062c-.012.07-.055.1-.127.113-.14.014-.579.043-1.344.043Z" transform="translate(-0.001 0)" fill="#fff"/></g><rect width="54" height="25" fill="none" opacity="0.749"/><rect width="25" height="65" transform="translate(29)" fill="none" opacity="0.749"/></g></g></svg>