<svg xmlns="http://www.w3.org/2000/svg" viewBox="0 0 122.3 18.69"><defs><style>.a{isolation:isolate;}.b{fill:#fff;}</style></defs><title>tag_headline1</title><g class="a"><path class="b" d="M13.7,25.43c0,.18,0,.31-.21.36a11.36,11.36,0,0,1-3.61.47c-5,0-9-3-9-8.68,0-5.28,3.64-8.87,9.39-8.87a8.74,8.74,0,0,1,3.38.44.29.29,0,0,1,.18.31V12.3c0,.23-.13.23-.24.18a8,8,0,0,0-3.38-.57c-3.48,0-5.61,2.16-5.61,5.54,0,4.05,3,5.59,5.69,5.59a9.66,9.66,0,0,0,3.17-.42c.13-.05.21,0,.21.13Z" transform="translate(-0.91 -7.57)"/><path class="b" d="M28,19.47c0,4.09-2.66,6.79-6.4,6.79-4.45,0-6.42-3.35-6.42-6.71,0-3.69,2.47-6.73,6.47-6.73C25.82,12.82,28,16,28,19.47Zm-9.16,0c0,2.29,1.07,3.74,2.81,3.74,1.51,0,2.65-1.3,2.65-3.69,0-2-.83-3.72-2.8-3.72C20,15.83,18.82,17.19,18.82,19.5Z" transform="translate(-0.91 -7.57)"/><path class="b" d="M30.55,26c-.18,0-.23-.08-.23-.23V15.89c0-1-.08-2.08-.11-2.58,0-.15.05-.23.21-.23h2.76a.39.39,0,0,1,.31.15,3.45,3.45,0,0,1,.15,1,5.66,5.66,0,0,1,3.75-1.38,3.71,3.71,0,0,1,3.33,1.66,6.31,6.31,0,0,1,4.21-1.66c2.26,0,4.44,1.22,4.44,5.15v7.8a.2.2,0,0,1-.23.23H46c-.18,0-.26-.08-.26-.23V18.33c0-1.35-.47-2.39-2-2.39a3.5,3.5,0,0,0-2.21.83,9.88,9.88,0,0,1,.08,1.46v7.54c0,.13,0,.23-.21.23H38.3c-.16,0-.26-.05-.26-.23V18.23c0-1.56-.73-2.27-2-2.27a3.54,3.54,0,0,0-2.13.73v9.1c0,.13,0,.21-.23.21Z" transform="translate(-0.91 -7.57)"/><path class="b" d="M55.41,20.49c.13,1.48,1.17,2.7,3.71,2.7a8,8,0,0,0,3.2-.6c.08-.05.16,0,.16.13v2.47c0,.19,0,.26-.18.32a8.81,8.81,0,0,1-4,.75c-4.89,0-6.61-3.35-6.61-6.58,0-3.59,2.21-6.86,6.3-6.86,3.92,0,5.48,3,5.48,5.61a8.28,8.28,0,0,1-.13,1.75.21.21,0,0,1-.21.2,21.47,21.47,0,0,1-2.67.11ZM58.79,18a7.42,7.42,0,0,0,1.3-.06v-.18a2.12,2.12,0,0,0-2.21-2.05A2.47,2.47,0,0,0,55.38,18Z" transform="translate(-0.91 -7.57)"/><path class="b" d="M75.06,7.57c.21,0,.26,0,.26.2V13.1a8.53,8.53,0,0,1,2.19-.28A6,6,0,0,1,83.75,19c0,4.86-3.85,7.25-7.8,7.25a13.55,13.55,0,0,1-4.09-.6.3.3,0,0,1-.15-.26V7.75c0-.13.05-.18.18-.18Zm1.8,8.32a5.7,5.7,0,0,0-1.54.2v7.05a3.92,3.92,0,0,0,1,.1,3.57,3.57,0,0,0,3.77-3.9C80.05,17,78.68,15.89,76.86,15.89Z" transform="translate(-0.91 -7.57)"/><path class="b" d="M96.23,23.11c0,.68,0,1.23,0,1.85,0,.05,0,.1,0,.13a14.44,14.44,0,0,1-5.67,1.17c-2.89,0-5.25-1.33-5.25-4.34,0-2.76,2.41-4.21,5.87-4.21a11.6,11.6,0,0,1,1.54.05v-.18c0-.5-.32-1.64-2.5-1.64a8.36,8.36,0,0,0-3.43.7.16.16,0,0,1-.24-.13V13.88c0-.13,0-.2.19-.26a9.84,9.84,0,0,1,4.08-.8c3.74,0,5.41,2.31,5.41,5.28Zm-3.51-2.67a8.55,8.55,0,0,0-1.3-.08c-1.85,0-2.6.6-2.6,1.53s.65,1.56,2.28,1.56a5.51,5.51,0,0,0,1.62-.23Z" transform="translate(-0.91 -7.57)"/><path class="b" d="M108.34,25.64c0,.13,0,.18-.13.2a8,8,0,0,1-2.91.42c-4.21,0-6.87-2.83-6.87-6.66s2.94-6.78,7.36-6.78a7.35,7.35,0,0,1,2.4.28c.13.06.15.13.15.29l0,2.68c0,.18-.11.21-.21.18a6.58,6.58,0,0,0-2.19-.31c-2.18,0-3.77,1.19-3.77,3.53,0,2.71,2,3.59,3.83,3.59a8.51,8.51,0,0,0,2.15-.23c.16,0,.21,0,.21.1Z" transform="translate(-0.91 -7.57)"/><path class="b" d="M122.33,13.08c.18,0,.26.13.15.26-.8,1-3.92,4.42-4.91,5.48a.08.08,0,0,0,0,.11c1.51,1.87,4,4.89,5.59,6.84.1.07,0,.23-.13.23H118.9c-.19,0-.24-.08-.34-.18-.81-1-3-3.93-4.27-5.54v5.46c0,.18-.05.26-.23.26h-3.15c-.2,0-.26-.08-.26-.26v-18c0-.1.06-.2.26-.2h3.15c.13,0,.23,0,.23.2V18.46c1.36-1.61,3.77-4.52,4.32-5.2a.38.38,0,0,1,.36-.18Z" transform="translate(-0.91 -7.57)"/></g></svg>