<svg xmlns="http://www.w3.org/2000/svg" viewBox="0 0 130.79 11.23"><defs><style>.a{isolation:isolate;}.b{fill:#fff;}</style></defs><title>tag_subheadline</title><g class="a"><g class="a"><path class="b" d="M1.12,12C1,12,1,12,1,11.87V3c0-.07,0-.14.1-.14,1.26,0,1.79,0,2.92,0,2.33,0,3.63,1,3.63,2.8A2.63,2.63,0,0,1,5.91,8.06c.46.63,2.05,3,2.48,3.77,0,.09.06.17,0,.17h-2c-.13,0-.17,0-.2-.08C5.71,11.3,4.83,9.8,4.26,8.85c-.1-.17-.17-.24-.32-.24h-1v3.28A.1.1,0,0,1,2.8,12ZM4,7c1,0,1.72-.42,1.72-1.25S5,4.49,4,4.49c-.46,0-.86,0-1.07,0V7Z" transform="translate(-1.01 -1.93)"/><path class="b" d="M10.57,9c.07.8.63,1.46,2,1.46a4.41,4.41,0,0,0,1.73-.32s.08,0,.08.07v1.33c0,.09,0,.14-.1.16a4.62,4.62,0,0,1-2.14.41A3.29,3.29,0,0,1,8.58,8.6,3.41,3.41,0,0,1,12,4.9a2.86,2.86,0,0,1,3,3,4.58,4.58,0,0,1-.07.94c0,.07,0,.1-.11.11A12.4,12.4,0,0,1,13.3,9Zm1.82-1.36a3.62,3.62,0,0,0,.7,0V7.55A1.14,1.14,0,0,0,11.9,6.44a1.32,1.32,0,0,0-1.34,1.23Z" transform="translate(-1.01 -1.93)"/><path class="b" d="M16.17,6.66c0-.47,0-1.2-.06-1.51,0-.07,0-.11.1-.11h1.47c.11,0,.16,0,.18.11a1.7,1.7,0,0,1,.12.46,3.09,3.09,0,0,1,2-.71c1.07,0,2.35.56,2.35,2.81v4.16c0,.09,0,.13-.13.13H20.51c-.1,0-.14,0-.14-.13v-4c0-.84-.36-1.29-1.09-1.29A1.66,1.66,0,0,0,18.12,7v4.86c0,.07,0,.11-.13.11H16.3c-.1,0-.13,0-.13-.13Z" transform="translate(-1.01 -1.93)"/><path class="b" d="M25.56,9c.08.8.64,1.46,2,1.46a4.39,4.39,0,0,0,1.72-.32s.09,0,.09.07v1.33c0,.09,0,.14-.1.16a4.67,4.67,0,0,1-2.15.41A3.28,3.28,0,0,1,23.58,8.6,3.41,3.41,0,0,1,27,4.9a2.85,2.85,0,0,1,3,3,4.58,4.58,0,0,1-.07.94.11.11,0,0,1-.11.11A12.18,12.18,0,0,1,28.3,9Zm1.83-1.36a3.78,3.78,0,0,0,.7,0V7.55A1.14,1.14,0,0,0,26.9,6.44a1.33,1.33,0,0,0-1.35,1.23Z" transform="translate(-1.01 -1.93)"/><path class="b" d="M37,12c-.11,0-.14,0-.17-.13C36.12,9,35.9,7.73,35.76,7h0c-.35,1.54-.63,2.71-1.21,4.83,0,.1-.07.13-.16.13H32.62c-.14,0-.17,0-.2-.13L30.6,5.16c0-.07,0-.12.12-.12h1.77c.09,0,.12,0,.13.1.74,3,.94,4.37,1,5h0c.11-.5.33-1.82,1.14-4.93,0-.08,0-.12.13-.12h1.85c.07,0,.1,0,.11.1.74,3.09.94,4.45,1,5h0c.19-.91.4-2.42,1.07-5a.12.12,0,0,1,.13-.1h1.64a.08.08,0,0,1,.08.11l-2,6.72c0,.1,0,.13-.17.13Z" transform="translate(-1.01 -1.93)"/><path class="b" d="M44.34,6.66c-.07,0-.1,0-.1-.11V5.14a.09.09,0,0,1,.1-.1h.82V4.81a3.66,3.66,0,0,1,.31-1.56,2.18,2.18,0,0,1,2.17-1.32,2.1,2.1,0,0,1,.73.1c.07,0,.09.07.09.14V3.55c0,.06,0,.1-.1.09a2.13,2.13,0,0,0-.42,0c-.52,0-.83.27-.83,1.05V5H48.3c.1,0,.11,0,.11.1V6.55c0,.08,0,.1-.11.11H47.11v5.21c0,.07,0,.13-.13.13H45.29a.12.12,0,0,1-.13-.13V6.66Z" transform="translate(-1.01 -1.93)"/><path class="b" d="M55.84,8.48a3.39,3.39,0,0,1-3.45,3.66,3.35,3.35,0,0,1-3.46-3.61A3.43,3.43,0,0,1,52.42,4.9,3.33,3.33,0,0,1,55.84,8.48Zm-4.94,0c0,1.23.58,2,1.52,2s1.43-.71,1.43-2c0-1.1-.45-2-1.52-2C51.52,6.52,50.9,7.25,50.9,8.5Z" transform="translate(-1.01 -1.93)"/><path class="b" d="M58.63,5a.16.16,0,0,1,.17.12A2.64,2.64,0,0,1,59,6a2.94,2.94,0,0,1,2.23-1c.09,0,.11,0,.11.11V6.73c0,.07,0,.1-.12.1a2.94,2.94,0,0,0-2.12.6v4.46c0,.08,0,.11-.13.11H57.23c-.11,0-.14,0-.14-.13V7A18.8,18.8,0,0,0,57,5.14c0-.07,0-.1.09-.1Z" transform="translate(-1.01 -1.93)"/><path class="b" d="M68.85,13.06c0,.09,0,.1-.08.1H67.41c-.06,0-.08,0-.08-.11V12a5,5,0,0,1-2.12-.52c-.07,0-.1-.11-.1-.24V9.55c0-.09.07-.13.13-.09a4.5,4.5,0,0,0,2.63.84c.8,0,1.35-.25,1.35-.7s-.35-.7-1.54-1.19c-2-.75-2.58-1.45-2.58-2.74a2.5,2.5,0,0,1,2.24-2.45V2.13c0-.08,0-.09.1-.09h1.34c.09,0,.1,0,.1.09l0,1.06a3.51,3.51,0,0,1,1.71.45c.06,0,.07.07.07.15V5.37c0,.09-.07.12-.12.07a3.91,3.91,0,0,0-2.41-.68c-.82,0-1.29.29-1.29.71s.25.65,1.69,1.24c2.1.82,2.54,1.69,2.54,2.75a2.47,2.47,0,0,1-2.26,2.4Z" transform="translate(-1.01 -1.93)"/><path class="b" d="M72.15,12c-.09,0-.09-.06-.09-.13V10.79c0-.09,0-.13,0-.18a27.93,27.93,0,0,0,2.22-1.75C75.75,7.59,76,6.8,76,6.16c0-.86-.46-1.4-1.57-1.4a4.09,4.09,0,0,0-2,.56c-.08,0-.12,0-.12-.07V3.78a.15.15,0,0,1,.08-.16A5.24,5.24,0,0,1,74.84,3,2.81,2.81,0,0,1,78,5.91a4.15,4.15,0,0,1-1.54,3.15,16.67,16.67,0,0,1-1.55,1.33,18.51,18.51,0,0,1,2-.06h1.46c.11,0,.14,0,.13.1l-.34,1.46c0,.08-.06.11-.14.11Z" transform="translate(-1.01 -1.93)"/><path class="b" d="M80.12,10.57c0-.08,0-.1.1-.11a4.71,4.71,0,0,0,3.22-1.75,3.6,3.6,0,0,1-1.33.22,2.8,2.8,0,0,1-3-2.83A3.12,3.12,0,0,1,82.46,3c1.92,0,3.33,1.4,3.33,3.7,0,3.05-2.39,5.11-5.53,5.42-.1,0-.12,0-.12-.11Zm3.7-3.43c0-.07,0-.27,0-.42,0-1.29-.54-2.06-1.47-2.06A1.26,1.26,0,0,0,81.1,6c0,1,.65,1.37,1.56,1.37A2.22,2.22,0,0,0,83.82,7.14Z" transform="translate(-1.01 -1.93)"/><path class="b" d="M86.34,11a1.16,1.16,0,1,1,2.32,0,1.09,1.09,0,0,1-1.16,1.18A1.11,1.11,0,0,1,86.34,11Z" transform="translate(-1.01 -1.93)"/><path class="b" d="M90.16,10.57c0-.08,0-.1.1-.11a4.71,4.71,0,0,0,3.22-1.75,3.63,3.63,0,0,1-1.33.22,2.8,2.8,0,0,1-3-2.83A3.12,3.12,0,0,1,92.5,3c1.92,0,3.33,1.4,3.33,3.7,0,3.05-2.39,5.11-5.53,5.42-.1,0-.13,0-.13-.11Zm3.7-3.43c0-.07,0-.27,0-.42,0-1.29-.54-2.06-1.48-2.06A1.25,1.25,0,0,0,91.14,6c0,1,.64,1.37,1.55,1.37A2.23,2.23,0,0,0,93.86,7.14Z" transform="translate(-1.01 -1.93)"/><path class="b" d="M97.93,10.57c0-.08,0-.1.1-.11a4.71,4.71,0,0,0,3.22-1.75,3.63,3.63,0,0,1-1.33.22,2.8,2.8,0,0,1-3-2.83A3.12,3.12,0,0,1,100.27,3c1.92,0,3.33,1.4,3.33,3.7,0,3.05-2.39,5.11-5.53,5.42-.1,0-.13,0-.13-.11Zm3.7-3.43c0-.07,0-.27,0-.42,0-1.29-.54-2.06-1.48-2.06A1.25,1.25,0,0,0,98.91,6c0,1,.64,1.37,1.55,1.37A2.23,2.23,0,0,0,101.63,7.14Z" transform="translate(-1.01 -1.93)"/><path class="b" d="M106.19,12.55s0,.07-.1.07h-1.33c-.08,0-.1,0-.08-.1l2.7-10.24c0-.06,0-.07.1-.07h1.34c.07,0,.09,0,.07.08Z" transform="translate(-1.01 -1.93)"/><path class="b" d="M110.33,12c-.1,0-.12,0-.12-.13V6.55c0-.52,0-1.12-.06-1.39,0-.08,0-.12.11-.12h1.49a.23.23,0,0,1,.17.08,2,2,0,0,1,.08.52,3.05,3.05,0,0,1,2-.74,2,2,0,0,1,1.79.89,3.44,3.44,0,0,1,2.27-.89c1.22,0,2.39.66,2.39,2.77v4.2c0,.09,0,.13-.12.13h-1.68c-.1,0-.14,0-.14-.13v-4c0-.73-.26-1.29-1.07-1.29a1.91,1.91,0,0,0-1.19.45,5.66,5.66,0,0,1,0,.78v4.06c0,.07,0,.13-.11.13h-1.69c-.09,0-.14,0-.14-.13V7.81c0-.84-.4-1.22-1.07-1.22a1.89,1.89,0,0,0-1.15.4v4.9c0,.07,0,.11-.12.11Z" transform="translate(-1.01 -1.93)"/><path class="b" d="M128.63,8.48a3.45,3.45,0,1,1-6.9,0,3.43,3.43,0,0,1,3.49-3.63A3.33,3.33,0,0,1,128.63,8.48Zm-4.93,0c0,1.23.58,2,1.52,2s1.43-.71,1.43-2c0-1.1-.45-2-1.52-2C124.32,6.52,123.7,7.25,123.7,8.5Z" transform="translate(-1.01 -1.93)"/><path class="b" d="M129.47,11a1.17,1.17,0,0,1,2.33,0,1.09,1.09,0,0,1-1.17,1.18A1.11,1.11,0,0,1,129.47,11Z" transform="translate(-1.01 -1.93)"/></g></g></svg>