<svg xmlns="http://www.w3.org/2000/svg" viewBox="0 0 176.26 209.44"><defs><style>.a{fill:#fff;}.b{isolation:isolate;}</style></defs><title>F1_copy-cta-logo</title><path class="a" d="M19.33,177H30.07v25.71Z" transform="translate(-0.05 -7.57)"/><path class="a" d="M11.77,177H1v25.71Z" transform="translate(-0.05 -7.57)"/><path class="a" d="M15.55,186.47l6.84,16.24H17.91l-2.05-5.17h-5Z" transform="translate(-0.05 -7.57)"/><path class="a" d="M4.76,213c-.21-1.05-.58-2.62-.72-3.64H4c-.15,1-.42,2.38-.66,3.64Zm-1.7,1.53-.48,2.24c0,.08,0,.1-.11.1H1.1c-.09,0-.12,0-.1-.15l1.88-8.1a3,3,0,0,0,.05-.79.08.08,0,0,1,.07-.08H5c.07,0,.1,0,.12.1l2.19,8.9c0,.08,0,.11-.09.11H5.67a.1.1,0,0,1-.11-.08v0l-.5-2.23Z" transform="translate(-0.05 -7.57)"/><path class="a" d="M10.9,211.25a1.1,1.1,0,0,0-.31,0c-.8,0-1.39.72-1.39,2.14s.59,2.12,1.37,2.12a1.24,1.24,0,0,0,.33,0ZM7.52,213.4c0-2.06,1.21-3.66,3.15-3.66h.23v-2.43a.07.07,0,0,1,.08-.08H12.5c.06,0,.07,0,.07.08v8.15a6.11,6.11,0,0,0,0,.95.11.11,0,0,1-.06.1,4.73,4.73,0,0,1-2.05.5C8.72,217,7.52,215.83,7.52,213.4Z" transform="translate(-0.05 -7.57)"/><path class="a" d="M15.13,213.35c0,1.31.29,2.18.92,2.18s.91-.74.91-2.17-.23-2.15-.9-2.15S15.13,211.88,15.13,213.35Zm3.49,0c0,2.23-.93,3.65-2.57,3.65-1.85,0-2.58-1.61-2.58-3.67s.94-3.6,2.61-3.6,2.55,1.34,2.55,3.61Z" transform="translate(-0.05 -7.57)"/><path class="a" d="M21.7,211.24a1.75,1.75,0,0,0-.51.07v4.18a1,1,0,0,0,.3,0c.64,0,1.39-.65,1.4-2.4C22.9,211.73,22.35,211.24,21.7,211.24Zm-.58-4c.06,0,.07,0,.07.09v2.5a3.29,3.29,0,0,1,.76-.09c1.48,0,2.59,1.14,2.59,3.33,0,2.56-1.45,3.94-3.28,3.94a5.47,5.47,0,0,1-1.65-.26.13.13,0,0,1-.08-.11v-9.31a.06.06,0,0,1,.06-.08h1.53Z" transform="translate(-0.05 -7.57)"/><path class="a" d="M28,212.43a2,2,0,0,0,.42,0,.38.38,0,0,0,0-.15c0-.54-.16-1.1-.75-1.1s-.79.58-.86,1.27Zm-1.2,1.33c0,1.09.41,1.75,1.55,1.75a2.66,2.66,0,0,0,1.08-.2c.07,0,.11,0,.11.07v1.17c0,.1,0,.16-.1.19a3,3,0,0,1-1.4.25c-2.07,0-2.88-1.52-2.88-3.52s.93-3.74,2.59-3.74,2.25,1.55,2.25,2.8A7.69,7.69,0,0,1,30,213.6a.14.14,0,0,1-.13.11c-.14,0-.58,0-1.34,0Z" transform="translate(-0.05 -7.57)"/><path class="a" d="M77,146.5H19a18.5,18.5,0,0,1,0-37H77a18.5,18.5,0,0,1,0,37Zm-58-36a17.5,17.5,0,0,0,0,35H77a17.5,17.5,0,0,0,0-35Z" transform="translate(-0.05 -7.57)"/><path class="a" d="M77,146H19a18,18,0,0,1,0-36H77a18,18,0,0,1,0,36ZM19,112a16,16,0,0,0,0,32H77a16,16,0,0,0,0-32Z" transform="translate(-0.05 -7.57)"/><g class="b"><g class="b"><path class="a" d="M14.44,132.35c-.09,0-.12,0-.12-.12v-8.9c0-.07,0-.14.1-.14,1.26,0,1.79,0,2.93,0,2.32,0,3.63,1,3.63,2.8a2.64,2.64,0,0,1-1.75,2.47c.46.63,2,3,2.48,3.77,0,.08.05.16-.05.16h-2c-.12,0-.17,0-.19-.08-.41-.62-1.29-2.12-1.87-3.07-.09-.16-.16-.24-.32-.24h-1v3.28a.1.1,0,0,1-.11.11Zm2.87-5c1.05,0,1.72-.42,1.72-1.25s-.7-1.21-1.74-1.21l-1.06,0v2.44Z" transform="translate(-0.05 -7.57)"/><path class="a" d="M23.89,129.38c.07.8.63,1.46,2,1.46a4.39,4.39,0,0,0,1.72-.32s.09,0,.09.07v1.33c0,.1,0,.14-.1.17a4.8,4.8,0,0,1-2.14.4A3.28,3.28,0,0,1,21.9,129a3.42,3.42,0,0,1,3.39-3.7,2.86,2.86,0,0,1,2.95,3,4.73,4.73,0,0,1-.07.94c0,.07,0,.09-.11.11a13,13,0,0,1-1.44,0ZM25.71,128a5.07,5.07,0,0,0,.7,0v-.1a1.14,1.14,0,0,0-1.19-1.11A1.33,1.33,0,0,0,23.87,128Z" transform="translate(-0.05 -7.57)"/><path class="a" d="M29.48,127c0-.48,0-1.21-.05-1.52,0-.07,0-.11.1-.11H31a.16.16,0,0,1,.18.11,1.71,1.71,0,0,1,.11.47,3.07,3.07,0,0,1,2-.72c1.08,0,2.35.56,2.35,2.82v4.16c0,.08,0,.12-.12.12H33.83c-.1,0-.14,0-.14-.12v-4c0-.85-.37-1.29-1.1-1.29a1.74,1.74,0,0,0-1.16.43v4.86c0,.07,0,.11-.12.11h-1.7c-.1,0-.13,0-.13-.12Z" transform="translate(-0.05 -7.57)"/><path class="a" d="M38.88,129.38c.07.8.63,1.46,2,1.46a4.48,4.48,0,0,0,1.73-.32s.08,0,.08.07v1.33c0,.1,0,.14-.1.17a4.77,4.77,0,0,1-2.14.4A3.28,3.28,0,0,1,36.89,129a3.42,3.42,0,0,1,3.39-3.7,2.86,2.86,0,0,1,3,3,4.73,4.73,0,0,1-.07.94c0,.07-.05.09-.12.11a13,13,0,0,1-1.44,0ZM40.7,128a4.94,4.94,0,0,0,.7,0v-.1a1.14,1.14,0,0,0-1.19-1.11A1.32,1.32,0,0,0,38.87,128Z" transform="translate(-0.05 -7.57)"/><path class="a" d="M50.31,132.35c-.12,0-.14,0-.17-.12-.7-2.86-.93-4.15-1.07-4.84h0c-.35,1.55-.63,2.71-1.22,4.84,0,.1-.07.12-.15.12H45.94c-.14,0-.17,0-.2-.12l-1.82-6.71c0-.07,0-.13.11-.13h1.78a.11.11,0,0,1,.13.1c.74,3,.93,4.37,1,5h0c.11-.5.34-1.82,1.15-4.93,0-.09,0-.13.12-.13h1.85c.07,0,.1,0,.12.1.74,3.1.93,4.46,1,5h0c.2-.92.41-2.43,1.08-5a.11.11,0,0,1,.12-.1h1.64c.06,0,.12,0,.09.11l-2,6.73c0,.1,0,.12-.17.12Z" transform="translate(-0.05 -7.57)"/><path class="a" d="M58.34,127c0-.48,0-1.21-.06-1.52,0-.07,0-.11.1-.11h1.47c.11,0,.16,0,.18.11a1.69,1.69,0,0,1,.12.47,3,3,0,0,1,2-.72c1.08,0,2.36.56,2.36,2.82v4.16c0,.08,0,.12-.13.12H62.68c-.1,0-.14,0-.14-.12v-4c0-.85-.36-1.29-1.09-1.29a1.7,1.7,0,0,0-1.16.43v4.86c0,.07,0,.11-.13.11h-1.7c-.09,0-.12,0-.12-.12Z" transform="translate(-0.05 -7.57)"/><path class="a" d="M72.65,128.84a3.46,3.46,0,1,1-6.91,0,3.43,3.43,0,0,1,3.49-3.63A3.34,3.34,0,0,1,72.65,128.84Zm-4.93,0c0,1.23.57,2,1.51,2s1.43-.7,1.43-2c0-1.09-.45-2-1.51-2C68.34,126.88,67.72,127.61,67.72,128.85Z" transform="translate(-0.05 -7.57)"/><path class="a" d="M79.66,132.35c-.11,0-.14,0-.16-.12-.71-2.86-.93-4.15-1.07-4.84h0c-.35,1.55-.63,2.71-1.22,4.84,0,.1-.07.12-.16.12H75.29c-.14,0-.16,0-.19-.12l-1.82-6.71c0-.07,0-.13.11-.13h1.78c.08,0,.11,0,.12.1.75,3,.94,4.37,1,5h0c.11-.5.33-1.82,1.15-4.93,0-.09,0-.13.12-.13h1.85c.07,0,.1,0,.11.1.75,3.1.94,4.46,1,5h0c.19-.92.4-2.43,1.08-5a.11.11,0,0,1,.12-.1H83.5a.08.08,0,0,1,.09.11l-2,6.73c0,.1,0,.12-.17.12Z" transform="translate(-0.05 -7.57)"/></g></g><g class="b"><g class="b"><path class="a" d="M9.31,19.37c-.18,0-.24-.08-.24-.23V16.46c0-.13.08-.16.21-.16h6c.21,0,.24.05.24.21v8.61c0,.15,0,.2-.19.26a15.72,15.72,0,0,1-5.25.88C3.9,26.26.91,22.36.91,17.6c0-5.38,3.85-8.89,9.7-8.89a11,11,0,0,1,4.21.62c.13,0,.18.13.18.34v2.84c0,.18-.1.23-.23.15a9.32,9.32,0,0,0-4.06-.75C6.66,11.86,4.63,14,4.63,17.5a5.23,5.23,0,0,0,5.61,5.61,5.45,5.45,0,0,0,1.64-.18V19.5Z" transform="translate(-0.05 -7.57)"/><path class="a" d="M21.55,20.49c.13,1.48,1.17,2.7,3.72,2.7a8,8,0,0,0,3.2-.6c.08-.05.16,0,.16.13v2.47a.29.29,0,0,1-.19.32,8.76,8.76,0,0,1-4,.75c-4.89,0-6.61-3.35-6.61-6.58,0-3.59,2.21-6.86,6.29-6.86s5.49,3,5.49,5.61a8.28,8.28,0,0,1-.13,1.75.22.22,0,0,1-.21.2,21.68,21.68,0,0,1-2.68.11ZM24.93,18a7.23,7.23,0,0,0,1.3-.06v-.18A2.11,2.11,0,0,0,24,15.68,2.46,2.46,0,0,0,21.53,18Z" transform="translate(-0.05 -7.57)"/><path class="a" d="M38.69,25.56c0,.15,0,.28-.18.34a6.5,6.5,0,0,1-2.32.36c-2.26,0-3.59-1.12-3.59-3.72V16.09H31c-.15,0-.2-.07-.2-.23V13.31c0-.18.05-.23.23-.23h1.56a29.5,29.5,0,0,1,.26-3.15.27.27,0,0,1,.23-.23l3.05-.39c.13,0,.2,0,.2.15-.07.81-.13,2.34-.13,3.62h2.4c.15,0,.2.05.2.21v2.62c0,.13-.05.16-.18.18H36.22v5.57c0,1.14.34,1.66,1.4,1.66a5.51,5.51,0,0,0,.89-.1c.1,0,.18,0,.18.18Z" transform="translate(-0.05 -7.57)"/><path class="a" d="M50.05,7.57c.21,0,.26,0,.26.2V13.1a8.39,8.39,0,0,1,2.18-.28A5.94,5.94,0,0,1,58.73,19c0,4.86-3.84,7.25-7.8,7.25a13.49,13.49,0,0,1-4.08-.6.29.29,0,0,1-.16-.26V7.75c0-.13.06-.18.19-.18Zm1.79,8.32a5.68,5.68,0,0,0-1.53.2v7.05a3.92,3.92,0,0,0,1,.1A3.57,3.57,0,0,0,55,19.34C55,17,53.66,15.89,51.84,15.89Z" transform="translate(-0.05 -7.57)"/><path class="a" d="M71.21,23.11c0,.68,0,1.23.05,1.85,0,.05,0,.1-.05.13a14.41,14.41,0,0,1-5.67,1.17c-2.88,0-5.25-1.33-5.25-4.34,0-2.76,2.42-4.21,5.88-4.21a11.34,11.34,0,0,1,1.53.05v-.18c0-.5-.31-1.64-2.49-1.64a8.41,8.41,0,0,0-3.44.7.15.15,0,0,1-.23-.13V13.88a.23.23,0,0,1,.18-.26,9.9,9.9,0,0,1,4.08-.8c3.75,0,5.41,2.31,5.41,5.28ZM67.7,20.44a8.47,8.47,0,0,0-1.3-.08c-1.84,0-2.6.6-2.6,1.53s.65,1.56,2.29,1.56a5.4,5.4,0,0,0,1.61-.23Z" transform="translate(-0.05 -7.57)"/><path class="a" d="M83.33,25.64c0,.13,0,.18-.13.2a8,8,0,0,1-2.91.42c-4.22,0-6.87-2.83-6.87-6.66s2.94-6.78,7.36-6.78a7.28,7.28,0,0,1,2.39.28c.13.06.16.13.16.29l0,2.68c0,.18-.1.21-.21.18a6.51,6.51,0,0,0-2.18-.31c-2.18,0-3.77,1.19-3.77,3.53,0,2.71,2,3.59,3.82,3.59a8.6,8.6,0,0,0,2.16-.23c.16,0,.21,0,.21.1Z" transform="translate(-0.05 -7.57)"/><path class="a" d="M97.32,13.08c.18,0,.26.13.15.26-.8,1-3.92,4.42-4.91,5.48a.08.08,0,0,0,0,.11c1.51,1.87,4,4.89,5.59,6.84.1.07,0,.23-.13.23H93.88c-.18,0-.23-.08-.33-.18-.81-1-3-3.93-4.27-5.54v5.46c0,.18,0,.26-.23.26H85.9c-.21,0-.26-.08-.26-.26v-18c0-.1,0-.2.26-.2h3.15c.13,0,.23,0,.23.2V18.46c1.35-1.61,3.77-4.52,4.32-5.2a.38.38,0,0,1,.36-.18Z" transform="translate(-0.05 -7.57)"/><path class="a" d="M117,19.47c0,4.09-2.65,6.79-6.4,6.79-4.44,0-6.42-3.35-6.42-6.71,0-3.69,2.47-6.73,6.47-6.73C114.84,12.82,117,16,117,19.47Zm-9.15,0c0,2.29,1.06,3.74,2.8,3.74,1.51,0,2.66-1.3,2.66-3.69,0-2-.84-3.72-2.81-3.72C109,15.83,107.85,17.19,107.85,19.5Z" transform="translate(-0.05 -7.57)"/><path class="a" d="M119.34,16.09c0-.88,0-2.23-.11-2.8,0-.13,0-.21.19-.21h2.73a.3.3,0,0,1,.33.21,2.85,2.85,0,0,1,.21.85,5.72,5.72,0,0,1,3.69-1.32c2,0,4.37,1,4.37,5.22v7.73c0,.15-.05.23-.23.23H127.4c-.18,0-.26-.08-.26-.23V18.36c0-1.56-.68-2.4-2-2.4a3.19,3.19,0,0,0-2.16.81v9a.2.2,0,0,1-.23.21h-3.15c-.18,0-.23-.08-.23-.23Z" transform="translate(-0.05 -7.57)"/><path class="a" d="M146.14,25.56c0,.15,0,.28-.18.34a6.44,6.44,0,0,1-2.31.36c-2.27,0-3.59-1.12-3.59-3.72V16.09H138.5c-.16,0-.21-.07-.21-.23V13.31c0-.18.05-.23.24-.23h1.55a29.5,29.5,0,0,1,.26-3.15.28.28,0,0,1,.24-.23l3-.39c.13,0,.21,0,.21.15-.08.81-.13,2.34-.13,3.62h2.39c.16,0,.21.05.21.21v2.62c0,.13-.05.16-.18.18h-2.45v5.57c0,1.14.34,1.66,1.41,1.66a5.27,5.27,0,0,0,.88-.1c.11,0,.18,0,.18.18Z" transform="translate(-0.05 -7.57)"/><path class="a" d="M152,25.79c0,.16-.05.21-.21.21h-3.2a.19.19,0,0,1-.21-.21v-18c0-.11,0-.18.21-.18h3.2c.16,0,.21,0,.21.18v6.13a5.8,5.8,0,0,1,3.4-1.06c2,0,4.4,1,4.4,5.22v7.73c0,.15,0,.23-.24.23h-3.12c-.18,0-.25-.08-.25-.23V18.41c0-1.64-.71-2.45-2.06-2.45a3.56,3.56,0,0,0-2.13.65Z" transform="translate(-0.05 -7.57)"/><path class="a" d="M165.85,20.49c.13,1.48,1.17,2.7,3.72,2.7a8,8,0,0,0,3.2-.6c.07-.05.15,0,.15.13v2.47c0,.19,0,.26-.18.32a8.78,8.78,0,0,1-4,.75c-4.89,0-6.6-3.35-6.6-6.58,0-3.59,2.21-6.86,6.29-6.86s5.49,3,5.49,5.61a9,9,0,0,1-.13,1.75.22.22,0,0,1-.21.2,21.81,21.81,0,0,1-2.68.11ZM169.23,18a7.33,7.33,0,0,0,1.3-.06v-.18a2.11,2.11,0,0,0-2.21-2.05,2.47,2.47,0,0,0-2.5,2.29Z" transform="translate(-0.05 -7.57)"/></g><g class="b"><path class="a" d="M5.69,45.7c-1.22,0-1.61.45-1.61.89s.34.78,1.85,1.35c3.14,1.14,4.13,2.37,4.13,4.21,0,2.47-1.92,4.11-5.35,4.11a8.4,8.4,0,0,1-3.77-.73c-.13-.08-.19-.15-.19-.28V52.44c0-.16.11-.24.21-.16a7.33,7.33,0,0,0,3.82,1c1.23,0,1.77-.34,1.77-.88s-.44-.86-2-1.43C1.64,49.92.68,48.67.68,46.8c0-2,1.63-4,5.07-4a8.66,8.66,0,0,1,3.38.52.34.34,0,0,1,.18.34v2.6c0,.15-.11.26-.26.18A8,8,0,0,0,5.69,45.7Z" transform="translate(-0.05 -7.57)"/><path class="a" d="M22.59,53.11A18.45,18.45,0,0,0,22.65,55s0,.1-.06.13a14.36,14.36,0,0,1-5.66,1.17c-2.89,0-5.26-1.33-5.26-4.34,0-2.76,2.42-4.21,5.88-4.21a11.34,11.34,0,0,1,1.53,0v-.18c0-.5-.31-1.64-2.49-1.64a8.32,8.32,0,0,0-3.43.7.16.16,0,0,1-.24-.13V43.88a.23.23,0,0,1,.18-.26,9.92,9.92,0,0,1,4.09-.8c3.74,0,5.4,2.31,5.4,5.28Zm-3.51-2.67a8.47,8.47,0,0,0-1.3-.08c-1.84,0-2.6.6-2.6,1.53s.65,1.56,2.29,1.56a5.4,5.4,0,0,0,1.61-.23Z" transform="translate(-0.05 -7.57)"/><path class="a" d="M25.92,56c-.18,0-.23-.08-.23-.23V45.89c0-1-.08-2.08-.11-2.58,0-.15.06-.23.21-.23h2.76a.37.37,0,0,1,.31.15,3.79,3.79,0,0,1,.16,1,5.61,5.61,0,0,1,3.74-1.38,3.7,3.7,0,0,1,3.33,1.66,6.33,6.33,0,0,1,4.21-1.66c2.26,0,4.45,1.22,4.45,5.15v7.8a.21.21,0,0,1-.24.23H41.39c-.18,0-.26-.08-.26-.23V48.33c0-1.35-.47-2.39-2-2.39a3.46,3.46,0,0,0-2.21.83A11.75,11.75,0,0,1,37,48.23v7.54c0,.13-.05.23-.2.23H33.67c-.16,0-.26,0-.26-.23V48.23c0-1.56-.73-2.27-2-2.27a3.54,3.54,0,0,0-2.13.73v9.1c0,.13-.05.21-.23.21Z" transform="translate(-0.05 -7.57)"/><path class="a" d="M50.78,50.49c.13,1.48,1.17,2.7,3.72,2.7a7.92,7.92,0,0,0,3.19-.6c.08-.05.16,0,.16.13v2.47c0,.19-.05.26-.18.32a8.81,8.81,0,0,1-4,.75c-4.89,0-6.61-3.35-6.61-6.58,0-3.59,2.22-6.86,6.3-6.86,3.92,0,5.48,3,5.48,5.61a8.28,8.28,0,0,1-.13,1.75.2.2,0,0,1-.2.2,21.81,21.81,0,0,1-2.68.11ZM54.16,48a7.42,7.42,0,0,0,1.3-.06v-.18a2.12,2.12,0,0,0-2.21-2A2.47,2.47,0,0,0,50.75,48Z" transform="translate(-0.05 -7.57)"/><path class="a" d="M79.14,49.14c0,4.75-3.9,7.12-8,7.12a3.15,3.15,0,0,1-.5,0v4.42c0,.13,0,.21-.2.24-1.07.1-3.07.28-3.23.31s-.18-.05-.18-.18V45.73c0-.36,0-1.33-.08-1.72a.13.13,0,0,1,.1-.13,16.84,16.84,0,0,1,5.47-1.06C77.09,42.82,79.14,45.89,79.14,49.14Zm-8.45-3v7.1a4.57,4.57,0,0,0,.84.05,3.67,3.67,0,0,0,3.9-3.87c0-2.24-1.15-3.48-3.18-3.48A5.26,5.26,0,0,0,70.69,46.09Z" transform="translate(-0.05 -7.57)"/><path class="a" d="M91.57,53.11c0,.68,0,1.23.05,1.85,0,0,0,.1-.05.13a14.44,14.44,0,0,1-5.67,1.17c-2.88,0-5.25-1.33-5.25-4.34,0-2.76,2.42-4.21,5.88-4.21a11.34,11.34,0,0,1,1.53,0v-.18c0-.5-.31-1.64-2.5-1.64a8.36,8.36,0,0,0-3.43.7.15.15,0,0,1-.23-.13V43.88a.23.23,0,0,1,.18-.26,9.87,9.87,0,0,1,4.08-.8c3.75,0,5.41,2.31,5.41,5.28Zm-3.51-2.67a8.55,8.55,0,0,0-1.3-.08c-1.85,0-2.6.6-2.6,1.53s.65,1.56,2.29,1.56a5.4,5.4,0,0,0,1.61-.23Z" transform="translate(-0.05 -7.57)"/><path class="a" d="M101.11,53c3.72.19,5.1,1.69,5.1,3.75,0,2.7-2.65,4.89-6.84,4.89-4.34,0-6.24-2.16-6.24-4,0-.84.68-1.88,2.39-3.31a3.22,3.22,0,0,1-.54-2,3.68,3.68,0,0,1,.46-1.71,3.75,3.75,0,0,1-1.79-3.36c0-2.49,1.95-4.44,5.33-4.44a14.48,14.48,0,0,1,2.47.21,2.81,2.81,0,0,0,.62,0h3.57c.13,0,.18.05.18.18v2.42c0,.13,0,.18-.18.18-.39,0-1.25-.08-1.8-.13a3.33,3.33,0,0,1,.39,1.69c0,2.76-2.26,4.13-5.15,4.13-.28,0-.59,0-.88,0a1.28,1.28,0,0,0,0,.7,1.39,1.39,0,0,0,.28.68ZM97.42,55.9a2.52,2.52,0,0,0-1,1.37c0,.81,1.15,1.69,3.17,1.69,2.32,0,3.31-.8,3.31-1.66s-1.15-1.22-2.6-1.3Zm-.26-8.69A1.69,1.69,0,0,0,99,49a1.59,1.59,0,0,0,1.79-1.69,1.82,1.82,0,1,0-3.64-.08Z" transform="translate(-0.05 -7.57)"/><path class="a" d="M110.45,50.49c.13,1.48,1.17,2.7,3.72,2.7a8,8,0,0,0,3.19-.6c.08-.05.16,0,.16.13v2.47c0,.19,0,.26-.18.32a8.81,8.81,0,0,1-4,.75c-4.89,0-6.61-3.35-6.61-6.58,0-3.59,2.21-6.86,6.3-6.86,3.92,0,5.48,3,5.48,5.61a8.28,8.28,0,0,1-.13,1.75.2.2,0,0,1-.2.2,21.81,21.81,0,0,1-2.68.11ZM113.83,48a7.42,7.42,0,0,0,1.3-.06v-.18a2.12,2.12,0,0,0-2.21-2,2.47,2.47,0,0,0-2.5,2.29Z" transform="translate(-0.05 -7.57)"/><path class="a" d="M137.23,56c-.21,0-.26-.08-.32-.23-1.3-5.31-1.71-7.7-2-9h0c-.65,2.86-1.17,5-2.26,9-.05.18-.13.23-.29.23h-3.25c-.26,0-.31,0-.36-.23l-3.38-12.46c-.05-.13,0-.23.21-.23h3.3c.16,0,.21.05.23.18,1.38,5.62,1.75,8.11,1.93,9.2h.05c.21-.93.62-3.38,2.13-9.15,0-.15.05-.23.24-.23h3.43c.13,0,.18.05.21.18,1.37,5.75,1.74,8.27,1.92,9.31h0c.37-1.69.76-4.5,2-9.31a.22.22,0,0,1,.24-.18h3c.11,0,.21.08.16.21l-3.72,12.48c0,.18-.08.23-.31.23Z" transform="translate(-0.05 -7.57)"/><path class="a" d="M146.14,39.67a2,2,0,0,1,2-2,1.88,1.88,0,0,1,2,2,2,2,0,1,1-4,0Zm.19,3.62c0-.13,0-.21.2-.21h3.2c.16,0,.21.05.21.21V55.77c0,.15,0,.23-.23.23h-3.12c-.19,0-.26-.08-.26-.23Z" transform="translate(-0.05 -7.57)"/><path class="a" d="M159.71,55.56c0,.15,0,.28-.18.34a6.41,6.41,0,0,1-2.31.36c-2.26,0-3.59-1.12-3.59-3.72V46.09h-1.56c-.15,0-.21-.07-.21-.23V43.31c0-.18.06-.23.24-.23h1.56a27.11,27.11,0,0,1,.26-3.15.26.26,0,0,1,.23-.23l3-.39c.13,0,.21,0,.21.15-.08.81-.13,2.34-.13,3.62h2.39c.16,0,.21.05.21.21v2.62c0,.13-.05.16-.18.18h-2.44v5.57c0,1.14.33,1.66,1.4,1.66a5.27,5.27,0,0,0,.88-.1c.11,0,.18,0,.18.18Z" transform="translate(-0.05 -7.57)"/><path class="a" d="M165.59,55.79c0,.16-.05.21-.21.21h-3.19c-.16,0-.21-.08-.21-.21v-18c0-.11,0-.18.21-.18h3.19c.16,0,.21,0,.21.18v6.13A5.81,5.81,0,0,1,169,42.82c2,0,4.39,1,4.39,5.22v7.73c0,.15,0,.23-.23.23H170c-.18,0-.26-.08-.26-.23V48.41c0-1.64-.7-2.45-2.06-2.45a3.58,3.58,0,0,0-2.13.65Z" transform="translate(-0.05 -7.57)"/></g><g class="b"><path class="a" d="M4.81,81.94,3.56,85.79a.28.28,0,0,1-.28.21h-3c-.18,0-.23-.1-.21-.26l5.2-15a4.56,4.56,0,0,0,.26-1.59A.18.18,0,0,1,5.67,69H9.83c.13,0,.18,0,.21.16l5.9,16.64c.05.13,0,.23-.13.23H12.43a.26.26,0,0,1-.29-.18l-1.32-3.88Zm5-3.25C9.33,77,8.29,73.83,7.8,72h0c-.41,1.74-1.35,4.6-2,6.7Z" transform="translate(-0.05 -7.57)"/><path class="a" d="M26.62,85.64c0,.13,0,.18-.13.2a8,8,0,0,1-2.91.42c-4.21,0-6.86-2.83-6.86-6.66s2.94-6.78,7.36-6.78a7.32,7.32,0,0,1,2.39.28c.13.06.15.13.15.29l0,2.68c0,.18-.11.21-.21.18a6.51,6.51,0,0,0-2.18-.31c-2.19,0-3.77,1.19-3.77,3.53,0,2.71,2,3.59,3.82,3.59a8.66,8.66,0,0,0,2.16-.23c.15,0,.2,0,.2.1Z" transform="translate(-0.05 -7.57)"/><path class="a" d="M31.69,73.08a.3.3,0,0,1,.32.23,4.84,4.84,0,0,1,.28,1.46,5.42,5.42,0,0,1,4.14-2c.15,0,.2.05.2.21v3.19c0,.13-.05.19-.23.19a5.38,5.38,0,0,0-3.93,1.11l0,8.27c0,.16-.05.21-.24.21H29.09c-.2,0-.26-.08-.26-.23v-9c0-1.12,0-2.63-.13-3.54,0-.13,0-.18.16-.18Z" transform="translate(-0.05 -7.57)"/><path class="a" d="M50.6,79.47c0,4.09-2.66,6.79-6.4,6.79-4.45,0-6.42-3.35-6.42-6.71,0-3.69,2.47-6.73,6.47-6.73C48.44,72.82,50.6,76,50.6,79.47Zm-9.16,0c0,2.29,1.07,3.74,2.81,3.74,1.51,0,2.65-1.3,2.65-3.69,0-2-.83-3.72-2.8-3.72C42.59,75.83,41.44,77.19,41.44,79.5Z" transform="translate(-0.05 -7.57)"/><path class="a" d="M56.29,67.57c.21,0,.26,0,.26.2V73.1a8.45,8.45,0,0,1,2.18-.28A5.94,5.94,0,0,1,65,79c0,4.86-3.84,7.25-7.8,7.25a13.49,13.49,0,0,1-4.08-.6.28.28,0,0,1-.15-.26V67.75c0-.13.05-.18.18-.18Zm1.79,8.32a5.68,5.68,0,0,0-1.53.2v7a3.92,3.92,0,0,0,1,.1,3.57,3.57,0,0,0,3.77-3.9C61.28,77,59.9,75.89,58.08,75.89Z" transform="translate(-0.05 -7.57)"/><path class="a" d="M77.45,83.11A18.45,18.45,0,0,0,77.51,85c0,.05,0,.1-.06.13a14.36,14.36,0,0,1-5.66,1.17c-2.89,0-5.26-1.33-5.26-4.34,0-2.76,2.42-4.21,5.88-4.21a11.34,11.34,0,0,1,1.53.05v-.18c0-.5-.31-1.64-2.49-1.64a8.32,8.32,0,0,0-3.43.7.16.16,0,0,1-.24-.13V73.88a.23.23,0,0,1,.18-.26,9.92,9.92,0,0,1,4.09-.8c3.74,0,5.4,2.31,5.4,5.28Zm-3.51-2.67a8.47,8.47,0,0,0-1.3-.08c-1.84,0-2.6.6-2.6,1.53s.65,1.56,2.29,1.56a5.4,5.4,0,0,0,1.61-.23Z" transform="translate(-0.05 -7.57)"/><path class="a" d="M86.81,85.56c0,.15,0,.28-.18.34a6.44,6.44,0,0,1-2.31.36c-2.27,0-3.59-1.12-3.59-3.72V76.09H79.17c-.16,0-.21-.07-.21-.23V73.31c0-.18.05-.23.23-.23h1.56A29.5,29.5,0,0,1,81,69.93a.28.28,0,0,1,.24-.23l3-.39c.13,0,.21,0,.21.15-.08.81-.13,2.34-.13,3.62h2.39c.16,0,.21,0,.21.21v2.62c0,.13,0,.16-.18.18H84.34v5.57c0,1.14.34,1.66,1.41,1.66a5.27,5.27,0,0,0,.88-.1c.11,0,.18,0,.18.18Z" transform="translate(-0.05 -7.57)"/><path class="a" d="M95.13,69.2c0-.15,0-.2.16-.2,1.06,0,3.12-.08,5.09-.08,5.26,0,7.08,2.91,7.08,5.74,0,4.22-3.25,6-7.26,6H98.72v5.12c0,.13,0,.21-.21.21h-3.2c-.13,0-.18-.08-.18-.21Zm3.59,8.27c.44,0,.73,0,1.46,0,2,0,3.69-.63,3.69-2.76,0-1.64-1.12-2.68-3.38-2.68-.83,0-1.54,0-1.77.06Z" transform="translate(-0.05 -7.57)"/><path class="a" d="M112.47,73.08a.3.3,0,0,1,.32.23,4.84,4.84,0,0,1,.28,1.46,5.42,5.42,0,0,1,4.14-2c.15,0,.2.05.2.21v3.19c0,.13,0,.19-.23.19a5.38,5.38,0,0,0-3.93,1.11l0,8.27c0,.16,0,.21-.24.21h-3.12c-.2,0-.26-.08-.26-.23v-9c0-1.12,0-2.63-.13-3.54,0-.13,0-.18.16-.18Z" transform="translate(-0.05 -7.57)"/><path class="a" d="M131.38,79.47c0,4.09-2.66,6.79-6.4,6.79-4.45,0-6.42-3.35-6.42-6.71,0-3.69,2.47-6.73,6.47-6.73C129.22,72.82,131.38,76,131.38,79.47Zm-9.16,0c0,2.29,1.07,3.74,2.81,3.74,1.51,0,2.65-1.3,2.65-3.69,0-2-.83-3.72-2.8-3.72C123.37,75.83,122.22,77.19,122.22,79.5Z" transform="translate(-0.05 -7.57)"/><path class="a" d="M139.93,69.2c0-.13,0-.18.18-.2.78,0,2.76-.08,5.07-.08,6.22,0,9.26,3.48,9.26,8.29,0,6.22-4.79,8.84-9.21,8.84-1.71,0-4.31,0-5.15,0-.1,0-.15-.08-.15-.26Zm3.61,13.68c.52,0,.94.05,1.54.05,3.4,0,5.64-2.05,5.64-5.67s-2.24-5.2-5.56-5.2c-.63,0-1,0-1.62,0Z" transform="translate(-0.05 -7.57)"/><path class="a" d="M169.28,85.43c0,.18-.05.31-.2.36a11.47,11.47,0,0,1-3.62.47c-5,0-9-3-9-8.68,0-5.28,3.64-8.87,9.39-8.87a8.7,8.7,0,0,1,3.38.44.29.29,0,0,1,.18.31V72.3c0,.23-.13.23-.23.18a8.08,8.08,0,0,0-3.38-.57c-3.49,0-5.62,2.16-5.62,5.54,0,4,3,5.59,5.69,5.59a9.77,9.77,0,0,0,3.18-.42c.13-.05.2,0,.2.13Z" transform="translate(-0.05 -7.57)"/><path class="a" d="M172,84.08a2.16,2.16,0,1,1,4.31,0,2,2,0,0,1-2.16,2.18A2,2,0,0,1,172,84.08Z" transform="translate(-0.05 -7.57)"/></g></g></svg>