<svg xmlns="http://www.w3.org/2000/svg" viewBox="0 0 176.25 209.47"><defs><style>.a{fill:#fff;}</style></defs><title>F1_copy-cta-logo_ro</title><path class="a" d="M19.28,169.43H30v25.71Z" transform="translate(-0.02 0.03)"/><path class="a" d="M11.72,169.43H1v25.71Z" transform="translate(-0.02 0.03)"/><path class="a" d="M15.5,178.9l6.84,16.24H17.86l-2-5.17h-5Z" transform="translate(-0.02 0.03)"/><path class="a" d="M4.71,205.43c-.21-1.05-.58-2.62-.72-3.64H4c-.15,1-.42,2.38-.66,3.64ZM3,207l-.48,2.24c0,.08,0,.1-.11.1H1.05c-.09,0-.12,0-.1-.15l1.88-8.1a3,3,0,0,0,0-.79.08.08,0,0,1,.07-.08H5c.07,0,.1,0,.12.1l2.19,8.9c0,.08,0,.11-.09.11H5.62a.1.1,0,0,1-.11-.08h0L5,207Z" transform="translate(-0.02 0.03)"/><path class="a" d="M10.85,203.68a1.61,1.61,0,0,0-.31,0c-.8,0-1.39.72-1.39,2.14s.59,2.12,1.37,2.12h.33Zm-3.38,2.15c0-2.06,1.21-3.66,3.15-3.66h.23v-2.43s0-.07.06-.08h1.54c.06,0,.07,0,.07.08v8.15a7.53,7.53,0,0,0,0,1,.11.11,0,0,1-.06.1,4.73,4.73,0,0,1-2.05.5C8.67,209.43,7.47,208.26,7.47,205.83Z" transform="translate(-0.02 0.03)"/><path class="a" d="M15.08,205.78c0,1.31.29,2.18.92,2.18s.91-.74.91-2.17-.23-2.15-.9-2.15S15.08,204.31,15.08,205.78Zm3.49,0c0,2.23-.93,3.65-2.57,3.65-1.85,0-2.58-1.61-2.58-3.67s.94-3.6,2.61-3.6,2.55,1.34,2.55,3.61Z" transform="translate(-0.02 0.03)"/><path class="a" d="M21.65,203.67a1.79,1.79,0,0,0-.51.07v4.18a.76.76,0,0,0,.3,0c.64,0,1.39-.65,1.4-2.4C22.85,204.16,22.3,203.67,21.65,203.67Zm-.58-4c.06,0,.07,0,.07.09v2.5a3.22,3.22,0,0,1,.76-.09c1.48,0,2.59,1.14,2.59,3.33,0,2.56-1.45,3.94-3.28,3.94a5.42,5.42,0,0,1-1.65-.26.12.12,0,0,1-.08-.11v-9.31a.07.07,0,0,1,0-.08h1.55Z" transform="translate(-0.02 0.03)"/><path class="a" d="M28,204.86h.42a.38.38,0,0,0,0-.15c0-.54-.16-1.1-.75-1.1s-.79.58-.86,1.27Zm-1.2,1.33c0,1.09.41,1.75,1.55,1.75a2.66,2.66,0,0,0,1.08-.2c.07,0,.11,0,.11.07V209c0,.1,0,.16-.1.19a3.06,3.06,0,0,1-1.4.25c-2.07,0-2.88-1.52-2.88-3.52s.93-3.74,2.59-3.74S30,203.71,30,205A9.55,9.55,0,0,1,30,206a.14.14,0,0,1-.13.11H28.48Z" transform="translate(-0.02 0.03)"/><path class="a" d="M70.1,119.27c-.81,0-1.43.77-1.43,2s.57,2,1.51,2,1.43-.7,1.43-2C71.61,120.18,71.16,119.27,70.1,119.27Z" transform="translate(-0.02 0.03)"/><path class="a" d="M26.19,119.22h0a1.33,1.33,0,0,0-1.35,1.21h1.84a4.09,4.09,0,0,0,.7,0v-.1A1.14,1.14,0,0,0,26.19,119.22Z" transform="translate(-0.02 0.03)"/><path class="a" d="M78,101.93H20a18.5,18.5,0,0,0,0,37H78a18.5,18.5,0,0,0,0-37ZM22.61,124.82h-2c-.12,0-.17,0-.19-.08-.41-.62-1.29-2.12-1.87-3.07-.09-.16-.16-.24-.32-.24h-1v3.28a.1.1,0,0,1-.09.11h0l-1.73,0c-.09,0-.12,0-.12-.12v-8.9c0-.07,0-.14.1-.14H18.3c2.32,0,3.63,1,3.63,2.8a2.65,2.65,0,0,1-1.75,2.47c.46.63,2,3,2.48,3.77C22.66,124.74,22.71,124.82,22.61,124.82Zm6.58-4.09a5,5,0,0,1-.07.94c0,.07,0,.09-.11.11a11.53,11.53,0,0,1-1.44,0l-2.73,0c.07.8.63,1.46,2,1.46a4.41,4.41,0,0,0,1.72-.32s.09,0,.09.07v1.33c0,.1,0,.14-.1.17a4.77,4.77,0,0,1-2.14.4,3.28,3.28,0,0,1-3.55-3,2.9,2.9,0,0,1,0-.51A3.43,3.43,0,0,1,26,117.74h.26a2.86,2.86,0,0,1,3,2.76Zm7.4,3.91c0,.08,0,.12-.12.12H34.78c-.1,0-.14,0-.14-.12v-4c0-.85-.37-1.29-1.1-1.29a1.75,1.75,0,0,0-1.16.43v4.86c0,.07,0,.11-.12.11h-1.7c-.1,0-.13,0-.13-.12v-5.2a13.79,13.79,0,0,0-.05-1.52c0-.07,0-.11.1-.11H32a.16.16,0,0,1,.18.11,1.53,1.53,0,0,1,.11.47,3.05,3.05,0,0,1,2-.72c1.08,0,2.35.56,2.35,2.82Zm7.64-3.91a5,5,0,0,1-.07.94c0,.07,0,.09-.12.11a11.53,11.53,0,0,1-1.44,0l-2.77,0c.07.8.63,1.46,2,1.46a4.46,4.46,0,0,0,1.73-.32s.08,0,.08.07v1.33c0,.1,0,.14-.1.17a4.77,4.77,0,0,1-2.14.4,3.28,3.28,0,0,1-3.55-3,2.9,2.9,0,0,1,0-.51A3.43,3.43,0,0,1,41,117.74h.26a2.86,2.86,0,0,1,3,2.71Zm8.83,4c0,.1,0,.12-.17.12l-1.63,0c-.12,0-.14,0-.17-.12-.7-2.86-.93-4.15-1.07-4.84-.35,1.55-.63,2.71-1.22,4.84,0,.1-.07.12-.15.12H46.89c-.14,0-.17,0-.2-.12L44.87,118c0-.07,0-.13.11-.13h1.78a.11.11,0,0,1,.13.09h0a39.26,39.26,0,0,1,1,5c.11-.5.34-1.82,1.15-4.93,0-.09,0-.13.12-.13H51c.07,0,.1,0,.12.1a47.53,47.53,0,0,1,1,5c.2-.92.41-2.43,1.08-5a.11.11,0,0,1,.12-.1H55c.06,0,.12,0,.09.11Zm12.4-.06c0,.08,0,.12-.13.12h-1.7c-.1,0-.14,0-.14-.12v-4c0-.85-.36-1.29-1.09-1.29a1.7,1.7,0,0,0-1.16.43v4.86c0,.07,0,.11-.13.11h-1.7c-.09,0-.12,0-.12-.12v-5.2a11.51,11.51,0,0,0-.06-1.52c0-.07,0-.11.1-.11H60.8c.11,0,.16,0,.18.11a1.91,1.91,0,0,1,.12.47,3,3,0,0,1,2-.72c1.08,0,2.36.56,2.36,2.82Zm8.14-3.37a3.46,3.46,0,1,1-6.91.37,2.29,2.29,0,0,1,0-.37,3.42,3.42,0,0,1,3.22-3.62h.27a3.34,3.34,0,0,1,3.43,3.25C73.61,121,73.61,121.14,73.6,121.27ZM84.54,118l-2,6.73c0,.1,0,.12-.17.12l-1.76,0c-.11,0-.14,0-.16-.12-.71-2.86-.93-4.15-1.07-4.84-.35,1.55-.63,2.71-1.22,4.84,0,.1-.07.12-.16.12H76.24c-.14,0-.16,0-.19-.12L74.23,118c0-.07,0-.13.11-.13h1.78c.08,0,.11,0,.12.1a35.62,35.62,0,0,1,1,5c.11-.5.33-1.82,1.15-4.93,0-.09,0-.13.12-.13h1.85c.07,0,.1,0,.11.1a42.18,42.18,0,0,1,1,5c.19-.92.4-2.43,1.08-5a.11.11,0,0,1,.12-.1h1.78a.07.07,0,0,1,.09.06A0,0,0,0,1,84.54,118Z" transform="translate(-0.02 0.03)"/><path class="a" d="M41.18,119.22h0a1.32,1.32,0,0,0-1.34,1.21h1.83a4.09,4.09,0,0,0,.7,0v-.1A1.14,1.14,0,0,0,41.18,119.22Z" transform="translate(-0.02 0.03)"/><path class="a" d="M18.24,117.32H17.18v2.44l1.08,0c1,0,1.72-.42,1.72-1.25S19.28,117.32,18.24,117.32Z" transform="translate(-0.02 0.03)"/><path class="a" d="M9.26,11.8c-.18,0-.24-.08-.24-.23V8.89c0-.13.08-.16.21-.16h6c.21,0,.24,0,.24.21v8.61c0,.15,0,.2-.19.26a15.64,15.64,0,0,1-5.25.88C3.85,18.69.86,14.79.86,10c0-5.38,3.85-8.89,9.7-8.89a11,11,0,0,1,4.21.62c.13,0,.18.13.18.34V4.94c0,.18-.1.23-.23.15a9.28,9.28,0,0,0-4.06-.75c-4,0-6.08,2.09-6.08,5.59a5.23,5.23,0,0,0,5.61,5.61,5.66,5.66,0,0,0,1.64-.18V11.93Z" transform="translate(-0.02 0.03)"/><path class="a" d="M21.5,12.92c.13,1.48,1.17,2.7,3.72,2.7a8,8,0,0,0,3.2-.6c.08,0,.16,0,.16.13v2.47a.3.3,0,0,1-.19.32,8.75,8.75,0,0,1-4,.75c-4.89,0-6.61-3.35-6.61-6.58,0-3.59,2.21-6.86,6.29-6.86s5.49,3,5.49,5.61a7.9,7.9,0,0,1-.13,1.75.22.22,0,0,1-.21.2,21.84,21.84,0,0,1-2.68.11Zm3.38-2.49a7.08,7.08,0,0,0,1.3-.06v-.18A2.1,2.1,0,0,0,24,8.11H24a2.45,2.45,0,0,0-2.47,2.32Z" transform="translate(-0.02 0.03)"/><path class="a" d="M38.64,18c0,.15,0,.28-.18.34a6.55,6.55,0,0,1-2.32.36c-2.26,0-3.59-1.12-3.59-3.72V8.52H31c-.15,0-.2-.07-.2-.23V5.74c0-.18.05-.23.23-.23h1.56a30.17,30.17,0,0,1,.26-3.15A.28.28,0,0,1,33,2.13l3-.39c.13,0,.2,0,.2.15-.07.81-.13,2.34-.13,3.62h2.4c.15,0,.2,0,.2.21V8.34c0,.13,0,.16-.18.18h-2.4v5.57c0,1.14.34,1.66,1.4,1.66a5.27,5.27,0,0,0,.89-.1c.1,0,.18,0,.18.18Z" transform="translate(-0.02 0.03)"/><path class="a" d="M50,0c.21,0,.26,0,.26.2V5.53a8.41,8.41,0,0,1,2.18-.28,5.94,5.94,0,0,1,6.24,5.63,5,5,0,0,1,0,.55c0,4.86-3.84,7.25-7.8,7.25a13.44,13.44,0,0,1-4.08-.6.29.29,0,0,1-.16-.26V.18c0-.13.06-.18.19-.18Zm1.79,8.32a5.64,5.64,0,0,0-1.53.2v7.05a3.74,3.74,0,0,0,1,.1A3.57,3.57,0,0,0,55,12.24a3.69,3.69,0,0,0,0-.47C55,9.43,53.61,8.32,51.79,8.32Z" transform="translate(-0.02 0.03)"/><path class="a" d="M71.16,15.54c0,.68,0,1.23,0,1.85,0,.05,0,.1,0,.13a14.35,14.35,0,0,1-5.67,1.17c-2.88,0-5.25-1.33-5.25-4.34,0-2.76,2.42-4.21,5.88-4.21a11.18,11.18,0,0,1,1.53,0V10c0-.5-.31-1.64-2.49-1.64a8.47,8.47,0,0,0-3.44.7A.16.16,0,0,1,61.51,9a.19.19,0,0,1,0-.08V6.31a.23.23,0,0,1,.18-.26,9.87,9.87,0,0,1,4.08-.8c3.75,0,5.41,2.31,5.41,5.28Zm-3.51-2.67a8.11,8.11,0,0,0-1.3-.08c-1.84,0-2.6.6-2.6,1.53s.65,1.56,2.29,1.56a5.14,5.14,0,0,0,1.61-.23Z" transform="translate(-0.02 0.03)"/><path class="a" d="M83.28,18.07c0,.13,0,.18-.13.2a8,8,0,0,1-2.91.42c-4.22,0-6.87-2.83-6.87-6.66s2.94-6.78,7.36-6.78a7.16,7.16,0,0,1,2.39.28c.13.06.16.13.16.29V8.5c0,.18-.1.21-.21.18a6.43,6.43,0,0,0-2.18-.31c-2.18,0-3.77,1.19-3.77,3.53,0,2.71,2,3.59,3.82,3.59a8.72,8.72,0,0,0,2.16-.23c.16,0,.21,0,.21.1Z" transform="translate(-0.02 0.03)"/><path class="a" d="M97.27,5.51c.18,0,.26.13.15.26-.8,1-3.92,4.42-4.91,5.48a.08.08,0,0,0,0,.11c1.51,1.87,4,4.89,5.59,6.84.1.07,0,.23-.13.23H93.83c-.18,0-.23-.08-.33-.18-.81-1-3-3.93-4.27-5.54v5.46c0,.18,0,.26-.23.26H85.85c-.21,0-.26-.08-.26-.26V.17c0-.1,0-.2.26-.2H89c.13,0,.23,0,.23.2V10.89c1.35-1.61,3.77-4.52,4.32-5.2a.4.4,0,0,1,.36-.18Z" transform="translate(-0.02 0.03)"/><path class="a" d="M117,11.9c0,4.09-2.65,6.79-6.4,6.79-4.44,0-6.42-3.35-6.42-6.71,0-3.69,2.47-6.73,6.47-6.73C114.79,5.25,117,8.43,117,11.9Zm-9.15,0c0,2.29,1.06,3.74,2.8,3.74,1.51,0,2.66-1.3,2.66-3.69,0-2-.84-3.72-2.81-3.72-1.5,0-2.65,1.39-2.65,3.7Z" transform="translate(-0.02 0.03)"/><path class="a" d="M119.29,8.52a21.32,21.32,0,0,0-.11-2.8c0-.13,0-.21.19-.21h2.73a.3.3,0,0,1,.33.21,3.11,3.11,0,0,1,.21.85,5.72,5.72,0,0,1,3.69-1.32c2,0,4.37,1,4.37,5.22V18.2c0,.15,0,.23-.23.23h-3.12c-.18,0-.26-.08-.26-.23V10.79c0-1.56-.68-2.4-2-2.4a3.17,3.17,0,0,0-2.16.81v9a.19.19,0,0,1-.19.21h-3.19c-.18,0-.23-.08-.23-.23Z" transform="translate(-0.02 0.03)"/><path class="a" d="M146.09,18c0,.15,0,.28-.18.34a6.46,6.46,0,0,1-2.31.36c-2.27,0-3.59-1.12-3.59-3.72V8.52h-1.56c-.16,0-.21-.07-.21-.23V5.74c0-.18,0-.23.24-.23H140a30.17,30.17,0,0,1,.26-3.15.29.29,0,0,1,.24-.23l3-.39c.13,0,.21,0,.21.15-.08.81-.13,2.34-.13,3.62H146c.16,0,.21,0,.21.21V8.34c0,.13-.05.16-.18.18h-2.45v5.57c0,1.14.34,1.66,1.41,1.66a5.16,5.16,0,0,0,.88-.1c.11,0,.18,0,.18.18Z" transform="translate(-0.02 0.03)"/><path class="a" d="M152,18.22c0,.16,0,.21-.21.21h-3.2a.19.19,0,0,1-.21-.17V.22c0-.11,0-.18.21-.18h3.2c.16,0,.21,0,.21.18V6.35a5.81,5.81,0,0,1,3.4-1.06c2,0,4.4,1,4.4,5.22v7.73c0,.15,0,.23-.24.23h-3.12c-.18,0-.25-.08-.25-.23v-7.4c0-1.64-.71-2.45-2.06-2.45A3.53,3.53,0,0,0,152,9Z" transform="translate(-0.02 0.03)"/><path class="a" d="M165.8,12.92c.13,1.48,1.17,2.7,3.72,2.7a8,8,0,0,0,3.2-.6c.07,0,.15,0,.15.13v2.47c0,.19,0,.26-.18.32a8.75,8.75,0,0,1-4,.75c-4.89,0-6.6-3.35-6.6-6.58,0-3.59,2.21-6.86,6.29-6.86s5.49,3,5.49,5.61a9.32,9.32,0,0,1-.13,1.75.22.22,0,0,1-.21.2,21.84,21.84,0,0,1-2.68.11Zm3.38-2.49a7.08,7.08,0,0,0,1.3-.06v-.18a2.11,2.11,0,0,0-2.17-2h0a2.47,2.47,0,0,0-2.5,2.29Z" transform="translate(-0.02 0.03)"/><path class="a" d="M5.64,38.13C4.42,38.13,4,38.58,4,39s.34.78,1.85,1.35C9,41.51,10,42.74,10,44.58c0,2.47-1.92,4.11-5.35,4.11A8.41,8.41,0,0,1,.89,48c-.13-.08-.19-.15-.19-.28V44.87c0-.16.11-.24.21-.16a7.33,7.33,0,0,0,3.82,1c1.23,0,1.77-.34,1.77-.88s-.44-.86-2-1.43c-2.91-1-3.87-2.3-3.87-4.17s1.63-4,5.07-4a8.65,8.65,0,0,1,3.38.52.34.34,0,0,1,.18.34v2.6c0,.15-.11.26-.26.18A8,8,0,0,0,5.64,38.13Z" transform="translate(-0.02 0.03)"/><path class="a" d="M22.54,45.54q0,.95.06,1.89s0,.1-.06.13a14.31,14.31,0,0,1-5.66,1.17c-2.89,0-5.26-1.33-5.26-4.34,0-2.76,2.42-4.21,5.88-4.21a13,13,0,0,1,1.53,0V40c0-.5-.31-1.64-2.49-1.64a8.42,8.42,0,0,0-3.43.7.16.16,0,0,1-.22-.06.14.14,0,0,1,0-.07V36.31a.23.23,0,0,1,.18-.26,9.92,9.92,0,0,1,4.09-.8c3.74,0,5.4,2.31,5.4,5.28ZM19,42.87a8.11,8.11,0,0,0-1.3-.08c-1.84,0-2.6.6-2.6,1.53s.65,1.56,2.29,1.56A5.14,5.14,0,0,0,19,45.65Z" transform="translate(-0.02 0.03)"/><path class="a" d="M25.87,48.43c-.18,0-.23-.08-.23-.23V38.32c0-1-.08-2.08-.11-2.58,0-.15.06-.23.21-.23H28.5a.37.37,0,0,1,.31.15,3.73,3.73,0,0,1,.16,1,5.65,5.65,0,0,1,3.74-1.38A3.69,3.69,0,0,1,36,36.94a6.37,6.37,0,0,1,4.21-1.66c2.26,0,4.45,1.22,4.45,5.15v7.8a.21.21,0,0,1-.19.23H41.34c-.18,0-.26-.08-.26-.23V40.76c0-1.35-.47-2.39-2-2.39a3.46,3.46,0,0,0-2.21.83A11.8,11.8,0,0,1,37,40.66V48.2c0,.13-.05.23-.2.23H33.62c-.16,0-.26,0-.26-.23V40.66c0-1.56-.73-2.27-2-2.27a3.56,3.56,0,0,0-2.13.73v9.1c0,.13-.05.21-.23.21Z" transform="translate(-0.02 0.03)"/><path class="a" d="M50.73,42.92c.13,1.48,1.17,2.7,3.72,2.7a7.94,7.94,0,0,0,3.19-.6c.08-.05.16,0,.16.13v2.47c0,.19,0,.26-.18.32a8.75,8.75,0,0,1-4,.75c-4.89,0-6.61-3.35-6.61-6.58,0-3.59,2.22-6.86,6.3-6.86,3.92,0,5.48,3,5.48,5.61a7.9,7.9,0,0,1-.13,1.75.2.2,0,0,1-.2.2h0a21.84,21.84,0,0,1-2.68.11Zm3.38-2.49a7.08,7.08,0,0,0,1.3-.06v-.18a2.12,2.12,0,0,0-2.21-2,2.47,2.47,0,0,0-2.5,2.24Z" transform="translate(-0.02 0.03)"/><path class="a" d="M79.09,41.57c0,4.75-3.9,7.12-8,7.12a4.17,4.17,0,0,1-.5,0v4.42c0,.13,0,.21-.2.24-1.07.1-3.07.28-3.23.31s-.18,0-.18-.18V38.16a12.6,12.6,0,0,0-.08-1.72.13.13,0,0,1,.1-.13,17,17,0,0,1,5.47-1.06C77,35.25,79.09,38.32,79.09,41.57Zm-8.45-3v7.1a4.74,4.74,0,0,0,.84,0,3.67,3.67,0,0,0,3.9-3.43,3.23,3.23,0,0,0,0-.44c0-2.24-1.15-3.48-3.18-3.48a5.14,5.14,0,0,0-1.56.15Z" transform="translate(-0.02 0.03)"/><path class="a" d="M91.52,45.54c0,.68,0,1.23,0,1.85,0,0,0,.1,0,.13a14.35,14.35,0,0,1-5.67,1.17c-2.88,0-5.25-1.33-5.25-4.34,0-2.76,2.42-4.21,5.88-4.21a13,13,0,0,1,1.53,0V40c0-.5-.31-1.64-2.5-1.64a8.42,8.42,0,0,0-3.43.7.16.16,0,0,1-.21-.05.19.19,0,0,1,0-.08V36.31a.23.23,0,0,1,.18-.26,9.87,9.87,0,0,1,4.08-.8c3.75,0,5.41,2.31,5.41,5.28ZM88,42.87a8.11,8.11,0,0,0-1.3-.08c-1.85,0-2.6.6-2.6,1.53s.65,1.56,2.29,1.56A5.14,5.14,0,0,0,88,45.65Z" transform="translate(-0.02 0.03)"/><path class="a" d="M101.06,45.43c3.72.19,5.1,1.69,5.1,3.75,0,2.7-2.65,4.89-6.84,4.89s-6.24-2.16-6.24-4c0-.84.68-1.88,2.39-3.31a3.16,3.16,0,0,1-.54-2,3.64,3.64,0,0,1,.46-1.71,3.75,3.75,0,0,1-1.79-3.36c0-2.49,2-4.44,5.33-4.44a14.62,14.62,0,0,1,2.47.21,3.21,3.21,0,0,0,.62,0h3.57c.13,0,.18,0,.18.18v2.42c0,.13,0,.18-.18.18-.39,0-1.25-.08-1.8-.13a3.31,3.31,0,0,1,.39,1.69c0,2.76-2.26,4.13-5.15,4.13h-.88a1.19,1.19,0,0,0,0,.7,1.41,1.41,0,0,0,.28.68Zm-3.69,2.9a2.56,2.56,0,0,0-1,1.37c0,.81,1.15,1.69,3.17,1.69,2.32,0,3.31-.8,3.31-1.66s-1.15-1.22-2.6-1.3Zm-.26-8.69a1.69,1.69,0,0,0,1.58,1.79H99a1.59,1.59,0,0,0,1.78-1.37,1.71,1.71,0,0,0,0-.32,1.82,1.82,0,1,0-3.64-.08Z" transform="translate(-0.02 0.03)"/><path class="a" d="M110.4,42.92c.13,1.48,1.17,2.7,3.72,2.7a7.94,7.94,0,0,0,3.19-.6c.08-.05.16,0,.16.13v2.47c0,.19,0,.26-.18.32a8.75,8.75,0,0,1-4,.75c-4.89,0-6.61-3.35-6.61-6.58,0-3.59,2.21-6.86,6.3-6.86,3.92,0,5.48,3,5.48,5.61a7.9,7.9,0,0,1-.13,1.75.2.2,0,0,1-.2.2,21.84,21.84,0,0,1-2.68.11Zm3.38-2.49a7.08,7.08,0,0,0,1.3-.06v-.18a2.12,2.12,0,0,0-2.21-2,2.47,2.47,0,0,0-2.5,2.29Z" transform="translate(-0.02 0.03)"/><path class="a" d="M137.18,48.43c-.21,0-.26-.08-.32-.23-1.3-5.31-1.71-7.7-2-9h0c-.65,2.86-1.17,5-2.26,9,0,.18-.13.23-.29.23h-3.25c-.26,0-.31,0-.36-.23l-3.38-12.46c0-.13,0-.23.21-.23h3.3c.16,0,.21.05.23.18,1.38,5.62,1.75,8.11,1.93,9.2h0c.21-.93.62-3.38,2.13-9.15,0-.15.05-.23.24-.23h3.43c.13,0,.18.05.21.18C138.42,41.44,138.79,44,139,45h0c.37-1.69.76-4.5,2-9.31a.23.23,0,0,1,.24-.18h3c.11,0,.21.08.16.21L140.65,48.2c0,.18-.08.23-.31.23Z" transform="translate(-0.02 0.03)"/><path class="a" d="M146.09,32.1a2,2,0,0,1,2-2,1.88,1.88,0,0,1,2,1.75,1,1,0,0,1,0,.25,2,2,0,0,1-4,0Zm.19,3.62c0-.13,0-.21.2-.21h3.2c.16,0,.21.05.21.21V48.2c0,.15,0,.23-.23.23h-3.12c-.19,0-.26-.08-.26-.23Z" transform="translate(-0.02 0.03)"/><path class="a" d="M159.66,48c0,.15,0,.28-.18.34a6.46,6.46,0,0,1-2.31.36c-2.26,0-3.59-1.12-3.59-3.72V38.52H152c-.15,0-.21-.07-.21-.23V35.74c0-.18.06-.23.24-.23h1.56a27.68,27.68,0,0,1,.26-3.15.26.26,0,0,1,.23-.23l3-.39c.13,0,.21,0,.21.15-.08.81-.13,2.34-.13,3.62h2.39c.16,0,.21.05.21.21v2.62c0,.13-.05.16-.18.18h-2.44v5.57c0,1.14.33,1.66,1.4,1.66a5.16,5.16,0,0,0,.88-.1c.11,0,.18,0,.18.18Z" transform="translate(-0.02 0.03)"/><path class="a" d="M165.54,48.22c0,.16,0,.21-.21.21h-3.19c-.16,0-.21-.08-.21-.21v-18c0-.11,0-.18.21-.18h3.19c.16,0,.21,0,.21.18v6.13a5.8,5.8,0,0,1,3.41-1.1c2,0,4.39,1,4.39,5.22V48.2c0,.15,0,.23-.23.23H170c-.18,0-.26-.08-.26-.23V40.84c0-1.64-.7-2.45-2.06-2.45a3.53,3.53,0,0,0-2.13.65Z" transform="translate(-0.02 0.03)"/><path class="a" d="M4.76,74.37,3.51,78.22a.28.28,0,0,1-.28.21h-3c-.18,0-.23-.1-.21-.26l5.2-15a4.53,4.53,0,0,0,.26-1.59.19.19,0,0,1,.14-.15H9.78c.13,0,.18,0,.21.16l5.9,16.64c0,.13,0,.23-.13.23H12.38a.26.26,0,0,1-.29-.18L10.77,74.4Zm5-3.25c-.48-1.69-1.52-4.86-2-6.69h0c-.41,1.74-1.35,4.6-2,6.7Z" transform="translate(-0.02 0.03)"/><path class="a" d="M26.57,78.07c0,.13,0,.18-.13.2a8,8,0,0,1-2.91.42c-4.21,0-6.86-2.83-6.86-6.66s2.94-6.78,7.36-6.78a7.42,7.42,0,0,1,2.39.28c.13.06.15.13.15.29V68.5c0,.18-.11.21-.21.18a6.43,6.43,0,0,0-2.18-.31c-2.19,0-3.77,1.19-3.77,3.53,0,2.71,2,3.59,3.82,3.59a8.72,8.72,0,0,0,2.16-.23c.15,0,.2,0,.2.1Z" transform="translate(-0.02 0.03)"/><path class="a" d="M31.64,65.51a.3.3,0,0,1,.32.23,4.84,4.84,0,0,1,.28,1.46,5.41,5.41,0,0,1,4.14-2c.15,0,.2,0,.2.21V68.6c0,.13,0,.19-.23.19a5.4,5.4,0,0,0-3.93,1.11v8.27c0,.16-.05.21-.24.21H29c-.2,0-.26-.08-.26-.23v-9a30.36,30.36,0,0,0-.13-3.54c0-.13,0-.18.16-.18Z" transform="translate(-0.02 0.03)"/><path class="a" d="M50.55,71.9c0,4.09-2.66,6.79-6.4,6.79-4.45,0-6.42-3.35-6.42-6.71,0-3.69,2.47-6.73,6.47-6.73C48.39,65.25,50.55,68.43,50.55,71.9Zm-9.16,0c0,2.29,1.07,3.74,2.81,3.74,1.51,0,2.65-1.3,2.65-3.69,0-2-.83-3.72-2.8-3.72-1.51,0-2.66,1.39-2.66,3.7Z" transform="translate(-0.02 0.03)"/><path class="a" d="M56.24,60c.21,0,.26,0,.26.2v5.33a8.41,8.41,0,0,1,2.18-.28A5.94,5.94,0,0,1,65,70.85a5.61,5.61,0,0,1,0,.58c0,4.86-3.84,7.25-7.8,7.25a13.44,13.44,0,0,1-4.08-.6.28.28,0,0,1-.15-.26V60.18c0-.13,0-.18.18-.18ZM58,68.32a5.64,5.64,0,0,0-1.53.2v7a3.74,3.74,0,0,0,1,.1,3.57,3.57,0,0,0,3.78-3.35,3.37,3.37,0,0,0,0-.55C61.23,69.43,59.85,68.32,58,68.32Z" transform="translate(-0.02 0.03)"/><path class="a" d="M77.4,75.54q0,.94.06,1.89s0,.1-.06.13a14.31,14.31,0,0,1-5.66,1.17c-2.89,0-5.26-1.33-5.26-4.34,0-2.76,2.42-4.21,5.88-4.21a11.18,11.18,0,0,1,1.53,0v-.18c0-.5-.31-1.64-2.49-1.64a8.42,8.42,0,0,0-3.43.7.16.16,0,0,1-.22-.06.14.14,0,0,1,0-.07V66.31a.23.23,0,0,1,.18-.26,9.92,9.92,0,0,1,4.09-.8c3.74,0,5.4,2.31,5.4,5.28Zm-3.51-2.67a8.11,8.11,0,0,0-1.3-.08c-1.84,0-2.6.6-2.6,1.53s.65,1.56,2.29,1.56a5.14,5.14,0,0,0,1.61-.23Z" transform="translate(-0.02 0.03)"/><path class="a" d="M86.76,78c0,.15,0,.28-.18.34a6.46,6.46,0,0,1-2.31.36c-2.27,0-3.59-1.12-3.59-3.72V68.52H79.12c-.16,0-.21-.07-.21-.23V65.74c0-.18,0-.23.23-.23H80.7A30.16,30.16,0,0,1,81,62.36a.29.29,0,0,1,.24-.23l3-.39c.13,0,.21,0,.21.15-.08.81-.13,2.34-.13,3.62h2.39c.16,0,.21,0,.21.21v2.62c0,.13,0,.16-.18.18h-2.4v5.57c0,1.14.34,1.66,1.41,1.66a5.16,5.16,0,0,0,.88-.1c.11,0,.18,0,.18.18Z" transform="translate(-0.02 0.03)"/><path class="a" d="M95.08,61.63c0-.15,0-.2.16-.2,1.06,0,3.12-.08,5.09-.08,5.26,0,7.08,2.91,7.08,5.74,0,4.22-3.25,6-7.26,6H98.67v5.12c0,.13,0,.21-.21.21h-3.2c-.13,0-.18-.08-.18-.21Zm3.59,8.27h1.46c2,0,3.69-.63,3.69-2.76,0-1.64-1.12-2.68-3.38-2.68a12.2,12.2,0,0,0-1.77.06Z" transform="translate(-0.02 0.03)"/><path class="a" d="M112.42,65.51a.3.3,0,0,1,.32.23A4.84,4.84,0,0,1,113,67.2a5.41,5.41,0,0,1,4.14-2c.15,0,.2,0,.2.21V68.6c0,.13,0,.19-.23.19a5.4,5.4,0,0,0-3.93,1.11v8.27c0,.16,0,.21-.24.21h-3.12c-.2,0-.26-.08-.26-.23v-9a30.36,30.36,0,0,0-.13-3.54c0-.13,0-.18.16-.18Z" transform="translate(-0.02 0.03)"/><path class="a" d="M131.33,71.9c0,4.09-2.66,6.79-6.4,6.79-4.45,0-6.42-3.35-6.42-6.71,0-3.69,2.47-6.73,6.47-6.73C129.17,65.25,131.33,68.43,131.33,71.9Zm-9.16,0c0,2.29,1.07,3.74,2.81,3.74,1.51,0,2.65-1.3,2.65-3.69,0-2-.83-3.72-2.8-3.72-1.51,0-2.66,1.39-2.66,3.7Z" transform="translate(-0.02 0.03)"/><path class="a" d="M139.88,61.63c0-.13,0-.18.18-.2.78,0,2.76-.08,5.07-.08,6.22,0,9.26,3.48,9.26,8.29,0,6.22-4.79,8.84-9.21,8.84H140c-.1,0-.15-.08-.15-.26Zm3.61,13.68c.52,0,.94,0,1.54,0,3.4,0,5.64-2,5.64-5.67s-2.24-5.2-5.56-5.2h-1.62Z" transform="translate(-0.02 0.03)"/><path class="a" d="M169.23,77.86c0,.18,0,.31-.2.36a11.37,11.37,0,0,1-3.62.47c-5,0-9-3-9-8.68,0-5.28,3.64-8.87,9.39-8.87a8.64,8.64,0,0,1,3.38.44.3.3,0,0,1,.18.31v2.84c0,.23-.13.23-.23.18a8.14,8.14,0,0,0-3.38-.57c-3.49,0-5.62,2.16-5.62,5.54,0,4,3,5.59,5.69,5.59a9.77,9.77,0,0,0,3.18-.42c.13,0,.2,0,.2.13Z" transform="translate(-0.02 0.03)"/><path class="a" d="M172,76.51a2.16,2.16,0,0,1,4.31-.29,1.4,1.4,0,0,1,0,.29,2,2,0,0,1-1.8,2.18,2.16,2.16,0,0,1-.36,0A2,2,0,0,1,172,76.85,1.93,1.93,0,0,1,172,76.51Z" transform="translate(-0.02 0.03)"/></svg>