<?xml version="1.0" encoding="utf-8"?>
<!-- Generator: Adobe Illustrator 22.1.0, SVG Export Plug-In . SVG Version: 6.00 Build 0)  -->
<svg version="1.1" id="Layer_1" xmlns="http://www.w3.org/2000/svg" xmlns:xlink="http://www.w3.org/1999/xlink" x="0px" y="0px"
	 viewBox="0 0 85.3 22" style="enable-background:new 0 0 85.3 22;" xml:space="preserve">
<style type="text/css">
	.st0{fill:#FFFFFF;}
</style>
<title>F1_text1</title>
<path class="st0" d="M0.2,17.1C0,17.1,0,17,0,16.8V1.6c0-0.1,0-0.2,0.2-0.2h3c0.1,0,0.2,0.1,0.2,0.2v12.5h6.9c0.1,0,0.2,0.1,0.2,0.2
	L10,16.9c0,0.2-0.1,0.2-0.2,0.2H0.2z"/>
<path class="st0" d="M14.9,12c0.1,1.4,1.1,2.5,3.4,2.5c1,0,2-0.2,3-0.6c0.1,0,0.1,0,0.1,0.1v2.3c0,0.2,0,0.2-0.2,0.3
	c-1.2,0.5-2.4,0.8-3.7,0.7c-4.5,0-6.1-3.1-6.1-6.1c0-3.3,2-6.4,5.8-6.4c2.7-0.1,5,2,5.1,4.7c0,0.2,0,0.3,0,0.5c0,0.5,0,1.1-0.1,1.6
	c0,0.1-0.1,0.2-0.2,0.2C21.3,12,20.5,12,19.6,12L14.9,12z M18,9.6c0.4,0,0.8,0,1.2-0.1V9.4c0-1.1-0.9-1.9-2-1.9
	c-1.2,0-2.2,0.9-2.3,2.1H18z"/>
<path class="st0" d="M27.4,17.1c-0.1,0-0.2-0.1-0.3-0.2c-0.9-2.7-2.9-8.8-3.9-11.6c0-0.1,0-0.2,0.1-0.2c0,0,0,0,0,0h3.2
	c0.2,0,0.2,0,0.3,0.2c1.6,5.4,2.1,7.6,2.3,8.6h0.1c0.2-1.1,0.9-3.3,2.5-8.6c0-0.1,0.1-0.2,0.2-0.2h2.8c0.1,0,0.1,0.1,0.2,0.1
	c0,0,0,0.1,0,0.1c-1,2.8-3.1,8.9-4,11.6c-0.1,0.1-0.1,0.2-0.3,0.2L27.4,17.1z"/>
<path class="st0" d="M39.1,12c0.1,1.4,1.1,2.5,3.5,2.5c1,0,2-0.2,3-0.6c0.1,0,0.1,0,0.1,0.1v2.3c0,0.2,0,0.2-0.2,0.3
	c-1.2,0.5-2.4,0.8-3.7,0.7c-4.5,0-6.1-3.1-6.1-6.1c0-3.3,2-6.4,5.8-6.4c2.7-0.1,5,2,5.1,4.7c0,0.2,0,0.3,0,0.5c0,0.5,0,1.1-0.1,1.6
	c0,0.1-0.1,0.2-0.2,0.2C45.5,12,44.6,12,43.8,12L39.1,12z M42.2,9.7c0.4,0,0.8,0,1.2-0.1V9.4c0-1.1-0.9-1.9-2-1.9
	c-1.2,0-2.2,0.9-2.3,2.1L42.2,9.7z"/>
<path class="st0" d="M48.6,0.2c0-0.1,0-0.2,0.2-0.2h2.9C51.9,0,52,0.1,52,0.2v13.5c0,0.7,0.2,0.9,0.8,0.9h0.4c0.1,0,0.1,0.1,0.1,0.2
	v2.1c0,0.2,0,0.2-0.2,0.3c-0.5,0.2-1,0.2-1.5,0.2c-1.7,0-3-0.6-3-3.3L48.6,0.2z"/>
<path class="st0" d="M71.2,14.4c0,0.8,0,1.7,0.1,2.5c0,0.1,0,0.2-0.2,0.2h-2.6c-0.2,0-0.2,0-0.3-0.2c-0.1-0.2-0.1-0.5-0.1-0.8
	c-0.9,0.8-2.1,1.2-3.3,1.2c-2.4,0-4.1-1.3-4.1-4.6V5.3c0-0.2,0-0.2,0.2-0.2h2.9c0.2,0,0.2,0,0.2,0.2v7c0,1.3,0.6,2.1,1.9,2.1
	c0.7,0,1.4-0.2,1.9-0.7V5.3c0-0.2,0.1-0.2,0.2-0.2h2.9c0.2,0,0.2,0,0.2,0.2L71.2,14.4z"/>
<path class="st0" d="M85.3,10.7c0,4.4-3.6,6.6-7.4,6.6c-0.1,0-0.3,0-0.5,0v4.1c0,0.1,0,0.2-0.2,0.2c-1,0.1-2.8,0.3-3,0.3
	c-0.2,0-0.2,0-0.2-0.2V7.6c0-0.5,0-1-0.1-1.6c0-0.1,0-0.1,0.1-0.1c0,0,0,0,0,0l0,0c1.6-0.6,3.3-0.9,5.1-1
	C83.3,4.9,85.3,7.7,85.3,10.7z M77.4,7.9v6.6c0.3,0,0.5,0,0.8,0c1.9,0.1,3.5-1.3,3.6-3.2c0,0,0,0,0,0c0-0.1,0-0.3,0-0.4
	c0-2.1-1.1-3.2-2.9-3.2C78.4,7.7,77.9,7.8,77.4,7.9z"/>
</svg>
