<svg xmlns="http://www.w3.org/2000/svg" viewBox="0 0 56.75 17.36"><defs><style>.a{fill:#fff;}</style></defs><title>F1_text3</title><path class="a" d="M26.48,7.56C25.35,7.56,25,8,25,8.38s.31.72,1.71,1.25c2.91,1.06,3.83,2.19,3.83,3.9,0,2.29-1.78,3.81-5,3.81a7.82,7.82,0,0,1-3.5-.68.27.27,0,0,1-.17-.26V13.8c0-.15.1-.22.2-.15a6.81,6.81,0,0,0,3.54,1c1.13,0,1.64-.32,1.64-.82s-.41-.8-1.83-1.33c-2.73-1-3.62-2.17-3.62-3.9s1.52-3.69,4.7-3.69a8,8,0,0,1,3.13.48.32.32,0,0,1,.17.32V8.08c0,.14-.1.24-.24.17A7.4,7.4,0,0,0,26.48,7.56Z" transform="translate(-21.79)"/><path class="a" d="M43.25,5.11c.17,0,.24.12.15.24-.75.9-3.64,4.1-4.56,5.09a.08.08,0,0,0,0,.09c1.4,1.74,3.69,4.53,5.18,6.34.1.07,0,.22-.12.22H40.07c-.17,0-.21-.07-.31-.17-.75-.92-2.82-3.64-3.95-5.13v5.06c0,.17-.05.24-.22.24H32.68c-.2,0-.24-.07-.24-.24V.2c0-.1,0-.2.24-.2h2.91c.12,0,.22,0,.22.2v9.9c1.25-1.49,3.49-4.19,4-4.82a.35.35,0,0,1,.34-.17Z" transform="translate(-21.79)"/><path class="a" d="M44.76,2A1.79,1.79,0,0,1,46.49.1a1.2,1.2,0,0,1,.19,0,1.75,1.75,0,0,1,1.85,1.64V2a1.77,1.77,0,0,1-1.65,1.88h-.23a1.76,1.76,0,0,1-1.89-1.6A1.31,1.31,0,0,1,44.76,2Zm.17,3.35c0-.12,0-.2.19-.2h3c.15,0,.2,0,.2.2V16.87c0,.15,0,.22-.22.22H45.21c-.17,0-.24-.07-.24-.22Z" transform="translate(-21.79)"/><path class="a" d="M51.21.2c0-.12,0-.2.24-.2h2.87c.17,0,.24.08.24.2V13.69c0,.67.21.92.79.92h.44c.09,0,.12.05.12.17v2.07c0,.2,0,.24-.17.29a4,4,0,0,1-1.5.22c-1.73,0-3-.65-3-3.33Z" transform="translate(-21.79)"/><path class="a" d="M57.86.2c0-.12,0-.2.24-.2H61c.17,0,.24.08.24.2V13.69c0,.67.22.92.79.92h.44c.09,0,.12.05.12.17v2.07c0,.2,0,.24-.17.29a4,4,0,0,1-1.49.22c-1.74,0-3-.65-3-3.33Z" transform="translate(-21.79)"/><path class="a" d="M68.61,7.56c-1.14,0-1.5.41-1.5.82s.32.72,1.71,1.25c2.92,1.06,3.83,2.19,3.83,3.9,0,2.29-1.78,3.81-5,3.81a7.75,7.75,0,0,1-3.49-.68A.27.27,0,0,1,64,16.4V13.8c0-.15.1-.22.19-.15a6.81,6.81,0,0,0,3.54,1c1.14,0,1.64-.32,1.64-.82S69,13,67.53,12.5c-2.72-1-3.61-2.17-3.61-3.9s1.51-3.69,4.69-3.69a8,8,0,0,1,3.14.48.32.32,0,0,1,.17.32V8.08c0,.14-.1.24-.24.17A7.4,7.4,0,0,0,68.61,7.56Z" transform="translate(-21.79)"/><path class="a" d="M74.54,15.3a2,2,0,1,1,4,0,1.87,1.87,0,0,1-1.73,2h-.27a1.9,1.9,0,0,1-2-1.79Z" transform="translate(-21.79)"/></svg>