<?xml version="1.0" encoding="utf-8"?>
<!-- Generator: Adobe Illustrator 22.1.0, SVG Export Plug-In . SVG Version: 6.00 Build 0)  -->
<svg version="1.1" id="Layer_1" xmlns="http://www.w3.org/2000/svg" xmlns:xlink="http://www.w3.org/1999/xlink" x="0px" y="0px"
	 viewBox="0 0 68.7 28.7" style="enable-background:new 0 0 68.7 28.7;" xml:space="preserve">
<style type="text/css">
	.st0{fill:#FFFFFF;}
</style>
<title>tag_subheadline</title>
<path class="st0" d="M0.1,10.1C0,10.1,0,10.1,0,9.9V1.1C0,1,0,0.9,0.1,0.9c1.3,0,1.8,0,2.9,0c2.3,0,3.6,1,3.6,2.8
	c0,1.1-0.7,2-1.7,2.4c0.5,0.6,2.1,3,2.5,3.8c0,0.1,0.1,0.2,0,0.2h-2c-0.1,0-0.2,0-0.2-0.1C4.7,9.4,3.8,7.9,3.3,6.9
	C3.2,6.8,3.1,6.7,2.9,6.7h-1V10c0,0.1,0,0.1-0.1,0.1c0,0,0,0-0.1,0H0.1z M3,5.1c1,0,1.7-0.4,1.7-1.3S4,2.6,3,2.6c-0.5,0-0.9,0-1.1,0
	v2.5H3z"/>
<path class="st0" d="M9.6,7.1c0.1,0.8,0.6,1.5,2,1.5c0.6,0,1.2-0.1,1.7-0.3c0,0,0.1,0,0.1,0.1v1.3c0,0.1,0,0.1-0.1,0.2
	c-0.7,0.3-1.4,0.4-2.1,0.4c-1.8,0.2-3.4-1.2-3.6-3c0-0.2,0-0.3,0-0.5C7.4,4.8,8.8,3.1,10.7,3c0.1,0,0.2,0,0.3,0
	c1.6-0.1,2.9,1.1,3,2.7c0,0.1,0,0.2,0,0.3c0,0.3,0,0.6-0.1,0.9c0,0.1,0,0.1-0.1,0.1c-0.5,0-1,0.1-1.5,0.1H9.6z M11.4,5.7
	c0.2,0,0.5,0,0.7,0V5.6c0-0.6-0.5-1.1-1.2-1.1c0,0,0,0,0,0c-0.7,0-1.3,0.5-1.3,1.2L11.4,5.7z"/>
<path class="st0" d="M15.2,4.7c0-0.5,0-1.2-0.1-1.5c0-0.1,0-0.1,0.1-0.1h1.5c0.1,0,0.2,0,0.2,0.1C16.9,3.4,17,3.5,17,3.7
	C17.5,3.2,18.2,3,19,3c1.1,0,2.4,0.6,2.4,2.8v4.2c0,0.1,0,0.1-0.1,0.1h-1.7c-0.1,0-0.1,0-0.1-0.1v-4c0-0.8-0.4-1.3-1.1-1.3
	c-0.4,0-0.8,0.1-1.2,0.4v4.9c0,0.1,0,0.1-0.1,0.1h-1.7c-0.1,0-0.1,0-0.1-0.1V4.7z"/>
<path class="st0" d="M24.5,7.1c0.1,0.8,0.6,1.5,2,1.5c0.6,0,1.2-0.1,1.7-0.3c0,0,0.1,0,0.1,0.1v1.3c0,0.1,0,0.1-0.1,0.2
	c-0.7,0.3-1.4,0.4-2.1,0.4c-1.8,0.1-3.4-1.2-3.5-3c0-0.2,0-0.3,0-0.5c-0.2-1.9,1.2-3.5,3.1-3.7c0.1,0,0.2,0,0.3,0
	c1.6-0.1,2.9,1.1,3,2.7c0,0.1,0,0.2,0,0.3c0,0.3,0,0.6-0.1,0.9c0,0.1,0,0.1-0.1,0.1l0,0c-0.5,0-1,0.1-1.5,0.1H24.5z M26.4,5.7
	c0.2,0,0.5,0,0.7,0V5.6c0-0.6-0.5-1.1-1.2-1.1c0,0,0,0,0,0c-0.7,0-1.3,0.5-1.4,1.2L26.4,5.7z"/>
<path class="st0" d="M36,10.1c-0.1,0-0.1,0-0.2-0.1c-0.7-2.9-0.9-4.1-1.1-4.9l0,0c-0.3,1.5-0.6,2.7-1.2,4.8c0,0.1-0.1,0.1-0.2,0.1
	h-1.8c-0.1,0-0.2,0-0.2-0.1l-1.8-6.7c0-0.1,0-0.1,0.1-0.1h1.8c0.1,0,0.1,0,0.1,0.1c0.7,3,0.9,4.4,1,5l0,0c0.1-0.5,0.3-1.8,1.1-4.9
	c0-0.1,0-0.1,0.1-0.1h1.8c0.1,0,0.1,0,0.1,0.1c0.7,3.1,0.9,4.4,1,5l0,0c0.2-0.9,0.4-2.4,1.1-5c0-0.1,0.1-0.1,0.1-0.1h1.6
	c0,0,0.1,0,0.1,0.1c0,0,0,0,0,0l-2,6.7c0,0.1,0,0.1-0.2,0.1L36,10.1z"/>
<path class="st0" d="M43.3,4.7c-0.1,0-0.1,0-0.1-0.1V3.2c0,0,0-0.1,0.1-0.1c0,0,0,0,0,0h0.8V2.9c0-0.5,0.1-1.1,0.3-1.6
	c0.4-0.9,1.2-1.4,2.2-1.3c0.2,0,0.5,0,0.7,0.1c0.1,0,0.1,0.1,0.1,0.1v1.4c0,0.1,0,0.1-0.1,0.1c-0.1,0-0.3,0-0.4,0
	c-0.5,0-0.8,0.3-0.8,1v0.3h1.2c0.1,0,0.1,0,0.1,0.1v1.5c0,0.1,0,0.1-0.1,0.1h-1.2v5.2c0,0.1,0,0.1-0.1,0.1h-1.7
	c-0.1,0-0.1,0-0.1-0.1c0,0,0,0,0,0V4.7H43.3z"/>
<path class="st0" d="M54.8,6.5c0.1,1.9-1.2,3.5-3.1,3.6c-0.1,0-0.2,0-0.3,0C49.5,10.3,48,8.8,47.9,7c0-0.1,0-0.3,0-0.4
	c-0.1-1.9,1.3-3.5,3.2-3.6c0.1,0,0.2,0,0.3,0c1.8-0.1,3.4,1.4,3.4,3.2C54.8,6.3,54.8,6.4,54.8,6.5z M49.9,6.5c0,1.2,0.6,2,1.5,2
	s1.4-0.7,1.4-2c0-1.1-0.5-2-1.5-2C50.5,4.6,49.9,5.3,49.9,6.5L49.9,6.5z"/>
<path class="st0" d="M57.6,3.1c0.1,0,0.2,0,0.2,0.1C57.9,3.5,58,3.8,58,4.1c0.6-0.6,1.4-1,2.2-1c0.1,0,0.1,0,0.1,0.1v1.6
	c0,0.1,0,0.1-0.1,0.1c-0.8-0.1-1.5,0.1-2.1,0.6V10c0,0.1,0,0.1-0.1,0.1h-1.7c-0.1,0-0.1,0-0.1-0.1V5.1c0-0.6,0-1.2-0.1-1.9
	c0-0.1,0-0.1,0.1-0.1L57.6,3.1z"/>
<path class="st0" d="M4.5,28.7c0,0.1,0,0.1-0.1,0.1H3c-0.1,0-0.1,0-0.1-0.1v-1.1c-0.7,0-1.5-0.2-2.1-0.5c-0.1,0-0.1-0.1-0.1-0.2
	v-1.7c0-0.1,0.1-0.1,0.1-0.1c0.8,0.5,1.7,0.8,2.6,0.8c0.8,0,1.3-0.3,1.3-0.7c0-0.4-0.3-0.7-1.5-1.2c-2-0.8-2.6-1.4-2.6-2.7
	c0-1.3,1-2.3,2.2-2.4v-1.1c0-0.1,0-0.1,0.1-0.1h1.3c0.1,0,0.1,0,0.1,0.1v1.1c0.6,0,1.2,0.2,1.7,0.5c0.1,0,0.1,0.1,0.1,0.1V21
	c0,0.1-0.1,0.1-0.1,0.1c-0.7-0.5-1.6-0.7-2.4-0.7c-0.8,0-1.3,0.3-1.3,0.7s0.3,0.6,1.7,1.2c2.1,0.8,2.5,1.7,2.5,2.8
	c0,1.3-1,2.3-2.3,2.4L4.5,28.7z"/>
<path class="st0" d="M7.8,27.6c-0.1,0-0.1-0.1-0.1-0.1v-1.1c0-0.1,0-0.1,0-0.2c0.8-0.5,1.5-1.1,2.2-1.8c1.5-1.3,1.7-2.1,1.7-2.7
	c0-0.9-0.5-1.4-1.6-1.4c-0.7,0-1.4,0.2-2,0.6c-0.1,0-0.1,0-0.1-0.1v-1.5c0-0.1,0-0.1,0.1-0.2c0.8-0.4,1.6-0.6,2.4-0.6
	c1.5-0.2,2.9,0.9,3.1,2.4c0,0.2,0,0.3,0,0.5c0,1.2-0.6,2.4-1.5,3.1c-0.5,0.5-1,0.9-1.6,1.3c0.7-0.1,1.3-0.1,2-0.1H14
	c0.1,0,0.1,0,0.1,0.1l-0.3,1.5c0,0.1-0.1,0.1-0.1,0.1H7.8z"/>
<path class="st0" d="M15.8,26.2c0-0.1,0-0.1,0.1-0.1c1.3-0.1,2.4-0.8,3.2-1.8c-0.4,0.2-0.9,0.2-1.3,0.2c-1.5,0.1-2.9-1.1-3-2.6
	c0-0.1,0-0.2,0-0.2c0-1.7,1.4-3.1,3.1-3.1c0.1,0,0.1,0,0.2,0c1.9,0,3.3,1.4,3.3,3.7c0,3-2.4,5.1-5.5,5.4c-0.1,0-0.1,0-0.1-0.1
	L15.8,26.2z M19.5,22.7c0-0.1,0-0.3,0-0.4c0-1.3-0.5-2.1-1.5-2.1c-0.7,0-1.3,0.6-1.3,1.3c0,0,0,0,0,0.1c0,1,0.7,1.4,1.6,1.4
	C18.7,23,19.1,22.9,19.5,22.7z"/>
<path class="st0" d="M22,26.6c0-0.6,0.5-1.2,1.2-1.2c0.6,0,1.2,0.5,1.2,1.2c0,0,0,0,0,0c0.1,0.6-0.4,1.1-1,1.2c-0.1,0-0.1,0-0.2,0
	c-0.6,0-1.1-0.4-1.2-1.1C22,26.7,22,26.6,22,26.6z"/>
<path class="st0" d="M25.8,26.2c0-0.1,0-0.1,0.1-0.1c1.3-0.1,2.4-0.8,3.2-1.8c-0.4,0.2-0.9,0.2-1.3,0.2c-1.5,0.1-2.9-1.1-3-2.6
	c0-0.1,0-0.2,0-0.2c0-1.7,1.4-3.1,3.1-3.1c0.1,0,0.1,0,0.2,0c1.9,0,3.3,1.4,3.3,3.7c0,3-2.4,5.1-5.5,5.4c-0.1,0-0.1,0-0.1-0.1
	L25.8,26.2z M29.5,22.7c0-0.1,0-0.3,0-0.4c0-1.3-0.5-2.1-1.5-2.1c-0.7,0-1.2,0.6-1.2,1.3c0,0,0,0.1,0,0.1c0,1,0.6,1.4,1.6,1.4
	C28.7,23,29.1,22.9,29.5,22.7z"/>
<path class="st0" d="M33.6,26.2c0-0.1,0-0.1,0.1-0.1c1.3-0.1,2.4-0.8,3.2-1.8c-0.4,0.2-0.9,0.2-1.3,0.2c-1.5,0.1-2.9-1.1-3-2.6
	c0-0.1,0-0.2,0-0.2c0-1.7,1.4-3.1,3.1-3.1c0.1,0,0.1,0,0.2,0c1.9,0,3.3,1.4,3.3,3.7c0,3-2.4,5.1-5.5,5.4c-0.1,0-0.1,0-0.1-0.1
	L33.6,26.2z M37.3,22.7c0-0.1,0-0.3,0-0.4c0-1.3-0.5-2.1-1.5-2.1c-0.7,0-1.2,0.6-1.2,1.3c0,0,0,0.1,0,0.1c0,1,0.6,1.4,1.6,1.4
	C36.5,23,36.9,22.9,37.3,22.7z"/>
<path class="st0" d="M41.8,28.1C41.8,28.1,41.8,28.2,41.8,28.1l-1.4,0.1c-0.1,0-0.1,0-0.1-0.1L43,17.9c0-0.1,0-0.1,0.1-0.1h1.3
	c0.1,0,0.1,0,0.1,0.1L41.8,28.1z"/>
<path class="st0" d="M46,27.6c-0.1,0-0.1,0-0.1-0.1v-5.3c0-0.5,0-1.1-0.1-1.4c0-0.1,0-0.1,0.1-0.1h1.5c0.1,0,0.1,0,0.2,0.1
	c0,0.2,0.1,0.3,0.1,0.5c0.6-0.5,1.3-0.7,2-0.7c0.7,0,1.4,0.3,1.8,0.9c0.6-0.6,1.4-0.9,2.3-0.9c1.2,0,2.4,0.7,2.4,2.8v4.2
	c0,0.1,0,0.1-0.1,0.1h-1.7c-0.1,0-0.1,0-0.1-0.1v-4c0-0.7-0.3-1.3-1.1-1.3c-0.4,0-0.9,0.2-1.2,0.4c0,0.3,0,0.5,0,0.8v4.1
	c0,0.1,0,0.1-0.1,0.1h-1.7c-0.1,0-0.1,0-0.1-0.1v-4.1c0-0.8-0.4-1.2-1.1-1.2c-0.4,0-0.8,0.1-1.2,0.4v4.9c0,0.1,0,0.1-0.1,0.1H46z"/>
<path class="st0" d="M64.3,24.1c0,1.9-1.5,3.5-3.4,3.5c-1.9,0-3.5-1.5-3.5-3.5c-0.1-1.9,1.3-3.5,3.2-3.6c0.1,0,0.2,0,0.3,0
	c1.8-0.1,3.4,1.4,3.4,3.2C64.3,23.8,64.3,23.9,64.3,24.1z M59.3,24.1c0,1.2,0.6,2,1.5,2s1.4-0.7,1.4-2c0-1.1-0.4-2-1.5-2
	C60,22.1,59.3,22.8,59.3,24.1L59.3,24.1z"/>
<path class="st0" d="M65.1,26.6c0.1-0.6,0.6-1.1,1.3-1.1c0.6,0.1,1,0.5,1.1,1.1c0.1,0.6-0.4,1.1-1,1.2c-0.1,0-0.1,0-0.2,0
	c-0.6,0-1.1-0.4-1.2-1.1C65.1,26.7,65.1,26.6,65.1,26.6z"/>
</svg>
