<svg xmlns="http://www.w3.org/2000/svg" viewBox="0 0 100 34"><defs><style>.a{fill:#fff;}</style></defs><title>tag_cta_ro</title><path class="a" d="M57.13,18.87v-1a18.94,18.94,0,0,1,.08-2.42c-.36.72-1.69,2.81-2.07,3.41Z" transform="translate(-1 -1)"/><path class="a" d="M64.25,15.18c-.91,0-1.35.81-1.36,2.79s.47,2.88,1.39,2.88S65.62,20,65.62,18,65.16,15.18,64.25,15.18Z" transform="translate(-1 -1)"/><path class="a" d="M31.49,20.25c0,.49.34.82,1.2.82a3.06,3.06,0,0,0,.85-.12V19.44c-.23,0-.45,0-.68,0C31.86,19.44,31.49,19.76,31.49,20.25Z" transform="translate(-1 -1)"/><path class="a" d="M46.37,16.92h0A1.29,1.29,0,0,0,45,18.12l1.79,0a3.86,3.86,0,0,0,.68,0V18A1.11,1.11,0,0,0,46.37,16.92Z" transform="translate(-1 -1)"/><path class="a" d="M71.72,16.13c0-.81-.33-1.29-.85-1.29s-.88.4-.88,1.28c0,.71.29,1.26.89,1.26S71.72,16.94,71.72,16.13Z" transform="translate(-1 -1)"/><path class="a" d="M77.06,18.73c-.53,0-.88.41-.88,1.27s.3,1.24.89,1.24h0c.51,0,.84-.42.84-1.25S77.59,18.73,77.06,18.73Z" transform="translate(-1 -1)"/><path class="a" d="M84,1H18a17,17,0,0,0,0,34H84A17,17,0,0,0,84,1ZM25.19,22.56A5.34,5.34,0,0,1,22.74,22c-.07,0-.09-.11-.09-.22v-1.6c0-.07,0-.11.11-.07a4.7,4.7,0,0,0,2.47.71c1,0,1.45-.35,1.45-.83s-.31-.75-1.24-1.15l-.7-.29c-1.68-.71-2.14-1.56-2.14-2.63,0-1.47,1.12-2.65,3.29-2.65a5.06,5.06,0,0,1,2.14.36c.07,0,.08.09.08.17v1.54c0,.05,0,.12-.12.06a4.36,4.36,0,0,0-2.07-.4c-1.05,0-1.42.36-1.42.81s.28.71,1.31,1.12l.51.21c1.82.75,2.32,1.61,2.32,2.72C28.64,21.52,27.3,22.56,25.19,22.56Zm10.2-1.71v1.07a7.57,7.57,0,0,1-3,.62c-1.52,0-2.77-.7-2.77-2.29S30.91,18,32.74,18a5.47,5.47,0,0,1,.81,0v-.09c0-.26-.16-.87-1.31-.87a4.35,4.35,0,0,0-1.81.37.08.08,0,0,1-.11,0,0,0,0,0,1,0,0V16c0-.07,0-.11.09-.13a5.13,5.13,0,0,1,2.15-.43,2.58,2.58,0,0,1,2.84,2.29,2.68,2.68,0,0,1,0,.49Zm7.24-5.16c-.59,1.62-1.74,5.08-2.29,6.57,0,.07-.07.11-.16.11H38.41a.17.17,0,0,1-.16-.09c-.52-1.55-1.67-5-2.23-6.6,0-.06,0-.11.09-.11h1.8a.14.14,0,0,1,.15.09c.89,3.08,1.19,4.3,1.32,4.92.14-.62.49-1.85,1.45-4.92a.13.13,0,0,1,.13-.09h1.58a.11.11,0,0,1,.1.08S42.63,15.68,42.63,15.69Zm6.68,2.7a4.65,4.65,0,0,1-.07.91c0,.07,0,.1-.11.12s-.7,0-1.41,0l-2.67,0c.07.78.62,1.42,2,1.42a4.26,4.26,0,0,0,1.69-.31s.08,0,.08.07V22a.15.15,0,0,1-.09.16,4.6,4.6,0,0,1-2.1.4,3.21,3.21,0,0,1-3.52-2.86,2.73,2.73,0,0,1,0-.7,3.34,3.34,0,0,1,3.06-3.6h.25a2.81,2.81,0,0,1,2.9,2.7C49.32,18.19,49.32,18.29,49.31,18.39Zm10.54,2s0,.07-.12.07h-.8v1.86c0,.07,0,.11-.09.11H57.23a.1.1,0,0,1-.11-.09V20.4H53.29c-.1,0-.11,0-.11-.08V19.09a.32.32,0,0,1,.06-.21l3.37-5a.23.23,0,0,1,.22-.1h2c.08,0,.11,0,.11.11v5h1c.1,0,.11.05.1.11Zm4.43,2.13C62,22.48,61,20.55,61,18s1.19-4.43,3.29-4.43c2.55,0,3.24,2.3,3.24,4.43C67.52,20.34,66.6,22.48,64.28,22.48Zm4.25-5.93a1.61,1.61,0,0,1,0-.38,2.35,2.35,0,0,1,2.12-2.56h.2c1.56,0,2.28,1.07,2.28,2.53A2.33,2.33,0,0,1,71,18.62h-.15A2.2,2.2,0,0,1,68.53,16.55Zm2.92,5.82h-1.2s-.11-.07,0-.12l6-8.43a.17.17,0,0,1,.16-.09H77.6a.06.06,0,0,1,0,.08l0,0-5.95,8.46C71.65,22.37,71.55,22.37,71.45,22.37ZM79.34,20a2.33,2.33,0,0,1-2.15,2.51H77a2.22,2.22,0,0,1-2.32-2.12,2.68,2.68,0,0,1,0-.4,2.34,2.34,0,0,1,2.11-2.55h.2a2.22,2.22,0,0,1,2.31,2.14A2,2,0,0,1,79.34,20Z" transform="translate(-1 -1)"/></svg>