<?xml version="1.0" encoding="utf-8"?>
<!-- Generator: Adobe Illustrator 22.1.0, SVG Export Plug-In . SVG Version: 6.00 Build 0)  -->
<svg version="1.1" id="Layer_1" xmlns="http://www.w3.org/2000/svg" xmlns:xlink="http://www.w3.org/1999/xlink" x="0px" y="0px"
	 viewBox="0 0 141.7 54.5" style="enable-background:new 0 0 141.7 54.5;" xml:space="preserve">
<style type="text/css">
	.st0{fill:#FFFFFF;}
</style>
<title>tag_headline3</title>
<path class="st0" d="M0,1.6c0-0.1,0-0.2,0.2-0.2c1.1,0,3.1-0.1,5.1-0.1c5.2,0,7,2.9,7,5.7c0,4.2-3.2,6-7.2,6H3.6v5.1
	c0,0.1,0,0.2-0.2,0.2H0.2C0,18.3,0,18.3,0,18.1V1.6z M3.6,9.8c0.4,0,0.7,0,1.4,0c2,0,3.7-0.6,3.7-2.7c0-1.6-1.1-2.7-3.4-2.7
	c-0.8,0-1.5,0-1.8,0L3.6,9.8z"/>
<path class="st0" d="M18.2,18.1c0,0.2,0,0.2-0.2,0.2h-3.2c-0.1,0-0.2-0.1-0.2-0.2V0.2c0-0.1,0-0.2,0.2-0.2H18c0.1,0,0.2,0,0.2,0.2
	v6.1c1-0.7,2.2-1.1,3.4-1.1c2,0,4.4,1,4.4,5.2v7.7c0,0.1,0,0.2-0.2,0.2h-3.1c-0.2,0-0.3-0.1-0.3-0.2v-7.3c0-1.6-0.7-2.4-2-2.4
	c-0.8,0-1.5,0.2-2.1,0.6L18.2,18.1z"/>
<path class="st0" d="M41,11.8c0,4-2.6,6.7-6.3,6.7c-4.4,0-6.4-3.3-6.4-6.7c0-3.7,2.5-6.7,6.4-6.7C38.8,5.2,41,8.3,41,11.8z
	 M31.9,11.8c0,2.3,1.1,3.7,2.8,3.7c1.5,0,2.6-1.3,2.6-3.7c0-2-0.8-3.7-2.8-3.7C33,8.2,31.9,9.5,31.9,11.8L31.9,11.8z"/>
<path class="st0" d="M49.8,17.8c0,0.2,0,0.3-0.2,0.3c-0.7,0.3-1.5,0.4-2.3,0.4c-2.3,0-3.6-1.1-3.6-3.7V8.5h-1.5
	c-0.2,0-0.2-0.1-0.2-0.2V5.7c0-0.2,0-0.2,0.2-0.2h1.5c0-1,0.1-2.1,0.3-3.1c0-0.1,0.1-0.2,0.2-0.2l3-0.4c0.1,0,0.2,0,0.2,0.2
	c-0.1,0.8-0.1,2.3-0.1,3.6h2.4c0.2,0,0.2,0,0.2,0.2v2.6c0,0.1,0,0.1-0.2,0.2h-2.4V14c0,1.1,0.3,1.6,1.4,1.6c0.3,0,0.6,0,0.9-0.1
	c0.1,0,0.2,0,0.2,0.2L49.8,17.8z"/>
<path class="st0" d="M63.8,11.8c0,4-2.6,6.7-6.3,6.7c-4.4,0-6.4-3.3-6.4-6.7c0-3.7,2.5-6.7,6.4-6.7C61.7,5.2,63.8,8.3,63.8,11.8z
	 M54.8,11.8c0,2.3,1,3.7,2.8,3.7c1.5,0,2.6-1.3,2.6-3.7c0-2-0.8-3.7-2.8-3.7C55.9,8.2,54.8,9.5,54.8,11.8L54.8,11.8z"/>
<path class="st0" d="M72.9,15.3c3.7,0.2,5.1,1.7,5.1,3.7c0,2.7-2.6,4.9-6.8,4.9c-4.3,0-6.2-2.1-6.2-4c0-0.8,0.7-1.9,2.4-3.3
	c-0.4-0.6-0.6-1.3-0.5-2c0-0.6,0.2-1.2,0.5-1.7c-1.1-0.7-1.8-2-1.8-3.3c0-2.5,1.9-4.4,5.3-4.4c0.8,0,1.6,0.1,2.4,0.2
	c0.2,0,0.4,0.1,0.6,0.1h3.5c0.1,0,0.2,0,0.2,0.2v2.4c0,0.1-0.1,0.2-0.2,0.2c-0.4,0-1.2-0.1-1.8-0.1C75.9,8.6,76,9.2,76,9.8
	c0,2.7-2.2,4.1-5.1,4.1c-0.3,0-0.6,0-0.9-0.1c-0.1,0.2-0.1,0.5-0.1,0.7c0,0.2,0.1,0.5,0.3,0.7L72.9,15.3z M69.2,18.2
	c-0.5,0.3-0.8,0.8-1,1.4c0,0.8,1.1,1.7,3.2,1.7c2.3,0,3.3-0.8,3.3-1.6s-1.1-1.2-2.6-1.3L69.2,18.2z M68.9,9.6c0,0.9,0.7,1.7,1.6,1.8
	c0.1,0,0.2,0,0.3,0c0.9,0.1,1.7-0.5,1.8-1.4c0-0.1,0-0.2,0-0.3c0-1-0.8-1.8-1.8-1.9C69.8,7.8,69,8.6,68.9,9.6L68.9,9.6z"/>
<path class="st0" d="M82.4,5.5c0.1,0,0.3,0.1,0.3,0.2c0.2,0.5,0.3,0.9,0.3,1.4c1-1.2,2.5-1.9,4.1-1.9c0.2,0,0.2,0,0.2,0.2v3.2
	c0,0.1,0,0.2-0.2,0.2c-1.4-0.2-2.8,0.2-3.9,1.1v8.2c0,0.2-0.1,0.2-0.2,0.2h-3.1c-0.2,0-0.3-0.1-0.3-0.2V9.2c0-1.1,0-2.6-0.1-3.5
	c0-0.1,0-0.2,0.2-0.2L82.4,5.5z"/>
<path class="st0" d="M98.8,15.4c0,0.7,0,1.2,0,1.8c0,0,0,0.1,0,0.1c-1.8,0.8-3.7,1.2-5.6,1.2c-2.9,0-5.2-1.3-5.2-4.3
	c0-2.7,2.4-4.2,5.8-4.2c0.5,0,1,0,1.5,0.1V9.9c0-0.5-0.3-1.6-2.5-1.6c-1.2,0-2.3,0.2-3.4,0.7c-0.1,0-0.2,0-0.2,0c0,0,0-0.1,0-0.1
	V6.3c0-0.1,0.1-0.2,0.2-0.3c1.3-0.5,2.6-0.8,4-0.8c3.7,0,5.4,2.3,5.4,5.2L98.8,15.4z M95.3,12.8c-0.4-0.1-0.9-0.1-1.3-0.1
	c-1.8,0-2.6,0.6-2.6,1.5s0.6,1.5,2.3,1.5c0.5,0,1.1-0.1,1.6-0.2L95.3,12.8z"/>
<path class="st0" d="M113.8,11.5c0,4.7-3.9,7.1-7.9,7.1c-0.2,0-0.3,0-0.5,0v4.4c0,0.1,0,0.2-0.2,0.2c-1.1,0.1-3,0.3-3.2,0.3
	s-0.2,0-0.2-0.2V8.1c0-0.4-0.1-1.3-0.1-1.7c0-0.1,0-0.1,0.1-0.1c1.7-0.7,3.6-1,5.4-1.1C111.8,5.2,113.8,8.3,113.8,11.5z M105.4,8.5
	v7c0.3,0,0.6,0.1,0.8,0.1c2,0.1,3.7-1.4,3.9-3.4c0-0.1,0-0.3,0-0.4c0-2.2-1.1-3.5-3.2-3.5C106.4,8.2,105.9,8.3,105.4,8.5L105.4,8.5z
	"/>
<path class="st0" d="M119.7,18.1c0,0.2-0.1,0.2-0.2,0.2h-3.2c-0.2,0-0.2-0.1-0.2-0.2V0.2c0-0.1,0-0.2,0.2-0.2h3.2
	c0.2,0,0.2,0,0.2,0.2v6.1c1-0.7,2.2-1.1,3.4-1.1c2,0,4.4,1,4.4,5.2v7.7c0,0.1-0.1,0.2-0.2,0.2h-3.1c-0.2,0-0.3-0.1-0.3-0.2v-7.3
	c0-1.6-0.7-2.4-2-2.4c-0.8,0-1.5,0.2-2.1,0.6L119.7,18.1z"/>
<path class="st0" d="M132.4,5.5c0.1,0,0.2,0.1,0.3,0.2c1.5,4.4,2.3,7.1,2.6,8.4c0.8-2.7,1.6-5.2,2.6-8.4c0-0.1,0.2-0.2,0.3-0.2h3.1
	c0.2,0,0.2,0.1,0.2,0.2c-1.9,5.8-4.7,12.9-6.6,17.3c-0.1,0.1-0.1,0.2-0.4,0.2l-3.3,0.3c-0.1,0-0.2-0.1-0.1-0.2
	c0.7-1.5,1.5-3.3,2.3-5.2c0.1-0.1,0.1-0.3,0-0.4c-0.7-1.8-3.1-7.9-4.7-11.9c-0.1-0.1,0-0.2,0.1-0.2L132.4,5.5z"/>
<path class="st0" d="M12.2,42.3c0,4.7-3.9,7.1-7.9,7.1c-0.2,0-0.3,0-0.5,0v4.4c0,0.1,0,0.2-0.2,0.2c-1.1,0.1-3,0.3-3.2,0.3
	s-0.2,0-0.2-0.2V38.9c0-0.4,0-1.3-0.1-1.7c0-0.1,0-0.1,0.1-0.1c0,0,0,0,0,0c1.7-0.7,3.6-1,5.4-1.1C10.1,36,12.2,39.1,12.2,42.3z
	 M3.8,39.3v7c0.3,0,0.5,0.1,0.8,0c2,0.1,3.7-1.4,3.9-3.4c0-0.1,0-0.3,0-0.4c0-2.2-1.1-3.5-3.1-3.5C4.9,39.1,4.3,39.1,3.8,39.3
	L3.8,39.3z"/>
<path class="st0" d="M14.5,31c0-0.1,0.1-0.2,0.3-0.2h3.1c0.2,0,0.3,0.1,0.3,0.2v14.4c0,0.7,0.2,1,0.9,1h0.5c0.1,0,0.1,0,0.1,0.2v2.2
	c0,0.2,0,0.3-0.2,0.3c-0.5,0.2-1.1,0.3-1.6,0.2c-1.9,0-3.2-0.7-3.2-3.6L14.5,31z"/>
<path class="st0" d="M31.8,46.3c0,0.7,0,1.2,0.1,1.8c0,0,0,0.1-0.1,0.1c-1.8,0.8-3.7,1.2-5.6,1.2c-2.9,0-5.2-1.3-5.2-4.3
	c0-2.7,2.4-4.2,5.8-4.2c0.5,0,1,0,1.5,0v-0.2c0-0.5-0.3-1.6-2.5-1.6c-1.2,0-2.3,0.2-3.4,0.7c-0.1,0-0.2,0-0.2,0c0,0,0-0.1,0-0.1
	v-2.6c0-0.1,0-0.2,0.2-0.3c1.3-0.5,2.6-0.8,4-0.8c3.7,0,5.4,2.3,5.4,5.2L31.8,46.3z M28.3,43.6c-0.4-0.1-0.9-0.1-1.3-0.1
	c-1.8,0-2.6,0.6-2.6,1.5c0,0.9,0.6,1.5,2.3,1.5c0.5,0,1.1-0.1,1.6-0.2L28.3,43.6z"/>
<path class="st0" d="M34.8,39.3c0-0.9-0.1-2.2-0.1-2.8c0-0.1,0-0.2,0.2-0.2h2.7c0.2,0,0.3,0.1,0.3,0.2c0.1,0.3,0.2,0.6,0.2,0.8
	c1-0.9,2.3-1.3,3.7-1.3c2,0,4.3,1,4.3,5.2v7.7c0,0.2-0.1,0.2-0.2,0.2h-3.1c-0.2,0-0.3-0.1-0.3-0.2v-7.4c0-1.5-0.7-2.4-2-2.4
	c-0.8,0-1.6,0.3-2.1,0.8v9c0,0.1-0.1,0.2-0.2,0.2c0,0,0,0,0,0h-3.1c-0.2,0-0.2-0.1-0.2-0.2L34.8,39.3z"/>
<path class="st0" d="M48.6,47.2c0.1-1.2,1.1-2.1,2.3-2c1.1,0.1,1.9,0.9,2,2c0.1,1.1-0.7,2.1-1.8,2.2c-0.1,0-0.2,0-0.3,0
	c-1.1,0.1-2.1-0.7-2.2-1.8C48.6,47.4,48.6,47.3,48.6,47.2z"/>
</svg>
