<?xml version="1.0" encoding="utf-8"?>
<!-- Generator: Adobe Illustrator 22.1.0, SVG Export Plug-In . SVG Version: 6.00 Build 0)  -->
<svg version="1.1" id="Layer_1" xmlns="http://www.w3.org/2000/svg" xmlns:xlink="http://www.w3.org/1999/xlink" x="0px" y="0px"
	 viewBox="0 0 134.2 48.9" style="enable-background:new 0 0 134.2 48.9;" xml:space="preserve">
<style type="text/css">
	.st0{fill:#FFFFFF;}
</style>
<title>tag_headline2</title>
<path class="st0" d="M7.8,18c0,0.2,0,0.3-0.2,0.3c-0.7,0.3-1.5,0.4-2.3,0.4c-2.3,0-3.6-1.1-3.6-3.7V8.5H0.2C0,8.5,0,8.5,0,8.3V5.7
	c0-0.2,0-0.2,0.2-0.2h1.6c0-1.1,0.1-2.1,0.3-3.1c0-0.1,0.1-0.2,0.2-0.2l3-0.4c0.1,0,0.2,0,0.2,0.2C5.4,2.7,5.4,4.2,5.4,5.5h2.4
	c0.2,0,0.2,0,0.2,0.2v2.6c0,0.1-0.1,0.2-0.2,0.2H5.4v5.6c0,1.1,0.3,1.7,1.4,1.7c0.3,0,0.6,0,0.9-0.1c0.1,0,0.2,0,0.2,0.2L7.8,18z"/>
<path class="st0" d="M13.7,18.2c0,0.1-0.1,0.2-0.2,0.2h-3.2c-0.2,0-0.2-0.1-0.2-0.2v-18c0-0.1,0-0.2,0.2-0.2h3.2
	c0.2,0,0.2,0,0.2,0.2v6.1c1-0.7,2.2-1.1,3.4-1.1c2,0,4.4,1,4.4,5.2v7.7c0,0.2-0.1,0.2-0.2,0.2h-3.1c-0.2,0-0.3-0.1-0.3-0.2v-7.3
	c0-1.6-0.7-2.4-2.1-2.4c-0.8,0-1.5,0.2-2.1,0.6L13.7,18.2z"/>
<path class="st0" d="M27.5,13c0.1,1.5,1.2,2.7,3.7,2.7c1.1,0,2.2-0.2,3.2-0.6c0.1-0.1,0.2,0,0.2,0.1v2.5c0,0.2,0,0.3-0.2,0.3
	c-1.3,0.6-2.6,0.8-4,0.8c-4.9,0-6.6-3.4-6.6-6.6c0-3.6,2.2-6.9,6.3-6.9s5.5,3,5.5,5.6c0,0.6,0,1.2-0.1,1.7c0,0.1-0.1,0.2-0.2,0.2
	C34.4,13,33.5,13,32.6,13L27.5,13z M30.9,10.4c0.4,0,0.9,0,1.3-0.1v-0.2c-0.1-1.2-1-2.1-2.2-2c-1.3,0-2.4,1-2.5,2.3L30.9,10.4z"/>
<path class="st0" d="M56,17.8c0,0.2,0,0.3-0.2,0.4c-1.2,0.3-2.4,0.5-3.6,0.5c-5,0-9-3-9-8.7c0-5.3,3.6-8.9,9.4-8.9
	c1.1-0.1,2.3,0.1,3.4,0.4c0.1,0,0.2,0.2,0.2,0.3v2.8C56.1,5,56,5,55.9,4.9c-1.1-0.4-2.2-0.6-3.4-0.6c-3.5,0-5.6,2.2-5.6,5.5
	c0,4.1,3,5.6,5.7,5.6c1.1,0,2.1-0.1,3.2-0.4c0.1-0.1,0.2,0,0.2,0.1L56,17.8z"/>
<path class="st0" d="M61.2,5.5c0.1,0,0.3,0.1,0.3,0.2c0.2,0.5,0.3,1,0.3,1.5c1-1.2,2.5-1.9,4.1-1.9c0.2,0,0.2,0,0.2,0.2v3.2
	c0,0.1,0,0.2-0.2,0.2C64.5,8.7,63.1,9.1,62,10v8.3c0,0.1,0,0.2-0.2,0.2h-3.1c-0.2,0-0.3-0.1-0.3-0.2v-9c0-1.1,0-2.6-0.1-3.5
	c0-0.1,0-0.2,0.2-0.2L61.2,5.5z"/>
<path class="st0" d="M71,13c0.1,1.5,1.2,2.7,3.7,2.7c1.1,0,2.2-0.2,3.2-0.6c0.1-0.1,0.2,0,0.2,0.1v2.5c0,0.2,0,0.3-0.2,0.3
	c-1.3,0.6-2.6,0.8-4,0.8c-4.9,0-6.6-3.4-6.6-6.6c0-3.6,2.2-6.9,6.3-6.9c3.9,0,5.5,3,5.5,5.6c0,0.6,0,1.1-0.1,1.7
	c0,0.1-0.1,0.2-0.2,0.2c-0.9,0.1-1.8,0.1-2.7,0.1L71,13z M74.4,10.4c0.4,0,0.9,0,1.3-0.1v-0.2c-0.1-1.2-1-2.1-2.2-2
	c-1.3,0-2.4,1-2.5,2.3L74.4,10.4z"/>
<path class="st0" d="M91.5,15.5c0,0.7,0,1.2,0,1.8c0,0,0,0.1,0,0.1c-1.8,0.8-3.7,1.2-5.7,1.2c-2.9,0-5.3-1.3-5.3-4.3
	c0-2.8,2.4-4.2,5.9-4.2c0.5,0,1,0,1.5,0.1V10c0-0.5-0.3-1.6-2.5-1.6c-1.2,0-2.3,0.2-3.4,0.7c-0.1,0.1-0.2,0-0.2,0c0,0,0,0,0,0V6.3
	c0-0.1,0-0.2,0.2-0.3c1.3-0.6,2.7-0.8,4.1-0.8c3.7,0,5.4,2.3,5.4,5.3V15.5z M87.9,12.9c-0.4-0.1-0.9-0.1-1.3-0.1
	c-1.8,0-2.6,0.6-2.6,1.5s0.7,1.6,2.3,1.6c0.5,0,1.1-0.1,1.6-0.2V12.9z"/>
<path class="st0" d="M100.8,18c0,0.2,0,0.3-0.2,0.3c-0.7,0.3-1.5,0.4-2.3,0.4c-2.3,0-3.6-1.1-3.6-3.7V8.5h-1.6C93,8.5,93,8.5,93,8.3
	V5.7c0-0.2,0-0.2,0.2-0.2h1.6c0-1.1,0.1-2.1,0.3-3.1c0-0.1,0.1-0.2,0.2-0.2l3-0.4c0.1,0,0.2,0,0.2,0.2c-0.1,0.8-0.1,2.3-0.1,3.6h2.4
	c0.2,0,0.2,0,0.2,0.2v2.6c0,0.1,0,0.2-0.2,0.2h-2.4v5.6c0,1.1,0.3,1.7,1.4,1.7c0.3,0,0.6,0,0.9-0.1c0.1,0,0.2,0,0.2,0.2V18z"/>
<path class="st0" d="M102.9,2.1c0-1.1,0.9-2,2-2c1-0.1,1.9,0.7,2,1.8c0,0.1,0,0.2,0,0.2c0.1,1.1-0.8,1.9-1.8,2c-0.1,0-0.1,0-0.2,0
	c-1,0.1-1.9-0.7-2-1.8C102.9,2.3,102.9,2.2,102.9,2.1z M103.1,5.7c0-0.1,0-0.2,0.2-0.2h3.2c0.2,0,0.2,0,0.2,0.2v12.5
	c0,0.2,0,0.2-0.2,0.2h-3.2c-0.2,0-0.3-0.1-0.3-0.2L103.1,5.7z"/>
<path class="st0" d="M112.9,18.4c-0.1,0-0.3-0.1-0.3-0.2c-1-2.9-3.2-9.5-4.2-12.5c0-0.1,0-0.2,0.1-0.2c0,0,0,0,0.1,0h3.4
	c0.2,0,0.2,0,0.3,0.2c1.7,5.9,2.3,8.2,2.5,9.3h0.1c0.3-1.2,0.9-3.5,2.8-9.3c0-0.1,0.1-0.2,0.2-0.2h3c0.1,0,0.2,0.1,0.2,0.2
	c0,0,0,0.1,0,0.1c-1.1,3.1-3.3,9.6-4.3,12.5c-0.1,0.1-0.1,0.2-0.3,0.2L112.9,18.4z"/>
<path class="st0" d="M125.5,13c0.1,1.5,1.2,2.7,3.7,2.7c1.1,0,2.2-0.2,3.2-0.6c0.1-0.1,0.1,0,0.1,0.1v2.5c0,0.2-0.1,0.3-0.2,0.3
	c-1.3,0.6-2.6,0.8-4,0.8c-4.9,0-6.6-3.4-6.6-6.6c0-3.6,2.2-6.9,6.3-6.9s5.5,3,5.5,5.6c0,0.6,0,1.2-0.1,1.7c0,0.1-0.1,0.2-0.2,0.2
	c-0.9,0.1-1.8,0.1-2.7,0.1L125.5,13z M128.8,10.4c0.4,0,0.9,0,1.3-0.1v-0.2c-0.1-1.2-1-2.1-2.2-2c-1.3,0-2.4,1-2.5,2.3L128.8,10.4z"
	/>
<path class="st0" d="M12.9,47.8c0,0.2-0.1,0.3-0.2,0.4c-1.2,0.3-2.4,0.5-3.6,0.5c-5,0-9-3-9-8.7c0-5.3,3.6-8.9,9.4-8.9
	c1.1-0.1,2.3,0.1,3.4,0.4c0.1,0,0.2,0.2,0.2,0.3v2.8c0,0.2-0.1,0.2-0.2,0.2c-1.1-0.4-2.2-0.6-3.4-0.6c-3.5,0-5.6,2.2-5.6,5.5
	c0,4,3,5.6,5.7,5.6c1.1,0,2.1-0.1,3.2-0.4c0.1,0,0.2,0,0.2,0.1L12.9,47.8z"/>
<path class="st0" d="M15.2,30.2c0-0.1,0.1-0.2,0.3-0.2h3.1c0.2,0,0.3,0.1,0.3,0.2v14.5c0,0.7,0.2,1,0.9,1c0.2,0,0.3,0,0.5,0
	c0.1,0,0.1,0.1,0.1,0.2v2.2c0,0.2,0,0.3-0.2,0.3c-0.5,0.2-1.1,0.3-1.6,0.2c-1.9,0-3.3-0.7-3.3-3.6V30.2z"/>
<path class="st0" d="M34.4,41.9c0,4.1-2.6,6.8-6.4,6.8c-4.4,0-6.4-3.4-6.4-6.7c0-3.7,2.5-6.7,6.5-6.7C32.3,35.3,34.4,38.4,34.4,41.9
	z M25.3,41.9c0,2.3,1.1,3.7,2.8,3.7c1.5,0,2.6-1.3,2.6-3.7c0-2-0.8-3.7-2.8-3.7C26.4,38.3,25.3,39.6,25.3,41.9L25.3,41.9z"/>
<path class="st0" d="M48,45.5c0,0.9,0.1,1.8,0.2,2.7c0,0.1-0.1,0.2-0.2,0.2h-2.8c-0.2,0-0.3-0.1-0.3-0.2c-0.1-0.3-0.1-0.5-0.2-0.8
	c-1,0.8-2.3,1.3-3.6,1.3c-2.6,0-4.4-1.4-4.4-5v-8c0-0.2,0-0.2,0.2-0.2h3.2c0.2,0,0.2,0,0.2,0.2v7.5c0,1.4,0.6,2.3,2,2.3
	c0.7,0,1.5-0.3,2-0.8v-9.1c0-0.2,0.1-0.2,0.3-0.2h3.1c0.2,0,0.2,0,0.2,0.2L48,45.5z"/>
<path class="st0" d="M50.4,42.1c0-3.7,2.8-6.8,7.5-6.8c0.2,0,0.5,0,0.9,0v-5.1c0-0.1,0-0.2,0.1-0.2c0,0,0,0,0.1,0h3.3
	c0.1,0,0.2,0.1,0.2,0.2v15.4c0,0.6,0,1.3,0.1,1.9c0,0.1,0,0.2-0.2,0.2c-1.6,0.7-3.4,1-5.1,1C53.3,48.7,50.4,46.5,50.4,42.1z
	 M58.8,38.4c-0.3-0.1-0.7-0.2-1-0.1c-1.9-0.1-3.6,1.3-3.7,3.2c0,0.1,0,0.3,0,0.4c0,2.6,1.5,3.7,3.5,3.7c0.4,0,0.8,0,1.2-0.1
	L58.8,38.4z"/>
</svg>
