<svg xmlns="http://www.w3.org/2000/svg" viewBox="0 0 201.38 23.86"><defs><style>.a{fill:#fff;}</style></defs><title>tag_headline2</title><path class="a" d="M368,1.66c0-.15,0-.2.15-.2,1.06,0,3.1-.08,5.06-.08,5.21,0,7,2.89,7,5.7,0,4.18-3.23,6-7.2,6h-1.45v5.08c0,.13,0,.21-.21.21h-3.17c-.13,0-.18-.08-.18-.21Zm3.56,8.2H373c2,0,3.67-.62,3.67-2.73,0-1.63-1.11-2.66-3.36-2.66h-1.75Z" transform="translate(-368.03 -0.03)"/><path class="a" d="M386.24,18.11c0,.16-.05.21-.2.21h-3.18c-.15,0-.2-.08-.2-.21V.21c0-.11,0-.18.2-.18H386c.15,0,.2,0,.2.18V6.3a5.76,5.76,0,0,1,3.43-1.06c2,0,4.36,1,4.36,5.18v7.67c0,.15,0,.23-.23.23h-3.12c-.18,0-.25-.08-.25-.23v-7.3c0-1.63-.7-2.43-2-2.43A3.52,3.52,0,0,0,386.3,9Z" transform="translate(-368.03 -0.03)"/><path class="a" d="M409,11.84c0,4-2.63,6.74-6.35,6.74-4.41,0-6.37-3.33-6.37-6.66,0-3.66,2.45-6.68,6.43-6.68C406.88,5.24,409,8.36,409,11.84Zm-9.08,0c0,2.27,1.06,3.71,2.79,3.71,1.49,0,2.63-1.29,2.63-3.66,0-2-.83-3.69-2.79-3.69-1.5,0-2.63,1.37-2.63,3.67Z" transform="translate(-368.03 -0.03)"/><path class="a" d="M417.84,17.88c0,.16,0,.28-.18.34a6.35,6.35,0,0,1-2.29.36c-2.25,0-3.56-1.11-3.56-3.69V8.49h-1.55c-.16,0-.21-.08-.21-.23V5.73c0-.18,0-.23.23-.23h1.55a29.79,29.79,0,0,1,.26-3.13.28.28,0,0,1,.23-.23l3-.39c.13,0,.21,0,.21.16-.08.8-.13,2.32-.13,3.59h2.37c.16,0,.21,0,.21.2V8.31c0,.13,0,.15-.18.18h-2.41V14c0,1.14.34,1.65,1.4,1.65a5.16,5.16,0,0,0,.87-.1c.11,0,.18,0,.18.18Z" transform="translate(-368.03 -0.03)"/><path class="a" d="M431.88,11.84c0,4-2.63,6.74-6.35,6.74-4.41,0-6.37-3.33-6.37-6.66,0-3.66,2.45-6.68,6.42-6.68C429.74,5.24,431.88,8.36,431.88,11.84Zm-9.08,0c0,2.27,1,3.71,2.78,3.71,1.5,0,2.63-1.29,2.63-3.66,0-2-.82-3.69-2.78-3.69-1.5,0-2.63,1.37-2.63,3.67Z" transform="translate(-368.03 -0.03)"/><path class="a" d="M440.91,15.33c3.69.18,5,1.67,5,3.71,0,2.69-2.63,4.85-6.78,4.85-4.31,0-6.2-2.14-6.2-4,0-.82.68-1.85,2.38-3.27a3.16,3.16,0,0,1-.54-2,3.61,3.61,0,0,1,.46-1.7,3.7,3.7,0,0,1-1.78-3.3c0-2.48,1.94-4.41,5.29-4.41a15.47,15.47,0,0,1,2.45.2,2.14,2.14,0,0,0,.62.06h3.54c.12,0,.18,0,.18.18v2.4c0,.13-.06.18-.18.18-.39,0-1.24-.08-1.79-.13A3.32,3.32,0,0,1,444,9.82c0,2.73-2.24,4.1-5.11,4.1a5.08,5.08,0,0,1-.87-.05,1.17,1.17,0,0,0-.06.69,1.27,1.27,0,0,0,.29.67Zm-3.67,2.89a2.5,2.5,0,0,0-1,1.36c0,.8,1.14,1.68,3.15,1.68,2.28,0,3.28-.8,3.28-1.6s-1.14-1.21-2.58-1.29ZM437,9.6a1.68,1.68,0,0,0,1.58,1.76h.26A1.58,1.58,0,0,0,440.59,10a1.82,1.82,0,0,0,0-.33,1.81,1.81,0,1,0-3.54-.76,2,2,0,0,0,0,.64Z" transform="translate(-368.03 -0.03)"/><path class="a" d="M450.4,5.5a.28.28,0,0,1,.31.23A4.77,4.77,0,0,1,451,7.17a5.42,5.42,0,0,1,4.1-1.93c.16,0,.21,0,.21.2V8.66c0,.13,0,.18-.23.18a5.31,5.31,0,0,0-3.9,1.11v8.2c0,.16-.06.21-.24.21h-3.15c-.21,0-.26-.08-.26-.23V9.19a29.42,29.42,0,0,0-.13-3.51c0-.13,0-.18.16-.18Z" transform="translate(-368.03 -0.03)"/><path class="a" d="M466.78,15.46v2a14.32,14.32,0,0,1-5.62,1.16c-2.87,0-5.22-1.32-5.22-4.31,0-2.74,2.4-4.18,5.83-4.18a13,13,0,0,1,1.53,0V10c0-.49-.31-1.63-2.48-1.63a8.33,8.33,0,0,0-3.41.7.17.17,0,0,1-.21,0,.11.11,0,0,1,0-.08V6.3a.22.22,0,0,1,.16-.27,9.63,9.63,0,0,1,4-.8c3.72,0,5.37,2.29,5.37,5.24ZM463.3,12.8a10.83,10.83,0,0,0-1.27-.08c-1.84,0-2.58.59-2.58,1.52s.64,1.55,2.27,1.55a5.43,5.43,0,0,0,1.6-.23Z" transform="translate(-368.03 -0.03)"/><path class="a" d="M481.82,11.51c0,4.72-3.87,7.07-7.9,7.07h-.49V23c0,.13,0,.21-.2.23-1.06.1-3,.28-3.2.31s-.18-.05-.18-.18V8.13a12.24,12.24,0,0,0-.08-1.7.12.12,0,0,1,.1-.13,16.78,16.78,0,0,1,5.42-1.06C479.78,5.24,481.82,8.28,481.82,11.51Zm-8.39-3v7a3.84,3.84,0,0,0,.83,0,3.64,3.64,0,0,0,3.87-3.39h0a3.23,3.23,0,0,0,0-.44c0-2.22-1.13-3.46-3.15-3.46a4.78,4.78,0,0,0-1.55.23Z" transform="translate(-368.03 -0.03)"/><path class="a" d="M487.73,18.11c0,.16-.06.21-.21.21h-3.17c-.16,0-.21-.08-.21-.21V.21c0-.11,0-.18.21-.18h3.17c.15,0,.21,0,.21.18V6.3a5.77,5.77,0,0,1,3.38-1.06c2,0,4.36,1,4.36,5.18v7.67c0,.15,0,.23-.24.23h-3.09c-.18,0-.26-.08-.26-.23v-7.3c0-1.63-.7-2.43-2-2.43a3.45,3.45,0,0,0-2.11.65Z" transform="translate(-368.03 -0.03)"/><path class="a" d="M500.42,5.5a.26.26,0,0,1,.25.16c1.48,4.41,2.25,7.09,2.61,8.43.83-2.73,1.63-5.21,2.63-8.43a.26.26,0,0,1,.29-.18h3.07c.18,0,.2.1.18.23-1.86,5.78-4.72,12.9-6.63,17.31-.06.11-.13.18-.36.18l-3.26.26c-.15,0-.2-.08-.12-.23.74-1.55,1.52-3.25,2.34-5.19a.43.43,0,0,0,0-.44c-.72-1.78-3.15-7.87-4.67-11.92-.08-.13,0-.2.15-.2Z" transform="translate(-368.03 -0.03)"/><path class="a" d="M528.74,11.51c0,4.72-3.87,7.07-7.89,7.07h-.49V23c0,.13,0,.21-.21.23-1.06.1-3,.28-3.2.31s-.18-.05-.18-.18V8.13a12,12,0,0,0-.08-1.7.12.12,0,0,1,.11-.13h0a16.47,16.47,0,0,1,5.42-1.06C526.67,5.24,528.74,8.28,528.74,11.51Zm-8.38-3v7a5.61,5.61,0,0,0,.82,0,3.64,3.64,0,0,0,3.87-3.39h0a3.23,3.23,0,0,0,0-.44c0-2.22-1.13-3.46-3.14-3.46a4.78,4.78,0,0,0-1.55.23Z" transform="translate(-368.03 -0.03)"/><path class="a" d="M531,.23c0-.13.05-.2.26-.2h3.07c.18,0,.26.07.26.2V14.66c0,.72.23,1,.85,1h.46c.11,0,.13,0,.13.18V18c0,.2,0,.25-.18.31a4.15,4.15,0,0,1-1.6.23c-1.85,0-3.25-.7-3.25-3.56Z" transform="translate(-368.03 -0.03)"/><path class="a" d="M548.3,15.46v2a14.33,14.33,0,0,1-5.63,1.16c-2.86,0-5.21-1.32-5.21-4.31,0-2.74,2.4-4.18,5.83-4.18a9.64,9.64,0,0,1,1.52,0V10c0-.49-.31-1.63-2.47-1.63a8.33,8.33,0,0,0-3.41.7.16.16,0,0,1-.21,0,.11.11,0,0,1,0-.08V6.3c0-.13,0-.21.18-.26a9.63,9.63,0,0,1,4-.8c3.72,0,5.37,2.29,5.37,5.24Zm-3.49-2.66a9.31,9.31,0,0,0-1.29-.08c-1.83,0-2.58.59-2.58,1.52s.65,1.55,2.27,1.55a5.12,5.12,0,0,0,1.6-.23Z" transform="translate(-368.03 -0.03)"/><path class="a" d="M551.36,8.49c0-.88-.05-2.22-.1-2.79,0-.13,0-.2.18-.2h2.71c.21,0,.29.07.34.2a3.51,3.51,0,0,1,.2.85,5.71,5.71,0,0,1,3.67-1.31c2,0,4.33,1,4.33,5.18v7.67c0,.15,0,.23-.23.23h-3.1c-.18,0-.25-.08-.25-.23V10.73c0-1.54-.68-2.37-2-2.37a3.13,3.13,0,0,0-2.14.8v9a.19.19,0,0,1-.17.21h-3.18c-.18,0-.24-.08-.24-.23Z" transform="translate(-368.03 -0.03)"/><path class="a" d="M565.11,16.41a2.15,2.15,0,0,1,4.29,0,2,2,0,0,1-1.81,2.17h-.33a2,2,0,0,1-2.15-1.84h0A1.82,1.82,0,0,1,565.11,16.41Z" transform="translate(-368.03 -0.03)"/></svg>