<svg xmlns="http://www.w3.org/2000/svg" viewBox="0 0 149.5 18.68"><defs><style>.a{fill:#fff;}</style></defs><title>tag_headline1</title><path class="a" d="M13.7,17.88c0,.19-.06.32-.21.37a11.45,11.45,0,0,1-3.61.47c-5.05,0-9-3-9-8.68,0-5.28,3.64-8.86,9.38-8.86a8.7,8.7,0,0,1,3.38.44.29.29,0,0,1,.18.31V4.76c0,.24-.13.24-.23.18a8.24,8.24,0,0,0-3.38-.57c-3.48,0-5.61,2.16-5.61,5.54,0,4.05,3,5.58,5.69,5.58a9.76,9.76,0,0,0,3.17-.41c.13-.05.21,0,.21.13Z" transform="translate(-0.91 -0.03)"/><path class="a" d="M28,11.93c0,4.08-2.65,6.79-6.39,6.79-4.44,0-6.42-3.36-6.42-6.71,0-3.69,2.47-6.73,6.47-6.73C25.81,5.28,28,8.43,28,11.93Zm-9.14,0c0,2.29,1.06,3.74,2.8,3.74,1.51,0,2.65-1.3,2.65-3.69,0-2-.83-3.71-2.8-3.71C20,8.3,18.82,9.65,18.82,12Z" transform="translate(-0.91 -0.03)"/><path class="a" d="M30.54,18.46c-.19,0-.24-.08-.24-.24V8.35c0-1-.08-2.08-.1-2.58,0-.15.05-.23.21-.23h2.75a.35.35,0,0,1,.31.16,3.61,3.61,0,0,1,.16,1,5.61,5.61,0,0,1,3.74-1.38A3.71,3.71,0,0,1,40.7,6.94a6.31,6.31,0,0,1,4.21-1.66c2.26,0,4.44,1.22,4.44,5.15v7.79a.21.21,0,0,1-.23.24H46c-.18,0-.26-.08-.26-.24V10.79c0-1.35-.47-2.39-2-2.39a3.48,3.48,0,0,0-2.21.83,9.88,9.88,0,0,1,.08,1.46v7.53c0,.13-.05.24-.21.24H38.28c-.16,0-.26-.06-.26-.24V10.69c0-1.56-.73-2.26-2-2.26a3.57,3.57,0,0,0-2.13.72v9.1c0,.13,0,.21-.23.21Z" transform="translate(-0.91 -0.03)"/><path class="a" d="M55.38,13c.13,1.48,1.17,2.7,3.72,2.7a8,8,0,0,0,3.19-.6c.08-.05.16,0,.16.13v2.47c0,.18-.05.26-.18.31a8.66,8.66,0,0,1-4,.76c-4.89,0-6.6-3.36-6.6-6.58,0-3.58,2.21-6.86,6.29-6.86,3.92,0,5.48,3,5.48,5.61a8.1,8.1,0,0,1-.13,1.74c0,.14-.08.19-.21.21a21.47,21.47,0,0,1-2.67.11Zm3.38-2.52a7.42,7.42,0,0,0,1.3-.06v-.18a2.12,2.12,0,0,0-2.21-2,2.47,2.47,0,0,0-2.5,2.29Z" transform="translate(-0.91 -0.03)"/><path class="a" d="M75,0c.2,0,.26,0,.26.21V5.57a8.39,8.39,0,0,1,2.18-.29,5.94,5.94,0,0,1,6.23,6.19c0,4.86-3.84,7.25-7.79,7.25a13.76,13.76,0,0,1-4.08-.6.32.32,0,0,1-.16-.26V.21c0-.13.06-.18.19-.18Zm1.79,8.32a5.13,5.13,0,0,0-1.53.21v7a3.92,3.92,0,0,0,1,.1A3.57,3.57,0,0,0,80,11.8C80,9.44,78.64,8.35,76.82,8.35Z" transform="translate(-0.91 -0.03)"/><path class="a" d="M96.18,15.57c0,.68,0,1.22,0,1.85,0,0,0,.1,0,.13a14.44,14.44,0,0,1-5.67,1.17c-2.88,0-5.25-1.33-5.25-4.34,0-2.76,2.42-4.21,5.88-4.21a11.34,11.34,0,0,1,1.53.05V10c0-.5-.31-1.64-2.49-1.64a8.32,8.32,0,0,0-3.43.7A.16.16,0,0,1,86.51,9V6.35a.23.23,0,0,1,.18-.26,9.75,9.75,0,0,1,4.08-.81c3.75,0,5.41,2.31,5.41,5.28ZM92.67,12.9a8.55,8.55,0,0,0-1.3-.08c-1.84,0-2.6.6-2.6,1.53s.65,1.56,2.29,1.56a5.4,5.4,0,0,0,1.61-.23Z" transform="translate(-0.91 -0.03)"/><path class="a" d="M108.29,18.09c0,.13,0,.18-.13.21a8,8,0,0,1-2.91.42c-4.21,0-6.86-2.84-6.86-6.66s2.93-6.78,7.35-6.78a6.88,6.88,0,0,1,2.39.29c.13,0,.16.13.16.28l0,2.68c0,.18-.1.21-.21.18a6.51,6.51,0,0,0-2.18-.31c-2.18,0-3.77,1.19-3.77,3.53,0,2.71,2,3.59,3.82,3.59a8.6,8.6,0,0,0,2.16-.23c.16-.06.21,0,.21.1Z" transform="translate(-0.91 -0.03)"/><path class="a" d="M122.27,5.54c.18,0,.26.13.15.26-.8,1-3.92,4.42-4.91,5.48a.11.11,0,0,0,0,.11c1.51,1.87,4,4.88,5.59,6.83.11.08,0,.24-.13.24h-4.13c-.18,0-.23-.08-.34-.19-.8-1-3-3.92-4.26-5.53V18.2c0,.18,0,.26-.23.26h-3.15c-.21,0-.26-.08-.26-.26V.24c0-.1.05-.21.26-.21H114c.13,0,.23.05.23.21V10.92c1.35-1.61,3.77-4.52,4.31-5.2a.41.41,0,0,1,.37-.18Z" transform="translate(-0.91 -0.03)"/><path class="a" d="M136.28,18c0,.16,0,.29-.19.34a6.4,6.4,0,0,1-2.31.37c-2.26,0-3.58-1.12-3.58-3.72V8.56h-1.56c-.16,0-.21-.08-.21-.24V5.77c0-.18,0-.23.23-.23h1.56a29.3,29.3,0,0,1,.26-3.14.29.29,0,0,1,.23-.24l3-.39c.13,0,.2,0,.2.16-.07.8-.13,2.34-.13,3.61h2.39c.16,0,.21,0,.21.21V8.37c0,.13-.05.16-.18.19h-2.44v5.56c0,1.14.34,1.66,1.4,1.66a5.27,5.27,0,0,0,.88-.1c.11,0,.19,0,.19.18Z" transform="translate(-0.91 -0.03)"/><path class="a" d="M150.41,11.93c0,4.08-2.65,6.79-6.39,6.79-4.44,0-6.42-3.36-6.42-6.71,0-3.69,2.47-6.73,6.47-6.73C148.26,5.28,150.41,8.43,150.41,11.93Zm-9.14,0c0,2.29,1.06,3.74,2.8,3.74,1.51,0,2.65-1.3,2.65-3.69,0-2-.83-3.71-2.8-3.71C142.41,8.3,141.27,9.65,141.27,12Z" transform="translate(-0.91 -0.03)"/></svg>