<svg xmlns="http://www.w3.org/2000/svg" viewBox="0 0 360.48 18.8"><defs><style>.a{fill:#fff;}</style></defs><title>tag_headline1</title><path class="a" d="M12.82,17.88c0,.19-.06.32-.21.37A11.31,11.31,0,0,1,9,18.72c-5,0-9-3-9-8.68C0,4.76,3.64,1.18,9.38,1.18a8.64,8.64,0,0,1,3.38.44.3.3,0,0,1,.18.31V4.76c0,.24-.13.24-.23.18a8.3,8.3,0,0,0-3.38-.57c-3.48,0-5.61,2.16-5.61,5.54,0,4,3,5.58,5.69,5.58a9.73,9.73,0,0,0,3.17-.41c.13-.05.21,0,.21.13Z" transform="translate(0 -0.01)"/><path class="a" d="M27.12,11.93c0,4.08-2.65,6.79-6.39,6.79-4.44,0-6.42-3.36-6.42-6.71,0-3.69,2.47-6.73,6.47-6.73S27.12,8.43,27.12,11.93Zm-9.14,0c0,2.29,1.06,3.74,2.8,3.74,1.51,0,2.65-1.3,2.65-3.69,0-2-.83-3.71-2.8-3.71-1.51,0-2.69,1.38-2.69,3.73Z" transform="translate(0 -0.01)"/><path class="a" d="M29.66,18.46c-.19,0-.24-.08-.24-.24V8.35c0-1-.08-2.08-.1-2.58,0-.15,0-.23.21-.23h2.75a.38.38,0,0,1,.31.16,3.73,3.73,0,0,1,.16,1,5.65,5.65,0,0,1,3.74-1.38,3.72,3.72,0,0,1,3.33,1.62A6.32,6.32,0,0,1,44,5.28c2.26,0,4.44,1.22,4.44,5.15v7.79a.21.21,0,0,1-.18.24H45.12c-.18,0-.26-.08-.26-.24V10.79c0-1.35-.47-2.39-2-2.39a3.46,3.46,0,0,0-2.21.83,10.13,10.13,0,0,1,.08,1.46v7.53c0,.13,0,.24-.21.24H37.4c-.16,0-.26-.06-.26-.24V10.69c0-1.56-.73-2.26-2-2.26A3.55,3.55,0,0,0,33,9.15v9.1c0,.13,0,.21-.23.21Z" transform="translate(0 -0.01)"/><path class="a" d="M54.5,13c.13,1.48,1.17,2.7,3.72,2.7a7.94,7.94,0,0,0,3.19-.6c.08-.05.16,0,.16.13v2.47c0,.18,0,.26-.18.31a8.61,8.61,0,0,1-4,.76c-4.89,0-6.6-3.36-6.6-6.58,0-3.58,2.21-6.86,6.29-6.86,3.92,0,5.48,3,5.48,5.61a7.81,7.81,0,0,1-.13,1.74c0,.14-.08.19-.21.21a21.68,21.68,0,0,1-2.67.11Zm3.38-2.52a7.08,7.08,0,0,0,1.3-.06v-.18a2.12,2.12,0,0,0-2.21-2,2.47,2.47,0,0,0-2.5,2.29Z" transform="translate(0 -0.01)"/><path class="a" d="M74.12,0c.2,0,.26,0,.26.21V5.57a8.42,8.42,0,0,1,2.18-.29,6,6,0,0,1,6.23,5.64,5,5,0,0,1,0,.55c0,4.86-3.84,7.25-7.79,7.25a13.76,13.76,0,0,1-4.08-.6.35.35,0,0,1-.16-.26V.21c0-.13.06-.18.19-.18Zm1.79,8.32a5,5,0,0,0-1.53.21v7a3.74,3.74,0,0,0,1,.1,3.58,3.58,0,0,0,3.75-3.39v-.44c0-2.36-1.36-3.45-3.18-3.45Z" transform="translate(0 -0.01)"/><path class="a" d="M95.3,15.57v2a14.35,14.35,0,0,1-5.67,1.17c-2.88,0-5.25-1.33-5.25-4.34,0-2.76,2.42-4.21,5.88-4.21a13,13,0,0,1,1.53,0V10c0-.5-.31-1.64-2.49-1.64a8.42,8.42,0,0,0-3.43.7.16.16,0,0,1-.22,0h0V6.35a.23.23,0,0,1,.18-.26,9.72,9.72,0,0,1,4.08-.81c3.75,0,5.41,2.31,5.41,5.28ZM91.79,12.9a8.11,8.11,0,0,0-1.3-.08c-1.84,0-2.6.6-2.6,1.53s.65,1.56,2.29,1.56a5.14,5.14,0,0,0,1.61-.23Z" transform="translate(0 -0.01)"/><path class="a" d="M107.41,18.09c0,.13,0,.18-.13.21a8,8,0,0,1-2.91.42c-4.21,0-6.86-2.84-6.86-6.66s2.93-6.78,7.35-6.78a6.89,6.89,0,0,1,2.39.29c.13,0,.16.13.16.28V8.53c0,.18-.1.21-.21.18A6.37,6.37,0,0,0,105,8.4c-2.18,0-3.77,1.19-3.77,3.53,0,2.71,2,3.59,3.82,3.59a8.72,8.72,0,0,0,2.16-.23c.16-.06.21,0,.21.1Z" transform="translate(0 -0.01)"/><path class="a" d="M121.39,5.54c.18,0,.26.13.15.26-.8,1-3.92,4.42-4.91,5.48a.11.11,0,0,0,0,.11c1.51,1.87,4,4.88,5.59,6.83.11.08,0,.24-.13.24H118c-.18,0-.23-.08-.34-.19-.8-1-3-3.92-4.26-5.53V18.2c0,.18,0,.26-.23.26H110c-.21,0-.26-.08-.26-.26V.24c0-.1,0-.21.26-.21h3.14c.13,0,.23.05.23.21V10.92c1.35-1.61,3.77-4.52,4.31-5.2a.41.41,0,0,1,.37-.18Z" transform="translate(0 -0.01)"/><path class="a" d="M135.4,18c0,.16,0,.29-.19.34a6.47,6.47,0,0,1-2.31.37c-2.26,0-3.58-1.12-3.58-3.72V8.56h-1.56c-.16,0-.21-.08-.21-.24V5.77c0-.18,0-.23.23-.23h1.56a30,30,0,0,1,.26-3.14.29.29,0,0,1,.23-.24l3-.39c.13,0,.2,0,.2.16-.07.8-.13,2.34-.13,3.61h2.39c.16,0,.21,0,.21.21V8.37c0,.13-.05.16-.18.19h-2.44v5.56c0,1.14.34,1.66,1.4,1.66a5.16,5.16,0,0,0,.88-.1c.11,0,.19,0,.19.18Z" transform="translate(0 -0.01)"/><path class="a" d="M149.53,11.93c0,4.08-2.65,6.79-6.39,6.79-4.44,0-6.42-3.36-6.42-6.71,0-3.69,2.47-6.73,6.47-6.73C147.38,5.28,149.53,8.43,149.53,11.93Zm-9.14,0c0,2.29,1.06,3.74,2.8,3.74,1.51,0,2.65-1.3,2.65-3.69,0-2-.83-3.71-2.8-3.71-1.51,0-2.65,1.38-2.65,3.73Z" transform="translate(0 -0.01)"/><path class="a" d="M164.88,18c0,.16,0,.29-.19.34a6.47,6.47,0,0,1-2.31.37c-2.26,0-3.58-1.12-3.58-3.72V8.56h-1.56c-.16,0-.21-.08-.21-.24V5.77c0-.18.05-.23.23-.23h1.56a30,30,0,0,1,.26-3.14.3.3,0,0,1,.24-.24l3-.39c.13,0,.2,0,.2.16-.07.8-.13,2.34-.13,3.61h2.43c.16,0,.21,0,.21.21V8.37c0,.13-.05.16-.18.19h-2.44v5.56c0,1.14.34,1.66,1.4,1.66a5.16,5.16,0,0,0,.88-.1c.11,0,.19,0,.19.18Z" transform="translate(0 -0.01)"/><path class="a" d="M170.75,18.25c0,.15-.05.21-.21.21h-3.19c-.16,0-.21-.08-.21-.21V.21c0-.1,0-.18.21-.18h3.19c.16,0,.21.05.21.18V6.35a5.68,5.68,0,0,1,3.4-1.07c2,0,4.4,1,4.4,5.22v7.72c0,.16-.06.24-.24.24h-3.12c-.18,0-.26-.08-.26-.24V10.87c0-1.64-.7-2.44-2.05-2.44a3.53,3.53,0,0,0-2.13.65Z" transform="translate(0 -0.01)"/><path class="a" d="M184.58,13c.12,1.48,1.16,2.7,3.71,2.7a8,8,0,0,0,3.2-.6c.07-.05.15,0,.15.13v2.47c0,.18,0,.26-.18.31a8.61,8.61,0,0,1-4,.76c-4.89,0-6.6-3.36-6.6-6.58,0-3.58,2.2-6.86,6.28-6.86s5.49,3,5.49,5.61a9.21,9.21,0,0,1-.13,1.74c0,.14-.08.19-.21.21a21.84,21.84,0,0,1-2.68.11ZM188,10.46a7.08,7.08,0,0,0,1.3-.06v-.18a2.11,2.11,0,0,0-2.21-2,2.46,2.46,0,0,0-2.49,2.29Z" transform="translate(0 -0.01)"/><path class="a" d="M213,17.88c0,.19,0,.32-.2.37a11.37,11.37,0,0,1-3.62.47c-5,0-9-3-9-8.68,0-5.28,3.64-8.86,9.38-8.86a8.67,8.67,0,0,1,3.39.44.3.3,0,0,1,.18.31V4.76c0,.24-.13.24-.23.18a8.3,8.3,0,0,0-3.38-.57A5.17,5.17,0,0,0,204,9.11a5.34,5.34,0,0,0,0,.8c0,4,3,5.58,5.7,5.58a9.73,9.73,0,0,0,3.17-.41c.13-.05.2,0,.2.13Z" transform="translate(0 -0.01)"/><path class="a" d="M218.25,5.54a.3.3,0,0,1,.32.23,4.84,4.84,0,0,1,.28,1.46A5.42,5.42,0,0,1,223,5.28c.16,0,.21,0,.21.21v3.2c0,.13,0,.18-.23.18A5.39,5.39,0,0,0,219,10V18.3c0,.15-.05.21-.24.21h-3.13c-.21,0-.26-.08-.26-.24v-9a29.92,29.92,0,0,0-.13-3.54c0-.13,0-.18.15-.18Z" transform="translate(0 -0.01)"/><path class="a" d="M228,13c.13,1.48,1.17,2.7,3.72,2.7a8,8,0,0,0,3.2-.6c.07-.05.15,0,.15.13v2.47c0,.18,0,.26-.18.31a8.61,8.61,0,0,1-4,.76c-4.88,0-6.6-3.36-6.6-6.58,0-3.58,2.21-6.86,6.29-6.86s5.49,3,5.49,5.61a8.7,8.7,0,0,1-.14,1.69c0,.14-.08.19-.21.21a21.84,21.84,0,0,1-2.68.11Zm3.38-2.52a7.08,7.08,0,0,0,1.3-.06v-.18a2.11,2.11,0,0,0-2.21-2A2.46,2.46,0,0,0,228,10.53Z" transform="translate(0 -0.01)"/><path class="a" d="M248.5,15.57v2a14.31,14.31,0,0,1-5.66,1.17c-2.89,0-5.25-1.33-5.25-4.34,0-2.76,2.41-4.21,5.87-4.21a13,13,0,0,1,1.53,0V10c0-.5-.31-1.64-2.49-1.64A8.42,8.42,0,0,0,239,9a.15.15,0,0,1-.21,0h0V6.35c0-.13,0-.21.18-.26a9.72,9.72,0,0,1,4.08-.81c3.74,0,5.4,2.31,5.4,5.28ZM245,12.9a8.11,8.11,0,0,0-1.3-.08c-1.84,0-2.59.6-2.59,1.53s.65,1.56,2.28,1.56a5.14,5.14,0,0,0,1.61-.23Z" transform="translate(0 -0.01)"/><path class="a" d="M257.86,18c0,.16,0,.29-.18.34a6.52,6.52,0,0,1-2.32.37c-2.26,0-3.58-1.12-3.58-3.72V8.56h-1.56c-.16,0-.21-.08-.21-.24V5.77c0-.18,0-.23.23-.23h1.56A29.94,29.94,0,0,1,252,2.4a.3.3,0,0,1,.24-.24l3-.39c.13,0,.2,0,.2.16-.07.8-.13,2.34-.13,3.61h2.4c.15,0,.2,0,.2.21V8.37c0,.13,0,.16-.18.19h-2.4v5.56c0,1.14.34,1.66,1.4,1.66a5.27,5.27,0,0,0,.89-.1c.1,0,.18,0,.18.18Z" transform="translate(0 -0.01)"/><path class="a" d="M260,2.14a2,2,0,0,1,2-2,1.87,1.87,0,0,1,2,1.75,1,1,0,0,1,0,.25,1.91,1.91,0,0,1-1.82,2H262a1.87,1.87,0,0,1-2-1.75A1,1,0,0,1,260,2.14Zm.18,3.61c0-.13,0-.21.21-.21h3.2c.15,0,.2,0,.2.21V18.22c0,.16,0,.24-.23.24h-3.16c-.18,0-.26-.08-.26-.24Z" transform="translate(0 -0.01)"/><path class="a" d="M269.89,18.46a.3.3,0,0,1-.31-.19c-1-2.93-3.17-9.53-4.24-12.52a.18.18,0,0,1,.12-.21H269c.18,0,.23,0,.28.18,1.69,5.85,2.26,8.16,2.52,9.33h.06c.26-1.17.93-3.51,2.75-9.33,0-.13.1-.18.23-.18h3a.16.16,0,0,1,.17.15.11.11,0,0,1,0,.08c-1.11,3.07-3.3,9.65-4.33,12.48-.08.13-.13.21-.32.21Z" transform="translate(0 -0.01)"/><path class="a" d="M282.49,13c.13,1.48,1.17,2.7,3.72,2.7a8,8,0,0,0,3.2-.6c.07-.05.15,0,.15.13v2.47c0,.18,0,.26-.18.31a8.61,8.61,0,0,1-4,.76c-4.88,0-6.6-3.36-6.6-6.58,0-3.61,2.25-6.89,6.25-6.89s5.48,3,5.48,5.61a7.81,7.81,0,0,1-.13,1.74c0,.14-.07.19-.2.21a21.84,21.84,0,0,1-2.68.11Zm3.38-2.52a7.08,7.08,0,0,0,1.3-.06v-.18a2.11,2.11,0,0,0-2.21-2,2.45,2.45,0,0,0-2.49,2.29Z" transform="translate(0 -0.01)"/><path class="a" d="M311,17.88c0,.19-.05.32-.21.37a11.31,11.31,0,0,1-3.61.47c-5,0-9-3-9-8.68,0-5.28,3.64-8.86,9.38-8.86a8.64,8.64,0,0,1,3.38.44.3.3,0,0,1,.14.31V4.76c0,.24-.13.24-.24.18a8.09,8.09,0,0,0-3.37-.57c-3.49,0-5.62,2.16-5.62,5.54,0,4,3,5.58,5.69,5.58a9.73,9.73,0,0,0,3.17-.41c.13-.05.21,0,.21.13Z" transform="translate(0 -0.01)"/><path class="a" d="M313.24.24c0-.13,0-.21.26-.21h3.09c.18,0,.26.08.26.21V14.79c0,.73.23,1,.85,1h.47c.11,0,.13.06.13.19v2.23c0,.21,0,.26-.18.31a4.2,4.2,0,0,1-1.61.24c-1.87,0-3.27-.71-3.27-3.59Z" transform="translate(0 -0.01)"/><path class="a" d="M332.44,11.93c0,4.08-2.65,6.79-6.39,6.79-4.45,0-6.42-3.36-6.42-6.71,0-3.69,2.47-6.73,6.47-6.73C330.28,5.28,332.44,8.43,332.44,11.93Zm-9.15,0c0,2.29,1.07,3.74,2.81,3.74,1.51,0,2.65-1.3,2.65-3.69,0-2-.83-3.71-2.81-3.71-1.5,0-2.65,1.38-2.65,3.73Z" transform="translate(0 -0.01)"/><path class="a" d="M346,15.57a21.78,21.78,0,0,0,.16,2.68c0,.15-.06.21-.24.21H343.2c-.21,0-.26-.06-.31-.19a7.08,7.08,0,0,1-.16-.8,5.26,5.26,0,0,1-3.56,1.25c-2.6,0-4.39-1.43-4.39-5v-8c0-.18,0-.21.23-.21h3.17c.16,0,.19,0,.19.21v7.54c0,1.4.59,2.31,2,2.31a2.84,2.84,0,0,0,2-.76V5.75c0-.16.08-.21.26-.21h3.14c.18,0,.21,0,.21.21Z" transform="translate(0 -0.01)"/><path class="a" d="M348.4,12.12c0-3.72,2.78-6.84,7.53-6.84h.86V.21a.16.16,0,0,1,.1-.2h3.33c.13,0,.16,0,.16.16V15.55a17.09,17.09,0,0,0,.1,1.89c0,.13,0,.19-.18.24a13.2,13.2,0,0,1-5.12,1C351.36,18.72,348.4,16.53,348.4,12.12Zm8.39-3.69a2.6,2.6,0,0,0-1-.13,3.47,3.47,0,0,0-3.71,3.21,2.94,2.94,0,0,0,0,.42c0,2.58,1.48,3.69,3.46,3.69a3.62,3.62,0,0,0,1.22-.15Z" transform="translate(0 -0.01)"/></svg>