<svg xmlns="http://www.w3.org/2000/svg" viewBox="0 0 252.52 59.87"><defs><style>.a,.c{fill:none;stroke:#fff;}.a{stroke-miterlimit:10;stroke-width:0.75px;}.b{fill:#0197ff;}.c{stroke-width:1.5px;}</style></defs><title>F1_dotted_box</title><path class="a" d="M1.58,2.1H250.42V57.77H1.58Z"/><path class="a" d="M1.58,2.1h3v1h-3Zm5,0h3v1h-3Zm5,0h3v1h-3Zm5,0h3v1h-3Zm5,0h3v1h-3Zm5,0h3v1h-3Zm5,0h3v1h-3Zm5,0h3v1h-3Zm5,0h3v1h-3Zm5,0h3v1h-3Zm5,0h3v1h-3Zm5,0h3v1h-3Zm5,0h3v1h-3Zm5,0h3v1h-3Zm5,0h3v1h-3Zm5,0h3v1h-3Zm5,0h3v1h-3Zm5,0h3v1h-3Zm5,0h3v1h-3Zm5,0h3v1h-3Zm5,0h3v1h-3Zm5,0h3v1h-3Zm5,0h3v1h-3Zm5,0h3v1h-3Zm5,0h3v1h-3Zm5,0h3v1h-3Zm5,0h3v1h-3Zm5,0h3v1h-3Zm5,0h3v1h-3Zm5,0h3v1h-3Zm5,0h3v1h-3Zm5,0h3v1h-3Zm5,0h3v1h-3Zm5,0h3v1h-3Zm5,0h3v1h-3Zm5,0h3v1h-3Zm5,0h3v1h-3Zm5,0h3v1h-3Zm5,0h3v1h-3Zm5,0h3v1h-3Zm5,0h3v1h-3Zm5,0h3v1h-3Zm5,0h3v1h-3Zm5,0h3v1h-3Zm5,0h3v1h-3Zm5,0h3v1h-3Zm5,0h3v1h-3Zm5,0h3v1h-3Zm5,0h3v1h-3Zm5,0h3v1h-3Zm2.84,1.16h1v3h-1Zm0,5h1v3h-1Zm0,5h1v3h-1Zm0,5h1v3h-1Zm0,5h1v3h-1Zm0,5h1v3h-1Zm0,5h1v3h-1Zm0,5h1v3h-1Zm0,5h1v3h-1Zm0,5h1v3h-1Zm0,5h1v3h-1Zm-2.48,3.51h3v1h-3Zm-5,0h3v1h-3Zm-5,0h3v1h-3Zm-5,0h3v1h-3Zm-5,0h3v1h-3Zm-5,0h3v1h-3Zm-5,0h3v1h-3Zm-5,0h3v1h-3Zm-5,0h3v1h-3Zm-5,0h3v1h-3Zm-5,0h3v1h-3Zm-5,0h3v1h-3Zm-5,0h3v1h-3Zm-5,0h3v1h-3Zm-5,0h3v1h-3Zm-5,0h3v1h-3Zm-5,0h3v1h-3Zm-5,0h3v1h-3Zm-5,0h3v1h-3Zm-5,0h3v1h-3Zm-5,0h3v1h-3Zm-5,0h3v1h-3Zm-5,0h3v1h-3Zm-5,0h3v1h-3Zm-5,0h3v1h-3Zm-5,0h3v1h-3Zm-5,0h3v1h-3Zm-5,0h3v1h-3Zm-5,0h3v1h-3Zm-5,0h3v1h-3Zm-5,0h3v1h-3Zm-5,0h3v1h-3Zm-5,0h3v1h-3Zm-5,0h3v1h-3Zm-5,0h3v1h-3Zm-5,0h3v1h-3Zm-5,0h3v1h-3Zm-5,0h3v1h-3Zm-5,0h3v1h-3Zm-5,0h3v1h-3Zm-5,0h3v1h-3Zm-5,0h3v1h-3Zm-5,0h3v1h-3Zm-5,0h3v1h-3Zm-5,0h3v1h-3Zm-5,0h3v1h-3Zm-5,0h3v1h-3Zm-5,0h3v1h-3Zm-5,0h3v1h-3Zm-5,0h3v1h-3Zm-.36-3.64h1v3h-1Zm0-5h1v3h-1Zm0-5h1v3h-1Zm0-5h1v3h-1Zm0-5h1v3h-1Zm0-5h1v3h-1Zm0-5h1v3h-1Zm0-5h1v3h-1Zm0-5h1v3h-1Zm0-5h1v3h-1Zm0-5h1v3h-1Z"/><rect class="b" y="28.89" width="4.2" height="4.2"/><rect class="c" x="0.75" y="29.64" width="2.7" height="2.7"/><rect class="b" y="0.52" width="4.2" height="4.2"/><rect class="c" x="0.75" y="1.27" width="2.7" height="2.7"/><rect class="b" y="55.67" width="4.2" height="4.2"/><rect class="c" x="0.75" y="56.42" width="2.7" height="2.7"/><rect class="b" x="248.32" y="28.89" width="4.2" height="4.2"/><rect class="c" x="249.07" y="29.64" width="2.7" height="2.7"/><rect class="b" x="248.32" y="0.52" width="4.2" height="4.2"/><rect class="c" x="249.07" y="1.27" width="2.7" height="2.7"/><rect class="b" x="123.6" width="4.2" height="4.2"/><rect class="c" x="124.35" y="0.75" width="2.7" height="2.7"/><rect class="b" x="124.16" y="55.15" width="4.2" height="4.2"/><rect class="c" x="124.91" y="55.9" width="2.7" height="2.7"/><rect class="b" x="247.79" y="55.15" width="4.2" height="4.2"/><rect class="c" x="248.54" y="55.9" width="2.7" height="2.7"/></svg>