<svg xmlns="http://www.w3.org/2000/svg" viewBox="0 0 253.52 61.35"><defs><style>.a{fill:none;stroke:#fff;stroke-miterlimit:10;}.b{fill:#fff;}</style></defs><title>F1_dotted_box</title><rect class="a" x="0.5" y="29.39" width="4.2" height="4.2"/><rect class="a" x="0.5" y="1.02" width="4.2" height="4.2"/><rect class="a" x="0.5" y="56.17" width="4.2" height="4.2"/><rect class="a" x="248.94" y="28.61" width="4.08" height="4.08"/><rect class="a" x="248.82" y="1.02" width="4.2" height="4.2"/><rect class="a" x="124.1" y="0.5" width="4.2" height="4.2"/><rect class="a" x="124.66" y="56.65" width="4.2" height="4.2"/><rect class="a" x="248.29" y="55.65" width="4.2" height="4.2"/><rect class="b" x="7.11" y="1.5" width="3.02" height="1.04"/><rect class="b" x="12.13" y="1.5" width="3.02" height="1.04"/><rect class="b" x="17.16" y="1.5" width="3.02" height="1.04"/><rect class="b" x="22.18" y="1.5" width="3.02" height="1.04"/><rect class="b" x="27.21" y="1.5" width="3.02" height="1.04"/><rect class="b" x="32.23" y="1.5" width="3.02" height="1.04"/><rect class="b" x="37.26" y="1.5" width="3.02" height="1.04"/><rect class="b" x="42.28" y="1.5" width="3.02" height="1.04"/><rect class="b" x="47.31" y="1.5" width="3.02" height="1.04"/><rect class="b" x="52.33" y="1.5" width="3.02" height="1.04"/><rect class="b" x="57.36" y="1.5" width="3.02" height="1.04"/><rect class="b" x="62.38" y="1.5" width="3.02" height="1.04"/><rect class="b" x="67.41" y="1.5" width="3.02" height="1.04"/><rect class="b" x="72.43" y="1.5" width="3.02" height="1.04"/><rect class="b" x="77.46" y="1.5" width="3.02" height="1.04"/><rect class="b" x="82.48" y="1.5" width="3.02" height="1.04"/><rect class="b" x="87.51" y="1.5" width="3.02" height="1.04"/><rect class="b" x="92.53" y="1.5" width="3.02" height="1.04"/><rect class="b" x="97.56" y="1.5" width="3.02" height="1.04"/><rect class="b" x="102.58" y="1.5" width="3.02" height="1.04"/><rect class="b" x="107.61" y="1.5" width="3.02" height="1.04"/><rect class="b" x="112.63" y="1.5" width="3.02" height="1.04"/><rect class="b" x="117.66" y="1.5" width="3.02" height="1.04"/><rect class="b" x="131.73" y="1.5" width="3.02" height="1.04"/><rect class="b" x="136.76" y="1.5" width="3.02" height="1.04"/><rect class="b" x="141.78" y="1.5" width="3.02" height="1.04"/><rect class="b" x="146.81" y="1.5" width="3.02" height="1.04"/><rect class="b" x="151.83" y="1.5" width="3.02" height="1.04"/><rect class="b" x="156.86" y="1.5" width="3.02" height="1.04"/><rect class="b" x="161.88" y="1.5" width="3.02" height="1.04"/><rect class="b" x="166.91" y="1.5" width="3.02" height="1.04"/><rect class="b" x="171.93" y="1.5" width="3.02" height="1.04"/><rect class="b" x="176.96" y="1.5" width="3.02" height="1.04"/><rect class="b" x="181.98" y="1.5" width="3.02" height="1.04"/><rect class="b" x="187.01" y="1.5" width="3.02" height="1.04"/><rect class="b" x="192.03" y="1.5" width="3.02" height="1.04"/><rect class="b" x="197.06" y="1.5" width="3.02" height="1.04"/><rect class="b" x="202.08" y="1.5" width="3.02" height="1.04"/><rect class="b" x="207.11" y="1.5" width="3.02" height="1.04"/><rect class="b" x="212.13" y="1.5" width="3.02" height="1.04"/><rect class="b" x="217.16" y="1.5" width="3.02" height="1.04"/><rect class="b" x="222.18" y="1.5" width="3.02" height="1.04"/><rect class="b" x="227.21" y="1.5" width="3.02" height="1.04"/><rect class="b" x="232.23" y="1.5" width="3.02" height="1.04"/><rect class="b" x="237.26" y="1.5" width="3.02" height="1.04"/><rect class="b" x="242.28" y="1.5" width="3.02" height="1.04"/><rect class="b" x="251.16" y="7.88" width="1.01" height="3.11"/><rect class="b" x="251.16" y="13.06" width="1.01" height="3.11"/><rect class="b" x="251.16" y="18.24" width="1.01" height="3.11"/><rect class="b" x="251.16" y="23.42" width="1.01" height="3.11"/><rect class="b" x="242.64" y="58.13" width="3.02" height="1.04"/><rect class="b" x="237.62" y="58.13" width="3.02" height="1.04"/><rect class="b" x="232.59" y="58.13" width="3.02" height="1.04"/><rect class="b" x="227.57" y="58.13" width="3.02" height="1.04"/><rect class="b" x="222.54" y="58.13" width="3.02" height="1.04"/><rect class="b" x="217.52" y="58.13" width="3.02" height="1.04"/><rect class="b" x="212.49" y="58.13" width="3.02" height="1.04"/><rect class="b" x="207.47" y="58.13" width="3.02" height="1.04"/><rect class="b" x="202.44" y="58.13" width="3.02" height="1.04"/><rect class="b" x="197.42" y="58.13" width="3.02" height="1.04"/><rect class="b" x="192.39" y="58.13" width="3.02" height="1.04"/><rect class="b" x="187.37" y="58.13" width="3.02" height="1.04"/><rect class="b" x="182.34" y="58.13" width="3.02" height="1.04"/><rect class="b" x="177.32" y="58.13" width="3.02" height="1.04"/><rect class="b" x="172.29" y="58.13" width="3.02" height="1.04"/><rect class="b" x="167.27" y="58.13" width="3.02" height="1.04"/><rect class="b" x="162.24" y="58.13" width="3.02" height="1.04"/><rect class="b" x="157.22" y="58.13" width="3.02" height="1.04"/><rect class="b" x="152.19" y="58.13" width="3.02" height="1.04"/><rect class="b" x="147.17" y="58.13" width="3.02" height="1.04"/><rect class="b" x="142.14" y="58.13" width="3.02" height="1.04"/><rect class="b" x="137.12" y="58.13" width="3.02" height="1.04"/><rect class="b" x="132.09" y="58.13" width="3.02" height="1.04"/><rect class="b" x="118.02" y="58.13" width="3.02" height="1.04"/><rect class="b" x="112.99" y="58.13" width="3.02" height="1.04"/><rect class="b" x="107.97" y="58.13" width="3.02" height="1.04"/><rect class="b" x="102.94" y="58.13" width="3.02" height="1.04"/><rect class="b" x="97.92" y="58.13" width="3.02" height="1.04"/><rect class="b" x="92.89" y="58.13" width="3.02" height="1.04"/><rect class="b" x="87.87" y="58.13" width="3.02" height="1.04"/><rect class="b" x="82.84" y="58.13" width="3.02" height="1.04"/><rect class="b" x="77.82" y="58.13" width="3.02" height="1.04"/><rect class="b" x="72.79" y="58.13" width="3.02" height="1.04"/><rect class="b" x="67.77" y="58.13" width="3.02" height="1.04"/><rect class="b" x="62.74" y="58.13" width="3.02" height="1.04"/><rect class="b" x="57.72" y="58.13" width="3.02" height="1.04"/><rect class="b" x="52.69" y="58.13" width="3.02" height="1.04"/><rect class="b" x="47.67" y="58.13" width="3.02" height="1.04"/><rect class="b" x="42.64" y="58.13" width="3.02" height="1.04"/><rect class="b" x="37.62" y="58.13" width="3.02" height="1.04"/><rect class="b" x="32.59" y="58.13" width="3.02" height="1.04"/><rect class="b" x="27.57" y="58.13" width="3.02" height="1.04"/><rect class="b" x="22.54" y="58.13" width="3.02" height="1.04"/><rect class="b" x="17.52" y="58.13" width="3.02" height="1.04"/><rect class="b" x="12.49" y="58.13" width="3.02" height="1.04"/><rect class="b" x="7.47" y="58.13" width="3.02" height="1.04"/><rect class="b" x="2.08" y="23.28" width="1.01" height="3.11"/><rect class="b" x="2.08" y="18.1" width="1.01" height="3.11"/><rect class="b" x="2.08" y="12.93" width="1.01" height="3.11"/><rect class="b" x="2.08" y="7.75" width="1.01" height="3.11"/><rect class="b" x="251.16" y="35.88" width="1.01" height="3.11"/><rect class="b" x="251.16" y="41.06" width="1.01" height="3.11"/><rect class="b" x="251.16" y="46.24" width="1.01" height="3.11"/><rect class="b" x="251.16" y="51.42" width="1.01" height="3.11"/><rect class="b" x="2.08" y="51.28" width="1.01" height="3.11"/><rect class="b" x="2.08" y="46.1" width="1.01" height="3.11"/><rect class="b" x="2.08" y="40.93" width="1.01" height="3.11"/><rect class="b" x="2.08" y="35.75" width="1.01" height="3.11"/></svg>