<?xml version="1.0" encoding="utf-8"?>
<!-- Generator: Adobe Illustrator 22.1.0, SVG Export Plug-In . SVG Version: 6.00 Build 0)  -->
<svg version="1.1" id="Layer_1" xmlns="http://www.w3.org/2000/svg" xmlns:xlink="http://www.w3.org/1999/xlink" x="0px" y="0px"
	 viewBox="0 0 102 36" style="enable-background:new 0 0 102 36;" xml:space="preserve">
<style type="text/css">
	.st0{fill:none;stroke:#FFFFFF;stroke-width:2;}
	.st1{fill:#FFFFFF;}
</style>
<title>tag_cta</title>
<path class="st0" d="M18,1h66c9.4,0,17,7.6,17,17l0,0c0,9.4-7.6,17-17,17H18C8.6,35,1,27.4,1,18l0,0C1,8.6,8.6,1,18,1z"/>
<path class="st1" d="M22.7,22c-0.1,0-0.1-0.1-0.1-0.2v-1.6c0-0.1,0-0.1,0.1-0.1c0.7,0.5,1.6,0.7,2.5,0.7c1,0,1.5-0.4,1.5-0.8
	s-0.3-0.8-1.2-1.1l-0.7-0.3c-1.7-0.7-2.1-1.6-2.1-2.6c0-1.5,1.1-2.7,3.3-2.7c0.7,0,1.5,0.1,2.1,0.4c0.1,0,0.1,0.1,0.1,0.2v1.5
	c0,0.1,0,0.1-0.1,0.1c-0.6-0.3-1.4-0.4-2.1-0.4c-1,0-1.4,0.4-1.4,0.8c0,0.5,0.3,0.7,1.3,1.1l0.5,0.2c1.8,0.8,2.3,1.6,2.3,2.7
	c0,1.7-1.3,2.7-3.5,2.7C24.3,22.6,23.5,22.4,22.7,22z"/>
<path class="st1" d="M35.4,20.9c0,0.4,0,0.6,0,1c0,0,0,0.1,0,0.1c-0.9,0.4-2,0.6-3,0.6c-1.5,0-2.8-0.7-2.8-2.3s1.3-2.3,3.1-2.3
	c0.3,0,0.5,0,0.8,0v-0.1c0-0.3-0.2-0.9-1.3-0.9c-0.6,0-1.2,0.1-1.8,0.4c0,0-0.1,0-0.1,0c0,0,0,0,0,0V16c0-0.1,0-0.1,0.1-0.1
	c0.7-0.3,1.4-0.4,2.2-0.4c1.4-0.2,2.7,0.9,2.8,2.3c0,0.2,0,0.3,0,0.5L35.4,20.9z M33.5,19.4c-0.2,0-0.5,0-0.7,0
	c-1,0-1.4,0.3-1.4,0.8s0.3,0.8,1.2,0.8c0.3,0,0.6,0,0.8-0.1L33.5,19.4z"/>
<path class="st1" d="M38.4,22.4c-0.1,0-0.1,0-0.2-0.1c-0.5-1.5-1.7-5-2.2-6.6c0-0.1,0-0.1,0.1-0.1h1.8c0.1,0,0.1,0,0.2,0.1
	c0.9,3.1,1.2,4.3,1.3,4.9l0,0c0.1-0.6,0.5-1.9,1.5-4.9c0-0.1,0.1-0.1,0.1-0.1h1.6c0,0,0.1,0,0.1,0.1c0,0,0,0,0,0
	c-0.6,1.6-1.7,5.1-2.3,6.6c0,0.1-0.1,0.1-0.2,0.1L38.4,22.4z"/>
<path class="st1" d="M45.1,19.5c0.1,0.8,0.6,1.4,2,1.4c0.6,0,1.2-0.1,1.7-0.3c0,0,0.1,0,0.1,0.1V22c0,0.1,0,0.1-0.1,0.2
	c-0.7,0.3-1.4,0.4-2.1,0.4c-1.8,0.2-3.3-1.1-3.5-2.9c0-0.2,0-0.5,0-0.7c-0.1-1.8,1.2-3.4,3.1-3.6c0.1,0,0.2,0,0.3,0
	c1.5-0.1,2.8,1.2,2.9,2.7c0,0.1,0,0.2,0,0.3c0,0.3,0,0.6-0.1,0.9c0,0.1,0,0.1-0.1,0.1s-0.7,0-1.4,0L45.1,19.5z M46.8,18.1
	c0.2,0,0.5,0,0.7,0V18c0-0.6-0.5-1.1-1.1-1.1c0,0,0,0,0,0c-0.7,0-1.3,0.5-1.3,1.2L46.8,18.1z"/>
<path class="st1" d="M73.1,16.1c0.1,1.3-0.9,2.4-2.2,2.5c0,0-0.1,0-0.1,0c-1.2,0.1-2.2-0.9-2.3-2.1c0-0.1,0-0.3,0-0.4
	c-0.1-1.3,0.8-2.4,2.1-2.6c0.1,0,0.1,0,0.2,0C72.4,13.6,73.1,14.7,73.1,16.1z M70.9,17.4c0.5,0,0.8-0.4,0.8-1.3s-0.3-1.3-0.8-1.3
	S70,15.2,70,16.1C70,16.8,70.3,17.4,70.9,17.4z M71.6,22.3c0,0.1-0.1,0.1-0.2,0.1h-1.2c-0.1,0-0.1-0.1,0-0.1l6-8.4
	c0-0.1,0.1-0.1,0.2-0.1h1.2c0,0,0,0.1,0,0.1c0,0,0,0,0,0L71.6,22.3z M79.3,20c0.1,1.3-0.9,2.4-2.2,2.5c0,0-0.1,0-0.1,0
	c-1.2,0.1-2.3-0.9-2.3-2.1c0-0.1,0-0.3,0-0.4c-0.1-1.3,0.8-2.4,2.1-2.5c0.1,0,0.1,0,0.2,0c1.2,0,2.3,0.9,2.3,2.1
	C79.4,19.7,79.4,19.9,79.3,20z M77.1,21.3c0.5,0,0.8-0.4,0.8-1.3s-0.3-1.3-0.8-1.3s-0.9,0.4-0.9,1.3S76.5,21.2,77.1,21.3L77.1,21.3z
	"/>
<g>
	<path class="st1" d="M53.7,22.5c-0.1,0-0.1-0.1-0.1-0.1v-1.1c0-0.1,0-0.1,0.1-0.2c0.6-0.5,1.5-1.1,2.2-1.8c1.4-1.3,1.7-2.1,1.7-2.7
		c0-0.9-0.5-1.4-1.6-1.4c-0.9,0-1.5,0.3-2,0.6c-0.1,0-0.1,0-0.1-0.1v-1.5c0-0.1,0-0.1,0.1-0.2c0.7-0.4,1.6-0.6,2.5-0.6
		c2.1,0,3.1,1.4,3.1,2.9c0,1-0.4,2.1-1.5,3.2c-0.7,0.7-1.1,1-1.6,1.3c0.5-0.1,1.1-0.1,2-0.1h1.5c0.1,0,0.1,0,0.1,0.1l-0.3,1.5
		c0,0.1-0.1,0.1-0.1,0.1H53.7z"/>
	<path class="st1" d="M63.2,15.4c-0.1,0.3-0.2,1-0.3,1.3c2.9,0.3,4,1.4,4,3.1c0,1.8-1.4,3-3.5,3c-0.9,0-1.7-0.2-2.3-0.4
		C61,22.2,61,22.1,61,22v-1.6c0-0.1,0.1-0.1,0.1-0.1c0.6,0.3,1.4,0.5,2.3,0.5c1.1,0,1.6-0.5,1.6-1.1c0-1-1.1-1.5-3.8-1.7
		c-0.1,0-0.1,0-0.1-0.1v-0.8c0.1-0.4,0.9-3.4,1-3.5c0-0.1,0.1-0.1,0.1-0.1h4.4c0.1,0,0.1,0,0.1,0.1l-0.4,1.5c0,0.1,0,0.1-0.1,0.1
		H63.2z"/>
</g>
</svg>
